<svg id="photosynthesis-scheme" width="216.05mm" height="125.18mm" version="1.1" viewBox="0 0 216.05 125.18" xmlns="http://www.w3.org/2000/svg">
	<g transform="translate(-3.2695 -25.238)">
		<rect x="3.2695" y="108.2" width="216.05" height="2" rx=".5" fill="#4d683d" style="paint-order:markers stroke fill"/>
		<rect x="3.2695" y="127.53" width="216.05" height="2" rx=".5" fill="#4d683d" style="paint-order:markers stroke fill"/>
		<g transform="translate(10.133 25.589)" fill="#000000" font-family="'Source Sans 3'" font-size="8.2931px" stroke-width=".20733">
			<text x="-6.3343873" y="81.641235" style="line-height:1.05" xml:space="preserve"><tspan x="-6.3343873" y="81.641235" fill="#000000" font-weight="bold" stroke-width=".20733">Stroma</tspan></text>
			<text x="-6.6826963" y="109.97566" style="line-height:1.05" xml:space="preserve"><tspan x="-6.6826963" y="109.97566" fill="#000000" font-weight="bold" stroke-width=".20733">Lumen</tspan></text>
		</g>
	</g>
	<a id="scheme-oec" transform="translate(6.8636 23.877)">
		<ellipse cx="34.445" cy="90.412" rx="11.573" ry="9.3954" fill="#bbdef0" stroke="#fff" stroke-dashoffset="3.2519" stroke-linecap="round" stroke-linejoin="round" stroke-width="3" style="paint-order:markers stroke fill"/>
		<text x="28.570921" y="96.907669" font-family="'Source Sans 3'" font-size="6.3989px" stroke-width=".15997" style="line-height:1.05" xml:space="preserve"><tspan x="28.570921" y="96.907669" font-weight="bold" stroke-width=".15997">OEC</tspan></text>
	</a>
	<a id="scheme-psii" transform="translate(6.8637 .35047)">
		<ellipse cx="34.445" cy="93.275" rx="14.445" ry="19.33" fill="#5fad56" stroke="#fff" stroke-dashoffset="3.2519" stroke-linecap="round" stroke-linejoin="round" stroke-width="3" style="paint-order:markers stroke fill"/>
		<text x="25.216417" y="96.725319" font-family="'Source Sans 3'" font-size="10.583px" stroke-width=".26458" style="line-height:1.05" xml:space="preserve"><tspan x="25.216417" y="96.725319" font-weight="bold" stroke-width=".26458">PSII</tspan></text>
	</a>
	<a id="scheme-cytb6f" transform="translate(6.8637 .35047)">
		<ellipse cx="83.335" cy="93.275" rx="14.445" ry="19.33" fill="#63c7b2" stroke="#fff" stroke-dashoffset="3.2519" stroke-linecap="round" stroke-linejoin="round" stroke-width="3" style="paint-order:markers stroke fill"/>
		<text x="71.703972" y="95.296288" font-family="'Source Sans 3'" font-size="7.7885px" stroke="#000000" stroke-opacity="0" stroke-width=".19471" style="line-height:1.05" xml:space="preserve"><tspan x="71.703972" y="95.296288" font-weight="bold" stroke="#000000" stroke-opacity="0" stroke-width=".19471">Cytb6f</tspan></text>
	</a>
	<a id="scheme-psi" transform="translate(6.8637 .35047)">
		<ellipse cx="132.23" cy="93.275" rx="14.445" ry="19.33" fill="#4d9078" stroke="#fff" stroke-dashoffset="3.2519" stroke-linecap="round" stroke-linejoin="round" stroke-width="3" style="paint-order:markers stroke fill"/>
		<text x="132.22528" y="96.725327" font-family="'Source Sans 3'" font-size="10.583px" stroke-width=".26458" style="line-height:1.05" xml:space="preserve"><tspan x="132.22528" y="96.725327" font-weight="bold" stroke-width=".26458" text-align="center" text-anchor="middle">PSI</tspan></text>
	</a>
	<a id="scheme-atpsynth" transform="translate(6.8637 .35047)">
		<rect x="168.08" y="73.945" width="19.692" height="38.661" rx="1.3495" fill="#f78154" stroke="#fff" stroke-dashoffset="3.2519" stroke-linecap="round" stroke-linejoin="round" stroke-width="3" style="paint-order:markers stroke fill"/>
		<g transform="matrix(1.4098 0 0 1.4098 -175.97 -39.243)">
			<ellipse cx="256.94" cy="73.424" rx="2.7751" ry="7.8286" fill="#c86a8c" style="paint-order:markers stroke fill"/>
			<ellipse cx="254.17" cy="73.424" rx="3.0834" ry="8.6985" fill="#f99b76" style="paint-order:markers stroke fill"/>
			<ellipse transform="scale(-1,1)" cx="-244.88" cy="73.424" rx="2.7751" ry="7.8286" fill="#c86a8c" style="paint-order:markers stroke fill"/>
			<ellipse transform="scale(-1,1)" cx="-247.66" cy="73.424" rx="3.0834" ry="8.6985" fill="#f99b76" style="paint-order:markers stroke fill"/>
			<ellipse cx="251.08" cy="73.424" rx="3.426" ry="9.665" fill="#c86a8c" style="paint-order:markers stroke fill"/>
		</g>
		<g transform="translate(-4.4538 -22.039)" font-family="'Source Sans 3'">
			<text x="182.6032" y="114.88722" font-size="10.583px" stroke-width=".26458" style="line-height:1.05" xml:space="preserve"><tspan x="182.6032" y="114.88722" font-weight="bold" stroke-width=".26458" text-align="center" text-anchor="middle">ATP</tspan></text>
			<text x="182.46231" y="121.32639" font-size="6.7817px" stroke-width=".16954" style="line-height:1.05" xml:space="preserve"><tspan x="182.46231" y="121.32639" font-weight="bold" stroke-width=".16954" text-align="center" text-anchor="middle">Synth</tspan></text>
		</g>
	</a>
	<a id="scheme-cbb" transform="translate(6.8637 .35047)">
		<g stroke-linecap="round">
			<path d="m129.18 26.72a21.82 21.82 0 0 1-21.82 21.82 21.82 21.82 0 0 1-21.82-21.82 21.82 21.82 0 0 1 21.82-21.82 21.82 21.82 0 0 1 21.82 21.82z" color="#000000" fill-opacity="0" stroke-linejoin="bevel" style="-inkscape-stroke:none"/>
			<path d="m107.36 4.1504c-12.456 0-22.57 10.112-22.57 22.568s10.114 22.57 22.57 22.57c12.456 0 22.568-10.114 22.568-22.57s-10.112-22.568-22.568-22.568zm0 1.5c11.645 0 21.068 9.4231 21.068 21.068s-9.4231 21.07-21.068 21.07c-11.645 0-21.07-9.4251-21.07-21.07s9.4251-21.068 21.07-21.068z" color="#000000" fill="#d81159" stroke-linejoin="bevel" style="-inkscape-stroke:none"/>
			<g fill="#d81159">
				<path d="m124.68 21.844a0.75 0.75 0 0 0-0.5293 0.2207 0.75 0.75 0 0 0 0 1.0605l5.0293 5.0293 5.0312-5.0293a0.75 0.75 0 0 0 0-1.0605 0.75 0.75 0 0 0-1.0606 0l-3.9707 3.9707-3.9688-3.9707a0.75 0.75 0 0 0-0.53125-0.2207z" color="#000000" style="-inkscape-stroke:none"/>
				<path d="m102.71-0.13086a0.75 0.75 0 0 0 0 1.0605l3.9707 3.9688-3.9707 3.9707a0.75 0.75 0 0 0 0 1.0605 0.75 0.75 0 0 0 1.0606 0l5.0312-5.0293-5.0312-5.0312a0.75 0.75 0 0 0-1.0606 0z" color="#000000" style="-inkscape-stroke:none"/>
				<path d="m85.541 25.283-5.0293 5.0312a0.75 0.75 0 0 0 0 1.0605 0.75 0.75 0 0 0 1.0605 0l3.9707-3.9688 3.9688 3.9688a0.75 0.75 0 0 0 1.0605 0 0.75 0.75 0 0 0 0-1.0605z" color="#000000" style="-inkscape-stroke:none"/>
				<path d="m111.49 43.289a0.75 0.75 0 0 0-0.53125 0.21875l-5.0293 5.0312 5.0293 5.0312a0.75 0.75 0 0 0 1.0606 0 0.75 0.75 0 0 0 0-1.0625l-3.9688-3.9688 3.9688-3.9688a0.75 0.75 0 0 0 0-1.0625 0.75 0.75 0 0 0-0.5293-0.21875z" color="#000000" style="-inkscape-stroke:none"/>
			</g>
		</g>
		<text x="97.809265" y="30.169697" font-family="'Source Sans 3'" font-size="10.583px" stroke-width="1.5" style="line-height:1.05" xml:space="preserve"><tspan x="97.809265" y="30.169697" font-weight="bold" stroke-width="1.5">CBB</tspan></text>
	</a>
	<a id="scheme-fnr" transform="translate(6.8637 .35047)">
		<ellipse cx="146.73" cy="67.026" rx="8.4889" ry="5.2234" fill="#f2c14e" style="paint-order:markers stroke fill"/>
		<text x="146.53954" y="69.122124" font-family="'Source Sans 3'" font-size="6.4286px" stroke-width=".16071" style="line-height:1.05" xml:space="preserve"><tspan x="146.53954" y="69.122124" font-weight="bold" stroke-width=".16071" text-align="center" text-anchor="middle">FNR</tspan></text>
	</a>
</svg>
