<?xml version="1.0" encoding="utf-8" standalone="no"?>
<!DOCTYPE svg PUBLIC "-//W3C//DTD SVG 1.1//EN"
  "http://www.w3.org/Graphics/SVG/1.1/DTD/svg11.dtd">
<svg xmlns:xlink="http://www.w3.org/1999/xlink" width="849.486537pt" height="275.836743pt" viewBox="0 0 849.486537 275.836743" xmlns="http://www.w3.org/2000/svg" version="1.1">
 <metadata>
  <rdf:RDF xmlns:dc="http://purl.org/dc/elements/1.1/" xmlns:cc="http://creativecommons.org/ns#" xmlns:rdf="http://www.w3.org/1999/02/22-rdf-syntax-ns#">
   <cc:Work>
    <dc:type rdf:resource="http://purl.org/dc/dcmitype/StillImage"/>
    <dc:date>2026-02-18T18:16:23.910356</dc:date>
    <dc:format>image/svg+xml</dc:format>
    <dc:creator>
     <cc:Agent>
      <dc:title>Matplotlib v3.10.8, https://matplotlib.org/</dc:title>
     </cc:Agent>
    </dc:creator>
   </cc:Work>
  </rdf:RDF>
 </metadata>
 <defs>
  <style type="text/css">*{stroke-linejoin: round; stroke-linecap: butt}</style>
 </defs>
 <g id="figure_1">
  <g id="patch_1">
   <path d="M 0 275.836743 
L 849.486537 275.836743 
L 849.486537 0 
L 0 0 
z
" style="fill: #ffffff"/>
  </g>
  <g id="axes_1">
   <g id="patch_2">
    <path d="M 43.78125 236.758618 
L 368.74205 236.758618 
L 368.74205 9.11789 
L 43.78125 9.11789 
z
" style="fill: #ffffff"/>
   </g>
   <g id="patch_3">
    <path d="M 46.96714 247.92746 
L 62.896591 247.92746 
L 62.896591 -8.337817 
L 46.96714 -8.337817 
z
" clip-path="url(#p6195d52d75)" style="fill: #f3f2f0; stroke: #000000; stroke-linejoin: miter"/>
   </g>
   <g id="matplotlib.axis_1">
    <g id="xtick_1">
     <g id="line2d_1">
      <defs>
       <path id="m82fb994153" d="M 0 0 
L 0 3.5 
" style="stroke: #000000; stroke-width: 0.8"/>
      </defs>
      <g>
       <use xlink:href="#m82fb994153" x="46.96714" y="236.758618" style="stroke: #000000; stroke-width: 0.8"/>
      </g>
     </g>
     <g id="text_1">
      <!-- 0 -->
      <g transform="translate(43.78589 251.357055) scale(0.1 -0.1)">
       <defs>
        <path id="DejaVuSans-30" d="M 2034 4250 
Q 1547 4250 1301 3770 
Q 1056 3291 1056 2328 
Q 1056 1369 1301 889 
Q 1547 409 2034 409 
Q 2525 409 2770 889 
Q 3016 1369 3016 2328 
Q 3016 3291 2770 3770 
Q 2525 4250 2034 4250 
z
M 2034 4750 
Q 2819 4750 3233 4129 
Q 3647 3509 3647 2328 
Q 3647 1150 3233 529 
Q 2819 -91 2034 -91 
Q 1250 -91 836 529 
Q 422 1150 422 2328 
Q 422 3509 836 4129 
Q 1250 4750 2034 4750 
z
" transform="scale(0.015625)"/>
       </defs>
       <use xlink:href="#DejaVuSans-30"/>
      </g>
     </g>
    </g>
    <g id="xtick_2">
     <g id="line2d_2">
      <g>
       <use xlink:href="#m82fb994153" x="110.684944" y="236.758618" style="stroke: #000000; stroke-width: 0.8"/>
      </g>
     </g>
     <g id="text_2">
      <!-- 200 -->
      <g transform="translate(101.141194 251.357055) scale(0.1 -0.1)">
       <defs>
        <path id="DejaVuSans-32" d="M 1228 531 
L 3431 531 
L 3431 0 
L 469 0 
L 469 531 
Q 828 903 1448 1529 
Q 2069 2156 2228 2338 
Q 2531 2678 2651 2914 
Q 2772 3150 2772 3378 
Q 2772 3750 2511 3984 
Q 2250 4219 1831 4219 
Q 1534 4219 1204 4116 
Q 875 4013 500 3803 
L 500 4441 
Q 881 4594 1212 4672 
Q 1544 4750 1819 4750 
Q 2544 4750 2975 4387 
Q 3406 4025 3406 3419 
Q 3406 3131 3298 2873 
Q 3191 2616 2906 2266 
Q 2828 2175 2409 1742 
Q 1991 1309 1228 531 
z
" transform="scale(0.015625)"/>
       </defs>
       <use xlink:href="#DejaVuSans-32"/>
       <use xlink:href="#DejaVuSans-30" transform="translate(63.623047 0)"/>
       <use xlink:href="#DejaVuSans-30" transform="translate(127.246094 0)"/>
      </g>
     </g>
    </g>
    <g id="xtick_3">
     <g id="line2d_3">
      <g>
       <use xlink:href="#m82fb994153" x="174.402748" y="236.758618" style="stroke: #000000; stroke-width: 0.8"/>
      </g>
     </g>
     <g id="text_3">
      <!-- 400 -->
      <g transform="translate(164.858998 251.357055) scale(0.1 -0.1)">
       <defs>
        <path id="DejaVuSans-34" d="M 2419 4116 
L 825 1625 
L 2419 1625 
L 2419 4116 
z
M 2253 4666 
L 3047 4666 
L 3047 1625 
L 3713 1625 
L 3713 1100 
L 3047 1100 
L 3047 0 
L 2419 0 
L 2419 1100 
L 313 1100 
L 313 1709 
L 2253 4666 
z
" transform="scale(0.015625)"/>
       </defs>
       <use xlink:href="#DejaVuSans-34"/>
       <use xlink:href="#DejaVuSans-30" transform="translate(63.623047 0)"/>
       <use xlink:href="#DejaVuSans-30" transform="translate(127.246094 0)"/>
      </g>
     </g>
    </g>
    <g id="xtick_4">
     <g id="line2d_4">
      <g>
       <use xlink:href="#m82fb994153" x="238.120552" y="236.758618" style="stroke: #000000; stroke-width: 0.8"/>
      </g>
     </g>
     <g id="text_4">
      <!-- 600 -->
      <g transform="translate(228.576802 251.357055) scale(0.1 -0.1)">
       <defs>
        <path id="DejaVuSans-36" d="M 2113 2584 
Q 1688 2584 1439 2293 
Q 1191 2003 1191 1497 
Q 1191 994 1439 701 
Q 1688 409 2113 409 
Q 2538 409 2786 701 
Q 3034 994 3034 1497 
Q 3034 2003 2786 2293 
Q 2538 2584 2113 2584 
z
M 3366 4563 
L 3366 3988 
Q 3128 4100 2886 4159 
Q 2644 4219 2406 4219 
Q 1781 4219 1451 3797 
Q 1122 3375 1075 2522 
Q 1259 2794 1537 2939 
Q 1816 3084 2150 3084 
Q 2853 3084 3261 2657 
Q 3669 2231 3669 1497 
Q 3669 778 3244 343 
Q 2819 -91 2113 -91 
Q 1303 -91 875 529 
Q 447 1150 447 2328 
Q 447 3434 972 4092 
Q 1497 4750 2381 4750 
Q 2619 4750 2861 4703 
Q 3103 4656 3366 4563 
z
" transform="scale(0.015625)"/>
       </defs>
       <use xlink:href="#DejaVuSans-36"/>
       <use xlink:href="#DejaVuSans-30" transform="translate(63.623047 0)"/>
       <use xlink:href="#DejaVuSans-30" transform="translate(127.246094 0)"/>
      </g>
     </g>
    </g>
    <g id="xtick_5">
     <g id="line2d_5">
      <g>
       <use xlink:href="#m82fb994153" x="301.838356" y="236.758618" style="stroke: #000000; stroke-width: 0.8"/>
      </g>
     </g>
     <g id="text_5">
      <!-- 800 -->
      <g transform="translate(292.294606 251.357055) scale(0.1 -0.1)">
       <defs>
        <path id="DejaVuSans-38" d="M 2034 2216 
Q 1584 2216 1326 1975 
Q 1069 1734 1069 1313 
Q 1069 891 1326 650 
Q 1584 409 2034 409 
Q 2484 409 2743 651 
Q 3003 894 3003 1313 
Q 3003 1734 2745 1975 
Q 2488 2216 2034 2216 
z
M 1403 2484 
Q 997 2584 770 2862 
Q 544 3141 544 3541 
Q 544 4100 942 4425 
Q 1341 4750 2034 4750 
Q 2731 4750 3128 4425 
Q 3525 4100 3525 3541 
Q 3525 3141 3298 2862 
Q 3072 2584 2669 2484 
Q 3125 2378 3379 2068 
Q 3634 1759 3634 1313 
Q 3634 634 3220 271 
Q 2806 -91 2034 -91 
Q 1263 -91 848 271 
Q 434 634 434 1313 
Q 434 1759 690 2068 
Q 947 2378 1403 2484 
z
M 1172 3481 
Q 1172 3119 1398 2916 
Q 1625 2713 2034 2713 
Q 2441 2713 2670 2916 
Q 2900 3119 2900 3481 
Q 2900 3844 2670 4047 
Q 2441 4250 2034 4250 
Q 1625 4250 1398 4047 
Q 1172 3844 1172 3481 
z
" transform="scale(0.015625)"/>
       </defs>
       <use xlink:href="#DejaVuSans-38"/>
       <use xlink:href="#DejaVuSans-30" transform="translate(63.623047 0)"/>
       <use xlink:href="#DejaVuSans-30" transform="translate(127.246094 0)"/>
      </g>
     </g>
    </g>
    <g id="xtick_6">
     <g id="line2d_6">
      <g>
       <use xlink:href="#m82fb994153" x="365.55616" y="236.758618" style="stroke: #000000; stroke-width: 0.8"/>
      </g>
     </g>
     <g id="text_6">
      <!-- 1000 -->
      <g transform="translate(352.83116 251.357055) scale(0.1 -0.1)">
       <defs>
        <path id="DejaVuSans-31" d="M 794 531 
L 1825 531 
L 1825 4091 
L 703 3866 
L 703 4441 
L 1819 4666 
L 2450 4666 
L 2450 531 
L 3481 531 
L 3481 0 
L 794 0 
L 794 531 
z
" transform="scale(0.015625)"/>
       </defs>
       <use xlink:href="#DejaVuSans-31"/>
       <use xlink:href="#DejaVuSans-30" transform="translate(63.623047 0)"/>
       <use xlink:href="#DejaVuSans-30" transform="translate(127.246094 0)"/>
       <use xlink:href="#DejaVuSans-30" transform="translate(190.869141 0)"/>
      </g>
     </g>
    </g>
    <g id="text_7">
     <!-- Light Intensity (µmol photons $\cdot$ m$^{-2}$ $\cdot$ s$^{-1}$) -->
     <g transform="translate(102.91165 266.536743) scale(0.1 -0.1)">
      <defs>
       <path id="DejaVuSans-4c" d="M 628 4666 
L 1259 4666 
L 1259 531 
L 3531 531 
L 3531 0 
L 628 0 
L 628 4666 
z
" transform="scale(0.015625)"/>
       <path id="DejaVuSans-69" d="M 603 3500 
L 1178 3500 
L 1178 0 
L 603 0 
L 603 3500 
z
M 603 4863 
L 1178 4863 
L 1178 4134 
L 603 4134 
L 603 4863 
z
" transform="scale(0.015625)"/>
       <path id="DejaVuSans-67" d="M 2906 1791 
Q 2906 2416 2648 2759 
Q 2391 3103 1925 3103 
Q 1463 3103 1205 2759 
Q 947 2416 947 1791 
Q 947 1169 1205 825 
Q 1463 481 1925 481 
Q 2391 481 2648 825 
Q 2906 1169 2906 1791 
z
M 3481 434 
Q 3481 -459 3084 -895 
Q 2688 -1331 1869 -1331 
Q 1566 -1331 1297 -1286 
Q 1028 -1241 775 -1147 
L 775 -588 
Q 1028 -725 1275 -790 
Q 1522 -856 1778 -856 
Q 2344 -856 2625 -561 
Q 2906 -266 2906 331 
L 2906 616 
Q 2728 306 2450 153 
Q 2172 0 1784 0 
Q 1141 0 747 490 
Q 353 981 353 1791 
Q 353 2603 747 3093 
Q 1141 3584 1784 3584 
Q 2172 3584 2450 3431 
Q 2728 3278 2906 2969 
L 2906 3500 
L 3481 3500 
L 3481 434 
z
" transform="scale(0.015625)"/>
       <path id="DejaVuSans-68" d="M 3513 2113 
L 3513 0 
L 2938 0 
L 2938 2094 
Q 2938 2591 2744 2837 
Q 2550 3084 2163 3084 
Q 1697 3084 1428 2787 
Q 1159 2491 1159 1978 
L 1159 0 
L 581 0 
L 581 4863 
L 1159 4863 
L 1159 2956 
Q 1366 3272 1645 3428 
Q 1925 3584 2291 3584 
Q 2894 3584 3203 3211 
Q 3513 2838 3513 2113 
z
" transform="scale(0.015625)"/>
       <path id="DejaVuSans-74" d="M 1172 4494 
L 1172 3500 
L 2356 3500 
L 2356 3053 
L 1172 3053 
L 1172 1153 
Q 1172 725 1289 603 
Q 1406 481 1766 481 
L 2356 481 
L 2356 0 
L 1766 0 
Q 1100 0 847 248 
Q 594 497 594 1153 
L 594 3053 
L 172 3053 
L 172 3500 
L 594 3500 
L 594 4494 
L 1172 4494 
z
" transform="scale(0.015625)"/>
       <path id="DejaVuSans-20" transform="scale(0.015625)"/>
       <path id="DejaVuSans-49" d="M 628 4666 
L 1259 4666 
L 1259 0 
L 628 0 
L 628 4666 
z
" transform="scale(0.015625)"/>
       <path id="DejaVuSans-6e" d="M 3513 2113 
L 3513 0 
L 2938 0 
L 2938 2094 
Q 2938 2591 2744 2837 
Q 2550 3084 2163 3084 
Q 1697 3084 1428 2787 
Q 1159 2491 1159 1978 
L 1159 0 
L 581 0 
L 581 3500 
L 1159 3500 
L 1159 2956 
Q 1366 3272 1645 3428 
Q 1925 3584 2291 3584 
Q 2894 3584 3203 3211 
Q 3513 2838 3513 2113 
z
" transform="scale(0.015625)"/>
       <path id="DejaVuSans-65" d="M 3597 1894 
L 3597 1613 
L 953 1613 
Q 991 1019 1311 708 
Q 1631 397 2203 397 
Q 2534 397 2845 478 
Q 3156 559 3463 722 
L 3463 178 
Q 3153 47 2828 -22 
Q 2503 -91 2169 -91 
Q 1331 -91 842 396 
Q 353 884 353 1716 
Q 353 2575 817 3079 
Q 1281 3584 2069 3584 
Q 2775 3584 3186 3129 
Q 3597 2675 3597 1894 
z
M 3022 2063 
Q 3016 2534 2758 2815 
Q 2500 3097 2075 3097 
Q 1594 3097 1305 2825 
Q 1016 2553 972 2059 
L 3022 2063 
z
" transform="scale(0.015625)"/>
       <path id="DejaVuSans-73" d="M 2834 3397 
L 2834 2853 
Q 2591 2978 2328 3040 
Q 2066 3103 1784 3103 
Q 1356 3103 1142 2972 
Q 928 2841 928 2578 
Q 928 2378 1081 2264 
Q 1234 2150 1697 2047 
L 1894 2003 
Q 2506 1872 2764 1633 
Q 3022 1394 3022 966 
Q 3022 478 2636 193 
Q 2250 -91 1575 -91 
Q 1294 -91 989 -36 
Q 684 19 347 128 
L 347 722 
Q 666 556 975 473 
Q 1284 391 1588 391 
Q 1994 391 2212 530 
Q 2431 669 2431 922 
Q 2431 1156 2273 1281 
Q 2116 1406 1581 1522 
L 1381 1569 
Q 847 1681 609 1914 
Q 372 2147 372 2553 
Q 372 3047 722 3315 
Q 1072 3584 1716 3584 
Q 2034 3584 2315 3537 
Q 2597 3491 2834 3397 
z
" transform="scale(0.015625)"/>
       <path id="DejaVuSans-79" d="M 2059 -325 
Q 1816 -950 1584 -1140 
Q 1353 -1331 966 -1331 
L 506 -1331 
L 506 -850 
L 844 -850 
Q 1081 -850 1212 -737 
Q 1344 -625 1503 -206 
L 1606 56 
L 191 3500 
L 800 3500 
L 1894 763 
L 2988 3500 
L 3597 3500 
L 2059 -325 
z
" transform="scale(0.015625)"/>
       <path id="DejaVuSans-28" d="M 1984 4856 
Q 1566 4138 1362 3434 
Q 1159 2731 1159 2009 
Q 1159 1288 1364 580 
Q 1569 -128 1984 -844 
L 1484 -844 
Q 1016 -109 783 600 
Q 550 1309 550 2009 
Q 550 2706 781 3412 
Q 1013 4119 1484 4856 
L 1984 4856 
z
" transform="scale(0.015625)"/>
       <path id="DejaVuSans-b5" d="M 544 -1331 
L 544 3500 
L 1119 3500 
L 1119 1325 
Q 1119 872 1334 640 
Q 1550 409 1972 409 
Q 2434 409 2667 671 
Q 2900 934 2900 1459 
L 2900 3500 
L 3475 3500 
L 3475 806 
Q 3475 619 3529 530 
Q 3584 441 3700 441 
Q 3728 441 3778 458 
Q 3828 475 3916 513 
L 3916 50 
Q 3788 -22 3673 -56 
Q 3559 -91 3450 -91 
Q 3234 -91 3106 31 
Q 2978 153 2931 403 
Q 2775 156 2548 32 
Q 2322 -91 2016 -91 
Q 1697 -91 1473 31 
Q 1250 153 1119 397 
L 1119 -1331 
L 544 -1331 
z
" transform="scale(0.015625)"/>
       <path id="DejaVuSans-6d" d="M 3328 2828 
Q 3544 3216 3844 3400 
Q 4144 3584 4550 3584 
Q 5097 3584 5394 3201 
Q 5691 2819 5691 2113 
L 5691 0 
L 5113 0 
L 5113 2094 
Q 5113 2597 4934 2840 
Q 4756 3084 4391 3084 
Q 3944 3084 3684 2787 
Q 3425 2491 3425 1978 
L 3425 0 
L 2847 0 
L 2847 2094 
Q 2847 2600 2669 2842 
Q 2491 3084 2119 3084 
Q 1678 3084 1418 2786 
Q 1159 2488 1159 1978 
L 1159 0 
L 581 0 
L 581 3500 
L 1159 3500 
L 1159 2956 
Q 1356 3278 1631 3431 
Q 1906 3584 2284 3584 
Q 2666 3584 2933 3390 
Q 3200 3197 3328 2828 
z
" transform="scale(0.015625)"/>
       <path id="DejaVuSans-6f" d="M 1959 3097 
Q 1497 3097 1228 2736 
Q 959 2375 959 1747 
Q 959 1119 1226 758 
Q 1494 397 1959 397 
Q 2419 397 2687 759 
Q 2956 1122 2956 1747 
Q 2956 2369 2687 2733 
Q 2419 3097 1959 3097 
z
M 1959 3584 
Q 2709 3584 3137 3096 
Q 3566 2609 3566 1747 
Q 3566 888 3137 398 
Q 2709 -91 1959 -91 
Q 1206 -91 779 398 
Q 353 888 353 1747 
Q 353 2609 779 3096 
Q 1206 3584 1959 3584 
z
" transform="scale(0.015625)"/>
       <path id="DejaVuSans-6c" d="M 603 4863 
L 1178 4863 
L 1178 0 
L 603 0 
L 603 4863 
z
" transform="scale(0.015625)"/>
       <path id="DejaVuSans-70" d="M 1159 525 
L 1159 -1331 
L 581 -1331 
L 581 3500 
L 1159 3500 
L 1159 2969 
Q 1341 3281 1617 3432 
Q 1894 3584 2278 3584 
Q 2916 3584 3314 3078 
Q 3713 2572 3713 1747 
Q 3713 922 3314 415 
Q 2916 -91 2278 -91 
Q 1894 -91 1617 61 
Q 1341 213 1159 525 
z
M 3116 1747 
Q 3116 2381 2855 2742 
Q 2594 3103 2138 3103 
Q 1681 3103 1420 2742 
Q 1159 2381 1159 1747 
Q 1159 1113 1420 752 
Q 1681 391 2138 391 
Q 2594 391 2855 752 
Q 3116 1113 3116 1747 
z
" transform="scale(0.015625)"/>
       <path id="DejaVuSans-22c5" d="M 684 2619 
L 1344 2619 
L 1344 1825 
L 684 1825 
L 684 2619 
z
" transform="scale(0.015625)"/>
       <path id="DejaVuSans-2212" d="M 678 2272 
L 4684 2272 
L 4684 1741 
L 678 1741 
L 678 2272 
z
" transform="scale(0.015625)"/>
       <path id="DejaVuSans-29" d="M 513 4856 
L 1013 4856 
Q 1481 4119 1714 3412 
Q 1947 2706 1947 2009 
Q 1947 1309 1714 600 
Q 1481 -109 1013 -844 
L 513 -844 
Q 928 -128 1133 580 
Q 1338 1288 1338 2009 
Q 1338 2731 1133 3434 
Q 928 4138 513 4856 
z
" transform="scale(0.015625)"/>
      </defs>
      <use xlink:href="#DejaVuSans-4c" transform="translate(0 0.765625)"/>
      <use xlink:href="#DejaVuSans-69" transform="translate(55.712891 0.765625)"/>
      <use xlink:href="#DejaVuSans-67" transform="translate(83.496094 0.765625)"/>
      <use xlink:href="#DejaVuSans-68" transform="translate(146.972656 0.765625)"/>
      <use xlink:href="#DejaVuSans-74" transform="translate(210.351562 0.765625)"/>
      <use xlink:href="#DejaVuSans-20" transform="translate(249.560547 0.765625)"/>
      <use xlink:href="#DejaVuSans-49" transform="translate(281.347656 0.765625)"/>
      <use xlink:href="#DejaVuSans-6e" transform="translate(310.839844 0.765625)"/>
      <use xlink:href="#DejaVuSans-74" transform="translate(374.21875 0.765625)"/>
      <use xlink:href="#DejaVuSans-65" transform="translate(413.427734 0.765625)"/>
      <use xlink:href="#DejaVuSans-6e" transform="translate(474.951172 0.765625)"/>
      <use xlink:href="#DejaVuSans-73" transform="translate(538.330078 0.765625)"/>
      <use xlink:href="#DejaVuSans-69" transform="translate(590.429688 0.765625)"/>
      <use xlink:href="#DejaVuSans-74" transform="translate(618.212891 0.765625)"/>
      <use xlink:href="#DejaVuSans-79" transform="translate(657.421875 0.765625)"/>
      <use xlink:href="#DejaVuSans-20" transform="translate(716.601562 0.765625)"/>
      <use xlink:href="#DejaVuSans-28" transform="translate(748.388672 0.765625)"/>
      <use xlink:href="#DejaVuSans-b5" transform="translate(787.402344 0.765625)"/>
      <use xlink:href="#DejaVuSans-6d" transform="translate(851.025391 0.765625)"/>
      <use xlink:href="#DejaVuSans-6f" transform="translate(948.4375 0.765625)"/>
      <use xlink:href="#DejaVuSans-6c" transform="translate(1009.619141 0.765625)"/>
      <use xlink:href="#DejaVuSans-20" transform="translate(1037.402344 0.765625)"/>
      <use xlink:href="#DejaVuSans-70" transform="translate(1069.189453 0.765625)"/>
      <use xlink:href="#DejaVuSans-68" transform="translate(1132.666016 0.765625)"/>
      <use xlink:href="#DejaVuSans-6f" transform="translate(1196.044922 0.765625)"/>
      <use xlink:href="#DejaVuSans-74" transform="translate(1257.226562 0.765625)"/>
      <use xlink:href="#DejaVuSans-6f" transform="translate(1296.435547 0.765625)"/>
      <use xlink:href="#DejaVuSans-6e" transform="translate(1357.617188 0.765625)"/>
      <use xlink:href="#DejaVuSans-73" transform="translate(1420.996094 0.765625)"/>
      <use xlink:href="#DejaVuSans-20" transform="translate(1473.095703 0.765625)"/>
      <use xlink:href="#DejaVuSans-22c5" transform="translate(1504.882812 0.765625)"/>
      <use xlink:href="#DejaVuSans-20" transform="translate(1536.669922 0.765625)"/>
      <use xlink:href="#DejaVuSans-6d" transform="translate(1568.457031 0.765625)"/>
      <use xlink:href="#DejaVuSans-2212" transform="translate(1666.826172 39.046875) scale(0.7)"/>
      <use xlink:href="#DejaVuSans-32" transform="translate(1725.478516 39.046875) scale(0.7)"/>
      <use xlink:href="#DejaVuSans-20" transform="translate(1772.749023 0.765625)"/>
      <use xlink:href="#DejaVuSans-22c5" transform="translate(1804.536133 0.765625)"/>
      <use xlink:href="#DejaVuSans-20" transform="translate(1836.323242 0.765625)"/>
      <use xlink:href="#DejaVuSans-73" transform="translate(1868.110352 0.765625)"/>
      <use xlink:href="#DejaVuSans-2212" transform="translate(1921.166992 39.046875) scale(0.7)"/>
      <use xlink:href="#DejaVuSans-31" transform="translate(1979.819336 39.046875) scale(0.7)"/>
      <use xlink:href="#DejaVuSans-29" transform="translate(2027.089844 0.765625)"/>
     </g>
    </g>
   </g>
   <g id="matplotlib.axis_2">
    <g id="ytick_1">
     <g id="line2d_7">
      <defs>
       <path id="m7b1fa8ba19" d="M 0 0 
L -3.5 0 
" style="stroke: #000000; stroke-width: 0.8"/>
      </defs>
      <g>
       <use xlink:href="#m7b1fa8ba19" x="43.78125" y="186.171789" style="stroke: #000000; stroke-width: 0.8"/>
      </g>
     </g>
     <g id="text_8">
      <!-- 0.2 -->
      <g transform="translate(20.878125 189.971008) scale(0.1 -0.1)">
       <defs>
        <path id="DejaVuSans-2e" d="M 684 794 
L 1344 794 
L 1344 0 
L 684 0 
L 684 794 
z
" transform="scale(0.015625)"/>
       </defs>
       <use xlink:href="#DejaVuSans-30"/>
       <use xlink:href="#DejaVuSans-2e" transform="translate(63.623047 0)"/>
       <use xlink:href="#DejaVuSans-32" transform="translate(95.410156 0)"/>
      </g>
     </g>
    </g>
    <g id="ytick_2">
     <g id="line2d_8">
      <g>
       <use xlink:href="#m7b1fa8ba19" x="43.78125" y="135.584961" style="stroke: #000000; stroke-width: 0.8"/>
      </g>
     </g>
     <g id="text_9">
      <!-- 0.4 -->
      <g transform="translate(20.878125 139.38418) scale(0.1 -0.1)">
       <use xlink:href="#DejaVuSans-30"/>
       <use xlink:href="#DejaVuSans-2e" transform="translate(63.623047 0)"/>
       <use xlink:href="#DejaVuSans-34" transform="translate(95.410156 0)"/>
      </g>
     </g>
    </g>
    <g id="ytick_3">
     <g id="line2d_9">
      <g>
       <use xlink:href="#m7b1fa8ba19" x="43.78125" y="84.998133" style="stroke: #000000; stroke-width: 0.8"/>
      </g>
     </g>
     <g id="text_10">
      <!-- 0.6 -->
      <g transform="translate(20.878125 88.797352) scale(0.1 -0.1)">
       <use xlink:href="#DejaVuSans-30"/>
       <use xlink:href="#DejaVuSans-2e" transform="translate(63.623047 0)"/>
       <use xlink:href="#DejaVuSans-36" transform="translate(95.410156 0)"/>
      </g>
     </g>
    </g>
    <g id="ytick_4">
     <g id="line2d_10">
      <g>
       <use xlink:href="#m7b1fa8ba19" x="43.78125" y="34.411305" style="stroke: #000000; stroke-width: 0.8"/>
      </g>
     </g>
     <g id="text_11">
      <!-- 0.8 -->
      <g transform="translate(20.878125 38.210523) scale(0.1 -0.1)">
       <use xlink:href="#DejaVuSans-30"/>
       <use xlink:href="#DejaVuSans-2e" transform="translate(63.623047 0)"/>
       <use xlink:href="#DejaVuSans-38" transform="translate(95.410156 0)"/>
      </g>
     </g>
    </g>
    <g id="text_12">
     <!-- Concentrations Ratios -->
     <g transform="translate(14.798438 177.94216) rotate(-90) scale(0.1 -0.1)">
      <defs>
       <path id="DejaVuSans-43" d="M 4122 4306 
L 4122 3641 
Q 3803 3938 3442 4084 
Q 3081 4231 2675 4231 
Q 1875 4231 1450 3742 
Q 1025 3253 1025 2328 
Q 1025 1406 1450 917 
Q 1875 428 2675 428 
Q 3081 428 3442 575 
Q 3803 722 4122 1019 
L 4122 359 
Q 3791 134 3420 21 
Q 3050 -91 2638 -91 
Q 1578 -91 968 557 
Q 359 1206 359 2328 
Q 359 3453 968 4101 
Q 1578 4750 2638 4750 
Q 3056 4750 3426 4639 
Q 3797 4528 4122 4306 
z
" transform="scale(0.015625)"/>
       <path id="DejaVuSans-63" d="M 3122 3366 
L 3122 2828 
Q 2878 2963 2633 3030 
Q 2388 3097 2138 3097 
Q 1578 3097 1268 2742 
Q 959 2388 959 1747 
Q 959 1106 1268 751 
Q 1578 397 2138 397 
Q 2388 397 2633 464 
Q 2878 531 3122 666 
L 3122 134 
Q 2881 22 2623 -34 
Q 2366 -91 2075 -91 
Q 1284 -91 818 406 
Q 353 903 353 1747 
Q 353 2603 823 3093 
Q 1294 3584 2113 3584 
Q 2378 3584 2631 3529 
Q 2884 3475 3122 3366 
z
" transform="scale(0.015625)"/>
       <path id="DejaVuSans-72" d="M 2631 2963 
Q 2534 3019 2420 3045 
Q 2306 3072 2169 3072 
Q 1681 3072 1420 2755 
Q 1159 2438 1159 1844 
L 1159 0 
L 581 0 
L 581 3500 
L 1159 3500 
L 1159 2956 
Q 1341 3275 1631 3429 
Q 1922 3584 2338 3584 
Q 2397 3584 2469 3576 
Q 2541 3569 2628 3553 
L 2631 2963 
z
" transform="scale(0.015625)"/>
       <path id="DejaVuSans-61" d="M 2194 1759 
Q 1497 1759 1228 1600 
Q 959 1441 959 1056 
Q 959 750 1161 570 
Q 1363 391 1709 391 
Q 2188 391 2477 730 
Q 2766 1069 2766 1631 
L 2766 1759 
L 2194 1759 
z
M 3341 1997 
L 3341 0 
L 2766 0 
L 2766 531 
Q 2569 213 2275 61 
Q 1981 -91 1556 -91 
Q 1019 -91 701 211 
Q 384 513 384 1019 
Q 384 1609 779 1909 
Q 1175 2209 1959 2209 
L 2766 2209 
L 2766 2266 
Q 2766 2663 2505 2880 
Q 2244 3097 1772 3097 
Q 1472 3097 1187 3025 
Q 903 2953 641 2809 
L 641 3341 
Q 956 3463 1253 3523 
Q 1550 3584 1831 3584 
Q 2591 3584 2966 3190 
Q 3341 2797 3341 1997 
z
" transform="scale(0.015625)"/>
       <path id="DejaVuSans-52" d="M 2841 2188 
Q 3044 2119 3236 1894 
Q 3428 1669 3622 1275 
L 4263 0 
L 3584 0 
L 2988 1197 
Q 2756 1666 2539 1819 
Q 2322 1972 1947 1972 
L 1259 1972 
L 1259 0 
L 628 0 
L 628 4666 
L 2053 4666 
Q 2853 4666 3247 4331 
Q 3641 3997 3641 3322 
Q 3641 2881 3436 2590 
Q 3231 2300 2841 2188 
z
M 1259 4147 
L 1259 2491 
L 2053 2491 
Q 2509 2491 2742 2702 
Q 2975 2913 2975 3322 
Q 2975 3731 2742 3939 
Q 2509 4147 2053 4147 
L 1259 4147 
z
" transform="scale(0.015625)"/>
      </defs>
      <use xlink:href="#DejaVuSans-43"/>
      <use xlink:href="#DejaVuSans-6f" transform="translate(69.824219 0)"/>
      <use xlink:href="#DejaVuSans-6e" transform="translate(131.005859 0)"/>
      <use xlink:href="#DejaVuSans-63" transform="translate(194.384766 0)"/>
      <use xlink:href="#DejaVuSans-65" transform="translate(249.365234 0)"/>
      <use xlink:href="#DejaVuSans-6e" transform="translate(310.888672 0)"/>
      <use xlink:href="#DejaVuSans-74" transform="translate(374.267578 0)"/>
      <use xlink:href="#DejaVuSans-72" transform="translate(413.476562 0)"/>
      <use xlink:href="#DejaVuSans-61" transform="translate(454.589844 0)"/>
      <use xlink:href="#DejaVuSans-74" transform="translate(515.869141 0)"/>
      <use xlink:href="#DejaVuSans-69" transform="translate(555.078125 0)"/>
      <use xlink:href="#DejaVuSans-6f" transform="translate(582.861328 0)"/>
      <use xlink:href="#DejaVuSans-6e" transform="translate(644.042969 0)"/>
      <use xlink:href="#DejaVuSans-73" transform="translate(707.421875 0)"/>
      <use xlink:href="#DejaVuSans-20" transform="translate(759.521484 0)"/>
      <use xlink:href="#DejaVuSans-52" transform="translate(791.308594 0)"/>
      <use xlink:href="#DejaVuSans-61" transform="translate(858.541016 0)"/>
      <use xlink:href="#DejaVuSans-74" transform="translate(919.820312 0)"/>
      <use xlink:href="#DejaVuSans-69" transform="translate(959.029297 0)"/>
      <use xlink:href="#DejaVuSans-6f" transform="translate(986.8125 0)"/>
      <use xlink:href="#DejaVuSans-73" transform="translate(1047.994141 0)"/>
     </g>
    </g>
   </g>
   <g id="line2d_11">
    <path d="M 50.15303 235.577397 
L 53.338921 230.862173 
L 56.524811 225.131367 
L 59.710701 219.190759 
L 62.896591 213.258209 
L 66.082481 207.416356 
L 69.268372 201.701852 
L 72.454262 196.13177 
L 75.640152 190.7136 
L 78.826042 185.449699 
L 82.011932 180.339496 
L 85.197823 175.380685 
L 88.383713 170.569912 
L 91.569603 165.903192 
L 94.755493 161.376172 
L 97.941383 156.984298 
L 101.127274 152.722933 
L 104.313164 148.587432 
L 107.499054 144.573195 
L 110.684944 140.675705 
L 113.870834 136.890549 
L 117.056725 133.213441 
L 120.242615 129.640229 
L 123.428505 126.166902 
L 126.614395 122.789594 
L 129.800285 119.504586 
L 132.986175 116.308305 
L 136.172066 113.197324 
L 139.357956 110.168355 
L 142.543846 107.218251 
L 145.729736 104.343998 
L 148.915626 101.542713 
L 152.101517 98.811641 
L 155.287407 96.148145 
L 158.473297 93.549707 
L 161.659187 91.013924 
L 164.845077 88.538496 
L 168.030968 86.121231 
L 171.216858 83.760035 
L 174.402748 81.452908 
L 177.588638 79.197942 
L 180.774528 76.993318 
L 183.960419 74.837298 
L 187.146309 72.728225 
L 190.332199 70.664521 
L 193.518089 68.644679 
L 196.703979 66.667263 
L 199.88987 64.730907 
L 203.07576 62.834309 
L 206.26165 60.97623 
L 209.44754 59.155493 
L 212.63343 57.370978 
L 215.819321 55.621626 
L 219.005211 53.90643 
L 222.191101 52.224437 
L 225.376991 50.574752 
L 228.562881 48.956528 
L 231.748772 47.36897 
L 234.934662 45.811338 
L 238.120552 44.282939 
L 241.306442 42.783135 
L 244.492332 41.311339 
L 247.678223 39.867017 
L 250.864113 38.449691 
L 254.050003 37.058939 
L 257.235893 35.694397 
L 260.421783 34.355767 
L 263.607674 33.04281 
L 266.793564 31.755364 
L 269.979454 30.493339 
L 273.165344 29.256725 
L 276.351234 28.045603 
L 279.537125 26.860149 
L 282.723015 25.700646 
L 285.908905 24.567489 
L 289.094795 23.461205 
L 292.280685 22.382455 
L 295.466575 21.332054 
L 298.652466 20.310979 
L 301.838356 19.320383 
L 305.024246 18.3616 
L 308.210136 17.43615 
L 311.396026 16.545736 
L 314.581917 15.692225 
L 317.767807 14.877616 
L 320.953697 14.103992 
L 324.139587 13.373436 
L 327.325477 12.687926 
L 330.511368 12.04921 
L 333.697258 11.458646 
L 336.883148 10.91706 
L 340.069038 10.424599 
L 343.254928 9.980645 
L 346.440819 9.583779 
L 349.626709 9.231821 
L 352.812599 8.921944 
L 355.998489 8.650836 
L 359.184379 8.414889 
L 362.37027 8.210389 
L 365.55616 8.033675 
" clip-path="url(#p6195d52d75)" style="fill: none; stroke: #8eb133; stroke-width: 2; stroke-linecap: square"/>
   </g>
   <g id="line2d_12">
    <path d="M 50.15303 236.279039 
L 53.338921 233.742715 
L 56.524811 230.147158 
L 59.710701 226.053544 
L 62.896591 221.675952 
L 66.082481 217.123963 
L 69.268372 212.464095 
L 72.454262 207.741102 
L 75.640152 202.987145 
L 78.826042 198.226366 
L 82.011932 193.477428 
L 85.197823 188.755036 
L 88.383713 184.070921 
L 91.569603 179.434504 
L 94.755493 174.853369 
L 97.941383 170.333607 
L 101.127274 165.880082 
L 104.313164 161.49664 
L 107.499054 157.186269 
L 110.684944 152.951235 
L 113.870834 148.793195 
L 117.056725 144.713283 
L 120.242615 140.712198 
L 123.428505 136.790259 
L 126.614395 132.947472 
L 129.800285 129.183571 
L 132.986175 125.498065 
L 136.172066 121.890274 
L 139.357956 118.359356 
L 142.543846 114.904341 
L 145.729736 111.52415 
L 148.915626 108.217618 
L 152.101517 104.983512 
L 155.287407 101.820545 
L 158.473297 98.72739 
L 161.659187 95.702694 
L 164.845077 92.745085 
L 168.030968 89.853181 
L 171.216858 87.025603 
L 174.402748 84.260971 
L 177.588638 81.557923 
L 180.774528 78.915106 
L 183.960419 76.331192 
L 187.146309 73.804873 
L 190.332199 71.334869 
L 193.518089 68.919928 
L 196.703979 66.558832 
L 199.88987 64.25039 
L 203.07576 61.993454 
L 206.26165 59.786905 
L 209.44754 57.629663 
L 212.63343 55.52069 
L 215.819321 53.458983 
L 219.005211 51.443581 
L 222.191101 49.473565 
L 225.376991 47.548058 
L 228.562881 45.666224 
L 231.748772 43.827273 
L 234.934662 42.030461 
L 238.120552 40.275088 
L 241.306442 38.560504 
L 244.492332 36.886106 
L 247.678223 35.251345 
L 250.864113 33.655721 
L 254.050003 32.098793 
L 257.235893 30.580177 
L 260.421783 29.099547 
L 263.607674 27.656646 
L 266.793564 26.251282 
L 269.979454 24.883335 
L 273.165344 23.552764 
L 276.351234 22.259609 
L 279.537125 21.003998 
L 282.723015 19.786152 
L 285.908905 18.606395 
L 289.094795 17.465155 
L 292.280685 16.362972 
L 295.466575 15.300505 
L 298.652466 14.278532 
L 301.838356 13.297952 
L 305.024246 12.35978 
L 308.210136 11.465137 
L 311.396026 10.615229 
L 314.581917 9.811316 
L 317.767807 9.054664 
L 320.953697 8.346484 
L 324.139587 7.687839 
L 327.325477 7.079553 
L 330.511368 6.522082 
L 333.697258 6.015406 
L 336.883148 5.558917 
L 340.069038 5.15134 
L 343.254928 4.790714 
L 346.440819 4.474419 
L 349.626709 4.199279 
L 352.812599 3.961705 
L 355.998489 3.75787 
L 359.184379 3.583892 
L 362.37027 3.43599 
L 365.55616 3.310605 
" clip-path="url(#p6195d52d75)" style="fill: none; stroke: #e19d20; stroke-width: 2; stroke-linecap: square"/>
   </g>
   <g id="line2d_13">
    <path d="M 50.15303 155.06711 
L 53.338921 168.906232 
L 56.524811 172.821141 
L 59.710701 173.514268 
L 62.896591 172.776672 
L 66.082481 171.305749 
L 69.268372 169.43056 
L 72.454262 167.325891 
L 75.640152 165.092323 
L 78.826042 162.791128 
L 82.011932 160.461208 
L 85.197823 158.128015 
L 88.383713 155.808549 
L 91.569603 153.51431 
L 94.755493 151.253112 
L 97.941383 149.030243 
L 101.127274 146.849218 
L 104.313164 144.712292 
L 107.499054 142.620814 
L 110.684944 140.575473 
L 113.870834 138.576473 
L 117.056725 136.623658 
L 120.242615 134.716614 
L 123.428505 132.854731 
L 126.614395 131.037257 
L 129.800285 129.263339 
L 132.986175 127.532053 
L 136.172066 125.842425 
L 139.357956 124.193452 
L 142.543846 122.584113 
L 145.729736 121.013379 
L 148.915626 119.480225 
L 152.101517 117.983634 
L 155.287407 116.5226 
L 158.473297 115.096137 
L 161.659187 113.703277 
L 164.845077 112.343073 
L 168.030968 111.014604 
L 171.216858 109.71697 
L 174.402748 108.4493 
L 177.588638 107.210746 
L 180.774528 106.000487 
L 183.960419 104.817728 
L 187.146309 103.6617 
L 190.332199 102.531658 
L 193.518089 101.426885 
L 196.703979 100.346687 
L 199.88987 99.290394 
L 203.07576 98.257363 
L 206.26165 97.246972 
L 209.44754 96.258622 
L 212.63343 95.291739 
L 215.819321 94.345768 
L 219.005211 93.420178 
L 222.191101 92.514458 
L 225.376991 91.62812 
L 228.562881 90.760695 
L 231.748772 89.911732 
L 234.934662 89.080805 
L 238.120552 88.267503 
L 241.306442 87.471436 
L 244.492332 86.692234 
L 247.678223 85.929546 
L 250.864113 85.183039 
L 254.050003 84.452401 
L 257.235893 83.737337 
L 260.421783 83.037573 
L 263.607674 82.352856 
L 266.793564 81.68295 
L 269.979454 81.027641 
L 273.165344 80.386738 
L 276.351234 79.760068 
L 279.537125 79.147484 
L 282.723015 78.548858 
L 285.908905 77.964089 
L 289.094795 77.393099 
L 292.280685 76.835834 
L 295.466575 76.292265 
L 298.652466 75.762387 
L 301.838356 75.246219 
L 305.024246 74.743799 
L 308.210136 74.255184 
L 311.396026 73.78044 
L 314.581917 73.319639 
L 317.767807 72.872843 
L 320.953697 72.440089 
L 324.139587 72.021375 
L 327.325477 71.616634 
L 330.511368 71.225713 
L 333.697258 70.84835 
L 336.883148 70.484156 
L 340.069038 70.132604 
L 343.254928 69.793032 
L 346.440819 69.464655 
L 349.626709 69.146595 
L 352.812599 68.837911 
L 355.998489 68.537646 
L 359.184379 68.24486 
L 362.37027 67.958663 
L 365.55616 67.678237 
" clip-path="url(#p6195d52d75)" style="fill: none; stroke: #f16431; stroke-width: 2; stroke-linecap: square"/>
   </g>
   <g id="line2d_14">
    <path d="M 50.15303 33.912143 
L 53.338921 53.488314 
L 56.524811 66.190589 
L 59.710701 75.398897 
L 62.896591 82.476615 
L 66.082481 88.127355 
L 69.268372 92.763055 
L 72.454262 96.645007 
L 75.640152 99.948699 
L 78.826042 102.797252 
L 82.011932 105.2801 
L 85.197823 107.464081 
L 88.383713 109.400345 
L 91.569603 111.128826 
L 94.755493 112.681247 
L 97.941383 114.083178 
L 101.127274 115.355502 
L 104.313164 116.515465 
L 107.499054 117.577454 
L 110.684944 118.553574 
L 113.870834 119.454095 
L 117.056725 120.287787 
L 120.242615 121.06219 
L 123.428505 121.783823 
L 126.614395 122.45835 
L 129.800285 123.090718 
L 132.986175 123.685265 
L 136.172066 124.245811 
L 139.357956 124.775732 
L 142.543846 125.278023 
L 145.729736 125.755348 
L 148.915626 126.210085 
L 152.101517 126.644363 
L 155.287407 127.060093 
L 158.473297 127.458996 
L 161.659187 127.842623 
L 164.845077 128.21238 
L 168.030968 128.56954 
L 171.216858 128.915262 
L 174.402748 129.250602 
L 177.588638 129.576526 
L 180.774528 129.893918 
L 183.960419 130.20359 
L 187.146309 130.506291 
L 190.332199 130.802714 
L 193.518089 131.093498 
L 196.703979 131.37924 
L 199.88987 131.660495 
L 203.07576 131.937785 
L 206.26165 132.211597 
L 209.44754 132.482393 
L 212.63343 132.75061 
L 215.819321 133.016663 
L 219.005211 133.28095 
L 222.191101 133.543854 
L 225.376991 133.805744 
L 228.562881 134.066979 
L 231.748772 134.327911 
L 234.934662 134.588886 
L 238.120552 134.850246 
L 241.306442 135.112332 
L 244.492332 135.375487 
L 247.678223 135.640057 
L 250.864113 135.906393 
L 254.050003 136.174857 
L 257.235893 136.445818 
L 260.421783 136.719661 
L 263.607674 136.996786 
L 266.793564 137.277614 
L 269.979454 137.562587 
L 273.165344 137.852172 
L 276.351234 138.146867 
L 279.537125 138.447203 
L 282.723015 138.753745 
L 285.908905 139.067103 
L 289.094795 139.387927 
L 292.280685 139.716916 
L 295.466575 140.05482 
L 298.652466 140.402438 
L 301.838356 140.76062 
L 305.024246 141.130264 
L 308.210136 141.512306 
L 311.396026 141.907709 
L 314.581917 142.317443 
L 317.767807 142.742453 
L 320.953697 143.183625 
L 324.139587 143.641732 
L 327.325477 144.117378 
L 330.511368 144.610929 
L 333.697258 145.122447 
L 336.883148 145.651635 
L 340.069038 146.197801 
L 343.254928 146.759845 
L 346.440819 147.336292 
L 349.626709 147.925354 
L 352.812599 148.525022 
L 355.998489 149.133169 
L 359.184379 149.747659 
L 362.37027 150.366432 
L 365.55616 150.987576 
" clip-path="url(#p6195d52d75)" style="fill: none; stroke: #5f7fb6; stroke-width: 2; stroke-linecap: square"/>
   </g>
   <g id="patch_4">
    <path d="M 43.78125 236.758618 
L 43.78125 9.11789 
" style="fill: none; stroke: #000000; stroke-width: 0.8; stroke-linejoin: miter; stroke-linecap: square"/>
   </g>
   <g id="patch_5">
    <path d="M 368.74205 236.758618 
L 368.74205 9.11789 
" style="fill: none; stroke: #000000; stroke-width: 0.8; stroke-linejoin: miter; stroke-linecap: square"/>
   </g>
   <g id="patch_6">
    <path d="M 43.78125 236.758618 
L 368.74205 236.758618 
" style="fill: none; stroke: #000000; stroke-width: 0.8; stroke-linejoin: miter; stroke-linecap: square"/>
   </g>
   <g id="patch_7">
    <path d="M 43.78125 9.11789 
L 368.74205 9.11789 
" style="fill: none; stroke: #000000; stroke-width: 0.8; stroke-linejoin: miter; stroke-linecap: square"/>
   </g>
   <g id="legend_1">
    <g id="patch_8">
     <path d="M 258.82955 166.81018 
L 268.82955 166.81018 
L 268.82955 157.86018 
L 258.82955 157.86018 
z
" style="fill: #8eb133; stroke: #8eb133; stroke-linejoin: miter"/>
    </g>
    <g id="text_13">
     <!-- ATP -->
     <g transform="translate(276.82955 165.76018) scale(0.1 -0.1)">
      <defs>
       <path id="DejaVuSans-41" d="M 2188 4044 
L 1331 1722 
L 3047 1722 
L 2188 4044 
z
M 1831 4666 
L 2547 4666 
L 4325 0 
L 3669 0 
L 3244 1197 
L 1141 1197 
L 716 0 
L 50 0 
L 1831 4666 
z
" transform="scale(0.015625)"/>
       <path id="DejaVuSans-54" d="M -19 4666 
L 3928 4666 
L 3928 4134 
L 2272 4134 
L 2272 0 
L 1638 0 
L 1638 4134 
L -19 4134 
L -19 4666 
z
" transform="scale(0.015625)"/>
       <path id="DejaVuSans-50" d="M 1259 4147 
L 1259 2394 
L 2053 2394 
Q 2494 2394 2734 2622 
Q 2975 2850 2975 3272 
Q 2975 3691 2734 3919 
Q 2494 4147 2053 4147 
L 1259 4147 
z
M 628 4666 
L 2053 4666 
Q 2838 4666 3239 4311 
Q 3641 3956 3641 3272 
Q 3641 2581 3239 2228 
Q 2838 1875 2053 1875 
L 1259 1875 
L 1259 0 
L 628 0 
L 628 4666 
z
" transform="scale(0.015625)"/>
      </defs>
      <use xlink:href="#DejaVuSans-41"/>
      <use xlink:href="#DejaVuSans-54" transform="translate(60.658203 0)"/>
      <use xlink:href="#DejaVuSans-50" transform="translate(121.742188 0)"/>
     </g>
    </g>
    <g id="patch_9">
     <path d="M 258.82955 181.789868 
L 268.82955 181.789868 
L 268.82955 172.839868 
L 258.82955 172.839868 
z
" style="fill: #e19d20; stroke: #e19d20; stroke-linejoin: miter"/>
    </g>
    <g id="text_14">
     <!-- Active Quencher -->
     <g transform="translate(276.82955 180.739868) scale(0.1 -0.1)">
      <defs>
       <path id="DejaVuSans-76" d="M 191 3500 
L 800 3500 
L 1894 563 
L 2988 3500 
L 3597 3500 
L 2284 0 
L 1503 0 
L 191 3500 
z
" transform="scale(0.015625)"/>
       <path id="DejaVuSans-51" d="M 2522 4238 
Q 1834 4238 1429 3725 
Q 1025 3213 1025 2328 
Q 1025 1447 1429 934 
Q 1834 422 2522 422 
Q 3209 422 3611 934 
Q 4013 1447 4013 2328 
Q 4013 3213 3611 3725 
Q 3209 4238 2522 4238 
z
M 3406 84 
L 4238 -825 
L 3475 -825 
L 2784 -78 
Q 2681 -84 2626 -87 
Q 2572 -91 2522 -91 
Q 1538 -91 948 567 
Q 359 1225 359 2328 
Q 359 3434 948 4092 
Q 1538 4750 2522 4750 
Q 3503 4750 4090 4092 
Q 4678 3434 4678 2328 
Q 4678 1516 4351 937 
Q 4025 359 3406 84 
z
" transform="scale(0.015625)"/>
       <path id="DejaVuSans-75" d="M 544 1381 
L 544 3500 
L 1119 3500 
L 1119 1403 
Q 1119 906 1312 657 
Q 1506 409 1894 409 
Q 2359 409 2629 706 
Q 2900 1003 2900 1516 
L 2900 3500 
L 3475 3500 
L 3475 0 
L 2900 0 
L 2900 538 
Q 2691 219 2414 64 
Q 2138 -91 1772 -91 
Q 1169 -91 856 284 
Q 544 659 544 1381 
z
M 1991 3584 
L 1991 3584 
z
" transform="scale(0.015625)"/>
      </defs>
      <use xlink:href="#DejaVuSans-41"/>
      <use xlink:href="#DejaVuSans-63" transform="translate(66.658203 0)"/>
      <use xlink:href="#DejaVuSans-74" transform="translate(121.638672 0)"/>
      <use xlink:href="#DejaVuSans-69" transform="translate(160.847656 0)"/>
      <use xlink:href="#DejaVuSans-76" transform="translate(188.630859 0)"/>
      <use xlink:href="#DejaVuSans-65" transform="translate(247.810547 0)"/>
      <use xlink:href="#DejaVuSans-20" transform="translate(309.333984 0)"/>
      <use xlink:href="#DejaVuSans-51" transform="translate(341.121094 0)"/>
      <use xlink:href="#DejaVuSans-75" transform="translate(419.832031 0)"/>
      <use xlink:href="#DejaVuSans-65" transform="translate(483.210938 0)"/>
      <use xlink:href="#DejaVuSans-6e" transform="translate(544.734375 0)"/>
      <use xlink:href="#DejaVuSans-63" transform="translate(608.113281 0)"/>
      <use xlink:href="#DejaVuSans-68" transform="translate(663.09375 0)"/>
      <use xlink:href="#DejaVuSans-65" transform="translate(726.472656 0)"/>
      <use xlink:href="#DejaVuSans-72" transform="translate(787.996094 0)"/>
     </g>
    </g>
    <g id="patch_10">
     <path d="M 258.82955 196.769555 
L 268.82955 196.769555 
L 268.82955 187.819555 
L 258.82955 187.819555 
z
" style="stroke: #000000; stroke-linejoin: miter"/>
    </g>
    <g id="text_15">
     <!-- Lumen pH -->
     <g transform="translate(276.82955 195.719555) scale(0.1 -0.1)">
      <defs>
       <path id="DejaVuSans-48" d="M 628 4666 
L 1259 4666 
L 1259 2753 
L 3553 2753 
L 3553 4666 
L 4184 4666 
L 4184 0 
L 3553 0 
L 3553 2222 
L 1259 2222 
L 1259 0 
L 628 0 
L 628 4666 
z
" transform="scale(0.015625)"/>
      </defs>
      <use xlink:href="#DejaVuSans-4c"/>
      <use xlink:href="#DejaVuSans-75" transform="translate(53.962891 0)"/>
      <use xlink:href="#DejaVuSans-6d" transform="translate(117.341797 0)"/>
      <use xlink:href="#DejaVuSans-65" transform="translate(214.753906 0)"/>
      <use xlink:href="#DejaVuSans-6e" transform="translate(276.277344 0)"/>
      <use xlink:href="#DejaVuSans-20" transform="translate(339.65625 0)"/>
      <use xlink:href="#DejaVuSans-70" transform="translate(371.443359 0)"/>
      <use xlink:href="#DejaVuSans-48" transform="translate(434.919922 0)"/>
     </g>
    </g>
    <g id="patch_11">
     <path d="M 258.82955 211.749243 
L 268.82955 211.749243 
L 268.82955 202.799243 
L 258.82955 202.799243 
z
" style="fill: #f16431; stroke: #f16431; stroke-linejoin: miter"/>
    </g>
    <g id="text_16">
     <!-- PI$_{ox}$ -->
     <g transform="translate(276.82955 210.699243) scale(0.1 -0.1)">
      <defs>
       <path id="DejaVuSans-Oblique-6f" d="M 1625 -91 
Q 1009 -91 651 289 
Q 294 669 294 1325 
Q 294 1706 417 2101 
Q 541 2497 738 2766 
Q 1047 3184 1428 3384 
Q 1809 3584 2291 3584 
Q 2888 3584 3255 3212 
Q 3622 2841 3622 2241 
Q 3622 1825 3500 1412 
Q 3378 1000 3181 728 
Q 2875 309 2494 109 
Q 2113 -91 1625 -91 
z
M 891 1344 
Q 891 869 1089 633 
Q 1288 397 1691 397 
Q 2269 397 2648 901 
Q 3028 1406 3028 2181 
Q 3028 2634 2825 2865 
Q 2622 3097 2228 3097 
Q 1903 3097 1650 2945 
Q 1397 2794 1197 2484 
Q 1050 2253 970 1956 
Q 891 1659 891 1344 
z
" transform="scale(0.015625)"/>
       <path id="DejaVuSans-Oblique-78" d="M 3841 3500 
L 2234 1784 
L 3219 0 
L 2559 0 
L 1819 1388 
L 531 0 
L -166 0 
L 1556 1844 
L 641 3500 
L 1300 3500 
L 1972 2234 
L 3144 3500 
L 3841 3500 
z
" transform="scale(0.015625)"/>
      </defs>
      <use xlink:href="#DejaVuSans-50" transform="translate(0 0.09375)"/>
      <use xlink:href="#DejaVuSans-49" transform="translate(60.302734 0.09375)"/>
      <use xlink:href="#DejaVuSans-Oblique-6f" transform="translate(90.751953 -16.3125) scale(0.7)"/>
      <use xlink:href="#DejaVuSans-Oblique-78" transform="translate(133.579102 -16.3125) scale(0.7)"/>
     </g>
    </g>
    <g id="patch_12">
     <path d="M 258.82955 226.72893 
L 268.82955 226.72893 
L 268.82955 217.77893 
L 258.82955 217.77893 
z
" style="fill: #5f7fb6; stroke: #5f7fb6; stroke-linejoin: miter"/>
    </g>
    <g id="text_17">
     <!-- Oxidized PQ -->
     <g transform="translate(276.82955 225.67893) scale(0.1 -0.1)">
      <defs>
       <path id="DejaVuSans-4f" d="M 2522 4238 
Q 1834 4238 1429 3725 
Q 1025 3213 1025 2328 
Q 1025 1447 1429 934 
Q 1834 422 2522 422 
Q 3209 422 3611 934 
Q 4013 1447 4013 2328 
Q 4013 3213 3611 3725 
Q 3209 4238 2522 4238 
z
M 2522 4750 
Q 3503 4750 4090 4092 
Q 4678 3434 4678 2328 
Q 4678 1225 4090 567 
Q 3503 -91 2522 -91 
Q 1538 -91 948 565 
Q 359 1222 359 2328 
Q 359 3434 948 4092 
Q 1538 4750 2522 4750 
z
" transform="scale(0.015625)"/>
       <path id="DejaVuSans-78" d="M 3513 3500 
L 2247 1797 
L 3578 0 
L 2900 0 
L 1881 1375 
L 863 0 
L 184 0 
L 1544 1831 
L 300 3500 
L 978 3500 
L 1906 2253 
L 2834 3500 
L 3513 3500 
z
" transform="scale(0.015625)"/>
       <path id="DejaVuSans-64" d="M 2906 2969 
L 2906 4863 
L 3481 4863 
L 3481 0 
L 2906 0 
L 2906 525 
Q 2725 213 2448 61 
Q 2172 -91 1784 -91 
Q 1150 -91 751 415 
Q 353 922 353 1747 
Q 353 2572 751 3078 
Q 1150 3584 1784 3584 
Q 2172 3584 2448 3432 
Q 2725 3281 2906 2969 
z
M 947 1747 
Q 947 1113 1208 752 
Q 1469 391 1925 391 
Q 2381 391 2643 752 
Q 2906 1113 2906 1747 
Q 2906 2381 2643 2742 
Q 2381 3103 1925 3103 
Q 1469 3103 1208 2742 
Q 947 2381 947 1747 
z
" transform="scale(0.015625)"/>
       <path id="DejaVuSans-7a" d="M 353 3500 
L 3084 3500 
L 3084 2975 
L 922 459 
L 3084 459 
L 3084 0 
L 275 0 
L 275 525 
L 2438 3041 
L 353 3041 
L 353 3500 
z
" transform="scale(0.015625)"/>
      </defs>
      <use xlink:href="#DejaVuSans-4f"/>
      <use xlink:href="#DejaVuSans-78" transform="translate(78.710938 0)"/>
      <use xlink:href="#DejaVuSans-69" transform="translate(137.890625 0)"/>
      <use xlink:href="#DejaVuSans-64" transform="translate(165.673828 0)"/>
      <use xlink:href="#DejaVuSans-69" transform="translate(229.150391 0)"/>
      <use xlink:href="#DejaVuSans-7a" transform="translate(256.933594 0)"/>
      <use xlink:href="#DejaVuSans-65" transform="translate(309.423828 0)"/>
      <use xlink:href="#DejaVuSans-64" transform="translate(370.947266 0)"/>
      <use xlink:href="#DejaVuSans-20" transform="translate(434.423828 0)"/>
      <use xlink:href="#DejaVuSans-50" transform="translate(466.210938 0)"/>
      <use xlink:href="#DejaVuSans-51" transform="translate(526.513672 0)"/>
     </g>
    </g>
   </g>
  </g>
  <g id="axes_2">
   <g id="patch_13">
    <path d="M 465.13605 236.758618 
L 790.09685 236.758618 
L 790.09685 9.11789 
L 465.13605 9.11789 
z
" style="fill: #ffffff"/>
   </g>
   <g id="patch_14">
    <path d="M 468.32194 247.841155 
L 484.251391 247.841155 
L 484.251391 -0.537773 
L 468.32194 -0.537773 
z
" clip-path="url(#p241f781d23)" style="fill: #f3f2f0; stroke: #000000; stroke-linejoin: miter"/>
   </g>
   <g id="matplotlib.axis_3">
    <g id="xtick_7">
     <g id="line2d_15">
      <g>
       <use xlink:href="#m82fb994153" x="468.32194" y="236.758618" style="stroke: #000000; stroke-width: 0.8"/>
      </g>
     </g>
     <g id="text_18">
      <!-- 0 -->
      <g transform="translate(465.14069 251.357055) scale(0.1 -0.1)">
       <use xlink:href="#DejaVuSans-30"/>
      </g>
     </g>
    </g>
    <g id="xtick_8">
     <g id="line2d_16">
      <g>
       <use xlink:href="#m82fb994153" x="532.039744" y="236.758618" style="stroke: #000000; stroke-width: 0.8"/>
      </g>
     </g>
     <g id="text_19">
      <!-- 200 -->
      <g transform="translate(522.495994 251.357055) scale(0.1 -0.1)">
       <use xlink:href="#DejaVuSans-32"/>
       <use xlink:href="#DejaVuSans-30" transform="translate(63.623047 0)"/>
       <use xlink:href="#DejaVuSans-30" transform="translate(127.246094 0)"/>
      </g>
     </g>
    </g>
    <g id="xtick_9">
     <g id="line2d_17">
      <g>
       <use xlink:href="#m82fb994153" x="595.757548" y="236.758618" style="stroke: #000000; stroke-width: 0.8"/>
      </g>
     </g>
     <g id="text_20">
      <!-- 400 -->
      <g transform="translate(586.213798 251.357055) scale(0.1 -0.1)">
       <use xlink:href="#DejaVuSans-34"/>
       <use xlink:href="#DejaVuSans-30" transform="translate(63.623047 0)"/>
       <use xlink:href="#DejaVuSans-30" transform="translate(127.246094 0)"/>
      </g>
     </g>
    </g>
    <g id="xtick_10">
     <g id="line2d_18">
      <g>
       <use xlink:href="#m82fb994153" x="659.475352" y="236.758618" style="stroke: #000000; stroke-width: 0.8"/>
      </g>
     </g>
     <g id="text_21">
      <!-- 600 -->
      <g transform="translate(649.931602 251.357055) scale(0.1 -0.1)">
       <use xlink:href="#DejaVuSans-36"/>
       <use xlink:href="#DejaVuSans-30" transform="translate(63.623047 0)"/>
       <use xlink:href="#DejaVuSans-30" transform="translate(127.246094 0)"/>
      </g>
     </g>
    </g>
    <g id="xtick_11">
     <g id="line2d_19">
      <g>
       <use xlink:href="#m82fb994153" x="723.193156" y="236.758618" style="stroke: #000000; stroke-width: 0.8"/>
      </g>
     </g>
     <g id="text_22">
      <!-- 800 -->
      <g transform="translate(713.649406 251.357055) scale(0.1 -0.1)">
       <use xlink:href="#DejaVuSans-38"/>
       <use xlink:href="#DejaVuSans-30" transform="translate(63.623047 0)"/>
       <use xlink:href="#DejaVuSans-30" transform="translate(127.246094 0)"/>
      </g>
     </g>
    </g>
    <g id="xtick_12">
     <g id="line2d_20">
      <g>
       <use xlink:href="#m82fb994153" x="786.91096" y="236.758618" style="stroke: #000000; stroke-width: 0.8"/>
      </g>
     </g>
     <g id="text_23">
      <!-- 1000 -->
      <g transform="translate(774.18596 251.357055) scale(0.1 -0.1)">
       <use xlink:href="#DejaVuSans-31"/>
       <use xlink:href="#DejaVuSans-30" transform="translate(63.623047 0)"/>
       <use xlink:href="#DejaVuSans-30" transform="translate(127.246094 0)"/>
       <use xlink:href="#DejaVuSans-30" transform="translate(190.869141 0)"/>
      </g>
     </g>
    </g>
    <g id="text_24">
     <!-- Light Intensity (µmol photons $\cdot$ m$^{-2}$ $\cdot$ s$^{-1}$) -->
     <g transform="translate(524.26645 266.536743) scale(0.1 -0.1)">
      <use xlink:href="#DejaVuSans-4c" transform="translate(0 0.765625)"/>
      <use xlink:href="#DejaVuSans-69" transform="translate(55.712891 0.765625)"/>
      <use xlink:href="#DejaVuSans-67" transform="translate(83.496094 0.765625)"/>
      <use xlink:href="#DejaVuSans-68" transform="translate(146.972656 0.765625)"/>
      <use xlink:href="#DejaVuSans-74" transform="translate(210.351562 0.765625)"/>
      <use xlink:href="#DejaVuSans-20" transform="translate(249.560547 0.765625)"/>
      <use xlink:href="#DejaVuSans-49" transform="translate(281.347656 0.765625)"/>
      <use xlink:href="#DejaVuSans-6e" transform="translate(310.839844 0.765625)"/>
      <use xlink:href="#DejaVuSans-74" transform="translate(374.21875 0.765625)"/>
      <use xlink:href="#DejaVuSans-65" transform="translate(413.427734 0.765625)"/>
      <use xlink:href="#DejaVuSans-6e" transform="translate(474.951172 0.765625)"/>
      <use xlink:href="#DejaVuSans-73" transform="translate(538.330078 0.765625)"/>
      <use xlink:href="#DejaVuSans-69" transform="translate(590.429688 0.765625)"/>
      <use xlink:href="#DejaVuSans-74" transform="translate(618.212891 0.765625)"/>
      <use xlink:href="#DejaVuSans-79" transform="translate(657.421875 0.765625)"/>
      <use xlink:href="#DejaVuSans-20" transform="translate(716.601562 0.765625)"/>
      <use xlink:href="#DejaVuSans-28" transform="translate(748.388672 0.765625)"/>
      <use xlink:href="#DejaVuSans-b5" transform="translate(787.402344 0.765625)"/>
      <use xlink:href="#DejaVuSans-6d" transform="translate(851.025391 0.765625)"/>
      <use xlink:href="#DejaVuSans-6f" transform="translate(948.4375 0.765625)"/>
      <use xlink:href="#DejaVuSans-6c" transform="translate(1009.619141 0.765625)"/>
      <use xlink:href="#DejaVuSans-20" transform="translate(1037.402344 0.765625)"/>
      <use xlink:href="#DejaVuSans-70" transform="translate(1069.189453 0.765625)"/>
      <use xlink:href="#DejaVuSans-68" transform="translate(1132.666016 0.765625)"/>
      <use xlink:href="#DejaVuSans-6f" transform="translate(1196.044922 0.765625)"/>
      <use xlink:href="#DejaVuSans-74" transform="translate(1257.226562 0.765625)"/>
      <use xlink:href="#DejaVuSans-6f" transform="translate(1296.435547 0.765625)"/>
      <use xlink:href="#DejaVuSans-6e" transform="translate(1357.617188 0.765625)"/>
      <use xlink:href="#DejaVuSans-73" transform="translate(1420.996094 0.765625)"/>
      <use xlink:href="#DejaVuSans-20" transform="translate(1473.095703 0.765625)"/>
      <use xlink:href="#DejaVuSans-22c5" transform="translate(1504.882812 0.765625)"/>
      <use xlink:href="#DejaVuSans-20" transform="translate(1536.669922 0.765625)"/>
      <use xlink:href="#DejaVuSans-6d" transform="translate(1568.457031 0.765625)"/>
      <use xlink:href="#DejaVuSans-2212" transform="translate(1666.826172 39.046875) scale(0.7)"/>
      <use xlink:href="#DejaVuSans-32" transform="translate(1725.478516 39.046875) scale(0.7)"/>
      <use xlink:href="#DejaVuSans-20" transform="translate(1772.749023 0.765625)"/>
      <use xlink:href="#DejaVuSans-22c5" transform="translate(1804.536133 0.765625)"/>
      <use xlink:href="#DejaVuSans-20" transform="translate(1836.323242 0.765625)"/>
      <use xlink:href="#DejaVuSans-73" transform="translate(1868.110352 0.765625)"/>
      <use xlink:href="#DejaVuSans-2212" transform="translate(1921.166992 39.046875) scale(0.7)"/>
      <use xlink:href="#DejaVuSans-31" transform="translate(1979.819336 39.046875) scale(0.7)"/>
      <use xlink:href="#DejaVuSans-29" transform="translate(2027.089844 0.765625)"/>
     </g>
    </g>
   </g>
   <g id="matplotlib.axis_4">
    <g id="ytick_5">
     <g id="line2d_21">
      <g>
       <use xlink:href="#m7b1fa8ba19" x="465.13605" y="236.758618" style="stroke: #000000; stroke-width: 0.8"/>
      </g>
     </g>
     <g id="text_25">
      <!-- 0.0 -->
      <g transform="translate(442.232925 240.557836) scale(0.1 -0.1)">
       <use xlink:href="#DejaVuSans-30"/>
       <use xlink:href="#DejaVuSans-2e" transform="translate(63.623047 0)"/>
       <use xlink:href="#DejaVuSans-30" transform="translate(95.410156 0)"/>
      </g>
     </g>
    </g>
    <g id="ytick_6">
     <g id="line2d_22">
      <g>
       <use xlink:href="#m7b1fa8ba19" x="465.13605" y="200.336101" style="stroke: #000000; stroke-width: 0.8"/>
      </g>
     </g>
     <g id="text_26">
      <!-- 0.2 -->
      <g transform="translate(442.232925 204.13532) scale(0.1 -0.1)">
       <use xlink:href="#DejaVuSans-30"/>
       <use xlink:href="#DejaVuSans-2e" transform="translate(63.623047 0)"/>
       <use xlink:href="#DejaVuSans-32" transform="translate(95.410156 0)"/>
      </g>
     </g>
    </g>
    <g id="ytick_7">
     <g id="line2d_23">
      <g>
       <use xlink:href="#m7b1fa8ba19" x="465.13605" y="163.913585" style="stroke: #000000; stroke-width: 0.8"/>
      </g>
     </g>
     <g id="text_27">
      <!-- 0.4 -->
      <g transform="translate(442.232925 167.712804) scale(0.1 -0.1)">
       <use xlink:href="#DejaVuSans-30"/>
       <use xlink:href="#DejaVuSans-2e" transform="translate(63.623047 0)"/>
       <use xlink:href="#DejaVuSans-34" transform="translate(95.410156 0)"/>
      </g>
     </g>
    </g>
    <g id="ytick_8">
     <g id="line2d_24">
      <g>
       <use xlink:href="#m7b1fa8ba19" x="465.13605" y="127.491069" style="stroke: #000000; stroke-width: 0.8"/>
      </g>
     </g>
     <g id="text_28">
      <!-- 0.6 -->
      <g transform="translate(442.232925 131.290287) scale(0.1 -0.1)">
       <use xlink:href="#DejaVuSans-30"/>
       <use xlink:href="#DejaVuSans-2e" transform="translate(63.623047 0)"/>
       <use xlink:href="#DejaVuSans-36" transform="translate(95.410156 0)"/>
      </g>
     </g>
    </g>
    <g id="ytick_9">
     <g id="line2d_25">
      <g>
       <use xlink:href="#m7b1fa8ba19" x="465.13605" y="91.068552" style="stroke: #000000; stroke-width: 0.8"/>
      </g>
     </g>
     <g id="text_29">
      <!-- 0.8 -->
      <g transform="translate(442.232925 94.867771) scale(0.1 -0.1)">
       <use xlink:href="#DejaVuSans-30"/>
       <use xlink:href="#DejaVuSans-2e" transform="translate(63.623047 0)"/>
       <use xlink:href="#DejaVuSans-38" transform="translate(95.410156 0)"/>
      </g>
     </g>
    </g>
    <g id="ytick_10">
     <g id="line2d_26">
      <g>
       <use xlink:href="#m7b1fa8ba19" x="465.13605" y="54.646036" style="stroke: #000000; stroke-width: 0.8"/>
      </g>
     </g>
     <g id="text_30">
      <!-- 1.0 -->
      <g transform="translate(442.232925 58.445255) scale(0.1 -0.1)">
       <use xlink:href="#DejaVuSans-31"/>
       <use xlink:href="#DejaVuSans-2e" transform="translate(63.623047 0)"/>
       <use xlink:href="#DejaVuSans-30" transform="translate(95.410156 0)"/>
      </g>
     </g>
    </g>
    <g id="ytick_11">
     <g id="line2d_27">
      <g>
       <use xlink:href="#m7b1fa8ba19" x="465.13605" y="18.22352" style="stroke: #000000; stroke-width: 0.8"/>
      </g>
     </g>
     <g id="text_31">
      <!-- 1.2 -->
      <g transform="translate(442.232925 22.022738) scale(0.1 -0.1)">
       <use xlink:href="#DejaVuSans-31"/>
       <use xlink:href="#DejaVuSans-2e" transform="translate(63.623047 0)"/>
       <use xlink:href="#DejaVuSans-32" transform="translate(95.410156 0)"/>
      </g>
     </g>
    </g>
    <g id="text_32">
     <!-- NPQ  -->
     <g transform="translate(424.955425 135.218723) rotate(-90) scale(0.1 -0.1)">
      <defs>
       <path id="DejaVuSans-4e" d="M 628 4666 
L 1478 4666 
L 3547 763 
L 3547 4666 
L 4159 4666 
L 4159 0 
L 3309 0 
L 1241 3903 
L 1241 0 
L 628 0 
L 628 4666 
z
" transform="scale(0.015625)"/>
      </defs>
      <use xlink:href="#DejaVuSans-4e"/>
      <use xlink:href="#DejaVuSans-50" transform="translate(74.804688 0)"/>
      <use xlink:href="#DejaVuSans-51" transform="translate(135.107422 0)"/>
      <use xlink:href="#DejaVuSans-20" transform="translate(213.818359 0)"/>
     </g>
     <!--  ChlF (rel. units) -->
     <g transform="translate(436.153237 162.821067) rotate(-90) scale(0.1 -0.1)">
      <defs>
       <path id="DejaVuSans-46" d="M 628 4666 
L 3309 4666 
L 3309 4134 
L 1259 4134 
L 1259 2759 
L 3109 2759 
L 3109 2228 
L 1259 2228 
L 1259 0 
L 628 0 
L 628 4666 
z
" transform="scale(0.015625)"/>
      </defs>
      <use xlink:href="#DejaVuSans-20"/>
      <use xlink:href="#DejaVuSans-43" transform="translate(31.787109 0)"/>
      <use xlink:href="#DejaVuSans-68" transform="translate(101.611328 0)"/>
      <use xlink:href="#DejaVuSans-6c" transform="translate(164.990234 0)"/>
      <use xlink:href="#DejaVuSans-46" transform="translate(192.773438 0)"/>
      <use xlink:href="#DejaVuSans-20" transform="translate(250.292969 0)"/>
      <use xlink:href="#DejaVuSans-28" transform="translate(282.080078 0)"/>
      <use xlink:href="#DejaVuSans-72" transform="translate(321.09375 0)"/>
      <use xlink:href="#DejaVuSans-65" transform="translate(359.957031 0)"/>
      <use xlink:href="#DejaVuSans-6c" transform="translate(421.480469 0)"/>
      <use xlink:href="#DejaVuSans-2e" transform="translate(449.263672 0)"/>
      <use xlink:href="#DejaVuSans-20" transform="translate(481.050781 0)"/>
      <use xlink:href="#DejaVuSans-75" transform="translate(512.837891 0)"/>
      <use xlink:href="#DejaVuSans-6e" transform="translate(576.216797 0)"/>
      <use xlink:href="#DejaVuSans-69" transform="translate(639.595703 0)"/>
      <use xlink:href="#DejaVuSans-74" transform="translate(667.378906 0)"/>
      <use xlink:href="#DejaVuSans-73" transform="translate(706.587891 0)"/>
      <use xlink:href="#DejaVuSans-29" transform="translate(758.6875 0)"/>
     </g>
    </g>
   </g>
   <g id="line2d_28">
    <path d="M 471.50783 236.551204 
L 474.693721 235.44636 
L 477.879611 233.856959 
L 481.065501 232.013528 
L 484.251391 230.001133 
L 487.437281 227.862077 
L 490.623172 225.62155 
L 493.809062 223.29639 
L 496.994952 220.89879 
L 500.180842 218.438105 
L 503.366732 215.921834 
L 506.552623 213.356186 
L 509.738513 210.746437 
L 512.924403 208.097161 
L 516.110293 205.412384 
L 519.296183 202.695695 
L 522.482074 199.950322 
L 525.667964 197.179196 
L 528.853854 194.384991 
L 532.039744 191.570163 
L 535.225634 188.736977 
L 538.411525 185.887525 
L 541.597415 183.023754 
L 544.783305 180.147472 
L 547.969195 177.26037 
L 551.155085 174.364027 
L 554.340975 171.459924 
L 557.526866 168.549452 
L 560.712756 165.633921 
L 563.898646 162.714565 
L 567.084536 159.792551 
L 570.270426 156.868984 
L 573.456317 153.944911 
L 576.642207 151.021331 
L 579.828097 148.099193 
L 583.013987 145.179406 
L 586.199877 142.262841 
L 589.385768 139.350333 
L 592.571658 136.442688 
L 595.757548 133.540685 
L 598.943438 130.645081 
L 602.129328 127.756609 
L 605.315219 124.875987 
L 608.501109 122.00392 
L 611.686999 119.141099 
L 614.872889 116.288208 
L 618.058779 113.445926 
L 621.24467 110.614928 
L 624.43056 107.795892 
L 627.61645 104.989496 
L 630.80234 102.196425 
L 633.98823 99.417374 
L 637.174121 96.65305 
L 640.360011 93.904176 
L 643.545901 91.171496 
L 646.731791 88.455773 
L 649.917681 85.7578 
L 653.103572 83.078401 
L 656.289462 80.418436 
L 659.475352 77.778804 
L 662.661242 75.160453 
L 665.847132 72.564382 
L 669.033023 69.991648 
L 672.218913 67.443375 
L 675.404803 64.920761 
L 678.590693 62.425084 
L 681.776583 59.957716 
L 684.962474 57.520133 
L 688.148364 55.113922 
L 691.334254 52.740797 
L 694.520144 50.402615 
L 697.706034 48.101389 
L 700.891925 45.839302 
L 704.077815 43.618727 
L 707.263705 41.442244 
L 710.449595 39.31266 
L 713.635485 37.23302 
L 716.821375 35.206631 
L 720.007266 33.237066 
L 723.193156 31.32817 
L 726.379046 29.484055 
L 729.564936 27.709081 
L 732.750826 26.007807 
L 735.936717 24.384927 
L 739.122607 22.845159 
L 742.308497 21.393098 
L 745.494387 20.033017 
L 748.680277 18.768629 
L 751.866168 17.602808 
L 755.052058 16.537303 
L 758.237948 15.572478 
L 761.423838 14.707117 
L 764.609728 13.938337 
L 767.795619 13.261652 
L 770.981509 12.671171 
L 774.167399 12.159925 
L 777.353289 11.720258 
L 780.539179 11.344239 
L 783.72507 11.024031 
L 786.91096 10.752178 
" clip-path="url(#p241f781d23)" style="fill: none; stroke: #e29c23; stroke-width: 2; stroke-linecap: square"/>
   </g>
   <g id="line2d_29">
    <path d="M 471.50783 186.834699 
L 474.693721 184.583025 
L 477.879611 182.932242 
L 481.065501 181.643188 
L 484.251391 180.607104 
L 487.437281 179.760555 
L 490.623172 179.061937 
L 493.809062 178.482007 
L 496.994952 177.999217 
L 500.180842 177.597123 
L 503.366732 177.262834 
L 506.552623 176.986024 
L 509.738513 176.758275 
L 512.924403 176.572629 
L 516.110293 176.423264 
L 519.296183 176.305267 
L 522.482074 176.214451 
L 525.667964 176.147233 
L 528.853854 176.100521 
L 532.039744 176.07164 
L 535.225634 176.058266 
L 538.411525 176.05837 
L 541.597415 176.070179 
L 544.783305 176.092138 
L 547.969195 176.122879 
L 551.155085 176.161202 
L 554.340975 176.206045 
L 557.526866 176.256472 
L 560.712756 176.311658 
L 563.898646 176.37087 
L 567.084536 176.43346 
L 570.270426 176.498854 
L 573.456317 176.566543 
L 576.642207 176.636075 
L 579.828097 176.707049 
L 583.013987 176.779108 
L 586.199877 176.851936 
L 589.385768 176.925252 
L 592.571658 176.998803 
L 595.757548 177.072367 
L 598.943438 177.145746 
L 602.129328 177.21876 
L 605.315219 177.291253 
L 608.501109 177.363082 
L 611.686999 177.43412 
L 614.872889 177.504254 
L 618.058779 177.573381 
L 621.24467 177.641408 
L 624.43056 177.708252 
L 627.61645 177.773836 
L 630.80234 177.83809 
L 633.98823 177.900951 
L 637.174121 177.962357 
L 640.360011 178.022253 
L 643.545901 178.080585 
L 646.731791 178.137302 
L 649.917681 178.192355 
L 653.103572 178.245694 
L 656.289462 178.297271 
L 659.475352 178.347036 
L 662.661242 178.394939 
L 665.847132 178.440927 
L 669.033023 178.484947 
L 672.218913 178.526939 
L 675.404803 178.566842 
L 678.590693 178.60459 
L 681.776583 178.64011 
L 684.962474 178.673325 
L 688.148364 178.704147 
L 691.334254 178.732484 
L 694.520144 178.758232 
L 697.706034 178.781276 
L 700.891925 178.801491 
L 704.077815 178.818737 
L 707.263705 178.83286 
L 710.449595 178.84369 
L 713.635485 178.851038 
L 716.821375 178.854696 
L 720.007266 178.854439 
L 723.193156 178.850016 
L 726.379046 178.84116 
L 729.564936 178.827579 
L 732.750826 178.808968 
L 735.936717 178.785007 
L 739.122607 178.755367 
L 742.308497 178.719728 
L 745.494387 178.677784 
L 748.680277 178.629264 
L 751.866168 178.573951 
L 755.052058 178.511705 
L 758.237948 178.442482 
L 761.423838 178.366346 
L 764.609728 178.283483 
L 767.795619 178.194197 
L 770.981509 178.098896 
L 774.167399 177.99807 
L 777.353289 177.892266 
L 780.539179 177.782055 
L 783.72507 177.668011 
L 786.91096 177.55068 
" clip-path="url(#p241f781d23)" style="fill: none; stroke: #5b82b5; stroke-width: 2; stroke-linecap: square"/>
   </g>
   <g id="patch_15">
    <path d="M 465.13605 236.758618 
L 465.13605 9.11789 
" style="fill: none; stroke: #000000; stroke-width: 0.8; stroke-linejoin: miter; stroke-linecap: square"/>
   </g>
   <g id="patch_16">
    <path d="M 790.09685 236.758618 
L 790.09685 9.11789 
" style="fill: none; stroke: #000000; stroke-width: 0.8; stroke-linejoin: miter; stroke-linecap: square"/>
   </g>
   <g id="patch_17">
    <path d="M 465.13605 236.758618 
L 790.09685 236.758618 
" style="fill: none; stroke: #000000; stroke-width: 0.8; stroke-linejoin: miter; stroke-linecap: square"/>
   </g>
   <g id="patch_18">
    <path d="M 465.13605 9.11789 
L 790.09685 9.11789 
" style="fill: none; stroke: #000000; stroke-width: 0.8; stroke-linejoin: miter; stroke-linecap: square"/>
   </g>
   <g id="legend_2">
    <g id="patch_19">
     <path d="M 700.69685 196.769555 
L 710.69685 196.769555 
L 710.69685 187.819555 
L 700.69685 187.819555 
z
" style="stroke: #000000; stroke-linejoin: miter"/>
    </g>
    <g id="text_33">
     <!-- O$_2$ evolution -->
     <g transform="translate(718.69685 195.719555) scale(0.1 -0.1)">
      <use xlink:href="#DejaVuSans-4f" transform="translate(0 0.015625)"/>
      <use xlink:href="#DejaVuSans-32" transform="translate(79.667969 -16.390625) scale(0.7)"/>
      <use xlink:href="#DejaVuSans-20" transform="translate(126.938477 0.015625)"/>
      <use xlink:href="#DejaVuSans-65" transform="translate(158.725586 0.015625)"/>
      <use xlink:href="#DejaVuSans-76" transform="translate(220.249023 0.015625)"/>
      <use xlink:href="#DejaVuSans-6f" transform="translate(279.428711 0.015625)"/>
      <use xlink:href="#DejaVuSans-6c" transform="translate(340.610352 0.015625)"/>
      <use xlink:href="#DejaVuSans-75" transform="translate(368.393555 0.015625)"/>
      <use xlink:href="#DejaVuSans-74" transform="translate(431.772461 0.015625)"/>
      <use xlink:href="#DejaVuSans-69" transform="translate(470.981445 0.015625)"/>
      <use xlink:href="#DejaVuSans-6f" transform="translate(498.764648 0.015625)"/>
      <use xlink:href="#DejaVuSans-6e" transform="translate(559.946289 0.015625)"/>
     </g>
    </g>
    <g id="patch_20">
     <path d="M 700.69685 211.749243 
L 710.69685 211.749243 
L 710.69685 202.799243 
L 700.69685 202.799243 
z
" style="fill: #e29c23; stroke: #e29c23; stroke-linejoin: miter"/>
    </g>
    <g id="text_34">
     <!-- NPQ -->
     <g transform="translate(718.69685 210.699243) scale(0.1 -0.1)">
      <use xlink:href="#DejaVuSans-4e"/>
      <use xlink:href="#DejaVuSans-50" transform="translate(74.804688 0)"/>
      <use xlink:href="#DejaVuSans-51" transform="translate(135.107422 0)"/>
     </g>
    </g>
    <g id="patch_21">
     <path d="M 700.69685 226.72893 
L 710.69685 226.72893 
L 710.69685 217.77893 
L 700.69685 217.77893 
z
" style="fill: #5b82b5; stroke: #5b82b5; stroke-linejoin: miter"/>
    </g>
    <g id="text_35">
     <!-- ChlF -->
     <g transform="translate(718.69685 225.67893) scale(0.1 -0.1)">
      <use xlink:href="#DejaVuSans-43"/>
      <use xlink:href="#DejaVuSans-68" transform="translate(69.824219 0)"/>
      <use xlink:href="#DejaVuSans-6c" transform="translate(133.203125 0)"/>
      <use xlink:href="#DejaVuSans-46" transform="translate(160.986328 0)"/>
     </g>
    </g>
   </g>
  </g>
  <g id="axes_3">
   <g id="matplotlib.axis_5">
    <g id="ytick_12">
     <g id="line2d_30">
      <defs>
       <path id="med9cf90fdc" d="M 0 0 
L 3.5 0 
" style="stroke: #000000; stroke-width: 0.8"/>
      </defs>
      <g>
       <use xlink:href="#med9cf90fdc" x="368.74205" y="186.171789" style="stroke: #000000; stroke-width: 0.8"/>
      </g>
     </g>
     <g id="text_36">
      <!-- 5.4 -->
      <g transform="translate(375.74205 189.971008) scale(0.1 -0.1)">
       <defs>
        <path id="DejaVuSans-35" d="M 691 4666 
L 3169 4666 
L 3169 4134 
L 1269 4134 
L 1269 2991 
Q 1406 3038 1543 3061 
Q 1681 3084 1819 3084 
Q 2600 3084 3056 2656 
Q 3513 2228 3513 1497 
Q 3513 744 3044 326 
Q 2575 -91 1722 -91 
Q 1428 -91 1123 -41 
Q 819 9 494 109 
L 494 744 
Q 775 591 1075 516 
Q 1375 441 1709 441 
Q 2250 441 2565 725 
Q 2881 1009 2881 1497 
Q 2881 1984 2565 2268 
Q 2250 2553 1709 2553 
Q 1456 2553 1204 2497 
Q 953 2441 691 2322 
L 691 4666 
z
" transform="scale(0.015625)"/>
       </defs>
       <use xlink:href="#DejaVuSans-35"/>
       <use xlink:href="#DejaVuSans-2e" transform="translate(63.623047 0)"/>
       <use xlink:href="#DejaVuSans-34" transform="translate(95.410156 0)"/>
      </g>
     </g>
    </g>
    <g id="ytick_13">
     <g id="line2d_31">
      <g>
       <use xlink:href="#med9cf90fdc" x="368.74205" y="135.584961" style="stroke: #000000; stroke-width: 0.8"/>
      </g>
     </g>
     <g id="text_37">
      <!-- 5.8 -->
      <g transform="translate(375.74205 139.38418) scale(0.1 -0.1)">
       <use xlink:href="#DejaVuSans-35"/>
       <use xlink:href="#DejaVuSans-2e" transform="translate(63.623047 0)"/>
       <use xlink:href="#DejaVuSans-38" transform="translate(95.410156 0)"/>
      </g>
     </g>
    </g>
    <g id="ytick_14">
     <g id="line2d_32">
      <g>
       <use xlink:href="#med9cf90fdc" x="368.74205" y="84.998133" style="stroke: #000000; stroke-width: 0.8"/>
      </g>
     </g>
     <g id="text_38">
      <!-- 6.2 -->
      <g transform="translate(375.74205 88.797352) scale(0.1 -0.1)">
       <use xlink:href="#DejaVuSans-36"/>
       <use xlink:href="#DejaVuSans-2e" transform="translate(63.623047 0)"/>
       <use xlink:href="#DejaVuSans-32" transform="translate(95.410156 0)"/>
      </g>
     </g>
    </g>
    <g id="ytick_15">
     <g id="line2d_33">
      <g>
       <use xlink:href="#med9cf90fdc" x="368.74205" y="34.411305" style="stroke: #000000; stroke-width: 0.8"/>
      </g>
     </g>
     <g id="text_39">
      <!-- 6.6 -->
      <g transform="translate(375.74205 38.210523) scale(0.1 -0.1)">
       <use xlink:href="#DejaVuSans-36"/>
       <use xlink:href="#DejaVuSans-2e" transform="translate(63.623047 0)"/>
       <use xlink:href="#DejaVuSans-36" transform="translate(95.410156 0)"/>
      </g>
     </g>
    </g>
    <g id="text_40">
     <!-- Lumen pH -->
     <g transform="translate(403.243612 148.444504) rotate(-90) scale(0.1 -0.1)">
      <use xlink:href="#DejaVuSans-4c"/>
      <use xlink:href="#DejaVuSans-75" transform="translate(53.962891 0)"/>
      <use xlink:href="#DejaVuSans-6d" transform="translate(117.341797 0)"/>
      <use xlink:href="#DejaVuSans-65" transform="translate(214.753906 0)"/>
      <use xlink:href="#DejaVuSans-6e" transform="translate(276.277344 0)"/>
      <use xlink:href="#DejaVuSans-20" transform="translate(339.65625 0)"/>
      <use xlink:href="#DejaVuSans-70" transform="translate(371.443359 0)"/>
      <use xlink:href="#DejaVuSans-48" transform="translate(434.919922 0)"/>
     </g>
    </g>
   </g>
   <g id="line2d_34">
    <path d="M 50.15303 19.183544 
L 53.338921 38.35156 
L 56.524811 46.647984 
L 59.710701 51.830153 
L 62.896591 55.587882 
L 66.082481 58.538678 
L 69.268372 60.973073 
L 72.454262 63.049888 
L 75.640152 64.865063 
L 78.826042 66.480853 
L 82.011932 67.939887 
L 85.197823 69.27261 
L 88.383713 70.501511 
L 91.569603 71.643668 
L 94.755493 72.712358 
L 97.941383 73.718108 
L 101.127274 74.669407 
L 104.313164 75.573204 
L 107.499054 76.435264 
L 110.684944 77.260423 
L 113.870834 78.052782 
L 117.056725 78.815853 
L 120.242615 79.552668 
L 123.428505 80.265865 
L 126.614395 80.95776 
L 129.800285 81.630395 
L 132.986175 82.285588 
L 136.172066 82.92496 
L 139.357956 83.549974 
L 142.543846 84.16195 
L 145.729736 84.762089 
L 148.915626 85.351489 
L 152.101517 85.931159 
L 155.287407 86.502031 
L 158.473297 87.064969 
L 161.659187 87.620782 
L 164.845077 88.170224 
L 168.030968 88.714009 
L 171.216858 89.252811 
L 174.402748 89.787273 
L 177.588638 90.318008 
L 180.774528 90.845608 
L 183.960419 91.370643 
L 187.146309 91.893667 
L 190.332199 92.415223 
L 193.518089 92.935841 
L 196.703979 93.456048 
L 199.88987 93.976362 
L 203.07576 94.497304 
L 206.26165 95.019393 
L 209.44754 95.543154 
L 212.63343 96.069119 
L 215.819321 96.597826 
L 219.005211 97.12983 
L 222.191101 97.665696 
L 225.376991 98.206011 
L 228.562881 98.751381 
L 231.748772 99.302437 
L 234.934662 99.859839 
L 238.120552 100.42428 
L 241.306442 100.996486 
L 244.492332 101.577227 
L 247.678223 102.167318 
L 250.864113 102.767626 
L 254.050003 103.379073 
L 257.235893 104.002647 
L 260.421783 104.639404 
L 263.607674 105.290479 
L 266.793564 105.957094 
L 269.979454 106.640563 
L 273.165344 107.342305 
L 276.351234 108.06385 
L 279.537125 108.806853 
L 282.723015 109.573097 
L 285.908905 110.364505 
L 289.094795 111.183147 
L 292.280685 112.03124 
L 295.466575 112.911151 
L 298.652466 113.825388 
L 301.838356 114.776583 
L 305.024246 115.767464 
L 308.210136 116.800801 
L 311.396026 117.879345 
L 314.581917 119.005718 
L 317.767807 120.182292 
L 320.953697 121.411011 
L 324.139587 122.693199 
L 327.325477 124.029325 
L 330.511368 125.418778 
L 333.697258 126.859654 
L 336.883148 128.348614 
L 340.069038 129.880838 
L 343.254928 131.450113 
L 346.440819 133.049073 
L 349.626709 134.669549 
L 352.812599 136.303005 
L 355.998489 137.940988 
L 359.184379 139.575525 
L 362.37027 141.199429 
L 365.55616 142.806496 
" clip-path="url(#p6195d52d75)" style="fill: none; stroke: #000000; stroke-width: 2; stroke-linecap: square"/>
   </g>
   <g id="patch_22">
    <path d="M 43.78125 236.758618 
L 43.78125 9.11789 
" style="fill: none; stroke: #000000; stroke-width: 0.8; stroke-linejoin: miter; stroke-linecap: square"/>
   </g>
   <g id="patch_23">
    <path d="M 368.74205 236.758618 
L 368.74205 9.11789 
" style="fill: none; stroke: #000000; stroke-width: 0.8; stroke-linejoin: miter; stroke-linecap: square"/>
   </g>
   <g id="patch_24">
    <path d="M 43.78125 236.758618 
L 368.74205 236.758618 
" style="fill: none; stroke: #000000; stroke-width: 0.8; stroke-linejoin: miter; stroke-linecap: square"/>
   </g>
   <g id="patch_25">
    <path d="M 43.78125 9.11789 
L 368.74205 9.11789 
" style="fill: none; stroke: #000000; stroke-width: 0.8; stroke-linejoin: miter; stroke-linecap: square"/>
   </g>
  </g>
  <g id="axes_4">
   <g id="matplotlib.axis_6">
    <g id="ytick_16">
     <g id="line2d_35">
      <g>
       <use xlink:href="#med9cf90fdc" x="790.09685" y="236.758618" style="stroke: #000000; stroke-width: 0.8"/>
      </g>
     </g>
     <g id="text_41">
      <!-- 0 -->
      <g transform="translate(797.09685 240.557836) scale(0.1 -0.1)">
       <use xlink:href="#DejaVuSans-30"/>
      </g>
     </g>
    </g>
    <g id="ytick_17">
     <g id="line2d_36">
      <g>
       <use xlink:href="#med9cf90fdc" x="790.09685" y="199.132051" style="stroke: #000000; stroke-width: 0.8"/>
      </g>
     </g>
     <g id="text_42">
      <!-- 20 -->
      <g transform="translate(797.09685 202.93127) scale(0.1 -0.1)">
       <use xlink:href="#DejaVuSans-32"/>
       <use xlink:href="#DejaVuSans-30" transform="translate(63.623047 0)"/>
      </g>
     </g>
    </g>
    <g id="ytick_18">
     <g id="line2d_37">
      <g>
       <use xlink:href="#med9cf90fdc" x="790.09685" y="161.505485" style="stroke: #000000; stroke-width: 0.8"/>
      </g>
     </g>
     <g id="text_43">
      <!-- 40 -->
      <g transform="translate(797.09685 165.304703) scale(0.1 -0.1)">
       <use xlink:href="#DejaVuSans-34"/>
       <use xlink:href="#DejaVuSans-30" transform="translate(63.623047 0)"/>
      </g>
     </g>
    </g>
    <g id="ytick_19">
     <g id="line2d_38">
      <g>
       <use xlink:href="#med9cf90fdc" x="790.09685" y="123.878918" style="stroke: #000000; stroke-width: 0.8"/>
      </g>
     </g>
     <g id="text_44">
      <!-- 60 -->
      <g transform="translate(797.09685 127.678137) scale(0.1 -0.1)">
       <use xlink:href="#DejaVuSans-36"/>
       <use xlink:href="#DejaVuSans-30" transform="translate(63.623047 0)"/>
      </g>
     </g>
    </g>
    <g id="ytick_20">
     <g id="line2d_39">
      <g>
       <use xlink:href="#med9cf90fdc" x="790.09685" y="86.252352" style="stroke: #000000; stroke-width: 0.8"/>
      </g>
     </g>
     <g id="text_45">
      <!-- 80 -->
      <g transform="translate(797.09685 90.05157) scale(0.1 -0.1)">
       <use xlink:href="#DejaVuSans-38"/>
       <use xlink:href="#DejaVuSans-30" transform="translate(63.623047 0)"/>
      </g>
     </g>
    </g>
    <g id="ytick_21">
     <g id="line2d_40">
      <g>
       <use xlink:href="#med9cf90fdc" x="790.09685" y="48.625785" style="stroke: #000000; stroke-width: 0.8"/>
      </g>
     </g>
     <g id="text_46">
      <!-- 100 -->
      <g transform="translate(797.09685 52.425004) scale(0.1 -0.1)">
       <use xlink:href="#DejaVuSans-31"/>
       <use xlink:href="#DejaVuSans-30" transform="translate(63.623047 0)"/>
       <use xlink:href="#DejaVuSans-30" transform="translate(127.246094 0)"/>
      </g>
     </g>
    </g>
    <g id="ytick_22">
     <g id="line2d_41">
      <g>
       <use xlink:href="#med9cf90fdc" x="790.09685" y="10.999219" style="stroke: #000000; stroke-width: 0.8"/>
      </g>
     </g>
     <g id="text_47">
      <!-- 120 -->
      <g transform="translate(797.09685 14.798438) scale(0.1 -0.1)">
       <use xlink:href="#DejaVuSans-31"/>
       <use xlink:href="#DejaVuSans-32" transform="translate(63.623047 0)"/>
       <use xlink:href="#DejaVuSans-30" transform="translate(127.246094 0)"/>
      </g>
     </g>
    </g>
    <g id="text_48">
     <!-- O$_2$ rate -->
     <g transform="translate(827.782787 141.038254) rotate(-90) scale(0.1 -0.1)">
      <use xlink:href="#DejaVuSans-4f" transform="translate(0 0.78125)"/>
      <use xlink:href="#DejaVuSans-32" transform="translate(79.667969 -15.625) scale(0.7)"/>
      <use xlink:href="#DejaVuSans-20" transform="translate(126.938477 0.78125)"/>
      <use xlink:href="#DejaVuSans-72" transform="translate(158.725586 0.78125)"/>
      <use xlink:href="#DejaVuSans-61" transform="translate(199.838867 0.78125)"/>
      <use xlink:href="#DejaVuSans-74" transform="translate(261.118164 0.78125)"/>
      <use xlink:href="#DejaVuSans-65" transform="translate(300.327148 0.78125)"/>
     </g>
     <!-- (mol O$_2$ $\cdot$ mol PSIIRC$^{-1}$ $\cdot$ s$^{-1}$) -->
     <g transform="translate(840.20685 193.938254) rotate(-90) scale(0.1 -0.1)">
      <defs>
       <path id="DejaVuSans-53" d="M 3425 4513 
L 3425 3897 
Q 3066 4069 2747 4153 
Q 2428 4238 2131 4238 
Q 1616 4238 1336 4038 
Q 1056 3838 1056 3469 
Q 1056 3159 1242 3001 
Q 1428 2844 1947 2747 
L 2328 2669 
Q 3034 2534 3370 2195 
Q 3706 1856 3706 1288 
Q 3706 609 3251 259 
Q 2797 -91 1919 -91 
Q 1588 -91 1214 -16 
Q 841 59 441 206 
L 441 856 
Q 825 641 1194 531 
Q 1563 422 1919 422 
Q 2459 422 2753 634 
Q 3047 847 3047 1241 
Q 3047 1584 2836 1778 
Q 2625 1972 2144 2069 
L 1759 2144 
Q 1053 2284 737 2584 
Q 422 2884 422 3419 
Q 422 4038 858 4394 
Q 1294 4750 2059 4750 
Q 2388 4750 2728 4690 
Q 3069 4631 3425 4513 
z
" transform="scale(0.015625)"/>
      </defs>
      <use xlink:href="#DejaVuSans-28" transform="translate(0 0.684375)"/>
      <use xlink:href="#DejaVuSans-6d" transform="translate(39.013672 0.684375)"/>
      <use xlink:href="#DejaVuSans-6f" transform="translate(136.425781 0.684375)"/>
      <use xlink:href="#DejaVuSans-6c" transform="translate(197.607422 0.684375)"/>
      <use xlink:href="#DejaVuSans-20" transform="translate(225.390625 0.684375)"/>
      <use xlink:href="#DejaVuSans-4f" transform="translate(257.177734 0.684375)"/>
      <use xlink:href="#DejaVuSans-32" transform="translate(336.845703 -15.721875) scale(0.7)"/>
      <use xlink:href="#DejaVuSans-20" transform="translate(384.116211 0.684375)"/>
      <use xlink:href="#DejaVuSans-22c5" transform="translate(415.90332 0.684375)"/>
      <use xlink:href="#DejaVuSans-20" transform="translate(447.69043 0.684375)"/>
      <use xlink:href="#DejaVuSans-6d" transform="translate(479.477539 0.684375)"/>
      <use xlink:href="#DejaVuSans-6f" transform="translate(576.889648 0.684375)"/>
      <use xlink:href="#DejaVuSans-6c" transform="translate(638.071289 0.684375)"/>
      <use xlink:href="#DejaVuSans-20" transform="translate(665.854492 0.684375)"/>
      <use xlink:href="#DejaVuSans-50" transform="translate(697.641602 0.684375)"/>
      <use xlink:href="#DejaVuSans-53" transform="translate(757.944336 0.684375)"/>
      <use xlink:href="#DejaVuSans-49" transform="translate(821.420898 0.684375)"/>
      <use xlink:href="#DejaVuSans-49" transform="translate(850.913086 0.684375)"/>
      <use xlink:href="#DejaVuSans-52" transform="translate(880.405273 0.684375)"/>
      <use xlink:href="#DejaVuSans-43" transform="translate(949.887695 0.684375)"/>
      <use xlink:href="#DejaVuSans-2212" transform="translate(1020.668945 38.965625) scale(0.7)"/>
      <use xlink:href="#DejaVuSans-31" transform="translate(1079.321289 38.965625) scale(0.7)"/>
      <use xlink:href="#DejaVuSans-20" transform="translate(1126.591797 0.684375)"/>
      <use xlink:href="#DejaVuSans-22c5" transform="translate(1158.378906 0.684375)"/>
      <use xlink:href="#DejaVuSans-20" transform="translate(1190.166016 0.684375)"/>
      <use xlink:href="#DejaVuSans-73" transform="translate(1221.953125 0.684375)"/>
      <use xlink:href="#DejaVuSans-2212" transform="translate(1275.009766 38.965625) scale(0.7)"/>
      <use xlink:href="#DejaVuSans-31" transform="translate(1333.662109 38.965625) scale(0.7)"/>
      <use xlink:href="#DejaVuSans-29" transform="translate(1380.932617 0.684375)"/>
     </g>
    </g>
   </g>
   <g id="line2d_42">
    <path d="M 471.50783 232.174175 
L 474.693721 227.762633 
L 477.879611 223.512889 
L 481.065501 219.413503 
L 484.251391 215.455221 
L 487.437281 211.630442 
L 490.623172 207.932644 
L 493.809062 204.356025 
L 496.994952 200.89528 
L 500.180842 197.545472 
L 503.366732 194.30195 
L 506.552623 191.160296 
L 509.738513 188.116291 
L 512.924403 185.165898 
L 516.110293 182.305245 
L 519.296183 179.530613 
L 522.482074 176.838432 
L 525.667964 174.225275 
L 528.853854 171.68785 
L 532.039744 169.222997 
L 535.225634 166.827689 
L 538.411525 164.499018 
L 541.597415 162.234201 
L 544.783305 160.03057 
L 547.969195 157.885572 
L 551.155085 155.796759 
L 554.340975 153.761792 
L 557.526866 151.778432 
L 560.712756 149.844534 
L 563.898646 147.958051 
L 567.084536 146.11702 
L 570.270426 144.319567 
L 573.456317 142.563896 
L 576.642207 140.848291 
L 579.828097 139.171108 
L 583.013987 137.530774 
L 586.199877 135.925782 
L 589.385768 134.35469 
L 592.571658 132.816114 
L 595.757548 131.308727 
L 598.943438 129.831258 
L 602.129328 128.382485 
L 605.315219 126.961233 
L 608.501109 125.566375 
L 611.686999 124.196824 
L 614.872889 122.851534 
L 618.058779 121.529496 
L 621.24467 120.229738 
L 624.43056 118.951316 
L 627.61645 117.693322 
L 630.80234 116.454871 
L 633.98823 115.235107 
L 637.174121 114.033197 
L 640.360011 112.848329 
L 643.545901 111.679709 
L 646.731791 110.526562 
L 649.917681 109.388128 
L 653.103572 108.263658 
L 656.289462 107.152415 
L 659.475352 106.053668 
L 662.661242 104.966695 
L 665.847132 103.890773 
L 669.033023 102.825182 
L 672.218913 101.769201 
L 675.404803 100.722099 
L 678.590693 99.683141 
L 681.776583 98.651577 
L 684.962474 97.626644 
L 688.148364 96.607557 
L 691.334254 95.593509 
L 694.520144 94.583662 
L 697.706034 93.577145 
L 700.891925 92.57305 
L 704.077815 91.570423 
L 707.263705 90.568258 
L 710.449595 89.565493 
L 713.635485 88.561005 
L 716.821375 87.553599 
L 720.007266 86.542012 
L 723.193156 85.524902 
L 726.379046 84.500852 
L 729.564936 83.468374 
L 732.750826 82.425918 
L 735.936717 81.371891 
L 739.122607 80.304682 
L 742.308497 79.222707 
L 745.494387 78.124459 
L 748.680277 77.008579 
L 751.866168 75.873931 
L 755.052058 74.71969 
L 758.237948 73.545417 
L 761.423838 72.351122 
L 764.609728 71.137295 
L 767.795619 69.904895 
L 770.981509 68.655305 
L 774.167399 67.390238 
L 777.353289 66.111638 
L 780.539179 64.821557 
L 783.72507 63.522054 
L 786.91096 62.215104 
" clip-path="url(#p241f781d23)" style="fill: none; stroke: #000000; stroke-width: 2; stroke-linecap: square"/>
   </g>
   <g id="patch_26">
    <path d="M 465.13605 236.758618 
L 465.13605 9.11789 
" style="fill: none; stroke: #000000; stroke-width: 0.8; stroke-linejoin: miter; stroke-linecap: square"/>
   </g>
   <g id="patch_27">
    <path d="M 790.09685 236.758618 
L 790.09685 9.11789 
" style="fill: none; stroke: #000000; stroke-width: 0.8; stroke-linejoin: miter; stroke-linecap: square"/>
   </g>
   <g id="patch_28">
    <path d="M 465.13605 236.758618 
L 790.09685 236.758618 
" style="fill: none; stroke: #000000; stroke-width: 0.8; stroke-linejoin: miter; stroke-linecap: square"/>
   </g>
   <g id="patch_29">
    <path d="M 465.13605 9.11789 
L 790.09685 9.11789 
" style="fill: none; stroke: #000000; stroke-width: 0.8; stroke-linejoin: miter; stroke-linecap: square"/>
   </g>
  </g>
 </g>
 <defs>
  <clipPath id="p6195d52d75">
   <rect x="43.78125" y="9.11789" width="324.9608" height="227.640727"/>
  </clipPath>
  <clipPath id="p241f781d23">
   <rect x="465.13605" y="9.11789" width="324.9608" height="227.640727"/>
  </clipPath>
 </defs>
</svg>
