<?xml version="1.0" encoding="utf-8" standalone="no"?>
<!DOCTYPE svg PUBLIC "-//W3C//DTD SVG 1.1//EN"
  "http://www.w3.org/Graphics/SVG/1.1/DTD/svg11.dtd">
<svg xmlns:xlink="http://www.w3.org/1999/xlink" width="645.5625pt" height="313.23375pt" viewBox="0 0 645.5625 313.23375" xmlns="http://www.w3.org/2000/svg" version="1.1">
 <metadata>
  <rdf:RDF xmlns:dc="http://purl.org/dc/elements/1.1/" xmlns:cc="http://creativecommons.org/ns#" xmlns:rdf="http://www.w3.org/1999/02/22-rdf-syntax-ns#">
   <cc:Work>
    <dc:type rdf:resource="http://purl.org/dc/dcmitype/StillImage"/>
    <dc:date>2026-01-27T11:00:20.912570</dc:date>
    <dc:format>image/svg+xml</dc:format>
    <dc:creator>
     <cc:Agent>
      <dc:title>Matplotlib v3.10.8, https://matplotlib.org/</dc:title>
     </cc:Agent>
    </dc:creator>
   </cc:Work>
  </rdf:RDF>
 </metadata>
 <defs>
  <style type="text/css">*{stroke-linejoin: round; stroke-linecap: butt}</style>
 </defs>
 <g id="figure_1">
  <g id="patch_1">
   <path d="M 0 313.23375 
L 645.5625 313.23375 
L 645.5625 0 
L 0 0 
z
" style="fill: #ffffff"/>
  </g>
  <g id="axes_1">
   <g id="patch_2">
    <path d="M 43.78125 275.6775 
L 601.78125 275.6775 
L 601.78125 53.9175 
L 43.78125 53.9175 
z
" style="fill: #ffffff"/>
   </g>
   <g id="patch_3">
    <path d="M 43.78125 275.6775 
L 94.508523 275.6775 
L 94.508523 53.9175 
L 43.78125 53.9175 
z
" clip-path="url(#p3457b9e664)" style="opacity: 0.3"/>
   </g>
   <g id="patch_4">
    <path d="M 43.78125 53.9175 
L 94.508523 53.9175 
L 94.508523 33.7575 
L 43.78125 33.7575 
z
" style="stroke: #000000; stroke-width: 0.5; stroke-linejoin: miter"/>
   </g>
   <g id="patch_5">
    <path d="M 94.508523 275.6775 
L 348.144886 275.6775 
L 348.144886 53.9175 
L 94.508523 53.9175 
z
" clip-path="url(#p3457b9e664)" style="fill: #ffffff; opacity: 0.3"/>
   </g>
   <g id="patch_6">
    <path d="M 94.508523 53.9175 
L 348.144886 53.9175 
L 348.144886 33.7575 
L 94.508523 33.7575 
z
" style="fill: #ffffff; stroke: #000000; stroke-width: 0.5; stroke-linejoin: miter"/>
   </g>
   <g id="patch_7">
    <path d="M 348.144886 275.6775 
L 601.78125 275.6775 
L 601.78125 53.9175 
L 348.144886 53.9175 
z
" clip-path="url(#p3457b9e664)" style="opacity: 0.3"/>
   </g>
   <g id="patch_8">
    <path d="M 348.144886 53.9175 
L 601.78125 53.9175 
L 601.78125 33.7575 
L 348.144886 33.7575 
z
" style="stroke: #000000; stroke-width: 0.5; stroke-linejoin: miter"/>
   </g>
   <g id="matplotlib.axis_1">
    <g id="xtick_1">
     <g id="line2d_1">
      <defs>
       <path id="md1e45e6bdc" d="M 0 0 
L 0 3.5 
" style="stroke: #000000; stroke-width: 0.8"/>
      </defs>
      <g>
       <use xlink:href="#md1e45e6bdc" x="43.78125" y="275.6775" style="stroke: #000000; stroke-width: 0.8"/>
      </g>
     </g>
     <g id="text_1">
      <!-- 0.0 -->
      <g transform="translate(35.829688 290.275937) scale(0.1 -0.1)">
       <defs>
        <path id="DejaVuSans-30" d="M 2034 4250 
Q 1547 4250 1301 3770 
Q 1056 3291 1056 2328 
Q 1056 1369 1301 889 
Q 1547 409 2034 409 
Q 2525 409 2770 889 
Q 3016 1369 3016 2328 
Q 3016 3291 2770 3770 
Q 2525 4250 2034 4250 
z
M 2034 4750 
Q 2819 4750 3233 4129 
Q 3647 3509 3647 2328 
Q 3647 1150 3233 529 
Q 2819 -91 2034 -91 
Q 1250 -91 836 529 
Q 422 1150 422 2328 
Q 422 3509 836 4129 
Q 1250 4750 2034 4750 
z
" transform="scale(0.015625)"/>
        <path id="DejaVuSans-2e" d="M 684 794 
L 1344 794 
L 1344 0 
L 684 0 
L 684 794 
z
" transform="scale(0.015625)"/>
       </defs>
       <use xlink:href="#DejaVuSans-30"/>
       <use xlink:href="#DejaVuSans-2e" transform="translate(63.623047 0)"/>
       <use xlink:href="#DejaVuSans-30" transform="translate(95.410156 0)"/>
      </g>
     </g>
    </g>
    <g id="xtick_2">
     <g id="line2d_2">
      <g>
       <use xlink:href="#md1e45e6bdc" x="94.508523" y="275.6775" style="stroke: #000000; stroke-width: 0.8"/>
      </g>
     </g>
     <g id="text_2">
      <!-- 4.0 -->
      <g transform="translate(86.55696 290.275937) scale(0.1 -0.1)">
       <defs>
        <path id="DejaVuSans-34" d="M 2419 4116 
L 825 1625 
L 2419 1625 
L 2419 4116 
z
M 2253 4666 
L 3047 4666 
L 3047 1625 
L 3713 1625 
L 3713 1100 
L 3047 1100 
L 3047 0 
L 2419 0 
L 2419 1100 
L 313 1100 
L 313 1709 
L 2253 4666 
z
" transform="scale(0.015625)"/>
       </defs>
       <use xlink:href="#DejaVuSans-34"/>
       <use xlink:href="#DejaVuSans-2e" transform="translate(63.623047 0)"/>
       <use xlink:href="#DejaVuSans-30" transform="translate(95.410156 0)"/>
      </g>
     </g>
    </g>
    <g id="xtick_3">
     <g id="line2d_3">
      <g>
       <use xlink:href="#md1e45e6bdc" x="348.144886" y="275.6775" style="stroke: #000000; stroke-width: 0.8"/>
      </g>
     </g>
     <g id="text_3">
      <!-- 24.0 -->
      <g transform="translate(337.012074 290.275937) scale(0.1 -0.1)">
       <defs>
        <path id="DejaVuSans-32" d="M 1228 531 
L 3431 531 
L 3431 0 
L 469 0 
L 469 531 
Q 828 903 1448 1529 
Q 2069 2156 2228 2338 
Q 2531 2678 2651 2914 
Q 2772 3150 2772 3378 
Q 2772 3750 2511 3984 
Q 2250 4219 1831 4219 
Q 1534 4219 1204 4116 
Q 875 4013 500 3803 
L 500 4441 
Q 881 4594 1212 4672 
Q 1544 4750 1819 4750 
Q 2544 4750 2975 4387 
Q 3406 4025 3406 3419 
Q 3406 3131 3298 2873 
Q 3191 2616 2906 2266 
Q 2828 2175 2409 1742 
Q 1991 1309 1228 531 
z
" transform="scale(0.015625)"/>
       </defs>
       <use xlink:href="#DejaVuSans-32"/>
       <use xlink:href="#DejaVuSans-34" transform="translate(63.623047 0)"/>
       <use xlink:href="#DejaVuSans-2e" transform="translate(127.246094 0)"/>
       <use xlink:href="#DejaVuSans-30" transform="translate(159.033203 0)"/>
      </g>
     </g>
    </g>
    <g id="xtick_4">
     <g id="line2d_4">
      <g>
       <use xlink:href="#md1e45e6bdc" x="601.78125" y="275.6775" style="stroke: #000000; stroke-width: 0.8"/>
      </g>
     </g>
     <g id="text_4">
      <!-- 44.0 -->
      <g transform="translate(590.648438 290.275937) scale(0.1 -0.1)">
       <use xlink:href="#DejaVuSans-34"/>
       <use xlink:href="#DejaVuSans-34" transform="translate(63.623047 0)"/>
       <use xlink:href="#DejaVuSans-2e" transform="translate(127.246094 0)"/>
       <use xlink:href="#DejaVuSans-30" transform="translate(159.033203 0)"/>
      </g>
     </g>
    </g>
    <g id="text_5">
     <!-- Time [min] -->
     <g transform="translate(295.628906 303.954062) scale(0.1 -0.1)">
      <defs>
       <path id="DejaVuSans-54" d="M -19 4666 
L 3928 4666 
L 3928 4134 
L 2272 4134 
L 2272 0 
L 1638 0 
L 1638 4134 
L -19 4134 
L -19 4666 
z
" transform="scale(0.015625)"/>
       <path id="DejaVuSans-69" d="M 603 3500 
L 1178 3500 
L 1178 0 
L 603 0 
L 603 3500 
z
M 603 4863 
L 1178 4863 
L 1178 4134 
L 603 4134 
L 603 4863 
z
" transform="scale(0.015625)"/>
       <path id="DejaVuSans-6d" d="M 3328 2828 
Q 3544 3216 3844 3400 
Q 4144 3584 4550 3584 
Q 5097 3584 5394 3201 
Q 5691 2819 5691 2113 
L 5691 0 
L 5113 0 
L 5113 2094 
Q 5113 2597 4934 2840 
Q 4756 3084 4391 3084 
Q 3944 3084 3684 2787 
Q 3425 2491 3425 1978 
L 3425 0 
L 2847 0 
L 2847 2094 
Q 2847 2600 2669 2842 
Q 2491 3084 2119 3084 
Q 1678 3084 1418 2786 
Q 1159 2488 1159 1978 
L 1159 0 
L 581 0 
L 581 3500 
L 1159 3500 
L 1159 2956 
Q 1356 3278 1631 3431 
Q 1906 3584 2284 3584 
Q 2666 3584 2933 3390 
Q 3200 3197 3328 2828 
z
" transform="scale(0.015625)"/>
       <path id="DejaVuSans-65" d="M 3597 1894 
L 3597 1613 
L 953 1613 
Q 991 1019 1311 708 
Q 1631 397 2203 397 
Q 2534 397 2845 478 
Q 3156 559 3463 722 
L 3463 178 
Q 3153 47 2828 -22 
Q 2503 -91 2169 -91 
Q 1331 -91 842 396 
Q 353 884 353 1716 
Q 353 2575 817 3079 
Q 1281 3584 2069 3584 
Q 2775 3584 3186 3129 
Q 3597 2675 3597 1894 
z
M 3022 2063 
Q 3016 2534 2758 2815 
Q 2500 3097 2075 3097 
Q 1594 3097 1305 2825 
Q 1016 2553 972 2059 
L 3022 2063 
z
" transform="scale(0.015625)"/>
       <path id="DejaVuSans-20" transform="scale(0.015625)"/>
       <path id="DejaVuSans-5b" d="M 550 4863 
L 1875 4863 
L 1875 4416 
L 1125 4416 
L 1125 -397 
L 1875 -397 
L 1875 -844 
L 550 -844 
L 550 4863 
z
" transform="scale(0.015625)"/>
       <path id="DejaVuSans-6e" d="M 3513 2113 
L 3513 0 
L 2938 0 
L 2938 2094 
Q 2938 2591 2744 2837 
Q 2550 3084 2163 3084 
Q 1697 3084 1428 2787 
Q 1159 2491 1159 1978 
L 1159 0 
L 581 0 
L 581 3500 
L 1159 3500 
L 1159 2956 
Q 1366 3272 1645 3428 
Q 1925 3584 2291 3584 
Q 2894 3584 3203 3211 
Q 3513 2838 3513 2113 
z
" transform="scale(0.015625)"/>
       <path id="DejaVuSans-5d" d="M 1947 4863 
L 1947 -844 
L 622 -844 
L 622 -397 
L 1369 -397 
L 1369 4416 
L 622 4416 
L 622 4863 
L 1947 4863 
z
" transform="scale(0.015625)"/>
      </defs>
      <use xlink:href="#DejaVuSans-54"/>
      <use xlink:href="#DejaVuSans-69" transform="translate(57.958984 0)"/>
      <use xlink:href="#DejaVuSans-6d" transform="translate(85.742188 0)"/>
      <use xlink:href="#DejaVuSans-65" transform="translate(183.154297 0)"/>
      <use xlink:href="#DejaVuSans-20" transform="translate(244.677734 0)"/>
      <use xlink:href="#DejaVuSans-5b" transform="translate(276.464844 0)"/>
      <use xlink:href="#DejaVuSans-6d" transform="translate(315.478516 0)"/>
      <use xlink:href="#DejaVuSans-69" transform="translate(412.890625 0)"/>
      <use xlink:href="#DejaVuSans-6e" transform="translate(440.673828 0)"/>
      <use xlink:href="#DejaVuSans-5d" transform="translate(504.052734 0)"/>
     </g>
    </g>
   </g>
   <g id="matplotlib.axis_2">
    <g id="ytick_1">
     <g id="line2d_5">
      <defs>
       <path id="m32cffe1798" d="M 0 0 
L -3.5 0 
" style="stroke: #c83e4d; stroke-width: 0.8"/>
      </defs>
      <g>
       <use xlink:href="#m32cffe1798" x="43.78125" y="275.6775" style="fill: #c83e4d; stroke: #c83e4d; stroke-width: 0.8"/>
      </g>
     </g>
     <g id="text_6">
      <!-- 0.0 -->
      <g style="fill: #c83e4d" transform="translate(20.878125 279.476719) scale(0.1 -0.1)">
       <use xlink:href="#DejaVuSans-30"/>
       <use xlink:href="#DejaVuSans-2e" transform="translate(63.623047 0)"/>
       <use xlink:href="#DejaVuSans-30" transform="translate(95.410156 0)"/>
      </g>
     </g>
    </g>
    <g id="ytick_2">
     <g id="line2d_6">
      <g>
       <use xlink:href="#m32cffe1798" x="43.78125" y="235.3575" style="fill: #c83e4d; stroke: #c83e4d; stroke-width: 0.8"/>
      </g>
     </g>
     <g id="text_7">
      <!-- 0.2 -->
      <g style="fill: #c83e4d" transform="translate(20.878125 239.156719) scale(0.1 -0.1)">
       <use xlink:href="#DejaVuSans-30"/>
       <use xlink:href="#DejaVuSans-2e" transform="translate(63.623047 0)"/>
       <use xlink:href="#DejaVuSans-32" transform="translate(95.410156 0)"/>
      </g>
     </g>
    </g>
    <g id="ytick_3">
     <g id="line2d_7">
      <g>
       <use xlink:href="#m32cffe1798" x="43.78125" y="195.0375" style="fill: #c83e4d; stroke: #c83e4d; stroke-width: 0.8"/>
      </g>
     </g>
     <g id="text_8">
      <!-- 0.4 -->
      <g style="fill: #c83e4d" transform="translate(20.878125 198.836719) scale(0.1 -0.1)">
       <use xlink:href="#DejaVuSans-30"/>
       <use xlink:href="#DejaVuSans-2e" transform="translate(63.623047 0)"/>
       <use xlink:href="#DejaVuSans-34" transform="translate(95.410156 0)"/>
      </g>
     </g>
    </g>
    <g id="ytick_4">
     <g id="line2d_8">
      <g>
       <use xlink:href="#m32cffe1798" x="43.78125" y="154.7175" style="fill: #c83e4d; stroke: #c83e4d; stroke-width: 0.8"/>
      </g>
     </g>
     <g id="text_9">
      <!-- 0.6 -->
      <g style="fill: #c83e4d" transform="translate(20.878125 158.516719) scale(0.1 -0.1)">
       <defs>
        <path id="DejaVuSans-36" d="M 2113 2584 
Q 1688 2584 1439 2293 
Q 1191 2003 1191 1497 
Q 1191 994 1439 701 
Q 1688 409 2113 409 
Q 2538 409 2786 701 
Q 3034 994 3034 1497 
Q 3034 2003 2786 2293 
Q 2538 2584 2113 2584 
z
M 3366 4563 
L 3366 3988 
Q 3128 4100 2886 4159 
Q 2644 4219 2406 4219 
Q 1781 4219 1451 3797 
Q 1122 3375 1075 2522 
Q 1259 2794 1537 2939 
Q 1816 3084 2150 3084 
Q 2853 3084 3261 2657 
Q 3669 2231 3669 1497 
Q 3669 778 3244 343 
Q 2819 -91 2113 -91 
Q 1303 -91 875 529 
Q 447 1150 447 2328 
Q 447 3434 972 4092 
Q 1497 4750 2381 4750 
Q 2619 4750 2861 4703 
Q 3103 4656 3366 4563 
z
" transform="scale(0.015625)"/>
       </defs>
       <use xlink:href="#DejaVuSans-30"/>
       <use xlink:href="#DejaVuSans-2e" transform="translate(63.623047 0)"/>
       <use xlink:href="#DejaVuSans-36" transform="translate(95.410156 0)"/>
      </g>
     </g>
    </g>
    <g id="ytick_5">
     <g id="line2d_9">
      <g>
       <use xlink:href="#m32cffe1798" x="43.78125" y="114.3975" style="fill: #c83e4d; stroke: #c83e4d; stroke-width: 0.8"/>
      </g>
     </g>
     <g id="text_10">
      <!-- 0.8 -->
      <g style="fill: #c83e4d" transform="translate(20.878125 118.196719) scale(0.1 -0.1)">
       <defs>
        <path id="DejaVuSans-38" d="M 2034 2216 
Q 1584 2216 1326 1975 
Q 1069 1734 1069 1313 
Q 1069 891 1326 650 
Q 1584 409 2034 409 
Q 2484 409 2743 651 
Q 3003 894 3003 1313 
Q 3003 1734 2745 1975 
Q 2488 2216 2034 2216 
z
M 1403 2484 
Q 997 2584 770 2862 
Q 544 3141 544 3541 
Q 544 4100 942 4425 
Q 1341 4750 2034 4750 
Q 2731 4750 3128 4425 
Q 3525 4100 3525 3541 
Q 3525 3141 3298 2862 
Q 3072 2584 2669 2484 
Q 3125 2378 3379 2068 
Q 3634 1759 3634 1313 
Q 3634 634 3220 271 
Q 2806 -91 2034 -91 
Q 1263 -91 848 271 
Q 434 634 434 1313 
Q 434 1759 690 2068 
Q 947 2378 1403 2484 
z
M 1172 3481 
Q 1172 3119 1398 2916 
Q 1625 2713 2034 2713 
Q 2441 2713 2670 2916 
Q 2900 3119 2900 3481 
Q 2900 3844 2670 4047 
Q 2441 4250 2034 4250 
Q 1625 4250 1398 4047 
Q 1172 3844 1172 3481 
z
" transform="scale(0.015625)"/>
       </defs>
       <use xlink:href="#DejaVuSans-30"/>
       <use xlink:href="#DejaVuSans-2e" transform="translate(63.623047 0)"/>
       <use xlink:href="#DejaVuSans-38" transform="translate(95.410156 0)"/>
      </g>
     </g>
    </g>
    <g id="ytick_6">
     <g id="line2d_10">
      <g>
       <use xlink:href="#m32cffe1798" x="43.78125" y="74.0775" style="fill: #c83e4d; stroke: #c83e4d; stroke-width: 0.8"/>
      </g>
     </g>
     <g id="text_11">
      <!-- 1.0 -->
      <g style="fill: #c83e4d" transform="translate(20.878125 77.876719) scale(0.1 -0.1)">
       <defs>
        <path id="DejaVuSans-31" d="M 794 531 
L 1825 531 
L 1825 4091 
L 703 3866 
L 703 4441 
L 1819 4666 
L 2450 4666 
L 2450 531 
L 3481 531 
L 3481 0 
L 794 0 
L 794 531 
z
" transform="scale(0.015625)"/>
       </defs>
       <use xlink:href="#DejaVuSans-31"/>
       <use xlink:href="#DejaVuSans-2e" transform="translate(63.623047 0)"/>
       <use xlink:href="#DejaVuSans-30" transform="translate(95.410156 0)"/>
      </g>
     </g>
    </g>
    <g id="text_12">
     <!-- Relative Fluorescence (a.u.) -->
     <g style="fill: #c83e4d" transform="translate(14.798438 243.892812) rotate(-90) scale(0.1 -0.1)">
      <defs>
       <path id="DejaVuSans-Bold-52" d="M 2297 2597 
Q 2675 2597 2839 2737 
Q 3003 2878 3003 3200 
Q 3003 3519 2839 3656 
Q 2675 3794 2297 3794 
L 1791 3794 
L 1791 2597 
L 2297 2597 
z
M 1791 1766 
L 1791 0 
L 588 0 
L 588 4666 
L 2425 4666 
Q 3347 4666 3776 4356 
Q 4206 4047 4206 3378 
Q 4206 2916 3982 2619 
Q 3759 2322 3309 2181 
Q 3556 2125 3751 1926 
Q 3947 1728 4147 1325 
L 4800 0 
L 3519 0 
L 2950 1159 
Q 2778 1509 2601 1637 
Q 2425 1766 2131 1766 
L 1791 1766 
z
" transform="scale(0.015625)"/>
       <path id="DejaVuSans-Bold-65" d="M 4031 1759 
L 4031 1441 
L 1416 1441 
Q 1456 1047 1700 850 
Q 1944 653 2381 653 
Q 2734 653 3104 758 
Q 3475 863 3866 1075 
L 3866 213 
Q 3469 63 3072 -14 
Q 2675 -91 2278 -91 
Q 1328 -91 801 392 
Q 275 875 275 1747 
Q 275 2603 792 3093 
Q 1309 3584 2216 3584 
Q 3041 3584 3536 3087 
Q 4031 2591 4031 1759 
z
M 2881 2131 
Q 2881 2450 2695 2645 
Q 2509 2841 2209 2841 
Q 1884 2841 1681 2658 
Q 1478 2475 1428 2131 
L 2881 2131 
z
" transform="scale(0.015625)"/>
       <path id="DejaVuSans-Bold-6c" d="M 538 4863 
L 1656 4863 
L 1656 0 
L 538 0 
L 538 4863 
z
" transform="scale(0.015625)"/>
       <path id="DejaVuSans-Bold-61" d="M 2106 1575 
Q 1756 1575 1579 1456 
Q 1403 1338 1403 1106 
Q 1403 894 1545 773 
Q 1688 653 1941 653 
Q 2256 653 2472 879 
Q 2688 1106 2688 1447 
L 2688 1575 
L 2106 1575 
z
M 3816 1997 
L 3816 0 
L 2688 0 
L 2688 519 
Q 2463 200 2181 54 
Q 1900 -91 1497 -91 
Q 953 -91 614 226 
Q 275 544 275 1050 
Q 275 1666 698 1953 
Q 1122 2241 2028 2241 
L 2688 2241 
L 2688 2328 
Q 2688 2594 2478 2717 
Q 2269 2841 1825 2841 
Q 1466 2841 1156 2769 
Q 847 2697 581 2553 
L 581 3406 
Q 941 3494 1303 3539 
Q 1666 3584 2028 3584 
Q 2975 3584 3395 3211 
Q 3816 2838 3816 1997 
z
" transform="scale(0.015625)"/>
       <path id="DejaVuSans-Bold-74" d="M 1759 4494 
L 1759 3500 
L 2913 3500 
L 2913 2700 
L 1759 2700 
L 1759 1216 
Q 1759 972 1856 886 
Q 1953 800 2241 800 
L 2816 800 
L 2816 0 
L 1856 0 
Q 1194 0 917 276 
Q 641 553 641 1216 
L 641 2700 
L 84 2700 
L 84 3500 
L 641 3500 
L 641 4494 
L 1759 4494 
z
" transform="scale(0.015625)"/>
       <path id="DejaVuSans-Bold-69" d="M 538 3500 
L 1656 3500 
L 1656 0 
L 538 0 
L 538 3500 
z
M 538 4863 
L 1656 4863 
L 1656 3950 
L 538 3950 
L 538 4863 
z
" transform="scale(0.015625)"/>
       <path id="DejaVuSans-Bold-76" d="M 97 3500 
L 1216 3500 
L 2088 1081 
L 2956 3500 
L 4078 3500 
L 2700 0 
L 1472 0 
L 97 3500 
z
" transform="scale(0.015625)"/>
       <path id="DejaVuSans-Bold-20" transform="scale(0.015625)"/>
       <path id="DejaVuSans-Bold-46" d="M 588 4666 
L 3834 4666 
L 3834 3756 
L 1791 3756 
L 1791 2888 
L 3713 2888 
L 3713 1978 
L 1791 1978 
L 1791 0 
L 588 0 
L 588 4666 
z
" transform="scale(0.015625)"/>
       <path id="DejaVuSans-Bold-75" d="M 500 1363 
L 500 3500 
L 1625 3500 
L 1625 3150 
Q 1625 2866 1622 2436 
Q 1619 2006 1619 1863 
Q 1619 1441 1641 1255 
Q 1663 1069 1716 984 
Q 1784 875 1895 815 
Q 2006 756 2150 756 
Q 2500 756 2700 1025 
Q 2900 1294 2900 1772 
L 2900 3500 
L 4019 3500 
L 4019 0 
L 2900 0 
L 2900 506 
Q 2647 200 2364 54 
Q 2081 -91 1741 -91 
Q 1134 -91 817 281 
Q 500 653 500 1363 
z
" transform="scale(0.015625)"/>
       <path id="DejaVuSans-Bold-6f" d="M 2203 2784 
Q 1831 2784 1636 2517 
Q 1441 2250 1441 1747 
Q 1441 1244 1636 976 
Q 1831 709 2203 709 
Q 2569 709 2762 976 
Q 2956 1244 2956 1747 
Q 2956 2250 2762 2517 
Q 2569 2784 2203 2784 
z
M 2203 3584 
Q 3106 3584 3614 3096 
Q 4122 2609 4122 1747 
Q 4122 884 3614 396 
Q 3106 -91 2203 -91 
Q 1297 -91 786 396 
Q 275 884 275 1747 
Q 275 2609 786 3096 
Q 1297 3584 2203 3584 
z
" transform="scale(0.015625)"/>
       <path id="DejaVuSans-Bold-72" d="M 3138 2547 
Q 2991 2616 2845 2648 
Q 2700 2681 2553 2681 
Q 2122 2681 1889 2404 
Q 1656 2128 1656 1613 
L 1656 0 
L 538 0 
L 538 3500 
L 1656 3500 
L 1656 2925 
Q 1872 3269 2151 3426 
Q 2431 3584 2822 3584 
Q 2878 3584 2943 3579 
Q 3009 3575 3134 3559 
L 3138 2547 
z
" transform="scale(0.015625)"/>
       <path id="DejaVuSans-Bold-73" d="M 3272 3391 
L 3272 2541 
Q 2913 2691 2578 2766 
Q 2244 2841 1947 2841 
Q 1628 2841 1473 2761 
Q 1319 2681 1319 2516 
Q 1319 2381 1436 2309 
Q 1553 2238 1856 2203 
L 2053 2175 
Q 2913 2066 3209 1816 
Q 3506 1566 3506 1031 
Q 3506 472 3093 190 
Q 2681 -91 1863 -91 
Q 1516 -91 1145 -36 
Q 775 19 384 128 
L 384 978 
Q 719 816 1070 734 
Q 1422 653 1784 653 
Q 2113 653 2278 743 
Q 2444 834 2444 1013 
Q 2444 1163 2330 1236 
Q 2216 1309 1875 1350 
L 1678 1375 
Q 931 1469 631 1722 
Q 331 1975 331 2491 
Q 331 3047 712 3315 
Q 1094 3584 1881 3584 
Q 2191 3584 2531 3537 
Q 2872 3491 3272 3391 
z
" transform="scale(0.015625)"/>
       <path id="DejaVuSans-Bold-63" d="M 3366 3391 
L 3366 2478 
Q 3138 2634 2908 2709 
Q 2678 2784 2431 2784 
Q 1963 2784 1702 2511 
Q 1441 2238 1441 1747 
Q 1441 1256 1702 982 
Q 1963 709 2431 709 
Q 2694 709 2930 787 
Q 3166 866 3366 1019 
L 3366 103 
Q 3103 6 2833 -42 
Q 2563 -91 2291 -91 
Q 1344 -91 809 395 
Q 275 881 275 1747 
Q 275 2613 809 3098 
Q 1344 3584 2291 3584 
Q 2566 3584 2833 3536 
Q 3100 3488 3366 3391 
z
" transform="scale(0.015625)"/>
       <path id="DejaVuSans-Bold-6e" d="M 4056 2131 
L 4056 0 
L 2931 0 
L 2931 347 
L 2931 1631 
Q 2931 2084 2911 2256 
Q 2891 2428 2841 2509 
Q 2775 2619 2662 2680 
Q 2550 2741 2406 2741 
Q 2056 2741 1856 2470 
Q 1656 2200 1656 1722 
L 1656 0 
L 538 0 
L 538 3500 
L 1656 3500 
L 1656 2988 
Q 1909 3294 2193 3439 
Q 2478 3584 2822 3584 
Q 3428 3584 3742 3212 
Q 4056 2841 4056 2131 
z
" transform="scale(0.015625)"/>
       <path id="DejaVuSans-Bold-28" d="M 2413 -844 
L 1484 -844 
Q 1006 -72 778 623 
Q 550 1319 550 2003 
Q 550 2688 779 3389 
Q 1009 4091 1484 4856 
L 2413 4856 
Q 2013 4116 1813 3408 
Q 1613 2700 1613 2009 
Q 1613 1319 1811 609 
Q 2009 -100 2413 -844 
z
" transform="scale(0.015625)"/>
       <path id="DejaVuSans-Bold-2e" d="M 653 1209 
L 1778 1209 
L 1778 0 
L 653 0 
L 653 1209 
z
" transform="scale(0.015625)"/>
       <path id="DejaVuSans-Bold-29" d="M 513 -844 
Q 913 -100 1113 609 
Q 1313 1319 1313 2009 
Q 1313 2700 1113 3408 
Q 913 4116 513 4856 
L 1441 4856 
Q 1916 4091 2145 3389 
Q 2375 2688 2375 2003 
Q 2375 1319 2147 623 
Q 1919 -72 1441 -844 
L 513 -844 
z
" transform="scale(0.015625)"/>
      </defs>
      <use xlink:href="#DejaVuSans-Bold-52"/>
      <use xlink:href="#DejaVuSans-Bold-65" transform="translate(77.001953 0)"/>
      <use xlink:href="#DejaVuSans-Bold-6c" transform="translate(144.824219 0)"/>
      <use xlink:href="#DejaVuSans-Bold-61" transform="translate(179.101562 0)"/>
      <use xlink:href="#DejaVuSans-Bold-74" transform="translate(246.582031 0)"/>
      <use xlink:href="#DejaVuSans-Bold-69" transform="translate(294.384766 0)"/>
      <use xlink:href="#DejaVuSans-Bold-76" transform="translate(328.662109 0)"/>
      <use xlink:href="#DejaVuSans-Bold-65" transform="translate(393.847656 0)"/>
      <use xlink:href="#DejaVuSans-Bold-20" transform="translate(461.669922 0)"/>
      <use xlink:href="#DejaVuSans-Bold-46" transform="translate(496.484375 0)"/>
      <use xlink:href="#DejaVuSans-Bold-6c" transform="translate(564.794922 0)"/>
      <use xlink:href="#DejaVuSans-Bold-75" transform="translate(599.072266 0)"/>
      <use xlink:href="#DejaVuSans-Bold-6f" transform="translate(670.263672 0)"/>
      <use xlink:href="#DejaVuSans-Bold-72" transform="translate(738.964844 0)"/>
      <use xlink:href="#DejaVuSans-Bold-65" transform="translate(788.28125 0)"/>
      <use xlink:href="#DejaVuSans-Bold-73" transform="translate(856.103516 0)"/>
      <use xlink:href="#DejaVuSans-Bold-63" transform="translate(915.625 0)"/>
      <use xlink:href="#DejaVuSans-Bold-65" transform="translate(974.902344 0)"/>
      <use xlink:href="#DejaVuSans-Bold-6e" transform="translate(1042.724609 0)"/>
      <use xlink:href="#DejaVuSans-Bold-63" transform="translate(1113.916016 0)"/>
      <use xlink:href="#DejaVuSans-Bold-65" transform="translate(1173.193359 0)"/>
      <use xlink:href="#DejaVuSans-Bold-20" transform="translate(1241.015625 0)"/>
      <use xlink:href="#DejaVuSans-Bold-28" transform="translate(1275.830078 0)"/>
      <use xlink:href="#DejaVuSans-Bold-61" transform="translate(1321.533203 0)"/>
      <use xlink:href="#DejaVuSans-Bold-2e" transform="translate(1389.013672 0)"/>
      <use xlink:href="#DejaVuSans-Bold-75" transform="translate(1427.001953 0)"/>
      <use xlink:href="#DejaVuSans-Bold-2e" transform="translate(1498.193359 0)"/>
      <use xlink:href="#DejaVuSans-Bold-29" transform="translate(1536.181641 0)"/>
     </g>
    </g>
   </g>
   <g id="patch_9">
    <path d="M 43.78125 275.6775 
L 43.78125 53.9175 
" style="fill: none; stroke: #c83e4d; stroke-width: 0.8; stroke-linejoin: miter; stroke-linecap: square"/>
   </g>
   <g id="patch_10">
    <path d="M 43.78125 275.6775 
L 601.78125 275.6775 
" style="fill: none; stroke: #000000; stroke-width: 0.8; stroke-linejoin: miter; stroke-linecap: square"/>
   </g>
   <g id="text_13">
    <!-- 1000 $\mathbf{\mathrm{\mu mol\ m^{-2}\ s^{-1}}}$ -->
    <g transform="translate(171.726705 47.3375) scale(0.1 -0.1)">
     <defs>
      <path id="DejaVuSans-Bold-31" d="M 750 831 
L 1813 831 
L 1813 3847 
L 722 3622 
L 722 4441 
L 1806 4666 
L 2950 4666 
L 2950 831 
L 4013 831 
L 4013 0 
L 750 0 
L 750 831 
z
" transform="scale(0.015625)"/>
      <path id="DejaVuSans-Bold-30" d="M 2944 2338 
Q 2944 3213 2780 3570 
Q 2616 3928 2228 3928 
Q 1841 3928 1675 3570 
Q 1509 3213 1509 2338 
Q 1509 1453 1675 1090 
Q 1841 728 2228 728 
Q 2613 728 2778 1090 
Q 2944 1453 2944 2338 
z
M 4147 2328 
Q 4147 1169 3647 539 
Q 3147 -91 2228 -91 
Q 1306 -91 806 539 
Q 306 1169 306 2328 
Q 306 3491 806 4120 
Q 1306 4750 2228 4750 
Q 3147 4750 3647 4120 
Q 4147 3491 4147 2328 
z
" transform="scale(0.015625)"/>
      <path id="DejaVuSans-3bc" d="M 544 -1331 
L 544 3500 
L 1119 3500 
L 1119 1325 
Q 1119 872 1334 640 
Q 1550 409 1972 409 
Q 2434 409 2667 671 
Q 2900 934 2900 1459 
L 2900 3500 
L 3475 3500 
L 3475 806 
Q 3475 619 3529 530 
Q 3584 441 3700 441 
Q 3728 441 3778 458 
Q 3828 475 3916 513 
L 3916 50 
Q 3788 -22 3673 -56 
Q 3559 -91 3450 -91 
Q 3234 -91 3106 31 
Q 2978 153 2931 403 
Q 2775 156 2548 32 
Q 2322 -91 2016 -91 
Q 1697 -91 1473 31 
Q 1250 153 1119 397 
L 1119 -1331 
L 544 -1331 
z
" transform="scale(0.015625)"/>
      <path id="DejaVuSans-6f" d="M 1959 3097 
Q 1497 3097 1228 2736 
Q 959 2375 959 1747 
Q 959 1119 1226 758 
Q 1494 397 1959 397 
Q 2419 397 2687 759 
Q 2956 1122 2956 1747 
Q 2956 2369 2687 2733 
Q 2419 3097 1959 3097 
z
M 1959 3584 
Q 2709 3584 3137 3096 
Q 3566 2609 3566 1747 
Q 3566 888 3137 398 
Q 2709 -91 1959 -91 
Q 1206 -91 779 398 
Q 353 888 353 1747 
Q 353 2609 779 3096 
Q 1206 3584 1959 3584 
z
" transform="scale(0.015625)"/>
      <path id="DejaVuSans-6c" d="M 603 4863 
L 1178 4863 
L 1178 0 
L 603 0 
L 603 4863 
z
" transform="scale(0.015625)"/>
      <path id="DejaVuSans-2212" d="M 678 2272 
L 4684 2272 
L 4684 1741 
L 678 1741 
L 678 2272 
z
" transform="scale(0.015625)"/>
      <path id="DejaVuSans-73" d="M 2834 3397 
L 2834 2853 
Q 2591 2978 2328 3040 
Q 2066 3103 1784 3103 
Q 1356 3103 1142 2972 
Q 928 2841 928 2578 
Q 928 2378 1081 2264 
Q 1234 2150 1697 2047 
L 1894 2003 
Q 2506 1872 2764 1633 
Q 3022 1394 3022 966 
Q 3022 478 2636 193 
Q 2250 -91 1575 -91 
Q 1294 -91 989 -36 
Q 684 19 347 128 
L 347 722 
Q 666 556 975 473 
Q 1284 391 1588 391 
Q 1994 391 2212 530 
Q 2431 669 2431 922 
Q 2431 1156 2273 1281 
Q 2116 1406 1581 1522 
L 1381 1569 
Q 847 1681 609 1914 
Q 372 2147 372 2553 
Q 372 3047 722 3315 
Q 1072 3584 1716 3584 
Q 2034 3584 2315 3537 
Q 2597 3491 2834 3397 
z
" transform="scale(0.015625)"/>
     </defs>
     <use xlink:href="#DejaVuSans-Bold-31" transform="translate(0 0.765625)"/>
     <use xlink:href="#DejaVuSans-Bold-30" transform="translate(69.580078 0.765625)"/>
     <use xlink:href="#DejaVuSans-Bold-30" transform="translate(139.160156 0.765625)"/>
     <use xlink:href="#DejaVuSans-Bold-30" transform="translate(208.740234 0.765625)"/>
     <use xlink:href="#DejaVuSans-Bold-20" transform="translate(278.320312 0.765625)"/>
     <use xlink:href="#DejaVuSans-3bc" transform="translate(313.134766 0.765625)"/>
     <use xlink:href="#DejaVuSans-6d" transform="translate(376.757812 0.765625)"/>
     <use xlink:href="#DejaVuSans-6f" transform="translate(474.169922 0.765625)"/>
     <use xlink:href="#DejaVuSans-6c" transform="translate(535.351562 0.765625)"/>
     <use xlink:href="#DejaVuSans-6d" transform="translate(595.605144 0.765625)"/>
     <use xlink:href="#DejaVuSans-2212" transform="translate(693.974285 39.046875) scale(0.7)"/>
     <use xlink:href="#DejaVuSans-32" transform="translate(752.626628 39.046875) scale(0.7)"/>
     <use xlink:href="#DejaVuSans-73" transform="translate(832.367515 0.765625)"/>
     <use xlink:href="#DejaVuSans-2212" transform="translate(885.424155 39.046875) scale(0.7)"/>
     <use xlink:href="#DejaVuSans-31" transform="translate(944.076499 39.046875) scale(0.7)"/>
    </g>
   </g>
   <g id="text_14">
    <!-- 40 $\mathbf{\mathrm{\mu mol\ m^{-2}\ s^{-1}}}$ -->
    <g style="fill: #ffffff" transform="translate(432.313068 47.3375) scale(0.1 -0.1)">
     <defs>
      <path id="DejaVuSans-Bold-34" d="M 2356 3675 
L 1038 1722 
L 2356 1722 
L 2356 3675 
z
M 2156 4666 
L 3494 4666 
L 3494 1722 
L 4159 1722 
L 4159 850 
L 3494 850 
L 3494 0 
L 2356 0 
L 2356 850 
L 288 850 
L 288 1881 
L 2156 4666 
z
" transform="scale(0.015625)"/>
     </defs>
     <use xlink:href="#DejaVuSans-Bold-34" transform="translate(0 0.765625)"/>
     <use xlink:href="#DejaVuSans-Bold-30" transform="translate(69.580078 0.765625)"/>
     <use xlink:href="#DejaVuSans-Bold-20" transform="translate(139.160156 0.765625)"/>
     <use xlink:href="#DejaVuSans-3bc" transform="translate(173.974609 0.765625)"/>
     <use xlink:href="#DejaVuSans-6d" transform="translate(237.597656 0.765625)"/>
     <use xlink:href="#DejaVuSans-6f" transform="translate(335.009766 0.765625)"/>
     <use xlink:href="#DejaVuSans-6c" transform="translate(396.191406 0.765625)"/>
     <use xlink:href="#DejaVuSans-6d" transform="translate(456.444988 0.765625)"/>
     <use xlink:href="#DejaVuSans-2212" transform="translate(554.814128 39.046875) scale(0.7)"/>
     <use xlink:href="#DejaVuSans-32" transform="translate(613.466472 39.046875) scale(0.7)"/>
     <use xlink:href="#DejaVuSans-73" transform="translate(693.207358 0.765625)"/>
     <use xlink:href="#DejaVuSans-2212" transform="translate(746.263999 39.046875) scale(0.7)"/>
     <use xlink:href="#DejaVuSans-31" transform="translate(804.916343 39.046875) scale(0.7)"/>
    </g>
   </g>
   <g id="line2d_11">
    <path d="M 43.78125 202.468651 
L 68.975795 202.468852 
L 68.980868 74.0775 
L 69.087395 76.873866 
L 69.144886 78.350085 
L 69.396832 203.207603 
L 69.648777 203.451161 
L 88.292741 203.14909 
L 94.339432 203.071767 
L 94.344505 76.705959 
L 94.451032 79.425249 
L 94.508523 80.861 
L 94.760468 133.71113 
L 95.76825 150.137034 
L 96.776032 162.241011 
L 97.783814 171.154152 
L 98.791595 177.72135 
L 99.799377 182.569311 
L 100.807159 186.159212 
L 101.814941 188.827989 
L 102.822723 190.820622 
L 103.830505 192.314965 
L 104.838286 193.440308 
L 106.098014 194.469346 
L 107.357741 195.198431 
L 108.869414 195.801596 
L 110.633032 196.25734 
L 112.900541 196.603565 
L 116.175832 196.849604 
L 119.703068 196.959539 
L 119.713214 171.28999 
L 119.816359 171.300547 
L 119.872159 171.306249 
L 120.124105 196.974297 
L 131.209705 197.029831 
L 145.066705 197.033088 
L 145.078541 171.410466 
L 145.179995 171.417931 
L 145.235795 171.421969 
L 145.487741 197.040279 
L 170.430341 197.033193 
L 170.442177 171.410638 
L 170.543632 171.418099 
L 170.599432 171.422134 
L 170.851377 197.040373 
L 195.793977 197.033193 
L 195.805814 171.410638 
L 195.907268 171.418099 
L 195.963068 171.422135 
L 196.215014 197.040373 
L 221.157614 197.033193 
L 221.16945 171.410638 
L 221.270905 171.418099 
L 221.326705 171.422135 
L 221.57865 197.040373 
L 246.52125 197.033193 
L 246.533086 171.410638 
L 246.634541 171.418099 
L 246.690341 171.422135 
L 246.942286 197.040373 
L 271.884886 197.033193 
L 271.896723 171.410638 
L 271.998177 171.418099 
L 272.053977 171.422135 
L 272.305923 197.040373 
L 297.248523 197.033193 
L 297.260359 171.410638 
L 297.361814 171.418099 
L 297.417614 171.422135 
L 297.669559 197.040373 
L 322.612159 197.033193 
L 322.623995 171.410638 
L 322.72545 171.418099 
L 322.78125 171.422135 
L 323.033195 197.040373 
L 347.975795 197.033193 
L 347.987632 171.410638 
L 348.089086 171.418099 
L 348.144886 171.422135 
L 348.396832 213.992799 
L 353.435741 213.609185 
L 366.284959 212.454785 
L 373.339432 211.752981 
L 373.346195 134.962602 
L 373.452723 135.990173 
L 373.508523 136.51806 
L 373.760468 211.81621 
L 374.516305 211.78775 
L 398.703068 209.318027 
L 398.708141 112.296894 
L 398.814668 113.968039 
L 398.872159 114.857285 
L 399.124105 209.510458 
L 399.627995 209.577604 
L 417.768068 207.875977 
L 424.066705 207.349258 
L 424.071777 98.831522 
L 424.178305 100.900772 
L 424.235795 101.99635 
L 424.487741 207.673394 
L 424.739686 207.820131 
L 444.895323 206.2804 
L 449.430341 205.987021 
L 449.435414 90.970396 
L 449.541941 93.27091 
L 449.599432 94.487233 
L 449.851377 206.415581 
L 450.103323 206.595413 
L 472.778414 205.220868 
L 474.793977 205.120331 
L 474.79905 86.416706 
L 474.905577 88.851004 
L 474.963068 90.137333 
L 475.215014 205.620348 
L 475.466959 205.818774 
L 500.157614 204.593431 
L 500.162686 83.789568 
L 500.269214 86.301006 
L 500.326705 87.627744 
L 500.57865 205.138617 
L 500.830595 205.347398 
L 525.52125 204.281024 
L 525.526323 82.277229 
L 525.63285 84.83306 
L 525.690341 86.183065 
L 525.942286 204.853566 
L 526.194232 205.068152 
L 550.884886 204.098366 
L 550.889959 81.407702 
L 550.996486 83.989053 
L 551.053977 85.352438 
L 551.305923 204.687093 
L 551.557868 204.904959 
L 576.248523 203.992409 
L 576.253595 80.908107 
L 576.360123 83.504119 
L 576.417614 84.875191 
L 576.669559 204.590586 
L 576.921505 204.810318 
L 601.612159 203.931219 
L 601.617232 80.621167 
L 601.723759 83.225599 
L 601.78125 84.601087 
L 601.78125 84.601087 
" clip-path="url(#p3457b9e664)" style="fill: none; stroke: #c83e4d; stroke-width: 2; stroke-linecap: square"/>
   </g>
   <g id="line2d_12">
    <path d="M 68.980868 74.0775 
L 94.344505 76.705959 
L 119.713214 171.28999 
L 145.078541 171.410466 
L 170.442177 171.410638 
L 195.805814 171.410638 
L 221.16945 171.410638 
L 246.533086 171.410638 
L 271.896723 171.410638 
L 297.260359 171.410638 
L 322.623995 171.410638 
L 347.987632 171.410638 
L 373.346195 134.962602 
L 398.708141 112.296894 
L 424.071777 98.831522 
L 449.435414 90.970396 
L 474.79905 86.416706 
L 500.162686 83.789568 
L 525.526323 82.277229 
L 550.889959 81.407702 
L 576.253595 80.908107 
L 601.617232 80.621167 
" clip-path="url(#p3457b9e664)" style="fill: none"/>
    <defs>
     <path id="m7b9214de3f" d="M 0 -2 
L -2 2 
L 2 2 
z
" style="stroke: #c83e4d; stroke-linejoin: miter"/>
    </defs>
    <g clip-path="url(#p3457b9e664)">
     <use xlink:href="#m7b9214de3f" x="68.980868" y="74.0775" style="fill: #c83e4d; stroke: #c83e4d; stroke-linejoin: miter"/>
     <use xlink:href="#m7b9214de3f" x="94.344505" y="76.705959" style="fill: #c83e4d; stroke: #c83e4d; stroke-linejoin: miter"/>
     <use xlink:href="#m7b9214de3f" x="119.713214" y="171.28999" style="fill: #c83e4d; stroke: #c83e4d; stroke-linejoin: miter"/>
     <use xlink:href="#m7b9214de3f" x="145.078541" y="171.410466" style="fill: #c83e4d; stroke: #c83e4d; stroke-linejoin: miter"/>
     <use xlink:href="#m7b9214de3f" x="170.442177" y="171.410638" style="fill: #c83e4d; stroke: #c83e4d; stroke-linejoin: miter"/>
     <use xlink:href="#m7b9214de3f" x="195.805814" y="171.410638" style="fill: #c83e4d; stroke: #c83e4d; stroke-linejoin: miter"/>
     <use xlink:href="#m7b9214de3f" x="221.16945" y="171.410638" style="fill: #c83e4d; stroke: #c83e4d; stroke-linejoin: miter"/>
     <use xlink:href="#m7b9214de3f" x="246.533086" y="171.410638" style="fill: #c83e4d; stroke: #c83e4d; stroke-linejoin: miter"/>
     <use xlink:href="#m7b9214de3f" x="271.896723" y="171.410638" style="fill: #c83e4d; stroke: #c83e4d; stroke-linejoin: miter"/>
     <use xlink:href="#m7b9214de3f" x="297.260359" y="171.410638" style="fill: #c83e4d; stroke: #c83e4d; stroke-linejoin: miter"/>
     <use xlink:href="#m7b9214de3f" x="322.623995" y="171.410638" style="fill: #c83e4d; stroke: #c83e4d; stroke-linejoin: miter"/>
     <use xlink:href="#m7b9214de3f" x="347.987632" y="171.410638" style="fill: #c83e4d; stroke: #c83e4d; stroke-linejoin: miter"/>
     <use xlink:href="#m7b9214de3f" x="373.346195" y="134.962602" style="fill: #c83e4d; stroke: #c83e4d; stroke-linejoin: miter"/>
     <use xlink:href="#m7b9214de3f" x="398.708141" y="112.296894" style="fill: #c83e4d; stroke: #c83e4d; stroke-linejoin: miter"/>
     <use xlink:href="#m7b9214de3f" x="424.071777" y="98.831522" style="fill: #c83e4d; stroke: #c83e4d; stroke-linejoin: miter"/>
     <use xlink:href="#m7b9214de3f" x="449.435414" y="90.970396" style="fill: #c83e4d; stroke: #c83e4d; stroke-linejoin: miter"/>
     <use xlink:href="#m7b9214de3f" x="474.79905" y="86.416706" style="fill: #c83e4d; stroke: #c83e4d; stroke-linejoin: miter"/>
     <use xlink:href="#m7b9214de3f" x="500.162686" y="83.789568" style="fill: #c83e4d; stroke: #c83e4d; stroke-linejoin: miter"/>
     <use xlink:href="#m7b9214de3f" x="525.526323" y="82.277229" style="fill: #c83e4d; stroke: #c83e4d; stroke-linejoin: miter"/>
     <use xlink:href="#m7b9214de3f" x="550.889959" y="81.407702" style="fill: #c83e4d; stroke: #c83e4d; stroke-linejoin: miter"/>
     <use xlink:href="#m7b9214de3f" x="576.253595" y="80.908107" style="fill: #c83e4d; stroke: #c83e4d; stroke-linejoin: miter"/>
     <use xlink:href="#m7b9214de3f" x="601.617232" y="80.621167" style="fill: #c83e4d; stroke: #c83e4d; stroke-linejoin: miter"/>
    </g>
   </g>
  </g>
  <g id="axes_2">
   <g id="matplotlib.axis_3">
    <g id="ytick_7">
     <g id="line2d_13">
      <defs>
       <path id="m2f74bf80fa" d="M 0 0 
L 3.5 0 
" style="stroke: #2d936c; stroke-width: 0.8"/>
      </defs>
      <g>
       <use xlink:href="#m2f74bf80fa" x="601.78125" y="275.6775" style="fill: #2d936c; stroke: #2d936c; stroke-width: 0.8"/>
      </g>
     </g>
     <g id="text_15">
      <!-- 0.0 -->
      <g style="fill: #2d936c" transform="translate(608.78125 279.476719) scale(0.1 -0.1)">
       <use xlink:href="#DejaVuSans-30"/>
       <use xlink:href="#DejaVuSans-2e" transform="translate(63.623047 0)"/>
       <use xlink:href="#DejaVuSans-30" transform="translate(95.410156 0)"/>
      </g>
     </g>
    </g>
    <g id="ytick_8">
     <g id="line2d_14">
      <g>
       <use xlink:href="#m2f74bf80fa" x="601.78125" y="242.613644" style="fill: #2d936c; stroke: #2d936c; stroke-width: 0.8"/>
      </g>
     </g>
     <g id="text_16">
      <!-- 0.2 -->
      <g style="fill: #2d936c" transform="translate(608.78125 246.412863) scale(0.1 -0.1)">
       <use xlink:href="#DejaVuSans-30"/>
       <use xlink:href="#DejaVuSans-2e" transform="translate(63.623047 0)"/>
       <use xlink:href="#DejaVuSans-32" transform="translate(95.410156 0)"/>
      </g>
     </g>
    </g>
    <g id="ytick_9">
     <g id="line2d_15">
      <g>
       <use xlink:href="#m2f74bf80fa" x="601.78125" y="209.549789" style="fill: #2d936c; stroke: #2d936c; stroke-width: 0.8"/>
      </g>
     </g>
     <g id="text_17">
      <!-- 0.4 -->
      <g style="fill: #2d936c" transform="translate(608.78125 213.349007) scale(0.1 -0.1)">
       <use xlink:href="#DejaVuSans-30"/>
       <use xlink:href="#DejaVuSans-2e" transform="translate(63.623047 0)"/>
       <use xlink:href="#DejaVuSans-34" transform="translate(95.410156 0)"/>
      </g>
     </g>
    </g>
    <g id="ytick_10">
     <g id="line2d_16">
      <g>
       <use xlink:href="#m2f74bf80fa" x="601.78125" y="176.485933" style="fill: #2d936c; stroke: #2d936c; stroke-width: 0.8"/>
      </g>
     </g>
     <g id="text_18">
      <!-- 0.6 -->
      <g style="fill: #2d936c" transform="translate(608.78125 180.285152) scale(0.1 -0.1)">
       <use xlink:href="#DejaVuSans-30"/>
       <use xlink:href="#DejaVuSans-2e" transform="translate(63.623047 0)"/>
       <use xlink:href="#DejaVuSans-36" transform="translate(95.410156 0)"/>
      </g>
     </g>
    </g>
    <g id="ytick_11">
     <g id="line2d_17">
      <g>
       <use xlink:href="#m2f74bf80fa" x="601.78125" y="143.422077" style="fill: #2d936c; stroke: #2d936c; stroke-width: 0.8"/>
      </g>
     </g>
     <g id="text_19">
      <!-- 0.8 -->
      <g style="fill: #2d936c" transform="translate(608.78125 147.221296) scale(0.1 -0.1)">
       <use xlink:href="#DejaVuSans-30"/>
       <use xlink:href="#DejaVuSans-2e" transform="translate(63.623047 0)"/>
       <use xlink:href="#DejaVuSans-38" transform="translate(95.410156 0)"/>
      </g>
     </g>
    </g>
    <g id="ytick_12">
     <g id="line2d_18">
      <g>
       <use xlink:href="#m2f74bf80fa" x="601.78125" y="110.358222" style="fill: #2d936c; stroke: #2d936c; stroke-width: 0.8"/>
      </g>
     </g>
     <g id="text_20">
      <!-- 1.0 -->
      <g style="fill: #2d936c" transform="translate(608.78125 114.15744) scale(0.1 -0.1)">
       <use xlink:href="#DejaVuSans-31"/>
       <use xlink:href="#DejaVuSans-2e" transform="translate(63.623047 0)"/>
       <use xlink:href="#DejaVuSans-30" transform="translate(95.410156 0)"/>
      </g>
     </g>
    </g>
    <g id="ytick_13">
     <g id="line2d_19">
      <g>
       <use xlink:href="#m2f74bf80fa" x="601.78125" y="77.294366" style="fill: #2d936c; stroke: #2d936c; stroke-width: 0.8"/>
      </g>
     </g>
     <g id="text_21">
      <!-- 1.2 -->
      <g style="fill: #2d936c" transform="translate(608.78125 81.093585) scale(0.1 -0.1)">
       <use xlink:href="#DejaVuSans-31"/>
       <use xlink:href="#DejaVuSans-2e" transform="translate(63.623047 0)"/>
       <use xlink:href="#DejaVuSans-32" transform="translate(95.410156 0)"/>
      </g>
     </g>
    </g>
    <g id="text_22">
     <!-- NPQ -->
     <g style="fill: #2d936c" transform="translate(636.282813 176.8975) rotate(-90) scale(0.1 -0.1)">
      <defs>
       <path id="DejaVuSans-Bold-4e" d="M 588 4666 
L 1931 4666 
L 3628 1466 
L 3628 4666 
L 4769 4666 
L 4769 0 
L 3425 0 
L 1728 3200 
L 1728 0 
L 588 0 
L 588 4666 
z
" transform="scale(0.015625)"/>
       <path id="DejaVuSans-Bold-50" d="M 588 4666 
L 2584 4666 
Q 3475 4666 3951 4270 
Q 4428 3875 4428 3144 
Q 4428 2409 3951 2014 
Q 3475 1619 2584 1619 
L 1791 1619 
L 1791 0 
L 588 0 
L 588 4666 
z
M 1791 3794 
L 1791 2491 
L 2456 2491 
Q 2806 2491 2997 2661 
Q 3188 2831 3188 3144 
Q 3188 3456 2997 3625 
Q 2806 3794 2456 3794 
L 1791 3794 
z
" transform="scale(0.015625)"/>
       <path id="DejaVuSans-Bold-51" d="M 2847 -84 
L 2753 -84 
Q 1600 -84 959 553 
Q 319 1191 319 2328 
Q 319 3463 958 4106 
Q 1597 4750 2719 4750 
Q 3853 4750 4486 4112 
Q 5119 3475 5119 2328 
Q 5119 1541 4783 972 
Q 4447 403 3816 116 
L 4756 -934 
L 3609 -934 
L 2847 -84 
z
M 2719 3878 
Q 2169 3878 1866 3472 
Q 1563 3066 1563 2328 
Q 1563 1578 1859 1179 
Q 2156 781 2719 781 
Q 3272 781 3575 1187 
Q 3878 1594 3878 2328 
Q 3878 3066 3575 3472 
Q 3272 3878 2719 3878 
z
" transform="scale(0.015625)"/>
      </defs>
      <use xlink:href="#DejaVuSans-Bold-4e"/>
      <use xlink:href="#DejaVuSans-Bold-50" transform="translate(83.691406 0)"/>
      <use xlink:href="#DejaVuSans-Bold-51" transform="translate(156.982422 0)"/>
     </g>
    </g>
   </g>
   <g id="patch_11">
    <path d="M 601.78125 275.6775 
L 601.78125 53.9175 
" style="fill: none; stroke: #2d936c; stroke-width: 0.8; stroke-linejoin: miter; stroke-linecap: square"/>
   </g>
   <g id="patch_12">
    <path d="M 43.78125 275.6775 
L 601.78125 275.6775 
" style="fill: none; stroke: #000000; stroke-width: 0.8; stroke-linejoin: miter; stroke-linecap: square"/>
   </g>
   <g id="text_23">
    <!-- Fuente2024 -->
    <g transform="translate(260.385 19.3575) scale(0.16 -0.16)">
     <defs>
      <path id="DejaVuSans-Bold-32" d="M 1844 884 
L 3897 884 
L 3897 0 
L 506 0 
L 506 884 
L 2209 2388 
Q 2438 2594 2547 2791 
Q 2656 2988 2656 3200 
Q 2656 3528 2436 3728 
Q 2216 3928 1850 3928 
Q 1569 3928 1234 3808 
Q 900 3688 519 3450 
L 519 4475 
Q 925 4609 1322 4679 
Q 1719 4750 2100 4750 
Q 2938 4750 3402 4381 
Q 3866 4013 3866 3353 
Q 3866 2972 3669 2642 
Q 3472 2313 2841 1759 
L 1844 884 
z
" transform="scale(0.015625)"/>
     </defs>
     <use xlink:href="#DejaVuSans-Bold-46"/>
     <use xlink:href="#DejaVuSans-Bold-75" transform="translate(63.310547 0)"/>
     <use xlink:href="#DejaVuSans-Bold-65" transform="translate(134.501953 0)"/>
     <use xlink:href="#DejaVuSans-Bold-6e" transform="translate(202.324219 0)"/>
     <use xlink:href="#DejaVuSans-Bold-74" transform="translate(273.515625 0)"/>
     <use xlink:href="#DejaVuSans-Bold-65" transform="translate(321.318359 0)"/>
     <use xlink:href="#DejaVuSans-Bold-32" transform="translate(389.140625 0)"/>
     <use xlink:href="#DejaVuSans-Bold-30" transform="translate(458.720703 0)"/>
     <use xlink:href="#DejaVuSans-Bold-32" transform="translate(528.300781 0)"/>
     <use xlink:href="#DejaVuSans-Bold-34" transform="translate(597.880859 0)"/>
    </g>
   </g>
   <g id="line2d_20">
    <path d="M 43.78125 271.371869 
L 68.98425 271.27004 
L 69.144886 267.476536 
L 69.648777 267.434519 
L 81.490214 268.292954 
L 94.342814 269.005505 
L 94.417214 267.272175 
L 97.783814 190.184579 
L 99.295486 161.017359 
L 100.555214 140.652043 
L 101.814941 123.968185 
L 102.822723 113.104225 
L 103.830505 104.207119 
L 104.838286 97.015375 
L 105.846068 91.263143 
L 106.85385 86.700877 
L 107.861632 83.106231 
L 108.869414 80.28848 
L 109.877195 78.088447 
L 110.884977 76.375946 
L 111.892759 75.046023 
L 113.152486 73.795924 
L 114.412214 72.888462 
L 115.923886 72.122752 
L 117.435559 71.603094 
L 119.451123 71.160706 
L 122.391614 70.782759 
L 126.674686 70.601533 
L 134.988886 70.522424 
L 182.440868 70.509 
L 272.011705 70.464796 
L 272.305923 70.452462 
L 283.391523 70.508586 
L 348.134741 70.453101 
L 348.144886 70.449428 
L 350.16045 86.85324 
L 352.176014 101.343463 
L 354.191577 114.204669 
L 356.207141 125.687745 
L 358.222705 135.994642 
L 360.490214 146.387515 
L 362.757723 155.68954 
L 365.025232 164.05534 
L 367.292741 171.611734 
L 369.56025 178.463728 
L 372.079705 185.35707 
L 373.342814 188.555083 
L 373.35465 188.364685 
L 373.508523 185.201131 
L 374.76825 188.325543 
L 377.287705 194.280014 
L 379.807159 199.690879 
L 382.578559 205.092143 
L 385.349959 209.986797 
L 388.121359 214.436083 
L 390.892759 218.491908 
L 393.916105 222.519559 
L 396.93945 226.180574 
L 398.704759 228.164504 
L 398.711523 228.086482 
L 398.872159 224.361673 
L 399.37605 224.883414 
L 402.399395 228.333762 
L 405.674686 231.732479 
L 408.949977 234.818494 
L 412.477214 237.832508 
L 416.00445 240.562345 
L 419.783632 243.208357 
L 423.814759 245.750109 
L 424.068395 245.899936 
L 424.075159 245.811442 
L 424.235795 242.008785 
L 424.739686 242.273519 
L 428.518868 244.753833 
L 432.549995 247.139695 
L 436.833068 249.415684 
L 441.368086 251.570185 
L 446.15505 253.595048 
L 449.433723 254.845516 
L 449.437105 254.796251 
L 449.599432 250.940333 
L 450.103323 251.088831 
L 454.890286 253.167458 
L 459.929195 255.106879 
L 465.22005 256.904881 
L 471.014795 258.631923 
L 474.797359 259.633912 
L 474.800741 259.582772 
L 474.963068 255.727124 
L 475.466959 255.817169 
L 481.009759 257.607413 
L 486.804505 259.245275 
L 493.103141 260.793073 
L 499.905668 262.232877 
L 500.160995 262.277034 
L 500.166068 262.184796 
L 500.326705 258.371597 
L 500.830595 258.430503 
L 506.877286 260.026714 
L 513.427868 261.523063 
L 520.482341 262.904663 
L 525.524632 263.761081 
L 525.528014 263.708418 
L 525.690341 259.857102 
L 526.194232 259.898876 
L 532.744814 261.412978 
L 539.799286 262.810724 
L 547.35765 264.08288 
L 550.888268 264.60232 
L 550.89165 264.549357 
L 551.053977 260.699391 
L 551.557868 260.731566 
L 558.360395 262.180149 
L 565.666814 263.507926 
L 573.729068 264.7437 
L 576.251905 265.081762 
L 576.256977 264.988575 
L 576.417614 261.179505 
L 576.921505 261.206246 
L 583.975977 262.634369 
L 591.534341 263.933782 
L 599.848541 265.133588 
L 601.615541 265.355854 
L 601.620614 265.262577 
L 601.78125 261.454004 
L 601.78125 261.454004 
" clip-path="url(#p3457b9e664)" style="fill: none; stroke: #2d936c; stroke-width: 2; stroke-linecap: square"/>
   </g>
  </g>
 </g>
 <defs>
  <clipPath id="p3457b9e664">
   <rect x="43.78125" y="53.9175" width="558" height="221.76"/>
  </clipPath>
 </defs>
</svg>
