<?xml version="1.0" encoding="utf-8" standalone="no"?>
<!DOCTYPE svg PUBLIC "-//W3C//DTD SVG 1.1//EN"
  "http://www.w3.org/Graphics/SVG/1.1/DTD/svg11.dtd">
<svg xmlns:xlink="http://www.w3.org/1999/xlink" width="852.13875pt" height="275.836743pt" viewBox="0 0 852.13875 275.836743" xmlns="http://www.w3.org/2000/svg" version="1.1">
 <metadata>
  <rdf:RDF xmlns:dc="http://purl.org/dc/elements/1.1/" xmlns:cc="http://creativecommons.org/ns#" xmlns:rdf="http://www.w3.org/1999/02/22-rdf-syntax-ns#">
   <cc:Work>
    <dc:type rdf:resource="http://purl.org/dc/dcmitype/StillImage"/>
    <dc:date>2026-02-07T17:39:32.619908</dc:date>
    <dc:format>image/svg+xml</dc:format>
    <dc:creator>
     <cc:Agent>
      <dc:title>Matplotlib v3.10.8, https://matplotlib.org/</dc:title>
     </cc:Agent>
    </dc:creator>
   </cc:Work>
  </rdf:RDF>
 </metadata>
 <defs>
  <style type="text/css">*{stroke-linejoin: round; stroke-linecap: butt}</style>
 </defs>
 <g id="figure_1">
  <g id="patch_1">
   <path d="M 0 275.836743 
L 852.13875 275.836743 
L 852.13875 0 
L 0 0 
z
" style="fill: #ffffff"/>
  </g>
  <g id="axes_1">
   <g id="patch_2">
    <path d="M 43.78125 236.758618 
L 375.76925 236.758618 
L 375.76925 9.11789 
L 43.78125 9.11789 
z
" style="fill: #ffffff"/>
   </g>
   <g id="patch_3">
    <path d="M 47.036034 247.92746 
L 63.309956 247.92746 
L 63.309956 -8.337817 
L 47.036034 -8.337817 
z
" clip-path="url(#pf8b6d6e89f)" style="fill: #f3f2f0; stroke: #000000; stroke-linejoin: miter"/>
   </g>
   <g id="matplotlib.axis_1">
    <g id="xtick_1">
     <g id="line2d_1">
      <defs>
       <path id="macd9282b3b" d="M 0 0 
L 0 3.5 
" style="stroke: #000000; stroke-width: 0.8"/>
      </defs>
      <g>
       <use xlink:href="#macd9282b3b" x="47.036034" y="236.758618" style="stroke: #000000; stroke-width: 0.8"/>
      </g>
     </g>
     <g id="text_1">
      <!-- 0 -->
      <g transform="translate(43.854784 251.357055) scale(0.1 -0.1)">
       <defs>
        <path id="DejaVuSans-30" d="M 2034 4250 
Q 1547 4250 1301 3770 
Q 1056 3291 1056 2328 
Q 1056 1369 1301 889 
Q 1547 409 2034 409 
Q 2525 409 2770 889 
Q 3016 1369 3016 2328 
Q 3016 3291 2770 3770 
Q 2525 4250 2034 4250 
z
M 2034 4750 
Q 2819 4750 3233 4129 
Q 3647 3509 3647 2328 
Q 3647 1150 3233 529 
Q 2819 -91 2034 -91 
Q 1250 -91 836 529 
Q 422 1150 422 2328 
Q 422 3509 836 4129 
Q 1250 4750 2034 4750 
z
" transform="scale(0.015625)"/>
       </defs>
       <use xlink:href="#DejaVuSans-30"/>
      </g>
     </g>
    </g>
    <g id="xtick_2">
     <g id="line2d_2">
      <g>
       <use xlink:href="#macd9282b3b" x="112.131721" y="236.758618" style="stroke: #000000; stroke-width: 0.8"/>
      </g>
     </g>
     <g id="text_2">
      <!-- 200 -->
      <g transform="translate(102.587971 251.357055) scale(0.1 -0.1)">
       <defs>
        <path id="DejaVuSans-32" d="M 1228 531 
L 3431 531 
L 3431 0 
L 469 0 
L 469 531 
Q 828 903 1448 1529 
Q 2069 2156 2228 2338 
Q 2531 2678 2651 2914 
Q 2772 3150 2772 3378 
Q 2772 3750 2511 3984 
Q 2250 4219 1831 4219 
Q 1534 4219 1204 4116 
Q 875 4013 500 3803 
L 500 4441 
Q 881 4594 1212 4672 
Q 1544 4750 1819 4750 
Q 2544 4750 2975 4387 
Q 3406 4025 3406 3419 
Q 3406 3131 3298 2873 
Q 3191 2616 2906 2266 
Q 2828 2175 2409 1742 
Q 1991 1309 1228 531 
z
" transform="scale(0.015625)"/>
       </defs>
       <use xlink:href="#DejaVuSans-32"/>
       <use xlink:href="#DejaVuSans-30" transform="translate(63.623047 0)"/>
       <use xlink:href="#DejaVuSans-30" transform="translate(127.246094 0)"/>
      </g>
     </g>
    </g>
    <g id="xtick_3">
     <g id="line2d_3">
      <g>
       <use xlink:href="#macd9282b3b" x="177.227407" y="236.758618" style="stroke: #000000; stroke-width: 0.8"/>
      </g>
     </g>
     <g id="text_3">
      <!-- 400 -->
      <g transform="translate(167.683657 251.357055) scale(0.1 -0.1)">
       <defs>
        <path id="DejaVuSans-34" d="M 2419 4116 
L 825 1625 
L 2419 1625 
L 2419 4116 
z
M 2253 4666 
L 3047 4666 
L 3047 1625 
L 3713 1625 
L 3713 1100 
L 3047 1100 
L 3047 0 
L 2419 0 
L 2419 1100 
L 313 1100 
L 313 1709 
L 2253 4666 
z
" transform="scale(0.015625)"/>
       </defs>
       <use xlink:href="#DejaVuSans-34"/>
       <use xlink:href="#DejaVuSans-30" transform="translate(63.623047 0)"/>
       <use xlink:href="#DejaVuSans-30" transform="translate(127.246094 0)"/>
      </g>
     </g>
    </g>
    <g id="xtick_4">
     <g id="line2d_4">
      <g>
       <use xlink:href="#macd9282b3b" x="242.323093" y="236.758618" style="stroke: #000000; stroke-width: 0.8"/>
      </g>
     </g>
     <g id="text_4">
      <!-- 600 -->
      <g transform="translate(232.779343 251.357055) scale(0.1 -0.1)">
       <defs>
        <path id="DejaVuSans-36" d="M 2113 2584 
Q 1688 2584 1439 2293 
Q 1191 2003 1191 1497 
Q 1191 994 1439 701 
Q 1688 409 2113 409 
Q 2538 409 2786 701 
Q 3034 994 3034 1497 
Q 3034 2003 2786 2293 
Q 2538 2584 2113 2584 
z
M 3366 4563 
L 3366 3988 
Q 3128 4100 2886 4159 
Q 2644 4219 2406 4219 
Q 1781 4219 1451 3797 
Q 1122 3375 1075 2522 
Q 1259 2794 1537 2939 
Q 1816 3084 2150 3084 
Q 2853 3084 3261 2657 
Q 3669 2231 3669 1497 
Q 3669 778 3244 343 
Q 2819 -91 2113 -91 
Q 1303 -91 875 529 
Q 447 1150 447 2328 
Q 447 3434 972 4092 
Q 1497 4750 2381 4750 
Q 2619 4750 2861 4703 
Q 3103 4656 3366 4563 
z
" transform="scale(0.015625)"/>
       </defs>
       <use xlink:href="#DejaVuSans-36"/>
       <use xlink:href="#DejaVuSans-30" transform="translate(63.623047 0)"/>
       <use xlink:href="#DejaVuSans-30" transform="translate(127.246094 0)"/>
      </g>
     </g>
    </g>
    <g id="xtick_5">
     <g id="line2d_5">
      <g>
       <use xlink:href="#macd9282b3b" x="307.418779" y="236.758618" style="stroke: #000000; stroke-width: 0.8"/>
      </g>
     </g>
     <g id="text_5">
      <!-- 800 -->
      <g transform="translate(297.875029 251.357055) scale(0.1 -0.1)">
       <defs>
        <path id="DejaVuSans-38" d="M 2034 2216 
Q 1584 2216 1326 1975 
Q 1069 1734 1069 1313 
Q 1069 891 1326 650 
Q 1584 409 2034 409 
Q 2484 409 2743 651 
Q 3003 894 3003 1313 
Q 3003 1734 2745 1975 
Q 2488 2216 2034 2216 
z
M 1403 2484 
Q 997 2584 770 2862 
Q 544 3141 544 3541 
Q 544 4100 942 4425 
Q 1341 4750 2034 4750 
Q 2731 4750 3128 4425 
Q 3525 4100 3525 3541 
Q 3525 3141 3298 2862 
Q 3072 2584 2669 2484 
Q 3125 2378 3379 2068 
Q 3634 1759 3634 1313 
Q 3634 634 3220 271 
Q 2806 -91 2034 -91 
Q 1263 -91 848 271 
Q 434 634 434 1313 
Q 434 1759 690 2068 
Q 947 2378 1403 2484 
z
M 1172 3481 
Q 1172 3119 1398 2916 
Q 1625 2713 2034 2713 
Q 2441 2713 2670 2916 
Q 2900 3119 2900 3481 
Q 2900 3844 2670 4047 
Q 2441 4250 2034 4250 
Q 1625 4250 1398 4047 
Q 1172 3844 1172 3481 
z
" transform="scale(0.015625)"/>
       </defs>
       <use xlink:href="#DejaVuSans-38"/>
       <use xlink:href="#DejaVuSans-30" transform="translate(63.623047 0)"/>
       <use xlink:href="#DejaVuSans-30" transform="translate(127.246094 0)"/>
      </g>
     </g>
    </g>
    <g id="xtick_6">
     <g id="line2d_6">
      <g>
       <use xlink:href="#macd9282b3b" x="372.514466" y="236.758618" style="stroke: #000000; stroke-width: 0.8"/>
      </g>
     </g>
     <g id="text_6">
      <!-- 1000 -->
      <g transform="translate(359.789466 251.357055) scale(0.1 -0.1)">
       <defs>
        <path id="DejaVuSans-31" d="M 794 531 
L 1825 531 
L 1825 4091 
L 703 3866 
L 703 4441 
L 1819 4666 
L 2450 4666 
L 2450 531 
L 3481 531 
L 3481 0 
L 794 0 
L 794 531 
z
" transform="scale(0.015625)"/>
       </defs>
       <use xlink:href="#DejaVuSans-31"/>
       <use xlink:href="#DejaVuSans-30" transform="translate(63.623047 0)"/>
       <use xlink:href="#DejaVuSans-30" transform="translate(127.246094 0)"/>
       <use xlink:href="#DejaVuSans-30" transform="translate(190.869141 0)"/>
      </g>
     </g>
    </g>
    <g id="text_7">
     <!-- Light Intensity (µmol photons $\cdot$ m$^{-2}$ $\cdot$ s$^{-1}$) -->
     <g transform="translate(106.42525 266.536743) scale(0.1 -0.1)">
      <defs>
       <path id="DejaVuSans-4c" d="M 628 4666 
L 1259 4666 
L 1259 531 
L 3531 531 
L 3531 0 
L 628 0 
L 628 4666 
z
" transform="scale(0.015625)"/>
       <path id="DejaVuSans-69" d="M 603 3500 
L 1178 3500 
L 1178 0 
L 603 0 
L 603 3500 
z
M 603 4863 
L 1178 4863 
L 1178 4134 
L 603 4134 
L 603 4863 
z
" transform="scale(0.015625)"/>
       <path id="DejaVuSans-67" d="M 2906 1791 
Q 2906 2416 2648 2759 
Q 2391 3103 1925 3103 
Q 1463 3103 1205 2759 
Q 947 2416 947 1791 
Q 947 1169 1205 825 
Q 1463 481 1925 481 
Q 2391 481 2648 825 
Q 2906 1169 2906 1791 
z
M 3481 434 
Q 3481 -459 3084 -895 
Q 2688 -1331 1869 -1331 
Q 1566 -1331 1297 -1286 
Q 1028 -1241 775 -1147 
L 775 -588 
Q 1028 -725 1275 -790 
Q 1522 -856 1778 -856 
Q 2344 -856 2625 -561 
Q 2906 -266 2906 331 
L 2906 616 
Q 2728 306 2450 153 
Q 2172 0 1784 0 
Q 1141 0 747 490 
Q 353 981 353 1791 
Q 353 2603 747 3093 
Q 1141 3584 1784 3584 
Q 2172 3584 2450 3431 
Q 2728 3278 2906 2969 
L 2906 3500 
L 3481 3500 
L 3481 434 
z
" transform="scale(0.015625)"/>
       <path id="DejaVuSans-68" d="M 3513 2113 
L 3513 0 
L 2938 0 
L 2938 2094 
Q 2938 2591 2744 2837 
Q 2550 3084 2163 3084 
Q 1697 3084 1428 2787 
Q 1159 2491 1159 1978 
L 1159 0 
L 581 0 
L 581 4863 
L 1159 4863 
L 1159 2956 
Q 1366 3272 1645 3428 
Q 1925 3584 2291 3584 
Q 2894 3584 3203 3211 
Q 3513 2838 3513 2113 
z
" transform="scale(0.015625)"/>
       <path id="DejaVuSans-74" d="M 1172 4494 
L 1172 3500 
L 2356 3500 
L 2356 3053 
L 1172 3053 
L 1172 1153 
Q 1172 725 1289 603 
Q 1406 481 1766 481 
L 2356 481 
L 2356 0 
L 1766 0 
Q 1100 0 847 248 
Q 594 497 594 1153 
L 594 3053 
L 172 3053 
L 172 3500 
L 594 3500 
L 594 4494 
L 1172 4494 
z
" transform="scale(0.015625)"/>
       <path id="DejaVuSans-20" transform="scale(0.015625)"/>
       <path id="DejaVuSans-49" d="M 628 4666 
L 1259 4666 
L 1259 0 
L 628 0 
L 628 4666 
z
" transform="scale(0.015625)"/>
       <path id="DejaVuSans-6e" d="M 3513 2113 
L 3513 0 
L 2938 0 
L 2938 2094 
Q 2938 2591 2744 2837 
Q 2550 3084 2163 3084 
Q 1697 3084 1428 2787 
Q 1159 2491 1159 1978 
L 1159 0 
L 581 0 
L 581 3500 
L 1159 3500 
L 1159 2956 
Q 1366 3272 1645 3428 
Q 1925 3584 2291 3584 
Q 2894 3584 3203 3211 
Q 3513 2838 3513 2113 
z
" transform="scale(0.015625)"/>
       <path id="DejaVuSans-65" d="M 3597 1894 
L 3597 1613 
L 953 1613 
Q 991 1019 1311 708 
Q 1631 397 2203 397 
Q 2534 397 2845 478 
Q 3156 559 3463 722 
L 3463 178 
Q 3153 47 2828 -22 
Q 2503 -91 2169 -91 
Q 1331 -91 842 396 
Q 353 884 353 1716 
Q 353 2575 817 3079 
Q 1281 3584 2069 3584 
Q 2775 3584 3186 3129 
Q 3597 2675 3597 1894 
z
M 3022 2063 
Q 3016 2534 2758 2815 
Q 2500 3097 2075 3097 
Q 1594 3097 1305 2825 
Q 1016 2553 972 2059 
L 3022 2063 
z
" transform="scale(0.015625)"/>
       <path id="DejaVuSans-73" d="M 2834 3397 
L 2834 2853 
Q 2591 2978 2328 3040 
Q 2066 3103 1784 3103 
Q 1356 3103 1142 2972 
Q 928 2841 928 2578 
Q 928 2378 1081 2264 
Q 1234 2150 1697 2047 
L 1894 2003 
Q 2506 1872 2764 1633 
Q 3022 1394 3022 966 
Q 3022 478 2636 193 
Q 2250 -91 1575 -91 
Q 1294 -91 989 -36 
Q 684 19 347 128 
L 347 722 
Q 666 556 975 473 
Q 1284 391 1588 391 
Q 1994 391 2212 530 
Q 2431 669 2431 922 
Q 2431 1156 2273 1281 
Q 2116 1406 1581 1522 
L 1381 1569 
Q 847 1681 609 1914 
Q 372 2147 372 2553 
Q 372 3047 722 3315 
Q 1072 3584 1716 3584 
Q 2034 3584 2315 3537 
Q 2597 3491 2834 3397 
z
" transform="scale(0.015625)"/>
       <path id="DejaVuSans-79" d="M 2059 -325 
Q 1816 -950 1584 -1140 
Q 1353 -1331 966 -1331 
L 506 -1331 
L 506 -850 
L 844 -850 
Q 1081 -850 1212 -737 
Q 1344 -625 1503 -206 
L 1606 56 
L 191 3500 
L 800 3500 
L 1894 763 
L 2988 3500 
L 3597 3500 
L 2059 -325 
z
" transform="scale(0.015625)"/>
       <path id="DejaVuSans-28" d="M 1984 4856 
Q 1566 4138 1362 3434 
Q 1159 2731 1159 2009 
Q 1159 1288 1364 580 
Q 1569 -128 1984 -844 
L 1484 -844 
Q 1016 -109 783 600 
Q 550 1309 550 2009 
Q 550 2706 781 3412 
Q 1013 4119 1484 4856 
L 1984 4856 
z
" transform="scale(0.015625)"/>
       <path id="DejaVuSans-b5" d="M 544 -1331 
L 544 3500 
L 1119 3500 
L 1119 1325 
Q 1119 872 1334 640 
Q 1550 409 1972 409 
Q 2434 409 2667 671 
Q 2900 934 2900 1459 
L 2900 3500 
L 3475 3500 
L 3475 806 
Q 3475 619 3529 530 
Q 3584 441 3700 441 
Q 3728 441 3778 458 
Q 3828 475 3916 513 
L 3916 50 
Q 3788 -22 3673 -56 
Q 3559 -91 3450 -91 
Q 3234 -91 3106 31 
Q 2978 153 2931 403 
Q 2775 156 2548 32 
Q 2322 -91 2016 -91 
Q 1697 -91 1473 31 
Q 1250 153 1119 397 
L 1119 -1331 
L 544 -1331 
z
" transform="scale(0.015625)"/>
       <path id="DejaVuSans-6d" d="M 3328 2828 
Q 3544 3216 3844 3400 
Q 4144 3584 4550 3584 
Q 5097 3584 5394 3201 
Q 5691 2819 5691 2113 
L 5691 0 
L 5113 0 
L 5113 2094 
Q 5113 2597 4934 2840 
Q 4756 3084 4391 3084 
Q 3944 3084 3684 2787 
Q 3425 2491 3425 1978 
L 3425 0 
L 2847 0 
L 2847 2094 
Q 2847 2600 2669 2842 
Q 2491 3084 2119 3084 
Q 1678 3084 1418 2786 
Q 1159 2488 1159 1978 
L 1159 0 
L 581 0 
L 581 3500 
L 1159 3500 
L 1159 2956 
Q 1356 3278 1631 3431 
Q 1906 3584 2284 3584 
Q 2666 3584 2933 3390 
Q 3200 3197 3328 2828 
z
" transform="scale(0.015625)"/>
       <path id="DejaVuSans-6f" d="M 1959 3097 
Q 1497 3097 1228 2736 
Q 959 2375 959 1747 
Q 959 1119 1226 758 
Q 1494 397 1959 397 
Q 2419 397 2687 759 
Q 2956 1122 2956 1747 
Q 2956 2369 2687 2733 
Q 2419 3097 1959 3097 
z
M 1959 3584 
Q 2709 3584 3137 3096 
Q 3566 2609 3566 1747 
Q 3566 888 3137 398 
Q 2709 -91 1959 -91 
Q 1206 -91 779 398 
Q 353 888 353 1747 
Q 353 2609 779 3096 
Q 1206 3584 1959 3584 
z
" transform="scale(0.015625)"/>
       <path id="DejaVuSans-6c" d="M 603 4863 
L 1178 4863 
L 1178 0 
L 603 0 
L 603 4863 
z
" transform="scale(0.015625)"/>
       <path id="DejaVuSans-70" d="M 1159 525 
L 1159 -1331 
L 581 -1331 
L 581 3500 
L 1159 3500 
L 1159 2969 
Q 1341 3281 1617 3432 
Q 1894 3584 2278 3584 
Q 2916 3584 3314 3078 
Q 3713 2572 3713 1747 
Q 3713 922 3314 415 
Q 2916 -91 2278 -91 
Q 1894 -91 1617 61 
Q 1341 213 1159 525 
z
M 3116 1747 
Q 3116 2381 2855 2742 
Q 2594 3103 2138 3103 
Q 1681 3103 1420 2742 
Q 1159 2381 1159 1747 
Q 1159 1113 1420 752 
Q 1681 391 2138 391 
Q 2594 391 2855 752 
Q 3116 1113 3116 1747 
z
" transform="scale(0.015625)"/>
       <path id="DejaVuSans-22c5" d="M 684 2619 
L 1344 2619 
L 1344 1825 
L 684 1825 
L 684 2619 
z
" transform="scale(0.015625)"/>
       <path id="DejaVuSans-2212" d="M 678 2272 
L 4684 2272 
L 4684 1741 
L 678 1741 
L 678 2272 
z
" transform="scale(0.015625)"/>
       <path id="DejaVuSans-29" d="M 513 4856 
L 1013 4856 
Q 1481 4119 1714 3412 
Q 1947 2706 1947 2009 
Q 1947 1309 1714 600 
Q 1481 -109 1013 -844 
L 513 -844 
Q 928 -128 1133 580 
Q 1338 1288 1338 2009 
Q 1338 2731 1133 3434 
Q 928 4138 513 4856 
z
" transform="scale(0.015625)"/>
      </defs>
      <use xlink:href="#DejaVuSans-4c" transform="translate(0 0.765625)"/>
      <use xlink:href="#DejaVuSans-69" transform="translate(55.712891 0.765625)"/>
      <use xlink:href="#DejaVuSans-67" transform="translate(83.496094 0.765625)"/>
      <use xlink:href="#DejaVuSans-68" transform="translate(146.972656 0.765625)"/>
      <use xlink:href="#DejaVuSans-74" transform="translate(210.351562 0.765625)"/>
      <use xlink:href="#DejaVuSans-20" transform="translate(249.560547 0.765625)"/>
      <use xlink:href="#DejaVuSans-49" transform="translate(281.347656 0.765625)"/>
      <use xlink:href="#DejaVuSans-6e" transform="translate(310.839844 0.765625)"/>
      <use xlink:href="#DejaVuSans-74" transform="translate(374.21875 0.765625)"/>
      <use xlink:href="#DejaVuSans-65" transform="translate(413.427734 0.765625)"/>
      <use xlink:href="#DejaVuSans-6e" transform="translate(474.951172 0.765625)"/>
      <use xlink:href="#DejaVuSans-73" transform="translate(538.330078 0.765625)"/>
      <use xlink:href="#DejaVuSans-69" transform="translate(590.429688 0.765625)"/>
      <use xlink:href="#DejaVuSans-74" transform="translate(618.212891 0.765625)"/>
      <use xlink:href="#DejaVuSans-79" transform="translate(657.421875 0.765625)"/>
      <use xlink:href="#DejaVuSans-20" transform="translate(716.601562 0.765625)"/>
      <use xlink:href="#DejaVuSans-28" transform="translate(748.388672 0.765625)"/>
      <use xlink:href="#DejaVuSans-b5" transform="translate(787.402344 0.765625)"/>
      <use xlink:href="#DejaVuSans-6d" transform="translate(851.025391 0.765625)"/>
      <use xlink:href="#DejaVuSans-6f" transform="translate(948.4375 0.765625)"/>
      <use xlink:href="#DejaVuSans-6c" transform="translate(1009.619141 0.765625)"/>
      <use xlink:href="#DejaVuSans-20" transform="translate(1037.402344 0.765625)"/>
      <use xlink:href="#DejaVuSans-70" transform="translate(1069.189453 0.765625)"/>
      <use xlink:href="#DejaVuSans-68" transform="translate(1132.666016 0.765625)"/>
      <use xlink:href="#DejaVuSans-6f" transform="translate(1196.044922 0.765625)"/>
      <use xlink:href="#DejaVuSans-74" transform="translate(1257.226562 0.765625)"/>
      <use xlink:href="#DejaVuSans-6f" transform="translate(1296.435547 0.765625)"/>
      <use xlink:href="#DejaVuSans-6e" transform="translate(1357.617188 0.765625)"/>
      <use xlink:href="#DejaVuSans-73" transform="translate(1420.996094 0.765625)"/>
      <use xlink:href="#DejaVuSans-20" transform="translate(1473.095703 0.765625)"/>
      <use xlink:href="#DejaVuSans-22c5" transform="translate(1504.882812 0.765625)"/>
      <use xlink:href="#DejaVuSans-20" transform="translate(1536.669922 0.765625)"/>
      <use xlink:href="#DejaVuSans-6d" transform="translate(1568.457031 0.765625)"/>
      <use xlink:href="#DejaVuSans-2212" transform="translate(1666.826172 39.046875) scale(0.7)"/>
      <use xlink:href="#DejaVuSans-32" transform="translate(1725.478516 39.046875) scale(0.7)"/>
      <use xlink:href="#DejaVuSans-20" transform="translate(1772.749023 0.765625)"/>
      <use xlink:href="#DejaVuSans-22c5" transform="translate(1804.536133 0.765625)"/>
      <use xlink:href="#DejaVuSans-20" transform="translate(1836.323242 0.765625)"/>
      <use xlink:href="#DejaVuSans-73" transform="translate(1868.110352 0.765625)"/>
      <use xlink:href="#DejaVuSans-2212" transform="translate(1921.166992 39.046875) scale(0.7)"/>
      <use xlink:href="#DejaVuSans-31" transform="translate(1979.819336 39.046875) scale(0.7)"/>
      <use xlink:href="#DejaVuSans-29" transform="translate(2027.089844 0.765625)"/>
     </g>
    </g>
   </g>
   <g id="matplotlib.axis_2">
    <g id="ytick_1">
     <g id="line2d_7">
      <defs>
       <path id="m2d9698f794" d="M 0 0 
L -3.5 0 
" style="stroke: #000000; stroke-width: 0.8"/>
      </defs>
      <g>
       <use xlink:href="#m2d9698f794" x="43.78125" y="186.171789" style="stroke: #000000; stroke-width: 0.8"/>
      </g>
     </g>
     <g id="text_8">
      <!-- 0.2 -->
      <g transform="translate(20.878125 189.971008) scale(0.1 -0.1)">
       <defs>
        <path id="DejaVuSans-2e" d="M 684 794 
L 1344 794 
L 1344 0 
L 684 0 
L 684 794 
z
" transform="scale(0.015625)"/>
       </defs>
       <use xlink:href="#DejaVuSans-30"/>
       <use xlink:href="#DejaVuSans-2e" transform="translate(63.623047 0)"/>
       <use xlink:href="#DejaVuSans-32" transform="translate(95.410156 0)"/>
      </g>
     </g>
    </g>
    <g id="ytick_2">
     <g id="line2d_8">
      <g>
       <use xlink:href="#m2d9698f794" x="43.78125" y="135.584961" style="stroke: #000000; stroke-width: 0.8"/>
      </g>
     </g>
     <g id="text_9">
      <!-- 0.4 -->
      <g transform="translate(20.878125 139.38418) scale(0.1 -0.1)">
       <use xlink:href="#DejaVuSans-30"/>
       <use xlink:href="#DejaVuSans-2e" transform="translate(63.623047 0)"/>
       <use xlink:href="#DejaVuSans-34" transform="translate(95.410156 0)"/>
      </g>
     </g>
    </g>
    <g id="ytick_3">
     <g id="line2d_9">
      <g>
       <use xlink:href="#m2d9698f794" x="43.78125" y="84.998133" style="stroke: #000000; stroke-width: 0.8"/>
      </g>
     </g>
     <g id="text_10">
      <!-- 0.6 -->
      <g transform="translate(20.878125 88.797352) scale(0.1 -0.1)">
       <use xlink:href="#DejaVuSans-30"/>
       <use xlink:href="#DejaVuSans-2e" transform="translate(63.623047 0)"/>
       <use xlink:href="#DejaVuSans-36" transform="translate(95.410156 0)"/>
      </g>
     </g>
    </g>
    <g id="ytick_4">
     <g id="line2d_10">
      <g>
       <use xlink:href="#m2d9698f794" x="43.78125" y="34.411305" style="stroke: #000000; stroke-width: 0.8"/>
      </g>
     </g>
     <g id="text_11">
      <!-- 0.8 -->
      <g transform="translate(20.878125 38.210523) scale(0.1 -0.1)">
       <use xlink:href="#DejaVuSans-30"/>
       <use xlink:href="#DejaVuSans-2e" transform="translate(63.623047 0)"/>
       <use xlink:href="#DejaVuSans-38" transform="translate(95.410156 0)"/>
      </g>
     </g>
    </g>
    <g id="text_12">
     <!-- Concentrations Ratios -->
     <g transform="translate(14.798438 177.94216) rotate(-90) scale(0.1 -0.1)">
      <defs>
       <path id="DejaVuSans-43" d="M 4122 4306 
L 4122 3641 
Q 3803 3938 3442 4084 
Q 3081 4231 2675 4231 
Q 1875 4231 1450 3742 
Q 1025 3253 1025 2328 
Q 1025 1406 1450 917 
Q 1875 428 2675 428 
Q 3081 428 3442 575 
Q 3803 722 4122 1019 
L 4122 359 
Q 3791 134 3420 21 
Q 3050 -91 2638 -91 
Q 1578 -91 968 557 
Q 359 1206 359 2328 
Q 359 3453 968 4101 
Q 1578 4750 2638 4750 
Q 3056 4750 3426 4639 
Q 3797 4528 4122 4306 
z
" transform="scale(0.015625)"/>
       <path id="DejaVuSans-63" d="M 3122 3366 
L 3122 2828 
Q 2878 2963 2633 3030 
Q 2388 3097 2138 3097 
Q 1578 3097 1268 2742 
Q 959 2388 959 1747 
Q 959 1106 1268 751 
Q 1578 397 2138 397 
Q 2388 397 2633 464 
Q 2878 531 3122 666 
L 3122 134 
Q 2881 22 2623 -34 
Q 2366 -91 2075 -91 
Q 1284 -91 818 406 
Q 353 903 353 1747 
Q 353 2603 823 3093 
Q 1294 3584 2113 3584 
Q 2378 3584 2631 3529 
Q 2884 3475 3122 3366 
z
" transform="scale(0.015625)"/>
       <path id="DejaVuSans-72" d="M 2631 2963 
Q 2534 3019 2420 3045 
Q 2306 3072 2169 3072 
Q 1681 3072 1420 2755 
Q 1159 2438 1159 1844 
L 1159 0 
L 581 0 
L 581 3500 
L 1159 3500 
L 1159 2956 
Q 1341 3275 1631 3429 
Q 1922 3584 2338 3584 
Q 2397 3584 2469 3576 
Q 2541 3569 2628 3553 
L 2631 2963 
z
" transform="scale(0.015625)"/>
       <path id="DejaVuSans-61" d="M 2194 1759 
Q 1497 1759 1228 1600 
Q 959 1441 959 1056 
Q 959 750 1161 570 
Q 1363 391 1709 391 
Q 2188 391 2477 730 
Q 2766 1069 2766 1631 
L 2766 1759 
L 2194 1759 
z
M 3341 1997 
L 3341 0 
L 2766 0 
L 2766 531 
Q 2569 213 2275 61 
Q 1981 -91 1556 -91 
Q 1019 -91 701 211 
Q 384 513 384 1019 
Q 384 1609 779 1909 
Q 1175 2209 1959 2209 
L 2766 2209 
L 2766 2266 
Q 2766 2663 2505 2880 
Q 2244 3097 1772 3097 
Q 1472 3097 1187 3025 
Q 903 2953 641 2809 
L 641 3341 
Q 956 3463 1253 3523 
Q 1550 3584 1831 3584 
Q 2591 3584 2966 3190 
Q 3341 2797 3341 1997 
z
" transform="scale(0.015625)"/>
       <path id="DejaVuSans-52" d="M 2841 2188 
Q 3044 2119 3236 1894 
Q 3428 1669 3622 1275 
L 4263 0 
L 3584 0 
L 2988 1197 
Q 2756 1666 2539 1819 
Q 2322 1972 1947 1972 
L 1259 1972 
L 1259 0 
L 628 0 
L 628 4666 
L 2053 4666 
Q 2853 4666 3247 4331 
Q 3641 3997 3641 3322 
Q 3641 2881 3436 2590 
Q 3231 2300 2841 2188 
z
M 1259 4147 
L 1259 2491 
L 2053 2491 
Q 2509 2491 2742 2702 
Q 2975 2913 2975 3322 
Q 2975 3731 2742 3939 
Q 2509 4147 2053 4147 
L 1259 4147 
z
" transform="scale(0.015625)"/>
      </defs>
      <use xlink:href="#DejaVuSans-43"/>
      <use xlink:href="#DejaVuSans-6f" transform="translate(69.824219 0)"/>
      <use xlink:href="#DejaVuSans-6e" transform="translate(131.005859 0)"/>
      <use xlink:href="#DejaVuSans-63" transform="translate(194.384766 0)"/>
      <use xlink:href="#DejaVuSans-65" transform="translate(249.365234 0)"/>
      <use xlink:href="#DejaVuSans-6e" transform="translate(310.888672 0)"/>
      <use xlink:href="#DejaVuSans-74" transform="translate(374.267578 0)"/>
      <use xlink:href="#DejaVuSans-72" transform="translate(413.476562 0)"/>
      <use xlink:href="#DejaVuSans-61" transform="translate(454.589844 0)"/>
      <use xlink:href="#DejaVuSans-74" transform="translate(515.869141 0)"/>
      <use xlink:href="#DejaVuSans-69" transform="translate(555.078125 0)"/>
      <use xlink:href="#DejaVuSans-6f" transform="translate(582.861328 0)"/>
      <use xlink:href="#DejaVuSans-6e" transform="translate(644.042969 0)"/>
      <use xlink:href="#DejaVuSans-73" transform="translate(707.421875 0)"/>
      <use xlink:href="#DejaVuSans-20" transform="translate(759.521484 0)"/>
      <use xlink:href="#DejaVuSans-52" transform="translate(791.308594 0)"/>
      <use xlink:href="#DejaVuSans-61" transform="translate(858.541016 0)"/>
      <use xlink:href="#DejaVuSans-74" transform="translate(919.820312 0)"/>
      <use xlink:href="#DejaVuSans-69" transform="translate(959.029297 0)"/>
      <use xlink:href="#DejaVuSans-6f" transform="translate(986.8125 0)"/>
      <use xlink:href="#DejaVuSans-73" transform="translate(1047.994141 0)"/>
     </g>
    </g>
   </g>
   <g id="line2d_11">
    <path d="M 50.290819 235.577397 
L 53.545603 230.862173 
L 56.800387 225.131367 
L 60.055172 219.190759 
L 63.309956 213.258209 
L 66.56474 207.416356 
L 69.819525 201.701852 
L 73.074309 196.13177 
L 76.329093 190.7136 
L 79.583877 185.449699 
L 82.838662 180.339496 
L 86.093446 175.380685 
L 89.34823 170.569912 
L 92.603015 165.903192 
L 95.857799 161.376172 
L 99.112583 156.984298 
L 102.367368 152.722933 
L 105.622152 148.587432 
L 108.876936 144.573195 
L 112.131721 140.675705 
L 115.386505 136.890549 
L 118.641289 133.213441 
L 121.896074 129.640229 
L 125.150858 126.166902 
L 128.405642 122.789594 
L 131.660426 119.504586 
L 134.915211 116.308305 
L 138.169995 113.197324 
L 141.424779 110.168355 
L 144.679564 107.218251 
L 147.934348 104.343998 
L 151.189132 101.542713 
L 154.443917 98.811641 
L 157.698701 96.148145 
L 160.953485 93.549707 
L 164.20827 91.013924 
L 167.463054 88.538496 
L 170.717838 86.121231 
L 173.972623 83.760035 
L 177.227407 81.452908 
L 180.482191 79.197942 
L 183.736975 76.993318 
L 186.99176 74.837298 
L 190.246544 72.728225 
L 193.501328 70.664521 
L 196.756113 68.644679 
L 200.010897 66.667263 
L 203.265681 64.730907 
L 206.520466 62.834309 
L 209.77525 60.97623 
L 213.030034 59.155493 
L 216.284819 57.370978 
L 219.539603 55.621626 
L 222.794387 53.90643 
L 226.049172 52.224437 
L 229.303956 50.574752 
L 232.55874 48.956528 
L 235.813525 47.36897 
L 239.068309 45.811338 
L 242.323093 44.282939 
L 245.577877 42.783135 
L 248.832662 41.311339 
L 252.087446 39.867017 
L 255.34223 38.449691 
L 258.597015 37.058939 
L 261.851799 35.694397 
L 265.106583 34.355767 
L 268.361368 33.04281 
L 271.616152 31.755364 
L 274.870936 30.493339 
L 278.125721 29.256725 
L 281.380505 28.045603 
L 284.635289 26.860149 
L 287.890074 25.700646 
L 291.144858 24.567489 
L 294.399642 23.461205 
L 297.654426 22.382455 
L 300.909211 21.332054 
L 304.163995 20.310979 
L 307.418779 19.320383 
L 310.673564 18.3616 
L 313.928348 17.43615 
L 317.183132 16.545736 
L 320.437917 15.692225 
L 323.692701 14.877616 
L 326.947485 14.103992 
L 330.20227 13.373436 
L 333.457054 12.687926 
L 336.711838 12.04921 
L 339.966623 11.458646 
L 343.221407 10.91706 
L 346.476191 10.424599 
L 349.730975 9.980645 
L 352.98576 9.583779 
L 356.240544 9.231821 
L 359.495328 8.921944 
L 362.750113 8.650836 
L 366.004897 8.414889 
L 369.259681 8.210389 
L 372.514466 8.033675 
" clip-path="url(#pf8b6d6e89f)" style="fill: none; stroke: #8eb133; stroke-width: 2; stroke-linecap: square"/>
   </g>
   <g id="line2d_12">
    <path d="M 50.290819 236.279039 
L 53.545603 233.742715 
L 56.800387 230.147158 
L 60.055172 226.053544 
L 63.309956 221.675952 
L 66.56474 217.123963 
L 69.819525 212.464095 
L 73.074309 207.741102 
L 76.329093 202.987145 
L 79.583877 198.226366 
L 82.838662 193.477428 
L 86.093446 188.755036 
L 89.34823 184.070921 
L 92.603015 179.434504 
L 95.857799 174.853369 
L 99.112583 170.333607 
L 102.367368 165.880082 
L 105.622152 161.49664 
L 108.876936 157.186269 
L 112.131721 152.951235 
L 115.386505 148.793195 
L 118.641289 144.713283 
L 121.896074 140.712198 
L 125.150858 136.790259 
L 128.405642 132.947472 
L 131.660426 129.183571 
L 134.915211 125.498065 
L 138.169995 121.890274 
L 141.424779 118.359356 
L 144.679564 114.904341 
L 147.934348 111.52415 
L 151.189132 108.217618 
L 154.443917 104.983512 
L 157.698701 101.820545 
L 160.953485 98.72739 
L 164.20827 95.702694 
L 167.463054 92.745085 
L 170.717838 89.853181 
L 173.972623 87.025603 
L 177.227407 84.260971 
L 180.482191 81.557923 
L 183.736975 78.915106 
L 186.99176 76.331192 
L 190.246544 73.804873 
L 193.501328 71.334869 
L 196.756113 68.919928 
L 200.010897 66.558832 
L 203.265681 64.25039 
L 206.520466 61.993454 
L 209.77525 59.786905 
L 213.030034 57.629663 
L 216.284819 55.52069 
L 219.539603 53.458983 
L 222.794387 51.443581 
L 226.049172 49.473565 
L 229.303956 47.548058 
L 232.55874 45.666224 
L 235.813525 43.827273 
L 239.068309 42.030461 
L 242.323093 40.275088 
L 245.577877 38.560504 
L 248.832662 36.886106 
L 252.087446 35.251345 
L 255.34223 33.655721 
L 258.597015 32.098793 
L 261.851799 30.580177 
L 265.106583 29.099547 
L 268.361368 27.656646 
L 271.616152 26.251282 
L 274.870936 24.883335 
L 278.125721 23.552764 
L 281.380505 22.259609 
L 284.635289 21.003998 
L 287.890074 19.786152 
L 291.144858 18.606395 
L 294.399642 17.465155 
L 297.654426 16.362972 
L 300.909211 15.300505 
L 304.163995 14.278532 
L 307.418779 13.297952 
L 310.673564 12.35978 
L 313.928348 11.465137 
L 317.183132 10.615229 
L 320.437917 9.811316 
L 323.692701 9.054664 
L 326.947485 8.346484 
L 330.20227 7.687839 
L 333.457054 7.079553 
L 336.711838 6.522082 
L 339.966623 6.015406 
L 343.221407 5.558917 
L 346.476191 5.15134 
L 349.730975 4.790714 
L 352.98576 4.474419 
L 356.240544 4.199279 
L 359.495328 3.961705 
L 362.750113 3.75787 
L 366.004897 3.583892 
L 369.259681 3.43599 
L 372.514466 3.310605 
" clip-path="url(#pf8b6d6e89f)" style="fill: none; stroke: #e19d20; stroke-width: 2; stroke-linecap: square"/>
   </g>
   <g id="line2d_13">
    <path d="M 50.290819 155.06711 
L 53.545603 168.906232 
L 56.800387 172.821141 
L 60.055172 173.514268 
L 63.309956 172.776672 
L 66.56474 171.305749 
L 69.819525 169.43056 
L 73.074309 167.325891 
L 76.329093 165.092323 
L 79.583877 162.791128 
L 82.838662 160.461208 
L 86.093446 158.128015 
L 89.34823 155.808549 
L 92.603015 153.51431 
L 95.857799 151.253112 
L 99.112583 149.030243 
L 102.367368 146.849218 
L 105.622152 144.712292 
L 108.876936 142.620814 
L 112.131721 140.575473 
L 115.386505 138.576473 
L 118.641289 136.623658 
L 121.896074 134.716614 
L 125.150858 132.854731 
L 128.405642 131.037257 
L 131.660426 129.263339 
L 134.915211 127.532053 
L 138.169995 125.842425 
L 141.424779 124.193452 
L 144.679564 122.584113 
L 147.934348 121.013379 
L 151.189132 119.480225 
L 154.443917 117.983634 
L 157.698701 116.5226 
L 160.953485 115.096137 
L 164.20827 113.703277 
L 167.463054 112.343073 
L 170.717838 111.014604 
L 173.972623 109.71697 
L 177.227407 108.4493 
L 180.482191 107.210746 
L 183.736975 106.000487 
L 186.99176 104.817728 
L 190.246544 103.6617 
L 193.501328 102.531658 
L 196.756113 101.426885 
L 200.010897 100.346687 
L 203.265681 99.290394 
L 206.520466 98.257363 
L 209.77525 97.246972 
L 213.030034 96.258622 
L 216.284819 95.291739 
L 219.539603 94.345768 
L 222.794387 93.420178 
L 226.049172 92.514458 
L 229.303956 91.62812 
L 232.55874 90.760695 
L 235.813525 89.911732 
L 239.068309 89.080805 
L 242.323093 88.267503 
L 245.577877 87.471436 
L 248.832662 86.692234 
L 252.087446 85.929546 
L 255.34223 85.183039 
L 258.597015 84.452401 
L 261.851799 83.737337 
L 265.106583 83.037573 
L 268.361368 82.352856 
L 271.616152 81.68295 
L 274.870936 81.027641 
L 278.125721 80.386738 
L 281.380505 79.760068 
L 284.635289 79.147484 
L 287.890074 78.548858 
L 291.144858 77.964089 
L 294.399642 77.393099 
L 297.654426 76.835834 
L 300.909211 76.292265 
L 304.163995 75.762387 
L 307.418779 75.246219 
L 310.673564 74.743799 
L 313.928348 74.255184 
L 317.183132 73.78044 
L 320.437917 73.319639 
L 323.692701 72.872843 
L 326.947485 72.440089 
L 330.20227 72.021375 
L 333.457054 71.616634 
L 336.711838 71.225713 
L 339.966623 70.84835 
L 343.221407 70.484156 
L 346.476191 70.132604 
L 349.730975 69.793032 
L 352.98576 69.464655 
L 356.240544 69.146595 
L 359.495328 68.837911 
L 362.750113 68.537646 
L 366.004897 68.24486 
L 369.259681 67.958663 
L 372.514466 67.678237 
" clip-path="url(#pf8b6d6e89f)" style="fill: none; stroke: #f16431; stroke-width: 2; stroke-linecap: square"/>
   </g>
   <g id="line2d_14">
    <path d="M 50.290819 33.912143 
L 53.545603 53.488314 
L 56.800387 66.190589 
L 60.055172 75.398897 
L 63.309956 82.476615 
L 66.56474 88.127355 
L 69.819525 92.763055 
L 73.074309 96.645007 
L 76.329093 99.948699 
L 79.583877 102.797252 
L 82.838662 105.2801 
L 86.093446 107.464081 
L 89.34823 109.400345 
L 92.603015 111.128826 
L 95.857799 112.681247 
L 99.112583 114.083178 
L 102.367368 115.355502 
L 105.622152 116.515465 
L 108.876936 117.577454 
L 112.131721 118.553574 
L 115.386505 119.454095 
L 118.641289 120.287787 
L 121.896074 121.06219 
L 125.150858 121.783823 
L 128.405642 122.45835 
L 131.660426 123.090718 
L 134.915211 123.685265 
L 138.169995 124.245811 
L 141.424779 124.775732 
L 144.679564 125.278023 
L 147.934348 125.755348 
L 151.189132 126.210085 
L 154.443917 126.644363 
L 157.698701 127.060093 
L 160.953485 127.458996 
L 164.20827 127.842623 
L 167.463054 128.21238 
L 170.717838 128.56954 
L 173.972623 128.915262 
L 177.227407 129.250602 
L 180.482191 129.576526 
L 183.736975 129.893918 
L 186.99176 130.20359 
L 190.246544 130.506291 
L 193.501328 130.802714 
L 196.756113 131.093498 
L 200.010897 131.37924 
L 203.265681 131.660495 
L 206.520466 131.937785 
L 209.77525 132.211597 
L 213.030034 132.482393 
L 216.284819 132.75061 
L 219.539603 133.016663 
L 222.794387 133.28095 
L 226.049172 133.543854 
L 229.303956 133.805744 
L 232.55874 134.066979 
L 235.813525 134.327911 
L 239.068309 134.588886 
L 242.323093 134.850246 
L 245.577877 135.112332 
L 248.832662 135.375487 
L 252.087446 135.640057 
L 255.34223 135.906393 
L 258.597015 136.174857 
L 261.851799 136.445818 
L 265.106583 136.719661 
L 268.361368 136.996786 
L 271.616152 137.277614 
L 274.870936 137.562587 
L 278.125721 137.852172 
L 281.380505 138.146867 
L 284.635289 138.447203 
L 287.890074 138.753745 
L 291.144858 139.067103 
L 294.399642 139.387927 
L 297.654426 139.716916 
L 300.909211 140.05482 
L 304.163995 140.402438 
L 307.418779 140.76062 
L 310.673564 141.130264 
L 313.928348 141.512306 
L 317.183132 141.907709 
L 320.437917 142.317443 
L 323.692701 142.742453 
L 326.947485 143.183625 
L 330.20227 143.641732 
L 333.457054 144.117378 
L 336.711838 144.610929 
L 339.966623 145.122447 
L 343.221407 145.651635 
L 346.476191 146.197801 
L 349.730975 146.759845 
L 352.98576 147.336292 
L 356.240544 147.925354 
L 359.495328 148.525022 
L 362.750113 149.133169 
L 366.004897 149.747659 
L 369.259681 150.366432 
L 372.514466 150.987576 
" clip-path="url(#pf8b6d6e89f)" style="fill: none; stroke: #5f7fb6; stroke-width: 2; stroke-linecap: square"/>
   </g>
   <g id="patch_4">
    <path d="M 43.78125 236.758618 
L 43.78125 9.11789 
" style="fill: none; stroke: #000000; stroke-width: 0.8; stroke-linejoin: miter; stroke-linecap: square"/>
   </g>
   <g id="patch_5">
    <path d="M 375.76925 236.758618 
L 375.76925 9.11789 
" style="fill: none; stroke: #000000; stroke-width: 0.8; stroke-linejoin: miter; stroke-linecap: square"/>
   </g>
   <g id="patch_6">
    <path d="M 43.78125 236.758618 
L 375.76925 236.758618 
" style="fill: none; stroke: #000000; stroke-width: 0.8; stroke-linejoin: miter; stroke-linecap: square"/>
   </g>
   <g id="patch_7">
    <path d="M 43.78125 9.11789 
L 375.76925 9.11789 
" style="fill: none; stroke: #000000; stroke-width: 0.8; stroke-linejoin: miter; stroke-linecap: square"/>
   </g>
   <g id="legend_1">
    <g id="patch_8">
     <path d="M 265.85675 166.81018 
L 275.85675 166.81018 
L 275.85675 157.86018 
L 265.85675 157.86018 
z
" style="fill: #8eb133; stroke: #8eb133; stroke-linejoin: miter"/>
    </g>
    <g id="text_13">
     <!-- ATP -->
     <g transform="translate(283.85675 165.76018) scale(0.1 -0.1)">
      <defs>
       <path id="DejaVuSans-41" d="M 2188 4044 
L 1331 1722 
L 3047 1722 
L 2188 4044 
z
M 1831 4666 
L 2547 4666 
L 4325 0 
L 3669 0 
L 3244 1197 
L 1141 1197 
L 716 0 
L 50 0 
L 1831 4666 
z
" transform="scale(0.015625)"/>
       <path id="DejaVuSans-54" d="M -19 4666 
L 3928 4666 
L 3928 4134 
L 2272 4134 
L 2272 0 
L 1638 0 
L 1638 4134 
L -19 4134 
L -19 4666 
z
" transform="scale(0.015625)"/>
       <path id="DejaVuSans-50" d="M 1259 4147 
L 1259 2394 
L 2053 2394 
Q 2494 2394 2734 2622 
Q 2975 2850 2975 3272 
Q 2975 3691 2734 3919 
Q 2494 4147 2053 4147 
L 1259 4147 
z
M 628 4666 
L 2053 4666 
Q 2838 4666 3239 4311 
Q 3641 3956 3641 3272 
Q 3641 2581 3239 2228 
Q 2838 1875 2053 1875 
L 1259 1875 
L 1259 0 
L 628 0 
L 628 4666 
z
" transform="scale(0.015625)"/>
      </defs>
      <use xlink:href="#DejaVuSans-41"/>
      <use xlink:href="#DejaVuSans-54" transform="translate(60.658203 0)"/>
      <use xlink:href="#DejaVuSans-50" transform="translate(121.742188 0)"/>
     </g>
    </g>
    <g id="patch_9">
     <path d="M 265.85675 181.789868 
L 275.85675 181.789868 
L 275.85675 172.839868 
L 265.85675 172.839868 
z
" style="fill: #e19d20; stroke: #e19d20; stroke-linejoin: miter"/>
    </g>
    <g id="text_14">
     <!-- Active Quencher -->
     <g transform="translate(283.85675 180.739868) scale(0.1 -0.1)">
      <defs>
       <path id="DejaVuSans-76" d="M 191 3500 
L 800 3500 
L 1894 563 
L 2988 3500 
L 3597 3500 
L 2284 0 
L 1503 0 
L 191 3500 
z
" transform="scale(0.015625)"/>
       <path id="DejaVuSans-51" d="M 2522 4238 
Q 1834 4238 1429 3725 
Q 1025 3213 1025 2328 
Q 1025 1447 1429 934 
Q 1834 422 2522 422 
Q 3209 422 3611 934 
Q 4013 1447 4013 2328 
Q 4013 3213 3611 3725 
Q 3209 4238 2522 4238 
z
M 3406 84 
L 4238 -825 
L 3475 -825 
L 2784 -78 
Q 2681 -84 2626 -87 
Q 2572 -91 2522 -91 
Q 1538 -91 948 567 
Q 359 1225 359 2328 
Q 359 3434 948 4092 
Q 1538 4750 2522 4750 
Q 3503 4750 4090 4092 
Q 4678 3434 4678 2328 
Q 4678 1516 4351 937 
Q 4025 359 3406 84 
z
" transform="scale(0.015625)"/>
       <path id="DejaVuSans-75" d="M 544 1381 
L 544 3500 
L 1119 3500 
L 1119 1403 
Q 1119 906 1312 657 
Q 1506 409 1894 409 
Q 2359 409 2629 706 
Q 2900 1003 2900 1516 
L 2900 3500 
L 3475 3500 
L 3475 0 
L 2900 0 
L 2900 538 
Q 2691 219 2414 64 
Q 2138 -91 1772 -91 
Q 1169 -91 856 284 
Q 544 659 544 1381 
z
M 1991 3584 
L 1991 3584 
z
" transform="scale(0.015625)"/>
      </defs>
      <use xlink:href="#DejaVuSans-41"/>
      <use xlink:href="#DejaVuSans-63" transform="translate(66.658203 0)"/>
      <use xlink:href="#DejaVuSans-74" transform="translate(121.638672 0)"/>
      <use xlink:href="#DejaVuSans-69" transform="translate(160.847656 0)"/>
      <use xlink:href="#DejaVuSans-76" transform="translate(188.630859 0)"/>
      <use xlink:href="#DejaVuSans-65" transform="translate(247.810547 0)"/>
      <use xlink:href="#DejaVuSans-20" transform="translate(309.333984 0)"/>
      <use xlink:href="#DejaVuSans-51" transform="translate(341.121094 0)"/>
      <use xlink:href="#DejaVuSans-75" transform="translate(419.832031 0)"/>
      <use xlink:href="#DejaVuSans-65" transform="translate(483.210938 0)"/>
      <use xlink:href="#DejaVuSans-6e" transform="translate(544.734375 0)"/>
      <use xlink:href="#DejaVuSans-63" transform="translate(608.113281 0)"/>
      <use xlink:href="#DejaVuSans-68" transform="translate(663.09375 0)"/>
      <use xlink:href="#DejaVuSans-65" transform="translate(726.472656 0)"/>
      <use xlink:href="#DejaVuSans-72" transform="translate(787.996094 0)"/>
     </g>
    </g>
    <g id="patch_10">
     <path d="M 265.85675 196.769555 
L 275.85675 196.769555 
L 275.85675 187.819555 
L 265.85675 187.819555 
z
" style="stroke: #000000; stroke-linejoin: miter"/>
    </g>
    <g id="text_15">
     <!-- Lumen pH -->
     <g transform="translate(283.85675 195.719555) scale(0.1 -0.1)">
      <defs>
       <path id="DejaVuSans-48" d="M 628 4666 
L 1259 4666 
L 1259 2753 
L 3553 2753 
L 3553 4666 
L 4184 4666 
L 4184 0 
L 3553 0 
L 3553 2222 
L 1259 2222 
L 1259 0 
L 628 0 
L 628 4666 
z
" transform="scale(0.015625)"/>
      </defs>
      <use xlink:href="#DejaVuSans-4c"/>
      <use xlink:href="#DejaVuSans-75" transform="translate(53.962891 0)"/>
      <use xlink:href="#DejaVuSans-6d" transform="translate(117.341797 0)"/>
      <use xlink:href="#DejaVuSans-65" transform="translate(214.753906 0)"/>
      <use xlink:href="#DejaVuSans-6e" transform="translate(276.277344 0)"/>
      <use xlink:href="#DejaVuSans-20" transform="translate(339.65625 0)"/>
      <use xlink:href="#DejaVuSans-70" transform="translate(371.443359 0)"/>
      <use xlink:href="#DejaVuSans-48" transform="translate(434.919922 0)"/>
     </g>
    </g>
    <g id="patch_11">
     <path d="M 265.85675 211.749243 
L 275.85675 211.749243 
L 275.85675 202.799243 
L 265.85675 202.799243 
z
" style="fill: #f16431; stroke: #f16431; stroke-linejoin: miter"/>
    </g>
    <g id="text_16">
     <!-- PI$_{ox}$ -->
     <g transform="translate(283.85675 210.699243) scale(0.1 -0.1)">
      <defs>
       <path id="DejaVuSans-Oblique-6f" d="M 1625 -91 
Q 1009 -91 651 289 
Q 294 669 294 1325 
Q 294 1706 417 2101 
Q 541 2497 738 2766 
Q 1047 3184 1428 3384 
Q 1809 3584 2291 3584 
Q 2888 3584 3255 3212 
Q 3622 2841 3622 2241 
Q 3622 1825 3500 1412 
Q 3378 1000 3181 728 
Q 2875 309 2494 109 
Q 2113 -91 1625 -91 
z
M 891 1344 
Q 891 869 1089 633 
Q 1288 397 1691 397 
Q 2269 397 2648 901 
Q 3028 1406 3028 2181 
Q 3028 2634 2825 2865 
Q 2622 3097 2228 3097 
Q 1903 3097 1650 2945 
Q 1397 2794 1197 2484 
Q 1050 2253 970 1956 
Q 891 1659 891 1344 
z
" transform="scale(0.015625)"/>
       <path id="DejaVuSans-Oblique-78" d="M 3841 3500 
L 2234 1784 
L 3219 0 
L 2559 0 
L 1819 1388 
L 531 0 
L -166 0 
L 1556 1844 
L 641 3500 
L 1300 3500 
L 1972 2234 
L 3144 3500 
L 3841 3500 
z
" transform="scale(0.015625)"/>
      </defs>
      <use xlink:href="#DejaVuSans-50" transform="translate(0 0.09375)"/>
      <use xlink:href="#DejaVuSans-49" transform="translate(60.302734 0.09375)"/>
      <use xlink:href="#DejaVuSans-Oblique-6f" transform="translate(90.751953 -16.3125) scale(0.7)"/>
      <use xlink:href="#DejaVuSans-Oblique-78" transform="translate(133.579102 -16.3125) scale(0.7)"/>
     </g>
    </g>
    <g id="patch_12">
     <path d="M 265.85675 226.72893 
L 275.85675 226.72893 
L 275.85675 217.77893 
L 265.85675 217.77893 
z
" style="fill: #5f7fb6; stroke: #5f7fb6; stroke-linejoin: miter"/>
    </g>
    <g id="text_17">
     <!-- Oxidized PQ -->
     <g transform="translate(283.85675 225.67893) scale(0.1 -0.1)">
      <defs>
       <path id="DejaVuSans-4f" d="M 2522 4238 
Q 1834 4238 1429 3725 
Q 1025 3213 1025 2328 
Q 1025 1447 1429 934 
Q 1834 422 2522 422 
Q 3209 422 3611 934 
Q 4013 1447 4013 2328 
Q 4013 3213 3611 3725 
Q 3209 4238 2522 4238 
z
M 2522 4750 
Q 3503 4750 4090 4092 
Q 4678 3434 4678 2328 
Q 4678 1225 4090 567 
Q 3503 -91 2522 -91 
Q 1538 -91 948 565 
Q 359 1222 359 2328 
Q 359 3434 948 4092 
Q 1538 4750 2522 4750 
z
" transform="scale(0.015625)"/>
       <path id="DejaVuSans-78" d="M 3513 3500 
L 2247 1797 
L 3578 0 
L 2900 0 
L 1881 1375 
L 863 0 
L 184 0 
L 1544 1831 
L 300 3500 
L 978 3500 
L 1906 2253 
L 2834 3500 
L 3513 3500 
z
" transform="scale(0.015625)"/>
       <path id="DejaVuSans-64" d="M 2906 2969 
L 2906 4863 
L 3481 4863 
L 3481 0 
L 2906 0 
L 2906 525 
Q 2725 213 2448 61 
Q 2172 -91 1784 -91 
Q 1150 -91 751 415 
Q 353 922 353 1747 
Q 353 2572 751 3078 
Q 1150 3584 1784 3584 
Q 2172 3584 2448 3432 
Q 2725 3281 2906 2969 
z
M 947 1747 
Q 947 1113 1208 752 
Q 1469 391 1925 391 
Q 2381 391 2643 752 
Q 2906 1113 2906 1747 
Q 2906 2381 2643 2742 
Q 2381 3103 1925 3103 
Q 1469 3103 1208 2742 
Q 947 2381 947 1747 
z
" transform="scale(0.015625)"/>
       <path id="DejaVuSans-7a" d="M 353 3500 
L 3084 3500 
L 3084 2975 
L 922 459 
L 3084 459 
L 3084 0 
L 275 0 
L 275 525 
L 2438 3041 
L 353 3041 
L 353 3500 
z
" transform="scale(0.015625)"/>
      </defs>
      <use xlink:href="#DejaVuSans-4f"/>
      <use xlink:href="#DejaVuSans-78" transform="translate(78.710938 0)"/>
      <use xlink:href="#DejaVuSans-69" transform="translate(137.890625 0)"/>
      <use xlink:href="#DejaVuSans-64" transform="translate(165.673828 0)"/>
      <use xlink:href="#DejaVuSans-69" transform="translate(229.150391 0)"/>
      <use xlink:href="#DejaVuSans-7a" transform="translate(256.933594 0)"/>
      <use xlink:href="#DejaVuSans-65" transform="translate(309.423828 0)"/>
      <use xlink:href="#DejaVuSans-64" transform="translate(370.947266 0)"/>
      <use xlink:href="#DejaVuSans-20" transform="translate(434.423828 0)"/>
      <use xlink:href="#DejaVuSans-50" transform="translate(466.210938 0)"/>
      <use xlink:href="#DejaVuSans-51" transform="translate(526.513672 0)"/>
     </g>
    </g>
   </g>
  </g>
  <g id="axes_2">
   <g id="patch_13">
    <path d="M 472.16325 236.758618 
L 804.15125 236.758618 
L 804.15125 9.11789 
L 472.16325 9.11789 
z
" style="fill: #ffffff"/>
   </g>
   <g id="patch_14">
    <path d="M 475.418034 247.841155 
L 491.691956 247.841155 
L 491.691956 -0.537773 
L 475.418034 -0.537773 
z
" clip-path="url(#p5472158b55)" style="fill: #f3f2f0; stroke: #000000; stroke-linejoin: miter"/>
   </g>
   <g id="matplotlib.axis_3">
    <g id="xtick_7">
     <g id="line2d_15">
      <g>
       <use xlink:href="#macd9282b3b" x="475.418034" y="236.758618" style="stroke: #000000; stroke-width: 0.8"/>
      </g>
     </g>
     <g id="text_18">
      <!-- 0 -->
      <g transform="translate(472.236784 251.357055) scale(0.1 -0.1)">
       <use xlink:href="#DejaVuSans-30"/>
      </g>
     </g>
    </g>
    <g id="xtick_8">
     <g id="line2d_16">
      <g>
       <use xlink:href="#macd9282b3b" x="540.513721" y="236.758618" style="stroke: #000000; stroke-width: 0.8"/>
      </g>
     </g>
     <g id="text_19">
      <!-- 200 -->
      <g transform="translate(530.969971 251.357055) scale(0.1 -0.1)">
       <use xlink:href="#DejaVuSans-32"/>
       <use xlink:href="#DejaVuSans-30" transform="translate(63.623047 0)"/>
       <use xlink:href="#DejaVuSans-30" transform="translate(127.246094 0)"/>
      </g>
     </g>
    </g>
    <g id="xtick_9">
     <g id="line2d_17">
      <g>
       <use xlink:href="#macd9282b3b" x="605.609407" y="236.758618" style="stroke: #000000; stroke-width: 0.8"/>
      </g>
     </g>
     <g id="text_20">
      <!-- 400 -->
      <g transform="translate(596.065657 251.357055) scale(0.1 -0.1)">
       <use xlink:href="#DejaVuSans-34"/>
       <use xlink:href="#DejaVuSans-30" transform="translate(63.623047 0)"/>
       <use xlink:href="#DejaVuSans-30" transform="translate(127.246094 0)"/>
      </g>
     </g>
    </g>
    <g id="xtick_10">
     <g id="line2d_18">
      <g>
       <use xlink:href="#macd9282b3b" x="670.705093" y="236.758618" style="stroke: #000000; stroke-width: 0.8"/>
      </g>
     </g>
     <g id="text_21">
      <!-- 600 -->
      <g transform="translate(661.161343 251.357055) scale(0.1 -0.1)">
       <use xlink:href="#DejaVuSans-36"/>
       <use xlink:href="#DejaVuSans-30" transform="translate(63.623047 0)"/>
       <use xlink:href="#DejaVuSans-30" transform="translate(127.246094 0)"/>
      </g>
     </g>
    </g>
    <g id="xtick_11">
     <g id="line2d_19">
      <g>
       <use xlink:href="#macd9282b3b" x="735.800779" y="236.758618" style="stroke: #000000; stroke-width: 0.8"/>
      </g>
     </g>
     <g id="text_22">
      <!-- 800 -->
      <g transform="translate(726.257029 251.357055) scale(0.1 -0.1)">
       <use xlink:href="#DejaVuSans-38"/>
       <use xlink:href="#DejaVuSans-30" transform="translate(63.623047 0)"/>
       <use xlink:href="#DejaVuSans-30" transform="translate(127.246094 0)"/>
      </g>
     </g>
    </g>
    <g id="xtick_12">
     <g id="line2d_20">
      <g>
       <use xlink:href="#macd9282b3b" x="800.896466" y="236.758618" style="stroke: #000000; stroke-width: 0.8"/>
      </g>
     </g>
     <g id="text_23">
      <!-- 1000 -->
      <g transform="translate(788.171466 251.357055) scale(0.1 -0.1)">
       <use xlink:href="#DejaVuSans-31"/>
       <use xlink:href="#DejaVuSans-30" transform="translate(63.623047 0)"/>
       <use xlink:href="#DejaVuSans-30" transform="translate(127.246094 0)"/>
       <use xlink:href="#DejaVuSans-30" transform="translate(190.869141 0)"/>
      </g>
     </g>
    </g>
    <g id="text_24">
     <!-- Light Intensity (µmol photons $\cdot$ m$^{-2}$ $\cdot$ s$^{-1}$) -->
     <g transform="translate(534.80725 266.536743) scale(0.1 -0.1)">
      <use xlink:href="#DejaVuSans-4c" transform="translate(0 0.765625)"/>
      <use xlink:href="#DejaVuSans-69" transform="translate(55.712891 0.765625)"/>
      <use xlink:href="#DejaVuSans-67" transform="translate(83.496094 0.765625)"/>
      <use xlink:href="#DejaVuSans-68" transform="translate(146.972656 0.765625)"/>
      <use xlink:href="#DejaVuSans-74" transform="translate(210.351562 0.765625)"/>
      <use xlink:href="#DejaVuSans-20" transform="translate(249.560547 0.765625)"/>
      <use xlink:href="#DejaVuSans-49" transform="translate(281.347656 0.765625)"/>
      <use xlink:href="#DejaVuSans-6e" transform="translate(310.839844 0.765625)"/>
      <use xlink:href="#DejaVuSans-74" transform="translate(374.21875 0.765625)"/>
      <use xlink:href="#DejaVuSans-65" transform="translate(413.427734 0.765625)"/>
      <use xlink:href="#DejaVuSans-6e" transform="translate(474.951172 0.765625)"/>
      <use xlink:href="#DejaVuSans-73" transform="translate(538.330078 0.765625)"/>
      <use xlink:href="#DejaVuSans-69" transform="translate(590.429688 0.765625)"/>
      <use xlink:href="#DejaVuSans-74" transform="translate(618.212891 0.765625)"/>
      <use xlink:href="#DejaVuSans-79" transform="translate(657.421875 0.765625)"/>
      <use xlink:href="#DejaVuSans-20" transform="translate(716.601562 0.765625)"/>
      <use xlink:href="#DejaVuSans-28" transform="translate(748.388672 0.765625)"/>
      <use xlink:href="#DejaVuSans-b5" transform="translate(787.402344 0.765625)"/>
      <use xlink:href="#DejaVuSans-6d" transform="translate(851.025391 0.765625)"/>
      <use xlink:href="#DejaVuSans-6f" transform="translate(948.4375 0.765625)"/>
      <use xlink:href="#DejaVuSans-6c" transform="translate(1009.619141 0.765625)"/>
      <use xlink:href="#DejaVuSans-20" transform="translate(1037.402344 0.765625)"/>
      <use xlink:href="#DejaVuSans-70" transform="translate(1069.189453 0.765625)"/>
      <use xlink:href="#DejaVuSans-68" transform="translate(1132.666016 0.765625)"/>
      <use xlink:href="#DejaVuSans-6f" transform="translate(1196.044922 0.765625)"/>
      <use xlink:href="#DejaVuSans-74" transform="translate(1257.226562 0.765625)"/>
      <use xlink:href="#DejaVuSans-6f" transform="translate(1296.435547 0.765625)"/>
      <use xlink:href="#DejaVuSans-6e" transform="translate(1357.617188 0.765625)"/>
      <use xlink:href="#DejaVuSans-73" transform="translate(1420.996094 0.765625)"/>
      <use xlink:href="#DejaVuSans-20" transform="translate(1473.095703 0.765625)"/>
      <use xlink:href="#DejaVuSans-22c5" transform="translate(1504.882812 0.765625)"/>
      <use xlink:href="#DejaVuSans-20" transform="translate(1536.669922 0.765625)"/>
      <use xlink:href="#DejaVuSans-6d" transform="translate(1568.457031 0.765625)"/>
      <use xlink:href="#DejaVuSans-2212" transform="translate(1666.826172 39.046875) scale(0.7)"/>
      <use xlink:href="#DejaVuSans-32" transform="translate(1725.478516 39.046875) scale(0.7)"/>
      <use xlink:href="#DejaVuSans-20" transform="translate(1772.749023 0.765625)"/>
      <use xlink:href="#DejaVuSans-22c5" transform="translate(1804.536133 0.765625)"/>
      <use xlink:href="#DejaVuSans-20" transform="translate(1836.323242 0.765625)"/>
      <use xlink:href="#DejaVuSans-73" transform="translate(1868.110352 0.765625)"/>
      <use xlink:href="#DejaVuSans-2212" transform="translate(1921.166992 39.046875) scale(0.7)"/>
      <use xlink:href="#DejaVuSans-31" transform="translate(1979.819336 39.046875) scale(0.7)"/>
      <use xlink:href="#DejaVuSans-29" transform="translate(2027.089844 0.765625)"/>
     </g>
    </g>
   </g>
   <g id="matplotlib.axis_4">
    <g id="ytick_5">
     <g id="line2d_21">
      <g>
       <use xlink:href="#m2d9698f794" x="472.16325" y="236.758618" style="stroke: #000000; stroke-width: 0.8"/>
      </g>
     </g>
     <g id="text_25">
      <!-- 0.0 -->
      <g transform="translate(449.260125 240.557836) scale(0.1 -0.1)">
       <use xlink:href="#DejaVuSans-30"/>
       <use xlink:href="#DejaVuSans-2e" transform="translate(63.623047 0)"/>
       <use xlink:href="#DejaVuSans-30" transform="translate(95.410156 0)"/>
      </g>
     </g>
    </g>
    <g id="ytick_6">
     <g id="line2d_22">
      <g>
       <use xlink:href="#m2d9698f794" x="472.16325" y="200.336101" style="stroke: #000000; stroke-width: 0.8"/>
      </g>
     </g>
     <g id="text_26">
      <!-- 0.2 -->
      <g transform="translate(449.260125 204.13532) scale(0.1 -0.1)">
       <use xlink:href="#DejaVuSans-30"/>
       <use xlink:href="#DejaVuSans-2e" transform="translate(63.623047 0)"/>
       <use xlink:href="#DejaVuSans-32" transform="translate(95.410156 0)"/>
      </g>
     </g>
    </g>
    <g id="ytick_7">
     <g id="line2d_23">
      <g>
       <use xlink:href="#m2d9698f794" x="472.16325" y="163.913585" style="stroke: #000000; stroke-width: 0.8"/>
      </g>
     </g>
     <g id="text_27">
      <!-- 0.4 -->
      <g transform="translate(449.260125 167.712804) scale(0.1 -0.1)">
       <use xlink:href="#DejaVuSans-30"/>
       <use xlink:href="#DejaVuSans-2e" transform="translate(63.623047 0)"/>
       <use xlink:href="#DejaVuSans-34" transform="translate(95.410156 0)"/>
      </g>
     </g>
    </g>
    <g id="ytick_8">
     <g id="line2d_24">
      <g>
       <use xlink:href="#m2d9698f794" x="472.16325" y="127.491069" style="stroke: #000000; stroke-width: 0.8"/>
      </g>
     </g>
     <g id="text_28">
      <!-- 0.6 -->
      <g transform="translate(449.260125 131.290287) scale(0.1 -0.1)">
       <use xlink:href="#DejaVuSans-30"/>
       <use xlink:href="#DejaVuSans-2e" transform="translate(63.623047 0)"/>
       <use xlink:href="#DejaVuSans-36" transform="translate(95.410156 0)"/>
      </g>
     </g>
    </g>
    <g id="ytick_9">
     <g id="line2d_25">
      <g>
       <use xlink:href="#m2d9698f794" x="472.16325" y="91.068552" style="stroke: #000000; stroke-width: 0.8"/>
      </g>
     </g>
     <g id="text_29">
      <!-- 0.8 -->
      <g transform="translate(449.260125 94.867771) scale(0.1 -0.1)">
       <use xlink:href="#DejaVuSans-30"/>
       <use xlink:href="#DejaVuSans-2e" transform="translate(63.623047 0)"/>
       <use xlink:href="#DejaVuSans-38" transform="translate(95.410156 0)"/>
      </g>
     </g>
    </g>
    <g id="ytick_10">
     <g id="line2d_26">
      <g>
       <use xlink:href="#m2d9698f794" x="472.16325" y="54.646036" style="stroke: #000000; stroke-width: 0.8"/>
      </g>
     </g>
     <g id="text_30">
      <!-- 1.0 -->
      <g transform="translate(449.260125 58.445255) scale(0.1 -0.1)">
       <use xlink:href="#DejaVuSans-31"/>
       <use xlink:href="#DejaVuSans-2e" transform="translate(63.623047 0)"/>
       <use xlink:href="#DejaVuSans-30" transform="translate(95.410156 0)"/>
      </g>
     </g>
    </g>
    <g id="ytick_11">
     <g id="line2d_27">
      <g>
       <use xlink:href="#m2d9698f794" x="472.16325" y="18.22352" style="stroke: #000000; stroke-width: 0.8"/>
      </g>
     </g>
     <g id="text_31">
      <!-- 1.2 -->
      <g transform="translate(449.260125 22.022738) scale(0.1 -0.1)">
       <use xlink:href="#DejaVuSans-31"/>
       <use xlink:href="#DejaVuSans-2e" transform="translate(63.623047 0)"/>
       <use xlink:href="#DejaVuSans-32" transform="translate(95.410156 0)"/>
      </g>
     </g>
    </g>
    <g id="text_32">
     <!-- NPQ  -->
     <g transform="translate(431.982625 135.218723) rotate(-90) scale(0.1 -0.1)">
      <defs>
       <path id="DejaVuSans-4e" d="M 628 4666 
L 1478 4666 
L 3547 763 
L 3547 4666 
L 4159 4666 
L 4159 0 
L 3309 0 
L 1241 3903 
L 1241 0 
L 628 0 
L 628 4666 
z
" transform="scale(0.015625)"/>
      </defs>
      <use xlink:href="#DejaVuSans-4e"/>
      <use xlink:href="#DejaVuSans-50" transform="translate(74.804688 0)"/>
      <use xlink:href="#DejaVuSans-51" transform="translate(135.107422 0)"/>
      <use xlink:href="#DejaVuSans-20" transform="translate(213.818359 0)"/>
     </g>
     <!--  ChlF (rel. units) -->
     <g transform="translate(443.180437 162.821067) rotate(-90) scale(0.1 -0.1)">
      <defs>
       <path id="DejaVuSans-46" d="M 628 4666 
L 3309 4666 
L 3309 4134 
L 1259 4134 
L 1259 2759 
L 3109 2759 
L 3109 2228 
L 1259 2228 
L 1259 0 
L 628 0 
L 628 4666 
z
" transform="scale(0.015625)"/>
      </defs>
      <use xlink:href="#DejaVuSans-20"/>
      <use xlink:href="#DejaVuSans-43" transform="translate(31.787109 0)"/>
      <use xlink:href="#DejaVuSans-68" transform="translate(101.611328 0)"/>
      <use xlink:href="#DejaVuSans-6c" transform="translate(164.990234 0)"/>
      <use xlink:href="#DejaVuSans-46" transform="translate(192.773438 0)"/>
      <use xlink:href="#DejaVuSans-20" transform="translate(250.292969 0)"/>
      <use xlink:href="#DejaVuSans-28" transform="translate(282.080078 0)"/>
      <use xlink:href="#DejaVuSans-72" transform="translate(321.09375 0)"/>
      <use xlink:href="#DejaVuSans-65" transform="translate(359.957031 0)"/>
      <use xlink:href="#DejaVuSans-6c" transform="translate(421.480469 0)"/>
      <use xlink:href="#DejaVuSans-2e" transform="translate(449.263672 0)"/>
      <use xlink:href="#DejaVuSans-20" transform="translate(481.050781 0)"/>
      <use xlink:href="#DejaVuSans-75" transform="translate(512.837891 0)"/>
      <use xlink:href="#DejaVuSans-6e" transform="translate(576.216797 0)"/>
      <use xlink:href="#DejaVuSans-69" transform="translate(639.595703 0)"/>
      <use xlink:href="#DejaVuSans-74" transform="translate(667.378906 0)"/>
      <use xlink:href="#DejaVuSans-73" transform="translate(706.587891 0)"/>
      <use xlink:href="#DejaVuSans-29" transform="translate(758.6875 0)"/>
     </g>
    </g>
   </g>
   <g id="line2d_28">
    <path d="M 478.672819 236.551204 
L 481.927603 235.44636 
L 485.182387 233.856959 
L 488.437172 232.013528 
L 491.691956 230.001133 
L 494.94674 227.862077 
L 498.201525 225.62155 
L 501.456309 223.29639 
L 504.711093 220.89879 
L 507.965877 218.438105 
L 511.220662 215.921834 
L 514.475446 213.356186 
L 517.73023 210.746437 
L 520.985015 208.097161 
L 524.239799 205.412384 
L 527.494583 202.695695 
L 530.749368 199.950322 
L 534.004152 197.179196 
L 537.258936 194.384991 
L 540.513721 191.570163 
L 543.768505 188.736977 
L 547.023289 185.887525 
L 550.278074 183.023754 
L 553.532858 180.147472 
L 556.787642 177.26037 
L 560.042426 174.364027 
L 563.297211 171.459924 
L 566.551995 168.549452 
L 569.806779 165.633921 
L 573.061564 162.714565 
L 576.316348 159.792551 
L 579.571132 156.868984 
L 582.825917 153.944911 
L 586.080701 151.021331 
L 589.335485 148.099193 
L 592.59027 145.179406 
L 595.845054 142.262841 
L 599.099838 139.350333 
L 602.354623 136.442688 
L 605.609407 133.540685 
L 608.864191 130.645081 
L 612.118975 127.756609 
L 615.37376 124.875987 
L 618.628544 122.00392 
L 621.883328 119.141099 
L 625.138113 116.288208 
L 628.392897 113.445926 
L 631.647681 110.614928 
L 634.902466 107.795892 
L 638.15725 104.989496 
L 641.412034 102.196425 
L 644.666819 99.417374 
L 647.921603 96.65305 
L 651.176387 93.904176 
L 654.431172 91.171496 
L 657.685956 88.455773 
L 660.94074 85.7578 
L 664.195525 83.078401 
L 667.450309 80.418436 
L 670.705093 77.778804 
L 673.959877 75.160453 
L 677.214662 72.564382 
L 680.469446 69.991648 
L 683.72423 67.443375 
L 686.979015 64.920761 
L 690.233799 62.425084 
L 693.488583 59.957716 
L 696.743368 57.520133 
L 699.998152 55.113922 
L 703.252936 52.740797 
L 706.507721 50.402615 
L 709.762505 48.101389 
L 713.017289 45.839302 
L 716.272074 43.618727 
L 719.526858 41.442244 
L 722.781642 39.31266 
L 726.036426 37.23302 
L 729.291211 35.206631 
L 732.545995 33.237066 
L 735.800779 31.32817 
L 739.055564 29.484055 
L 742.310348 27.709081 
L 745.565132 26.007807 
L 748.819917 24.384927 
L 752.074701 22.845159 
L 755.329485 21.393098 
L 758.58427 20.033017 
L 761.839054 18.768629 
L 765.093838 17.602808 
L 768.348623 16.537303 
L 771.603407 15.572478 
L 774.858191 14.707117 
L 778.112975 13.938337 
L 781.36776 13.261652 
L 784.622544 12.671171 
L 787.877328 12.159925 
L 791.132113 11.720258 
L 794.386897 11.344239 
L 797.641681 11.024031 
L 800.896466 10.752178 
" clip-path="url(#p5472158b55)" style="fill: none; stroke: #e29c23; stroke-width: 2; stroke-linecap: square"/>
   </g>
   <g id="line2d_29">
    <path d="M 478.672819 186.834699 
L 481.927603 184.583025 
L 485.182387 182.932242 
L 488.437172 181.643188 
L 491.691956 180.607104 
L 494.94674 179.760555 
L 498.201525 179.061937 
L 501.456309 178.482007 
L 504.711093 177.999217 
L 507.965877 177.597123 
L 511.220662 177.262834 
L 514.475446 176.986024 
L 517.73023 176.758275 
L 520.985015 176.572629 
L 524.239799 176.423264 
L 527.494583 176.305267 
L 530.749368 176.214451 
L 534.004152 176.147233 
L 537.258936 176.100521 
L 540.513721 176.07164 
L 543.768505 176.058266 
L 547.023289 176.05837 
L 550.278074 176.070179 
L 553.532858 176.092138 
L 556.787642 176.122879 
L 560.042426 176.161202 
L 563.297211 176.206045 
L 566.551995 176.256472 
L 569.806779 176.311658 
L 573.061564 176.37087 
L 576.316348 176.43346 
L 579.571132 176.498854 
L 582.825917 176.566543 
L 586.080701 176.636075 
L 589.335485 176.707049 
L 592.59027 176.779108 
L 595.845054 176.851936 
L 599.099838 176.925252 
L 602.354623 176.998803 
L 605.609407 177.072367 
L 608.864191 177.145746 
L 612.118975 177.21876 
L 615.37376 177.291253 
L 618.628544 177.363082 
L 621.883328 177.43412 
L 625.138113 177.504254 
L 628.392897 177.573381 
L 631.647681 177.641408 
L 634.902466 177.708252 
L 638.15725 177.773836 
L 641.412034 177.83809 
L 644.666819 177.900951 
L 647.921603 177.962357 
L 651.176387 178.022253 
L 654.431172 178.080585 
L 657.685956 178.137302 
L 660.94074 178.192355 
L 664.195525 178.245694 
L 667.450309 178.297271 
L 670.705093 178.347036 
L 673.959877 178.394939 
L 677.214662 178.440927 
L 680.469446 178.484947 
L 683.72423 178.526939 
L 686.979015 178.566842 
L 690.233799 178.60459 
L 693.488583 178.64011 
L 696.743368 178.673325 
L 699.998152 178.704147 
L 703.252936 178.732484 
L 706.507721 178.758232 
L 709.762505 178.781276 
L 713.017289 178.801491 
L 716.272074 178.818737 
L 719.526858 178.83286 
L 722.781642 178.84369 
L 726.036426 178.851038 
L 729.291211 178.854696 
L 732.545995 178.854439 
L 735.800779 178.850016 
L 739.055564 178.84116 
L 742.310348 178.827579 
L 745.565132 178.808968 
L 748.819917 178.785007 
L 752.074701 178.755367 
L 755.329485 178.719728 
L 758.58427 178.677784 
L 761.839054 178.629264 
L 765.093838 178.573951 
L 768.348623 178.511705 
L 771.603407 178.442482 
L 774.858191 178.366346 
L 778.112975 178.283483 
L 781.36776 178.194197 
L 784.622544 178.098896 
L 787.877328 177.99807 
L 791.132113 177.892266 
L 794.386897 177.782055 
L 797.641681 177.668011 
L 800.896466 177.55068 
" clip-path="url(#p5472158b55)" style="fill: none; stroke: #5b82b5; stroke-width: 2; stroke-linecap: square"/>
   </g>
   <g id="patch_15">
    <path d="M 472.16325 236.758618 
L 472.16325 9.11789 
" style="fill: none; stroke: #000000; stroke-width: 0.8; stroke-linejoin: miter; stroke-linecap: square"/>
   </g>
   <g id="patch_16">
    <path d="M 804.15125 236.758618 
L 804.15125 9.11789 
" style="fill: none; stroke: #000000; stroke-width: 0.8; stroke-linejoin: miter; stroke-linecap: square"/>
   </g>
   <g id="patch_17">
    <path d="M 472.16325 236.758618 
L 804.15125 236.758618 
" style="fill: none; stroke: #000000; stroke-width: 0.8; stroke-linejoin: miter; stroke-linecap: square"/>
   </g>
   <g id="patch_18">
    <path d="M 472.16325 9.11789 
L 804.15125 9.11789 
" style="fill: none; stroke: #000000; stroke-width: 0.8; stroke-linejoin: miter; stroke-linecap: square"/>
   </g>
   <g id="legend_2">
    <g id="patch_19">
     <path d="M 714.75125 196.769555 
L 724.75125 196.769555 
L 724.75125 187.819555 
L 714.75125 187.819555 
z
" style="stroke: #000000; stroke-linejoin: miter"/>
    </g>
    <g id="text_33">
     <!-- O$_2$ evolution -->
     <g transform="translate(732.75125 195.719555) scale(0.1 -0.1)">
      <use xlink:href="#DejaVuSans-4f" transform="translate(0 0.015625)"/>
      <use xlink:href="#DejaVuSans-32" transform="translate(79.667969 -16.390625) scale(0.7)"/>
      <use xlink:href="#DejaVuSans-20" transform="translate(126.938477 0.015625)"/>
      <use xlink:href="#DejaVuSans-65" transform="translate(158.725586 0.015625)"/>
      <use xlink:href="#DejaVuSans-76" transform="translate(220.249023 0.015625)"/>
      <use xlink:href="#DejaVuSans-6f" transform="translate(279.428711 0.015625)"/>
      <use xlink:href="#DejaVuSans-6c" transform="translate(340.610352 0.015625)"/>
      <use xlink:href="#DejaVuSans-75" transform="translate(368.393555 0.015625)"/>
      <use xlink:href="#DejaVuSans-74" transform="translate(431.772461 0.015625)"/>
      <use xlink:href="#DejaVuSans-69" transform="translate(470.981445 0.015625)"/>
      <use xlink:href="#DejaVuSans-6f" transform="translate(498.764648 0.015625)"/>
      <use xlink:href="#DejaVuSans-6e" transform="translate(559.946289 0.015625)"/>
     </g>
    </g>
    <g id="patch_20">
     <path d="M 714.75125 211.749243 
L 724.75125 211.749243 
L 724.75125 202.799243 
L 714.75125 202.799243 
z
" style="fill: #e29c23; stroke: #e29c23; stroke-linejoin: miter"/>
    </g>
    <g id="text_34">
     <!-- NPQ -->
     <g transform="translate(732.75125 210.699243) scale(0.1 -0.1)">
      <use xlink:href="#DejaVuSans-4e"/>
      <use xlink:href="#DejaVuSans-50" transform="translate(74.804688 0)"/>
      <use xlink:href="#DejaVuSans-51" transform="translate(135.107422 0)"/>
     </g>
    </g>
    <g id="patch_21">
     <path d="M 714.75125 226.72893 
L 724.75125 226.72893 
L 724.75125 217.77893 
L 714.75125 217.77893 
z
" style="fill: #5b82b5; stroke: #5b82b5; stroke-linejoin: miter"/>
    </g>
    <g id="text_35">
     <!-- ChlF -->
     <g transform="translate(732.75125 225.67893) scale(0.1 -0.1)">
      <use xlink:href="#DejaVuSans-43"/>
      <use xlink:href="#DejaVuSans-68" transform="translate(69.824219 0)"/>
      <use xlink:href="#DejaVuSans-6c" transform="translate(133.203125 0)"/>
      <use xlink:href="#DejaVuSans-46" transform="translate(160.986328 0)"/>
     </g>
    </g>
   </g>
  </g>
  <g id="axes_3">
   <g id="matplotlib.axis_5">
    <g id="ytick_12">
     <g id="line2d_30">
      <defs>
       <path id="mcf22f9a880" d="M 0 0 
L 3.5 0 
" style="stroke: #000000; stroke-width: 0.8"/>
      </defs>
      <g>
       <use xlink:href="#mcf22f9a880" x="375.76925" y="186.171789" style="stroke: #000000; stroke-width: 0.8"/>
      </g>
     </g>
     <g id="text_36">
      <!-- 5.4 -->
      <g transform="translate(382.76925 189.971008) scale(0.1 -0.1)">
       <defs>
        <path id="DejaVuSans-35" d="M 691 4666 
L 3169 4666 
L 3169 4134 
L 1269 4134 
L 1269 2991 
Q 1406 3038 1543 3061 
Q 1681 3084 1819 3084 
Q 2600 3084 3056 2656 
Q 3513 2228 3513 1497 
Q 3513 744 3044 326 
Q 2575 -91 1722 -91 
Q 1428 -91 1123 -41 
Q 819 9 494 109 
L 494 744 
Q 775 591 1075 516 
Q 1375 441 1709 441 
Q 2250 441 2565 725 
Q 2881 1009 2881 1497 
Q 2881 1984 2565 2268 
Q 2250 2553 1709 2553 
Q 1456 2553 1204 2497 
Q 953 2441 691 2322 
L 691 4666 
z
" transform="scale(0.015625)"/>
       </defs>
       <use xlink:href="#DejaVuSans-35"/>
       <use xlink:href="#DejaVuSans-2e" transform="translate(63.623047 0)"/>
       <use xlink:href="#DejaVuSans-34" transform="translate(95.410156 0)"/>
      </g>
     </g>
    </g>
    <g id="ytick_13">
     <g id="line2d_31">
      <g>
       <use xlink:href="#mcf22f9a880" x="375.76925" y="135.584961" style="stroke: #000000; stroke-width: 0.8"/>
      </g>
     </g>
     <g id="text_37">
      <!-- 5.8 -->
      <g transform="translate(382.76925 139.38418) scale(0.1 -0.1)">
       <use xlink:href="#DejaVuSans-35"/>
       <use xlink:href="#DejaVuSans-2e" transform="translate(63.623047 0)"/>
       <use xlink:href="#DejaVuSans-38" transform="translate(95.410156 0)"/>
      </g>
     </g>
    </g>
    <g id="ytick_14">
     <g id="line2d_32">
      <g>
       <use xlink:href="#mcf22f9a880" x="375.76925" y="84.998133" style="stroke: #000000; stroke-width: 0.8"/>
      </g>
     </g>
     <g id="text_38">
      <!-- 6.2 -->
      <g transform="translate(382.76925 88.797352) scale(0.1 -0.1)">
       <use xlink:href="#DejaVuSans-36"/>
       <use xlink:href="#DejaVuSans-2e" transform="translate(63.623047 0)"/>
       <use xlink:href="#DejaVuSans-32" transform="translate(95.410156 0)"/>
      </g>
     </g>
    </g>
    <g id="ytick_15">
     <g id="line2d_33">
      <g>
       <use xlink:href="#mcf22f9a880" x="375.76925" y="34.411305" style="stroke: #000000; stroke-width: 0.8"/>
      </g>
     </g>
     <g id="text_39">
      <!-- 6.6 -->
      <g transform="translate(382.76925 38.210523) scale(0.1 -0.1)">
       <use xlink:href="#DejaVuSans-36"/>
       <use xlink:href="#DejaVuSans-2e" transform="translate(63.623047 0)"/>
       <use xlink:href="#DejaVuSans-36" transform="translate(95.410156 0)"/>
      </g>
     </g>
    </g>
    <g id="text_40">
     <!-- Lumen pH -->
     <g transform="translate(410.270812 148.444504) rotate(-90) scale(0.1 -0.1)">
      <use xlink:href="#DejaVuSans-4c"/>
      <use xlink:href="#DejaVuSans-75" transform="translate(53.962891 0)"/>
      <use xlink:href="#DejaVuSans-6d" transform="translate(117.341797 0)"/>
      <use xlink:href="#DejaVuSans-65" transform="translate(214.753906 0)"/>
      <use xlink:href="#DejaVuSans-6e" transform="translate(276.277344 0)"/>
      <use xlink:href="#DejaVuSans-20" transform="translate(339.65625 0)"/>
      <use xlink:href="#DejaVuSans-70" transform="translate(371.443359 0)"/>
      <use xlink:href="#DejaVuSans-48" transform="translate(434.919922 0)"/>
     </g>
    </g>
   </g>
   <g id="line2d_34">
    <path d="M 50.290819 19.183544 
L 53.545603 38.35156 
L 56.800387 46.647984 
L 60.055172 51.830153 
L 63.309956 55.587882 
L 66.56474 58.538678 
L 69.819525 60.973073 
L 73.074309 63.049888 
L 76.329093 64.865063 
L 79.583877 66.480853 
L 82.838662 67.939887 
L 86.093446 69.27261 
L 89.34823 70.501511 
L 92.603015 71.643668 
L 95.857799 72.712358 
L 99.112583 73.718108 
L 102.367368 74.669407 
L 105.622152 75.573204 
L 108.876936 76.435264 
L 112.131721 77.260423 
L 115.386505 78.052782 
L 118.641289 78.815853 
L 121.896074 79.552668 
L 125.150858 80.265865 
L 128.405642 80.95776 
L 131.660426 81.630395 
L 134.915211 82.285588 
L 138.169995 82.92496 
L 141.424779 83.549974 
L 144.679564 84.16195 
L 147.934348 84.762089 
L 151.189132 85.351489 
L 154.443917 85.931159 
L 157.698701 86.502031 
L 160.953485 87.064969 
L 164.20827 87.620782 
L 167.463054 88.170224 
L 170.717838 88.714009 
L 173.972623 89.252811 
L 177.227407 89.787273 
L 180.482191 90.318008 
L 183.736975 90.845608 
L 186.99176 91.370643 
L 190.246544 91.893667 
L 193.501328 92.415223 
L 196.756113 92.935841 
L 200.010897 93.456048 
L 203.265681 93.976362 
L 206.520466 94.497304 
L 209.77525 95.019393 
L 213.030034 95.543154 
L 216.284819 96.069119 
L 219.539603 96.597826 
L 222.794387 97.12983 
L 226.049172 97.665696 
L 229.303956 98.206011 
L 232.55874 98.751381 
L 235.813525 99.302437 
L 239.068309 99.859839 
L 242.323093 100.42428 
L 245.577877 100.996486 
L 248.832662 101.577227 
L 252.087446 102.167318 
L 255.34223 102.767626 
L 258.597015 103.379073 
L 261.851799 104.002647 
L 265.106583 104.639404 
L 268.361368 105.290479 
L 271.616152 105.957094 
L 274.870936 106.640563 
L 278.125721 107.342305 
L 281.380505 108.06385 
L 284.635289 108.806853 
L 287.890074 109.573097 
L 291.144858 110.364505 
L 294.399642 111.183147 
L 297.654426 112.03124 
L 300.909211 112.911151 
L 304.163995 113.825388 
L 307.418779 114.776583 
L 310.673564 115.767464 
L 313.928348 116.800801 
L 317.183132 117.879345 
L 320.437917 119.005718 
L 323.692701 120.182292 
L 326.947485 121.411011 
L 330.20227 122.693199 
L 333.457054 124.029325 
L 336.711838 125.418778 
L 339.966623 126.859654 
L 343.221407 128.348614 
L 346.476191 129.880838 
L 349.730975 131.450113 
L 352.98576 133.049073 
L 356.240544 134.669549 
L 359.495328 136.303005 
L 362.750113 137.940988 
L 366.004897 139.575525 
L 369.259681 141.199429 
L 372.514466 142.806496 
" clip-path="url(#pf8b6d6e89f)" style="fill: none; stroke: #000000; stroke-width: 2; stroke-linecap: square"/>
   </g>
   <g id="patch_22">
    <path d="M 43.78125 236.758618 
L 43.78125 9.11789 
" style="fill: none; stroke: #000000; stroke-width: 0.8; stroke-linejoin: miter; stroke-linecap: square"/>
   </g>
   <g id="patch_23">
    <path d="M 375.76925 236.758618 
L 375.76925 9.11789 
" style="fill: none; stroke: #000000; stroke-width: 0.8; stroke-linejoin: miter; stroke-linecap: square"/>
   </g>
   <g id="patch_24">
    <path d="M 43.78125 236.758618 
L 375.76925 236.758618 
" style="fill: none; stroke: #000000; stroke-width: 0.8; stroke-linejoin: miter; stroke-linecap: square"/>
   </g>
   <g id="patch_25">
    <path d="M 43.78125 9.11789 
L 375.76925 9.11789 
" style="fill: none; stroke: #000000; stroke-width: 0.8; stroke-linejoin: miter; stroke-linecap: square"/>
   </g>
  </g>
  <g id="axes_4">
   <g id="matplotlib.axis_6">
    <g id="ytick_16">
     <g id="line2d_35">
      <g>
       <use xlink:href="#mcf22f9a880" x="804.15125" y="236.758618" style="stroke: #000000; stroke-width: 0.8"/>
      </g>
     </g>
     <g id="text_41">
      <!-- 0 -->
      <g transform="translate(811.15125 240.557836) scale(0.1 -0.1)">
       <use xlink:href="#DejaVuSans-30"/>
      </g>
     </g>
    </g>
    <g id="ytick_17">
     <g id="line2d_36">
      <g>
       <use xlink:href="#mcf22f9a880" x="804.15125" y="199.132051" style="stroke: #000000; stroke-width: 0.8"/>
      </g>
     </g>
     <g id="text_42">
      <!-- 20 -->
      <g transform="translate(811.15125 202.93127) scale(0.1 -0.1)">
       <use xlink:href="#DejaVuSans-32"/>
       <use xlink:href="#DejaVuSans-30" transform="translate(63.623047 0)"/>
      </g>
     </g>
    </g>
    <g id="ytick_18">
     <g id="line2d_37">
      <g>
       <use xlink:href="#mcf22f9a880" x="804.15125" y="161.505485" style="stroke: #000000; stroke-width: 0.8"/>
      </g>
     </g>
     <g id="text_43">
      <!-- 40 -->
      <g transform="translate(811.15125 165.304703) scale(0.1 -0.1)">
       <use xlink:href="#DejaVuSans-34"/>
       <use xlink:href="#DejaVuSans-30" transform="translate(63.623047 0)"/>
      </g>
     </g>
    </g>
    <g id="ytick_19">
     <g id="line2d_38">
      <g>
       <use xlink:href="#mcf22f9a880" x="804.15125" y="123.878918" style="stroke: #000000; stroke-width: 0.8"/>
      </g>
     </g>
     <g id="text_44">
      <!-- 60 -->
      <g transform="translate(811.15125 127.678137) scale(0.1 -0.1)">
       <use xlink:href="#DejaVuSans-36"/>
       <use xlink:href="#DejaVuSans-30" transform="translate(63.623047 0)"/>
      </g>
     </g>
    </g>
    <g id="ytick_20">
     <g id="line2d_39">
      <g>
       <use xlink:href="#mcf22f9a880" x="804.15125" y="86.252352" style="stroke: #000000; stroke-width: 0.8"/>
      </g>
     </g>
     <g id="text_45">
      <!-- 80 -->
      <g transform="translate(811.15125 90.05157) scale(0.1 -0.1)">
       <use xlink:href="#DejaVuSans-38"/>
       <use xlink:href="#DejaVuSans-30" transform="translate(63.623047 0)"/>
      </g>
     </g>
    </g>
    <g id="ytick_21">
     <g id="line2d_40">
      <g>
       <use xlink:href="#mcf22f9a880" x="804.15125" y="48.625785" style="stroke: #000000; stroke-width: 0.8"/>
      </g>
     </g>
     <g id="text_46">
      <!-- 100 -->
      <g transform="translate(811.15125 52.425004) scale(0.1 -0.1)">
       <use xlink:href="#DejaVuSans-31"/>
       <use xlink:href="#DejaVuSans-30" transform="translate(63.623047 0)"/>
       <use xlink:href="#DejaVuSans-30" transform="translate(127.246094 0)"/>
      </g>
     </g>
    </g>
    <g id="ytick_22">
     <g id="line2d_41">
      <g>
       <use xlink:href="#mcf22f9a880" x="804.15125" y="10.999219" style="stroke: #000000; stroke-width: 0.8"/>
      </g>
     </g>
     <g id="text_47">
      <!-- 120 -->
      <g transform="translate(811.15125 14.798438) scale(0.1 -0.1)">
       <use xlink:href="#DejaVuSans-31"/>
       <use xlink:href="#DejaVuSans-32" transform="translate(63.623047 0)"/>
       <use xlink:href="#DejaVuSans-30" transform="translate(127.246094 0)"/>
      </g>
     </g>
    </g>
    <g id="text_48">
     <!-- O$_2$ rate \n (mol O$_2$ $\cdot$ mol PSIIRC$^{-1}$ $\cdot$ s$^{-1}$) -->
     <g transform="translate(842.859062 220.088254) rotate(-90) scale(0.1 -0.1)">
      <defs>
       <path id="DejaVuSans-5c" d="M 531 4666 
L 2156 -594 
L 1625 -594 
L 0 4666 
L 531 4666 
z
" transform="scale(0.015625)"/>
       <path id="DejaVuSans-53" d="M 3425 4513 
L 3425 3897 
Q 3066 4069 2747 4153 
Q 2428 4238 2131 4238 
Q 1616 4238 1336 4038 
Q 1056 3838 1056 3469 
Q 1056 3159 1242 3001 
Q 1428 2844 1947 2747 
L 2328 2669 
Q 3034 2534 3370 2195 
Q 3706 1856 3706 1288 
Q 3706 609 3251 259 
Q 2797 -91 1919 -91 
Q 1588 -91 1214 -16 
Q 841 59 441 206 
L 441 856 
Q 825 641 1194 531 
Q 1563 422 1919 422 
Q 2459 422 2753 634 
Q 3047 847 3047 1241 
Q 3047 1584 2836 1778 
Q 2625 1972 2144 2069 
L 1759 2144 
Q 1053 2284 737 2584 
Q 422 2884 422 3419 
Q 422 4038 858 4394 
Q 1294 4750 2059 4750 
Q 2388 4750 2728 4690 
Q 3069 4631 3425 4513 
z
" transform="scale(0.015625)"/>
      </defs>
      <use xlink:href="#DejaVuSans-4f" transform="translate(0 0.684375)"/>
      <use xlink:href="#DejaVuSans-32" transform="translate(79.667969 -15.721875) scale(0.7)"/>
      <use xlink:href="#DejaVuSans-20" transform="translate(126.938477 0.684375)"/>
      <use xlink:href="#DejaVuSans-72" transform="translate(158.725586 0.684375)"/>
      <use xlink:href="#DejaVuSans-61" transform="translate(199.838867 0.684375)"/>
      <use xlink:href="#DejaVuSans-74" transform="translate(261.118164 0.684375)"/>
      <use xlink:href="#DejaVuSans-65" transform="translate(300.327148 0.684375)"/>
      <use xlink:href="#DejaVuSans-20" transform="translate(361.850586 0.684375)"/>
      <use xlink:href="#DejaVuSans-5c" transform="translate(393.637695 0.684375)"/>
      <use xlink:href="#DejaVuSans-6e" transform="translate(427.329102 0.684375)"/>
      <use xlink:href="#DejaVuSans-20" transform="translate(490.708008 0.684375)"/>
      <use xlink:href="#DejaVuSans-28" transform="translate(522.495117 0.684375)"/>
      <use xlink:href="#DejaVuSans-6d" transform="translate(561.508789 0.684375)"/>
      <use xlink:href="#DejaVuSans-6f" transform="translate(658.920898 0.684375)"/>
      <use xlink:href="#DejaVuSans-6c" transform="translate(720.102539 0.684375)"/>
      <use xlink:href="#DejaVuSans-20" transform="translate(747.885742 0.684375)"/>
      <use xlink:href="#DejaVuSans-4f" transform="translate(779.672852 0.684375)"/>
      <use xlink:href="#DejaVuSans-32" transform="translate(859.34082 -15.721875) scale(0.7)"/>
      <use xlink:href="#DejaVuSans-20" transform="translate(906.611328 0.684375)"/>
      <use xlink:href="#DejaVuSans-22c5" transform="translate(938.398438 0.684375)"/>
      <use xlink:href="#DejaVuSans-20" transform="translate(970.185547 0.684375)"/>
      <use xlink:href="#DejaVuSans-6d" transform="translate(1001.972656 0.684375)"/>
      <use xlink:href="#DejaVuSans-6f" transform="translate(1099.384766 0.684375)"/>
      <use xlink:href="#DejaVuSans-6c" transform="translate(1160.566406 0.684375)"/>
      <use xlink:href="#DejaVuSans-20" transform="translate(1188.349609 0.684375)"/>
      <use xlink:href="#DejaVuSans-50" transform="translate(1220.136719 0.684375)"/>
      <use xlink:href="#DejaVuSans-53" transform="translate(1280.439453 0.684375)"/>
      <use xlink:href="#DejaVuSans-49" transform="translate(1343.916016 0.684375)"/>
      <use xlink:href="#DejaVuSans-49" transform="translate(1373.408203 0.684375)"/>
      <use xlink:href="#DejaVuSans-52" transform="translate(1402.900391 0.684375)"/>
      <use xlink:href="#DejaVuSans-43" transform="translate(1472.382812 0.684375)"/>
      <use xlink:href="#DejaVuSans-2212" transform="translate(1543.164062 38.965625) scale(0.7)"/>
      <use xlink:href="#DejaVuSans-31" transform="translate(1601.816406 38.965625) scale(0.7)"/>
      <use xlink:href="#DejaVuSans-20" transform="translate(1649.086914 0.684375)"/>
      <use xlink:href="#DejaVuSans-22c5" transform="translate(1680.874023 0.684375)"/>
      <use xlink:href="#DejaVuSans-20" transform="translate(1712.661133 0.684375)"/>
      <use xlink:href="#DejaVuSans-73" transform="translate(1744.448242 0.684375)"/>
      <use xlink:href="#DejaVuSans-2212" transform="translate(1797.504883 38.965625) scale(0.7)"/>
      <use xlink:href="#DejaVuSans-31" transform="translate(1856.157227 38.965625) scale(0.7)"/>
      <use xlink:href="#DejaVuSans-29" transform="translate(1903.427734 0.684375)"/>
     </g>
    </g>
   </g>
   <g id="line2d_42">
    <path d="M 478.672819 232.174175 
L 481.927603 227.762633 
L 485.182387 223.512889 
L 488.437172 219.413503 
L 491.691956 215.455221 
L 494.94674 211.630442 
L 498.201525 207.932644 
L 501.456309 204.356025 
L 504.711093 200.89528 
L 507.965877 197.545472 
L 511.220662 194.30195 
L 514.475446 191.160296 
L 517.73023 188.116291 
L 520.985015 185.165898 
L 524.239799 182.305245 
L 527.494583 179.530613 
L 530.749368 176.838432 
L 534.004152 174.225275 
L 537.258936 171.68785 
L 540.513721 169.222997 
L 543.768505 166.827689 
L 547.023289 164.499018 
L 550.278074 162.234201 
L 553.532858 160.03057 
L 556.787642 157.885572 
L 560.042426 155.796759 
L 563.297211 153.761792 
L 566.551995 151.778432 
L 569.806779 149.844534 
L 573.061564 147.958051 
L 576.316348 146.11702 
L 579.571132 144.319567 
L 582.825917 142.563896 
L 586.080701 140.848291 
L 589.335485 139.171108 
L 592.59027 137.530774 
L 595.845054 135.925782 
L 599.099838 134.35469 
L 602.354623 132.816114 
L 605.609407 131.308727 
L 608.864191 129.831258 
L 612.118975 128.382485 
L 615.37376 126.961233 
L 618.628544 125.566375 
L 621.883328 124.196824 
L 625.138113 122.851534 
L 628.392897 121.529496 
L 631.647681 120.229738 
L 634.902466 118.951316 
L 638.15725 117.693322 
L 641.412034 116.454871 
L 644.666819 115.235107 
L 647.921603 114.033197 
L 651.176387 112.848329 
L 654.431172 111.679709 
L 657.685956 110.526562 
L 660.94074 109.388128 
L 664.195525 108.263658 
L 667.450309 107.152415 
L 670.705093 106.053668 
L 673.959877 104.966695 
L 677.214662 103.890773 
L 680.469446 102.825182 
L 683.72423 101.769201 
L 686.979015 100.722099 
L 690.233799 99.683141 
L 693.488583 98.651577 
L 696.743368 97.626644 
L 699.998152 96.607557 
L 703.252936 95.593509 
L 706.507721 94.583662 
L 709.762505 93.577145 
L 713.017289 92.57305 
L 716.272074 91.570423 
L 719.526858 90.568258 
L 722.781642 89.565493 
L 726.036426 88.561005 
L 729.291211 87.553599 
L 732.545995 86.542012 
L 735.800779 85.524902 
L 739.055564 84.500852 
L 742.310348 83.468374 
L 745.565132 82.425918 
L 748.819917 81.371891 
L 752.074701 80.304682 
L 755.329485 79.222707 
L 758.58427 78.124459 
L 761.839054 77.008579 
L 765.093838 75.873931 
L 768.348623 74.71969 
L 771.603407 73.545417 
L 774.858191 72.351122 
L 778.112975 71.137295 
L 781.36776 69.904895 
L 784.622544 68.655305 
L 787.877328 67.390238 
L 791.132113 66.111638 
L 794.386897 64.821557 
L 797.641681 63.522054 
L 800.896466 62.215104 
" clip-path="url(#p5472158b55)" style="fill: none; stroke: #000000; stroke-width: 2; stroke-linecap: square"/>
   </g>
   <g id="patch_26">
    <path d="M 472.16325 236.758618 
L 472.16325 9.11789 
" style="fill: none; stroke: #000000; stroke-width: 0.8; stroke-linejoin: miter; stroke-linecap: square"/>
   </g>
   <g id="patch_27">
    <path d="M 804.15125 236.758618 
L 804.15125 9.11789 
" style="fill: none; stroke: #000000; stroke-width: 0.8; stroke-linejoin: miter; stroke-linecap: square"/>
   </g>
   <g id="patch_28">
    <path d="M 472.16325 236.758618 
L 804.15125 236.758618 
" style="fill: none; stroke: #000000; stroke-width: 0.8; stroke-linejoin: miter; stroke-linecap: square"/>
   </g>
   <g id="patch_29">
    <path d="M 472.16325 9.11789 
L 804.15125 9.11789 
" style="fill: none; stroke: #000000; stroke-width: 0.8; stroke-linejoin: miter; stroke-linecap: square"/>
   </g>
  </g>
 </g>
 <defs>
  <clipPath id="pf8b6d6e89f">
   <rect x="43.78125" y="9.11789" width="331.988" height="227.640727"/>
  </clipPath>
  <clipPath id="p5472158b55">
   <rect x="472.16325" y="9.11789" width="331.988" height="227.640727"/>
  </clipPath>
 </defs>
</svg>
