<?xml version="1.0" encoding="utf-8" standalone="no"?>
<!DOCTYPE svg PUBLIC "-//W3C//DTD SVG 1.1//EN"
  "http://www.w3.org/Graphics/SVG/1.1/DTD/svg11.dtd">
<svg xmlns:xlink="http://www.w3.org/1999/xlink" width="761.36875pt" height="324.986435pt" viewBox="0 0 761.36875 324.986435" xmlns="http://www.w3.org/2000/svg" version="1.1">
 <metadata>
  <rdf:RDF xmlns:dc="http://purl.org/dc/elements/1.1/" xmlns:cc="http://creativecommons.org/ns#" xmlns:rdf="http://www.w3.org/1999/02/22-rdf-syntax-ns#">
   <cc:Work>
    <dc:type rdf:resource="http://purl.org/dc/dcmitype/StillImage"/>
    <dc:date>2026-01-23T08:41:13.638562</dc:date>
    <dc:format>image/svg+xml</dc:format>
    <dc:creator>
     <cc:Agent>
      <dc:title>Matplotlib v3.10.8, https://matplotlib.org/</dc:title>
     </cc:Agent>
    </dc:creator>
   </cc:Work>
  </rdf:RDF>
 </metadata>
 <defs>
  <style type="text/css">*{stroke-linejoin: round; stroke-linecap: butt}</style>
 </defs>
 <g id="figure_1">
  <g id="patch_1">
   <path d="M 0 324.986435 
L 761.36875 324.986435 
L 761.36875 0 
L 0 0 
z
" style="fill: #ffffff"/>
  </g>
  <g id="axes_1">
   <g id="patch_2">
    <path d="M 43.78125 285.90831 
L 348.144886 285.90831 
L 348.144886 8.70831 
L 43.78125 8.70831 
z
" style="fill: #ffffff"/>
   </g>
   <g id="patch_3">
    <path d="M 46.765207 299.508702 
L 61.684993 299.508702 
L 61.684993 -12.54765 
L 46.765207 -12.54765 
z
" clip-path="url(#paced989eab)" style="opacity: 0.1; stroke: #000000; stroke-linejoin: miter"/>
   </g>
   <g id="matplotlib.axis_1">
    <g id="xtick_1">
     <g id="line2d_1">
      <defs>
       <path id="mb13494c2ad" d="M 0 0 
L 0 3.5 
" style="stroke: #000000; stroke-width: 0.8"/>
      </defs>
      <g>
       <use xlink:href="#mb13494c2ad" x="46.765207" y="285.90831" style="stroke: #000000; stroke-width: 0.8"/>
      </g>
     </g>
     <g id="text_1">
      <!-- 0 -->
      <g transform="translate(43.583957 300.506747) scale(0.1 -0.1)">
       <defs>
        <path id="DejaVuSans-30" d="M 2034 4250 
Q 1547 4250 1301 3770 
Q 1056 3291 1056 2328 
Q 1056 1369 1301 889 
Q 1547 409 2034 409 
Q 2525 409 2770 889 
Q 3016 1369 3016 2328 
Q 3016 3291 2770 3770 
Q 2525 4250 2034 4250 
z
M 2034 4750 
Q 2819 4750 3233 4129 
Q 3647 3509 3647 2328 
Q 3647 1150 3233 529 
Q 2819 -91 2034 -91 
Q 1250 -91 836 529 
Q 422 1150 422 2328 
Q 422 3509 836 4129 
Q 1250 4750 2034 4750 
z
" transform="scale(0.015625)"/>
       </defs>
       <use xlink:href="#DejaVuSans-30"/>
      </g>
     </g>
    </g>
    <g id="xtick_2">
     <g id="line2d_2">
      <g>
       <use xlink:href="#mb13494c2ad" x="106.444352" y="285.90831" style="stroke: #000000; stroke-width: 0.8"/>
      </g>
     </g>
     <g id="text_2">
      <!-- 200 -->
      <g transform="translate(96.900602 300.506747) scale(0.1 -0.1)">
       <defs>
        <path id="DejaVuSans-32" d="M 1228 531 
L 3431 531 
L 3431 0 
L 469 0 
L 469 531 
Q 828 903 1448 1529 
Q 2069 2156 2228 2338 
Q 2531 2678 2651 2914 
Q 2772 3150 2772 3378 
Q 2772 3750 2511 3984 
Q 2250 4219 1831 4219 
Q 1534 4219 1204 4116 
Q 875 4013 500 3803 
L 500 4441 
Q 881 4594 1212 4672 
Q 1544 4750 1819 4750 
Q 2544 4750 2975 4387 
Q 3406 4025 3406 3419 
Q 3406 3131 3298 2873 
Q 3191 2616 2906 2266 
Q 2828 2175 2409 1742 
Q 1991 1309 1228 531 
z
" transform="scale(0.015625)"/>
       </defs>
       <use xlink:href="#DejaVuSans-32"/>
       <use xlink:href="#DejaVuSans-30" transform="translate(63.623047 0)"/>
       <use xlink:href="#DejaVuSans-30" transform="translate(127.246094 0)"/>
      </g>
     </g>
    </g>
    <g id="xtick_3">
     <g id="line2d_3">
      <g>
       <use xlink:href="#mb13494c2ad" x="166.123496" y="285.90831" style="stroke: #000000; stroke-width: 0.8"/>
      </g>
     </g>
     <g id="text_3">
      <!-- 400 -->
      <g transform="translate(156.579746 300.506747) scale(0.1 -0.1)">
       <defs>
        <path id="DejaVuSans-34" d="M 2419 4116 
L 825 1625 
L 2419 1625 
L 2419 4116 
z
M 2253 4666 
L 3047 4666 
L 3047 1625 
L 3713 1625 
L 3713 1100 
L 3047 1100 
L 3047 0 
L 2419 0 
L 2419 1100 
L 313 1100 
L 313 1709 
L 2253 4666 
z
" transform="scale(0.015625)"/>
       </defs>
       <use xlink:href="#DejaVuSans-34"/>
       <use xlink:href="#DejaVuSans-30" transform="translate(63.623047 0)"/>
       <use xlink:href="#DejaVuSans-30" transform="translate(127.246094 0)"/>
      </g>
     </g>
    </g>
    <g id="xtick_4">
     <g id="line2d_4">
      <g>
       <use xlink:href="#mb13494c2ad" x="225.80264" y="285.90831" style="stroke: #000000; stroke-width: 0.8"/>
      </g>
     </g>
     <g id="text_4">
      <!-- 600 -->
      <g transform="translate(216.25889 300.506747) scale(0.1 -0.1)">
       <defs>
        <path id="DejaVuSans-36" d="M 2113 2584 
Q 1688 2584 1439 2293 
Q 1191 2003 1191 1497 
Q 1191 994 1439 701 
Q 1688 409 2113 409 
Q 2538 409 2786 701 
Q 3034 994 3034 1497 
Q 3034 2003 2786 2293 
Q 2538 2584 2113 2584 
z
M 3366 4563 
L 3366 3988 
Q 3128 4100 2886 4159 
Q 2644 4219 2406 4219 
Q 1781 4219 1451 3797 
Q 1122 3375 1075 2522 
Q 1259 2794 1537 2939 
Q 1816 3084 2150 3084 
Q 2853 3084 3261 2657 
Q 3669 2231 3669 1497 
Q 3669 778 3244 343 
Q 2819 -91 2113 -91 
Q 1303 -91 875 529 
Q 447 1150 447 2328 
Q 447 3434 972 4092 
Q 1497 4750 2381 4750 
Q 2619 4750 2861 4703 
Q 3103 4656 3366 4563 
z
" transform="scale(0.015625)"/>
       </defs>
       <use xlink:href="#DejaVuSans-36"/>
       <use xlink:href="#DejaVuSans-30" transform="translate(63.623047 0)"/>
       <use xlink:href="#DejaVuSans-30" transform="translate(127.246094 0)"/>
      </g>
     </g>
    </g>
    <g id="xtick_5">
     <g id="line2d_5">
      <g>
       <use xlink:href="#mb13494c2ad" x="285.481785" y="285.90831" style="stroke: #000000; stroke-width: 0.8"/>
      </g>
     </g>
     <g id="text_5">
      <!-- 800 -->
      <g transform="translate(275.938035 300.506747) scale(0.1 -0.1)">
       <defs>
        <path id="DejaVuSans-38" d="M 2034 2216 
Q 1584 2216 1326 1975 
Q 1069 1734 1069 1313 
Q 1069 891 1326 650 
Q 1584 409 2034 409 
Q 2484 409 2743 651 
Q 3003 894 3003 1313 
Q 3003 1734 2745 1975 
Q 2488 2216 2034 2216 
z
M 1403 2484 
Q 997 2584 770 2862 
Q 544 3141 544 3541 
Q 544 4100 942 4425 
Q 1341 4750 2034 4750 
Q 2731 4750 3128 4425 
Q 3525 4100 3525 3541 
Q 3525 3141 3298 2862 
Q 3072 2584 2669 2484 
Q 3125 2378 3379 2068 
Q 3634 1759 3634 1313 
Q 3634 634 3220 271 
Q 2806 -91 2034 -91 
Q 1263 -91 848 271 
Q 434 634 434 1313 
Q 434 1759 690 2068 
Q 947 2378 1403 2484 
z
M 1172 3481 
Q 1172 3119 1398 2916 
Q 1625 2713 2034 2713 
Q 2441 2713 2670 2916 
Q 2900 3119 2900 3481 
Q 2900 3844 2670 4047 
Q 2441 4250 2034 4250 
Q 1625 4250 1398 4047 
Q 1172 3844 1172 3481 
z
" transform="scale(0.015625)"/>
       </defs>
       <use xlink:href="#DejaVuSans-38"/>
       <use xlink:href="#DejaVuSans-30" transform="translate(63.623047 0)"/>
       <use xlink:href="#DejaVuSans-30" transform="translate(127.246094 0)"/>
      </g>
     </g>
    </g>
    <g id="xtick_6">
     <g id="line2d_6">
      <g>
       <use xlink:href="#mb13494c2ad" x="345.160929" y="285.90831" style="stroke: #000000; stroke-width: 0.8"/>
      </g>
     </g>
     <g id="text_6">
      <!-- 1000 -->
      <g transform="translate(332.435929 300.506747) scale(0.1 -0.1)">
       <defs>
        <path id="DejaVuSans-31" d="M 794 531 
L 1825 531 
L 1825 4091 
L 703 3866 
L 703 4441 
L 1819 4666 
L 2450 4666 
L 2450 531 
L 3481 531 
L 3481 0 
L 794 0 
L 794 531 
z
" transform="scale(0.015625)"/>
       </defs>
       <use xlink:href="#DejaVuSans-31"/>
       <use xlink:href="#DejaVuSans-30" transform="translate(63.623047 0)"/>
       <use xlink:href="#DejaVuSans-30" transform="translate(127.246094 0)"/>
       <use xlink:href="#DejaVuSans-30" transform="translate(190.869141 0)"/>
      </g>
     </g>
    </g>
    <g id="text_7">
     <!-- Light Intensity (µmol photons $\cdot$ m$^{-2}$ $\cdot$ s$^{-1}$) -->
     <g transform="translate(92.613068 315.686435) scale(0.1 -0.1)">
      <defs>
       <path id="DejaVuSans-4c" d="M 628 4666 
L 1259 4666 
L 1259 531 
L 3531 531 
L 3531 0 
L 628 0 
L 628 4666 
z
" transform="scale(0.015625)"/>
       <path id="DejaVuSans-69" d="M 603 3500 
L 1178 3500 
L 1178 0 
L 603 0 
L 603 3500 
z
M 603 4863 
L 1178 4863 
L 1178 4134 
L 603 4134 
L 603 4863 
z
" transform="scale(0.015625)"/>
       <path id="DejaVuSans-67" d="M 2906 1791 
Q 2906 2416 2648 2759 
Q 2391 3103 1925 3103 
Q 1463 3103 1205 2759 
Q 947 2416 947 1791 
Q 947 1169 1205 825 
Q 1463 481 1925 481 
Q 2391 481 2648 825 
Q 2906 1169 2906 1791 
z
M 3481 434 
Q 3481 -459 3084 -895 
Q 2688 -1331 1869 -1331 
Q 1566 -1331 1297 -1286 
Q 1028 -1241 775 -1147 
L 775 -588 
Q 1028 -725 1275 -790 
Q 1522 -856 1778 -856 
Q 2344 -856 2625 -561 
Q 2906 -266 2906 331 
L 2906 616 
Q 2728 306 2450 153 
Q 2172 0 1784 0 
Q 1141 0 747 490 
Q 353 981 353 1791 
Q 353 2603 747 3093 
Q 1141 3584 1784 3584 
Q 2172 3584 2450 3431 
Q 2728 3278 2906 2969 
L 2906 3500 
L 3481 3500 
L 3481 434 
z
" transform="scale(0.015625)"/>
       <path id="DejaVuSans-68" d="M 3513 2113 
L 3513 0 
L 2938 0 
L 2938 2094 
Q 2938 2591 2744 2837 
Q 2550 3084 2163 3084 
Q 1697 3084 1428 2787 
Q 1159 2491 1159 1978 
L 1159 0 
L 581 0 
L 581 4863 
L 1159 4863 
L 1159 2956 
Q 1366 3272 1645 3428 
Q 1925 3584 2291 3584 
Q 2894 3584 3203 3211 
Q 3513 2838 3513 2113 
z
" transform="scale(0.015625)"/>
       <path id="DejaVuSans-74" d="M 1172 4494 
L 1172 3500 
L 2356 3500 
L 2356 3053 
L 1172 3053 
L 1172 1153 
Q 1172 725 1289 603 
Q 1406 481 1766 481 
L 2356 481 
L 2356 0 
L 1766 0 
Q 1100 0 847 248 
Q 594 497 594 1153 
L 594 3053 
L 172 3053 
L 172 3500 
L 594 3500 
L 594 4494 
L 1172 4494 
z
" transform="scale(0.015625)"/>
       <path id="DejaVuSans-20" transform="scale(0.015625)"/>
       <path id="DejaVuSans-49" d="M 628 4666 
L 1259 4666 
L 1259 0 
L 628 0 
L 628 4666 
z
" transform="scale(0.015625)"/>
       <path id="DejaVuSans-6e" d="M 3513 2113 
L 3513 0 
L 2938 0 
L 2938 2094 
Q 2938 2591 2744 2837 
Q 2550 3084 2163 3084 
Q 1697 3084 1428 2787 
Q 1159 2491 1159 1978 
L 1159 0 
L 581 0 
L 581 3500 
L 1159 3500 
L 1159 2956 
Q 1366 3272 1645 3428 
Q 1925 3584 2291 3584 
Q 2894 3584 3203 3211 
Q 3513 2838 3513 2113 
z
" transform="scale(0.015625)"/>
       <path id="DejaVuSans-65" d="M 3597 1894 
L 3597 1613 
L 953 1613 
Q 991 1019 1311 708 
Q 1631 397 2203 397 
Q 2534 397 2845 478 
Q 3156 559 3463 722 
L 3463 178 
Q 3153 47 2828 -22 
Q 2503 -91 2169 -91 
Q 1331 -91 842 396 
Q 353 884 353 1716 
Q 353 2575 817 3079 
Q 1281 3584 2069 3584 
Q 2775 3584 3186 3129 
Q 3597 2675 3597 1894 
z
M 3022 2063 
Q 3016 2534 2758 2815 
Q 2500 3097 2075 3097 
Q 1594 3097 1305 2825 
Q 1016 2553 972 2059 
L 3022 2063 
z
" transform="scale(0.015625)"/>
       <path id="DejaVuSans-73" d="M 2834 3397 
L 2834 2853 
Q 2591 2978 2328 3040 
Q 2066 3103 1784 3103 
Q 1356 3103 1142 2972 
Q 928 2841 928 2578 
Q 928 2378 1081 2264 
Q 1234 2150 1697 2047 
L 1894 2003 
Q 2506 1872 2764 1633 
Q 3022 1394 3022 966 
Q 3022 478 2636 193 
Q 2250 -91 1575 -91 
Q 1294 -91 989 -36 
Q 684 19 347 128 
L 347 722 
Q 666 556 975 473 
Q 1284 391 1588 391 
Q 1994 391 2212 530 
Q 2431 669 2431 922 
Q 2431 1156 2273 1281 
Q 2116 1406 1581 1522 
L 1381 1569 
Q 847 1681 609 1914 
Q 372 2147 372 2553 
Q 372 3047 722 3315 
Q 1072 3584 1716 3584 
Q 2034 3584 2315 3537 
Q 2597 3491 2834 3397 
z
" transform="scale(0.015625)"/>
       <path id="DejaVuSans-79" d="M 2059 -325 
Q 1816 -950 1584 -1140 
Q 1353 -1331 966 -1331 
L 506 -1331 
L 506 -850 
L 844 -850 
Q 1081 -850 1212 -737 
Q 1344 -625 1503 -206 
L 1606 56 
L 191 3500 
L 800 3500 
L 1894 763 
L 2988 3500 
L 3597 3500 
L 2059 -325 
z
" transform="scale(0.015625)"/>
       <path id="DejaVuSans-28" d="M 1984 4856 
Q 1566 4138 1362 3434 
Q 1159 2731 1159 2009 
Q 1159 1288 1364 580 
Q 1569 -128 1984 -844 
L 1484 -844 
Q 1016 -109 783 600 
Q 550 1309 550 2009 
Q 550 2706 781 3412 
Q 1013 4119 1484 4856 
L 1984 4856 
z
" transform="scale(0.015625)"/>
       <path id="DejaVuSans-b5" d="M 544 -1331 
L 544 3500 
L 1119 3500 
L 1119 1325 
Q 1119 872 1334 640 
Q 1550 409 1972 409 
Q 2434 409 2667 671 
Q 2900 934 2900 1459 
L 2900 3500 
L 3475 3500 
L 3475 806 
Q 3475 619 3529 530 
Q 3584 441 3700 441 
Q 3728 441 3778 458 
Q 3828 475 3916 513 
L 3916 50 
Q 3788 -22 3673 -56 
Q 3559 -91 3450 -91 
Q 3234 -91 3106 31 
Q 2978 153 2931 403 
Q 2775 156 2548 32 
Q 2322 -91 2016 -91 
Q 1697 -91 1473 31 
Q 1250 153 1119 397 
L 1119 -1331 
L 544 -1331 
z
" transform="scale(0.015625)"/>
       <path id="DejaVuSans-6d" d="M 3328 2828 
Q 3544 3216 3844 3400 
Q 4144 3584 4550 3584 
Q 5097 3584 5394 3201 
Q 5691 2819 5691 2113 
L 5691 0 
L 5113 0 
L 5113 2094 
Q 5113 2597 4934 2840 
Q 4756 3084 4391 3084 
Q 3944 3084 3684 2787 
Q 3425 2491 3425 1978 
L 3425 0 
L 2847 0 
L 2847 2094 
Q 2847 2600 2669 2842 
Q 2491 3084 2119 3084 
Q 1678 3084 1418 2786 
Q 1159 2488 1159 1978 
L 1159 0 
L 581 0 
L 581 3500 
L 1159 3500 
L 1159 2956 
Q 1356 3278 1631 3431 
Q 1906 3584 2284 3584 
Q 2666 3584 2933 3390 
Q 3200 3197 3328 2828 
z
" transform="scale(0.015625)"/>
       <path id="DejaVuSans-6f" d="M 1959 3097 
Q 1497 3097 1228 2736 
Q 959 2375 959 1747 
Q 959 1119 1226 758 
Q 1494 397 1959 397 
Q 2419 397 2687 759 
Q 2956 1122 2956 1747 
Q 2956 2369 2687 2733 
Q 2419 3097 1959 3097 
z
M 1959 3584 
Q 2709 3584 3137 3096 
Q 3566 2609 3566 1747 
Q 3566 888 3137 398 
Q 2709 -91 1959 -91 
Q 1206 -91 779 398 
Q 353 888 353 1747 
Q 353 2609 779 3096 
Q 1206 3584 1959 3584 
z
" transform="scale(0.015625)"/>
       <path id="DejaVuSans-6c" d="M 603 4863 
L 1178 4863 
L 1178 0 
L 603 0 
L 603 4863 
z
" transform="scale(0.015625)"/>
       <path id="DejaVuSans-70" d="M 1159 525 
L 1159 -1331 
L 581 -1331 
L 581 3500 
L 1159 3500 
L 1159 2969 
Q 1341 3281 1617 3432 
Q 1894 3584 2278 3584 
Q 2916 3584 3314 3078 
Q 3713 2572 3713 1747 
Q 3713 922 3314 415 
Q 2916 -91 2278 -91 
Q 1894 -91 1617 61 
Q 1341 213 1159 525 
z
M 3116 1747 
Q 3116 2381 2855 2742 
Q 2594 3103 2138 3103 
Q 1681 3103 1420 2742 
Q 1159 2381 1159 1747 
Q 1159 1113 1420 752 
Q 1681 391 2138 391 
Q 2594 391 2855 752 
Q 3116 1113 3116 1747 
z
" transform="scale(0.015625)"/>
       <path id="DejaVuSans-22c5" d="M 684 2619 
L 1344 2619 
L 1344 1825 
L 684 1825 
L 684 2619 
z
" transform="scale(0.015625)"/>
       <path id="DejaVuSans-2212" d="M 678 2272 
L 4684 2272 
L 4684 1741 
L 678 1741 
L 678 2272 
z
" transform="scale(0.015625)"/>
       <path id="DejaVuSans-29" d="M 513 4856 
L 1013 4856 
Q 1481 4119 1714 3412 
Q 1947 2706 1947 2009 
Q 1947 1309 1714 600 
Q 1481 -109 1013 -844 
L 513 -844 
Q 928 -128 1133 580 
Q 1338 1288 1338 2009 
Q 1338 2731 1133 3434 
Q 928 4138 513 4856 
z
" transform="scale(0.015625)"/>
      </defs>
      <use xlink:href="#DejaVuSans-4c" transform="translate(0 0.765625)"/>
      <use xlink:href="#DejaVuSans-69" transform="translate(55.712891 0.765625)"/>
      <use xlink:href="#DejaVuSans-67" transform="translate(83.496094 0.765625)"/>
      <use xlink:href="#DejaVuSans-68" transform="translate(146.972656 0.765625)"/>
      <use xlink:href="#DejaVuSans-74" transform="translate(210.351562 0.765625)"/>
      <use xlink:href="#DejaVuSans-20" transform="translate(249.560547 0.765625)"/>
      <use xlink:href="#DejaVuSans-49" transform="translate(281.347656 0.765625)"/>
      <use xlink:href="#DejaVuSans-6e" transform="translate(310.839844 0.765625)"/>
      <use xlink:href="#DejaVuSans-74" transform="translate(374.21875 0.765625)"/>
      <use xlink:href="#DejaVuSans-65" transform="translate(413.427734 0.765625)"/>
      <use xlink:href="#DejaVuSans-6e" transform="translate(474.951172 0.765625)"/>
      <use xlink:href="#DejaVuSans-73" transform="translate(538.330078 0.765625)"/>
      <use xlink:href="#DejaVuSans-69" transform="translate(590.429688 0.765625)"/>
      <use xlink:href="#DejaVuSans-74" transform="translate(618.212891 0.765625)"/>
      <use xlink:href="#DejaVuSans-79" transform="translate(657.421875 0.765625)"/>
      <use xlink:href="#DejaVuSans-20" transform="translate(716.601562 0.765625)"/>
      <use xlink:href="#DejaVuSans-28" transform="translate(748.388672 0.765625)"/>
      <use xlink:href="#DejaVuSans-b5" transform="translate(787.402344 0.765625)"/>
      <use xlink:href="#DejaVuSans-6d" transform="translate(851.025391 0.765625)"/>
      <use xlink:href="#DejaVuSans-6f" transform="translate(948.4375 0.765625)"/>
      <use xlink:href="#DejaVuSans-6c" transform="translate(1009.619141 0.765625)"/>
      <use xlink:href="#DejaVuSans-20" transform="translate(1037.402344 0.765625)"/>
      <use xlink:href="#DejaVuSans-70" transform="translate(1069.189453 0.765625)"/>
      <use xlink:href="#DejaVuSans-68" transform="translate(1132.666016 0.765625)"/>
      <use xlink:href="#DejaVuSans-6f" transform="translate(1196.044922 0.765625)"/>
      <use xlink:href="#DejaVuSans-74" transform="translate(1257.226562 0.765625)"/>
      <use xlink:href="#DejaVuSans-6f" transform="translate(1296.435547 0.765625)"/>
      <use xlink:href="#DejaVuSans-6e" transform="translate(1357.617188 0.765625)"/>
      <use xlink:href="#DejaVuSans-73" transform="translate(1420.996094 0.765625)"/>
      <use xlink:href="#DejaVuSans-20" transform="translate(1473.095703 0.765625)"/>
      <use xlink:href="#DejaVuSans-22c5" transform="translate(1504.882812 0.765625)"/>
      <use xlink:href="#DejaVuSans-20" transform="translate(1536.669922 0.765625)"/>
      <use xlink:href="#DejaVuSans-6d" transform="translate(1568.457031 0.765625)"/>
      <use xlink:href="#DejaVuSans-2212" transform="translate(1666.826172 39.046875) scale(0.7)"/>
      <use xlink:href="#DejaVuSans-32" transform="translate(1725.478516 39.046875) scale(0.7)"/>
      <use xlink:href="#DejaVuSans-20" transform="translate(1772.749023 0.765625)"/>
      <use xlink:href="#DejaVuSans-22c5" transform="translate(1804.536133 0.765625)"/>
      <use xlink:href="#DejaVuSans-20" transform="translate(1836.323242 0.765625)"/>
      <use xlink:href="#DejaVuSans-73" transform="translate(1868.110352 0.765625)"/>
      <use xlink:href="#DejaVuSans-2212" transform="translate(1921.166992 39.046875) scale(0.7)"/>
      <use xlink:href="#DejaVuSans-31" transform="translate(1979.819336 39.046875) scale(0.7)"/>
      <use xlink:href="#DejaVuSans-29" transform="translate(2027.089844 0.765625)"/>
     </g>
    </g>
   </g>
   <g id="matplotlib.axis_2">
    <g id="ytick_1">
     <g id="line2d_7">
      <defs>
       <path id="m20a1e3d839" d="M 0 0 
L -3.5 0 
" style="stroke: #000000; stroke-width: 0.8"/>
      </defs>
      <g>
       <use xlink:href="#m20a1e3d839" x="43.78125" y="224.30831" style="stroke: #000000; stroke-width: 0.8"/>
      </g>
     </g>
     <g id="text_8">
      <!-- 0.2 -->
      <g transform="translate(20.878125 228.107528) scale(0.1 -0.1)">
       <defs>
        <path id="DejaVuSans-2e" d="M 684 794 
L 1344 794 
L 1344 0 
L 684 0 
L 684 794 
z
" transform="scale(0.015625)"/>
       </defs>
       <use xlink:href="#DejaVuSans-30"/>
       <use xlink:href="#DejaVuSans-2e" transform="translate(63.623047 0)"/>
       <use xlink:href="#DejaVuSans-32" transform="translate(95.410156 0)"/>
      </g>
     </g>
    </g>
    <g id="ytick_2">
     <g id="line2d_8">
      <g>
       <use xlink:href="#m20a1e3d839" x="43.78125" y="162.70831" style="stroke: #000000; stroke-width: 0.8"/>
      </g>
     </g>
     <g id="text_9">
      <!-- 0.4 -->
      <g transform="translate(20.878125 166.507528) scale(0.1 -0.1)">
       <use xlink:href="#DejaVuSans-30"/>
       <use xlink:href="#DejaVuSans-2e" transform="translate(63.623047 0)"/>
       <use xlink:href="#DejaVuSans-34" transform="translate(95.410156 0)"/>
      </g>
     </g>
    </g>
    <g id="ytick_3">
     <g id="line2d_9">
      <g>
       <use xlink:href="#m20a1e3d839" x="43.78125" y="101.10831" style="stroke: #000000; stroke-width: 0.8"/>
      </g>
     </g>
     <g id="text_10">
      <!-- 0.6 -->
      <g transform="translate(20.878125 104.907528) scale(0.1 -0.1)">
       <use xlink:href="#DejaVuSans-30"/>
       <use xlink:href="#DejaVuSans-2e" transform="translate(63.623047 0)"/>
       <use xlink:href="#DejaVuSans-36" transform="translate(95.410156 0)"/>
      </g>
     </g>
    </g>
    <g id="ytick_4">
     <g id="line2d_10">
      <g>
       <use xlink:href="#m20a1e3d839" x="43.78125" y="39.50831" style="stroke: #000000; stroke-width: 0.8"/>
      </g>
     </g>
     <g id="text_11">
      <!-- 0.8 -->
      <g transform="translate(20.878125 43.307528) scale(0.1 -0.1)">
       <use xlink:href="#DejaVuSans-30"/>
       <use xlink:href="#DejaVuSans-2e" transform="translate(63.623047 0)"/>
       <use xlink:href="#DejaVuSans-38" transform="translate(95.410156 0)"/>
      </g>
     </g>
    </g>
    <g id="text_12">
     <!-- Concentrations Ratios -->
     <g transform="translate(14.798438 202.312216) rotate(-90) scale(0.1 -0.1)">
      <defs>
       <path id="DejaVuSans-43" d="M 4122 4306 
L 4122 3641 
Q 3803 3938 3442 4084 
Q 3081 4231 2675 4231 
Q 1875 4231 1450 3742 
Q 1025 3253 1025 2328 
Q 1025 1406 1450 917 
Q 1875 428 2675 428 
Q 3081 428 3442 575 
Q 3803 722 4122 1019 
L 4122 359 
Q 3791 134 3420 21 
Q 3050 -91 2638 -91 
Q 1578 -91 968 557 
Q 359 1206 359 2328 
Q 359 3453 968 4101 
Q 1578 4750 2638 4750 
Q 3056 4750 3426 4639 
Q 3797 4528 4122 4306 
z
" transform="scale(0.015625)"/>
       <path id="DejaVuSans-63" d="M 3122 3366 
L 3122 2828 
Q 2878 2963 2633 3030 
Q 2388 3097 2138 3097 
Q 1578 3097 1268 2742 
Q 959 2388 959 1747 
Q 959 1106 1268 751 
Q 1578 397 2138 397 
Q 2388 397 2633 464 
Q 2878 531 3122 666 
L 3122 134 
Q 2881 22 2623 -34 
Q 2366 -91 2075 -91 
Q 1284 -91 818 406 
Q 353 903 353 1747 
Q 353 2603 823 3093 
Q 1294 3584 2113 3584 
Q 2378 3584 2631 3529 
Q 2884 3475 3122 3366 
z
" transform="scale(0.015625)"/>
       <path id="DejaVuSans-72" d="M 2631 2963 
Q 2534 3019 2420 3045 
Q 2306 3072 2169 3072 
Q 1681 3072 1420 2755 
Q 1159 2438 1159 1844 
L 1159 0 
L 581 0 
L 581 3500 
L 1159 3500 
L 1159 2956 
Q 1341 3275 1631 3429 
Q 1922 3584 2338 3584 
Q 2397 3584 2469 3576 
Q 2541 3569 2628 3553 
L 2631 2963 
z
" transform="scale(0.015625)"/>
       <path id="DejaVuSans-61" d="M 2194 1759 
Q 1497 1759 1228 1600 
Q 959 1441 959 1056 
Q 959 750 1161 570 
Q 1363 391 1709 391 
Q 2188 391 2477 730 
Q 2766 1069 2766 1631 
L 2766 1759 
L 2194 1759 
z
M 3341 1997 
L 3341 0 
L 2766 0 
L 2766 531 
Q 2569 213 2275 61 
Q 1981 -91 1556 -91 
Q 1019 -91 701 211 
Q 384 513 384 1019 
Q 384 1609 779 1909 
Q 1175 2209 1959 2209 
L 2766 2209 
L 2766 2266 
Q 2766 2663 2505 2880 
Q 2244 3097 1772 3097 
Q 1472 3097 1187 3025 
Q 903 2953 641 2809 
L 641 3341 
Q 956 3463 1253 3523 
Q 1550 3584 1831 3584 
Q 2591 3584 2966 3190 
Q 3341 2797 3341 1997 
z
" transform="scale(0.015625)"/>
       <path id="DejaVuSans-52" d="M 2841 2188 
Q 3044 2119 3236 1894 
Q 3428 1669 3622 1275 
L 4263 0 
L 3584 0 
L 2988 1197 
Q 2756 1666 2539 1819 
Q 2322 1972 1947 1972 
L 1259 1972 
L 1259 0 
L 628 0 
L 628 4666 
L 2053 4666 
Q 2853 4666 3247 4331 
Q 3641 3997 3641 3322 
Q 3641 2881 3436 2590 
Q 3231 2300 2841 2188 
z
M 1259 4147 
L 1259 2491 
L 2053 2491 
Q 2509 2491 2742 2702 
Q 2975 2913 2975 3322 
Q 2975 3731 2742 3939 
Q 2509 4147 2053 4147 
L 1259 4147 
z
" transform="scale(0.015625)"/>
      </defs>
      <use xlink:href="#DejaVuSans-43"/>
      <use xlink:href="#DejaVuSans-6f" transform="translate(69.824219 0)"/>
      <use xlink:href="#DejaVuSans-6e" transform="translate(131.005859 0)"/>
      <use xlink:href="#DejaVuSans-63" transform="translate(194.384766 0)"/>
      <use xlink:href="#DejaVuSans-65" transform="translate(249.365234 0)"/>
      <use xlink:href="#DejaVuSans-6e" transform="translate(310.888672 0)"/>
      <use xlink:href="#DejaVuSans-74" transform="translate(374.267578 0)"/>
      <use xlink:href="#DejaVuSans-72" transform="translate(413.476562 0)"/>
      <use xlink:href="#DejaVuSans-61" transform="translate(454.589844 0)"/>
      <use xlink:href="#DejaVuSans-74" transform="translate(515.869141 0)"/>
      <use xlink:href="#DejaVuSans-69" transform="translate(555.078125 0)"/>
      <use xlink:href="#DejaVuSans-6f" transform="translate(582.861328 0)"/>
      <use xlink:href="#DejaVuSans-6e" transform="translate(644.042969 0)"/>
      <use xlink:href="#DejaVuSans-73" transform="translate(707.421875 0)"/>
      <use xlink:href="#DejaVuSans-20" transform="translate(759.521484 0)"/>
      <use xlink:href="#DejaVuSans-52" transform="translate(791.308594 0)"/>
      <use xlink:href="#DejaVuSans-61" transform="translate(858.541016 0)"/>
      <use xlink:href="#DejaVuSans-74" transform="translate(919.820312 0)"/>
      <use xlink:href="#DejaVuSans-69" transform="translate(959.029297 0)"/>
      <use xlink:href="#DejaVuSans-6f" transform="translate(986.8125 0)"/>
      <use xlink:href="#DejaVuSans-73" transform="translate(1047.994141 0)"/>
     </g>
    </g>
   </g>
   <g id="line2d_11">
    <path d="M 49.749164 284.469928 
L 52.733122 278.72816 
L 55.717079 271.74971 
L 58.701036 264.515782 
L 61.684993 257.291667 
L 64.668951 250.177994 
L 67.652908 243.219396 
L 70.636865 236.43666 
L 73.620822 229.83891 
L 76.604779 223.429014 
L 79.588737 217.206278 
L 82.572694 211.167892 
L 85.556651 205.309774 
L 88.540608 199.627071 
L 91.524566 194.114481 
L 94.508523 188.76646 
L 97.49248 183.57736 
L 100.476437 178.541527 
L 103.460394 173.653357 
L 106.444352 168.90735 
L 109.428309 164.298135 
L 112.412266 159.82049 
L 115.396223 155.46936 
L 118.38018 151.239861 
L 121.364138 147.127285 
L 124.348095 143.127103 
L 127.332052 139.234966 
L 130.316009 135.446698 
L 133.299967 131.758298 
L 136.283924 128.165932 
L 139.267881 124.66593 
L 142.251838 121.254782 
L 145.235795 117.929133 
L 148.219753 114.685771 
L 151.20371 111.521633 
L 154.187667 108.433788 
L 157.171624 105.41944 
L 160.155582 102.475916 
L 163.139539 99.600668 
L 166.123496 96.79126 
L 169.107453 94.04537 
L 172.09141 91.36078 
L 175.075368 88.735377 
L 178.059325 86.167142 
L 181.043282 83.654152 
L 184.027239 81.194573 
L 187.011197 78.786657 
L 189.995154 76.428741 
L 192.979111 74.119237 
L 195.963068 71.856639 
L 198.947025 69.639512 
L 201.930983 67.466495 
L 204.91494 65.336294 
L 207.898897 63.247685 
L 210.882854 61.199509 
L 213.866811 59.190674 
L 216.850769 57.220148 
L 219.834726 55.286967 
L 222.818683 53.390224 
L 225.80264 51.529081 
L 228.786598 49.702757 
L 231.770555 47.910539 
L 234.754512 46.151776 
L 237.738469 44.425887 
L 240.722426 42.732356 
L 243.706384 41.070743 
L 246.690341 39.440681 
L 249.674298 37.841883 
L 252.658255 36.274149 
L 255.642213 34.73737 
L 258.62617 33.231535 
L 261.610127 31.756742 
L 264.594084 30.313205 
L 267.578041 28.901268 
L 270.561999 27.521414 
L 273.545956 26.174282 
L 276.529913 24.860679 
L 279.51387 23.581597 
L 282.497828 22.338226 
L 285.481785 21.131969 
L 288.465742 19.964451 
L 291.449699 18.837524 
L 294.433656 17.753259 
L 297.417614 16.713931 
L 300.401571 15.721976 
L 303.385528 14.779927 
L 306.369485 13.890322 
L 309.353443 13.055572 
L 312.3374 12.277801 
L 315.321357 11.558667 
L 318.305314 10.899173 
L 321.289271 10.2995 
L 324.273229 9.758893 
L 327.257186 9.275626 
L 330.241143 8.847044 
L 333.2251 8.469704 
L 336.209057 8.139573 
L 339.193015 7.85226 
L 342.176972 7.603238 
L 345.160929 7.388051 
" clip-path="url(#paced989eab)" style="fill: none; stroke: #8eb133; stroke-width: 2; stroke-linecap: square"/>
   </g>
   <g id="line2d_12">
    <path d="M 49.749164 285.324322 
L 52.733122 282.23582 
L 55.717079 277.85748 
L 58.701036 272.872652 
L 61.684993 267.542022 
L 64.668951 261.999028 
L 67.652908 256.324668 
L 70.636865 250.57344 
L 73.620822 244.784507 
L 76.604779 238.987268 
L 79.588737 233.204446 
L 82.572694 227.45395 
L 85.556651 221.750065 
L 88.540608 216.104262 
L 91.524566 210.525775 
L 94.508523 205.022023 
L 97.49248 199.59893 
L 100.476437 194.261176 
L 103.460394 189.012401 
L 106.444352 183.855366 
L 109.428309 178.792085 
L 112.412266 173.823943 
L 115.396223 168.951788 
L 118.38018 164.176011 
L 121.364138 159.496617 
L 124.348095 154.913284 
L 127.332052 150.425413 
L 130.316009 146.032175 
L 133.299967 141.732547 
L 136.283924 137.525347 
L 139.267881 133.40926 
L 142.251838 129.382869 
L 145.235795 125.444672 
L 148.219753 121.593101 
L 151.20371 117.82654 
L 154.187667 114.143343 
L 157.171624 110.541837 
L 160.155582 107.020343 
L 163.139539 103.577176 
L 166.123496 100.210662 
L 169.107453 96.919137 
L 172.09141 93.700958 
L 175.075368 90.554504 
L 178.059325 87.478184 
L 181.043282 84.47044 
L 184.027239 81.529747 
L 187.011197 78.65462 
L 189.995154 75.843611 
L 192.979111 73.095322 
L 195.963068 70.408388 
L 198.947025 67.781498 
L 201.930983 65.213383 
L 204.91494 62.702825 
L 207.898897 60.248654 
L 210.882854 57.849749 
L 213.866811 55.505043 
L 216.850769 53.213518 
L 219.834726 50.974213 
L 222.818683 48.78622 
L 225.80264 46.648687 
L 228.786598 44.560824 
L 231.770555 42.521896 
L 234.754512 40.531233 
L 237.738469 38.588229 
L 240.722426 36.692345 
L 243.706384 34.843114 
L 246.690341 33.040139 
L 249.674298 31.283106 
L 252.658255 29.571783 
L 255.642213 27.906022 
L 258.62617 26.285775 
L 261.610127 24.711089 
L 264.594084 23.182121 
L 267.578041 21.699141 
L 270.561999 20.262541 
L 273.545956 18.872843 
L 276.529913 17.530706 
L 279.51387 16.236931 
L 282.497828 14.992466 
L 285.481785 13.798406 
L 288.465742 12.655986 
L 291.449699 11.566571 
L 294.433656 10.531631 
L 297.417614 9.552699 
L 300.401571 8.631319 
L 303.385528 7.768961 
L 306.369485 6.966925 
L 309.353443 6.226209 
L 312.3374 5.547372 
L 315.321357 4.930389 
L 318.305314 4.374518 
L 321.289271 3.878208 
L 324.273229 3.439071 
L 327.257186 3.053916 
L 330.241143 2.718876 
L 333.2251 2.429579 
L 336.209057 2.181368 
L 339.193015 1.969514 
L 342.176972 1.789412 
L 345.160929 1.63673 
" clip-path="url(#paced989eab)" style="fill: none; stroke: #e19d20; stroke-width: 2; stroke-linecap: square"/>
   </g>
   <g id="line2d_13">
    <path d="M 49.749164 186.431883 
L 52.733122 203.283897 
L 55.717079 208.051114 
L 58.701036 208.89514 
L 61.684993 207.996965 
L 64.668951 206.205809 
L 67.652908 203.922376 
L 70.636865 201.359503 
L 73.620822 198.639669 
L 76.604779 195.837485 
L 79.588737 193.000322 
L 82.572694 190.159173 
L 85.556651 187.33474 
L 88.540608 184.541026 
L 91.524566 181.787547 
L 94.508523 179.080741 
L 97.49248 176.424888 
L 100.476437 173.822736 
L 103.460394 171.275927 
L 106.444352 168.785298 
L 109.428309 166.351098 
L 112.412266 163.97314 
L 115.396223 161.650917 
L 118.38018 159.383686 
L 121.364138 157.170532 
L 124.348095 155.010418 
L 127.332052 152.902217 
L 130.316009 150.844743 
L 133.299967 148.836775 
L 136.283924 146.877069 
L 139.267881 144.964373 
L 142.251838 143.097439 
L 145.235795 141.275027 
L 148.219753 139.495915 
L 151.20371 137.758899 
L 154.187667 136.062801 
L 157.171624 134.40647 
L 160.155582 132.788782 
L 163.139539 131.208642 
L 166.123496 129.66499 
L 169.107453 128.156792 
L 172.09141 126.68305 
L 175.075368 125.242795 
L 178.059325 123.835089 
L 181.043282 122.459029 
L 184.027239 121.113737 
L 187.011197 119.798371 
L 189.995154 118.512115 
L 192.979111 117.254185 
L 195.963068 116.023823 
L 198.947025 114.820301 
L 201.930983 113.642919 
L 204.91494 112.491002 
L 207.898897 111.363903 
L 210.882854 110.261002 
L 213.866811 109.1817 
L 216.850769 108.125429 
L 219.834726 107.091641 
L 222.818683 106.079813 
L 225.80264 105.089448 
L 228.786598 104.120071 
L 231.770555 103.171231 
L 234.754512 102.242499 
L 237.738469 101.333472 
L 240.722426 100.443767 
L 243.706384 99.573028 
L 246.690341 98.72092 
L 249.674298 97.887134 
L 252.658255 97.071384 
L 255.642213 96.273409 
L 258.62617 95.492976 
L 261.610127 94.729875 
L 264.594084 93.983926 
L 267.578041 93.254974 
L 270.561999 92.542897 
L 273.545956 91.847597 
L 276.529913 91.169011 
L 279.51387 90.507103 
L 282.497828 89.861866 
L 285.481785 89.233323 
L 288.465742 88.621522 
L 291.449699 88.026531 
L 294.433656 87.448432 
L 297.417614 86.887311 
L 300.401571 86.343243 
L 303.385528 85.816275 
L 306.369485 85.306404 
L 309.353443 84.813548 
L 312.3374 84.33752 
L 315.321357 83.878002 
L 318.305314 83.43452 
L 321.289271 83.006432 
L 324.273229 82.592932 
L 327.257186 82.193065 
L 330.241143 81.80576 
L 333.2251 81.429874 
L 336.209057 81.064239 
L 339.193015 80.707711 
L 342.176972 80.359206 
L 345.160929 80.01773 
" clip-path="url(#paced989eab)" style="fill: none; stroke: #f16431; stroke-width: 2; stroke-linecap: square"/>
   </g>
   <g id="line2d_14">
    <path d="M 49.749164 38.900476 
L 52.733122 62.738543 
L 55.717079 78.206208 
L 58.701036 89.419241 
L 61.684993 98.037837 
L 64.668951 104.91879 
L 67.652908 110.56372 
L 70.636865 115.290805 
L 73.620822 119.313738 
L 76.604779 122.782444 
L 79.588737 125.805829 
L 82.572694 128.465281 
L 85.556651 130.823085 
L 88.540608 132.927872 
L 91.524566 134.818267 
L 94.508523 136.52541 
L 97.49248 138.07473 
L 100.476437 139.487227 
L 103.460394 140.780419 
L 106.444352 141.969049 
L 109.428309 143.06562 
L 112.412266 144.080814 
L 115.396223 145.023811 
L 118.38018 145.902549 
L 121.364138 146.723926 
L 124.348095 147.493966 
L 127.332052 148.217951 
L 130.316009 148.900533 
L 133.299967 149.545822 
L 136.283924 150.157466 
L 139.267881 150.738708 
L 142.251838 151.292445 
L 145.235795 151.821269 
L 148.219753 152.327507 
L 151.20371 152.813254 
L 154.187667 153.2804 
L 157.171624 153.730656 
L 160.155582 154.165573 
L 163.139539 154.586562 
L 166.123496 154.994908 
L 169.107453 155.391788 
L 172.09141 155.778279 
L 175.075368 156.155369 
L 178.059325 156.523971 
L 181.043282 156.884928 
L 184.027239 157.239018 
L 187.011197 157.586969 
L 189.995154 157.929455 
L 192.979111 158.267113 
L 195.963068 158.600537 
L 198.947025 158.930287 
L 201.930983 159.256897 
L 204.91494 159.580871 
L 207.898897 159.902696 
L 210.882854 160.222837 
L 213.866811 160.541742 
L 216.850769 160.859851 
L 219.834726 161.17759 
L 222.818683 161.495381 
L 225.80264 161.813641 
L 228.786598 162.132785 
L 231.770555 162.453231 
L 234.754512 162.7754 
L 237.738469 163.09972 
L 240.722426 163.42663 
L 243.706384 163.756582 
L 246.690341 164.090043 
L 249.674298 164.427501 
L 252.658255 164.769467 
L 255.642213 165.116481 
L 258.62617 165.469111 
L 261.610127 165.827963 
L 264.594084 166.193685 
L 267.578041 166.566964 
L 270.561999 166.948542 
L 273.545956 167.339213 
L 276.529913 167.739826 
L 279.51387 168.151294 
L 282.497828 168.574591 
L 285.481785 169.010752 
L 288.465742 169.460871 
L 291.449699 169.926087 
L 294.433656 170.407572 
L 297.417614 170.906508 
L 300.401571 171.424046 
L 303.385528 171.961265 
L 306.369485 172.519107 
L 309.353443 173.098305 
L 312.3374 173.699305 
L 315.321357 174.322185 
L 318.305314 174.966582 
L 321.289271 175.631653 
L 324.273229 176.316058 
L 327.257186 177.018002 
L 330.241143 177.735308 
L 333.2251 178.465529 
L 336.209057 179.206075 
L 339.193015 179.954344 
L 342.176972 180.707829 
L 345.160929 181.464202 
" clip-path="url(#paced989eab)" style="fill: none; stroke: #5f7fb6; stroke-width: 2; stroke-linecap: square"/>
   </g>
   <g id="patch_4">
    <path d="M 43.78125 285.90831 
L 43.78125 8.70831 
" style="fill: none; stroke: #000000; stroke-width: 0.8; stroke-linejoin: miter; stroke-linecap: square"/>
   </g>
   <g id="patch_5">
    <path d="M 348.144886 285.90831 
L 348.144886 8.70831 
" style="fill: none; stroke: #000000; stroke-width: 0.8; stroke-linejoin: miter; stroke-linecap: square"/>
   </g>
   <g id="patch_6">
    <path d="M 43.78125 285.90831 
L 348.144886 285.90831 
" style="fill: none; stroke: #000000; stroke-width: 0.8; stroke-linejoin: miter; stroke-linecap: square"/>
   </g>
   <g id="patch_7">
    <path d="M 43.78125 8.70831 
L 348.144886 8.70831 
" style="fill: none; stroke: #000000; stroke-width: 0.8; stroke-linejoin: miter; stroke-linecap: square"/>
   </g>
  </g>
  <g id="axes_2">
   <g id="patch_8">
    <path d="M 409.017614 285.90831 
L 713.38125 285.90831 
L 713.38125 8.70831 
L 409.017614 8.70831 
z
" style="fill: #ffffff"/>
   </g>
   <g id="patch_9">
    <path d="M 412.001571 299.403607 
L 426.921357 299.403607 
L 426.921357 -3.049472 
L 412.001571 -3.049472 
z
" clip-path="url(#pa1aa152fe1)" style="opacity: 0.1; stroke: #000000; stroke-linejoin: miter"/>
   </g>
   <g id="matplotlib.axis_3">
    <g id="xtick_7">
     <g id="line2d_15">
      <g>
       <use xlink:href="#mb13494c2ad" x="412.001571" y="285.90831" style="stroke: #000000; stroke-width: 0.8"/>
      </g>
     </g>
     <g id="text_13">
      <!-- 0 -->
      <g transform="translate(408.820321 300.506747) scale(0.1 -0.1)">
       <use xlink:href="#DejaVuSans-30"/>
      </g>
     </g>
    </g>
    <g id="xtick_8">
     <g id="line2d_16">
      <g>
       <use xlink:href="#mb13494c2ad" x="471.680715" y="285.90831" style="stroke: #000000; stroke-width: 0.8"/>
      </g>
     </g>
     <g id="text_14">
      <!-- 200 -->
      <g transform="translate(462.136965 300.506747) scale(0.1 -0.1)">
       <use xlink:href="#DejaVuSans-32"/>
       <use xlink:href="#DejaVuSans-30" transform="translate(63.623047 0)"/>
       <use xlink:href="#DejaVuSans-30" transform="translate(127.246094 0)"/>
      </g>
     </g>
    </g>
    <g id="xtick_9">
     <g id="line2d_17">
      <g>
       <use xlink:href="#mb13494c2ad" x="531.35986" y="285.90831" style="stroke: #000000; stroke-width: 0.8"/>
      </g>
     </g>
     <g id="text_15">
      <!-- 400 -->
      <g transform="translate(521.81611 300.506747) scale(0.1 -0.1)">
       <use xlink:href="#DejaVuSans-34"/>
       <use xlink:href="#DejaVuSans-30" transform="translate(63.623047 0)"/>
       <use xlink:href="#DejaVuSans-30" transform="translate(127.246094 0)"/>
      </g>
     </g>
    </g>
    <g id="xtick_10">
     <g id="line2d_18">
      <g>
       <use xlink:href="#mb13494c2ad" x="591.039004" y="285.90831" style="stroke: #000000; stroke-width: 0.8"/>
      </g>
     </g>
     <g id="text_16">
      <!-- 600 -->
      <g transform="translate(581.495254 300.506747) scale(0.1 -0.1)">
       <use xlink:href="#DejaVuSans-36"/>
       <use xlink:href="#DejaVuSans-30" transform="translate(63.623047 0)"/>
       <use xlink:href="#DejaVuSans-30" transform="translate(127.246094 0)"/>
      </g>
     </g>
    </g>
    <g id="xtick_11">
     <g id="line2d_19">
      <g>
       <use xlink:href="#mb13494c2ad" x="650.718148" y="285.90831" style="stroke: #000000; stroke-width: 0.8"/>
      </g>
     </g>
     <g id="text_17">
      <!-- 800 -->
      <g transform="translate(641.174398 300.506747) scale(0.1 -0.1)">
       <use xlink:href="#DejaVuSans-38"/>
       <use xlink:href="#DejaVuSans-30" transform="translate(63.623047 0)"/>
       <use xlink:href="#DejaVuSans-30" transform="translate(127.246094 0)"/>
      </g>
     </g>
    </g>
    <g id="xtick_12">
     <g id="line2d_20">
      <g>
       <use xlink:href="#mb13494c2ad" x="710.397293" y="285.90831" style="stroke: #000000; stroke-width: 0.8"/>
      </g>
     </g>
     <g id="text_18">
      <!-- 1000 -->
      <g transform="translate(697.672293 300.506747) scale(0.1 -0.1)">
       <use xlink:href="#DejaVuSans-31"/>
       <use xlink:href="#DejaVuSans-30" transform="translate(63.623047 0)"/>
       <use xlink:href="#DejaVuSans-30" transform="translate(127.246094 0)"/>
       <use xlink:href="#DejaVuSans-30" transform="translate(190.869141 0)"/>
      </g>
     </g>
    </g>
    <g id="text_19">
     <!-- Light Intensity (µmol photons $\cdot$ m$^{-2}$ $\cdot$ s$^{-1}$) -->
     <g transform="translate(457.849432 315.686435) scale(0.1 -0.1)">
      <use xlink:href="#DejaVuSans-4c" transform="translate(0 0.765625)"/>
      <use xlink:href="#DejaVuSans-69" transform="translate(55.712891 0.765625)"/>
      <use xlink:href="#DejaVuSans-67" transform="translate(83.496094 0.765625)"/>
      <use xlink:href="#DejaVuSans-68" transform="translate(146.972656 0.765625)"/>
      <use xlink:href="#DejaVuSans-74" transform="translate(210.351562 0.765625)"/>
      <use xlink:href="#DejaVuSans-20" transform="translate(249.560547 0.765625)"/>
      <use xlink:href="#DejaVuSans-49" transform="translate(281.347656 0.765625)"/>
      <use xlink:href="#DejaVuSans-6e" transform="translate(310.839844 0.765625)"/>
      <use xlink:href="#DejaVuSans-74" transform="translate(374.21875 0.765625)"/>
      <use xlink:href="#DejaVuSans-65" transform="translate(413.427734 0.765625)"/>
      <use xlink:href="#DejaVuSans-6e" transform="translate(474.951172 0.765625)"/>
      <use xlink:href="#DejaVuSans-73" transform="translate(538.330078 0.765625)"/>
      <use xlink:href="#DejaVuSans-69" transform="translate(590.429688 0.765625)"/>
      <use xlink:href="#DejaVuSans-74" transform="translate(618.212891 0.765625)"/>
      <use xlink:href="#DejaVuSans-79" transform="translate(657.421875 0.765625)"/>
      <use xlink:href="#DejaVuSans-20" transform="translate(716.601562 0.765625)"/>
      <use xlink:href="#DejaVuSans-28" transform="translate(748.388672 0.765625)"/>
      <use xlink:href="#DejaVuSans-b5" transform="translate(787.402344 0.765625)"/>
      <use xlink:href="#DejaVuSans-6d" transform="translate(851.025391 0.765625)"/>
      <use xlink:href="#DejaVuSans-6f" transform="translate(948.4375 0.765625)"/>
      <use xlink:href="#DejaVuSans-6c" transform="translate(1009.619141 0.765625)"/>
      <use xlink:href="#DejaVuSans-20" transform="translate(1037.402344 0.765625)"/>
      <use xlink:href="#DejaVuSans-70" transform="translate(1069.189453 0.765625)"/>
      <use xlink:href="#DejaVuSans-68" transform="translate(1132.666016 0.765625)"/>
      <use xlink:href="#DejaVuSans-6f" transform="translate(1196.044922 0.765625)"/>
      <use xlink:href="#DejaVuSans-74" transform="translate(1257.226562 0.765625)"/>
      <use xlink:href="#DejaVuSans-6f" transform="translate(1296.435547 0.765625)"/>
      <use xlink:href="#DejaVuSans-6e" transform="translate(1357.617188 0.765625)"/>
      <use xlink:href="#DejaVuSans-73" transform="translate(1420.996094 0.765625)"/>
      <use xlink:href="#DejaVuSans-20" transform="translate(1473.095703 0.765625)"/>
      <use xlink:href="#DejaVuSans-22c5" transform="translate(1504.882812 0.765625)"/>
      <use xlink:href="#DejaVuSans-20" transform="translate(1536.669922 0.765625)"/>
      <use xlink:href="#DejaVuSans-6d" transform="translate(1568.457031 0.765625)"/>
      <use xlink:href="#DejaVuSans-2212" transform="translate(1666.826172 39.046875) scale(0.7)"/>
      <use xlink:href="#DejaVuSans-32" transform="translate(1725.478516 39.046875) scale(0.7)"/>
      <use xlink:href="#DejaVuSans-20" transform="translate(1772.749023 0.765625)"/>
      <use xlink:href="#DejaVuSans-22c5" transform="translate(1804.536133 0.765625)"/>
      <use xlink:href="#DejaVuSans-20" transform="translate(1836.323242 0.765625)"/>
      <use xlink:href="#DejaVuSans-73" transform="translate(1868.110352 0.765625)"/>
      <use xlink:href="#DejaVuSans-2212" transform="translate(1921.166992 39.046875) scale(0.7)"/>
      <use xlink:href="#DejaVuSans-31" transform="translate(1979.819336 39.046875) scale(0.7)"/>
      <use xlink:href="#DejaVuSans-29" transform="translate(2027.089844 0.765625)"/>
     </g>
    </g>
   </g>
   <g id="matplotlib.axis_4">
    <g id="ytick_5">
     <g id="line2d_21">
      <g>
       <use xlink:href="#m20a1e3d839" x="409.017614" y="285.90831" style="stroke: #000000; stroke-width: 0.8"/>
      </g>
     </g>
     <g id="text_20">
      <!-- 0.0 -->
      <g transform="translate(386.114489 289.707528) scale(0.1 -0.1)">
       <use xlink:href="#DejaVuSans-30"/>
       <use xlink:href="#DejaVuSans-2e" transform="translate(63.623047 0)"/>
       <use xlink:href="#DejaVuSans-30" transform="translate(95.410156 0)"/>
      </g>
     </g>
    </g>
    <g id="ytick_6">
     <g id="line2d_22">
      <g>
       <use xlink:href="#m20a1e3d839" x="409.017614" y="241.55631" style="stroke: #000000; stroke-width: 0.8"/>
      </g>
     </g>
     <g id="text_21">
      <!-- 0.2 -->
      <g transform="translate(386.114489 245.355528) scale(0.1 -0.1)">
       <use xlink:href="#DejaVuSans-30"/>
       <use xlink:href="#DejaVuSans-2e" transform="translate(63.623047 0)"/>
       <use xlink:href="#DejaVuSans-32" transform="translate(95.410156 0)"/>
      </g>
     </g>
    </g>
    <g id="ytick_7">
     <g id="line2d_23">
      <g>
       <use xlink:href="#m20a1e3d839" x="409.017614" y="197.20431" style="stroke: #000000; stroke-width: 0.8"/>
      </g>
     </g>
     <g id="text_22">
      <!-- 0.4 -->
      <g transform="translate(386.114489 201.003528) scale(0.1 -0.1)">
       <use xlink:href="#DejaVuSans-30"/>
       <use xlink:href="#DejaVuSans-2e" transform="translate(63.623047 0)"/>
       <use xlink:href="#DejaVuSans-34" transform="translate(95.410156 0)"/>
      </g>
     </g>
    </g>
    <g id="ytick_8">
     <g id="line2d_24">
      <g>
       <use xlink:href="#m20a1e3d839" x="409.017614" y="152.85231" style="stroke: #000000; stroke-width: 0.8"/>
      </g>
     </g>
     <g id="text_23">
      <!-- 0.6 -->
      <g transform="translate(386.114489 156.651528) scale(0.1 -0.1)">
       <use xlink:href="#DejaVuSans-30"/>
       <use xlink:href="#DejaVuSans-2e" transform="translate(63.623047 0)"/>
       <use xlink:href="#DejaVuSans-36" transform="translate(95.410156 0)"/>
      </g>
     </g>
    </g>
    <g id="ytick_9">
     <g id="line2d_25">
      <g>
       <use xlink:href="#m20a1e3d839" x="409.017614" y="108.50031" style="stroke: #000000; stroke-width: 0.8"/>
      </g>
     </g>
     <g id="text_24">
      <!-- 0.8 -->
      <g transform="translate(386.114489 112.299528) scale(0.1 -0.1)">
       <use xlink:href="#DejaVuSans-30"/>
       <use xlink:href="#DejaVuSans-2e" transform="translate(63.623047 0)"/>
       <use xlink:href="#DejaVuSans-38" transform="translate(95.410156 0)"/>
      </g>
     </g>
    </g>
    <g id="ytick_10">
     <g id="line2d_26">
      <g>
       <use xlink:href="#m20a1e3d839" x="409.017614" y="64.14831" style="stroke: #000000; stroke-width: 0.8"/>
      </g>
     </g>
     <g id="text_25">
      <!-- 1.0 -->
      <g transform="translate(386.114489 67.947528) scale(0.1 -0.1)">
       <use xlink:href="#DejaVuSans-31"/>
       <use xlink:href="#DejaVuSans-2e" transform="translate(63.623047 0)"/>
       <use xlink:href="#DejaVuSans-30" transform="translate(95.410156 0)"/>
      </g>
     </g>
    </g>
    <g id="ytick_11">
     <g id="line2d_27">
      <g>
       <use xlink:href="#m20a1e3d839" x="409.017614" y="19.79631" style="stroke: #000000; stroke-width: 0.8"/>
      </g>
     </g>
     <g id="text_26">
      <!-- 1.2 -->
      <g transform="translate(386.114489 23.595528) scale(0.1 -0.1)">
       <use xlink:href="#DejaVuSans-31"/>
       <use xlink:href="#DejaVuSans-2e" transform="translate(63.623047 0)"/>
       <use xlink:href="#DejaVuSans-32" transform="translate(95.410156 0)"/>
      </g>
     </g>
    </g>
    <g id="text_27">
     <!-- NPQ  -->
     <g transform="translate(368.836989 159.588778) rotate(-90) scale(0.1 -0.1)">
      <defs>
       <path id="DejaVuSans-4e" d="M 628 4666 
L 1478 4666 
L 3547 763 
L 3547 4666 
L 4159 4666 
L 4159 0 
L 3309 0 
L 1241 3903 
L 1241 0 
L 628 0 
L 628 4666 
z
" transform="scale(0.015625)"/>
       <path id="DejaVuSans-50" d="M 1259 4147 
L 1259 2394 
L 2053 2394 
Q 2494 2394 2734 2622 
Q 2975 2850 2975 3272 
Q 2975 3691 2734 3919 
Q 2494 4147 2053 4147 
L 1259 4147 
z
M 628 4666 
L 2053 4666 
Q 2838 4666 3239 4311 
Q 3641 3956 3641 3272 
Q 3641 2581 3239 2228 
Q 2838 1875 2053 1875 
L 1259 1875 
L 1259 0 
L 628 0 
L 628 4666 
z
" transform="scale(0.015625)"/>
       <path id="DejaVuSans-51" d="M 2522 4238 
Q 1834 4238 1429 3725 
Q 1025 3213 1025 2328 
Q 1025 1447 1429 934 
Q 1834 422 2522 422 
Q 3209 422 3611 934 
Q 4013 1447 4013 2328 
Q 4013 3213 3611 3725 
Q 3209 4238 2522 4238 
z
M 3406 84 
L 4238 -825 
L 3475 -825 
L 2784 -78 
Q 2681 -84 2626 -87 
Q 2572 -91 2522 -91 
Q 1538 -91 948 567 
Q 359 1225 359 2328 
Q 359 3434 948 4092 
Q 1538 4750 2522 4750 
Q 3503 4750 4090 4092 
Q 4678 3434 4678 2328 
Q 4678 1516 4351 937 
Q 4025 359 3406 84 
z
" transform="scale(0.015625)"/>
      </defs>
      <use xlink:href="#DejaVuSans-4e"/>
      <use xlink:href="#DejaVuSans-50" transform="translate(74.804688 0)"/>
      <use xlink:href="#DejaVuSans-51" transform="translate(135.107422 0)"/>
      <use xlink:href="#DejaVuSans-20" transform="translate(213.818359 0)"/>
     </g>
     <!--  ChlF (rel. units) -->
     <g transform="translate(380.034801 187.191122) rotate(-90) scale(0.1 -0.1)">
      <defs>
       <path id="DejaVuSans-46" d="M 628 4666 
L 3309 4666 
L 3309 4134 
L 1259 4134 
L 1259 2759 
L 3109 2759 
L 3109 2228 
L 1259 2228 
L 1259 0 
L 628 0 
L 628 4666 
z
" transform="scale(0.015625)"/>
       <path id="DejaVuSans-75" d="M 544 1381 
L 544 3500 
L 1119 3500 
L 1119 1403 
Q 1119 906 1312 657 
Q 1506 409 1894 409 
Q 2359 409 2629 706 
Q 2900 1003 2900 1516 
L 2900 3500 
L 3475 3500 
L 3475 0 
L 2900 0 
L 2900 538 
Q 2691 219 2414 64 
Q 2138 -91 1772 -91 
Q 1169 -91 856 284 
Q 544 659 544 1381 
z
M 1991 3584 
L 1991 3584 
z
" transform="scale(0.015625)"/>
      </defs>
      <use xlink:href="#DejaVuSans-20"/>
      <use xlink:href="#DejaVuSans-43" transform="translate(31.787109 0)"/>
      <use xlink:href="#DejaVuSans-68" transform="translate(101.611328 0)"/>
      <use xlink:href="#DejaVuSans-6c" transform="translate(164.990234 0)"/>
      <use xlink:href="#DejaVuSans-46" transform="translate(192.773438 0)"/>
      <use xlink:href="#DejaVuSans-20" transform="translate(250.292969 0)"/>
      <use xlink:href="#DejaVuSans-28" transform="translate(282.080078 0)"/>
      <use xlink:href="#DejaVuSans-72" transform="translate(321.09375 0)"/>
      <use xlink:href="#DejaVuSans-65" transform="translate(359.957031 0)"/>
      <use xlink:href="#DejaVuSans-6c" transform="translate(421.480469 0)"/>
      <use xlink:href="#DejaVuSans-2e" transform="translate(449.263672 0)"/>
      <use xlink:href="#DejaVuSans-20" transform="translate(481.050781 0)"/>
      <use xlink:href="#DejaVuSans-75" transform="translate(512.837891 0)"/>
      <use xlink:href="#DejaVuSans-6e" transform="translate(576.216797 0)"/>
      <use xlink:href="#DejaVuSans-69" transform="translate(639.595703 0)"/>
      <use xlink:href="#DejaVuSans-74" transform="translate(667.378906 0)"/>
      <use xlink:href="#DejaVuSans-73" transform="translate(706.587891 0)"/>
      <use xlink:href="#DejaVuSans-29" transform="translate(758.6875 0)"/>
     </g>
    </g>
   </g>
   <g id="line2d_28">
    <path d="M 414.985528 285.65574 
L 417.969485 284.310362 
L 420.953443 282.374936 
L 423.9374 280.130175 
L 426.921357 277.679665 
L 429.905314 275.074918 
L 432.889271 272.346609 
L 435.873229 269.515243 
L 438.857186 266.595666 
L 441.841143 263.59927 
L 444.8251 260.535185 
L 447.809057 257.410974 
L 450.793015 254.233061 
L 453.776972 251.007016 
L 456.760929 247.737742 
L 459.744886 244.429606 
L 462.728844 241.086543 
L 465.712801 237.712119 
L 468.696758 234.309593 
L 471.680715 230.881954 
L 474.664672 227.431959 
L 477.64863 223.962159 
L 480.632587 220.47492 
L 483.616544 216.972448 
L 486.600501 213.4568 
L 489.584459 209.929899 
L 492.568416 206.393549 
L 495.552373 202.849443 
L 498.53633 199.299177 
L 501.520287 195.744253 
L 504.504245 192.186092 
L 507.488202 188.62604 
L 510.472159 185.065373 
L 513.456116 181.505305 
L 516.440074 177.946994 
L 519.424031 174.391545 
L 522.407988 170.840019 
L 525.391945 167.293434 
L 528.375902 163.752771 
L 531.35986 160.218978 
L 534.343817 156.692976 
L 537.327774 153.17566 
L 540.311731 149.667903 
L 543.295689 146.170563 
L 546.279646 142.684482 
L 549.263603 139.210494 
L 552.24756 135.749424 
L 555.231517 132.302093 
L 558.215475 128.86933 
L 561.199432 125.451958 
L 564.183389 122.050812 
L 567.167346 118.666739 
L 570.151303 115.300598 
L 573.135261 111.953272 
L 576.119218 108.625665 
L 579.103175 105.318706 
L 582.087132 102.033362 
L 585.07109 98.770636 
L 588.055047 95.531575 
L 591.039004 92.317273 
L 594.022961 89.128886 
L 597.006918 85.967628 
L 599.990876 82.834789 
L 602.974833 79.731736 
L 605.95879 76.659927 
L 608.942747 73.620922 
L 611.926705 70.616387 
L 614.910662 67.648122 
L 617.894619 64.718058 
L 620.878576 61.828285 
L 623.862533 58.981061 
L 626.846491 56.178839 
L 629.830448 53.424277 
L 632.814405 50.720264 
L 635.798362 48.069943 
L 638.78232 45.47673 
L 641.766277 42.944336 
L 644.750234 40.476785 
L 647.734191 38.078429 
L 650.718148 35.753951 
L 653.702106 33.508358 
L 656.686063 31.346956 
L 659.67002 29.275301 
L 662.653977 27.299106 
L 665.637934 25.424118 
L 668.621892 23.655931 
L 671.605849 21.99975 
L 674.589806 20.460094 
L 677.573763 19.040464 
L 680.557721 17.742989 
L 683.541678 16.568115 
L 686.525635 15.514357 
L 689.509592 14.578207 
L 692.493549 13.754202 
L 695.477507 13.035169 
L 698.461464 12.41262 
L 701.445421 11.877234 
L 704.429378 11.419353 
L 707.413336 11.029433 
L 710.397293 10.698395 
" clip-path="url(#pa1aa152fe1)" style="fill: none; stroke: #e29c23; stroke-width: 2; stroke-linecap: square"/>
   </g>
   <g id="line2d_29">
    <path d="M 414.985528 225.115541 
L 417.969485 222.373658 
L 420.953443 220.363486 
L 423.9374 218.793795 
L 426.921357 217.532147 
L 429.905314 216.501297 
L 432.889271 215.650584 
L 435.873229 214.944398 
L 438.857186 214.356501 
L 441.841143 213.866867 
L 444.8251 213.459801 
L 447.809057 213.122727 
L 450.793015 212.845395 
L 453.776972 212.619332 
L 456.760929 212.43745 
L 459.744886 212.293763 
L 462.728844 212.183177 
L 465.712801 212.101324 
L 468.696758 212.044442 
L 471.680715 212.009275 
L 474.664672 211.992989 
L 477.64863 211.993116 
L 480.632587 212.007495 
L 483.616544 212.034234 
L 486.600501 212.071668 
L 489.584459 212.118334 
L 492.568416 212.17294 
L 495.552373 212.234346 
L 498.53633 212.301546 
L 501.520287 212.373648 
L 504.504245 212.449865 
L 507.488202 212.529496 
L 510.472159 212.611921 
L 513.456116 212.696591 
L 516.440074 212.783016 
L 519.424031 212.870764 
L 522.407988 212.959447 
L 525.391945 213.048724 
L 528.375902 213.138288 
L 531.35986 213.227868 
L 534.343817 213.317221 
L 537.327774 213.406132 
L 540.311731 213.494407 
L 543.295689 213.581873 
L 546.279646 213.668377 
L 549.263603 213.75378 
L 552.24756 213.837956 
L 555.231517 213.920794 
L 558.215475 214.00219 
L 561.199432 214.082052 
L 564.183389 214.160295 
L 567.167346 214.236841 
L 570.151303 214.311616 
L 573.135261 214.384551 
L 576.119218 214.455583 
L 579.103175 214.524648 
L 582.087132 214.591686 
L 585.07109 214.656637 
L 588.055047 214.719443 
L 591.039004 214.780042 
L 594.022961 214.838374 
L 597.006918 214.894375 
L 599.990876 214.947978 
L 602.974833 214.999112 
L 605.95879 215.047703 
L 608.942747 215.093668 
L 611.926705 215.136922 
L 614.910662 215.177367 
L 617.894619 215.2149 
L 620.878576 215.249406 
L 623.862533 215.280759 
L 626.846491 215.308821 
L 629.830448 215.333436 
L 632.814405 215.354437 
L 635.798362 215.371635 
L 638.78232 215.384822 
L 641.766277 215.39377 
L 644.750234 215.398225 
L 647.734191 215.397911 
L 650.718148 215.392526 
L 653.702106 215.381741 
L 656.686063 215.365204 
L 659.67002 215.342541 
L 662.653977 215.313363 
L 665.637934 215.277271 
L 668.621892 215.233873 
L 671.605849 215.182797 
L 674.589806 215.123714 
L 677.573763 215.056359 
L 680.557721 214.980562 
L 683.541678 214.896267 
L 686.525635 214.803556 
L 689.509592 214.702654 
L 692.493549 214.59393 
L 695.477507 214.47788 
L 698.461464 214.355104 
L 701.445421 214.226265 
L 704.429378 214.092061 
L 707.413336 213.953188 
L 710.397293 213.810314 
" clip-path="url(#pa1aa152fe1)" style="fill: none; stroke: #5b82b5; stroke-width: 2; stroke-linecap: square"/>
   </g>
   <g id="patch_10">
    <path d="M 409.017614 285.90831 
L 409.017614 8.70831 
" style="fill: none; stroke: #000000; stroke-width: 0.8; stroke-linejoin: miter; stroke-linecap: square"/>
   </g>
   <g id="patch_11">
    <path d="M 713.38125 285.90831 
L 713.38125 8.70831 
" style="fill: none; stroke: #000000; stroke-width: 0.8; stroke-linejoin: miter; stroke-linecap: square"/>
   </g>
   <g id="patch_12">
    <path d="M 409.017614 285.90831 
L 713.38125 285.90831 
" style="fill: none; stroke: #000000; stroke-width: 0.8; stroke-linejoin: miter; stroke-linecap: square"/>
   </g>
   <g id="patch_13">
    <path d="M 409.017614 8.70831 
L 713.38125 8.70831 
" style="fill: none; stroke: #000000; stroke-width: 0.8; stroke-linejoin: miter; stroke-linecap: square"/>
   </g>
  </g>
  <g id="axes_3">
   <g id="matplotlib.axis_5">
    <g id="ytick_12">
     <g id="line2d_30">
      <defs>
       <path id="mfeebaa7d76" d="M 0 0 
L 3.5 0 
" style="stroke: #000000; stroke-width: 0.8"/>
      </defs>
      <g>
       <use xlink:href="#mfeebaa7d76" x="348.144886" y="224.30831" style="stroke: #000000; stroke-width: 0.8"/>
      </g>
     </g>
     <g id="text_28">
      <!-- 5.4 -->
      <g transform="translate(355.144886 228.107528) scale(0.1 -0.1)">
       <defs>
        <path id="DejaVuSans-35" d="M 691 4666 
L 3169 4666 
L 3169 4134 
L 1269 4134 
L 1269 2991 
Q 1406 3038 1543 3061 
Q 1681 3084 1819 3084 
Q 2600 3084 3056 2656 
Q 3513 2228 3513 1497 
Q 3513 744 3044 326 
Q 2575 -91 1722 -91 
Q 1428 -91 1123 -41 
Q 819 9 494 109 
L 494 744 
Q 775 591 1075 516 
Q 1375 441 1709 441 
Q 2250 441 2565 725 
Q 2881 1009 2881 1497 
Q 2881 1984 2565 2268 
Q 2250 2553 1709 2553 
Q 1456 2553 1204 2497 
Q 953 2441 691 2322 
L 691 4666 
z
" transform="scale(0.015625)"/>
       </defs>
       <use xlink:href="#DejaVuSans-35"/>
       <use xlink:href="#DejaVuSans-2e" transform="translate(63.623047 0)"/>
       <use xlink:href="#DejaVuSans-34" transform="translate(95.410156 0)"/>
      </g>
     </g>
    </g>
    <g id="ytick_13">
     <g id="line2d_31">
      <g>
       <use xlink:href="#mfeebaa7d76" x="348.144886" y="162.70831" style="stroke: #000000; stroke-width: 0.8"/>
      </g>
     </g>
     <g id="text_29">
      <!-- 5.8 -->
      <g transform="translate(355.144886 166.507528) scale(0.1 -0.1)">
       <use xlink:href="#DejaVuSans-35"/>
       <use xlink:href="#DejaVuSans-2e" transform="translate(63.623047 0)"/>
       <use xlink:href="#DejaVuSans-38" transform="translate(95.410156 0)"/>
      </g>
     </g>
    </g>
    <g id="ytick_14">
     <g id="line2d_32">
      <g>
       <use xlink:href="#mfeebaa7d76" x="348.144886" y="101.10831" style="stroke: #000000; stroke-width: 0.8"/>
      </g>
     </g>
     <g id="text_30">
      <!-- 6.2 -->
      <g transform="translate(355.144886 104.907528) scale(0.1 -0.1)">
       <use xlink:href="#DejaVuSans-36"/>
       <use xlink:href="#DejaVuSans-2e" transform="translate(63.623047 0)"/>
       <use xlink:href="#DejaVuSans-32" transform="translate(95.410156 0)"/>
      </g>
     </g>
    </g>
    <g id="ytick_15">
     <g id="line2d_33">
      <g>
       <use xlink:href="#mfeebaa7d76" x="348.144886" y="39.50831" style="stroke: #000000; stroke-width: 0.8"/>
      </g>
     </g>
     <g id="text_31">
      <!-- 6.6 -->
      <g transform="translate(355.144886 43.307528) scale(0.1 -0.1)">
       <use xlink:href="#DejaVuSans-36"/>
       <use xlink:href="#DejaVuSans-2e" transform="translate(63.623047 0)"/>
       <use xlink:href="#DejaVuSans-36" transform="translate(95.410156 0)"/>
      </g>
     </g>
    </g>
    <g id="text_32">
     <!-- Lumen pH -->
     <g transform="translate(382.646449 172.81456) rotate(-90) scale(0.1 -0.1)">
      <defs>
       <path id="DejaVuSans-48" d="M 628 4666 
L 1259 4666 
L 1259 2753 
L 3553 2753 
L 3553 4666 
L 4184 4666 
L 4184 0 
L 3553 0 
L 3553 2222 
L 1259 2222 
L 1259 0 
L 628 0 
L 628 4666 
z
" transform="scale(0.015625)"/>
      </defs>
      <use xlink:href="#DejaVuSans-4c"/>
      <use xlink:href="#DejaVuSans-75" transform="translate(53.962891 0)"/>
      <use xlink:href="#DejaVuSans-6d" transform="translate(117.341797 0)"/>
      <use xlink:href="#DejaVuSans-65" transform="translate(214.753906 0)"/>
      <use xlink:href="#DejaVuSans-6e" transform="translate(276.277344 0)"/>
      <use xlink:href="#DejaVuSans-20" transform="translate(339.65625 0)"/>
      <use xlink:href="#DejaVuSans-70" transform="translate(371.443359 0)"/>
      <use xlink:href="#DejaVuSans-48" transform="translate(434.919922 0)"/>
     </g>
    </g>
   </g>
   <g id="line2d_34">
    <path d="M 49.749164 20.96534 
L 52.733122 44.306391 
L 55.717079 54.409016 
L 58.701036 60.719386 
L 61.684993 65.295203 
L 64.668951 68.888412 
L 67.652908 71.852796 
L 70.636865 74.38175 
L 73.620822 76.592103 
L 76.604779 78.559664 
L 79.588737 80.336343 
L 82.572694 81.959211 
L 85.556651 83.455653 
L 88.540608 84.846467 
L 91.524566 86.14782 
L 94.508523 87.37253 
L 97.49248 88.530934 
L 100.476437 89.631496 
L 103.460394 90.681234 
L 106.444352 91.686036 
L 109.428309 92.650899 
L 112.412266 93.580097 
L 115.396223 94.477322 
L 118.38018 95.345788 
L 121.364138 96.188314 
L 124.348095 97.007388 
L 127.332052 97.805221 
L 130.316009 98.58379 
L 133.299967 99.344875 
L 136.283924 100.090083 
L 139.267881 100.820877 
L 142.251838 101.538594 
L 145.235795 102.244463 
L 148.219753 102.939618 
L 151.20371 103.625114 
L 154.187667 104.301931 
L 157.171624 104.970991 
L 160.155582 105.633163 
L 163.139539 106.289267 
L 166.123496 106.940085 
L 169.107453 107.586366 
L 172.09141 108.228828 
L 175.075368 108.868167 
L 178.059325 109.505059 
L 181.043282 110.140161 
L 184.027239 110.774123 
L 187.011197 111.407583 
L 189.995154 112.041173 
L 192.979111 112.675529 
L 195.963068 113.311281 
L 198.947025 113.94907 
L 201.930983 114.589541 
L 204.91494 115.233353 
L 207.898897 115.881177 
L 210.882854 116.533706 
L 213.866811 117.191652 
L 216.850769 117.855753 
L 219.834726 118.526779 
L 222.818683 119.205533 
L 225.80264 119.892856 
L 228.786598 120.589637 
L 231.770555 121.29681 
L 234.754512 122.015369 
L 237.738469 122.746369 
L 240.722426 123.490933 
L 243.706384 124.250264 
L 246.690341 125.025648 
L 249.674298 125.818468 
L 252.658255 126.63021 
L 255.642213 127.462476 
L 258.62617 128.316993 
L 261.610127 129.195625 
L 264.594084 130.100386 
L 267.578041 131.033448 
L 270.561999 131.997152 
L 273.545956 132.994018 
L 276.529913 134.026748 
L 279.51387 135.098223 
L 282.497828 136.211497 
L 285.481785 137.369776 
L 288.465742 138.576379 
L 291.449699 139.834683 
L 294.433656 141.148034 
L 297.417614 142.519628 
L 300.401571 143.952351 
L 303.385528 145.448573 
L 306.369485 147.009904 
L 309.353443 148.636916 
L 312.3374 150.328864 
L 315.321357 152.083431 
L 318.305314 153.89655 
L 321.289271 155.762351 
L 324.273229 157.673271 
L 327.257186 159.620338 
L 330.241143 161.593605 
L 333.2251 163.582678 
L 336.209057 165.577263 
L 339.193015 167.567652 
L 342.176972 169.545094 
L 345.160929 171.502032 
" clip-path="url(#paced989eab)" style="fill: none; stroke: #000000; stroke-width: 2; stroke-linecap: square"/>
   </g>
   <g id="patch_14">
    <path d="M 43.78125 285.90831 
L 43.78125 8.70831 
" style="fill: none; stroke: #000000; stroke-width: 0.8; stroke-linejoin: miter; stroke-linecap: square"/>
   </g>
   <g id="patch_15">
    <path d="M 348.144886 285.90831 
L 348.144886 8.70831 
" style="fill: none; stroke: #000000; stroke-width: 0.8; stroke-linejoin: miter; stroke-linecap: square"/>
   </g>
   <g id="patch_16">
    <path d="M 43.78125 285.90831 
L 348.144886 285.90831 
" style="fill: none; stroke: #000000; stroke-width: 0.8; stroke-linejoin: miter; stroke-linecap: square"/>
   </g>
   <g id="patch_17">
    <path d="M 43.78125 8.70831 
L 348.144886 8.70831 
" style="fill: none; stroke: #000000; stroke-width: 0.8; stroke-linejoin: miter; stroke-linecap: square"/>
   </g>
  </g>
  <g id="axes_4">
   <g id="matplotlib.axis_6">
    <g id="ytick_16">
     <g id="line2d_35">
      <g>
       <use xlink:href="#mfeebaa7d76" x="713.38125" y="285.90831" style="stroke: #000000; stroke-width: 0.8"/>
      </g>
     </g>
     <g id="text_33">
      <!-- 0 -->
      <g transform="translate(720.38125 289.707528) scale(0.1 -0.1)">
       <use xlink:href="#DejaVuSans-30"/>
      </g>
     </g>
    </g>
    <g id="ytick_17">
     <g id="line2d_36">
      <g>
       <use xlink:href="#mfeebaa7d76" x="713.38125" y="240.090128" style="stroke: #000000; stroke-width: 0.8"/>
      </g>
     </g>
     <g id="text_34">
      <!-- 20 -->
      <g transform="translate(720.38125 243.889347) scale(0.1 -0.1)">
       <use xlink:href="#DejaVuSans-32"/>
       <use xlink:href="#DejaVuSans-30" transform="translate(63.623047 0)"/>
      </g>
     </g>
    </g>
    <g id="ytick_18">
     <g id="line2d_37">
      <g>
       <use xlink:href="#mfeebaa7d76" x="713.38125" y="194.271946" style="stroke: #000000; stroke-width: 0.8"/>
      </g>
     </g>
     <g id="text_35">
      <!-- 40 -->
      <g transform="translate(720.38125 198.071165) scale(0.1 -0.1)">
       <use xlink:href="#DejaVuSans-34"/>
       <use xlink:href="#DejaVuSans-30" transform="translate(63.623047 0)"/>
      </g>
     </g>
    </g>
    <g id="ytick_19">
     <g id="line2d_38">
      <g>
       <use xlink:href="#mfeebaa7d76" x="713.38125" y="148.453764" style="stroke: #000000; stroke-width: 0.8"/>
      </g>
     </g>
     <g id="text_36">
      <!-- 60 -->
      <g transform="translate(720.38125 152.252983) scale(0.1 -0.1)">
       <use xlink:href="#DejaVuSans-36"/>
       <use xlink:href="#DejaVuSans-30" transform="translate(63.623047 0)"/>
      </g>
     </g>
    </g>
    <g id="ytick_20">
     <g id="line2d_39">
      <g>
       <use xlink:href="#mfeebaa7d76" x="713.38125" y="102.635582" style="stroke: #000000; stroke-width: 0.8"/>
      </g>
     </g>
     <g id="text_37">
      <!-- 80 -->
      <g transform="translate(720.38125 106.434801) scale(0.1 -0.1)">
       <use xlink:href="#DejaVuSans-38"/>
       <use xlink:href="#DejaVuSans-30" transform="translate(63.623047 0)"/>
      </g>
     </g>
    </g>
    <g id="ytick_21">
     <g id="line2d_40">
      <g>
       <use xlink:href="#mfeebaa7d76" x="713.38125" y="56.817401" style="stroke: #000000; stroke-width: 0.8"/>
      </g>
     </g>
     <g id="text_38">
      <!-- 100 -->
      <g transform="translate(720.38125 60.616619) scale(0.1 -0.1)">
       <use xlink:href="#DejaVuSans-31"/>
       <use xlink:href="#DejaVuSans-30" transform="translate(63.623047 0)"/>
       <use xlink:href="#DejaVuSans-30" transform="translate(127.246094 0)"/>
      </g>
     </g>
    </g>
    <g id="ytick_22">
     <g id="line2d_41">
      <g>
       <use xlink:href="#mfeebaa7d76" x="713.38125" y="10.999219" style="stroke: #000000; stroke-width: 0.8"/>
      </g>
     </g>
     <g id="text_39">
      <!-- 120 -->
      <g transform="translate(720.38125 14.798437) scale(0.1 -0.1)">
       <use xlink:href="#DejaVuSans-31"/>
       <use xlink:href="#DejaVuSans-32" transform="translate(63.623047 0)"/>
       <use xlink:href="#DejaVuSans-30" transform="translate(127.246094 0)"/>
      </g>
     </g>
    </g>
    <g id="text_40">
     <!-- O$_2$ rate \n (mol O$_2$ $\cdot$ mol PSIIRC$^{-1}$ $\cdot$ s$^{-1}$) -->
     <g transform="translate(752.089062 244.45831) rotate(-90) scale(0.1 -0.1)">
      <defs>
       <path id="DejaVuSans-4f" d="M 2522 4238 
Q 1834 4238 1429 3725 
Q 1025 3213 1025 2328 
Q 1025 1447 1429 934 
Q 1834 422 2522 422 
Q 3209 422 3611 934 
Q 4013 1447 4013 2328 
Q 4013 3213 3611 3725 
Q 3209 4238 2522 4238 
z
M 2522 4750 
Q 3503 4750 4090 4092 
Q 4678 3434 4678 2328 
Q 4678 1225 4090 567 
Q 3503 -91 2522 -91 
Q 1538 -91 948 565 
Q 359 1222 359 2328 
Q 359 3434 948 4092 
Q 1538 4750 2522 4750 
z
" transform="scale(0.015625)"/>
       <path id="DejaVuSans-5c" d="M 531 4666 
L 2156 -594 
L 1625 -594 
L 0 4666 
L 531 4666 
z
" transform="scale(0.015625)"/>
       <path id="DejaVuSans-53" d="M 3425 4513 
L 3425 3897 
Q 3066 4069 2747 4153 
Q 2428 4238 2131 4238 
Q 1616 4238 1336 4038 
Q 1056 3838 1056 3469 
Q 1056 3159 1242 3001 
Q 1428 2844 1947 2747 
L 2328 2669 
Q 3034 2534 3370 2195 
Q 3706 1856 3706 1288 
Q 3706 609 3251 259 
Q 2797 -91 1919 -91 
Q 1588 -91 1214 -16 
Q 841 59 441 206 
L 441 856 
Q 825 641 1194 531 
Q 1563 422 1919 422 
Q 2459 422 2753 634 
Q 3047 847 3047 1241 
Q 3047 1584 2836 1778 
Q 2625 1972 2144 2069 
L 1759 2144 
Q 1053 2284 737 2584 
Q 422 2884 422 3419 
Q 422 4038 858 4394 
Q 1294 4750 2059 4750 
Q 2388 4750 2728 4690 
Q 3069 4631 3425 4513 
z
" transform="scale(0.015625)"/>
      </defs>
      <use xlink:href="#DejaVuSans-4f" transform="translate(0 0.684375)"/>
      <use xlink:href="#DejaVuSans-32" transform="translate(79.667969 -15.721875) scale(0.7)"/>
      <use xlink:href="#DejaVuSans-20" transform="translate(126.938477 0.684375)"/>
      <use xlink:href="#DejaVuSans-72" transform="translate(158.725586 0.684375)"/>
      <use xlink:href="#DejaVuSans-61" transform="translate(199.838867 0.684375)"/>
      <use xlink:href="#DejaVuSans-74" transform="translate(261.118164 0.684375)"/>
      <use xlink:href="#DejaVuSans-65" transform="translate(300.327148 0.684375)"/>
      <use xlink:href="#DejaVuSans-20" transform="translate(361.850586 0.684375)"/>
      <use xlink:href="#DejaVuSans-5c" transform="translate(393.637695 0.684375)"/>
      <use xlink:href="#DejaVuSans-6e" transform="translate(427.329102 0.684375)"/>
      <use xlink:href="#DejaVuSans-20" transform="translate(490.708008 0.684375)"/>
      <use xlink:href="#DejaVuSans-28" transform="translate(522.495117 0.684375)"/>
      <use xlink:href="#DejaVuSans-6d" transform="translate(561.508789 0.684375)"/>
      <use xlink:href="#DejaVuSans-6f" transform="translate(658.920898 0.684375)"/>
      <use xlink:href="#DejaVuSans-6c" transform="translate(720.102539 0.684375)"/>
      <use xlink:href="#DejaVuSans-20" transform="translate(747.885742 0.684375)"/>
      <use xlink:href="#DejaVuSans-4f" transform="translate(779.672852 0.684375)"/>
      <use xlink:href="#DejaVuSans-32" transform="translate(859.34082 -15.721875) scale(0.7)"/>
      <use xlink:href="#DejaVuSans-20" transform="translate(906.611328 0.684375)"/>
      <use xlink:href="#DejaVuSans-22c5" transform="translate(938.398438 0.684375)"/>
      <use xlink:href="#DejaVuSans-20" transform="translate(970.185547 0.684375)"/>
      <use xlink:href="#DejaVuSans-6d" transform="translate(1001.972656 0.684375)"/>
      <use xlink:href="#DejaVuSans-6f" transform="translate(1099.384766 0.684375)"/>
      <use xlink:href="#DejaVuSans-6c" transform="translate(1160.566406 0.684375)"/>
      <use xlink:href="#DejaVuSans-20" transform="translate(1188.349609 0.684375)"/>
      <use xlink:href="#DejaVuSans-50" transform="translate(1220.136719 0.684375)"/>
      <use xlink:href="#DejaVuSans-53" transform="translate(1280.439453 0.684375)"/>
      <use xlink:href="#DejaVuSans-49" transform="translate(1343.916016 0.684375)"/>
      <use xlink:href="#DejaVuSans-49" transform="translate(1373.408203 0.684375)"/>
      <use xlink:href="#DejaVuSans-52" transform="translate(1402.900391 0.684375)"/>
      <use xlink:href="#DejaVuSans-43" transform="translate(1472.382812 0.684375)"/>
      <use xlink:href="#DejaVuSans-2212" transform="translate(1543.164062 38.965625) scale(0.7)"/>
      <use xlink:href="#DejaVuSans-31" transform="translate(1601.816406 38.965625) scale(0.7)"/>
      <use xlink:href="#DejaVuSans-20" transform="translate(1649.086914 0.684375)"/>
      <use xlink:href="#DejaVuSans-22c5" transform="translate(1680.874023 0.684375)"/>
      <use xlink:href="#DejaVuSans-20" transform="translate(1712.661133 0.684375)"/>
      <use xlink:href="#DejaVuSans-73" transform="translate(1744.448242 0.684375)"/>
      <use xlink:href="#DejaVuSans-2212" transform="translate(1797.504883 38.965625) scale(0.7)"/>
      <use xlink:href="#DejaVuSans-31" transform="translate(1856.157227 38.965625) scale(0.7)"/>
      <use xlink:href="#DejaVuSans-29" transform="translate(1903.427734 0.684375)"/>
     </g>
    </g>
   </g>
   <g id="line2d_42">
    <path d="M 414.985528 280.325795 
L 417.969485 274.953824 
L 420.953443 269.778876 
L 423.9374 264.78702 
L 426.921357 259.966987 
L 429.905314 255.309522 
L 432.889271 250.806683 
L 435.873229 246.451404 
L 438.857186 242.237226 
L 441.841143 238.158137 
L 444.8251 234.208474 
L 447.809057 230.382855 
L 450.793015 226.676145 
L 453.776972 223.083428 
L 456.760929 219.599986 
L 459.744886 216.221294 
L 462.728844 212.943003 
L 465.712801 209.76094 
L 468.696758 206.671096 
L 471.680715 203.669625 
L 474.664672 200.752838 
L 477.64863 197.917196 
L 480.632587 195.15931 
L 483.616544 192.475931 
L 486.600501 189.863948 
L 489.584459 187.320384 
L 492.568416 184.842388 
L 495.552373 182.427233 
L 498.53633 180.07231 
L 501.520287 177.775124 
L 504.504245 175.533285 
L 507.488202 173.344511 
L 510.472159 171.206617 
L 513.456116 169.11751 
L 516.440074 167.07519 
L 519.424031 165.077742 
L 522.407988 163.12333 
L 525.391945 161.210198 
L 528.375902 159.336661 
L 531.35986 157.501105 
L 534.343817 155.701978 
L 537.327774 153.937795 
L 540.311731 152.207125 
L 543.295689 150.508594 
L 546.279646 148.840881 
L 549.263603 147.20271 
L 552.24756 145.592854 
L 555.231517 144.010127 
L 558.215475 142.453382 
L 561.199432 140.921512 
L 564.183389 139.41344 
L 567.167346 137.928124 
L 570.151303 136.464548 
L 573.135261 135.021724 
L 576.119218 133.598686 
L 579.103175 132.19449 
L 582.087132 130.808209 
L 585.07109 129.438933 
L 588.055047 128.085762 
L 591.039004 126.74781 
L 594.022961 125.424193 
L 597.006918 124.114034 
L 599.990876 122.816456 
L 602.974833 121.530578 
L 605.95879 120.255513 
L 608.942747 118.990365 
L 611.926705 117.734222 
L 614.910662 116.486153 
L 617.894619 115.245202 
L 620.878576 114.010387 
L 623.862533 112.780688 
L 626.846491 111.555044 
L 629.830448 110.33235 
L 632.814405 109.111442 
L 635.798362 107.891097 
L 638.78232 106.670022 
L 641.766277 105.446848 
L 644.750234 104.220122 
L 647.734191 102.988304 
L 650.718148 101.749761 
L 653.702106 100.502767 
L 656.686063 99.24551 
L 659.67002 97.976103 
L 662.653977 96.692605 
L 665.637934 95.393056 
L 668.621892 94.075526 
L 671.605849 92.738181 
L 674.589806 91.379364 
L 677.573763 89.997693 
L 680.557721 88.592164 
L 683.541678 87.162242 
L 686.525635 85.70794 
L 689.509592 84.229852 
L 692.493549 82.729149 
L 695.477507 81.207512 
L 698.461464 79.667031 
L 701.445421 78.110069 
L 704.429378 76.539126 
L 707.413336 74.95671 
L 710.397293 73.365227 
" clip-path="url(#pa1aa152fe1)" style="fill: none; stroke: #000000; stroke-width: 2; stroke-linecap: square"/>
   </g>
   <g id="patch_18">
    <path d="M 409.017614 285.90831 
L 409.017614 8.70831 
" style="fill: none; stroke: #000000; stroke-width: 0.8; stroke-linejoin: miter; stroke-linecap: square"/>
   </g>
   <g id="patch_19">
    <path d="M 713.38125 285.90831 
L 713.38125 8.70831 
" style="fill: none; stroke: #000000; stroke-width: 0.8; stroke-linejoin: miter; stroke-linecap: square"/>
   </g>
   <g id="patch_20">
    <path d="M 409.017614 285.90831 
L 713.38125 285.90831 
" style="fill: none; stroke: #000000; stroke-width: 0.8; stroke-linejoin: miter; stroke-linecap: square"/>
   </g>
   <g id="patch_21">
    <path d="M 409.017614 8.70831 
L 713.38125 8.70831 
" style="fill: none; stroke: #000000; stroke-width: 0.8; stroke-linejoin: miter; stroke-linecap: square"/>
   </g>
  </g>
 </g>
 <defs>
  <clipPath id="paced989eab">
   <rect x="43.78125" y="8.70831" width="304.363636" height="277.2"/>
  </clipPath>
  <clipPath id="pa1aa152fe1">
   <rect x="409.017614" y="8.70831" width="304.363636" height="277.2"/>
  </clipPath>
 </defs>
</svg>
