<?xml version="1.0" encoding="UTF-8" standalone="no"?>
<!-- Created with Inkscape (http://www.inkscape.org/) -->

<svg
   width="210mm"
   height="297mm"
   viewBox="0 0 210 297"
   version="1.1"
   id="svg5"
   xml:space="preserve"
   inkscape:version="1.2.2 (b0a8486541, 2022-12-01)"
   sodipodi:docname="GreenSloth_project.svg"
   xmlns:inkscape="http://www.inkscape.org/namespaces/inkscape"
   xmlns:sodipodi="http://sodipodi.sourceforge.net/DTD/sodipodi-0.dtd"
   xmlns="http://www.w3.org/2000/svg"
   xmlns:svg="http://www.w3.org/2000/svg"><sodipodi:namedview
     id="namedview7"
     pagecolor="#505050"
     bordercolor="#eeeeee"
     borderopacity="1"
     inkscape:showpageshadow="0"
     inkscape:pageopacity="0"
     inkscape:pagecheckerboard="0"
     inkscape:deskcolor="#505050"
     inkscape:document-units="mm"
     showgrid="false"
     showguides="true"
     inkscape:zoom="0.97764853"
     inkscape:cx="2474.8158"
     inkscape:cy="413.74787"
     inkscape:window-width="1920"
     inkscape:window-height="977"
     inkscape:window-x="1920"
     inkscape:window-y="0"
     inkscape:window-maximized="1"
     inkscape:current-layer="layer1" /><defs
     id="defs2"><inkscape:path-effect
       effect="skeletal"
       id="path-effect9581"
       is_visible="true"
       lpeversion="1"
       pattern="#path9550"
       copytype="single_stretched"
       prop_scale="0.12031584"
       scale_y_rel="false"
       spacing="0"
       normal_offset="0"
       tang_offset="0"
       prop_units="false"
       vertical_pattern="true"
       hide_knot="false"
       fuse_tolerance="0" /><inkscape:path-effect
       effect="skeletal"
       id="path-effect9567"
       is_visible="true"
       lpeversion="1"
       pattern="#path9550"
       copytype="single_stretched"
       prop_scale="0.33720795"
       scale_y_rel="false"
       spacing="0"
       normal_offset="0"
       tang_offset="0"
       prop_units="false"
       vertical_pattern="true"
       hide_knot="false"
       fuse_tolerance="0" /><inkscape:path-effect
       effect="skeletal"
       id="path-effect9292"
       is_visible="true"
       lpeversion="1"
       pattern="M 834.65272,99.183012 H 806.48806 L 820.57039,52.081201 Z"
       copytype="single_stretched"
       prop_scale="2.4535219"
       scale_y_rel="false"
       spacing="0"
       normal_offset="0"
       tang_offset="0"
       prop_units="false"
       vertical_pattern="true"
       hide_knot="false"
       fuse_tolerance="0" /><inkscape:path-effect
       effect="skeletal"
       id="path-effect9269"
       is_visible="true"
       lpeversion="1"
       pattern="M 834.65272,99.183012 H 806.48806 L 820.57039,52.081201 Z"
       copytype="single_stretched"
       prop_scale="0.89667609"
       scale_y_rel="false"
       spacing="0"
       normal_offset="0"
       tang_offset="0"
       prop_units="false"
       vertical_pattern="true"
       hide_knot="false"
       fuse_tolerance="0" /><inkscape:path-effect
       effect="skeletal"
       id="path-effect9255"
       is_visible="true"
       lpeversion="1"
       pattern="M 834.65272,99.183012 H 806.48806 L 820.57039,52.081201 Z"
       copytype="single_stretched"
       prop_scale="0.78381763"
       scale_y_rel="false"
       spacing="0"
       normal_offset="0"
       tang_offset="0"
       prop_units="false"
       vertical_pattern="true"
       hide_knot="false"
       fuse_tolerance="0" /><inkscape:path-effect
       effect="skeletal"
       id="path-effect9241"
       is_visible="true"
       lpeversion="1"
       pattern="M 834.65272,99.183012 H 806.48806 L 820.57039,52.081201 Z"
       copytype="single_stretched"
       prop_scale="1"
       scale_y_rel="false"
       spacing="0"
       normal_offset="0"
       tang_offset="0"
       prop_units="false"
       vertical_pattern="true"
       hide_knot="false"
       fuse_tolerance="0" /><inkscape:path-effect
       effect="skeletal"
       id="path-effect9207"
       is_visible="true"
       lpeversion="1"
       pattern="M 834.65272,99.183012 H 806.48806 L 820.57039,52.081201 Z"
       copytype="single_stretched"
       prop_scale="2.4535219"
       scale_y_rel="false"
       spacing="0"
       normal_offset="0"
       tang_offset="0"
       prop_units="false"
       vertical_pattern="true"
       hide_knot="false"
       fuse_tolerance="0" /><inkscape:path-effect
       effect="skeletal"
       id="path-effect8397"
       is_visible="true"
       lpeversion="1"
       pattern="M 834.65272,99.183012 H 806.48806 L 820.57039,52.081201 Z"
       copytype="single_stretched"
       prop_scale="1"
       scale_y_rel="false"
       spacing="0"
       normal_offset="0"
       tang_offset="0"
       prop_units="false"
       vertical_pattern="true"
       hide_knot="false"
       fuse_tolerance="0" /><inkscape:path-effect
       effect="powerstroke"
       id="path-effect5900"
       is_visible="true"
       lpeversion="1"
       offset_points="0,3.7898501"
       not_jump="false"
       sort_points="true"
       interpolator_type="CubicBezierJohan"
       interpolator_beta="0.2"
       start_linecap_type="zerowidth"
       linejoin_type="extrp_arc"
       miter_limit="4"
       scale_width="1"
       end_linecap_type="zerowidth" /><inkscape:path-effect
       effect="simplify"
       id="path-effect5898"
       is_visible="true"
       lpeversion="1"
       steps="1"
       threshold="0.5"
       smooth_angles="360"
       helper_size="0"
       simplify_individual_paths="false"
       simplify_just_coalesce="false" /><inkscape:path-effect
       effect="powerclip"
       id="path-effect5073"
       is_visible="true"
       lpeversion="1"
       inverse="true"
       flatten="false"
       hide_clip="false"
       message="Use fill-rule evenodd on &lt;b&gt;fill and stroke&lt;/b&gt; dialog if no flatten result after convert clip to paths." /><inkscape:path-effect
       effect="powerclip"
       id="path-effect5065"
       is_visible="true"
       lpeversion="1"
       inverse="true"
       flatten="false"
       hide_clip="false"
       message="Use fill-rule evenodd on &lt;b&gt;fill and stroke&lt;/b&gt; dialog if no flatten result after convert clip to paths." /><inkscape:path-effect
       effect="powerclip"
       id="path-effect5057"
       is_visible="true"
       lpeversion="1"
       inverse="true"
       flatten="false"
       hide_clip="false"
       message="Use fill-rule evenodd on &lt;b&gt;fill and stroke&lt;/b&gt; dialog if no flatten result after convert clip to paths." /><inkscape:path-effect
       effect="powerclip"
       id="path-effect5049"
       is_visible="true"
       lpeversion="1"
       inverse="true"
       flatten="false"
       hide_clip="false"
       message="Use fill-rule evenodd on &lt;b&gt;fill and stroke&lt;/b&gt; dialog if no flatten result after convert clip to paths." /><inkscape:path-effect
       effect="powerstroke"
       id="path-effect3984"
       is_visible="true"
       lpeversion="1"
       offset_points="0,2.3817144"
       not_jump="false"
       sort_points="true"
       interpolator_type="CubicBezierJohan"
       interpolator_beta="0.2"
       start_linecap_type="zerowidth"
       linejoin_type="extrp_arc"
       miter_limit="4"
       scale_width="1"
       end_linecap_type="zerowidth" /><inkscape:path-effect
       effect="simplify"
       id="path-effect3982"
       is_visible="true"
       lpeversion="1"
       steps="1"
       threshold="0.5"
       smooth_angles="360"
       helper_size="0"
       simplify_individual_paths="false"
       simplify_just_coalesce="false" /><inkscape:path-effect
       effect="powerstroke"
       id="path-effect3953"
       is_visible="true"
       lpeversion="1"
       offset_points="0,5"
       not_jump="false"
       sort_points="true"
       interpolator_type="CubicBezierJohan"
       interpolator_beta="0.2"
       start_linecap_type="zerowidth"
       linejoin_type="extrp_arc"
       miter_limit="4"
       scale_width="1"
       end_linecap_type="zerowidth" /><inkscape:path-effect
       effect="simplify"
       id="path-effect3951"
       is_visible="true"
       lpeversion="1"
       steps="1"
       threshold="0.5"
       smooth_angles="360"
       helper_size="0"
       simplify_individual_paths="false"
       simplify_just_coalesce="false" /><inkscape:path-effect
       effect="powerstroke"
       id="path-effect3943"
       is_visible="true"
       lpeversion="1"
       offset_points="0,5"
       not_jump="false"
       sort_points="true"
       interpolator_type="CubicBezierJohan"
       interpolator_beta="0.2"
       start_linecap_type="zerowidth"
       linejoin_type="extrp_arc"
       miter_limit="4"
       scale_width="1"
       end_linecap_type="zerowidth" /><inkscape:path-effect
       effect="simplify"
       id="path-effect3941"
       is_visible="true"
       lpeversion="1"
       steps="1"
       threshold="0.5"
       smooth_angles="360"
       helper_size="0"
       simplify_individual_paths="false"
       simplify_just_coalesce="false" /><inkscape:path-effect
       effect="powerstroke"
       id="path-effect3923"
       is_visible="true"
       lpeversion="1"
       offset_points="0,5"
       not_jump="false"
       sort_points="true"
       interpolator_type="CubicBezierJohan"
       interpolator_beta="0.2"
       start_linecap_type="zerowidth"
       linejoin_type="extrp_arc"
       miter_limit="4"
       scale_width="1"
       end_linecap_type="zerowidth" /><inkscape:path-effect
       effect="simplify"
       id="path-effect3921"
       is_visible="true"
       lpeversion="1"
       steps="1"
       threshold="0.5"
       smooth_angles="360"
       helper_size="0"
       simplify_individual_paths="false"
       simplify_just_coalesce="false" /><inkscape:path-effect
       effect="powerstroke"
       id="path-effect3854"
       is_visible="true"
       lpeversion="1"
       offset_points="0,5"
       not_jump="false"
       sort_points="true"
       interpolator_type="CubicBezierJohan"
       interpolator_beta="0.2"
       start_linecap_type="zerowidth"
       linejoin_type="extrp_arc"
       miter_limit="4"
       scale_width="1"
       end_linecap_type="zerowidth" /><inkscape:path-effect
       effect="bspline"
       id="path-effect3852"
       is_visible="true"
       lpeversion="1"
       weight="33.333333"
       steps="2"
       helper_size="0"
       apply_no_weight="true"
       apply_with_weight="true"
       only_selected="false" /><inkscape:path-effect
       effect="powerstroke"
       id="path-effect3781"
       is_visible="true"
       lpeversion="1"
       offset_points="0,5"
       not_jump="false"
       sort_points="true"
       interpolator_type="CubicBezierJohan"
       interpolator_beta="0.2"
       start_linecap_type="zerowidth"
       linejoin_type="extrp_arc"
       miter_limit="4"
       scale_width="1"
       end_linecap_type="zerowidth" /><inkscape:path-effect
       effect="bspline"
       id="path-effect3779"
       is_visible="true"
       lpeversion="1"
       weight="33.333333"
       steps="2"
       helper_size="0"
       apply_no_weight="true"
       apply_with_weight="true"
       only_selected="false" /><inkscape:path-effect
       effect="powerstroke"
       id="path-effect3771"
       is_visible="true"
       lpeversion="1"
       offset_points="0,5"
       not_jump="false"
       sort_points="true"
       interpolator_type="CubicBezierJohan"
       interpolator_beta="0.2"
       start_linecap_type="zerowidth"
       linejoin_type="extrp_arc"
       miter_limit="4"
       scale_width="1"
       end_linecap_type="zerowidth" /><inkscape:path-effect
       effect="bspline"
       id="path-effect3769"
       is_visible="true"
       lpeversion="1"
       weight="33.333333"
       steps="2"
       helper_size="0"
       apply_no_weight="true"
       apply_with_weight="true"
       only_selected="false" /><inkscape:path-effect
       effect="powerstroke"
       id="path-effect3761"
       is_visible="true"
       lpeversion="1"
       offset_points="0,5"
       not_jump="false"
       sort_points="true"
       interpolator_type="CubicBezierJohan"
       interpolator_beta="0.2"
       start_linecap_type="zerowidth"
       linejoin_type="extrp_arc"
       miter_limit="4"
       scale_width="1"
       end_linecap_type="zerowidth" /><inkscape:path-effect
       effect="simplify"
       id="path-effect3759"
       is_visible="true"
       lpeversion="1"
       steps="1"
       threshold="0.5"
       smooth_angles="360"
       helper_size="0"
       simplify_individual_paths="false"
       simplify_just_coalesce="false" /><inkscape:path-effect
       effect="powerstroke"
       id="path-effect3751"
       is_visible="true"
       lpeversion="1"
       offset_points="0,5"
       not_jump="false"
       sort_points="true"
       interpolator_type="CubicBezierJohan"
       interpolator_beta="0.2"
       start_linecap_type="zerowidth"
       linejoin_type="extrp_arc"
       miter_limit="4"
       scale_width="1"
       end_linecap_type="zerowidth" /><inkscape:path-effect
       effect="simplify"
       id="path-effect3749"
       is_visible="true"
       lpeversion="1"
       steps="1"
       threshold="0.5"
       smooth_angles="360"
       helper_size="0"
       simplify_individual_paths="false"
       simplify_just_coalesce="false" /><inkscape:path-effect
       effect="powerstroke"
       id="path-effect3745"
       is_visible="true"
       lpeversion="1"
       offset_points="0,4"
       not_jump="false"
       sort_points="true"
       interpolator_type="CubicBezierJohan"
       interpolator_beta="0.2"
       start_linecap_type="zerowidth"
       linejoin_type="extrp_arc"
       miter_limit="4"
       scale_width="1"
       end_linecap_type="zerowidth" /><inkscape:path-effect
       effect="simplify"
       id="path-effect3743"
       is_visible="true"
       lpeversion="1"
       steps="1"
       threshold="0.5"
       smooth_angles="360"
       helper_size="0"
       simplify_individual_paths="false"
       simplify_just_coalesce="false" /><inkscape:path-effect
       effect="powerstroke"
       id="path-effect3664"
       is_visible="true"
       lpeversion="1"
       offset_points="0,1.8993958"
       not_jump="false"
       sort_points="true"
       interpolator_type="CubicBezierJohan"
       interpolator_beta="0.2"
       start_linecap_type="zerowidth"
       linejoin_type="extrp_arc"
       miter_limit="4"
       scale_width="1"
       end_linecap_type="zerowidth" /><inkscape:path-effect
       effect="simplify"
       id="path-effect3662"
       is_visible="true"
       lpeversion="1"
       steps="1"
       threshold="0.5"
       smooth_angles="360"
       helper_size="0"
       simplify_individual_paths="false"
       simplify_just_coalesce="false" /><inkscape:path-effect
       effect="mirror_symmetry"
       start_point="604.04903,166.83243"
       end_point="604.04903,223.47844"
       center_point="604.04903,195.15543"
       id="path-effect2080"
       is_visible="true"
       lpeversion="1.2"
       lpesatellites=""
       mode="free"
       discard_orig_path="false"
       fuse_paths="false"
       oposite_fuse="false"
       split_items="false"
       split_open="false"
       link_styles="false" /><inkscape:path-effect
       effect="fill_between_many"
       method="bsplinespiro"
       linkedpaths="#path3660,0,1"
       id="path-effect3666" /><inkscape:path-effect
       effect="fill_between_many"
       method="bsplinespiro"
       linkedpaths="#path3747,0,1"
       id="path-effect3753" /><inkscape:path-effect
       effect="fill_between_many"
       method="bsplinespiro"
       linkedpaths="#path3757,0,1"
       id="path-effect3763" /><inkscape:path-effect
       effect="fill_between_many"
       method="bsplinespiro"
       linkedpaths="#path3767,0,1"
       id="path-effect3773" /><inkscape:path-effect
       effect="fill_between_many"
       method="bsplinespiro"
       linkedpaths="#path3777,0,1"
       id="path-effect3783" /><inkscape:path-effect
       effect="fill_between_many"
       method="bsplinespiro"
       linkedpaths="#path3919,0,1"
       id="path-effect3925" /><inkscape:path-effect
       effect="fill_between_many"
       method="bsplinespiro"
       linkedpaths="#path3939,0,1"
       id="path-effect3945" /><inkscape:path-effect
       effect="fill_between_many"
       method="bsplinespiro"
       linkedpaths="#path3949,0,1"
       id="path-effect3955" /><inkscape:path-effect
       effect="fill_between_many"
       method="bsplinespiro"
       linkedpaths="#path3980,0,1"
       id="path-effect3986" /><inkscape:path-effect
       effect="fill_between_many"
       method="bsplinespiro"
       linkedpaths="#path5896,0,1"
       id="path-effect5902" /></defs><g
     inkscape:label="Layer 1"
     inkscape:groupmode="layer"
     id="layer1"><g
       id="g472"
       transform="matrix(0.26458333,0,0,0.26458333,525.15187,113.74748)"
       inkscape:label="Logo"
       style="stroke:none;stroke-opacity:1;stroke-width:7.55905522;stroke-dasharray:none;paint-order:stroke fill markers;stroke-linecap:butt;stroke-linejoin:round"><path
         id="path367"
         style="display:inline;fill:#4d683d;fill-opacity:1;stroke:#ffffff;stroke-opacity:1;stroke-width:7.55905522;stroke-dasharray:none;paint-order:stroke fill markers;stroke-linecap:butt;stroke-linejoin:round"
         class="cls-5"
         d="M 253.5256 20.35389 C 252.5156 21.743888 251.45662 23.043735 250.56662 24.443734 C 249.66662 25.863732 248.91591 27.373891 248.09591 28.85389 L 247.85568 28.764046 C 248.05568 26.954048 248.2563 25.143575 248.4963 23.033577 C 248.0263 23.483577 247.75708 23.693734 247.54708 23.943734 C 246.19709 25.523732 244.82607 27.093501 243.50607 28.703499 C 242.73607 29.633498 241.85716 30.122953 240.62716 30.392952 C 238.34716 30.902952 235.92724 31.364047 233.95724 32.514046 C 223.99725 38.35404 218.80732 47.032808 219.53732 58.732797 C 219.96732 65.59279 223.35662 70.643346 230.06662 73.293344 L 230.06662 73.283578 C 228.69662 71.69358 227.36669 70.243498 226.14669 68.7035 C 223.1867 64.973504 221.86662 60.703261 222.31662 55.963265 C 222.92661 49.603272 225.94662 44.513027 230.81662 40.473031 C 234.10661 37.743033 237.89717 36.68264 242.12716 37.07264 C 248.14716 37.622639 254.14717 37.392874 260.12716 36.562874 C 268.35715 35.432876 274.83662 38.113507 279.31662 45.2035 C 280.23662 46.653498 280.92701 48.253579 281.71701 49.783578 C 279.71701 40.183587 274.52645 33.472559 264.40646 30.742562 C 266.91646 29.902563 269.19677 29.143186 271.47677 28.383187 C 270.69677 28.203187 269.9763 28.183499 269.2463 28.203499 C 267.24631 28.263499 265.23654 28.443421 263.23654 28.373421 C 259.97654 28.273421 257.22646 26.983965 255.40646 24.183968 C 254.68646 23.073969 254.2256 21.803888 253.5256 20.35389 z M 260.65451 39.119515 C 258.21999 39.156453 255.75919 39.651547 253.39669 40.623421 C 252.95669 40.813421 252.36693 40.803499 251.88693 40.703499 C 249.92693 40.3135 248.01708 39.633499 246.04708 39.453499 C 238.27709 38.7335 230.27575 43.372725 226.93576 50.402718 C 226.04576 52.262716 225.43732 54.203346 225.28732 56.543343 C 225.67732 56.143344 225.86615 55.913265 226.08615 55.713265 C 229.58614 52.483268 233.40725 49.792952 238.20724 48.892953 C 240.69724 48.432953 243.13732 48.622251 245.28732 50.17225 C 247.84732 52.012248 247.88591 54.754126 245.34591 56.594125 C 244.51591 57.204124 243.58693 57.713422 242.63693 58.123422 C 237.42693 60.353419 232.19677 62.532799 226.97677 64.732797 C 226.71677 64.842797 226.45669 64.973656 226.14669 65.113656 C 228.64669 69.323652 231.96724 72.483033 236.20724 74.723031 C 242.15723 77.883028 248.5267 78.803656 255.14669 78.363656 C 262.49669 77.873657 268.92654 75.203573 274.23654 70.033578 C 275.94654 68.36358 277.3856 66.47381 278.5256 64.273812 C 278.1856 64.133812 277.94724 64.023968 277.70724 63.933968 C 272.65725 62.05397 267.58661 60.212326 262.56662 58.252328 C 261.22662 57.722328 259.89732 56.992405 258.78732 56.082406 C 256.95732 54.572407 256.89607 52.073498 258.50607 50.4535 C 259.06607 49.8935 259.75677 49.402874 260.47677 49.062875 C 263.69677 47.512876 266.94693 47.95272 270.13693 49.152718 C 273.63693 50.472717 276.75584 52.42358 279.51584 55.033578 L 279.51584 55.014047 C 278.96584 51.33405 277.53732 48.023106 275.03732 45.303109 C 271.24232 41.171238 266.01045 39.03825 260.65451 39.119515 z M 397.01779 44.058968 C 396.90978 44.06307 396.80177 44.071156 396.69552 44.082406 C 396.20552 44.132406 395.69701 44.163109 395.21701 44.303109 C 392.59701 45.063108 389.95568 45.792954 387.35568 46.642953 C 381.17569 48.672951 375.02614 50.802642 368.83615 52.82264 C 366.91615 53.45264 364.91615 53.864125 363.08615 54.344125 C 362.85615 56.694122 362.63646 58.902955 362.40646 61.142953 C 371.04645 60.012954 379.68725 59.182799 388.45724 61.482797 C 386.21724 58.792799 383.33646 57.182638 380.40646 55.07264 L 380.3967 55.07264 C 382.77669 54.222641 384.88701 53.52303 386.96701 52.723031 C 389.95701 51.573032 392.9374 50.422483 395.8674 49.162484 C 396.7874 48.762484 397.73615 48.124124 398.33615 47.344125 C 398.77615 46.774125 398.88701 45.732327 398.71701 45.002328 C 398.53326 44.206078 397.77384 44.030257 397.01779 44.058968 z M 357.48654 46.9535 C 357.62654 47.783499 357.65615 48.37225 357.83615 48.92225 C 358.06615 49.612249 358.54599 50.233969 358.67599 50.933968 C 359.21599 53.823965 359.66693 56.732409 360.13693 59.582406 L 360.13693 59.594125 C 361.27693 56.944127 361.77591 54.043809 361.09591 51.023812 C 360.68591 49.213814 359.63654 47.833499 357.48654 46.9535 z M 353.7463 47.594125 C 353.8363 48.034124 353.86732 48.492719 354.03732 48.902718 C 354.85732 50.882716 355.96654 52.772642 356.48654 54.82264 C 357.07654 57.132638 357.14701 59.572955 357.46701 62.142953 L 357.47677 62.133187 C 357.64677 61.643188 357.81693 61.272952 357.88693 60.892953 C 358.51693 57.612956 358.42552 54.352793 357.19552 51.232796 C 356.72552 50.042798 355.93646 48.963967 355.15646 47.933968 C 354.92646 47.643969 354.2263 47.694124 353.7463 47.594125 z M 350.88888 47.654671 C 350.64163 47.650521 350.37326 47.713265 350.07638 47.85389 C 347.97903 48.852631 345.82241 52.554192 345.9963 55.10389 C 346.8163 54.823891 347.54607 54.602406 348.25607 54.332406 C 349.82607 53.742406 351.06623 54.142485 352.16623 55.412484 C 353.72623 57.222482 354.81646 59.242408 355.40646 61.582406 C 355.39646 59.372408 355.37732 57.17381 355.03732 55.023812 C 354.65732 52.663814 353.85732 50.40256 352.28732 48.492562 C 351.87482 47.990688 351.43284 47.663802 350.88888 47.654671 z M 264.4299 51.10389 C 263.22117 51.109654 261.99833 51.507954 261.29708 52.283578 C 260.99709 52.623577 260.86693 53.103344 260.63693 53.543343 C 261.81693 53.913343 266.4763 53.532405 267.2463 53.082406 C 267.8863 52.702406 267.60677 52.364046 267.22677 52.014046 C 266.55177 51.399985 265.49642 51.098804 264.4299 51.10389 z M 240.44748 51.35975 C 238.94511 51.370826 237.6581 52.068579 237.05685 53.392953 C 239.35685 53.582953 241.56709 53.753969 243.79708 53.933968 C 243.71708 52.42397 243.05583 51.763265 241.51583 51.463265 C 241.15208 51.392015 240.79417 51.357193 240.44748 51.35975 z M 324.29709 51.433968 C 324.30709 51.753968 324.24662 52.083187 324.31662 52.383187 C 324.44662 52.903187 324.65615 53.402485 324.83615 53.912484 C 326.22615 57.89248 326.19701 61.98327 325.96701 66.213265 C 326.30701 65.453266 326.69701 64.713968 326.96701 63.933968 C 328.11701 60.663972 328.65685 57.343809 327.30685 54.023812 C 326.92685 53.093813 326.06591 52.332639 325.34591 51.57264 C 325.15591 51.37264 324.65709 51.473968 324.29709 51.433968 z M 320.89474 51.799203 C 320.54492 51.799234 319.92084 52.1085 319.54709 52.344125 C 319.42709 52.424125 319.58615 53.233344 319.83615 53.543343 C 321.62615 55.773341 322.62701 58.323424 322.96701 61.123422 C 323.19701 63.04342 323.2374 64.982486 323.3674 66.912484 L 323.35568 66.92225 L 323.62716 66.982797 C 323.87716 65.622798 324.21568 64.272717 324.35568 62.902718 C 324.66568 59.912721 324.34716 56.963497 323.12716 54.2035 C 322.72716 53.283501 321.88615 52.49389 321.08615 51.85389 C 321.04115 51.81639 320.97547 51.799195 320.89474 51.799203 z M 317.10373 53.48475 C 316.86794 53.483968 316.61076 53.55389 316.32638 53.713265 C 314.70638 54.623264 313.20638 57.942642 313.57638 59.82264 C 318.72638 59.85264 319.8156 60.95335 321.2756 67.793344 C 321.4156 67.083344 321.59615 66.643265 321.58615 66.213265 C 321.52615 64.443267 321.5756 62.652248 321.2756 60.92225 C 320.8556 58.512252 319.98622 56.243107 318.41623 54.303109 C 318.0381 53.828734 317.62247 53.486468 317.10373 53.48475 z M 268.07638 54.85389 C 266.08638 55.19389 264.0363 55.543187 261.9963 55.883187 C 264.0163 57.333186 267.67638 56.633888 268.07638 54.85389 z M 236.5256 55.023812 C 237.1956 56.85381 240.65615 57.433108 242.33615 56.053109 C 240.44615 55.713109 238.4456 55.363812 236.5256 55.023812 z M 196.45138 55.740609 C 194.93253 55.735238 193.40919 55.801156 191.89669 55.863656 C 191.40669 55.883656 190.55662 56.483578 190.56662 56.783578 C 190.59662 57.303577 191.0956 57.863578 191.5256 58.283578 C 191.7956 58.553578 192.28552 58.643031 192.69552 58.723031 C 194.05552 58.983031 195.42709 59.24225 196.79708 59.42225 C 201.75708 60.072249 206.73553 60.662641 211.69552 61.32264 C 213.31552 61.54264 214.91623 61.922328 216.66622 62.252328 L 216.67599 62.242562 C 216.52599 60.832564 216.32732 59.653264 216.28732 58.463265 C 216.25732 57.653266 215.90599 57.443421 215.17599 57.373422 C 209.846 56.873422 204.51598 56.264124 199.17599 55.844125 C 198.27224 55.772875 197.36269 55.743832 196.45138 55.740609 z M 252.09787 56.810922 C 253.32411 56.763422 254.55732 56.938656 255.78732 57.363656 C 257.24732 57.863655 257.70638 58.893189 257.32638 60.383187 C 256.86638 62.193185 255.54638 63.293813 254.07638 64.273812 C 253.74638 64.493812 253.55708 64.902797 253.29708 65.232797 C 253.67708 65.452796 254.02599 65.803422 254.42599 65.873422 C 257.15599 66.343421 259.79685 66.042874 262.30685 64.812875 C 262.53685 64.702875 262.77724 64.623265 263.20724 64.463265 C 262.81724 66.023264 261.79599 66.714047 260.67599 67.264047 C 257.56599 68.784045 254.21591 68.962406 250.84591 68.832406 C 248.29592 68.732406 245.73583 68.533889 243.51583 67.10389 C 242.72584 66.593891 242.10622 65.812483 241.41623 65.162484 C 241.49623 65.092484 241.57646 65.013968 241.65646 64.933969 C 243.07646 65.303968 244.48599 65.822797 245.92599 65.982797 C 247.31599 66.132796 248.75623 65.95264 250.16623 65.82264 C 250.51622 65.79264 250.82646 65.382718 251.15646 65.152719 C 250.91646 64.832719 250.73599 64.432796 250.42599 64.232797 C 248.77599 63.202798 247.67685 61.783888 247.30685 59.85389 C 247.10685 58.823891 247.43552 57.984124 248.44552 57.594125 C 249.65052 57.129125 250.87162 56.858421 252.09787 56.810922 z M 351.71701 57.523812 C 344.10702 58.503811 336.71567 59.452719 329.35568 60.402718 C 328.84568 62.612716 328.3063 64.93319 327.7463 67.383187 C 336.4863 66.703188 345.10631 65.40342 353.7463 63.373422 C 353.00631 61.253424 352.31701 59.24381 351.71701 57.523812 z M 252.39669 58.598031 C 251.3367 58.593031 250.26622 58.708734 249.16623 58.943734 C 249.53622 60.243733 250.6074 60.953812 252.1174 61.023812 C 253.7474 61.093812 255.06662 60.35303 255.56662 58.973031 C 254.50662 58.728031 253.45669 58.603031 252.39669 58.598031 z M 282.4963 60.973031 C 281.05631 64.093028 279.73576 66.963346 278.43576 69.793344 C 291.83574 70.603343 305.40694 69.753499 319.13693 68.7035 C 318.48693 66.203502 317.89708 63.903654 317.29709 61.613656 C 305.4771 62.343655 293.82606 62.31303 282.50607 60.973031 L 282.4963 60.973031 z M 209.77169 63.148812 C 206.90275 63.178568 204.09278 63.726392 201.37716 64.85389 C 199.73716 65.53389 198.17732 66.532954 196.78732 67.642953 C 195.56732 68.632952 195.9563 69.703891 197.4963 70.10389 C 199.5463 70.63389 201.46685 70.163811 203.30685 69.273812 C 206.27685 67.823814 209.22552 66.333186 212.19552 64.883187 C 212.93552 64.513188 213.72662 64.222327 214.81662 63.752328 C 214.22662 63.572328 213.97701 63.46225 213.71701 63.42225 C 212.39201 63.2285 211.07576 63.135287 209.77169 63.148812 z M 369.1174 63.543343 C 365.70141 63.982828 362.42424 64.40098 359.07834 64.830453 C 361.25744 75.907809 362.63598 86.985541 362.25607 98.482797 C 360.01607 96.862799 357.98646 95.352717 355.90646 93.902719 C 355.25646 93.452719 355.04709 92.942249 355.04709 92.17225 C 355.00709 85.492257 354.93716 78.822946 354.87716 72.142953 C 354.86716 70.102955 354.87716 68.063419 354.87716 65.873422 C 351.59717 66.623421 348.65552 67.312563 345.69552 67.992562 C 345.91552 69.86256 346.25662 71.613424 346.31662 73.373422 C 346.59662 81.893413 347.09552 90.413977 346.94552 98.933969 C 346.73552 110.61396 346.06701 122.29328 345.46701 133.96327 C 345.15701 139.85326 344.57568 145.73366 344.10568 151.61366 C 343.87568 154.49365 343.62716 157.36319 343.37716 160.38319 C 343.73716 160.15319 343.98677 159.99264 344.22677 159.82264 C 347.40677 157.50264 350.5656 155.16319 353.7756 152.88319 C 354.5756 152.31319 354.91623 151.74303 354.91623 150.72303 C 354.85623 135.40305 354.85615 120.08403 354.83615 104.76405 L 354.83615 102.2035 C 357.28615 104.0635 359.43631 105.62335 361.4963 107.29334 C 361.9163 107.64334 362.21701 108.40327 362.21701 108.96327 C 362.17701 112.00326 362.16716 115.06413 361.87716 118.09413 C 361.04717 126.72412 360.09646 135.34328 359.15646 143.96327 C 358.95646 145.72326 358.56607 147.46327 358.25607 149.21327 C 362.04607 146.58327 365.73701 143.98326 369.46701 141.46327 C 370.19701 140.97327 370.45724 140.48366 370.45724 139.61366 C 370.37724 124.64367 370.42607 109.66372 370.25607 94.693735 C 370.15607 85.743743 369.73576 76.803881 369.43576 67.85389 C 369.38576 66.453892 369.2274 65.053342 369.1174 63.543343 z M 359.07834 64.830453 C 359.07782 64.82782 359.0769 64.825273 359.07638 64.82264 L 359.06662 64.832406 C 359.07054 64.831902 359.07441 64.830957 359.07834 64.830453 z M 343.17599 68.543344 C 332.886 71.213341 322.87723 73.802486 312.70724 75.162484 C 312.82724 79.27248 312.94662 83.183895 313.06662 87.103891 C 316.30085 85.307096 319.49492 83.539289 322.92794 81.633187 C 323.15773 86.425506 323.42703 90.878661 323.55685 95.332406 C 323.84685 105.4424 324.05591 115.55273 324.34591 125.65272 C 324.35591 126.12272 324.69638 126.72405 325.07638 127.01405 C 326.35638 128.00405 327.70709 128.89288 329.04709 129.81288 C 331.19708 131.29287 333.35724 132.75366 335.70724 134.36366 C 333.68724 116.08368 332.4374 98.004107 331.3674 79.594125 C 335.70739 80.164124 339.77662 80.692329 344.06662 81.252328 C 343.77662 77.132332 343.48599 72.923339 343.17599 68.543344 z M 212.43966 70.330453 C 211.80216 70.330453 211.22052 70.398548 210.69552 70.533578 C 209.64552 70.803578 208.81724 71.31311 208.20724 72.053109 C 207.58724 72.803108 207.18677 73.762495 206.97677 74.912484 C 206.76677 76.062483 206.84576 77.103813 207.18576 78.023812 C 207.52576 78.943812 208.12654 79.723891 208.98654 80.353891 C 209.84654 80.98389 210.9356 81.463578 212.2756 81.783578 C 212.6156 81.873578 212.92724 81.942328 213.20724 82.002328 C 213.48724 82.052328 213.74701 82.103188 213.96701 82.133187 C 214.19701 82.163187 214.39638 82.183734 214.57638 82.193734 C 214.97638 82.173734 215.27677 82.093929 215.47677 81.933969 C 215.67677 81.773969 215.8074 81.543031 215.8674 81.223031 L 215.87716 81.242562 C 215.91716 80.982563 215.91716 80.753343 215.87716 80.543344 C 215.83716 80.333344 215.72708 80.142797 215.54708 79.982797 C 215.36708 79.812797 215.08701 79.682406 214.71701 79.582406 C 214.32701 79.482406 213.94615 79.383344 213.58615 79.293344 C 213.22615 79.193344 212.87685 79.092562 212.55685 78.992562 C 212.22685 78.892563 211.9174 78.772719 211.6174 78.652719 C 211.3174 78.532719 211.03583 78.392562 210.76583 78.242562 C 210.13583 77.892563 209.66591 77.472796 209.34591 76.982797 C 209.02591 76.482797 208.92685 75.913734 209.05685 75.193734 C 209.18685 74.473735 209.46693 73.952718 209.88693 73.652719 C 210.30693 73.342719 210.87591 73.172953 211.59591 73.142953 C 211.88591 73.132953 212.16576 73.133187 212.43576 73.133187 C 212.70576 73.143187 213.00662 73.163969 213.31662 73.183969 C 213.62662 73.203969 213.98716 73.243374 214.37716 73.293344 C 214.77716 73.343344 215.22654 73.403031 215.73654 73.473031 C 216.05654 73.513031 216.33662 73.503031 216.56662 73.473031 C 216.79662 73.443031 216.9774 73.343734 217.1174 73.193734 C 217.2474 73.043734 217.35646 72.793031 217.40646 72.473031 C 217.45646 72.153031 217.40607 71.872953 217.25607 71.642953 C 217.09607 71.402953 216.81669 71.203812 216.39669 71.023812 C 216.24669 70.953812 216.07669 70.904125 215.89669 70.844125 C 215.71669 70.784125 215.5056 70.733969 215.2756 70.683969 C 215.0456 70.633969 214.7956 70.583578 214.5256 70.533578 C 213.7706 70.398578 213.07716 70.330453 212.43966 70.330453 z M 221.92599 73.094125 C 219.31599 81.344117 218.42669 89.683743 218.89669 98.193735 C 219.08669 101.69373 220.55693 104.56272 223.13693 106.90272 C 225.22693 108.80272 227.30693 110.70413 229.38693 112.59413 C 232.43693 115.37412 235.6074 118.03288 237.8674 121.56288 C 241.49739 127.23287 242.78576 133.46366 242.43576 140.11366 C 242.32576 142.21365 242.29677 144.33257 242.22677 146.74256 C 241.44677 146.41256 240.85693 146.26373 240.38693 145.94374 C 238.92693 144.94374 237.55708 143.79342 236.04708 142.87342 C 232.71709 140.86342 231.16732 137.88412 231.28732 134.09413 C 231.36732 131.81413 230.65669 130.25256 228.64669 128.99256 C 226.2167 127.47256 224.01614 125.58233 221.58615 123.75233 C 221.52615 124.18233 221.45677 124.43397 221.47677 124.68397 C 221.70677 128.41397 221.81677 132.15366 222.22677 135.86366 C 222.70677 140.27365 224.7667 143.79335 228.39669 146.54334 C 233.86669 150.69334 239.13631 155.10296 244.4963 159.39295 C 246.8663 161.28295 249.26584 163.15366 251.76583 165.11366 L 251.76583 165.10389 C 251.83583 164.82389 251.87716 164.75397 251.87716 164.68397 C 252.00716 152.64398 252.1356 140.61263 252.2756 128.57264 C 252.3356 123.71265 250.60692 119.58279 247.13693 116.2328 C 243.94693 113.1528 240.58716 110.25373 237.37716 107.19373 C 234.94717 104.88374 232.53685 102.54334 230.30685 100.04334 C 228.33685 97.843343 227.74732 95.072716 228.03732 92.152719 C 228.18732 90.66272 228.80646 89.413187 230.15646 88.633188 C 231.95646 87.593189 233.91724 87.212563 235.95724 87.492563 C 238.47724 87.832562 239.51701 88.95405 239.71701 91.514047 C 239.81701 92.684046 239.73654 93.872876 239.73654 95.062875 C 243.86653 95.612875 247.45576 97.023034 250.93576 99.223031 L 250.93576 97.793344 C 251.00576 93.393348 251.06599 89.003886 251.17599 84.603891 C 251.21599 82.763892 251.26669 82.744125 249.39669 82.344125 C 240.7467 80.474127 232.25559 78.13373 224.2756 74.193734 C 223.5256 73.823735 222.75599 73.484124 221.92599 73.094125 z M 310.14669 75.383187 C 309.6267 75.483187 309.39599 75.512875 309.17599 75.562875 C 305.566 76.362874 301.98614 77.363969 298.33615 77.933969 C 290.10616 79.213967 281.8459 80.312954 273.59591 81.392953 C 272.19591 81.572953 271.29576 82.28397 270.93576 83.433969 C 270.43576 85.023967 270.08654 86.713189 269.98654 88.383188 C 269.42654 98.073178 270.3567 107.64343 272.39669 117.12342 C 274.54669 127.12341 277.44725 136.90226 281.20724 146.42225 C 282.46703 149.60171 283.69621 152.79199 285.09591 156.38124 C 285.59903 155.72863 285.87894 155.26031 286.2463 154.89295 C 294.0463 147.02296 301.856 139.1724 309.67599 131.33241 C 310.40599 130.60241 310.72552 129.83358 310.69552 128.78358 C 310.50552 121.52359 310.30654 114.27381 310.23654 107.02381 C 310.14654 98.153819 310.16669 89.27271 310.14669 80.402719 L 310.14669 75.383187 z M 207.07638 82.803109 C 206.77862 82.803109 206.50255 82.850014 206.2463 82.943734 C 205.8363 83.093734 205.47622 83.343969 205.16622 83.683969 C 204.85623 84.023968 204.59669 84.432719 204.39669 84.902719 C 204.19669 85.372718 204.04552 85.883969 203.94552 86.433969 C 203.80552 87.243968 203.78666 88.023813 203.89669 88.773813 C 204.00669 89.533812 204.2474 90.224126 204.6174 90.844125 C 204.9874 91.464114 205.49693 91.992251 206.13693 92.42225 C 206.77693 92.85225 207.55654 93.152875 208.48654 93.312875 C 209.60654 93.512865 210.5674 93.443422 211.3674 93.123422 C 212.1674 92.803422 212.81685 92.253031 213.30685 91.473031 C 213.79685 90.703032 214.14591 89.74389 214.34591 88.603891 L 214.38693 88.582406 C 214.49693 87.932407 214.54708 87.312562 214.54708 86.742563 C 214.53708 86.172563 214.48718 85.663265 214.37716 85.213266 C 214.27716 84.773266 214.12599 84.413187 213.92599 84.133188 C 213.72599 83.863188 213.5063 83.702719 213.2463 83.652719 C 212.9563 83.602719 212.75716 83.643718 212.62716 83.783578 C 212.49716 83.923578 212.4174 84.123188 212.3674 84.383188 C 212.3074 84.673187 212.31693 85.012719 212.38693 85.402719 C 212.45693 85.792718 212.51662 86.233501 212.56662 86.7035 C 212.61662 87.1835 212.5963 87.692563 212.4963 88.242563 C 212.3863 88.872562 212.22583 89.39311 212.01583 89.803109 C 211.80583 90.203109 211.47583 90.533344 211.01583 90.793344 C 210.76583 90.933344 210.5156 91.032406 210.2756 91.082406 C 210.0356 91.142406 209.82645 91.153422 209.65646 91.123422 C 209.50646 91.103422 209.41716 91.043216 209.37716 90.963266 C 209.34716 90.883266 209.34716 90.723578 209.37716 90.533578 C 209.40716 90.343578 209.44626 90.0635 209.4963 89.7035 C 209.5363 89.3435 209.57741 88.972406 209.6174 88.582406 C 209.6574 88.192407 209.67599 87.86264 209.67599 87.572641 C 209.72599 87.012641 209.7463 86.4735 209.7463 85.9535 C 209.7463 85.433501 209.6768 84.953812 209.55685 84.523813 C 209.42685 84.083813 209.21622 83.723968 208.91622 83.433969 C 208.61623 83.143969 208.18693 82.953891 207.63693 82.853891 C 207.44193 82.820191 207.25503 82.803109 207.07638 82.803109 z M 255.73654 83.223031 L 255.73654 85.2035 C 255.78654 107.92348 255.82716 130.65345 255.87716 153.37342 C 255.88716 157.66342 255.9456 161.94304 256.0256 166.22303 C 256.0256 166.66303 256.15724 167.33233 256.45724 167.50233 C 260.15724 169.56233 263.88599 171.55241 267.67599 173.58241 C 272.39599 169.01241 277.10561 164.46365 281.7756 159.86366 C 282.0356 159.60366 282.10607 158.95311 282.00607 158.55311 C 281.38607 156.21311 280.6956 153.88311 280.0256 151.55311 C 279.4556 149.57311 278.86583 147.60334 278.26584 145.54334 C 274.17584 149.60334 270.18724 153.57358 266.20724 157.53358 L 266.19552 157.52381 C 266.09552 157.51381 265.98693 157.4928 265.88693 157.4828 C 264.89693 132.72282 264.52584 107.95301 264.76583 83.223031 L 255.73654 83.223031 z M 206.95724 84.945688 C 207.07739 84.941688 207.20365 84.950731 207.33615 84.973031 C 207.78615 85.053031 208.11662 85.263891 208.31662 85.603891 C 208.52662 85.94389 208.63646 86.363891 208.65646 86.853891 C 208.67646 87.34389 208.64746 87.862485 208.54708 88.412484 L 208.5256 88.42225 C 208.4256 88.992249 208.33607 89.443579 208.25607 89.783578 C 208.17607 90.113578 208.07701 90.352563 207.96701 90.492563 C 207.85701 90.632562 207.70583 90.682719 207.51583 90.652719 C 207.14583 90.582719 206.80583 90.433734 206.51583 90.193734 C 206.21583 89.953735 205.96583 89.653109 205.76583 89.303109 C 205.56583 88.95311 205.42591 88.572718 205.34591 88.152719 C 205.27591 87.732719 205.27591 87.312718 205.34591 86.902719 C 205.46591 86.202719 205.69732 85.684115 206.03732 85.344125 C 206.29232 85.089125 206.59677 84.957408 206.95724 84.945688 z M 298.17794 88.344125 C 300.11593 88.432035 301.19552 89.756549 301.19552 92.014047 C 301.19552 95.554043 301.01599 99.10272 300.92599 102.65272 C 300.78599 108.43271 300.6556 114.22233 300.5256 120.00233 C 300.5056 121.04233 300.5263 122.08342 300.4963 123.12342 C 300.4363 125.30342 299.91576 127.38405 298.43576 129.01405 C 295.64576 132.09404 292.74693 135.07413 289.88693 138.09413 C 289.74693 138.03413 289.59724 137.96272 289.45724 137.90272 L 289.43576 137.90272 C 288.56576 135.39272 287.69615 132.90295 286.83615 130.39295 C 284.18615 122.65296 281.99552 114.79248 280.94552 106.66248 C 280.55552 103.64249 280.33568 100.60264 280.10568 97.572641 C 280.03568 96.742642 280.18638 95.883109 280.32638 95.05311 C 280.74638 92.573112 281.86717 90.742406 284.62716 90.332406 C 288.85716 89.702407 293.05709 88.913187 297.29709 88.383188 C 297.60833 88.344438 297.90109 88.331566 298.17794 88.344125 z M 205.77755 94.631235 C 205.43692 94.631045 205.12013 94.687134 204.82638 94.793344 C 204.35638 94.963344 203.94591 95.243188 203.59591 95.633188 C 203.24591 96.023187 202.95677 96.483813 202.72677 97.023813 C 202.49677 97.563812 202.32701 98.143813 202.21701 98.773813 C 202.04701 99.703812 202.03642 100.5935 202.15646 101.4535 C 202.27645 102.3135 202.54677 103.10288 202.97677 103.81288 C 203.40677 104.52286 203.98701 105.13342 204.71701 105.62342 C 205.44701 106.11342 206.34646 106.45295 207.40646 106.64295 C 208.68645 106.86295 209.77552 106.79225 210.69552 106.42225 C 211.61552 106.05225 212.35623 105.42358 212.91622 104.53358 C 213.47622 103.64358 213.87568 102.54256 214.10568 101.24256 L 214.09591 101.24256 C 214.22591 100.50256 214.2756 99.802953 214.2756 99.142953 C 214.2656 98.482954 214.1964 97.902953 214.07638 97.392953 C 213.95638 96.882954 213.77685 96.472719 213.55685 96.152719 C 213.32685 95.842719 213.0656 95.653891 212.7756 95.603891 C 212.4556 95.553891 212.21638 95.601888 212.07638 95.752328 C 211.93638 95.912328 211.83732 96.143735 211.78732 96.443735 C 211.72732 96.783734 211.73662 97.163657 211.81662 97.613656 C 211.89662 98.053656 211.9656 98.554126 212.0256 99.094125 C 212.0856 99.644115 212.05552 100.22389 211.94552 100.85389 C 211.81552 101.57389 211.63669 102.16319 211.39669 102.63319 C 211.15669 103.10319 210.77607 103.48381 210.25607 103.77381 C 209.97607 103.93381 209.69622 104.04389 209.41622 104.10389 C 209.13623 104.16389 208.89724 104.17295 208.70724 104.14295 C 208.54724 104.11295 208.44669 104.05355 208.39669 103.9535 C 208.35669 103.8635 208.35669 103.68327 208.39669 103.46327 C 208.43669 103.24327 208.4873 102.92405 208.53732 102.51405 C 208.58732 102.10405 208.63601 101.6728 208.67599 101.2328 C 208.72599 100.7928 208.7463 100.41241 208.7463 100.08241 C 208.8063 99.442407 208.83638 98.832796 208.82638 98.232797 C 208.81638 97.632798 208.74569 97.094115 208.60568 96.594125 C 208.46568 96.104126 208.22716 95.68389 207.87716 95.353891 C 207.53716 95.023891 207.04622 94.803734 206.41622 94.693735 C 206.19497 94.652435 205.98192 94.631335 205.77755 94.631235 z M 205.67599 97.04725 C 205.81317 97.04325 205.95568 97.055206 206.10568 97.082406 C 206.62568 97.172406 206.99677 97.41311 207.22677 97.80311 C 207.45677 98.193109 207.58568 98.672798 207.60568 99.232797 C 207.62568 99.802796 207.58677 100.39381 207.47677 101.02381 L 207.46701 101.01405 C 207.35701 101.66405 207.24646 102.18264 207.15646 102.57264 C 207.06646 102.96264 206.95638 103.23295 206.82638 103.39295 C 206.69638 103.55295 206.52685 103.61264 206.30685 103.57264 C 205.88685 103.49264 205.50622 103.31334 205.16622 103.04334 C 204.83623 102.77334 204.54662 102.43358 204.31662 102.03358 C 204.08662 101.63358 203.92615 101.19327 203.83615 100.71327 C 203.75615 100.23327 203.75615 99.753578 203.83615 99.283578 C 203.97615 98.483579 204.24716 97.892328 204.62716 97.502328 C 204.91216 97.209829 205.26442 97.0585 205.67599 97.04725 z M 204.84396 107.62342 C 204.59364 107.62842 204.35216 107.70842 204.12716 107.87342 C 203.82716 108.09342 203.54732 108.40264 203.28732 108.82264 C 203.03732 109.24264 202.8074 109.73358 202.6174 110.28358 C 202.4274 110.83358 202.27622 111.42334 202.16622 112.04334 C 201.90622 113.51334 201.95685 114.82327 202.30685 115.96327 C 202.65685 117.11325 203.30654 118.05334 204.23654 118.79334 C 205.16654 119.53334 206.3774 120.03334 207.8674 120.29334 C 208.2874 120.36334 208.7463 120.42327 209.2463 120.46327 C 209.7463 120.51327 210.25583 120.52405 210.76583 120.51405 C 211.27583 120.50405 211.77608 120.47245 212.25607 120.41248 C 212.74607 120.35248 213.16708 120.27225 213.54708 120.17225 C 213.81708 120.07225 214.05583 119.95264 214.26583 119.82264 C 214.47583 119.69264 214.65708 119.52241 214.79708 119.33241 C 214.93708 119.14241 215.02638 118.91272 215.07638 118.65272 L 215.09591 118.65272 C 215.17591 118.16272 215.11651 117.77303 214.90646 117.47303 C 214.68646 117.18303 214.30654 116.98319 213.73654 116.88319 C 213.57654 116.85319 213.35591 116.83241 213.09591 116.83241 L 212.19552 116.83241 L 211.08615 116.83241 C 210.68615 116.83241 210.26615 116.80358 209.83615 116.78358 C 209.40615 116.76358 208.96607 116.70338 208.50607 116.62342 C 207.24608 116.39342 206.28645 115.92373 205.65646 115.19373 C 205.01646 114.46375 204.80583 113.50311 205.01583 112.30311 C 205.15583 111.51311 205.34662 110.87272 205.56662 110.40272 C 205.78662 109.93272 205.94583 109.48286 206.01583 109.06288 C 206.05583 108.86288 206.05583 108.66327 206.01583 108.46327 C 205.98583 108.26327 205.8963 108.09373 205.7463 107.94373 C 205.5963 107.79373 205.37591 107.69295 205.09591 107.64295 C 205.01091 107.62795 204.92739 107.62182 204.84396 107.62342 z M 205.75216 121.95545 C 205.33175 121.96345 204.92732 121.99915 204.53732 122.06288 C 203.49733 122.23288 202.56583 122.57389 201.76583 123.10389 C 200.96583 123.63389 200.2956 124.32375 199.7756 125.19373 C 199.2556 126.06373 198.89576 127.08233 198.68576 128.25233 C 198.49576 129.33233 198.4356 130.39397 198.5256 131.43397 C 198.6156 132.47397 198.8656 133.43311 199.2756 134.30311 C 199.6956 135.17311 200.28708 135.91233 201.04708 136.50233 C 201.80708 137.09233 202.77576 137.5035 203.93576 137.7035 C 205.23575 137.9335 206.38646 137.87358 207.40646 137.53358 C 208.42645 137.19358 209.26576 136.56272 209.93576 135.65272 C 210.60576 134.74272 211.06638 133.55241 211.32638 132.08241 C 211.46638 131.30241 211.4867 130.61233 211.39669 130.00233 C 211.30669 129.40233 211.1663 128.8835 210.9963 128.4535 C 210.8163 128.0235 210.65607 127.67248 210.50607 127.41248 C 210.35607 127.1425 210.28685 126.96366 210.30685 126.86366 C 210.30685 126.81366 210.33693 126.78236 210.38693 126.75233 C 210.43693 126.73233 210.48682 126.71327 210.55685 126.71327 C 210.62685 126.71327 210.70708 126.71283 210.79708 126.7328 C 211.31708 126.8228 211.82662 126.9928 212.31662 127.2328 C 212.80661 127.4728 213.23716 127.8035 213.62716 128.2035 C 214.00716 128.6035 214.28701 129.0925 214.46701 129.66248 C 214.64701 130.23248 214.66706 130.89272 214.54708 131.65272 C 214.44708 132.36272 214.29591 132.99334 214.09591 133.54334 C 213.89591 134.09334 213.67724 134.58405 213.45724 135.01405 C 213.22724 135.43405 213.02568 135.81295 212.85568 136.14295 C 212.68568 136.47295 212.5756 136.77358 212.5256 137.03358 C 212.4656 137.36358 212.4563 137.66397 212.4963 137.93397 C 212.5363 138.20397 212.61607 138.43342 212.75607 138.62342 C 212.89607 138.80342 213.08638 138.92327 213.32638 138.96327 C 213.59638 139.00327 213.90607 138.93277 214.25607 138.7328 C 214.59607 138.5328 214.95662 138.19327 215.31662 137.71327 C 215.67662 137.23327 216.01638 136.59334 216.32638 135.79334 C 216.64638 134.99336 216.90568 134.01366 217.10568 132.86366 L 217.13693 132.85389 C 217.39693 131.40389 217.41579 130.08248 217.18576 128.91248 C 216.95576 127.7425 216.47654 126.70286 215.73654 125.81288 C 214.99654 124.92288 213.97552 124.17311 212.69552 123.55311 C 211.41552 122.94311 209.83677 122.47295 207.97677 122.14295 C 207.19552 122.00545 206.45284 121.94207 205.75216 121.95545 z M 204.96701 125.32264 C 205.2267 125.32182 205.49208 125.34425 205.76583 125.39295 C 206.37583 125.50295 206.9074 125.72311 207.3674 126.05311 C 207.8274 126.39311 208.2063 126.80334 208.4963 127.29334 C 208.7863 127.78334 208.98615 128.33397 209.08615 128.93397 C 209.18615 129.53397 209.17662 130.16311 209.06662 130.80311 L 209.04708 130.79334 C 208.89708 131.63334 208.60576 132.3425 208.18576 132.91248 C 207.76576 133.48248 207.23591 133.88342 206.59591 134.12342 C 205.95591 134.36342 205.2563 134.41358 204.4963 134.28358 C 203.6863 134.14358 203.04661 133.88256 202.56662 133.49256 C 202.08662 133.10256 201.72607 132.64366 201.50607 132.11366 C 201.28607 131.58366 201.14716 131.02373 201.12716 130.44373 C 201.10716 129.86375 201.13717 129.31334 201.22677 128.79334 C 201.38677 127.92336 201.6774 127.21248 202.1174 126.66248 C 202.5574 126.1225 203.09677 125.74381 203.72677 125.52381 C 204.12052 125.39256 204.5342 125.32401 204.96701 125.32264 z M 326.0256 132.54334 C 323.8756 132.55334 321.72669 132.62358 319.64669 133.03358 C 314.2067 134.10358 309.71568 137.0139 305.85568 140.85389 C 295.24569 151.41388 284.69692 162.03296 274.13693 172.64295 C 273.44693 173.33295 272.82662 174.10327 272.06662 174.96327 C 272.51662 175.01327 272.73724 175.06288 272.95724 175.06288 C 279.19723 174.80288 285.45623 174.7635 291.66623 174.2035 C 298.68622 173.5735 305.28569 171.34225 311.35568 167.67225 C 316.85567 164.33225 321.47662 159.98311 325.56662 155.05311 C 328.52661 151.47311 331.25654 147.73318 332.98654 143.38319 C 333.42654 142.26319 333.7156 141.02264 333.7756 139.82264 C 333.8456 138.33264 333.2263 137.73334 331.7463 137.79334 C 330.29631 137.85334 328.80622 138.00319 327.41623 138.38319 C 320.46623 140.28319 314.88614 144.36366 310.08615 149.61366 C 309.93615 149.78366 309.78716 149.96342 309.62716 150.12342 C 309.46716 150.27342 309.2874 150.41288 309.1174 150.56288 C 314.29739 143.23288 320.85592 137.92295 329.84591 136.14295 C 320.29455 136.49046 313.13121 141.346 306.93185 148.06092 C 312.36985 140.82526 319.06763 135.53264 328.37716 134.25233 C 324.25717 134.16233 320.38599 135.11366 316.67599 136.86366 C 312.996 138.60366 309.81669 141.02241 306.89669 143.83241 C 309.26669 140.80241 312.08693 138.29264 315.38693 136.32264 C 318.67693 134.36264 322.23561 133.17334 326.0256 132.54334 z M 335.94552 142.71327 C 330.92553 151.47326 325.26739 159.40226 317.3674 165.67225 C 321.00739 165.91225 324.54615 165.96295 328.08615 165.89295 C 330.37615 165.85295 332.55701 165.3128 334.46701 163.7328 C 333.03701 164.0028 331.72622 164.26405 330.41623 164.51405 C 330.35623 164.41405 330.28677 164.31327 330.22677 164.21327 C 335.44677 158.00327 338.17552 151.14302 335.94552 142.72303 L 335.94552 142.71327 z " /></g><path
       id="rect2030"
       style="display:inline;fill:#4d683d;fill-opacity:1;stroke:#ffffff;stroke-width:2;stroke-linejoin:round;stroke-opacity:1;paint-order:stroke fill markers;stop-color:#000000"
       d="M 596.06515 167.77426 C 595.04185 187.57205 593.99927 220.93934 585.87042 238.33016 L 604.04915 238.33016 L 622.22789 238.33016 C 614.09904 220.93934 613.05646 187.57205 612.03316 167.77426 C 609.47216 168.19683 606.79921 168.41349 604.04915 168.41349 C 601.2991 168.41349 598.62615 168.19683 596.06515 167.77426 z "
       transform="translate(-0.91645989,-1.0583333)" /><path
       id="path3569"
       clip-path="none"
       style="display:inline;fill:#4d683d;fill-opacity:1;stroke:#ffffff;stroke-width:2;stroke-linecap:butt;stroke-linejoin:round;stroke-dasharray:none;stroke-opacity:1;paint-order:stroke fill markers;stop-color:#000000"
       d="M 554.89326 15.110706 C 554.31995 22.981201 552.61769 34.311427 551.73738 42.181921 C 545.72673 34.748242 486.28292 40.360515 483.56325 42.695585 C 488.1478 41.899788 549.79725 36.592464 550.91108 47.256547 C 548.6121 69.91932 558.02309 99.370394 575.14319 122.57081 C 577.91746 119.27726 581.5302 116.64153 585.72859 114.74132 C 549.73461 82.041676 556.72706 44.108577 554.89326 15.110706 z " /><path
       id="path3949"
       clip-path="none"
       style="display:inline;fill:#4d683d;fill-opacity:1;fill-rule:nonzero;stroke:#ffffff;stroke-width:2;stroke-linecap:butt;stroke-linejoin:round;stroke-dasharray:none;stroke-opacity:1;paint-order:stroke fill markers;stop-color:#000000"
       d="M 425.0278 101.3318 C 424.9752 102.72917 425.0318 104.3425 425.45362 106.08551 C 425.79788 107.50704 426.36224 108.92417 427.21682 110.37156 C 427.97839 111.6614 428.92103 112.8931 430.03422 114.12688 C 431.09285 115.3002 432.52303 116.45325 433.84845 117.42487 C 436.86759 119.63808 439.36506 121.55752 441.77769 123.75369 C 442.97297 124.84174 443.6046 126.13878 444.21165 127.26562 C 444.98058 128.69295 445.39722 129.96126 445.67977 131.03955 C 434.0228 133.54549 423.0684 136.62112 416.45107 138.52488 C 431.66471 134.14802 457.7824 129.44182 488.72469 130.32538 C 503.68375 130.75254 517.46023 132.89041 530.22035 134.82278 C 541.05228 136.46315 560.39696 141.63813 569.74869 145.60868 C 569.33506 143.7173 569.11617 141.71402 569.11617 139.59975 C 569.11617 137.91388 569.25474 136.29199 569.52028 134.737 C 559.17714 131.00258 541.74391 127.20521 531.49107 126.48169 C 518.17628 125.54209 503.85188 124.47285 488.65389 125.3262 C 469.70465 126.64649 452.08461 129.52641 448.7354 130.31763 C 448.34671 128.80932 447.62769 127.08037 446.38981 125.29571 C 445.44966 123.94029 444.29806 122.67567 442.92335 121.44892 C 440.47874 119.26742 437.74607 117.55875 434.93779 115.66788 C 433.60038 114.76736 432.33383 113.88098 431.16696 112.93678 C 429.9434 111.94668 428.88024 110.93381 427.9899 109.83671 C 426.98966 108.60418 426.26119 107.32958 425.77298 105.9894 C 425.17235 104.34058 424.99018 102.73228 425.0278 101.3318 z " /><path
       id="path9267"
       style="opacity:1;fill:#4d683d;fill-opacity:1;stroke:#ffffff;stroke-width:2;stroke-linecap:round;stroke-linejoin:round;stroke-dasharray:none;stroke-opacity:1;paint-order:stroke fill markers;stop-color:#000000"
       d="M 758.18731 99.479199 C 757.80162 103.88168 756.86678 108.31644 754.58857 111.89756 C 752.25712 115.62659 748.48092 118.17689 744.41193 119.79217 C 735.19892 118.48688 725.8619 117.93602 716.52939 117.99693 C 713.18589 118.01876 709.84289 118.1187 706.50675 118.28942 C 682.55753 119.51032 658.84406 124.27399 635.83974 131.08192 C 636.68617 133.70057 637.14922 136.54241 637.14922 139.59975 C 637.14922 140.70013 637.08969 141.7704 636.97507 142.81092 C 659.62309 134.33253 683.05302 127.83605 707.06692 125.06213 C 712.47502 124.43847 717.91257 124.00202 723.35791 123.78883 C 726.71733 125.07444 729.92681 126.45304 732.65967 128.57768 C 734.51959 130.00629 736.13173 131.80921 737.36326 133.87297 C 738.90975 136.45715 739.89261 139.4174 740.54808 142.44299 C 740.27521 139.35926 739.66881 136.25804 738.39627 133.34328 C 737.37233 131.00736 735.89291 128.84444 734.03995 127.00827 C 732.75511 125.74654 731.34653 124.64278 729.87328 123.64362 C 739.57601 123.59287 749.2767 124.29928 758.85497 125.97887 C 770.08068 127.94966 781.15046 131.20326 791.35066 136.41855 C 794.59372 138.07654 797.74449 139.92681 800.69841 142.07247 C 802.4552 143.34994 804.17936 144.68912 805.61749 146.32337 C 804.28831 144.59934 802.63735 143.13103 800.95835 141.73812 C 798.12836 139.38836 795.06822 137.31039 791.9005 135.42378 C 789.99293 134.28773 788.0448 133.22122 786.06261 132.21777 C 791.44957 128.75689 797.05911 125.67412 803.06209 123.50409 C 809.76904 121.0701 816.97011 119.85454 824.22669 119.54257 C 822.86685 119.46827 821.50262 119.42537 820.1365 119.417 C 814.21671 119.3807 808.2583 119.98983 802.43836 121.47321 C 795.21155 123.32371 788.01652 126.51816 781.45928 130.03237 C 774.43205 126.89425 767.04887 124.48873 759.5464 122.67158 C 756.04987 121.82403 752.52395 121.10304 748.97599 120.4991 C 751.87165 118.42186 754.3262 115.77329 755.87686 112.60966 C 757.86821 108.46737 758.29205 103.8973 758.18731 99.479199 z " /><g
       id="g3477"
       style="display:inline"><text
         xml:space="preserve"
         style="font-size:7.05556px;line-height:1.2;font-family:'Source Sans 3';-inkscape-font-specification:'Source Sans 3, ';text-decoration-color:#000000;white-space:pre;inline-size:62.2696;display:inline;fill:#4d683d;fill-opacity:1;stroke:#ffffff;stroke-width:2;stroke-linecap:butt;stroke-linejoin:round;stroke-dasharray:none;stroke-opacity:1;paint-order:stroke fill markers;stop-color:#000000"
         x="747.65625"
         y="61.892059"
         id="text3337"
         transform="translate(-96.233561,59.596038)"><tspan
           id="tspan3335"
           style="font-style:normal;font-variant:normal;font-weight:bold;font-stretch:normal;font-size:7.05556px;font-family:'Source Sans 3';-inkscape-font-specification:'Source Sans 3 Bold';text-align:center;text-anchor:middle;stroke-width:2"
           x="717.52197"
           y="61.892059">Model Construction Pipeline</tspan></text><text
         xml:space="preserve"
         style="font-size:7.05556px;line-height:1.2;font-family:'Source Sans 3';-inkscape-font-specification:'Source Sans 3, ';text-decoration-color:#000000;white-space:pre;inline-size:62.2696;display:inline;fill:#4d683d;fill-opacity:1;stroke:#ffffff;stroke-width:2;stroke-linecap:butt;stroke-linejoin:round;stroke-dasharray:none;stroke-opacity:1;paint-order:stroke fill markers;stop-color:#000000"
         x="747.65625"
         y="61.892059"
         id="text3391"
         transform="translate(-221.46218,20.722049)"><tspan
           id="tspan3389"
           style="font-style:normal;font-variant:normal;font-weight:bold;font-stretch:normal;font-size:7.05556px;font-family:'Source Sans 3';-inkscape-font-specification:'Source Sans 3 Bold';text-align:center;text-anchor:middle;stroke-width:2"
           x="717.52197"
           y="61.892059">Database</tspan></text><text
         xml:space="preserve"
         style="font-size:7.05556px;line-height:1.2;font-family:'Source Sans 3';-inkscape-font-specification:'Source Sans 3, ';text-decoration-color:#000000;white-space:pre;inline-size:62.2696;display:inline;fill:#4d683d;fill-opacity:1;stroke:#ffffff;stroke-width:2;stroke-linecap:butt;stroke-linejoin:round;stroke-dasharray:none;stroke-opacity:1;paint-order:stroke fill markers;stop-color:#000000"
         x="747.65625"
         y="61.892059"
         id="text3395"
         transform="translate(-272.14996,66.664992)"><tspan
           id="tspan3393"
           style="font-style:normal;font-variant:normal;font-weight:bold;font-stretch:normal;font-size:7.05556px;font-family:'Source Sans 3';-inkscape-font-specification:'Source Sans 3 Bold';text-align:center;text-anchor:middle;stroke-width:2"
           x="717.52197"
           y="61.892059">Website</tspan></text><text
         xml:space="preserve"
         style="font-size:7.05556px;line-height:1.2;font-family:'Source Sans 3';-inkscape-font-specification:'Source Sans 3, ';text-decoration-color:#000000;white-space:pre;inline-size:62.2696;display:inline;fill:#4d683d;fill-opacity:1;stroke:#ffffff;stroke-width:2;stroke-linecap:butt;stroke-linejoin:round;stroke-dasharray:none;stroke-opacity:1;paint-order:stroke fill markers;stop-color:#000000"
         x="747.65625"
         y="61.892059"
         id="text3399"
         transform="translate(-132.12815,21.942467)"><tspan
           id="tspan3397"
           style="font-style:normal;font-variant:normal;font-weight:bold;font-stretch:normal;font-size:7.05556px;font-family:'Source Sans 3';-inkscape-font-specification:'Source Sans 3 Bold';text-align:center;text-anchor:middle;stroke-width:2"
           x="717.52197"
           y="61.892059">Model Comparision &amp; Validation </tspan></text><text
         xml:space="preserve"
         style="font-size:6.35px;line-height:1.2;font-family:'Source Sans 3';-inkscape-font-specification:'Source Sans 3, ';text-decoration-color:#000000;white-space:pre;inline-size:62.2696;display:inline;fill:#4d683d;fill-opacity:1;stroke:#ffffff;stroke-width:2;stroke-linecap:butt;stroke-linejoin:round;stroke-dasharray:none;stroke-opacity:1;paint-order:stroke fill markers;stop-color:#000000"
         x="747.65625"
         y="61.892059"
         id="text3407"
         transform="translate(25.450394,86.157234)"><tspan
           id="tspan3405"
           style="font-style:normal;font-variant:normal;font-weight:bold;font-stretch:normal;font-size:6.35px;font-family:'Source Sans 3';-inkscape-font-specification:'Source Sans 3 Bold';text-align:center;text-anchor:middle;stroke-width:2"
           x="717.52197"
           y="61.892059">Model Code</tspan></text><text
         xml:space="preserve"
         style="font-size:6.35px;line-height:1.2;font-family:'Source Sans 3';-inkscape-font-specification:'Source Sans 3, ';text-decoration-color:#000000;white-space:pre;inline-size:62.2696;display:inline;fill:#4d683d;fill-opacity:1;stroke:#ffffff;stroke-width:2;stroke-linecap:butt;stroke-linejoin:round;stroke-dasharray:none;stroke-opacity:1;paint-order:stroke fill markers;stop-color:#000000"
         x="747.65625"
         y="61.892059"
         id="text3411"
         transform="translate(-38.270406,81.524995)"><tspan
           id="tspan3409"
           style="font-style:normal;font-variant:normal;font-weight:bold;font-stretch:normal;font-size:6.35px;font-family:'Source Sans 3';-inkscape-font-specification:'Source Sans 3 Bold';text-align:center;text-anchor:middle;stroke-width:2"
           x="717.52197"
           y="61.892059">Common Annotation</tspan></text><text
         xml:space="preserve"
         style="font-size:6.35px;line-height:1.2;font-family:'Source Sans 3';-inkscape-font-specification:'Source Sans 3, ';text-decoration-color:#000000;white-space:pre;inline-size:62.2696;display:inline;fill:#4d683d;fill-opacity:1;stroke:#ffffff;stroke-width:2;stroke-linecap:butt;stroke-linejoin:round;stroke-dasharray:none;stroke-opacity:1;paint-order:stroke fill markers;stop-color:#000000"
         x="747.65625"
         y="61.892059"
         id="text3415"
         transform="translate(-20.840893,35.336828)"><tspan
           id="tspan3413"
           style="font-style:normal;font-variant:normal;font-weight:bold;font-stretch:normal;font-size:6.35px;font-family:'Source Sans 3';-inkscape-font-specification:'Source Sans 3 Bold';text-align:center;text-anchor:middle;stroke-width:2"
           x="717.52197"
           y="61.892059">Recreation of Publication Figures</tspan></text><text
         xml:space="preserve"
         style="font-size:6.35px;line-height:1.2;font-family:'Source Sans 3';-inkscape-font-specification:'Source Sans 3, ';text-decoration-color:#000000;white-space:pre;inline-size:62.2696;display:inline;fill:#4d683d;fill-opacity:1;stroke:#ffffff;stroke-width:2;stroke-linecap:butt;stroke-linejoin:round;stroke-dasharray:none;stroke-opacity:1;paint-order:stroke fill markers;stop-color:#000000"
         x="747.65625"
         y="61.892059"
         id="text3419"
         transform="translate(46.001984,55.380442)"><tspan
           id="tspan3417"
           style="font-style:normal;font-variant:normal;font-weight:bold;font-stretch:normal;font-size:6.35px;font-family:'Source Sans 3';-inkscape-font-specification:'Source Sans 3 Bold';text-align:center;text-anchor:middle;stroke-width:2"
           x="717.52197"
           y="61.892059">Text Manual with Summary</tspan></text><text
         xml:space="preserve"
         style="font-size:6.35px;line-height:1.2;font-family:'Source Sans 3';-inkscape-font-specification:'Source Sans 3, ';text-decoration-color:#000000;white-space:pre;inline-size:62.2696;display:inline;fill:#4d683d;fill-opacity:1;stroke:#ffffff;stroke-width:2;stroke-linecap:butt;stroke-linejoin:round;stroke-dasharray:none;stroke-opacity:1;paint-order:stroke fill markers;stop-color:#000000"
         x="747.65625"
         y="61.892059"
         id="text3423"
         transform="translate(-109.46636,-24.748198)"><tspan
           id="tspan3421"
           style="font-style:normal;font-variant:normal;font-weight:bold;font-stretch:normal;font-size:6.35px;font-family:'Source Sans 3';-inkscape-font-specification:'Source Sans 3 Bold';text-align:center;text-anchor:middle;stroke-width:2"
           x="717.52197"
           y="61.892059">Sanity Checks</tspan></text><text
         xml:space="preserve"
         style="font-size:6.35px;line-height:1.2;font-family:'Source Sans 3';-inkscape-font-specification:'Source Sans 3, ';text-decoration-color:#000000;white-space:pre;inline-size:62.2696;display:inline;fill:#4d683d;fill-opacity:1;stroke:#ffffff;stroke-width:2;stroke-linecap:butt;stroke-linejoin:round;stroke-dasharray:none;stroke-opacity:1;paint-order:stroke fill markers;stop-color:#000000"
         x="747.65625"
         y="61.892059"
         id="text3427"
         transform="translate(-51.966366,-12.073873)"><tspan
           id="tspan3425"
           style="font-style:normal;font-variant:normal;font-weight:bold;font-stretch:normal;font-size:6.35px;font-family:'Source Sans 3';-inkscape-font-specification:'Source Sans 3 Bold';text-align:center;text-anchor:middle;stroke-width:2"
           x="717.52197"
           y="61.892059">Common Photosynthesis Validation</tspan></text><text
         xml:space="preserve"
         style="font-size:6.35px;line-height:1.2;font-family:'Source Sans 3';-inkscape-font-specification:'Source Sans 3, ';text-decoration-color:#000000;white-space:pre;inline-size:62.2696;display:inline;fill:#4d683d;fill-opacity:1;stroke:#ffffff;stroke-width:2;stroke-linecap:butt;stroke-linejoin:round;stroke-dasharray:none;stroke-opacity:1;paint-order:stroke fill markers;stop-color:#000000"
         x="747.65625"
         y="61.892059"
         id="text3435"
         transform="translate(-223.61572,-40.578929)"><tspan
           id="tspan3433"
           style="font-style:normal;font-variant:normal;font-weight:bold;font-stretch:normal;font-size:6.35px;font-family:'Source Sans 3';-inkscape-font-specification:'Source Sans 3 Bold';text-align:center;text-anchor:middle;stroke-width:2"
           x="717.52197"
           y="61.892059">Custom curation</tspan></text><text
         xml:space="preserve"
         style="font-size:6.35px;line-height:1.2;font-family:'Source Sans 3';-inkscape-font-specification:'Source Sans 3, ';text-decoration-color:#000000;white-space:pre;inline-size:62.2696;display:inline;fill:#4d683d;fill-opacity:1;stroke:#ffffff;stroke-width:2;stroke-linecap:butt;stroke-linejoin:round;stroke-dasharray:none;stroke-opacity:1;paint-order:stroke fill markers;stop-color:#000000"
         x="747.65625"
         y="61.892059"
         id="text3439"
         transform="translate(-298.30652,-20.929767)"><tspan
           id="tspan3437"
           style="font-style:normal;font-variant:normal;font-weight:bold;font-stretch:normal;font-size:6.35px;font-family:'Source Sans 3';-inkscape-font-specification:'Source Sans 3 Bold';text-align:center;text-anchor:middle;stroke-width:2"
           x="717.52197"
           y="61.892059">Same Format for all Models</tspan></text><text
         xml:space="preserve"
         style="font-size:6.35px;line-height:1.2;font-family:'Source Sans 3';-inkscape-font-specification:'Source Sans 3, ';text-decoration-color:#000000;white-space:pre;inline-size:62.2696;display:inline;fill:#4d683d;fill-opacity:1;stroke:#ffffff;stroke-width:2;stroke-linecap:butt;stroke-linejoin:round;stroke-dasharray:none;stroke-opacity:1;paint-order:stroke fill markers;stop-color:#000000"
         x="747.65625"
         y="61.892059"
         id="text3443"
         transform="translate(-363.74905,78.314926)"><tspan
           id="tspan3441"
           style="font-style:normal;font-variant:normal;font-weight:bold;font-stretch:normal;font-size:6.35px;font-family:'Source Sans 3';-inkscape-font-specification:'Source Sans 3 Bold';text-align:center;text-anchor:middle;stroke-width:2"
           x="717.52197"
           y="61.892059">Modern Design</tspan></text><text
         xml:space="preserve"
         style="font-size:6.35px;line-height:1.2;font-family:'Source Sans 3';-inkscape-font-specification:'Source Sans 3, ';text-decoration-color:#000000;white-space:pre;inline-size:62.2696;display:inline;fill:#4d683d;fill-opacity:1;stroke:#ffffff;stroke-width:2;stroke-linecap:butt;stroke-linejoin:round;stroke-dasharray:none;stroke-opacity:1;paint-order:stroke fill markers;stop-color:#000000"
         x="747.65625"
         y="61.892059"
         id="text3447"
         transform="translate(-354.01936,43.830333)"><tspan
           id="tspan3445"
           style="font-style:normal;font-variant:normal;font-weight:bold;font-stretch:normal;font-size:6.35px;font-family:'Source Sans 3';-inkscape-font-specification:'Source Sans 3 Bold';text-align:center;text-anchor:middle;stroke-width:2"
           x="717.52197"
           y="61.892059">Easy Model Pipeline</tspan></text><path
         style="opacity:1;fill:#4d683d;fill-opacity:1;stroke:#ffffff;stroke-width:2;stroke-linecap:round;stroke-linejoin:round;stroke-dasharray:none;stroke-opacity:1;paint-order:stroke fill markers;stop-color:#000000"
         d="m 610.08053,131.36286 -10.32551,-8.45299 c 0.003,-0.004 0.007,-0.007 0.01,-0.0111 0.009,-0.0106 0.0189,-0.0212 0.0282,-0.0317 0.0368,-0.0412 0.0731,-0.0816 0.10883,-0.12136 0.14155,-0.15753 0.2816,-0.31226 0.41998,-0.4644 0,0 0,0 0,0 0.52826,-0.58082 1.05644,-1.1538 1.58322,-1.72036 0,0 1e-5,0 1e-5,0 1.91471,-2.05936 3.85216,-4.08437 5.80519,-6.08196 l 0,-1e-5 c 0,0 0,0 0,0 6.2666,-6.41107 12.75484,-12.61753 19.4995,-18.532069 0,-1e-6 0,-2e-6 0,-3e-6 7.82368,-6.871072 16.0655,-13.455408 25.00113,-19.039491 4.03707,-2.525728 8.27472,-4.856923 12.75617,-6.711297 3.77185,-1.576022 7.8358,-2.815318 12.07658,-3.165649 l 10e-6,-10e-7 0,0 c 11.63261,-0.866985 23.23557,-2.837329 34.46561,-6.31113 l 10e-6,-2e-6 c 3.09806,-0.958316 6.1646,-2.027879 9.168,-3.273513 10e-6,-10e-7 10e-6,-2e-6 10e-6,-3e-6 0.79417,-0.329375 1.58346,-0.670738 2.36392,-1.033502 v 0 c 0.20148,-0.09365 0.40231,-0.188688 0.60198,-0.286369 0.0511,-0.02498 0.10205,-0.05013 0.1529,-0.07562 0.0181,-0.008 0.0359,-0.01699 0.053,-0.0268 3e-5,-1.8e-5 4e-5,-2.5e-5 3e-5,-1.9e-5 10e-6,-6e-6 0,1e-6 -3e-5,1.9e-5 -0.0171,0.0098 -0.034,0.02037 -0.0503,0.03162 -0.0483,0.03012 -0.0967,0.05995 -0.14531,0.08963 0,1e-6 0,2e-6 -10e-6,3e-6 -0.18984,0.11597 -0.38128,0.229531 -0.57348,0.341752 0,2e-6 -10e-6,3e-6 -10e-6,4e-6 -0.74453,0.434712 -1.50143,0.849837 -2.26433,1.25334 0,10e-7 0,2e-6 0,3e-6 -2.88517,1.525989 -5.86318,2.889154 -8.88581,4.143131 l -10e-6,3e-6 c -10.95762,4.545807 -22.54959,7.668599 -34.33585,9.658662 l 0,10e-7 -1e-5,0 c -3.52434,0.597 -6.92555,2.040556 -10.24466,3.768024 -3.91578,2.057676 -7.60961,4.581608 -11.20065,7.312271 -7.95176,6.052712 -15.1767,13.056032 -22.13607,20.399749 0,0 0,1e-5 0,1e-5 -5.96899,6.31039 -11.66007,12.87988 -17.13066,19.63406 -1.7034,2.1037 -3.37893,4.21888 -5.01781,6.35021 0,1e-5 0,1e-5 -10e-6,1e-5 -0.45098,0.5865 -0.89609,1.17038 -1.33366,1.75264 0,1e-5 0,1e-5 0,1e-5 -0.11464,0.15255 -0.22709,0.30292 -0.33711,0.45127 0,1e-5 0,1e-5 0,1e-5 -0.0288,0.0388 -0.057,0.0769 -0.0847,0.11439 -0.007,0.01 -0.0141,0.0191 -0.021,0.0286 -0.002,0.003 -0.005,0.007 -0.007,0.01 z"
         id="path9496"
         sodipodi:nodetypes="csc" /><path
         id="path9550"
         style="opacity:1;fill:#4d683d;stroke:#ffffff;stroke-width:2;stroke-linecap:round;stroke-linejoin:round;paint-order:stroke fill markers;stop-color:#000000"
         inkscape:transform-center-x="1.0739144e-05"
         inkscape:transform-center-y="5.7118412"
         d="M 872.20601,61.252024 H 832.63322 L 852.41962,26.98098 Z"
         transform="matrix(1,0,0,-1,0,99.656686)"
         class="UnoptimicedTransforms" /><path
         style="opacity:1;fill:#4d683d;fill-opacity:1;stroke:#ffffff;stroke-width:2;stroke-linecap:round;stroke-linejoin:round;stroke-dasharray:none;stroke-opacity:1;paint-order:stroke fill markers;stop-color:#000000"
         d="m 671.79375,71.831501 -4.53678,-1.444661 c 0.92161,-2.383378 2.11335,-4.421118 3.11533,-6.390306 1.10758,-2.209952 2.05884,-4.443958 2.49103,-6.767428 0,0 0,-1e-6 0,-1e-6 0.55581,-2.860756 0.33154,-5.936035 -0.46223,-8.890883 0,0 0,-1e-6 0,-1e-6 -1.19965,-4.470552 -3.56564,-8.679533 -6.26254,-12.620269 3.16334,3.577141 6.07137,7.495273 7.94221,12.048749 0,0 0,1e-6 0,1e-6 1.24635,3.04096 1.92336,6.392935 1.71401,9.819176 0,0 0,10e-7 0,2e-6 -0.18764,2.769456 -0.91825,5.442185 -1.82982,7.948702 -0.80201,2.244669 -1.70201,4.312621 -2.17121,6.296919 z"
         id="path9579"
         sodipodi:nodetypes="cc"
         inkscape:original-d="m 669.52536,71.109171 c 2.61705,-8.218519 11.32173,-16.522222 -3.3868,-35.391214"
         inkscape:path-effect="#path-effect9581"
         class="UnoptimicedTransforms" /><path
         style="opacity:1;fill:#4d683d;fill-opacity:1;stroke:#ffffff;stroke-width:2;stroke-linecap:round;stroke-linejoin:round;stroke-dasharray:none;stroke-opacity:1;paint-order:stroke fill markers;stop-color:#000000"
         d="m 610.08053,131.36286 -10.32551,-8.45299 c 0.003,-0.004 0.007,-0.007 0.01,-0.0111 0.009,-0.0106 0.0189,-0.0212 0.0282,-0.0317 0.0368,-0.0412 0.0731,-0.0816 0.10883,-0.12136 0.14155,-0.15753 0.2816,-0.31226 0.41998,-0.4644 0,0 0,0 0,0 0.52826,-0.58082 1.05644,-1.1538 1.58322,-1.72036 0,0 1e-5,0 1e-5,0 1.91471,-2.05936 3.85216,-4.08437 5.80519,-6.08196 l 0,-1e-5 c 0,0 0,0 0,0 6.2666,-6.41107 12.75484,-12.61753 19.4995,-18.532069 0,-1e-6 0,-2e-6 0,-3e-6 7.82368,-6.871072 16.0655,-13.455408 25.00113,-19.039491 4.03707,-2.525728 8.27472,-4.856923 12.75617,-6.711297 3.77185,-1.576022 7.8358,-2.815318 12.07658,-3.165649 l 10e-6,-10e-7 0,0 c 11.63261,-0.866985 23.23557,-2.837329 34.46561,-6.31113 l 10e-6,-2e-6 c 3.09806,-0.958316 6.1646,-2.027879 9.168,-3.273513 10e-6,-10e-7 10e-6,-2e-6 10e-6,-3e-6 0.79417,-0.329375 1.58346,-0.670738 2.36392,-1.033502 v 0 c 0.20148,-0.09365 0.40231,-0.188688 0.60198,-0.286369 0.0511,-0.02498 0.10205,-0.05013 0.1529,-0.07562 0.0181,-0.008 0.0359,-0.01699 0.053,-0.0268 3e-5,-1.8e-5 4e-5,-2.5e-5 3e-5,-1.9e-5 10e-6,-6e-6 0,1e-6 -3e-5,1.9e-5 -0.0171,0.0098 -0.034,0.02037 -0.0503,0.03162 -0.0483,0.03012 -0.0967,0.05995 -0.14531,0.08963 0,1e-6 0,2e-6 -10e-6,3e-6 -0.18984,0.11597 -0.38128,0.229531 -0.57348,0.341752 0,2e-6 -10e-6,3e-6 -10e-6,4e-6 -0.74453,0.434712 -1.50143,0.849837 -2.26433,1.25334 0,10e-7 0,2e-6 0,3e-6 -2.88517,1.525989 -5.86318,2.889154 -8.88581,4.143131 l -10e-6,3e-6 c -10.95762,4.545807 -22.54959,7.668599 -34.33585,9.658662 l 0,10e-7 -1e-5,0 c -3.52434,0.597 -6.92555,2.040556 -10.24466,3.768024 -3.91578,2.057676 -7.60961,4.581608 -11.20065,7.312271 -7.95176,6.052712 -15.1767,13.056032 -22.13607,20.399749 0,0 0,1e-5 0,1e-5 -5.96899,6.31039 -11.66007,12.87988 -17.13066,19.63406 -1.7034,2.1037 -3.37893,4.21888 -5.01781,6.35021 0,1e-5 0,1e-5 -10e-6,1e-5 -0.45098,0.5865 -0.89609,1.17038 -1.33366,1.75264 0,1e-5 0,1e-5 0,1e-5 -0.11464,0.15255 -0.22709,0.30292 -0.33711,0.45127 0,1e-5 0,1e-5 0,1e-5 -0.0288,0.0388 -0.057,0.0769 -0.0847,0.11439 -0.007,0.01 -0.0141,0.0191 -0.021,0.0286 -0.002,0.003 -0.005,0.007 -0.007,0.01 z"
         id="path9601"
         sodipodi:nodetypes="csc" /></g><path
       id="path5830"
       style="display:none;opacity:1;fill:#ffffff;stroke-width:2.31787;stroke-linejoin:round;paint-order:stroke fill markers;stop-color:#000000"
       d="m 637.14915,139.59953 c 0,-17.72392 -15.22974,-28.38689 -34.01658,-28.38689 -18.78684,0 -34.01659,10.66297 -34.01659,28.38689 0,17.72392 15.22974,27.75551 34.01659,27.75551 18.78684,0 34.01658,-10.03159 34.01658,-27.75551 z"
       sodipodi:nodetypes="sssss" /><path
       inkscape:original-d="M 0,0"
       inkscape:path-effect="#path-effect5902"
       d="M 0,0"
       id="path5904"
       style="fill:#ffffff"
       class="UnoptimicedTransforms" /></g><style
     type="text/css"
     id="style1">
<![CDATA[
	.st0{fill-rule:evenodd;clip-rule:evenodd;fill:#85C1FE;stroke:#828282;stroke-width:1.02017;stroke-miterlimit:282;}
	.st1{fill-rule:evenodd;clip-rule:evenodd;fill:#00FEFE;stroke:#15404B;stroke-width:0.90682;stroke-miterlimit:282;}
	.st2{fill:none;stroke:#000000;stroke-width:1.04851;stroke-miterlimit:282;}
	.st3{fill:none;stroke:#000000;stroke-width:0.96349;stroke-miterlimit:282;}
	.st4{fill:none;stroke:#1B1BFE;stroke-width:3.17386;stroke-miterlimit:282;stroke-dasharray:3.17459 3.17459;}
	.st5{fill:#803300;}
	.st6{fill:#FEC145;stroke:#000000;stroke-width:0.79196;stroke-miterlimit:282;}
	.st7{opacity:0;fill-rule:evenodd;clip-rule:evenodd;fill:#00C145;}
	.st8{fill:none;stroke:#063FF2;stroke-width:3.17386;stroke-miterlimit:282;stroke-dasharray:3.17459 3.17459;}
	.st9{fill:#008585;stroke:#15404B;stroke-width:0.79347;stroke-miterlimit:282;}
	.st10{opacity:0;fill-rule:evenodd;clip-rule:evenodd;fill:#00C145;stroke:#828282;stroke-width:1.02017;stroke-miterlimit:282;}
	.st11{fill:#2523D1;stroke:#000000;stroke-width:0.02834;stroke-miterlimit:282;}
	.st12{fill:#FEC145;stroke:#F99C22;stroke-width:0.79347;stroke-miterlimit:282;}
	.st13{fill:none;stroke:#144FD7;stroke-width:3.17386;stroke-miterlimit:282;stroke-dasharray:3.17459 3.17459;}
	.st14{fill:#FE0707;stroke:#000000;stroke-width:0.02834;stroke-miterlimit:282;}
	.st15{fill:#1B1BFE;stroke:#1B1BFE;stroke-width:0.02834;stroke-miterlimit:282;}
	.st16{fill:#144FD7;stroke:#000000;stroke-width:0.02834;stroke-miterlimit:282;}
	.st17{fill:none;stroke:#FB0404;stroke-width:3.17386;stroke-miterlimit:282;stroke-dasharray:3.17459 3.17459;}
	.st18{fill:#C1C1FE;stroke:#737475;stroke-width:0.93516;stroke-miterlimit:282;}
	.st19{fill-rule:evenodd;clip-rule:evenodd;fill:#FEFEC1;stroke:#151212;stroke-width:1.02017;stroke-miterlimit:282;}
	.st20{fill:#225500;}
	.st21{fill:none;stroke:#000000;stroke-width:1.13352;stroke-miterlimit:282;}
	.st22{fill:#EC0202;stroke:#000000;stroke-width:0.02834;stroke-miterlimit:282;}
	.st23{fill:none;stroke:#EC0202;stroke-width:3.25888;stroke-miterlimit:282;stroke-dasharray:3.25962 3.25962;}
	.st24{fill-rule:evenodd;clip-rule:evenodd;fill:#00C145;stroke:#828282;stroke-width:1.02017;stroke-miterlimit:282;}
	.st25{fill:#008585;stroke:#000000;stroke-width:0.79196;stroke-miterlimit:282;}
	.st26{fill-rule:evenodd;clip-rule:evenodd;fill:#FEC145;stroke:#7A7474;stroke-width:1.36023;stroke-miterlimit:282;}
	.st27{fill:#FE8545;stroke:#7C7878;stroke-width:1.02017;stroke-miterlimit:282;}
	.st28{fill-rule:evenodd;clip-rule:evenodd;fill:#FFFF00;stroke:#7A7474;stroke-width:0.99183;stroke-miterlimit:282;}
	.st29{fill-rule:evenodd;clip-rule:evenodd;fill:#ADD8DB;stroke:#151212;stroke-width:1.02017;stroke-miterlimit:282;}
	.st30{fill:#FE8500;}
	.st31{fill:#063FF2;stroke:#000000;stroke-width:0.02834;stroke-miterlimit:282;}
	.st32{fill:none;stroke:#EC0202;stroke-width:3.17386;stroke-miterlimit:246;stroke-dasharray:3.17459 3.17459;}
	.st33{fill:#ADD8DB;stroke:#000000;stroke-width:0.79196;stroke-miterlimit:282;}
	.st34{fill-rule:evenodd;clip-rule:evenodd;fill:#FEC1FE;stroke:#7B8486;stroke-width:1.16186;stroke-miterlimit:282;}
	.st35{fill:#FB110D;stroke:#000000;stroke-width:0.02834;stroke-miterlimit:282;}
	.st36{fill:none;stroke:#000000;stroke-width:1.02017;stroke-miterlimit:282;}
	.st37{fill:none;stroke:#FB110D;stroke-width:3.17386;stroke-miterlimit:282;stroke-dasharray:3.17459 3.17459;}
	.st38{fill:none;stroke:#EC0202;stroke-width:3.17386;stroke-miterlimit:282;stroke-dasharray:3.17459 3.17459;}
	.st39{fill:#00C185;stroke:#089278;stroke-width:0.79347;stroke-miterlimit:282;}
	.st40{fill:#0B0808;stroke:#000000;stroke-width:0.02834;stroke-miterlimit:282;}
	.st41{fill-rule:evenodd;clip-rule:evenodd;fill:#4585FE;stroke:#151212;stroke-width:1.02017;stroke-miterlimit:282;}
	.st42{fill:#FFFF00;stroke:#EE5908;stroke-width:0.79347;stroke-miterlimit:282;}
	.st43{fill:#666666;stroke:#000000;stroke-width:0.02834;stroke-miterlimit:282;}
	.st44{fill:#FE8500;stroke:#F92222;stroke-width:0.79347;stroke-miterlimit:282;}
	.st45{fill:#FE9C6A;stroke:#828282;stroke-width:1.02017;stroke-miterlimit:282;}
	.st46{fill:#C1FEFE;stroke:#737475;stroke-width:1.02017;stroke-miterlimit:282;}
	.st47{fill:#C1FE85;stroke:#6C6C6C;stroke-width:1.04851;stroke-miterlimit:282;}
	.st48{fill:#EC0202;stroke:#EC0202;stroke-width:0.02834;stroke-miterlimit:282;}
	.st49{fill:#B3B3B3;stroke:#737475;stroke-width:0.93516;stroke-miterlimit:282;}
	.st50{fill:none;stroke:#000000;stroke-width:2.63544;stroke-miterlimit:282;}
	.st51{fill:none;stroke:#2523D1;stroke-width:3.17386;stroke-miterlimit:282;stroke-dasharray:3.17459 3.17459;}
	.st52{fill-rule:evenodd;clip-rule:evenodd;fill:#FEFE00;stroke:#151212;stroke-width:1.02017;stroke-miterlimit:282;}
	.st53{fill-rule:evenodd;clip-rule:evenodd;fill:#00C185;stroke:#828282;stroke-width:1.02017;stroke-miterlimit:282;}
	.st54{fill:none;stroke:#000000;stroke-width:2.66378;stroke-miterlimit:282;}
	.st55{fill-rule:evenodd;clip-rule:evenodd;fill:#FEC185;stroke:#7A7474;stroke-width:1.36023;stroke-miterlimit:282;}
]]>
</style></svg>
