<?xml version="1.0" encoding="utf-8" standalone="no"?>
<!DOCTYPE svg PUBLIC "-//W3C//DTD SVG 1.1//EN"
  "http://www.w3.org/Graphics/SVG/1.1/DTD/svg11.dtd">
<svg xmlns:xlink="http://www.w3.org/1999/xlink" width="562.88725pt" height="314.667469pt" viewBox="0 0 562.88725 314.667469" xmlns="http://www.w3.org/2000/svg" version="1.1">
 <metadata>
  <rdf:RDF xmlns:dc="http://purl.org/dc/elements/1.1/" xmlns:cc="http://creativecommons.org/ns#" xmlns:rdf="http://www.w3.org/1999/02/22-rdf-syntax-ns#">
   <cc:Work>
    <dc:type rdf:resource="http://purl.org/dc/dcmitype/StillImage"/>
    <dc:date>2026-02-07T14:46:47.426410</dc:date>
    <dc:format>image/svg+xml</dc:format>
    <dc:creator>
     <cc:Agent>
      <dc:title>Matplotlib v3.10.8, https://matplotlib.org/</dc:title>
     </cc:Agent>
    </dc:creator>
   </cc:Work>
  </rdf:RDF>
 </metadata>
 <defs>
  <style type="text/css">*{stroke-linejoin: round; stroke-linecap: butt}</style>
 </defs>
 <g id="figure_1">
  <g id="patch_1">
   <path d="M 0 314.667469 
L 562.88725 314.667469 
L 562.88725 0 
L 0 0 
z
" style="fill: #ffffff"/>
  </g>
  <g id="axes_1">
   <g id="patch_2">
    <path d="M 54.85 277.111219 
L 411.97 277.111219 
L 411.97 10.999219 
L 54.85 10.999219 
z
" style="fill: #ffffff"/>
   </g>
   <g id="FillBetweenPolyCollection_1">
    <defs>
     <path id="m827518393d" d="M 54.85 -37.55625 
L 54.85 -42.689157 
L 55.279231 -42.83919 
L 55.708462 -43.003209 
L 56.137692 -43.158328 
L 56.566923 -43.248602 
L 56.996154 -43.228259 
L 57.425385 -43.332519 
L 57.854615 -43.474923 
L 58.283846 -43.609699 
L 58.713077 -43.788975 
L 59.142308 -44.015296 
L 59.571538 -44.198387 
L 60.000769 -44.356049 
L 60.43 -44.479381 
L 60.859231 -44.574741 
L 61.288462 -44.72096 
L 61.717692 -44.835392 
L 62.146923 -44.968895 
L 62.576154 -45.131643 
L 63.005385 -45.256247 
L 63.434615 -45.385936 
L 63.863846 -45.487653 
L 64.293077 -45.594457 
L 64.722308 -45.688545 
L 65.151538 -45.811877 
L 65.580769 -45.905966 
L 66.01 -46.031841 
L 66.439231 -46.095414 
L 66.868462 -46.18696 
L 67.297692 -46.319192 
L 67.726923 -46.424724 
L 68.156154 -46.495926 
L 68.585385 -46.596372 
L 69.014615 -46.69046 
L 69.443846 -46.78582 
L 69.873077 -46.853208 
L 70.302308 -46.96764 
L 70.731538 -47.063 
L 71.160769 -47.155817 
L 71.59 -47.248634 
L 72.019231 -47.398667 
L 72.448462 -47.604644 
L 72.877692 -47.645331 
L 73.306923 -47.735605 
L 73.736154 -47.740691 
L 74.165385 -47.810621 
L 74.594615 -47.886909 
L 75.023846 -47.894538 
L 75.453077 -48.169175 
L 75.882308 -48.035671 
L 76.311538 -48.213676 
L 76.740769 -48.74642 
L 77.17 -49.271536 
L 77.599231 -50.891383 
L 78.028462 -51.384712 
L 78.457692 -52.445114 
L 78.886923 -50.703206 
L 79.316154 -50.986743 
L 79.745385 -50.576059 
L 80.174615 -49.773765 
L 80.603846 -49.024871 
L 81.033077 -49.028686 
L 81.462308 -49.219405 
L 81.891538 -49.272807 
L 82.320769 -49.872939 
L 82.75 -50.077645 
L 83.179231 -50.134861 
L 83.608462 -51.233407 
L 84.037692 -53.490259 
L 84.466923 -57.035106 
L 84.896154 -58.69564 
L 85.325385 -58.887631 
L 85.754615 -61.293244 
L 86.183846 -58.578665 
L 86.613077 -55.613607 
L 87.042308 -52.910471 
L 87.471538 -51.906013 
L 87.900769 -50.808738 
L 88.33 -50.422212 
L 88.759231 -50.133589 
L 89.188462 -50.560802 
L 89.617692 -51.022344 
L 90.046923 -52.680335 
L 90.476154 -63.12797 
L 90.905385 -68.412181 
L 91.334615 -79.832487 
L 91.763846 -86.823006 
L 92.193077 -96.253467 
L 92.622308 -98.151766 
L 93.051538 -101.362217 
L 93.480769 -102.046265 
L 93.91 -92.408555 
L 94.339231 -92.641233 
L 94.768462 -70.460513 
L 95.197692 -67.47384 
L 95.626923 -60.679126 
L 96.056154 -59.522093 
L 96.485385 -55.478831 
L 96.914615 -53.650464 
L 97.343846 -52.301439 
L 97.773077 -52.248037 
L 98.202308 -52.490887 
L 98.631538 -52.286181 
L 99.060769 -52.966415 
L 99.49 -53.351669 
L 99.919231 -53.294453 
L 100.348462 -53.815754 
L 100.777692 -54.048432 
L 101.206923 -58.312929 
L 101.636154 -54.422243 
L 102.065385 -59.893361 
L 102.494615 -59.239827 
L 102.923846 -58.404474 
L 103.353077 -55.473746 
L 103.782308 -54.428601 
L 104.211538 -53.377099 
L 104.640769 -52.464186 
L 105.07 -52.263295 
L 105.499231 -52.300167 
L 105.928462 -52.305253 
L 106.357692 -52.317968 
L 106.786923 -52.307796 
L 107.216154 -52.378998 
L 107.645385 -52.525216 
L 108.074615 -52.544288 
L 108.503846 -52.520131 
L 108.933077 -52.534117 
L 109.362308 -52.578618 
L 109.791538 -52.976587 
L 110.220769 -52.742637 
L 110.65 -52.822739 
L 111.079231 -53.249952 
L 111.508462 -53.194007 
L 111.937692 -53.625034 
L 112.366923 -53.82974 
L 112.796154 -53.918743 
L 113.225385 -54.784611 
L 113.654615 -55.3911 
L 114.083846 -56.155251 
L 114.513077 -55.375843 
L 114.942308 -56.117107 
L 115.371538 -56.339614 
L 115.800769 -55.838656 
L 116.23 -56.532877 
L 116.659231 -57.045277 
L 117.088462 -56.291298 
L 117.517692 -56.077692 
L 117.946923 -54.8876 
L 118.376154 -55.708967 
L 118.805385 -56.601536 
L 119.234615 -56.850743 
L 119.663846 -58.117123 
L 120.093077 -58.042106 
L 120.522308 -57.71534 
L 120.951538 -58.072622 
L 121.380769 -57.76747 
L 121.81 -57.841215 
L 122.239231 -57.748398 
L 122.668462 -57.747126 
L 123.097692 -57.729326 
L 123.526923 -57.92386 
L 123.956154 -58.190868 
L 124.385385 -57.706439 
L 124.814615 -57.898431 
L 125.243846 -57.817057 
L 125.673077 -59.08598 
L 126.102308 -58.612995 
L 126.531538 -58.55705 
L 126.960769 -59.672126 
L 127.39 -63.018623 
L 127.819231 -66.883879 
L 128.248462 -76.015547 
L 128.677692 -76.967874 
L 129.106923 -84.722544 
L 129.536154 -95.142206 
L 129.965385 -85.83762 
L 130.394615 -98.309427 
L 130.823846 -106.45698 
L 131.253077 -99.894945 
L 131.682308 -93.035387 
L 132.111538 -77.517148 
L 132.540769 -78.562292 
L 132.97 -72.984372 
L 133.399231 -71.199234 
L 133.828462 -67.5781 
L 134.257692 -67.776448 
L 134.686923 -68.070157 
L 135.116154 -68.670289 
L 135.545385 -72.122318 
L 135.974615 -71.345453 
L 136.403846 -74.620749 
L 136.833077 -72.552074 
L 137.262308 -75.495517 
L 137.691538 -76.650008 
L 138.120769 -81.482849 
L 138.55 -83.392591 
L 138.979231 -92.233092 
L 139.408462 -94.999802 
L 139.837692 -96.617106 
L 140.266923 -111.816208 
L 140.696154 -124.566467 
L 141.125385 -133.171747 
L 141.554615 -127.576026 
L 141.983846 -131.926982 
L 142.413077 -135.317981 
L 142.842308 -123.539123 
L 143.271538 -127.176786 
L 143.700769 -126.47748 
L 144.13 -123.90149 
L 144.559231 -117.278425 
L 144.988462 -114.993601 
L 145.417692 -110.280278 
L 145.846923 -106.769761 
L 146.276154 -104.887991 
L 146.705385 -109.537742 
L 147.134615 -102.918491 
L 147.563846 -97.093906 
L 147.993077 -103.065981 
L 148.422308 -109.911552 
L 148.851538 -131.897738 
L 149.280769 -138.99506 
L 149.71 -158.712952 
L 150.139231 -160.182766 
L 150.568462 -162.84903 
L 150.997692 -165.772129 
L 151.426923 -182.491904 
L 151.856154 -183.004305 
L 152.285385 -193.211632 
L 152.714615 -191.342578 
L 153.143846 -197.533344 
L 153.573077 -193.482454 
L 154.002308 -205.970791 
L 154.431538 -213.947967 
L 154.860769 -213.271548 
L 155.29 -211.059197 
L 155.719231 -210.717173 
L 156.148462 -194.547943 
L 156.577692 -193.198918 
L 157.006923 -203.506691 
L 157.436154 -199.352812 
L 157.865385 -204.002562 
L 158.294615 -199.233294 
L 158.723846 -199.066732 
L 159.153077 -194.800964 
L 159.582308 -197.268879 
L 160.011538 -201.123964 
L 160.440769 -204.587436 
L 160.87 -205.16341 
L 161.299231 -210.918064 
L 161.728462 -206.741299 
L 162.157692 -201.361728 
L 162.586923 -205.432961 
L 163.016154 -207.132911 
L 163.445385 -211.366892 
L 163.874615 -218.05353 
L 164.303846 -208.817603 
L 164.733077 -220.966458 
L 165.162308 -231.009767 
L 165.591538 -231.705258 
L 166.020769 -232.138828 
L 166.45 -232.299033 
L 166.879231 -222.948674 
L 167.308462 -229.152155 
L 167.737692 -223.682309 
L 168.166923 -226.122252 
L 168.596154 -229.360675 
L 169.025385 -226.286271 
L 169.454615 -220.254438 
L 169.883846 -218.646033 
L 170.313077 -226.582523 
L 170.742308 -220.488387 
L 171.171538 -224.357458 
L 171.600769 -228.639754 
L 172.03 -223.222039 
L 172.459231 -231.206844 
L 172.888462 -225.201711 
L 173.317692 -235.973569 
L 173.746923 -253.938109 
L 174.176154 -251.247687 
L 174.605385 -254.1301 
L 175.034615 -231.759931 
L 175.463846 -226.794858 
L 175.893077 -223.060563 
L 176.322308 -221.098691 
L 176.751538 -243.370957 
L 177.180769 -234.210046 
L 177.61 -217.9925 
L 178.039231 -235.055571 
L 178.468462 -232.04474 
L 178.897692 -230.146441 
L 179.326923 -239.879512 
L 179.756154 -262.32724 
L 180.185385 -262.590433 
L 180.614615 -261.658449 
L 181.043846 -261.821196 
L 181.473077 -260.4709 
L 181.902308 -265.195667 
L 182.331538 -234.062556 
L 182.760769 -219.720422 
L 183.19 -222.784654 
L 183.619231 -225.46109 
L 184.048462 -227.11781 
L 184.477692 -238.894126 
L 184.906923 -224.283713 
L 185.336154 -223.356814 
L 185.765385 -235.233576 
L 186.194615 -244.417373 
L 186.623846 -236.077829 
L 187.053077 -229.154698 
L 187.482308 -223.495404 
L 187.911538 -248.184726 
L 188.340769 -272.791403 
L 188.77 -273.277103 
L 189.199231 -273.425865 
L 189.628462 -273.879778 
L 190.057692 -274.206545 
L 190.486923 -274.34132 
L 190.916154 -274.871521 
L 191.345385 -275.43478 
L 191.774615 -275.996768 
L 192.203846 -276.019655 
L 192.633077 -266.243354 
L 193.062308 -227.094923 
L 193.491538 -227.12671 
L 193.920769 -243.730782 
L 194.35 -232.035839 
L 194.779231 -273.263117 
L 195.208462 -277.953554 
L 195.637692 -278.595644 
L 196.066923 -278.867738 
L 196.496154 -278.965641 
L 196.925385 -278.098501 
L 197.354615 -278.572758 
L 197.783846 -278.698633 
L 198.213077 -252.46448 
L 198.642308 -242.94883 
L 199.071538 -238.858525 
L 199.500769 -237.805751 
L 199.93 -228.478278 
L 200.359231 -232.101956 
L 200.788462 -227.879418 
L 201.217692 -256.788735 
L 201.646923 -283.650992 
L 202.076154 -279.241549 
L 202.505385 -250.173299 
L 202.934615 -239.9558 
L 203.363846 -242.038461 
L 203.793077 -236.140131 
L 204.222308 -242.004131 
L 204.651538 -230.87372 
L 205.080769 -233.450981 
L 205.51 -236.925897 
L 205.939231 -239.480271 
L 206.368462 -235.794292 
L 206.797692 -237.537472 
L 207.226923 -243.746039 
L 207.656154 -233.869293 
L 208.085385 -237.101359 
L 208.514615 -235.587043 
L 208.943846 -239.004743 
L 209.373077 -276.870265 
L 209.802308 -279.844224 
L 210.231538 -276.693532 
L 210.660769 -282.013344 
L 211.09 -282.448186 
L 211.519231 -273.392806 
L 211.948462 -278.985984 
L 212.377692 -282.849969 
L 212.806923 -287.8392 
L 213.236154 -287.094122 
L 213.665385 -283.489516 
L 214.094615 -269.043122 
L 214.523846 -280.487585 
L 214.953077 -281.625547 
L 215.382308 -273.026624 
L 215.811538 -286.795327 
L 216.240769 -278.732963 
L 216.67 -275.541584 
L 217.099231 -267.127023 
L 217.528462 -281.520016 
L 217.957692 -282.272723 
L 218.386923 -285.188194 
L 218.816154 -281.663691 
L 219.245385 -278.613445 
L 219.674615 -271.954779 
L 220.103846 -269.629268 
L 220.533077 -278.627431 
L 220.962308 -262.106005 
L 221.391538 -269.781844 
L 221.820769 -263.372385 
L 222.25 -262.22298 
L 222.679231 -273.133427 
L 223.108462 -268.66804 
L 223.537692 -271.811103 
L 223.966923 -270.999908 
L 224.396154 -275.89378 
L 224.825385 -281.779395 
L 225.254615 -290.99625 
L 225.683846 -279.044472 
L 226.113077 -285.258125 
L 226.542308 -287.8125 
L 226.971538 -279.691648 
L 227.400769 -275.144886 
L 227.83 -280.669405 
L 228.259231 -279.105502 
L 228.688462 -273.856891 
L 229.117692 -258.809094 
L 229.546923 -233.326377 
L 229.976154 -255.589743 
L 230.405385 -249.892305 
L 230.834615 -267.327915 
L 231.263846 -272.359105 
L 231.693077 -277.678918 
L 232.122308 -279.747592 
L 232.551538 -275.964982 
L 232.980769 -280.284151 
L 233.41 -274.014553 
L 233.839231 -265.140994 
L 234.268462 -283.296253 
L 234.697692 -278.769835 
L 235.126923 -289.156439 
L 235.556154 -288.304557 
L 235.985385 -290.220656 
L 236.414615 -285.116992 
L 236.843846 -283.178007 
L 237.273077 -285.22761 
L 237.702308 -283.859513 
L 238.131538 -252.894235 
L 238.560769 -255.758848 
L 238.99 -264.758282 
L 239.419231 -253.064612 
L 239.848462 -264.656565 
L 240.277692 -263.471559 
L 240.706923 -262.875242 
L 241.136154 -258.07673 
L 241.565385 -267.397845 
L 241.994615 -271.179185 
L 242.423846 -272.947793 
L 242.853077 -275.002482 
L 243.282308 -275.809863 
L 243.711538 -275.751375 
L 244.140769 -271.535195 
L 244.57 -274.229431 
L 244.999231 -283.82264 
L 245.428462 -286.638937 
L 245.857692 -279.533986 
L 246.286923 -286.393544 
L 246.716154 -283.36237 
L 247.145385 -272.980852 
L 247.574615 -282.477429 
L 248.003846 -282.889384 
L 248.433077 -283.56199 
L 248.862308 -284.649093 
L 249.291538 -285.485717 
L 249.720769 -283.982845 
L 250.15 -285.485717 
L 250.579231 -278.055271 
L 251.008462 -272.477351 
L 251.437692 -276.618515 
L 251.866923 -277.18686 
L 252.296154 -275.856907 
L 252.725385 -265.908959 
L 253.154615 -251.568097 
L 253.583846 -249.842717 
L 254.013077 -252.825576 
L 254.442308 -246.212683 
L 254.871538 -253.438423 
L 255.300769 -267.621623 
L 255.73 -250.819203 
L 256.159231 -248.894204 
L 256.588462 -243.517175 
L 257.017692 -248.40469 
L 257.446923 -250.421234 
L 257.876154 -247.785486 
L 258.305385 -241.645578 
L 258.734615 -241.899871 
L 259.163846 -239.645562 
L 259.593077 -238.903026 
L 260.022308 -241.110291 
L 260.451538 -240.149062 
L 260.880769 -206.130996 
L 261.31 -238.928455 
L 261.739231 -244.311841 
L 262.168462 -236.235491 
L 262.597692 -229.550124 
L 263.026923 -237.651904 
L 263.456154 -226.515135 
L 263.885385 -220.251895 
L 264.314615 -215.680975 
L 264.743846 -212.400594 
L 265.173077 -219.242351 
L 265.602308 -239.799409 
L 266.031538 -244.189781 
L 266.460769 -242.426258 
L 266.89 -245.044206 
L 267.319231 -243.939302 
L 267.748462 -242.277496 
L 268.177692 -231.721787 
L 268.606923 -237.854067 
L 269.036154 -240.517788 
L 269.465385 -242.4199 
L 269.894615 -244.993347 
L 270.323846 -247.997821 
L 270.753077 -238.347395 
L 271.182308 -241.818497 
L 271.611538 -244.330913 
L 272.040769 -242.704709 
L 272.47 -242.489831 
L 272.899231 -238.16939 
L 273.328462 -253.062069 
L 273.757692 -245.453618 
L 274.186923 -221.078347 
L 274.616154 -243.030204 
L 275.045385 -259.093902 
L 275.474615 -241.972344 
L 275.903846 -224.466804 
L 276.333077 -232.574941 
L 276.762308 -235.583229 
L 277.191538 -238.580074 
L 277.620769 -244.507647 
L 278.05 -258.711191 
L 278.479231 -240.75428 
L 278.908462 -238.891583 
L 279.337692 -217.221992 
L 279.766923 -204.554378 
L 280.196154 -214.198446 
L 280.625385 -214.822736 
L 281.054615 -231.326362 
L 281.483846 -256.247091 
L 281.913077 -185.774829 
L 282.342308 -214.377723 
L 282.771538 -227.674712 
L 283.200769 -236.465626 
L 283.63 -211.669501 
L 284.059231 -206.146253 
L 284.488462 -209.490208 
L 284.917692 -215.061771 
L 285.346923 -205.298186 
L 285.776154 -213.496597 
L 286.205385 -233.702731 
L 286.634615 -208.999423 
L 287.063846 -193.952897 
L 287.493077 -190.653443 
L 287.922308 -182.920388 
L 288.351538 -196.177962 
L 288.780769 -210.075083 
L 289.21 -212.305234 
L 289.639231 -223.391144 
L 290.068462 -216.23152 
L 290.497692 -191.076841 
L 290.926923 -190.519939 
L 291.356154 -187.661684 
L 291.785385 -200.273353 
L 292.214615 -188.863219 
L 292.643846 -187.874019 
L 293.073077 -193.854994 
L 293.502308 -144.497964 
L 293.931538 -138.701352 
L 294.360769 -179.08819 
L 294.79 -172.980069 
L 295.219231 -180.635564 
L 295.648462 -185.085694 
L 296.077692 -126.47748 
L 296.506923 -148.618785 
L 296.936154 -159.47456 
L 297.365385 -175.255993 
L 297.794615 -166.173913 
L 298.223846 -172.545228 
L 298.653077 -201.15575 
L 299.082308 -196.252978 
L 299.511538 -191.815563 
L 299.940769 -196.007585 
L 300.37 -189.545996 
L 300.799231 -194.625502 
L 301.228462 -186.715714 
L 301.657692 -197.989801 
L 302.086923 -189.991009 
L 302.516154 -197.296852 
L 302.945385 -183.530692 
L 303.374615 -193.627402 
L 303.803846 -193.726576 
L 304.233077 -200.59122 
L 304.662308 -188.678857 
L 305.091538 -201.028604 
L 305.520769 -191.872779 
L 305.95 -187.16327 
L 306.379231 -185.305658 
L 306.808462 -187.109868 
L 307.237692 -185.796444 
L 307.666923 -189.02851 
L 308.096154 -183.384473 
L 308.525385 -181.570092 
L 308.954615 -184.774185 
L 309.383846 -174.327823 
L 309.813077 -171.78362 
L 310.242308 -170.299819 
L 310.671538 -169.941266 
L 311.100769 -163.763214 
L 311.53 -154.740892 
L 311.959231 -149.309191 
L 312.388462 -164.306129 
L 312.817692 -154.869311 
L 313.246923 -154.369624 
L 313.676154 -148.274218 
L 314.105385 -125.281031 
L 314.534615 -130.914895 
L 314.963846 -124.584267 
L 315.393077 -144.116525 
L 315.822308 -135.921928 
L 316.251538 -136.196564 
L 316.680769 -148.845106 
L 317.11 -151.901709 
L 317.539231 -139.536705 
L 317.968462 -132.491513 
L 318.397692 -140.084707 
L 318.826923 -163.442804 
L 319.256154 -152.803179 
L 319.685385 -154.640447 
L 320.114615 -150.546327 
L 320.543846 -135.642205 
L 320.973077 -148.552669 
L 321.402308 -151.847036 
L 321.831538 -152.594658 
L 322.260769 -147.166771 
L 322.69 -157.140148 
L 323.119231 -164.821073 
L 323.548462 -163.3093 
L 323.977692 -148.934108 
L 324.406923 -155.39824 
L 324.836154 -154.9901 
L 325.265385 -149.015482 
L 325.694615 -132.392339 
L 326.123846 -160.707881 
L 326.553077 -136.308453 
L 326.982308 -134.547473 
L 327.411538 -141.366344 
L 327.840769 -134.509329 
L 328.27 -120.420217 
L 328.699231 -121.485705 
L 329.128462 -125.832847 
L 329.557692 -125.471751 
L 329.986923 -121.944704 
L 330.416154 -123.938363 
L 330.845385 -142.838701 
L 331.274615 -138.712795 
L 331.703846 -154.780308 
L 332.133077 -149.833035 
L 332.562308 -159.477102 
L 332.991538 -157.63602 
L 333.420769 -134.443213 
L 333.85 -134.267751 
L 334.279231 -138.073248 
L 334.708462 -141.811357 
L 335.137692 -144.075838 
L 335.566923 -142.864131 
L 335.996154 -137.549404 
L 336.425385 -136.848826 
L 336.854615 -135.572275 
L 337.283846 -146.415335 
L 337.713077 -136.609791 
L 338.142308 -151.637245 
L 338.571538 -132.319865 
L 339.000769 -138.660665 
L 339.43 -132.536014 
L 339.859231 -128.519454 
L 340.288462 -133.264564 
L 340.717692 -130.88438 
L 341.146923 -124.703785 
L 341.576154 -127.818876 
L 342.005385 -131.343379 
L 342.434615 -128.356706 
L 342.863846 -142.505577 
L 343.293077 -142.695026 
L 343.722308 -146.545024 
L 344.151538 -155.507586 
L 344.580769 -146.340318 
L 345.01 -143.207426 
L 345.439231 -144.082195 
L 345.868462 -144.246214 
L 346.297692 -145.694414 
L 346.726923 -139.824056 
L 347.156154 -145.457921 
L 347.585385 -142.936604 
L 348.014615 -135.885055 
L 348.443846 -137.394285 
L 348.873077 -142.134309 
L 349.302308 -152.407753 
L 349.731538 -146.852719 
L 350.160769 -148.738303 
L 350.59 -141.13748 
L 351.019231 -138.021118 
L 351.448462 -137.011574 
L 351.877692 -137.026831 
L 352.306923 -137.045903 
L 352.736154 -133.684148 
L 353.165385 -132.529657 
L 353.594615 -126.52961 
L 354.023846 -130.232118 
L 354.453077 -128.466052 
L 354.882308 -128.031211 
L 355.311538 -118.265083 
L 355.740769 -129.106871 
L 356.17 -118.869029 
L 356.599231 -111.820023 
L 357.028462 -104.882905 
L 357.457692 -105.817433 
L 357.886923 -114.234536 
L 358.316154 -116.212937 
L 358.745385 -115.240265 
L 359.174615 -105.010052 
L 359.603846 -101.198198 
L 360.033077 -99.053235 
L 360.462308 -100.821844 
L 360.891538 -104.005594 
L 361.320769 -109.81365 
L 361.75 -112.852453 
L 362.179231 -113.592446 
L 362.608462 -108.477339 
L 363.037692 -113.505986 
L 363.466923 -113.441141 
L 363.896154 -114.730408 
L 364.325385 -113.923027 
L 364.754615 -114.065431 
L 365.183846 -114.228179 
L 365.613077 -110.640102 
L 366.042308 -105.6852 
L 366.471538 -106.876564 
L 366.900769 -106.462066 
L 367.33 -104.359061 
L 367.759231 -107.458895 
L 368.188462 -105.887363 
L 368.617692 -105.497023 
L 369.046923 -107.340649 
L 369.476154 -108.774862 
L 369.905385 -110.385809 
L 370.334615 -110.632474 
L 370.763846 -109.476711 
L 371.193077 -106.882921 
L 371.622308 -107.558069 
L 372.051538 -107.020239 
L 372.480769 -98.74554 
L 372.91 -96.172093 
L 373.339231 -100.729027 
L 373.768462 -96.243295 
L 374.197692 -98.810385 
L 374.626923 -100.427689 
L 375.056154 -102.337431 
L 375.485385 -98.982033 
L 375.914615 -98.098364 
L 376.343846 -97.401601 
L 376.773077 -97.381257 
L 377.202308 -93.406655 
L 377.631538 -92.263608 
L 378.060769 -93.620262 
L 378.49 -94.412385 
L 378.919231 -93.28968 
L 379.348462 -93.552874 
L 379.777692 -91.198119 
L 380.206923 -91.12946 
L 380.636154 -87.36465 
L 381.065385 -84.436464 
L 381.494615 -82.294045 
L 381.923846 -81.34426 
L 382.353077 -80.450419 
L 382.782308 -77.957075 
L 383.211538 -74.953873 
L 383.640769 -73.229765 
L 384.07 -73.608662 
L 384.499231 -71.072088 
L 384.928462 -69.854023 
L 385.357692 -70.174433 
L 385.786923 -70.217663 
L 386.216154 -70.913154 
L 386.645385 -71.000886 
L 387.074615 -69.480212 
L 387.503846 -67.456039 
L 387.933077 -65.241146 
L 388.362308 -64.574898 
L 388.791538 -62.899106 
L 389.220769 -60.454077 
L 389.65 -61.28943 
L 390.079231 -61.876847 
L 390.508462 -62.80756 
L 390.937692 -61.817088 
L 391.366923 -61.528466 
L 391.796154 -60.816445 
L 392.225385 -60.733799 
L 392.654615 -59.867931 
L 393.083846 -59.873017 
L 393.513077 -60.765586 
L 393.942308 -59.504292 
L 394.371538 -57.602179 
L 394.800769 -56.883801 
L 395.23 -57.03892 
L 395.659231 -57.242354 
L 396.088462 -56.494733 
L 396.517692 -56.522705 
L 396.946923 -55.98106 
L 397.376154 -55.028733 
L 397.805385 -54.456573 
L 398.234615 -55.209281 
L 398.663846 -52.792224 
L 399.093077 -50.329395 
L 399.522308 -49.919983 
L 399.951538 -50.601489 
L 400.380769 -50.251836 
L 400.81 -49.220677 
L 401.239231 -48.719719 
L 401.668462 -47.82715 
L 402.097692 -47.229562 
L 402.526923 -46.811249 
L 402.956154 -46.558228 
L 403.385385 -46.612901 
L 403.814615 -46.69936 
L 404.243846 -46.548056 
L 404.673077 -46.559499 
L 405.102308 -46.250533 
L 405.531538 -46.0916 
L 405.960769 -46.019126 
L 406.39 -45.766104 
L 406.819231 -45.599542 
L 407.248462 -45.316006 
L 407.677692 -45.102399 
L 408.106923 -44.924394 
L 408.536154 -44.859549 
L 408.965385 -44.349692 
L 409.394615 -43.95808 
L 409.823846 -43.659286 
L 410.253077 -43.496538 
L 410.682308 -43.331248 
L 411.111538 -43.21173 
L 411.540769 -43.143071 
L 411.97 -42.933279 
L 411.97 -37.55625 
L 411.97 -37.55625 
L 411.540769 -37.55625 
L 411.111538 -37.55625 
L 410.682308 -37.55625 
L 410.253077 -37.55625 
L 409.823846 -37.55625 
L 409.394615 -37.55625 
L 408.965385 -37.55625 
L 408.536154 -37.55625 
L 408.106923 -37.55625 
L 407.677692 -37.55625 
L 407.248462 -37.55625 
L 406.819231 -37.55625 
L 406.39 -37.55625 
L 405.960769 -37.55625 
L 405.531538 -37.55625 
L 405.102308 -37.55625 
L 404.673077 -37.55625 
L 404.243846 -37.55625 
L 403.814615 -37.55625 
L 403.385385 -37.55625 
L 402.956154 -37.55625 
L 402.526923 -37.55625 
L 402.097692 -37.55625 
L 401.668462 -37.55625 
L 401.239231 -37.55625 
L 400.81 -37.55625 
L 400.380769 -37.55625 
L 399.951538 -37.55625 
L 399.522308 -37.55625 
L 399.093077 -37.55625 
L 398.663846 -37.55625 
L 398.234615 -37.55625 
L 397.805385 -37.55625 
L 397.376154 -37.55625 
L 396.946923 -37.55625 
L 396.517692 -37.55625 
L 396.088462 -37.55625 
L 395.659231 -37.55625 
L 395.23 -37.55625 
L 394.800769 -37.55625 
L 394.371538 -37.55625 
L 393.942308 -37.55625 
L 393.513077 -37.55625 
L 393.083846 -37.55625 
L 392.654615 -37.55625 
L 392.225385 -37.55625 
L 391.796154 -37.55625 
L 391.366923 -37.55625 
L 390.937692 -37.55625 
L 390.508462 -37.55625 
L 390.079231 -37.55625 
L 389.65 -37.55625 
L 389.220769 -37.55625 
L 388.791538 -37.55625 
L 388.362308 -37.55625 
L 387.933077 -37.55625 
L 387.503846 -37.55625 
L 387.074615 -37.55625 
L 386.645385 -37.55625 
L 386.216154 -37.55625 
L 385.786923 -37.55625 
L 385.357692 -37.55625 
L 384.928462 -37.55625 
L 384.499231 -37.55625 
L 384.07 -37.55625 
L 383.640769 -37.55625 
L 383.211538 -37.55625 
L 382.782308 -37.55625 
L 382.353077 -37.55625 
L 381.923846 -37.55625 
L 381.494615 -37.55625 
L 381.065385 -37.55625 
L 380.636154 -37.55625 
L 380.206923 -37.55625 
L 379.777692 -37.55625 
L 379.348462 -37.55625 
L 378.919231 -37.55625 
L 378.49 -37.55625 
L 378.060769 -37.55625 
L 377.631538 -37.55625 
L 377.202308 -37.55625 
L 376.773077 -37.55625 
L 376.343846 -37.55625 
L 375.914615 -37.55625 
L 375.485385 -37.55625 
L 375.056154 -37.55625 
L 374.626923 -37.55625 
L 374.197692 -37.55625 
L 373.768462 -37.55625 
L 373.339231 -37.55625 
L 372.91 -37.55625 
L 372.480769 -37.55625 
L 372.051538 -37.55625 
L 371.622308 -37.55625 
L 371.193077 -37.55625 
L 370.763846 -37.55625 
L 370.334615 -37.55625 
L 369.905385 -37.55625 
L 369.476154 -37.55625 
L 369.046923 -37.55625 
L 368.617692 -37.55625 
L 368.188462 -37.55625 
L 367.759231 -37.55625 
L 367.33 -37.55625 
L 366.900769 -37.55625 
L 366.471538 -37.55625 
L 366.042308 -37.55625 
L 365.613077 -37.55625 
L 365.183846 -37.55625 
L 364.754615 -37.55625 
L 364.325385 -37.55625 
L 363.896154 -37.55625 
L 363.466923 -37.55625 
L 363.037692 -37.55625 
L 362.608462 -37.55625 
L 362.179231 -37.55625 
L 361.75 -37.55625 
L 361.320769 -37.55625 
L 360.891538 -37.55625 
L 360.462308 -37.55625 
L 360.033077 -37.55625 
L 359.603846 -37.55625 
L 359.174615 -37.55625 
L 358.745385 -37.55625 
L 358.316154 -37.55625 
L 357.886923 -37.55625 
L 357.457692 -37.55625 
L 357.028462 -37.55625 
L 356.599231 -37.55625 
L 356.17 -37.55625 
L 355.740769 -37.55625 
L 355.311538 -37.55625 
L 354.882308 -37.55625 
L 354.453077 -37.55625 
L 354.023846 -37.55625 
L 353.594615 -37.55625 
L 353.165385 -37.55625 
L 352.736154 -37.55625 
L 352.306923 -37.55625 
L 351.877692 -37.55625 
L 351.448462 -37.55625 
L 351.019231 -37.55625 
L 350.59 -37.55625 
L 350.160769 -37.55625 
L 349.731538 -37.55625 
L 349.302308 -37.55625 
L 348.873077 -37.55625 
L 348.443846 -37.55625 
L 348.014615 -37.55625 
L 347.585385 -37.55625 
L 347.156154 -37.55625 
L 346.726923 -37.55625 
L 346.297692 -37.55625 
L 345.868462 -37.55625 
L 345.439231 -37.55625 
L 345.01 -37.55625 
L 344.580769 -37.55625 
L 344.151538 -37.55625 
L 343.722308 -37.55625 
L 343.293077 -37.55625 
L 342.863846 -37.55625 
L 342.434615 -37.55625 
L 342.005385 -37.55625 
L 341.576154 -37.55625 
L 341.146923 -37.55625 
L 340.717692 -37.55625 
L 340.288462 -37.55625 
L 339.859231 -37.55625 
L 339.43 -37.55625 
L 339.000769 -37.55625 
L 338.571538 -37.55625 
L 338.142308 -37.55625 
L 337.713077 -37.55625 
L 337.283846 -37.55625 
L 336.854615 -37.55625 
L 336.425385 -37.55625 
L 335.996154 -37.55625 
L 335.566923 -37.55625 
L 335.137692 -37.55625 
L 334.708462 -37.55625 
L 334.279231 -37.55625 
L 333.85 -37.55625 
L 333.420769 -37.55625 
L 332.991538 -37.55625 
L 332.562308 -37.55625 
L 332.133077 -37.55625 
L 331.703846 -37.55625 
L 331.274615 -37.55625 
L 330.845385 -37.55625 
L 330.416154 -37.55625 
L 329.986923 -37.55625 
L 329.557692 -37.55625 
L 329.128462 -37.55625 
L 328.699231 -37.55625 
L 328.27 -37.55625 
L 327.840769 -37.55625 
L 327.411538 -37.55625 
L 326.982308 -37.55625 
L 326.553077 -37.55625 
L 326.123846 -37.55625 
L 325.694615 -37.55625 
L 325.265385 -37.55625 
L 324.836154 -37.55625 
L 324.406923 -37.55625 
L 323.977692 -37.55625 
L 323.548462 -37.55625 
L 323.119231 -37.55625 
L 322.69 -37.55625 
L 322.260769 -37.55625 
L 321.831538 -37.55625 
L 321.402308 -37.55625 
L 320.973077 -37.55625 
L 320.543846 -37.55625 
L 320.114615 -37.55625 
L 319.685385 -37.55625 
L 319.256154 -37.55625 
L 318.826923 -37.55625 
L 318.397692 -37.55625 
L 317.968462 -37.55625 
L 317.539231 -37.55625 
L 317.11 -37.55625 
L 316.680769 -37.55625 
L 316.251538 -37.55625 
L 315.822308 -37.55625 
L 315.393077 -37.55625 
L 314.963846 -37.55625 
L 314.534615 -37.55625 
L 314.105385 -37.55625 
L 313.676154 -37.55625 
L 313.246923 -37.55625 
L 312.817692 -37.55625 
L 312.388462 -37.55625 
L 311.959231 -37.55625 
L 311.53 -37.55625 
L 311.100769 -37.55625 
L 310.671538 -37.55625 
L 310.242308 -37.55625 
L 309.813077 -37.55625 
L 309.383846 -37.55625 
L 308.954615 -37.55625 
L 308.525385 -37.55625 
L 308.096154 -37.55625 
L 307.666923 -37.55625 
L 307.237692 -37.55625 
L 306.808462 -37.55625 
L 306.379231 -37.55625 
L 305.95 -37.55625 
L 305.520769 -37.55625 
L 305.091538 -37.55625 
L 304.662308 -37.55625 
L 304.233077 -37.55625 
L 303.803846 -37.55625 
L 303.374615 -37.55625 
L 302.945385 -37.55625 
L 302.516154 -37.55625 
L 302.086923 -37.55625 
L 301.657692 -37.55625 
L 301.228462 -37.55625 
L 300.799231 -37.55625 
L 300.37 -37.55625 
L 299.940769 -37.55625 
L 299.511538 -37.55625 
L 299.082308 -37.55625 
L 298.653077 -37.55625 
L 298.223846 -37.55625 
L 297.794615 -37.55625 
L 297.365385 -37.55625 
L 296.936154 -37.55625 
L 296.506923 -37.55625 
L 296.077692 -37.55625 
L 295.648462 -37.55625 
L 295.219231 -37.55625 
L 294.79 -37.55625 
L 294.360769 -37.55625 
L 293.931538 -37.55625 
L 293.502308 -37.55625 
L 293.073077 -37.55625 
L 292.643846 -37.55625 
L 292.214615 -37.55625 
L 291.785385 -37.55625 
L 291.356154 -37.55625 
L 290.926923 -37.55625 
L 290.497692 -37.55625 
L 290.068462 -37.55625 
L 289.639231 -37.55625 
L 289.21 -37.55625 
L 288.780769 -37.55625 
L 288.351538 -37.55625 
L 287.922308 -37.55625 
L 287.493077 -37.55625 
L 287.063846 -37.55625 
L 286.634615 -37.55625 
L 286.205385 -37.55625 
L 285.776154 -37.55625 
L 285.346923 -37.55625 
L 284.917692 -37.55625 
L 284.488462 -37.55625 
L 284.059231 -37.55625 
L 283.63 -37.55625 
L 283.200769 -37.55625 
L 282.771538 -37.55625 
L 282.342308 -37.55625 
L 281.913077 -37.55625 
L 281.483846 -37.55625 
L 281.054615 -37.55625 
L 280.625385 -37.55625 
L 280.196154 -37.55625 
L 279.766923 -37.55625 
L 279.337692 -37.55625 
L 278.908462 -37.55625 
L 278.479231 -37.55625 
L 278.05 -37.55625 
L 277.620769 -37.55625 
L 277.191538 -37.55625 
L 276.762308 -37.55625 
L 276.333077 -37.55625 
L 275.903846 -37.55625 
L 275.474615 -37.55625 
L 275.045385 -37.55625 
L 274.616154 -37.55625 
L 274.186923 -37.55625 
L 273.757692 -37.55625 
L 273.328462 -37.55625 
L 272.899231 -37.55625 
L 272.47 -37.55625 
L 272.040769 -37.55625 
L 271.611538 -37.55625 
L 271.182308 -37.55625 
L 270.753077 -37.55625 
L 270.323846 -37.55625 
L 269.894615 -37.55625 
L 269.465385 -37.55625 
L 269.036154 -37.55625 
L 268.606923 -37.55625 
L 268.177692 -37.55625 
L 267.748462 -37.55625 
L 267.319231 -37.55625 
L 266.89 -37.55625 
L 266.460769 -37.55625 
L 266.031538 -37.55625 
L 265.602308 -37.55625 
L 265.173077 -37.55625 
L 264.743846 -37.55625 
L 264.314615 -37.55625 
L 263.885385 -37.55625 
L 263.456154 -37.55625 
L 263.026923 -37.55625 
L 262.597692 -37.55625 
L 262.168462 -37.55625 
L 261.739231 -37.55625 
L 261.31 -37.55625 
L 260.880769 -37.55625 
L 260.451538 -37.55625 
L 260.022308 -37.55625 
L 259.593077 -37.55625 
L 259.163846 -37.55625 
L 258.734615 -37.55625 
L 258.305385 -37.55625 
L 257.876154 -37.55625 
L 257.446923 -37.55625 
L 257.017692 -37.55625 
L 256.588462 -37.55625 
L 256.159231 -37.55625 
L 255.73 -37.55625 
L 255.300769 -37.55625 
L 254.871538 -37.55625 
L 254.442308 -37.55625 
L 254.013077 -37.55625 
L 253.583846 -37.55625 
L 253.154615 -37.55625 
L 252.725385 -37.55625 
L 252.296154 -37.55625 
L 251.866923 -37.55625 
L 251.437692 -37.55625 
L 251.008462 -37.55625 
L 250.579231 -37.55625 
L 250.15 -37.55625 
L 249.720769 -37.55625 
L 249.291538 -37.55625 
L 248.862308 -37.55625 
L 248.433077 -37.55625 
L 248.003846 -37.55625 
L 247.574615 -37.55625 
L 247.145385 -37.55625 
L 246.716154 -37.55625 
L 246.286923 -37.55625 
L 245.857692 -37.55625 
L 245.428462 -37.55625 
L 244.999231 -37.55625 
L 244.57 -37.55625 
L 244.140769 -37.55625 
L 243.711538 -37.55625 
L 243.282308 -37.55625 
L 242.853077 -37.55625 
L 242.423846 -37.55625 
L 241.994615 -37.55625 
L 241.565385 -37.55625 
L 241.136154 -37.55625 
L 240.706923 -37.55625 
L 240.277692 -37.55625 
L 239.848462 -37.55625 
L 239.419231 -37.55625 
L 238.99 -37.55625 
L 238.560769 -37.55625 
L 238.131538 -37.55625 
L 237.702308 -37.55625 
L 237.273077 -37.55625 
L 236.843846 -37.55625 
L 236.414615 -37.55625 
L 235.985385 -37.55625 
L 235.556154 -37.55625 
L 235.126923 -37.55625 
L 234.697692 -37.55625 
L 234.268462 -37.55625 
L 233.839231 -37.55625 
L 233.41 -37.55625 
L 232.980769 -37.55625 
L 232.551538 -37.55625 
L 232.122308 -37.55625 
L 231.693077 -37.55625 
L 231.263846 -37.55625 
L 230.834615 -37.55625 
L 230.405385 -37.55625 
L 229.976154 -37.55625 
L 229.546923 -37.55625 
L 229.117692 -37.55625 
L 228.688462 -37.55625 
L 228.259231 -37.55625 
L 227.83 -37.55625 
L 227.400769 -37.55625 
L 226.971538 -37.55625 
L 226.542308 -37.55625 
L 226.113077 -37.55625 
L 225.683846 -37.55625 
L 225.254615 -37.55625 
L 224.825385 -37.55625 
L 224.396154 -37.55625 
L 223.966923 -37.55625 
L 223.537692 -37.55625 
L 223.108462 -37.55625 
L 222.679231 -37.55625 
L 222.25 -37.55625 
L 221.820769 -37.55625 
L 221.391538 -37.55625 
L 220.962308 -37.55625 
L 220.533077 -37.55625 
L 220.103846 -37.55625 
L 219.674615 -37.55625 
L 219.245385 -37.55625 
L 218.816154 -37.55625 
L 218.386923 -37.55625 
L 217.957692 -37.55625 
L 217.528462 -37.55625 
L 217.099231 -37.55625 
L 216.67 -37.55625 
L 216.240769 -37.55625 
L 215.811538 -37.55625 
L 215.382308 -37.55625 
L 214.953077 -37.55625 
L 214.523846 -37.55625 
L 214.094615 -37.55625 
L 213.665385 -37.55625 
L 213.236154 -37.55625 
L 212.806923 -37.55625 
L 212.377692 -37.55625 
L 211.948462 -37.55625 
L 211.519231 -37.55625 
L 211.09 -37.55625 
L 210.660769 -37.55625 
L 210.231538 -37.55625 
L 209.802308 -37.55625 
L 209.373077 -37.55625 
L 208.943846 -37.55625 
L 208.514615 -37.55625 
L 208.085385 -37.55625 
L 207.656154 -37.55625 
L 207.226923 -37.55625 
L 206.797692 -37.55625 
L 206.368462 -37.55625 
L 205.939231 -37.55625 
L 205.51 -37.55625 
L 205.080769 -37.55625 
L 204.651538 -37.55625 
L 204.222308 -37.55625 
L 203.793077 -37.55625 
L 203.363846 -37.55625 
L 202.934615 -37.55625 
L 202.505385 -37.55625 
L 202.076154 -37.55625 
L 201.646923 -37.55625 
L 201.217692 -37.55625 
L 200.788462 -37.55625 
L 200.359231 -37.55625 
L 199.93 -37.55625 
L 199.500769 -37.55625 
L 199.071538 -37.55625 
L 198.642308 -37.55625 
L 198.213077 -37.55625 
L 197.783846 -37.55625 
L 197.354615 -37.55625 
L 196.925385 -37.55625 
L 196.496154 -37.55625 
L 196.066923 -37.55625 
L 195.637692 -37.55625 
L 195.208462 -37.55625 
L 194.779231 -37.55625 
L 194.35 -37.55625 
L 193.920769 -37.55625 
L 193.491538 -37.55625 
L 193.062308 -37.55625 
L 192.633077 -37.55625 
L 192.203846 -37.55625 
L 191.774615 -37.55625 
L 191.345385 -37.55625 
L 190.916154 -37.55625 
L 190.486923 -37.55625 
L 190.057692 -37.55625 
L 189.628462 -37.55625 
L 189.199231 -37.55625 
L 188.77 -37.55625 
L 188.340769 -37.55625 
L 187.911538 -37.55625 
L 187.482308 -37.55625 
L 187.053077 -37.55625 
L 186.623846 -37.55625 
L 186.194615 -37.55625 
L 185.765385 -37.55625 
L 185.336154 -37.55625 
L 184.906923 -37.55625 
L 184.477692 -37.55625 
L 184.048462 -37.55625 
L 183.619231 -37.55625 
L 183.19 -37.55625 
L 182.760769 -37.55625 
L 182.331538 -37.55625 
L 181.902308 -37.55625 
L 181.473077 -37.55625 
L 181.043846 -37.55625 
L 180.614615 -37.55625 
L 180.185385 -37.55625 
L 179.756154 -37.55625 
L 179.326923 -37.55625 
L 178.897692 -37.55625 
L 178.468462 -37.55625 
L 178.039231 -37.55625 
L 177.61 -37.55625 
L 177.180769 -37.55625 
L 176.751538 -37.55625 
L 176.322308 -37.55625 
L 175.893077 -37.55625 
L 175.463846 -37.55625 
L 175.034615 -37.55625 
L 174.605385 -37.55625 
L 174.176154 -37.55625 
L 173.746923 -37.55625 
L 173.317692 -37.55625 
L 172.888462 -37.55625 
L 172.459231 -37.55625 
L 172.03 -37.55625 
L 171.600769 -37.55625 
L 171.171538 -37.55625 
L 170.742308 -37.55625 
L 170.313077 -37.55625 
L 169.883846 -37.55625 
L 169.454615 -37.55625 
L 169.025385 -37.55625 
L 168.596154 -37.55625 
L 168.166923 -37.55625 
L 167.737692 -37.55625 
L 167.308462 -37.55625 
L 166.879231 -37.55625 
L 166.45 -37.55625 
L 166.020769 -37.55625 
L 165.591538 -37.55625 
L 165.162308 -37.55625 
L 164.733077 -37.55625 
L 164.303846 -37.55625 
L 163.874615 -37.55625 
L 163.445385 -37.55625 
L 163.016154 -37.55625 
L 162.586923 -37.55625 
L 162.157692 -37.55625 
L 161.728462 -37.55625 
L 161.299231 -37.55625 
L 160.87 -37.55625 
L 160.440769 -37.55625 
L 160.011538 -37.55625 
L 159.582308 -37.55625 
L 159.153077 -37.55625 
L 158.723846 -37.55625 
L 158.294615 -37.55625 
L 157.865385 -37.55625 
L 157.436154 -37.55625 
L 157.006923 -37.55625 
L 156.577692 -37.55625 
L 156.148462 -37.55625 
L 155.719231 -37.55625 
L 155.29 -37.55625 
L 154.860769 -37.55625 
L 154.431538 -37.55625 
L 154.002308 -37.55625 
L 153.573077 -37.55625 
L 153.143846 -37.55625 
L 152.714615 -37.55625 
L 152.285385 -37.55625 
L 151.856154 -37.55625 
L 151.426923 -37.55625 
L 150.997692 -37.55625 
L 150.568462 -37.55625 
L 150.139231 -37.55625 
L 149.71 -37.55625 
L 149.280769 -37.55625 
L 148.851538 -37.55625 
L 148.422308 -37.55625 
L 147.993077 -37.55625 
L 147.563846 -37.55625 
L 147.134615 -37.55625 
L 146.705385 -37.55625 
L 146.276154 -37.55625 
L 145.846923 -37.55625 
L 145.417692 -37.55625 
L 144.988462 -37.55625 
L 144.559231 -37.55625 
L 144.13 -37.55625 
L 143.700769 -37.55625 
L 143.271538 -37.55625 
L 142.842308 -37.55625 
L 142.413077 -37.55625 
L 141.983846 -37.55625 
L 141.554615 -37.55625 
L 141.125385 -37.55625 
L 140.696154 -37.55625 
L 140.266923 -37.55625 
L 139.837692 -37.55625 
L 139.408462 -37.55625 
L 138.979231 -37.55625 
L 138.55 -37.55625 
L 138.120769 -37.55625 
L 137.691538 -37.55625 
L 137.262308 -37.55625 
L 136.833077 -37.55625 
L 136.403846 -37.55625 
L 135.974615 -37.55625 
L 135.545385 -37.55625 
L 135.116154 -37.55625 
L 134.686923 -37.55625 
L 134.257692 -37.55625 
L 133.828462 -37.55625 
L 133.399231 -37.55625 
L 132.97 -37.55625 
L 132.540769 -37.55625 
L 132.111538 -37.55625 
L 131.682308 -37.55625 
L 131.253077 -37.55625 
L 130.823846 -37.55625 
L 130.394615 -37.55625 
L 129.965385 -37.55625 
L 129.536154 -37.55625 
L 129.106923 -37.55625 
L 128.677692 -37.55625 
L 128.248462 -37.55625 
L 127.819231 -37.55625 
L 127.39 -37.55625 
L 126.960769 -37.55625 
L 126.531538 -37.55625 
L 126.102308 -37.55625 
L 125.673077 -37.55625 
L 125.243846 -37.55625 
L 124.814615 -37.55625 
L 124.385385 -37.55625 
L 123.956154 -37.55625 
L 123.526923 -37.55625 
L 123.097692 -37.55625 
L 122.668462 -37.55625 
L 122.239231 -37.55625 
L 121.81 -37.55625 
L 121.380769 -37.55625 
L 120.951538 -37.55625 
L 120.522308 -37.55625 
L 120.093077 -37.55625 
L 119.663846 -37.55625 
L 119.234615 -37.55625 
L 118.805385 -37.55625 
L 118.376154 -37.55625 
L 117.946923 -37.55625 
L 117.517692 -37.55625 
L 117.088462 -37.55625 
L 116.659231 -37.55625 
L 116.23 -37.55625 
L 115.800769 -37.55625 
L 115.371538 -37.55625 
L 114.942308 -37.55625 
L 114.513077 -37.55625 
L 114.083846 -37.55625 
L 113.654615 -37.55625 
L 113.225385 -37.55625 
L 112.796154 -37.55625 
L 112.366923 -37.55625 
L 111.937692 -37.55625 
L 111.508462 -37.55625 
L 111.079231 -37.55625 
L 110.65 -37.55625 
L 110.220769 -37.55625 
L 109.791538 -37.55625 
L 109.362308 -37.55625 
L 108.933077 -37.55625 
L 108.503846 -37.55625 
L 108.074615 -37.55625 
L 107.645385 -37.55625 
L 107.216154 -37.55625 
L 106.786923 -37.55625 
L 106.357692 -37.55625 
L 105.928462 -37.55625 
L 105.499231 -37.55625 
L 105.07 -37.55625 
L 104.640769 -37.55625 
L 104.211538 -37.55625 
L 103.782308 -37.55625 
L 103.353077 -37.55625 
L 102.923846 -37.55625 
L 102.494615 -37.55625 
L 102.065385 -37.55625 
L 101.636154 -37.55625 
L 101.206923 -37.55625 
L 100.777692 -37.55625 
L 100.348462 -37.55625 
L 99.919231 -37.55625 
L 99.49 -37.55625 
L 99.060769 -37.55625 
L 98.631538 -37.55625 
L 98.202308 -37.55625 
L 97.773077 -37.55625 
L 97.343846 -37.55625 
L 96.914615 -37.55625 
L 96.485385 -37.55625 
L 96.056154 -37.55625 
L 95.626923 -37.55625 
L 95.197692 -37.55625 
L 94.768462 -37.55625 
L 94.339231 -37.55625 
L 93.91 -37.55625 
L 93.480769 -37.55625 
L 93.051538 -37.55625 
L 92.622308 -37.55625 
L 92.193077 -37.55625 
L 91.763846 -37.55625 
L 91.334615 -37.55625 
L 90.905385 -37.55625 
L 90.476154 -37.55625 
L 90.046923 -37.55625 
L 89.617692 -37.55625 
L 89.188462 -37.55625 
L 88.759231 -37.55625 
L 88.33 -37.55625 
L 87.900769 -37.55625 
L 87.471538 -37.55625 
L 87.042308 -37.55625 
L 86.613077 -37.55625 
L 86.183846 -37.55625 
L 85.754615 -37.55625 
L 85.325385 -37.55625 
L 84.896154 -37.55625 
L 84.466923 -37.55625 
L 84.037692 -37.55625 
L 83.608462 -37.55625 
L 83.179231 -37.55625 
L 82.75 -37.55625 
L 82.320769 -37.55625 
L 81.891538 -37.55625 
L 81.462308 -37.55625 
L 81.033077 -37.55625 
L 80.603846 -37.55625 
L 80.174615 -37.55625 
L 79.745385 -37.55625 
L 79.316154 -37.55625 
L 78.886923 -37.55625 
L 78.457692 -37.55625 
L 78.028462 -37.55625 
L 77.599231 -37.55625 
L 77.17 -37.55625 
L 76.740769 -37.55625 
L 76.311538 -37.55625 
L 75.882308 -37.55625 
L 75.453077 -37.55625 
L 75.023846 -37.55625 
L 74.594615 -37.55625 
L 74.165385 -37.55625 
L 73.736154 -37.55625 
L 73.306923 -37.55625 
L 72.877692 -37.55625 
L 72.448462 -37.55625 
L 72.019231 -37.55625 
L 71.59 -37.55625 
L 71.160769 -37.55625 
L 70.731538 -37.55625 
L 70.302308 -37.55625 
L 69.873077 -37.55625 
L 69.443846 -37.55625 
L 69.014615 -37.55625 
L 68.585385 -37.55625 
L 68.156154 -37.55625 
L 67.726923 -37.55625 
L 67.297692 -37.55625 
L 66.868462 -37.55625 
L 66.439231 -37.55625 
L 66.01 -37.55625 
L 65.580769 -37.55625 
L 65.151538 -37.55625 
L 64.722308 -37.55625 
L 64.293077 -37.55625 
L 63.863846 -37.55625 
L 63.434615 -37.55625 
L 63.005385 -37.55625 
L 62.576154 -37.55625 
L 62.146923 -37.55625 
L 61.717692 -37.55625 
L 61.288462 -37.55625 
L 60.859231 -37.55625 
L 60.43 -37.55625 
L 60.000769 -37.55625 
L 59.571538 -37.55625 
L 59.142308 -37.55625 
L 58.713077 -37.55625 
L 58.283846 -37.55625 
L 57.854615 -37.55625 
L 57.425385 -37.55625 
L 56.996154 -37.55625 
L 56.566923 -37.55625 
L 56.137692 -37.55625 
L 55.708462 -37.55625 
L 55.279231 -37.55625 
L 54.85 -37.55625 
z
"/>
    </defs>
    <g clip-path="url(#pd0d82af53f)">
     <use xlink:href="#m827518393d" x="0" y="314.667469" style="fill-opacity: 0.3"/>
    </g>
   </g>
   <g id="matplotlib.axis_1">
    <g id="xtick_1">
     <g id="line2d_1">
      <defs>
       <path id="m64adee2d9f" d="M 0 0 
L 0 3.5 
" style="stroke: #000000; stroke-width: 0.8"/>
      </defs>
      <g>
       <use xlink:href="#m64adee2d9f" x="91.334615" y="277.111219" style="stroke: #000000; stroke-width: 0.8"/>
      </g>
     </g>
     <g id="text_1">
      <!-- 08:00 -->
      <g transform="translate(76.92524 291.709656) scale(0.1 -0.1)">
       <defs>
        <path id="DejaVuSans-30" d="M 2034 4250 
Q 1547 4250 1301 3770 
Q 1056 3291 1056 2328 
Q 1056 1369 1301 889 
Q 1547 409 2034 409 
Q 2525 409 2770 889 
Q 3016 1369 3016 2328 
Q 3016 3291 2770 3770 
Q 2525 4250 2034 4250 
z
M 2034 4750 
Q 2819 4750 3233 4129 
Q 3647 3509 3647 2328 
Q 3647 1150 3233 529 
Q 2819 -91 2034 -91 
Q 1250 -91 836 529 
Q 422 1150 422 2328 
Q 422 3509 836 4129 
Q 1250 4750 2034 4750 
z
" transform="scale(0.015625)"/>
        <path id="DejaVuSans-38" d="M 2034 2216 
Q 1584 2216 1326 1975 
Q 1069 1734 1069 1313 
Q 1069 891 1326 650 
Q 1584 409 2034 409 
Q 2484 409 2743 651 
Q 3003 894 3003 1313 
Q 3003 1734 2745 1975 
Q 2488 2216 2034 2216 
z
M 1403 2484 
Q 997 2584 770 2862 
Q 544 3141 544 3541 
Q 544 4100 942 4425 
Q 1341 4750 2034 4750 
Q 2731 4750 3128 4425 
Q 3525 4100 3525 3541 
Q 3525 3141 3298 2862 
Q 3072 2584 2669 2484 
Q 3125 2378 3379 2068 
Q 3634 1759 3634 1313 
Q 3634 634 3220 271 
Q 2806 -91 2034 -91 
Q 1263 -91 848 271 
Q 434 634 434 1313 
Q 434 1759 690 2068 
Q 947 2378 1403 2484 
z
M 1172 3481 
Q 1172 3119 1398 2916 
Q 1625 2713 2034 2713 
Q 2441 2713 2670 2916 
Q 2900 3119 2900 3481 
Q 2900 3844 2670 4047 
Q 2441 4250 2034 4250 
Q 1625 4250 1398 4047 
Q 1172 3844 1172 3481 
z
" transform="scale(0.015625)"/>
        <path id="DejaVuSans-3a" d="M 750 794 
L 1409 794 
L 1409 0 
L 750 0 
L 750 794 
z
M 750 3309 
L 1409 3309 
L 1409 2516 
L 750 2516 
L 750 3309 
z
" transform="scale(0.015625)"/>
       </defs>
       <use xlink:href="#DejaVuSans-30"/>
       <use xlink:href="#DejaVuSans-38" transform="translate(63.623047 0)"/>
       <use xlink:href="#DejaVuSans-3a" transform="translate(127.246094 0)"/>
       <use xlink:href="#DejaVuSans-30" transform="translate(160.9375 0)"/>
       <use xlink:href="#DejaVuSans-30" transform="translate(224.560547 0)"/>
      </g>
     </g>
    </g>
    <g id="xtick_2">
     <g id="line2d_2">
      <g>
       <use xlink:href="#m64adee2d9f" x="142.842308" y="277.111219" style="stroke: #000000; stroke-width: 0.8"/>
      </g>
     </g>
     <g id="text_2">
      <!-- 10:00 -->
      <g transform="translate(128.432933 291.709656) scale(0.1 -0.1)">
       <defs>
        <path id="DejaVuSans-31" d="M 794 531 
L 1825 531 
L 1825 4091 
L 703 3866 
L 703 4441 
L 1819 4666 
L 2450 4666 
L 2450 531 
L 3481 531 
L 3481 0 
L 794 0 
L 794 531 
z
" transform="scale(0.015625)"/>
       </defs>
       <use xlink:href="#DejaVuSans-31"/>
       <use xlink:href="#DejaVuSans-30" transform="translate(63.623047 0)"/>
       <use xlink:href="#DejaVuSans-3a" transform="translate(127.246094 0)"/>
       <use xlink:href="#DejaVuSans-30" transform="translate(160.9375 0)"/>
       <use xlink:href="#DejaVuSans-30" transform="translate(224.560547 0)"/>
      </g>
     </g>
    </g>
    <g id="xtick_3">
     <g id="line2d_3">
      <g>
       <use xlink:href="#m64adee2d9f" x="194.35" y="277.111219" style="stroke: #000000; stroke-width: 0.8"/>
      </g>
     </g>
     <g id="text_3">
      <!-- 12:00 -->
      <g transform="translate(179.940625 291.709656) scale(0.1 -0.1)">
       <defs>
        <path id="DejaVuSans-32" d="M 1228 531 
L 3431 531 
L 3431 0 
L 469 0 
L 469 531 
Q 828 903 1448 1529 
Q 2069 2156 2228 2338 
Q 2531 2678 2651 2914 
Q 2772 3150 2772 3378 
Q 2772 3750 2511 3984 
Q 2250 4219 1831 4219 
Q 1534 4219 1204 4116 
Q 875 4013 500 3803 
L 500 4441 
Q 881 4594 1212 4672 
Q 1544 4750 1819 4750 
Q 2544 4750 2975 4387 
Q 3406 4025 3406 3419 
Q 3406 3131 3298 2873 
Q 3191 2616 2906 2266 
Q 2828 2175 2409 1742 
Q 1991 1309 1228 531 
z
" transform="scale(0.015625)"/>
       </defs>
       <use xlink:href="#DejaVuSans-31"/>
       <use xlink:href="#DejaVuSans-32" transform="translate(63.623047 0)"/>
       <use xlink:href="#DejaVuSans-3a" transform="translate(127.246094 0)"/>
       <use xlink:href="#DejaVuSans-30" transform="translate(160.9375 0)"/>
       <use xlink:href="#DejaVuSans-30" transform="translate(224.560547 0)"/>
      </g>
     </g>
    </g>
    <g id="xtick_4">
     <g id="line2d_4">
      <g>
       <use xlink:href="#m64adee2d9f" x="245.857692" y="277.111219" style="stroke: #000000; stroke-width: 0.8"/>
      </g>
     </g>
     <g id="text_4">
      <!-- 14:00 -->
      <g transform="translate(231.448317 291.709656) scale(0.1 -0.1)">
       <defs>
        <path id="DejaVuSans-34" d="M 2419 4116 
L 825 1625 
L 2419 1625 
L 2419 4116 
z
M 2253 4666 
L 3047 4666 
L 3047 1625 
L 3713 1625 
L 3713 1100 
L 3047 1100 
L 3047 0 
L 2419 0 
L 2419 1100 
L 313 1100 
L 313 1709 
L 2253 4666 
z
" transform="scale(0.015625)"/>
       </defs>
       <use xlink:href="#DejaVuSans-31"/>
       <use xlink:href="#DejaVuSans-34" transform="translate(63.623047 0)"/>
       <use xlink:href="#DejaVuSans-3a" transform="translate(127.246094 0)"/>
       <use xlink:href="#DejaVuSans-30" transform="translate(160.9375 0)"/>
       <use xlink:href="#DejaVuSans-30" transform="translate(224.560547 0)"/>
      </g>
     </g>
    </g>
    <g id="xtick_5">
     <g id="line2d_5">
      <g>
       <use xlink:href="#m64adee2d9f" x="297.365385" y="277.111219" style="stroke: #000000; stroke-width: 0.8"/>
      </g>
     </g>
     <g id="text_5">
      <!-- 16:00 -->
      <g transform="translate(282.95601 291.709656) scale(0.1 -0.1)">
       <defs>
        <path id="DejaVuSans-36" d="M 2113 2584 
Q 1688 2584 1439 2293 
Q 1191 2003 1191 1497 
Q 1191 994 1439 701 
Q 1688 409 2113 409 
Q 2538 409 2786 701 
Q 3034 994 3034 1497 
Q 3034 2003 2786 2293 
Q 2538 2584 2113 2584 
z
M 3366 4563 
L 3366 3988 
Q 3128 4100 2886 4159 
Q 2644 4219 2406 4219 
Q 1781 4219 1451 3797 
Q 1122 3375 1075 2522 
Q 1259 2794 1537 2939 
Q 1816 3084 2150 3084 
Q 2853 3084 3261 2657 
Q 3669 2231 3669 1497 
Q 3669 778 3244 343 
Q 2819 -91 2113 -91 
Q 1303 -91 875 529 
Q 447 1150 447 2328 
Q 447 3434 972 4092 
Q 1497 4750 2381 4750 
Q 2619 4750 2861 4703 
Q 3103 4656 3366 4563 
z
" transform="scale(0.015625)"/>
       </defs>
       <use xlink:href="#DejaVuSans-31"/>
       <use xlink:href="#DejaVuSans-36" transform="translate(63.623047 0)"/>
       <use xlink:href="#DejaVuSans-3a" transform="translate(127.246094 0)"/>
       <use xlink:href="#DejaVuSans-30" transform="translate(160.9375 0)"/>
       <use xlink:href="#DejaVuSans-30" transform="translate(224.560547 0)"/>
      </g>
     </g>
    </g>
    <g id="xtick_6">
     <g id="line2d_6">
      <g>
       <use xlink:href="#m64adee2d9f" x="348.873077" y="277.111219" style="stroke: #000000; stroke-width: 0.8"/>
      </g>
     </g>
     <g id="text_6">
      <!-- 18:00 -->
      <g transform="translate(334.463702 291.709656) scale(0.1 -0.1)">
       <use xlink:href="#DejaVuSans-31"/>
       <use xlink:href="#DejaVuSans-38" transform="translate(63.623047 0)"/>
       <use xlink:href="#DejaVuSans-3a" transform="translate(127.246094 0)"/>
       <use xlink:href="#DejaVuSans-30" transform="translate(160.9375 0)"/>
       <use xlink:href="#DejaVuSans-30" transform="translate(224.560547 0)"/>
      </g>
     </g>
    </g>
    <g id="xtick_7">
     <g id="line2d_7">
      <g>
       <use xlink:href="#m64adee2d9f" x="400.380769" y="277.111219" style="stroke: #000000; stroke-width: 0.8"/>
      </g>
     </g>
     <g id="text_7">
      <!-- 20:00 -->
      <g transform="translate(385.971394 291.709656) scale(0.1 -0.1)">
       <use xlink:href="#DejaVuSans-32"/>
       <use xlink:href="#DejaVuSans-30" transform="translate(63.623047 0)"/>
       <use xlink:href="#DejaVuSans-3a" transform="translate(127.246094 0)"/>
       <use xlink:href="#DejaVuSans-30" transform="translate(160.9375 0)"/>
       <use xlink:href="#DejaVuSans-30" transform="translate(224.560547 0)"/>
      </g>
     </g>
    </g>
    <g id="text_8">
     <!-- Time [hh:mm] -->
     <g transform="translate(197.923281 305.387781) scale(0.1 -0.1)">
      <defs>
       <path id="DejaVuSans-54" d="M -19 4666 
L 3928 4666 
L 3928 4134 
L 2272 4134 
L 2272 0 
L 1638 0 
L 1638 4134 
L -19 4134 
L -19 4666 
z
" transform="scale(0.015625)"/>
       <path id="DejaVuSans-69" d="M 603 3500 
L 1178 3500 
L 1178 0 
L 603 0 
L 603 3500 
z
M 603 4863 
L 1178 4863 
L 1178 4134 
L 603 4134 
L 603 4863 
z
" transform="scale(0.015625)"/>
       <path id="DejaVuSans-6d" d="M 3328 2828 
Q 3544 3216 3844 3400 
Q 4144 3584 4550 3584 
Q 5097 3584 5394 3201 
Q 5691 2819 5691 2113 
L 5691 0 
L 5113 0 
L 5113 2094 
Q 5113 2597 4934 2840 
Q 4756 3084 4391 3084 
Q 3944 3084 3684 2787 
Q 3425 2491 3425 1978 
L 3425 0 
L 2847 0 
L 2847 2094 
Q 2847 2600 2669 2842 
Q 2491 3084 2119 3084 
Q 1678 3084 1418 2786 
Q 1159 2488 1159 1978 
L 1159 0 
L 581 0 
L 581 3500 
L 1159 3500 
L 1159 2956 
Q 1356 3278 1631 3431 
Q 1906 3584 2284 3584 
Q 2666 3584 2933 3390 
Q 3200 3197 3328 2828 
z
" transform="scale(0.015625)"/>
       <path id="DejaVuSans-65" d="M 3597 1894 
L 3597 1613 
L 953 1613 
Q 991 1019 1311 708 
Q 1631 397 2203 397 
Q 2534 397 2845 478 
Q 3156 559 3463 722 
L 3463 178 
Q 3153 47 2828 -22 
Q 2503 -91 2169 -91 
Q 1331 -91 842 396 
Q 353 884 353 1716 
Q 353 2575 817 3079 
Q 1281 3584 2069 3584 
Q 2775 3584 3186 3129 
Q 3597 2675 3597 1894 
z
M 3022 2063 
Q 3016 2534 2758 2815 
Q 2500 3097 2075 3097 
Q 1594 3097 1305 2825 
Q 1016 2553 972 2059 
L 3022 2063 
z
" transform="scale(0.015625)"/>
       <path id="DejaVuSans-20" transform="scale(0.015625)"/>
       <path id="DejaVuSans-5b" d="M 550 4863 
L 1875 4863 
L 1875 4416 
L 1125 4416 
L 1125 -397 
L 1875 -397 
L 1875 -844 
L 550 -844 
L 550 4863 
z
" transform="scale(0.015625)"/>
       <path id="DejaVuSans-68" d="M 3513 2113 
L 3513 0 
L 2938 0 
L 2938 2094 
Q 2938 2591 2744 2837 
Q 2550 3084 2163 3084 
Q 1697 3084 1428 2787 
Q 1159 2491 1159 1978 
L 1159 0 
L 581 0 
L 581 4863 
L 1159 4863 
L 1159 2956 
Q 1366 3272 1645 3428 
Q 1925 3584 2291 3584 
Q 2894 3584 3203 3211 
Q 3513 2838 3513 2113 
z
" transform="scale(0.015625)"/>
       <path id="DejaVuSans-5d" d="M 1947 4863 
L 1947 -844 
L 622 -844 
L 622 -397 
L 1369 -397 
L 1369 4416 
L 622 4416 
L 622 4863 
L 1947 4863 
z
" transform="scale(0.015625)"/>
      </defs>
      <use xlink:href="#DejaVuSans-54"/>
      <use xlink:href="#DejaVuSans-69" transform="translate(57.958984 0)"/>
      <use xlink:href="#DejaVuSans-6d" transform="translate(85.742188 0)"/>
      <use xlink:href="#DejaVuSans-65" transform="translate(183.154297 0)"/>
      <use xlink:href="#DejaVuSans-20" transform="translate(244.677734 0)"/>
      <use xlink:href="#DejaVuSans-5b" transform="translate(276.464844 0)"/>
      <use xlink:href="#DejaVuSans-68" transform="translate(315.478516 0)"/>
      <use xlink:href="#DejaVuSans-68" transform="translate(378.857422 0)"/>
      <use xlink:href="#DejaVuSans-3a" transform="translate(442.236328 0)"/>
      <use xlink:href="#DejaVuSans-6d" transform="translate(475.927734 0)"/>
      <use xlink:href="#DejaVuSans-6d" transform="translate(573.339844 0)"/>
      <use xlink:href="#DejaVuSans-5d" transform="translate(670.751953 0)"/>
     </g>
    </g>
   </g>
   <g id="matplotlib.axis_2">
    <g id="ytick_1">
     <g id="line2d_8">
      <defs>
       <path id="m6d215fed97" d="M 0 0 
L -3.5 0 
" style="stroke: #000000; stroke-width: 0.8"/>
      </defs>
      <g>
       <use xlink:href="#m6d215fed97" x="54.85" y="277.111219" style="stroke: #000000; stroke-width: 0.8"/>
      </g>
     </g>
     <g id="text_9">
      <!-- 0 -->
      <g transform="translate(41.4875 280.910437) scale(0.1 -0.1)">
       <use xlink:href="#DejaVuSans-30"/>
      </g>
     </g>
    </g>
    <g id="ytick_2">
     <g id="line2d_9">
      <g>
       <use xlink:href="#m6d215fed97" x="54.85" y="245.324575" style="stroke: #000000; stroke-width: 0.8"/>
      </g>
     </g>
     <g id="text_10">
      <!-- 250 -->
      <g transform="translate(28.7625 249.123793) scale(0.1 -0.1)">
       <defs>
        <path id="DejaVuSans-35" d="M 691 4666 
L 3169 4666 
L 3169 4134 
L 1269 4134 
L 1269 2991 
Q 1406 3038 1543 3061 
Q 1681 3084 1819 3084 
Q 2600 3084 3056 2656 
Q 3513 2228 3513 1497 
Q 3513 744 3044 326 
Q 2575 -91 1722 -91 
Q 1428 -91 1123 -41 
Q 819 9 494 109 
L 494 744 
Q 775 591 1075 516 
Q 1375 441 1709 441 
Q 2250 441 2565 725 
Q 2881 1009 2881 1497 
Q 2881 1984 2565 2268 
Q 2250 2553 1709 2553 
Q 1456 2553 1204 2497 
Q 953 2441 691 2322 
L 691 4666 
z
" transform="scale(0.015625)"/>
       </defs>
       <use xlink:href="#DejaVuSans-32"/>
       <use xlink:href="#DejaVuSans-35" transform="translate(63.623047 0)"/>
       <use xlink:href="#DejaVuSans-30" transform="translate(127.246094 0)"/>
      </g>
     </g>
    </g>
    <g id="ytick_3">
     <g id="line2d_10">
      <g>
       <use xlink:href="#m6d215fed97" x="54.85" y="213.53793" style="stroke: #000000; stroke-width: 0.8"/>
      </g>
     </g>
     <g id="text_11">
      <!-- 500 -->
      <g transform="translate(28.7625 217.337149) scale(0.1 -0.1)">
       <use xlink:href="#DejaVuSans-35"/>
       <use xlink:href="#DejaVuSans-30" transform="translate(63.623047 0)"/>
       <use xlink:href="#DejaVuSans-30" transform="translate(127.246094 0)"/>
      </g>
     </g>
    </g>
    <g id="ytick_4">
     <g id="line2d_11">
      <g>
       <use xlink:href="#m6d215fed97" x="54.85" y="181.751286" style="stroke: #000000; stroke-width: 0.8"/>
      </g>
     </g>
     <g id="text_12">
      <!-- 750 -->
      <g transform="translate(28.7625 185.550505) scale(0.1 -0.1)">
       <defs>
        <path id="DejaVuSans-37" d="M 525 4666 
L 3525 4666 
L 3525 4397 
L 1831 0 
L 1172 0 
L 2766 4134 
L 525 4134 
L 525 4666 
z
" transform="scale(0.015625)"/>
       </defs>
       <use xlink:href="#DejaVuSans-37"/>
       <use xlink:href="#DejaVuSans-35" transform="translate(63.623047 0)"/>
       <use xlink:href="#DejaVuSans-30" transform="translate(127.246094 0)"/>
      </g>
     </g>
    </g>
    <g id="ytick_5">
     <g id="line2d_12">
      <g>
       <use xlink:href="#m6d215fed97" x="54.85" y="149.964642" style="stroke: #000000; stroke-width: 0.8"/>
      </g>
     </g>
     <g id="text_13">
      <!-- 1000 -->
      <g transform="translate(22.4 153.763861) scale(0.1 -0.1)">
       <use xlink:href="#DejaVuSans-31"/>
       <use xlink:href="#DejaVuSans-30" transform="translate(63.623047 0)"/>
       <use xlink:href="#DejaVuSans-30" transform="translate(127.246094 0)"/>
       <use xlink:href="#DejaVuSans-30" transform="translate(190.869141 0)"/>
      </g>
     </g>
    </g>
    <g id="ytick_6">
     <g id="line2d_13">
      <g>
       <use xlink:href="#m6d215fed97" x="54.85" y="118.177998" style="stroke: #000000; stroke-width: 0.8"/>
      </g>
     </g>
     <g id="text_14">
      <!-- 1250 -->
      <g transform="translate(22.4 121.977217) scale(0.1 -0.1)">
       <use xlink:href="#DejaVuSans-31"/>
       <use xlink:href="#DejaVuSans-32" transform="translate(63.623047 0)"/>
       <use xlink:href="#DejaVuSans-35" transform="translate(127.246094 0)"/>
       <use xlink:href="#DejaVuSans-30" transform="translate(190.869141 0)"/>
      </g>
     </g>
    </g>
    <g id="ytick_7">
     <g id="line2d_14">
      <g>
       <use xlink:href="#m6d215fed97" x="54.85" y="86.391354" style="stroke: #000000; stroke-width: 0.8"/>
      </g>
     </g>
     <g id="text_15">
      <!-- 1500 -->
      <g transform="translate(22.4 90.190572) scale(0.1 -0.1)">
       <use xlink:href="#DejaVuSans-31"/>
       <use xlink:href="#DejaVuSans-35" transform="translate(63.623047 0)"/>
       <use xlink:href="#DejaVuSans-30" transform="translate(127.246094 0)"/>
       <use xlink:href="#DejaVuSans-30" transform="translate(190.869141 0)"/>
      </g>
     </g>
    </g>
    <g id="ytick_8">
     <g id="line2d_15">
      <g>
       <use xlink:href="#m6d215fed97" x="54.85" y="54.604709" style="stroke: #000000; stroke-width: 0.8"/>
      </g>
     </g>
     <g id="text_16">
      <!-- 1750 -->
      <g transform="translate(22.4 58.403928) scale(0.1 -0.1)">
       <use xlink:href="#DejaVuSans-31"/>
       <use xlink:href="#DejaVuSans-37" transform="translate(63.623047 0)"/>
       <use xlink:href="#DejaVuSans-35" transform="translate(127.246094 0)"/>
       <use xlink:href="#DejaVuSans-30" transform="translate(190.869141 0)"/>
      </g>
     </g>
    </g>
    <g id="ytick_9">
     <g id="line2d_16">
      <g>
       <use xlink:href="#m6d215fed97" x="54.85" y="22.818065" style="stroke: #000000; stroke-width: 0.8"/>
      </g>
     </g>
     <g id="text_17">
      <!-- 2000 -->
      <g transform="translate(22.4 26.617284) scale(0.1 -0.1)">
       <use xlink:href="#DejaVuSans-32"/>
       <use xlink:href="#DejaVuSans-30" transform="translate(63.623047 0)"/>
       <use xlink:href="#DejaVuSans-30" transform="translate(127.246094 0)"/>
       <use xlink:href="#DejaVuSans-30" transform="translate(190.869141 0)"/>
      </g>
     </g>
    </g>
    <g id="text_18">
     <!-- PPFD [$\mathrm{\mu mol \, m^{-2} \, s^{-1}}$] -->
     <g transform="translate(16.3 194.605219) rotate(-90) scale(0.1 -0.1)">
      <defs>
       <path id="DejaVuSans-50" d="M 1259 4147 
L 1259 2394 
L 2053 2394 
Q 2494 2394 2734 2622 
Q 2975 2850 2975 3272 
Q 2975 3691 2734 3919 
Q 2494 4147 2053 4147 
L 1259 4147 
z
M 628 4666 
L 2053 4666 
Q 2838 4666 3239 4311 
Q 3641 3956 3641 3272 
Q 3641 2581 3239 2228 
Q 2838 1875 2053 1875 
L 1259 1875 
L 1259 0 
L 628 0 
L 628 4666 
z
" transform="scale(0.015625)"/>
       <path id="DejaVuSans-46" d="M 628 4666 
L 3309 4666 
L 3309 4134 
L 1259 4134 
L 1259 2759 
L 3109 2759 
L 3109 2228 
L 1259 2228 
L 1259 0 
L 628 0 
L 628 4666 
z
" transform="scale(0.015625)"/>
       <path id="DejaVuSans-44" d="M 1259 4147 
L 1259 519 
L 2022 519 
Q 2988 519 3436 956 
Q 3884 1394 3884 2338 
Q 3884 3275 3436 3711 
Q 2988 4147 2022 4147 
L 1259 4147 
z
M 628 4666 
L 1925 4666 
Q 3281 4666 3915 4102 
Q 4550 3538 4550 2338 
Q 4550 1131 3912 565 
Q 3275 0 1925 0 
L 628 0 
L 628 4666 
z
" transform="scale(0.015625)"/>
       <path id="DejaVuSans-3bc" d="M 544 -1331 
L 544 3500 
L 1119 3500 
L 1119 1325 
Q 1119 872 1334 640 
Q 1550 409 1972 409 
Q 2434 409 2667 671 
Q 2900 934 2900 1459 
L 2900 3500 
L 3475 3500 
L 3475 806 
Q 3475 619 3529 530 
Q 3584 441 3700 441 
Q 3728 441 3778 458 
Q 3828 475 3916 513 
L 3916 50 
Q 3788 -22 3673 -56 
Q 3559 -91 3450 -91 
Q 3234 -91 3106 31 
Q 2978 153 2931 403 
Q 2775 156 2548 32 
Q 2322 -91 2016 -91 
Q 1697 -91 1473 31 
Q 1250 153 1119 397 
L 1119 -1331 
L 544 -1331 
z
" transform="scale(0.015625)"/>
       <path id="DejaVuSans-6f" d="M 1959 3097 
Q 1497 3097 1228 2736 
Q 959 2375 959 1747 
Q 959 1119 1226 758 
Q 1494 397 1959 397 
Q 2419 397 2687 759 
Q 2956 1122 2956 1747 
Q 2956 2369 2687 2733 
Q 2419 3097 1959 3097 
z
M 1959 3584 
Q 2709 3584 3137 3096 
Q 3566 2609 3566 1747 
Q 3566 888 3137 398 
Q 2709 -91 1959 -91 
Q 1206 -91 779 398 
Q 353 888 353 1747 
Q 353 2609 779 3096 
Q 1206 3584 1959 3584 
z
" transform="scale(0.015625)"/>
       <path id="DejaVuSans-6c" d="M 603 4863 
L 1178 4863 
L 1178 0 
L 603 0 
L 603 4863 
z
" transform="scale(0.015625)"/>
       <path id="DejaVuSans-2212" d="M 678 2272 
L 4684 2272 
L 4684 1741 
L 678 1741 
L 678 2272 
z
" transform="scale(0.015625)"/>
       <path id="DejaVuSans-73" d="M 2834 3397 
L 2834 2853 
Q 2591 2978 2328 3040 
Q 2066 3103 1784 3103 
Q 1356 3103 1142 2972 
Q 928 2841 928 2578 
Q 928 2378 1081 2264 
Q 1234 2150 1697 2047 
L 1894 2003 
Q 2506 1872 2764 1633 
Q 3022 1394 3022 966 
Q 3022 478 2636 193 
Q 2250 -91 1575 -91 
Q 1294 -91 989 -36 
Q 684 19 347 128 
L 347 722 
Q 666 556 975 473 
Q 1284 391 1588 391 
Q 1994 391 2212 530 
Q 2431 669 2431 922 
Q 2431 1156 2273 1281 
Q 2116 1406 1581 1522 
L 1381 1569 
Q 847 1681 609 1914 
Q 372 2147 372 2553 
Q 372 3047 722 3315 
Q 1072 3584 1716 3584 
Q 2034 3584 2315 3537 
Q 2597 3491 2834 3397 
z
" transform="scale(0.015625)"/>
      </defs>
      <use xlink:href="#DejaVuSans-50" transform="translate(0 0.765625)"/>
      <use xlink:href="#DejaVuSans-50" transform="translate(60.302734 0.765625)"/>
      <use xlink:href="#DejaVuSans-46" transform="translate(120.605469 0.765625)"/>
      <use xlink:href="#DejaVuSans-44" transform="translate(178.125 0.765625)"/>
      <use xlink:href="#DejaVuSans-20" transform="translate(255.126953 0.765625)"/>
      <use xlink:href="#DejaVuSans-5b" transform="translate(286.914062 0.765625)"/>
      <use xlink:href="#DejaVuSans-3bc" transform="translate(325.927734 0.765625)"/>
      <use xlink:href="#DejaVuSans-6d" transform="translate(389.550781 0.765625)"/>
      <use xlink:href="#DejaVuSans-6f" transform="translate(486.962891 0.765625)"/>
      <use xlink:href="#DejaVuSans-6c" transform="translate(548.144531 0.765625)"/>
      <use xlink:href="#DejaVuSans-6d" transform="translate(592.163411 0.765625)"/>
      <use xlink:href="#DejaVuSans-2212" transform="translate(690.532551 39.046875) scale(0.7)"/>
      <use xlink:href="#DejaVuSans-32" transform="translate(749.184895 39.046875) scale(0.7)"/>
      <use xlink:href="#DejaVuSans-73" transform="translate(812.691079 0.765625)"/>
      <use xlink:href="#DejaVuSans-2212" transform="translate(865.74772 39.046875) scale(0.7)"/>
      <use xlink:href="#DejaVuSans-31" transform="translate(924.400063 39.046875) scale(0.7)"/>
      <use xlink:href="#DejaVuSans-5d" transform="translate(971.670571 0.765625)"/>
     </g>
    </g>
   </g>
   <g id="patch_3">
    <path d="M 54.85 277.111219 
L 54.85 10.999219 
" style="fill: none; stroke: #000000; stroke-width: 0.8; stroke-linejoin: miter; stroke-linecap: square"/>
   </g>
   <g id="patch_4">
    <path d="M 411.97 277.111219 
L 411.97 10.999219 
" style="fill: none; stroke: #000000; stroke-width: 0.8; stroke-linejoin: miter; stroke-linecap: square"/>
   </g>
   <g id="patch_5">
    <path d="M 54.85 277.111219 
L 411.97 277.111219 
" style="fill: none; stroke: #000000; stroke-width: 0.8; stroke-linejoin: miter; stroke-linecap: square"/>
   </g>
   <g id="patch_6">
    <path d="M 54.85 10.999219 
L 411.97 10.999219 
" style="fill: none; stroke: #000000; stroke-width: 0.8; stroke-linejoin: miter; stroke-linecap: square"/>
   </g>
  </g>
  <g id="axes_2">
   <g id="matplotlib.axis_3">
    <g id="ytick_10">
     <g id="line2d_17">
      <defs>
       <path id="m99cdaf9198" d="M 0 0 
L 3.5 0 
" style="stroke: #fa9442; stroke-width: 0.8"/>
      </defs>
      <g>
       <use xlink:href="#m99cdaf9198" x="411.97" y="277.111219" style="fill: #fa9442; stroke: #fa9442; stroke-width: 0.8"/>
      </g>
     </g>
     <g id="text_19">
      <!-- 0.0 -->
      <g style="fill: #fa9442" transform="translate(418.97 280.910437) scale(0.1 -0.1)">
       <defs>
        <path id="DejaVuSans-2e" d="M 684 794 
L 1344 794 
L 1344 0 
L 684 0 
L 684 794 
z
" transform="scale(0.015625)"/>
       </defs>
       <use xlink:href="#DejaVuSans-30"/>
       <use xlink:href="#DejaVuSans-2e" transform="translate(63.623047 0)"/>
       <use xlink:href="#DejaVuSans-30" transform="translate(95.410156 0)"/>
      </g>
     </g>
    </g>
    <g id="ytick_11">
     <g id="line2d_18">
      <g>
       <use xlink:href="#m99cdaf9198" x="411.97" y="223.888819" style="fill: #fa9442; stroke: #fa9442; stroke-width: 0.8"/>
      </g>
     </g>
     <g id="text_20">
      <!-- 0.2 -->
      <g style="fill: #fa9442" transform="translate(418.97 227.688037) scale(0.1 -0.1)">
       <use xlink:href="#DejaVuSans-30"/>
       <use xlink:href="#DejaVuSans-2e" transform="translate(63.623047 0)"/>
       <use xlink:href="#DejaVuSans-32" transform="translate(95.410156 0)"/>
      </g>
     </g>
    </g>
    <g id="ytick_12">
     <g id="line2d_19">
      <g>
       <use xlink:href="#m99cdaf9198" x="411.97" y="170.666419" style="fill: #fa9442; stroke: #fa9442; stroke-width: 0.8"/>
      </g>
     </g>
     <g id="text_21">
      <!-- 0.4 -->
      <g style="fill: #fa9442" transform="translate(418.97 174.465637) scale(0.1 -0.1)">
       <use xlink:href="#DejaVuSans-30"/>
       <use xlink:href="#DejaVuSans-2e" transform="translate(63.623047 0)"/>
       <use xlink:href="#DejaVuSans-34" transform="translate(95.410156 0)"/>
      </g>
     </g>
    </g>
    <g id="ytick_13">
     <g id="line2d_20">
      <g>
       <use xlink:href="#m99cdaf9198" x="411.97" y="117.444019" style="fill: #fa9442; stroke: #fa9442; stroke-width: 0.8"/>
      </g>
     </g>
     <g id="text_22">
      <!-- 0.6 -->
      <g style="fill: #fa9442" transform="translate(418.97 121.243237) scale(0.1 -0.1)">
       <use xlink:href="#DejaVuSans-30"/>
       <use xlink:href="#DejaVuSans-2e" transform="translate(63.623047 0)"/>
       <use xlink:href="#DejaVuSans-36" transform="translate(95.410156 0)"/>
      </g>
     </g>
    </g>
    <g id="ytick_14">
     <g id="line2d_21">
      <g>
       <use xlink:href="#m99cdaf9198" x="411.97" y="64.221619" style="fill: #fa9442; stroke: #fa9442; stroke-width: 0.8"/>
      </g>
     </g>
     <g id="text_23">
      <!-- 0.8 -->
      <g style="fill: #fa9442" transform="translate(418.97 68.020837) scale(0.1 -0.1)">
       <use xlink:href="#DejaVuSans-30"/>
       <use xlink:href="#DejaVuSans-2e" transform="translate(63.623047 0)"/>
       <use xlink:href="#DejaVuSans-38" transform="translate(95.410156 0)"/>
      </g>
     </g>
    </g>
    <g id="ytick_15">
     <g id="line2d_22">
      <g>
       <use xlink:href="#m99cdaf9198" x="411.97" y="10.999219" style="fill: #fa9442; stroke: #fa9442; stroke-width: 0.8"/>
      </g>
     </g>
     <g id="text_24">
      <!-- 1.0 -->
      <g style="fill: #fa9442" transform="translate(418.97 14.798437) scale(0.1 -0.1)">
       <use xlink:href="#DejaVuSans-31"/>
       <use xlink:href="#DejaVuSans-2e" transform="translate(63.623047 0)"/>
       <use xlink:href="#DejaVuSans-30" transform="translate(95.410156 0)"/>
      </g>
     </g>
    </g>
    <g id="text_25">
     <!-- Rubisco Carboxylase Activity -->
     <g style="fill: #fa9442" transform="translate(446.471563 216.53725) rotate(-90) scale(0.1 -0.1)">
      <defs>
       <path id="DejaVuSans-336" d="M -4059 1413 
L -4059 1925 
L -3 1925 
L -3 1413 
L -4059 1413 
z
" transform="scale(0.015625)"/>
       <path id="DejaVuSans-52" d="M 2841 2188 
Q 3044 2119 3236 1894 
Q 3428 1669 3622 1275 
L 4263 0 
L 3584 0 
L 2988 1197 
Q 2756 1666 2539 1819 
Q 2322 1972 1947 1972 
L 1259 1972 
L 1259 0 
L 628 0 
L 628 4666 
L 2053 4666 
Q 2853 4666 3247 4331 
Q 3641 3997 3641 3322 
Q 3641 2881 3436 2590 
Q 3231 2300 2841 2188 
z
M 1259 4147 
L 1259 2491 
L 2053 2491 
Q 2509 2491 2742 2702 
Q 2975 2913 2975 3322 
Q 2975 3731 2742 3939 
Q 2509 4147 2053 4147 
L 1259 4147 
z
" transform="scale(0.015625)"/>
       <path id="DejaVuSans-75" d="M 544 1381 
L 544 3500 
L 1119 3500 
L 1119 1403 
Q 1119 906 1312 657 
Q 1506 409 1894 409 
Q 2359 409 2629 706 
Q 2900 1003 2900 1516 
L 2900 3500 
L 3475 3500 
L 3475 0 
L 2900 0 
L 2900 538 
Q 2691 219 2414 64 
Q 2138 -91 1772 -91 
Q 1169 -91 856 284 
Q 544 659 544 1381 
z
M 1991 3584 
L 1991 3584 
z
" transform="scale(0.015625)"/>
       <path id="DejaVuSans-62" d="M 3116 1747 
Q 3116 2381 2855 2742 
Q 2594 3103 2138 3103 
Q 1681 3103 1420 2742 
Q 1159 2381 1159 1747 
Q 1159 1113 1420 752 
Q 1681 391 2138 391 
Q 2594 391 2855 752 
Q 3116 1113 3116 1747 
z
M 1159 2969 
Q 1341 3281 1617 3432 
Q 1894 3584 2278 3584 
Q 2916 3584 3314 3078 
Q 3713 2572 3713 1747 
Q 3713 922 3314 415 
Q 2916 -91 2278 -91 
Q 1894 -91 1617 61 
Q 1341 213 1159 525 
L 1159 0 
L 581 0 
L 581 4863 
L 1159 4863 
L 1159 2969 
z
" transform="scale(0.015625)"/>
       <path id="DejaVuSans-63" d="M 3122 3366 
L 3122 2828 
Q 2878 2963 2633 3030 
Q 2388 3097 2138 3097 
Q 1578 3097 1268 2742 
Q 959 2388 959 1747 
Q 959 1106 1268 751 
Q 1578 397 2138 397 
Q 2388 397 2633 464 
Q 2878 531 3122 666 
L 3122 134 
Q 2881 22 2623 -34 
Q 2366 -91 2075 -91 
Q 1284 -91 818 406 
Q 353 903 353 1747 
Q 353 2603 823 3093 
Q 1294 3584 2113 3584 
Q 2378 3584 2631 3529 
Q 2884 3475 3122 3366 
z
" transform="scale(0.015625)"/>
       <path id="DejaVuSans-43" d="M 4122 4306 
L 4122 3641 
Q 3803 3938 3442 4084 
Q 3081 4231 2675 4231 
Q 1875 4231 1450 3742 
Q 1025 3253 1025 2328 
Q 1025 1406 1450 917 
Q 1875 428 2675 428 
Q 3081 428 3442 575 
Q 3803 722 4122 1019 
L 4122 359 
Q 3791 134 3420 21 
Q 3050 -91 2638 -91 
Q 1578 -91 968 557 
Q 359 1206 359 2328 
Q 359 3453 968 4101 
Q 1578 4750 2638 4750 
Q 3056 4750 3426 4639 
Q 3797 4528 4122 4306 
z
" transform="scale(0.015625)"/>
       <path id="DejaVuSans-61" d="M 2194 1759 
Q 1497 1759 1228 1600 
Q 959 1441 959 1056 
Q 959 750 1161 570 
Q 1363 391 1709 391 
Q 2188 391 2477 730 
Q 2766 1069 2766 1631 
L 2766 1759 
L 2194 1759 
z
M 3341 1997 
L 3341 0 
L 2766 0 
L 2766 531 
Q 2569 213 2275 61 
Q 1981 -91 1556 -91 
Q 1019 -91 701 211 
Q 384 513 384 1019 
Q 384 1609 779 1909 
Q 1175 2209 1959 2209 
L 2766 2209 
L 2766 2266 
Q 2766 2663 2505 2880 
Q 2244 3097 1772 3097 
Q 1472 3097 1187 3025 
Q 903 2953 641 2809 
L 641 3341 
Q 956 3463 1253 3523 
Q 1550 3584 1831 3584 
Q 2591 3584 2966 3190 
Q 3341 2797 3341 1997 
z
" transform="scale(0.015625)"/>
       <path id="DejaVuSans-72" d="M 2631 2963 
Q 2534 3019 2420 3045 
Q 2306 3072 2169 3072 
Q 1681 3072 1420 2755 
Q 1159 2438 1159 1844 
L 1159 0 
L 581 0 
L 581 3500 
L 1159 3500 
L 1159 2956 
Q 1341 3275 1631 3429 
Q 1922 3584 2338 3584 
Q 2397 3584 2469 3576 
Q 2541 3569 2628 3553 
L 2631 2963 
z
" transform="scale(0.015625)"/>
       <path id="DejaVuSans-78" d="M 3513 3500 
L 2247 1797 
L 3578 0 
L 2900 0 
L 1881 1375 
L 863 0 
L 184 0 
L 1544 1831 
L 300 3500 
L 978 3500 
L 1906 2253 
L 2834 3500 
L 3513 3500 
z
" transform="scale(0.015625)"/>
       <path id="DejaVuSans-79" d="M 2059 -325 
Q 1816 -950 1584 -1140 
Q 1353 -1331 966 -1331 
L 506 -1331 
L 506 -850 
L 844 -850 
Q 1081 -850 1212 -737 
Q 1344 -625 1503 -206 
L 1606 56 
L 191 3500 
L 800 3500 
L 1894 763 
L 2988 3500 
L 3597 3500 
L 2059 -325 
z
" transform="scale(0.015625)"/>
       <path id="DejaVuSans-41" d="M 2188 4044 
L 1331 1722 
L 3047 1722 
L 2188 4044 
z
M 1831 4666 
L 2547 4666 
L 4325 0 
L 3669 0 
L 3244 1197 
L 1141 1197 
L 716 0 
L 50 0 
L 1831 4666 
z
" transform="scale(0.015625)"/>
       <path id="DejaVuSans-74" d="M 1172 4494 
L 1172 3500 
L 2356 3500 
L 2356 3053 
L 1172 3053 
L 1172 1153 
Q 1172 725 1289 603 
Q 1406 481 1766 481 
L 2356 481 
L 2356 0 
L 1766 0 
Q 1100 0 847 248 
Q 594 497 594 1153 
L 594 3053 
L 172 3053 
L 172 3500 
L 594 3500 
L 594 4494 
L 1172 4494 
z
" transform="scale(0.015625)"/>
       <path id="DejaVuSans-76" d="M 191 3500 
L 800 3500 
L 1894 563 
L 2988 3500 
L 3597 3500 
L 2284 0 
L 1503 0 
L 191 3500 
z
" transform="scale(0.015625)"/>
      </defs>
      <use xlink:href="#DejaVuSans-336"/>
      <use xlink:href="#DejaVuSans-52"/>
      <use xlink:href="#DejaVuSans-336" transform="translate(69.482422 0)"/>
      <use xlink:href="#DejaVuSans-75" transform="translate(69.482422 0)"/>
      <use xlink:href="#DejaVuSans-336" transform="translate(132.861328 0)"/>
      <use xlink:href="#DejaVuSans-62" transform="translate(132.861328 0)"/>
      <use xlink:href="#DejaVuSans-336" transform="translate(196.337891 0)"/>
      <use xlink:href="#DejaVuSans-69" transform="translate(196.337891 0)"/>
      <use xlink:href="#DejaVuSans-336" transform="translate(224.121094 0)"/>
      <use xlink:href="#DejaVuSans-73" transform="translate(224.121094 0)"/>
      <use xlink:href="#DejaVuSans-336" transform="translate(276.220703 0)"/>
      <use xlink:href="#DejaVuSans-63" transform="translate(276.220703 0)"/>
      <use xlink:href="#DejaVuSans-336" transform="translate(331.201172 0)"/>
      <use xlink:href="#DejaVuSans-6f" transform="translate(331.201172 0)"/>
      <use xlink:href="#DejaVuSans-336" transform="translate(392.382812 0)"/>
      <use xlink:href="#DejaVuSans-20" transform="translate(392.382812 0)"/>
      <use xlink:href="#DejaVuSans-336" transform="translate(424.169922 0)"/>
      <use xlink:href="#DejaVuSans-43" transform="translate(424.169922 0)"/>
      <use xlink:href="#DejaVuSans-336" transform="translate(493.994141 0)"/>
      <use xlink:href="#DejaVuSans-61" transform="translate(493.994141 0)"/>
      <use xlink:href="#DejaVuSans-336" transform="translate(555.273438 0)"/>
      <use xlink:href="#DejaVuSans-72" transform="translate(555.273438 0)"/>
      <use xlink:href="#DejaVuSans-336" transform="translate(596.386719 0)"/>
      <use xlink:href="#DejaVuSans-62" transform="translate(596.386719 0)"/>
      <use xlink:href="#DejaVuSans-336" transform="translate(659.863281 0)"/>
      <use xlink:href="#DejaVuSans-6f" transform="translate(659.863281 0)"/>
      <use xlink:href="#DejaVuSans-336" transform="translate(721.044922 0)"/>
      <use xlink:href="#DejaVuSans-78" transform="translate(721.044922 0)"/>
      <use xlink:href="#DejaVuSans-336" transform="translate(780.224609 0)"/>
      <use xlink:href="#DejaVuSans-79" transform="translate(780.224609 0)"/>
      <use xlink:href="#DejaVuSans-336" transform="translate(839.404297 0)"/>
      <use xlink:href="#DejaVuSans-6c" transform="translate(839.404297 0)"/>
      <use xlink:href="#DejaVuSans-336" transform="translate(867.1875 0)"/>
      <use xlink:href="#DejaVuSans-61" transform="translate(867.1875 0)"/>
      <use xlink:href="#DejaVuSans-336" transform="translate(928.466797 0)"/>
      <use xlink:href="#DejaVuSans-73" transform="translate(928.466797 0)"/>
      <use xlink:href="#DejaVuSans-336" transform="translate(980.566406 0)"/>
      <use xlink:href="#DejaVuSans-65" transform="translate(980.566406 0)"/>
      <use xlink:href="#DejaVuSans-336" transform="translate(1042.089844 0)"/>
      <use xlink:href="#DejaVuSans-20" transform="translate(1042.089844 0)"/>
      <use xlink:href="#DejaVuSans-336" transform="translate(1073.876953 0)"/>
      <use xlink:href="#DejaVuSans-41" transform="translate(1073.876953 0)"/>
      <use xlink:href="#DejaVuSans-336" transform="translate(1142.285156 0)"/>
      <use xlink:href="#DejaVuSans-63" transform="translate(1142.285156 0)"/>
      <use xlink:href="#DejaVuSans-336" transform="translate(1197.265625 0)"/>
      <use xlink:href="#DejaVuSans-74" transform="translate(1197.265625 0)"/>
      <use xlink:href="#DejaVuSans-336" transform="translate(1236.474609 0)"/>
      <use xlink:href="#DejaVuSans-69" transform="translate(1236.474609 0)"/>
      <use xlink:href="#DejaVuSans-336" transform="translate(1264.257812 0)"/>
      <use xlink:href="#DejaVuSans-76" transform="translate(1264.257812 0)"/>
      <use xlink:href="#DejaVuSans-336" transform="translate(1323.4375 0)"/>
      <use xlink:href="#DejaVuSans-69" transform="translate(1323.4375 0)"/>
      <use xlink:href="#DejaVuSans-336" transform="translate(1351.220703 0)"/>
      <use xlink:href="#DejaVuSans-74" transform="translate(1351.220703 0)"/>
      <use xlink:href="#DejaVuSans-336" transform="translate(1390.429688 0)"/>
      <use xlink:href="#DejaVuSans-79" transform="translate(1390.429688 0)"/>
     </g>
    </g>
   </g>
   <g id="patch_7">
    <path d="M 54.85 277.111219 
L 54.85 10.999219 
" style="fill: none; stroke: #000000; stroke-width: 0.8; stroke-linejoin: miter; stroke-linecap: square"/>
   </g>
   <g id="patch_8">
    <path d="M 411.97 277.111219 
L 411.97 10.999219 
" style="fill: none; stroke: #fa9442; stroke-width: 0.8; stroke-linejoin: miter; stroke-linecap: square"/>
   </g>
   <g id="patch_9">
    <path d="M 54.85 277.111219 
L 411.97 277.111219 
" style="fill: none; stroke: #000000; stroke-width: 0.8; stroke-linejoin: miter; stroke-linecap: square"/>
   </g>
   <g id="patch_10">
    <path d="M 54.85 10.999219 
L 411.97 10.999219 
" style="fill: none; stroke: #000000; stroke-width: 0.8; stroke-linejoin: miter; stroke-linecap: square"/>
   </g>
  </g>
  <g id="axes_3">
   <g id="matplotlib.axis_4">
    <g id="ytick_16">
     <g id="line2d_23">
      <defs>
       <path id="m71d3cea136" d="M 0 0 
L 3.5 0 
" style="stroke: #008aa1; stroke-width: 0.8"/>
      </defs>
      <g>
       <use xlink:href="#m71d3cea136" x="465.538" y="277.111219" style="fill: #008aa1; stroke: #008aa1; stroke-width: 0.8"/>
      </g>
     </g>
     <g id="text_26">
      <!-- 0.0 -->
      <g style="fill: #008aa1" transform="translate(472.538 280.910437) scale(0.1 -0.1)">
       <use xlink:href="#DejaVuSans-30"/>
       <use xlink:href="#DejaVuSans-2e" transform="translate(63.623047 0)"/>
       <use xlink:href="#DejaVuSans-30" transform="translate(95.410156 0)"/>
      </g>
     </g>
    </g>
    <g id="ytick_17">
     <g id="line2d_24">
      <g>
       <use xlink:href="#m71d3cea136" x="465.538" y="223.888819" style="fill: #008aa1; stroke: #008aa1; stroke-width: 0.8"/>
      </g>
     </g>
     <g id="text_27">
      <!-- 0.2 -->
      <g style="fill: #008aa1" transform="translate(472.538 227.688037) scale(0.1 -0.1)">
       <use xlink:href="#DejaVuSans-30"/>
       <use xlink:href="#DejaVuSans-2e" transform="translate(63.623047 0)"/>
       <use xlink:href="#DejaVuSans-32" transform="translate(95.410156 0)"/>
      </g>
     </g>
    </g>
    <g id="ytick_18">
     <g id="line2d_25">
      <g>
       <use xlink:href="#m71d3cea136" x="465.538" y="170.666419" style="fill: #008aa1; stroke: #008aa1; stroke-width: 0.8"/>
      </g>
     </g>
     <g id="text_28">
      <!-- 0.4 -->
      <g style="fill: #008aa1" transform="translate(472.538 174.465637) scale(0.1 -0.1)">
       <use xlink:href="#DejaVuSans-30"/>
       <use xlink:href="#DejaVuSans-2e" transform="translate(63.623047 0)"/>
       <use xlink:href="#DejaVuSans-34" transform="translate(95.410156 0)"/>
      </g>
     </g>
    </g>
    <g id="ytick_19">
     <g id="line2d_26">
      <g>
       <use xlink:href="#m71d3cea136" x="465.538" y="117.444019" style="fill: #008aa1; stroke: #008aa1; stroke-width: 0.8"/>
      </g>
     </g>
     <g id="text_29">
      <!-- 0.6 -->
      <g style="fill: #008aa1" transform="translate(472.538 121.243237) scale(0.1 -0.1)">
       <use xlink:href="#DejaVuSans-30"/>
       <use xlink:href="#DejaVuSans-2e" transform="translate(63.623047 0)"/>
       <use xlink:href="#DejaVuSans-36" transform="translate(95.410156 0)"/>
      </g>
     </g>
    </g>
    <g id="ytick_20">
     <g id="line2d_27">
      <g>
       <use xlink:href="#m71d3cea136" x="465.538" y="64.221619" style="fill: #008aa1; stroke: #008aa1; stroke-width: 0.8"/>
      </g>
     </g>
     <g id="text_30">
      <!-- 0.8 -->
      <g style="fill: #008aa1" transform="translate(472.538 68.020837) scale(0.1 -0.1)">
       <use xlink:href="#DejaVuSans-30"/>
       <use xlink:href="#DejaVuSans-2e" transform="translate(63.623047 0)"/>
       <use xlink:href="#DejaVuSans-38" transform="translate(95.410156 0)"/>
      </g>
     </g>
    </g>
    <g id="ytick_21">
     <g id="line2d_28">
      <g>
       <use xlink:href="#m71d3cea136" x="465.538" y="10.999219" style="fill: #008aa1; stroke: #008aa1; stroke-width: 0.8"/>
      </g>
     </g>
     <g id="text_31">
      <!-- 1.0 -->
      <g style="fill: #008aa1" transform="translate(472.538 14.798437) scale(0.1 -0.1)">
       <use xlink:href="#DejaVuSans-31"/>
       <use xlink:href="#DejaVuSans-2e" transform="translate(63.623047 0)"/>
       <use xlink:href="#DejaVuSans-30" transform="translate(95.410156 0)"/>
      </g>
     </g>
    </g>
    <g id="text_32">
     <!-- ATP/NADPH Ratio -->
     <g style="fill: #008aa1" transform="translate(500.039562 187.550531) rotate(-90) scale(0.1 -0.1)">
      <defs>
       <path id="DejaVuSans-2f" d="M 1625 4666 
L 2156 4666 
L 531 -594 
L 0 -594 
L 1625 4666 
z
" transform="scale(0.015625)"/>
       <path id="DejaVuSans-4e" d="M 628 4666 
L 1478 4666 
L 3547 763 
L 3547 4666 
L 4159 4666 
L 4159 0 
L 3309 0 
L 1241 3903 
L 1241 0 
L 628 0 
L 628 4666 
z
" transform="scale(0.015625)"/>
       <path id="DejaVuSans-48" d="M 628 4666 
L 1259 4666 
L 1259 2753 
L 3553 2753 
L 3553 4666 
L 4184 4666 
L 4184 0 
L 3553 0 
L 3553 2222 
L 1259 2222 
L 1259 0 
L 628 0 
L 628 4666 
z
" transform="scale(0.015625)"/>
      </defs>
      <use xlink:href="#DejaVuSans-336"/>
      <use xlink:href="#DejaVuSans-41"/>
      <use xlink:href="#DejaVuSans-336" transform="translate(68.408203 0)"/>
      <use xlink:href="#DejaVuSans-54" transform="translate(68.408203 0)"/>
      <use xlink:href="#DejaVuSans-336" transform="translate(129.492188 0)"/>
      <use xlink:href="#DejaVuSans-50" transform="translate(129.492188 0)"/>
      <use xlink:href="#DejaVuSans-336" transform="translate(189.794922 0)"/>
      <use xlink:href="#DejaVuSans-2f" transform="translate(189.794922 0)"/>
      <use xlink:href="#DejaVuSans-336" transform="translate(223.486328 0)"/>
      <use xlink:href="#DejaVuSans-4e" transform="translate(223.486328 0)"/>
      <use xlink:href="#DejaVuSans-336" transform="translate(298.291016 0)"/>
      <use xlink:href="#DejaVuSans-41" transform="translate(298.291016 0)"/>
      <use xlink:href="#DejaVuSans-336" transform="translate(366.699219 0)"/>
      <use xlink:href="#DejaVuSans-44" transform="translate(366.699219 0)"/>
      <use xlink:href="#DejaVuSans-336" transform="translate(443.701172 0)"/>
      <use xlink:href="#DejaVuSans-50" transform="translate(443.701172 0)"/>
      <use xlink:href="#DejaVuSans-336" transform="translate(504.003906 0)"/>
      <use xlink:href="#DejaVuSans-48" transform="translate(504.003906 0)"/>
      <use xlink:href="#DejaVuSans-336" transform="translate(579.199219 0)"/>
      <use xlink:href="#DejaVuSans-20" transform="translate(579.199219 0)"/>
      <use xlink:href="#DejaVuSans-336" transform="translate(610.986328 0)"/>
      <use xlink:href="#DejaVuSans-52" transform="translate(610.986328 0)"/>
      <use xlink:href="#DejaVuSans-336" transform="translate(680.46875 0)"/>
      <use xlink:href="#DejaVuSans-61" transform="translate(680.46875 0)"/>
      <use xlink:href="#DejaVuSans-336" transform="translate(741.748047 0)"/>
      <use xlink:href="#DejaVuSans-74" transform="translate(741.748047 0)"/>
      <use xlink:href="#DejaVuSans-336" transform="translate(780.957031 0)"/>
      <use xlink:href="#DejaVuSans-69" transform="translate(780.957031 0)"/>
      <use xlink:href="#DejaVuSans-336" transform="translate(808.740234 0)"/>
      <use xlink:href="#DejaVuSans-6f" transform="translate(808.740234 0)"/>
     </g>
    </g>
   </g>
   <g id="patch_11">
    <path d="M 54.85 277.111219 
L 54.85 10.999219 
" style="fill: none; stroke: #000000; stroke-width: 0.8; stroke-linejoin: miter; stroke-linecap: square"/>
   </g>
   <g id="patch_12">
    <path d="M 465.538 277.111219 
L 465.538 10.999219 
" style="fill: none; stroke: #008aa1; stroke-width: 0.8; stroke-linejoin: miter; stroke-linecap: square"/>
   </g>
   <g id="patch_13">
    <path d="M 54.85 277.111219 
L 411.97 277.111219 
" style="fill: none; stroke: #000000; stroke-width: 0.8; stroke-linejoin: miter; stroke-linecap: square"/>
   </g>
   <g id="patch_14">
    <path d="M 54.85 10.999219 
L 411.97 10.999219 
" style="fill: none; stroke: #000000; stroke-width: 0.8; stroke-linejoin: miter; stroke-linecap: square"/>
   </g>
  </g>
  <g id="axes_4">
   <g id="matplotlib.axis_5">
    <g id="ytick_22">
     <g id="line2d_29">
      <defs>
       <path id="m6d232e48f0" d="M 0 0 
L 3.5 0 
" style="stroke: #db5764; stroke-width: 0.8"/>
      </defs>
      <g>
       <use xlink:href="#m6d232e48f0" x="519.106" y="277.111219" style="fill: #db5764; stroke: #db5764; stroke-width: 0.8"/>
      </g>
     </g>
     <g id="text_33">
      <!-- 0.0 -->
      <g style="fill: #db5764" transform="translate(526.106 280.910437) scale(0.1 -0.1)">
       <use xlink:href="#DejaVuSans-30"/>
       <use xlink:href="#DejaVuSans-2e" transform="translate(63.623047 0)"/>
       <use xlink:href="#DejaVuSans-30" transform="translate(95.410156 0)"/>
      </g>
     </g>
    </g>
    <g id="ytick_23">
     <g id="line2d_30">
      <g>
       <use xlink:href="#m6d232e48f0" x="519.106" y="223.888819" style="fill: #db5764; stroke: #db5764; stroke-width: 0.8"/>
      </g>
     </g>
     <g id="text_34">
      <!-- 0.2 -->
      <g style="fill: #db5764" transform="translate(526.106 227.688037) scale(0.1 -0.1)">
       <use xlink:href="#DejaVuSans-30"/>
       <use xlink:href="#DejaVuSans-2e" transform="translate(63.623047 0)"/>
       <use xlink:href="#DejaVuSans-32" transform="translate(95.410156 0)"/>
      </g>
     </g>
    </g>
    <g id="ytick_24">
     <g id="line2d_31">
      <g>
       <use xlink:href="#m6d232e48f0" x="519.106" y="170.666419" style="fill: #db5764; stroke: #db5764; stroke-width: 0.8"/>
      </g>
     </g>
     <g id="text_35">
      <!-- 0.4 -->
      <g style="fill: #db5764" transform="translate(526.106 174.465637) scale(0.1 -0.1)">
       <use xlink:href="#DejaVuSans-30"/>
       <use xlink:href="#DejaVuSans-2e" transform="translate(63.623047 0)"/>
       <use xlink:href="#DejaVuSans-34" transform="translate(95.410156 0)"/>
      </g>
     </g>
    </g>
    <g id="ytick_25">
     <g id="line2d_32">
      <g>
       <use xlink:href="#m6d232e48f0" x="519.106" y="117.444019" style="fill: #db5764; stroke: #db5764; stroke-width: 0.8"/>
      </g>
     </g>
     <g id="text_36">
      <!-- 0.6 -->
      <g style="fill: #db5764" transform="translate(526.106 121.243237) scale(0.1 -0.1)">
       <use xlink:href="#DejaVuSans-30"/>
       <use xlink:href="#DejaVuSans-2e" transform="translate(63.623047 0)"/>
       <use xlink:href="#DejaVuSans-36" transform="translate(95.410156 0)"/>
      </g>
     </g>
    </g>
    <g id="ytick_26">
     <g id="line2d_33">
      <g>
       <use xlink:href="#m6d232e48f0" x="519.106" y="64.221619" style="fill: #db5764; stroke: #db5764; stroke-width: 0.8"/>
      </g>
     </g>
     <g id="text_37">
      <!-- 0.8 -->
      <g style="fill: #db5764" transform="translate(526.106 68.020837) scale(0.1 -0.1)">
       <use xlink:href="#DejaVuSans-30"/>
       <use xlink:href="#DejaVuSans-2e" transform="translate(63.623047 0)"/>
       <use xlink:href="#DejaVuSans-38" transform="translate(95.410156 0)"/>
      </g>
     </g>
    </g>
    <g id="ytick_27">
     <g id="line2d_34">
      <g>
       <use xlink:href="#m6d232e48f0" x="519.106" y="10.999219" style="fill: #db5764; stroke: #db5764; stroke-width: 0.8"/>
      </g>
     </g>
     <g id="text_38">
      <!-- 1.0 -->
      <g style="fill: #db5764" transform="translate(526.106 14.798437) scale(0.1 -0.1)">
       <use xlink:href="#DejaVuSans-31"/>
       <use xlink:href="#DejaVuSans-2e" transform="translate(63.623047 0)"/>
       <use xlink:href="#DejaVuSans-30" transform="translate(95.410156 0)"/>
      </g>
     </g>
    </g>
    <g id="text_39">
     <!-- Fluorescence -->
     <g style="fill: #db5764" transform="translate(553.607563 177.105219) rotate(-90) scale(0.1 -0.1)">
      <defs>
       <path id="DejaVuSans-6e" d="M 3513 2113 
L 3513 0 
L 2938 0 
L 2938 2094 
Q 2938 2591 2744 2837 
Q 2550 3084 2163 3084 
Q 1697 3084 1428 2787 
Q 1159 2491 1159 1978 
L 1159 0 
L 581 0 
L 581 3500 
L 1159 3500 
L 1159 2956 
Q 1366 3272 1645 3428 
Q 1925 3584 2291 3584 
Q 2894 3584 3203 3211 
Q 3513 2838 3513 2113 
z
" transform="scale(0.015625)"/>
      </defs>
      <use xlink:href="#DejaVuSans-336"/>
      <use xlink:href="#DejaVuSans-46"/>
      <use xlink:href="#DejaVuSans-336" transform="translate(57.519531 0)"/>
      <use xlink:href="#DejaVuSans-6c" transform="translate(57.519531 0)"/>
      <use xlink:href="#DejaVuSans-336" transform="translate(85.302734 0)"/>
      <use xlink:href="#DejaVuSans-75" transform="translate(85.302734 0)"/>
      <use xlink:href="#DejaVuSans-336" transform="translate(148.681641 0)"/>
      <use xlink:href="#DejaVuSans-6f" transform="translate(148.681641 0)"/>
      <use xlink:href="#DejaVuSans-336" transform="translate(209.863281 0)"/>
      <use xlink:href="#DejaVuSans-72" transform="translate(209.863281 0)"/>
      <use xlink:href="#DejaVuSans-336" transform="translate(250.976562 0)"/>
      <use xlink:href="#DejaVuSans-65" transform="translate(250.976562 0)"/>
      <use xlink:href="#DejaVuSans-336" transform="translate(312.5 0)"/>
      <use xlink:href="#DejaVuSans-73" transform="translate(312.5 0)"/>
      <use xlink:href="#DejaVuSans-336" transform="translate(364.599609 0)"/>
      <use xlink:href="#DejaVuSans-63" transform="translate(364.599609 0)"/>
      <use xlink:href="#DejaVuSans-336" transform="translate(419.580078 0)"/>
      <use xlink:href="#DejaVuSans-65" transform="translate(419.580078 0)"/>
      <use xlink:href="#DejaVuSans-336" transform="translate(481.103516 0)"/>
      <use xlink:href="#DejaVuSans-6e" transform="translate(481.103516 0)"/>
      <use xlink:href="#DejaVuSans-336" transform="translate(544.482422 0)"/>
      <use xlink:href="#DejaVuSans-63" transform="translate(544.482422 0)"/>
      <use xlink:href="#DejaVuSans-336" transform="translate(599.462891 0)"/>
      <use xlink:href="#DejaVuSans-65" transform="translate(599.462891 0)"/>
     </g>
    </g>
   </g>
   <g id="patch_15">
    <path d="M 54.85 277.111219 
L 54.85 10.999219 
" style="fill: none; stroke: #000000; stroke-width: 0.8; stroke-linejoin: miter; stroke-linecap: square"/>
   </g>
   <g id="patch_16">
    <path d="M 519.106 277.111219 
L 519.106 10.999219 
" style="fill: none; stroke: #db5764; stroke-width: 0.8; stroke-linejoin: miter; stroke-linecap: square"/>
   </g>
   <g id="patch_17">
    <path d="M 54.85 277.111219 
L 411.97 277.111219 
" style="fill: none; stroke: #000000; stroke-width: 0.8; stroke-linejoin: miter; stroke-linecap: square"/>
   </g>
   <g id="patch_18">
    <path d="M 54.85 10.999219 
L 411.97 10.999219 
" style="fill: none; stroke: #000000; stroke-width: 0.8; stroke-linejoin: miter; stroke-linecap: square"/>
   </g>
  </g>
 </g>
 <defs>
  <clipPath id="pd0d82af53f">
   <rect x="54.85" y="10.999219" width="357.12" height="266.112"/>
  </clipPath>
 </defs>
</svg>
