<?xml version="1.0" encoding="utf-8" standalone="no"?>
<!DOCTYPE svg PUBLIC "-//W3C//DTD SVG 1.1//EN"
  "http://www.w3.org/Graphics/SVG/1.1/DTD/svg11.dtd">
<svg xmlns:xlink="http://www.w3.org/1999/xlink" width="360pt" height="576pt" viewBox="0 0 360 576" xmlns="http://www.w3.org/2000/svg" version="1.1">
 <metadata>
  <rdf:RDF xmlns:dc="http://purl.org/dc/elements/1.1/" xmlns:cc="http://creativecommons.org/ns#" xmlns:rdf="http://www.w3.org/1999/02/22-rdf-syntax-ns#">
   <cc:Work>
    <dc:type rdf:resource="http://purl.org/dc/dcmitype/StillImage"/>
    <dc:date>2025-04-25T10:52:22.086189</dc:date>
    <dc:format>image/svg+xml</dc:format>
    <dc:creator>
     <cc:Agent>
      <dc:title>Matplotlib v3.10.0, https://matplotlib.org/</dc:title>
     </cc:Agent>
    </dc:creator>
   </cc:Work>
  </rdf:RDF>
 </metadata>
 <defs>
  <style type="text/css">*{stroke-linejoin: round; stroke-linecap: butt}</style>
 </defs>
 <g id="figure_1">
  <g id="patch_1">
   <path d="M 0 576 
L 360 576 
L 360 0 
L 0 0 
z
" style="fill: #ffffff"/>
  </g>
  <g id="axes_1">
   <g id="patch_2">
    <path d="M 47.72 139.454545 
L 321.705 139.454545 
L 321.705 23.4 
L 47.72 23.4 
z
" style="fill: #ffffff"/>
   </g>
   <g id="patch_3">
    <path d="M 47.72 23.4 
L 51.634071 23.4 
L 51.634071 8.893182 
L 47.72 8.893182 
z
" style="stroke: #000000; stroke-linejoin: miter"/>
   </g>
   <g id="patch_4">
    <path d="M 51.634071 23.4 
L 157.314 23.4 
L 157.314 8.893182 
L 51.634071 8.893182 
z
" style="fill: #ffffff; stroke: #000000; stroke-linejoin: miter"/>
   </g>
   <g id="patch_5">
    <path d="M 157.314 23.4 
L 282.564286 23.4 
L 282.564286 8.893182 
L 157.314 8.893182 
z
" style="stroke: #000000; stroke-linejoin: miter"/>
   </g>
   <g id="patch_6">
    <path d="M 282.564286 23.4 
L 321.705 23.4 
L 321.705 8.893182 
L 282.564286 8.893182 
z
" style="fill: #ffffff; stroke: #000000; stroke-linejoin: miter"/>
   </g>
   <g id="matplotlib.axis_1">
    <g id="ytick_1">
     <g id="line2d_1">
      <defs>
       <path id="m0ef257c199" d="M 0 0 
L -3.5 0 
" style="stroke: #000000; stroke-width: 0.8"/>
      </defs>
      <g>
       <use xlink:href="#m0ef257c199" x="47.72" y="120.112121" style="stroke: #000000; stroke-width: 0.8"/>
      </g>
     </g>
     <g id="text_1">
      <!-- 3 -->
      <g transform="translate(34.3575 123.91134) scale(0.1 -0.1)">
       <defs>
        <path id="DejaVuSans-33" d="M 2597 2516 
Q 3050 2419 3304 2112 
Q 3559 1806 3559 1356 
Q 3559 666 3084 287 
Q 2609 -91 1734 -91 
Q 1441 -91 1130 -33 
Q 819 25 488 141 
L 488 750 
Q 750 597 1062 519 
Q 1375 441 1716 441 
Q 2309 441 2620 675 
Q 2931 909 2931 1356 
Q 2931 1769 2642 2001 
Q 2353 2234 1838 2234 
L 1294 2234 
L 1294 2753 
L 1863 2753 
Q 2328 2753 2575 2939 
Q 2822 3125 2822 3475 
Q 2822 3834 2567 4026 
Q 2313 4219 1838 4219 
Q 1578 4219 1281 4162 
Q 984 4106 628 3988 
L 628 4550 
Q 988 4650 1302 4700 
Q 1616 4750 1894 4750 
Q 2613 4750 3031 4423 
Q 3450 4097 3450 3541 
Q 3450 3153 3228 2886 
Q 3006 2619 2597 2516 
z
" transform="scale(0.015625)"/>
       </defs>
       <use xlink:href="#DejaVuSans-33"/>
      </g>
     </g>
    </g>
    <g id="ytick_2">
     <g id="line2d_2">
      <g>
       <use xlink:href="#m0ef257c199" x="47.72" y="100.769697" style="stroke: #000000; stroke-width: 0.8"/>
      </g>
     </g>
     <g id="text_2">
      <!-- 4 -->
      <g transform="translate(34.3575 104.568916) scale(0.1 -0.1)">
       <defs>
        <path id="DejaVuSans-34" d="M 2419 4116 
L 825 1625 
L 2419 1625 
L 2419 4116 
z
M 2253 4666 
L 3047 4666 
L 3047 1625 
L 3713 1625 
L 3713 1100 
L 3047 1100 
L 3047 0 
L 2419 0 
L 2419 1100 
L 313 1100 
L 313 1709 
L 2253 4666 
z
" transform="scale(0.015625)"/>
       </defs>
       <use xlink:href="#DejaVuSans-34"/>
      </g>
     </g>
    </g>
    <g id="ytick_3">
     <g id="line2d_3">
      <g>
       <use xlink:href="#m0ef257c199" x="47.72" y="81.427273" style="stroke: #000000; stroke-width: 0.8"/>
      </g>
     </g>
     <g id="text_3">
      <!-- 5 -->
      <g transform="translate(34.3575 85.226491) scale(0.1 -0.1)">
       <defs>
        <path id="DejaVuSans-35" d="M 691 4666 
L 3169 4666 
L 3169 4134 
L 1269 4134 
L 1269 2991 
Q 1406 3038 1543 3061 
Q 1681 3084 1819 3084 
Q 2600 3084 3056 2656 
Q 3513 2228 3513 1497 
Q 3513 744 3044 326 
Q 2575 -91 1722 -91 
Q 1428 -91 1123 -41 
Q 819 9 494 109 
L 494 744 
Q 775 591 1075 516 
Q 1375 441 1709 441 
Q 2250 441 2565 725 
Q 2881 1009 2881 1497 
Q 2881 1984 2565 2268 
Q 2250 2553 1709 2553 
Q 1456 2553 1204 2497 
Q 953 2441 691 2322 
L 691 4666 
z
" transform="scale(0.015625)"/>
       </defs>
       <use xlink:href="#DejaVuSans-35"/>
      </g>
     </g>
    </g>
    <g id="ytick_4">
     <g id="line2d_4">
      <g>
       <use xlink:href="#m0ef257c199" x="47.72" y="62.084848" style="stroke: #000000; stroke-width: 0.8"/>
      </g>
     </g>
     <g id="text_4">
      <!-- 6 -->
      <g transform="translate(34.3575 65.884067) scale(0.1 -0.1)">
       <defs>
        <path id="DejaVuSans-36" d="M 2113 2584 
Q 1688 2584 1439 2293 
Q 1191 2003 1191 1497 
Q 1191 994 1439 701 
Q 1688 409 2113 409 
Q 2538 409 2786 701 
Q 3034 994 3034 1497 
Q 3034 2003 2786 2293 
Q 2538 2584 2113 2584 
z
M 3366 4563 
L 3366 3988 
Q 3128 4100 2886 4159 
Q 2644 4219 2406 4219 
Q 1781 4219 1451 3797 
Q 1122 3375 1075 2522 
Q 1259 2794 1537 2939 
Q 1816 3084 2150 3084 
Q 2853 3084 3261 2657 
Q 3669 2231 3669 1497 
Q 3669 778 3244 343 
Q 2819 -91 2113 -91 
Q 1303 -91 875 529 
Q 447 1150 447 2328 
Q 447 3434 972 4092 
Q 1497 4750 2381 4750 
Q 2619 4750 2861 4703 
Q 3103 4656 3366 4563 
z
" transform="scale(0.015625)"/>
       </defs>
       <use xlink:href="#DejaVuSans-36"/>
      </g>
     </g>
    </g>
    <g id="ytick_5">
     <g id="line2d_5">
      <g>
       <use xlink:href="#m0ef257c199" x="47.72" y="42.742424" style="stroke: #000000; stroke-width: 0.8"/>
      </g>
     </g>
     <g id="text_5">
      <!-- 7 -->
      <g transform="translate(34.3575 46.541643) scale(0.1 -0.1)">
       <defs>
        <path id="DejaVuSans-37" d="M 525 4666 
L 3525 4666 
L 3525 4397 
L 1831 0 
L 1172 0 
L 2766 4134 
L 525 4134 
L 525 4666 
z
" transform="scale(0.015625)"/>
       </defs>
       <use xlink:href="#DejaVuSans-37"/>
      </g>
     </g>
    </g>
    <g id="ytick_6">
     <g id="line2d_6">
      <g>
       <use xlink:href="#m0ef257c199" x="47.72" y="23.4" style="stroke: #000000; stroke-width: 0.8"/>
      </g>
     </g>
     <g id="text_6">
      <!-- 8 -->
      <g transform="translate(34.3575 27.199219) scale(0.1 -0.1)">
       <defs>
        <path id="DejaVuSans-38" d="M 2034 2216 
Q 1584 2216 1326 1975 
Q 1069 1734 1069 1313 
Q 1069 891 1326 650 
Q 1584 409 2034 409 
Q 2484 409 2743 651 
Q 3003 894 3003 1313 
Q 3003 1734 2745 1975 
Q 2488 2216 2034 2216 
z
M 1403 2484 
Q 997 2584 770 2862 
Q 544 3141 544 3541 
Q 544 4100 942 4425 
Q 1341 4750 2034 4750 
Q 2731 4750 3128 4425 
Q 3525 4100 3525 3541 
Q 3525 3141 3298 2862 
Q 3072 2584 2669 2484 
Q 3125 2378 3379 2068 
Q 3634 1759 3634 1313 
Q 3634 634 3220 271 
Q 2806 -91 2034 -91 
Q 1263 -91 848 271 
Q 434 634 434 1313 
Q 434 1759 690 2068 
Q 947 2378 1403 2484 
z
M 1172 3481 
Q 1172 3119 1398 2916 
Q 1625 2713 2034 2713 
Q 2441 2713 2670 2916 
Q 2900 3119 2900 3481 
Q 2900 3844 2670 4047 
Q 2441 4250 2034 4250 
Q 1625 4250 1398 4047 
Q 1172 3844 1172 3481 
z
" transform="scale(0.015625)"/>
       </defs>
       <use xlink:href="#DejaVuSans-38"/>
      </g>
     </g>
    </g>
    <g id="text_7">
     <!-- lumen pH -->
     <g transform="translate(28.277812 105.624148) rotate(-90) scale(0.1 -0.1)">
      <defs>
       <path id="DejaVuSans-6c" d="M 603 4863 
L 1178 4863 
L 1178 0 
L 603 0 
L 603 4863 
z
" transform="scale(0.015625)"/>
       <path id="DejaVuSans-75" d="M 544 1381 
L 544 3500 
L 1119 3500 
L 1119 1403 
Q 1119 906 1312 657 
Q 1506 409 1894 409 
Q 2359 409 2629 706 
Q 2900 1003 2900 1516 
L 2900 3500 
L 3475 3500 
L 3475 0 
L 2900 0 
L 2900 538 
Q 2691 219 2414 64 
Q 2138 -91 1772 -91 
Q 1169 -91 856 284 
Q 544 659 544 1381 
z
M 1991 3584 
L 1991 3584 
z
" transform="scale(0.015625)"/>
       <path id="DejaVuSans-6d" d="M 3328 2828 
Q 3544 3216 3844 3400 
Q 4144 3584 4550 3584 
Q 5097 3584 5394 3201 
Q 5691 2819 5691 2113 
L 5691 0 
L 5113 0 
L 5113 2094 
Q 5113 2597 4934 2840 
Q 4756 3084 4391 3084 
Q 3944 3084 3684 2787 
Q 3425 2491 3425 1978 
L 3425 0 
L 2847 0 
L 2847 2094 
Q 2847 2600 2669 2842 
Q 2491 3084 2119 3084 
Q 1678 3084 1418 2786 
Q 1159 2488 1159 1978 
L 1159 0 
L 581 0 
L 581 3500 
L 1159 3500 
L 1159 2956 
Q 1356 3278 1631 3431 
Q 1906 3584 2284 3584 
Q 2666 3584 2933 3390 
Q 3200 3197 3328 2828 
z
" transform="scale(0.015625)"/>
       <path id="DejaVuSans-65" d="M 3597 1894 
L 3597 1613 
L 953 1613 
Q 991 1019 1311 708 
Q 1631 397 2203 397 
Q 2534 397 2845 478 
Q 3156 559 3463 722 
L 3463 178 
Q 3153 47 2828 -22 
Q 2503 -91 2169 -91 
Q 1331 -91 842 396 
Q 353 884 353 1716 
Q 353 2575 817 3079 
Q 1281 3584 2069 3584 
Q 2775 3584 3186 3129 
Q 3597 2675 3597 1894 
z
M 3022 2063 
Q 3016 2534 2758 2815 
Q 2500 3097 2075 3097 
Q 1594 3097 1305 2825 
Q 1016 2553 972 2059 
L 3022 2063 
z
" transform="scale(0.015625)"/>
       <path id="DejaVuSans-6e" d="M 3513 2113 
L 3513 0 
L 2938 0 
L 2938 2094 
Q 2938 2591 2744 2837 
Q 2550 3084 2163 3084 
Q 1697 3084 1428 2787 
Q 1159 2491 1159 1978 
L 1159 0 
L 581 0 
L 581 3500 
L 1159 3500 
L 1159 2956 
Q 1366 3272 1645 3428 
Q 1925 3584 2291 3584 
Q 2894 3584 3203 3211 
Q 3513 2838 3513 2113 
z
" transform="scale(0.015625)"/>
       <path id="DejaVuSans-20" transform="scale(0.015625)"/>
       <path id="DejaVuSans-70" d="M 1159 525 
L 1159 -1331 
L 581 -1331 
L 581 3500 
L 1159 3500 
L 1159 2969 
Q 1341 3281 1617 3432 
Q 1894 3584 2278 3584 
Q 2916 3584 3314 3078 
Q 3713 2572 3713 1747 
Q 3713 922 3314 415 
Q 2916 -91 2278 -91 
Q 1894 -91 1617 61 
Q 1341 213 1159 525 
z
M 3116 1747 
Q 3116 2381 2855 2742 
Q 2594 3103 2138 3103 
Q 1681 3103 1420 2742 
Q 1159 2381 1159 1747 
Q 1159 1113 1420 752 
Q 1681 391 2138 391 
Q 2594 391 2855 752 
Q 3116 1113 3116 1747 
z
" transform="scale(0.015625)"/>
       <path id="DejaVuSans-48" d="M 628 4666 
L 1259 4666 
L 1259 2753 
L 3553 2753 
L 3553 4666 
L 4184 4666 
L 4184 0 
L 3553 0 
L 3553 2222 
L 1259 2222 
L 1259 0 
L 628 0 
L 628 4666 
z
" transform="scale(0.015625)"/>
      </defs>
      <use xlink:href="#DejaVuSans-6c"/>
      <use xlink:href="#DejaVuSans-75" transform="translate(27.783203 0)"/>
      <use xlink:href="#DejaVuSans-6d" transform="translate(91.162109 0)"/>
      <use xlink:href="#DejaVuSans-65" transform="translate(188.574219 0)"/>
      <use xlink:href="#DejaVuSans-6e" transform="translate(250.097656 0)"/>
      <use xlink:href="#DejaVuSans-20" transform="translate(313.476562 0)"/>
      <use xlink:href="#DejaVuSans-70" transform="translate(345.263672 0)"/>
      <use xlink:href="#DejaVuSans-48" transform="translate(408.740234 0)"/>
     </g>
    </g>
   </g>
   <g id="line2d_7">
    <path d="M 47.72 27.255469 
L 47.834419 44.735292 
L 49.203947 44.736435 
L 51.634071 44.749815 
L 51.693858 107.070333 
L 51.743973 107.006169 
L 53.486806 104.216702 
L 54.546066 102.027663 
L 55.525032 99.499581 
L 56.510446 96.321473 
L 57.295478 93.093219 
L 57.988517 89.301629 
L 58.538288 85.049456 
L 59.014511 79.530428 
L 59.334594 73.144121 
L 59.724759 64.947117 
L 60.038513 63.457045 
L 60.45544 62.497238 
L 60.997884 61.788514 
L 61.706599 61.224204 
L 62.651471 60.753646 
L 63.995693 60.340082 
L 66.030115 59.9733 
L 68.838924 59.691896 
L 73.631228 59.452256 
L 82.131152 59.282329 
L 100.544212 59.187794 
L 157.314001 58.981385 
L 157.424564 45.708774 
L 157.559037 45.404266 
L 159.629916 43.345379 
L 160.954847 42.324228 
L 162.120651 41.698011 
L 163.329153 41.297587 
L 164.844047 41.041099 
L 167.161731 40.902295 
L 172.715471 40.857816 
L 282.564286 40.856568 
L 282.564286 40.869283 
L 282.655027 103.749941 
L 282.675084 103.731882 
L 283.045904 103.002594 
L 284.02141 100.746383 
L 284.999734 97.934287 
L 285.890196 94.711801 
L 286.674156 90.98202 
L 287.289165 86.910362 
L 287.803659 81.916965 
L 288.185729 76.014307 
L 288.850315 64.093206 
L 289.218132 62.934523 
L 289.701975 62.120139 
L 290.323663 61.498181 
L 291.177057 60.970492 
L 292.364367 60.518309 
L 293.928668 60.153963 
L 296.421722 59.817615 
L 300.406438 59.540015 
L 307.060135 59.334783 
L 319.753699 59.204204 
L 321.705 59.195288 
L 321.705 59.195288 
" clip-path="url(#p73474bba66)" style="fill: none; stroke: #d99f21; stroke-width: 1.5; stroke-linecap: square"/>
   </g>
   <g id="line2d_8">
    <path d="M 47.72 178.139394 
L 51.713699 178.028879 
L 53.092139 176.274061 
L 54.570117 174.749534 
L 56.072111 173.508357 
L 57.614509 172.514008 
L 58.538288 172.135335 
L 59.051143 172.157289 
L 60.068394 172.564111 
L 62.984341 173.639579 
L 66.188256 174.58381 
L 69.752237 175.403188 
L 73.873177 176.118009 
L 78.712159 176.72256 
L 84.614053 177.220494 
L 92.113067 177.60878 
L 101.433165 177.870476 
L 116.305503 178.047155 
L 146.59718 178.12648 
L 282.591887 178.10896 
L 283.956624 176.356749 
L 285.399327 174.854955 
L 286.791745 173.715279 
L 287.58505 173.303397 
L 288.068169 173.296342 
L 289.182746 173.658166 
L 292.433885 174.610348 
L 296.002279 175.424376 
L 300.196716 176.144402 
L 305.049752 176.742462 
L 310.952839 177.233451 
L 318.581577 177.621176 
L 321.705 177.726901 
L 321.705 177.726901 
" clip-path="url(#p73474bba66)" style="fill: none; stroke-dasharray: 5.55,2.4; stroke-dashoffset: 0; stroke: #d99f21; stroke-width: 1.5"/>
   </g>
   <g id="line2d_9">
    <path d="M 47.72 178.139394 
L 51.930757 178.034634 
L 57.694267 176.111708 
L 59.014511 175.812421 
L 63.588603 175.829074 
L 240.886108 176.472016 
L 282.893582 176.490486 
L 287.686099 175.059369 
L 288.705704 175.03945 
L 321.705 175.222018 
L 321.705 175.222018 
" clip-path="url(#p73474bba66)" style="fill: none; stroke: #d99f21; stroke-width: 1.5; stroke-linecap: square"/>
   </g>
   <g id="line2d_10">
    <path d="M 47.72 27.255469 
L 47.834419 44.735292 
L 49.203947 44.736435 
L 51.634071 44.755589 
L 51.678125 108.170427 
L 51.742865 108.108805 
L 53.041909 106.946238 
L 58.99756 101.957196 
L 61.870323 99.047034 
L 65.415386 95.126293 
L 68.889645 90.953825 
L 74.293045 84.33587 
L 75.579921 83.196997 
L 76.866796 82.35048 
L 78.153672 81.757802 
L 79.671264 81.303456 
L 81.712707 80.960659 
L 84.833064 80.731631 
L 91.289294 80.575607 
L 110.988344 80.382983 
L 149.524852 80.269836 
L 157.314002 80.189341 
L 157.42583 45.616473 
L 157.55362 45.272331 
L 159.542294 43.309126 
L 160.890399 42.282754 
L 162.069533 41.66524 
L 163.312723 41.270747 
L 164.733971 41.039062 
L 167.04611 40.90193 
L 172.646944 40.85776 
L 282.564286 40.856568 
L 282.564286 40.871805 
L 282.630815 106.370493 
L 282.675191 106.341776 
L 285.927393 103.627955 
L 288.25998 101.357163 
L 291.144212 98.212167 
L 294.578952 94.132715 
L 297.600091 90.230387 
L 302.037566 84.422288 
L 303.409902 83.065805 
L 304.617482 82.170312 
L 305.769738 81.552726 
L 307.057398 81.080361 
L 308.748446 80.705204 
L 311.003176 80.458491 
L 314.902258 80.309992 
L 321.705 80.226687 
L 321.705 80.226687 
" clip-path="url(#p73474bba66)" style="fill: none; stroke: #0d936e; stroke-width: 1.5; stroke-linecap: square"/>
   </g>
   <g id="line2d_11">
    <path d="M 47.72 178.139394 
L 51.711078 178.031886 
L 53.100233 176.263987 
L 54.54547 174.770858 
L 56.112181 173.473751 
L 57.806072 172.370439 
L 59.685377 171.429593 
L 61.670349 170.683303 
L 63.960582 170.058916 
L 66.583688 169.57653 
L 69.461928 169.283097 
L 71.719293 169.25265 
L 73.741527 169.437796 
L 75.947599 169.872674 
L 86.17036 172.210247 
L 90.731725 172.844012 
L 95.441721 173.290114 
L 101.83809 173.6786 
L 110.988344 173.985879 
L 125.367315 174.196214 
L 151.59034 174.311986 
L 157.702372 174.430761 
L 161.217357 175.275938 
L 165.149804 175.995384 
L 169.818377 176.618708 
L 175.365145 177.128305 
L 182.354804 177.534845 
L 191.186515 177.82374 
L 204.883079 178.024171 
L 229.839673 178.121022 
L 282.612143 178.075168 
L 283.982077 176.321694 
L 285.437076 174.808763 
L 286.989749 173.514867 
L 288.626511 172.436769 
L 290.464388 171.500634 
L 292.344429 170.776398 
L 294.669453 170.131782 
L 297.101189 169.699356 
L 299.144225 169.529456 
L 301.153702 169.587008 
L 303.087374 169.882142 
L 305.955542 170.587739 
L 311.285018 171.903086 
L 315.31707 172.635212 
L 319.7395 173.200886 
L 321.705 173.391746 
L 321.705 173.391746 
" clip-path="url(#p73474bba66)" style="fill: none; stroke-dasharray: 5.55,2.4; stroke-dashoffset: 0; stroke: #0d936e; stroke-width: 1.5"/>
   </g>
   <g id="line2d_12">
    <path d="M 47.72 178.139394 
L 51.935611 178.032767 
L 57.673685 176.116882 
L 63.817331 174.29791 
L 70.144919 172.656055 
L 73.741527 171.912754 
L 76.315278 171.611961 
L 80.24622 171.405624 
L 92.004073 171.100213 
L 121.445778 170.560166 
L 158.940679 170.082085 
L 250.397291 171.329724 
L 282.979605 171.628173 
L 290.256399 170.112153 
L 297.857447 168.75466 
L 302.037566 168.185357 
L 305.212327 168.007758 
L 312.130542 167.927331 
L 321.705 167.89232 
L 321.705 167.89232 
" clip-path="url(#p73474bba66)" style="fill: none; stroke: #0d936e; stroke-width: 1.5; stroke-linecap: square"/>
   </g>
   <g id="line2d_13">
    <path d="M 47.72 27.255469 
L 47.834419 44.735292 
L 49.203947 44.736435 
L 51.634071 44.776825 
L 51.662272 110.249393 
L 51.742899 110.203526 
L 52.850317 109.682998 
L 54.424293 109.208003 
L 56.669475 108.784038 
L 59.960496 108.40904 
L 64.841542 108.094406 
L 72.190571 107.854977 
L 84.493161 107.692629 
L 111.470986 107.608047 
L 157.31406 107.485554 
L 157.458337 46.616169 
L 157.720729 46.312298 
L 160.274918 43.664517 
L 161.71081 42.486547 
L 162.884306 41.802936 
L 164.056296 41.368538 
L 165.529754 41.078168 
L 167.602156 40.920763 
L 172.045387 40.860559 
L 219.409499 40.856376 
L 282.564286 40.856568 
L 282.564286 40.947654 
L 282.612227 109.381913 
L 282.673959 109.366847 
L 284.600738 108.925651 
L 287.432676 108.524224 
L 291.572586 108.182006 
L 297.801085 107.911154 
L 307.912548 107.721476 
L 321.705 107.632901 
L 321.705 107.632901 
" clip-path="url(#p73474bba66)" style="fill: none; stroke: #136ea6; stroke-width: 1.5; stroke-linecap: square"/>
   </g>
   <g id="line2d_14">
    <path d="M 47.72 178.139394 
L 51.712919 178.028374 
L 53.104453 176.258214 
L 54.541964 174.773055 
L 56.03307 173.530992 
L 57.747352 172.402323 
L 59.59931 171.464015 
L 61.630347 170.69023 
L 63.954485 170.046813 
L 66.742379 169.515835 
L 69.995927 169.117545 
L 74.418141 168.807309 
L 80.899016 168.599358 
L 92.294783 168.493387 
L 130.934244 168.469124 
L 157.475643 168.579528 
L 159.7642 170.061102 
L 162.288718 171.430562 
L 164.97323 172.633072 
L 167.943606 173.714109 
L 171.187383 174.65374 
L 174.886436 175.484307 
L 179.070563 176.187877 
L 184.021105 176.783659 
L 190.236605 177.28126 
L 197.842656 177.64905 
L 208.805268 177.920524 
L 225.313902 178.074431 
L 261.320339 178.134799 
L 282.640016 178.032041 
L 284.031714 176.26105 
L 285.54816 174.702547 
L 287.042622 173.471925 
L 288.700351 172.388933 
L 290.522443 171.466982 
L 292.523852 170.702159 
L 294.909632 170.040974 
L 297.516873 169.540071 
L 300.927417 169.117416 
L 305.340013 168.807731 
L 311.610075 168.603642 
L 321.705 168.499504 
L 321.705 168.499504 
" clip-path="url(#p73474bba66)" style="fill: none; stroke-dasharray: 5.55,2.4; stroke-dashoffset: 0; stroke: #136ea6; stroke-width: 1.5"/>
   </g>
   <g id="line2d_15">
    <path d="M 47.72 178.139394 
L 51.936149 178.032367 
L 57.747352 176.093511 
L 63.954485 174.259516 
L 70.361701 172.593156 
L 77.51027 170.971979 
L 84.493161 169.599402 
L 92.294783 168.278671 
L 100.991612 167.032415 
L 110.192297 165.93216 
L 120.685313 164.903601 
L 132.98403 163.945637 
L 147.332534 163.091328 
L 158.243429 162.653657 
L 224.436605 164.428976 
L 282.826336 165.791558 
L 293.284865 164.792851 
L 305.038535 163.895926 
L 318.447625 163.102097 
L 321.705 162.93965 
L 321.705 162.93965 
" clip-path="url(#p73474bba66)" style="fill: none; stroke: #136ea6; stroke-width: 1.5; stroke-linecap: square"/>
   </g>
   <g id="patch_7">
    <path d="M 47.72 139.454545 
L 47.72 23.4 
" style="fill: none; stroke: #000000; stroke-width: 0.8; stroke-linejoin: miter; stroke-linecap: square"/>
   </g>
   <g id="patch_8">
    <path d="M 321.705 139.454545 
L 321.705 23.4 
" style="fill: none; stroke: #000000; stroke-width: 0.8; stroke-linejoin: miter; stroke-linecap: square"/>
   </g>
   <g id="patch_9">
    <path d="M 47.72 139.454545 
L 321.705 139.454545 
" style="fill: none; stroke: #000000; stroke-width: 0.8; stroke-linejoin: miter; stroke-linecap: square"/>
   </g>
   <g id="patch_10">
    <path d="M 47.72 23.4 
L 321.705 23.4 
" style="fill: none; stroke: #000000; stroke-width: 0.8; stroke-linejoin: miter; stroke-linecap: square"/>
   </g>
   <g id="legend_1">
    <g id="patch_11">
     <path d="M 169.25555 106.112273 
L 271.40555 106.112273 
Q 273.00555 106.112273 273.00555 104.512273 
L 273.00555 58.342273 
Q 273.00555 56.742273 271.40555 56.742273 
L 169.25555 56.742273 
Q 167.65555 56.742273 167.65555 58.342273 
L 167.65555 104.512273 
Q 167.65555 106.112273 169.25555 106.112273 
z
" style="fill: #ffffff; stroke: #000000; stroke-linejoin: miter"/>
    </g>
    <g id="line2d_16">
     <path d="M 170.85555 63.221023 
L 178.85555 63.221023 
L 186.85555 63.221023 
" style="fill: none; stroke: #000000; stroke-opacity: 0; stroke-width: 1.5; stroke-linecap: square"/>
    </g>
    <g id="text_8">
     <!-- $\mathrm{PsbS^P}$ -->
     <g transform="translate(193.25555 66.021023) scale(0.08 -0.08)">
      <defs>
       <path id="DejaVuSans-50" d="M 1259 4147 
L 1259 2394 
L 2053 2394 
Q 2494 2394 2734 2622 
Q 2975 2850 2975 3272 
Q 2975 3691 2734 3919 
Q 2494 4147 2053 4147 
L 1259 4147 
z
M 628 4666 
L 2053 4666 
Q 2838 4666 3239 4311 
Q 3641 3956 3641 3272 
Q 3641 2581 3239 2228 
Q 2838 1875 2053 1875 
L 1259 1875 
L 1259 0 
L 628 0 
L 628 4666 
z
" transform="scale(0.015625)"/>
       <path id="DejaVuSans-73" d="M 2834 3397 
L 2834 2853 
Q 2591 2978 2328 3040 
Q 2066 3103 1784 3103 
Q 1356 3103 1142 2972 
Q 928 2841 928 2578 
Q 928 2378 1081 2264 
Q 1234 2150 1697 2047 
L 1894 2003 
Q 2506 1872 2764 1633 
Q 3022 1394 3022 966 
Q 3022 478 2636 193 
Q 2250 -91 1575 -91 
Q 1294 -91 989 -36 
Q 684 19 347 128 
L 347 722 
Q 666 556 975 473 
Q 1284 391 1588 391 
Q 1994 391 2212 530 
Q 2431 669 2431 922 
Q 2431 1156 2273 1281 
Q 2116 1406 1581 1522 
L 1381 1569 
Q 847 1681 609 1914 
Q 372 2147 372 2553 
Q 372 3047 722 3315 
Q 1072 3584 1716 3584 
Q 2034 3584 2315 3537 
Q 2597 3491 2834 3397 
z
" transform="scale(0.015625)"/>
       <path id="DejaVuSans-62" d="M 3116 1747 
Q 3116 2381 2855 2742 
Q 2594 3103 2138 3103 
Q 1681 3103 1420 2742 
Q 1159 2381 1159 1747 
Q 1159 1113 1420 752 
Q 1681 391 2138 391 
Q 2594 391 2855 752 
Q 3116 1113 3116 1747 
z
M 1159 2969 
Q 1341 3281 1617 3432 
Q 1894 3584 2278 3584 
Q 2916 3584 3314 3078 
Q 3713 2572 3713 1747 
Q 3713 922 3314 415 
Q 2916 -91 2278 -91 
Q 1894 -91 1617 61 
Q 1341 213 1159 525 
L 1159 0 
L 581 0 
L 581 4863 
L 1159 4863 
L 1159 2969 
z
" transform="scale(0.015625)"/>
       <path id="DejaVuSans-53" d="M 3425 4513 
L 3425 3897 
Q 3066 4069 2747 4153 
Q 2428 4238 2131 4238 
Q 1616 4238 1336 4038 
Q 1056 3838 1056 3469 
Q 1056 3159 1242 3001 
Q 1428 2844 1947 2747 
L 2328 2669 
Q 3034 2534 3370 2195 
Q 3706 1856 3706 1288 
Q 3706 609 3251 259 
Q 2797 -91 1919 -91 
Q 1588 -91 1214 -16 
Q 841 59 441 206 
L 441 856 
Q 825 641 1194 531 
Q 1563 422 1919 422 
Q 2459 422 2753 634 
Q 3047 847 3047 1241 
Q 3047 1584 2836 1778 
Q 2625 1972 2144 2069 
L 1759 2144 
Q 1053 2284 737 2584 
Q 422 2884 422 3419 
Q 422 4038 858 4394 
Q 1294 4750 2059 4750 
Q 2388 4750 2728 4690 
Q 3069 4631 3425 4513 
z
" transform="scale(0.015625)"/>
      </defs>
      <use xlink:href="#DejaVuSans-50" transform="translate(0 0.684375)"/>
      <use xlink:href="#DejaVuSans-73" transform="translate(60.302734 0.684375)"/>
      <use xlink:href="#DejaVuSans-62" transform="translate(112.402344 0.684375)"/>
      <use xlink:href="#DejaVuSans-53" transform="translate(175.878906 0.684375)"/>
      <use xlink:href="#DejaVuSans-50" transform="translate(240.3125 38.965625) scale(0.7)"/>
     </g>
    </g>
    <g id="line2d_17">
     <path d="M 170.85555 74.963523 
L 178.85555 74.963523 
L 186.85555 74.963523 
" style="fill: none; stroke-dasharray: 5.55,2.4; stroke-dashoffset: 0; stroke: #d99f21; stroke-width: 1.5"/>
    </g>
    <g id="text_9">
     <!-- 100 -->
     <g transform="translate(193.25555 77.763523) scale(0.08 -0.08)">
      <defs>
       <path id="DejaVuSans-31" d="M 794 531 
L 1825 531 
L 1825 4091 
L 703 3866 
L 703 4441 
L 1819 4666 
L 2450 4666 
L 2450 531 
L 3481 531 
L 3481 0 
L 794 0 
L 794 531 
z
" transform="scale(0.015625)"/>
       <path id="DejaVuSans-30" d="M 2034 4250 
Q 1547 4250 1301 3770 
Q 1056 3291 1056 2328 
Q 1056 1369 1301 889 
Q 1547 409 2034 409 
Q 2525 409 2770 889 
Q 3016 1369 3016 2328 
Q 3016 3291 2770 3770 
Q 2525 4250 2034 4250 
z
M 2034 4750 
Q 2819 4750 3233 4129 
Q 3647 3509 3647 2328 
Q 3647 1150 3233 529 
Q 2819 -91 2034 -91 
Q 1250 -91 836 529 
Q 422 1150 422 2328 
Q 422 3509 836 4129 
Q 1250 4750 2034 4750 
z
" transform="scale(0.015625)"/>
      </defs>
      <use xlink:href="#DejaVuSans-31"/>
      <use xlink:href="#DejaVuSans-30" transform="translate(63.623047 0)"/>
      <use xlink:href="#DejaVuSans-30" transform="translate(127.246094 0)"/>
     </g>
    </g>
    <g id="line2d_18">
     <path d="M 170.85555 86.706023 
L 178.85555 86.706023 
L 186.85555 86.706023 
" style="fill: none; stroke-dasharray: 5.55,2.4; stroke-dashoffset: 0; stroke: #0d936e; stroke-width: 1.5"/>
    </g>
    <g id="text_10">
     <!-- 300 -->
     <g transform="translate(193.25555 89.506023) scale(0.08 -0.08)">
      <use xlink:href="#DejaVuSans-33"/>
      <use xlink:href="#DejaVuSans-30" transform="translate(63.623047 0)"/>
      <use xlink:href="#DejaVuSans-30" transform="translate(127.246094 0)"/>
     </g>
    </g>
    <g id="line2d_19">
     <path d="M 170.85555 98.448523 
L 178.85555 98.448523 
L 186.85555 98.448523 
" style="fill: none; stroke-dasharray: 5.55,2.4; stroke-dashoffset: 0; stroke: #136ea6; stroke-width: 1.5"/>
    </g>
    <g id="text_11">
     <!-- 900 -->
     <g transform="translate(193.25555 101.248523) scale(0.08 -0.08)">
      <defs>
       <path id="DejaVuSans-39" d="M 703 97 
L 703 672 
Q 941 559 1184 500 
Q 1428 441 1663 441 
Q 2288 441 2617 861 
Q 2947 1281 2994 2138 
Q 2813 1869 2534 1725 
Q 2256 1581 1919 1581 
Q 1219 1581 811 2004 
Q 403 2428 403 3163 
Q 403 3881 828 4315 
Q 1253 4750 1959 4750 
Q 2769 4750 3195 4129 
Q 3622 3509 3622 2328 
Q 3622 1225 3098 567 
Q 2575 -91 1691 -91 
Q 1453 -91 1209 -44 
Q 966 3 703 97 
z
M 1959 2075 
Q 2384 2075 2632 2365 
Q 2881 2656 2881 3163 
Q 2881 3666 2632 3958 
Q 2384 4250 1959 4250 
Q 1534 4250 1286 3958 
Q 1038 3666 1038 3163 
Q 1038 2656 1286 2365 
Q 1534 2075 1959 2075 
z
" transform="scale(0.015625)"/>
      </defs>
      <use xlink:href="#DejaVuSans-39"/>
      <use xlink:href="#DejaVuSans-30" transform="translate(63.623047 0)"/>
      <use xlink:href="#DejaVuSans-30" transform="translate(127.246094 0)"/>
     </g>
    </g>
    <g id="line2d_20">
     <path d="M 232.13555 63.221023 
L 240.13555 63.221023 
L 248.13555 63.221023 
" style="fill: none; stroke: #000000; stroke-opacity: 0; stroke-width: 1.5; stroke-linecap: square"/>
    </g>
    <g id="text_12">
     <!-- $\mathrm{Zx}$ -->
     <g transform="translate(254.53555 66.021023) scale(0.08 -0.08)">
      <defs>
       <path id="DejaVuSans-5a" d="M 359 4666 
L 4025 4666 
L 4025 4184 
L 1075 531 
L 4097 531 
L 4097 0 
L 288 0 
L 288 481 
L 3238 4134 
L 359 4134 
L 359 4666 
z
" transform="scale(0.015625)"/>
       <path id="DejaVuSans-78" d="M 3513 3500 
L 2247 1797 
L 3578 0 
L 2900 0 
L 1881 1375 
L 863 0 
L 184 0 
L 1544 1831 
L 300 3500 
L 978 3500 
L 1906 2253 
L 2834 3500 
L 3513 3500 
z
" transform="scale(0.015625)"/>
      </defs>
      <use xlink:href="#DejaVuSans-5a" transform="translate(0 0.09375)"/>
      <use xlink:href="#DejaVuSans-78" transform="translate(68.505859 0.09375)"/>
     </g>
    </g>
    <g id="line2d_21">
     <path d="M 232.13555 74.963523 
L 240.13555 74.963523 
L 248.13555 74.963523 
" style="fill: none; stroke: #d99f21; stroke-width: 1.5; stroke-linecap: square"/>
    </g>
    <g id="text_13">
     <!-- 100 -->
     <g transform="translate(254.53555 77.763523) scale(0.08 -0.08)">
      <use xlink:href="#DejaVuSans-31"/>
      <use xlink:href="#DejaVuSans-30" transform="translate(63.623047 0)"/>
      <use xlink:href="#DejaVuSans-30" transform="translate(127.246094 0)"/>
     </g>
    </g>
    <g id="line2d_22">
     <path d="M 232.13555 86.706023 
L 240.13555 86.706023 
L 248.13555 86.706023 
" style="fill: none; stroke: #0d936e; stroke-width: 1.5; stroke-linecap: square"/>
    </g>
    <g id="text_14">
     <!-- 300 -->
     <g transform="translate(254.53555 89.506023) scale(0.08 -0.08)">
      <use xlink:href="#DejaVuSans-33"/>
      <use xlink:href="#DejaVuSans-30" transform="translate(63.623047 0)"/>
      <use xlink:href="#DejaVuSans-30" transform="translate(127.246094 0)"/>
     </g>
    </g>
    <g id="line2d_23">
     <path d="M 232.13555 98.448523 
L 240.13555 98.448523 
L 248.13555 98.448523 
" style="fill: none; stroke: #136ea6; stroke-width: 1.5; stroke-linecap: square"/>
    </g>
    <g id="text_15">
     <!-- 900 -->
     <g transform="translate(254.53555 101.248523) scale(0.08 -0.08)">
      <use xlink:href="#DejaVuSans-39"/>
      <use xlink:href="#DejaVuSans-30" transform="translate(63.623047 0)"/>
      <use xlink:href="#DejaVuSans-30" transform="translate(127.246094 0)"/>
     </g>
    </g>
   </g>
  </g>
  <g id="axes_2">
   <g id="patch_12">
    <path d="M 47.72 255.509091 
L 321.705 255.509091 
L 321.705 139.454545 
L 47.72 139.454545 
z
" style="fill: #ffffff"/>
   </g>
   <g id="matplotlib.axis_2">
    <g id="xtick_1">
     <g id="line2d_24">
      <defs>
       <path id="m538b1e7884" d="M 0 0 
L 0 3.5 
" style="stroke: #000000; stroke-width: 0.8"/>
      </defs>
      <g>
       <use xlink:href="#m538b1e7884" x="51.634071" y="255.509091" style="stroke: #000000; stroke-width: 0.8"/>
      </g>
     </g>
     <g id="text_16">
      <!-- 0.5 -->
      <g transform="translate(43.682509 270.107528) scale(0.1 -0.1)">
       <defs>
        <path id="DejaVuSans-2e" d="M 684 794 
L 1344 794 
L 1344 0 
L 684 0 
L 684 794 
z
" transform="scale(0.015625)"/>
       </defs>
       <use xlink:href="#DejaVuSans-30"/>
       <use xlink:href="#DejaVuSans-2e" transform="translate(63.623047 0)"/>
       <use xlink:href="#DejaVuSans-35" transform="translate(95.410156 0)"/>
      </g>
     </g>
    </g>
    <g id="xtick_2">
     <g id="line2d_25">
      <g>
       <use xlink:href="#m538b1e7884" x="157.314" y="255.509091" style="stroke: #000000; stroke-width: 0.8"/>
      </g>
     </g>
     <g id="text_17">
      <!-- 14.0 -->
      <g transform="translate(146.181187 270.107528) scale(0.1 -0.1)">
       <use xlink:href="#DejaVuSans-31"/>
       <use xlink:href="#DejaVuSans-34" transform="translate(63.623047 0)"/>
       <use xlink:href="#DejaVuSans-2e" transform="translate(127.246094 0)"/>
       <use xlink:href="#DejaVuSans-30" transform="translate(159.033203 0)"/>
      </g>
     </g>
    </g>
    <g id="xtick_3">
     <g id="line2d_26">
      <g>
       <use xlink:href="#m538b1e7884" x="282.564286" y="255.509091" style="stroke: #000000; stroke-width: 0.8"/>
      </g>
     </g>
     <g id="text_18">
      <!-- 30.0 -->
      <g transform="translate(271.431473 270.107528) scale(0.1 -0.1)">
       <use xlink:href="#DejaVuSans-33"/>
       <use xlink:href="#DejaVuSans-30" transform="translate(63.623047 0)"/>
       <use xlink:href="#DejaVuSans-2e" transform="translate(127.246094 0)"/>
       <use xlink:href="#DejaVuSans-30" transform="translate(159.033203 0)"/>
      </g>
     </g>
    </g>
    <g id="xtick_4">
     <g id="line2d_27">
      <g>
       <use xlink:href="#m538b1e7884" x="321.705" y="255.509091" style="stroke: #000000; stroke-width: 0.8"/>
      </g>
     </g>
     <g id="text_19">
      <!-- 35.0 -->
      <g transform="translate(310.572187 270.107528) scale(0.1 -0.1)">
       <use xlink:href="#DejaVuSans-33"/>
       <use xlink:href="#DejaVuSans-35" transform="translate(63.623047 0)"/>
       <use xlink:href="#DejaVuSans-2e" transform="translate(127.246094 0)"/>
       <use xlink:href="#DejaVuSans-30" transform="translate(159.033203 0)"/>
      </g>
     </g>
    </g>
    <g id="text_20">
     <!-- time [min] -->
     <g transform="translate(158.497656 283.785653) scale(0.1 -0.1)">
      <defs>
       <path id="DejaVuSans-74" d="M 1172 4494 
L 1172 3500 
L 2356 3500 
L 2356 3053 
L 1172 3053 
L 1172 1153 
Q 1172 725 1289 603 
Q 1406 481 1766 481 
L 2356 481 
L 2356 0 
L 1766 0 
Q 1100 0 847 248 
Q 594 497 594 1153 
L 594 3053 
L 172 3053 
L 172 3500 
L 594 3500 
L 594 4494 
L 1172 4494 
z
" transform="scale(0.015625)"/>
       <path id="DejaVuSans-69" d="M 603 3500 
L 1178 3500 
L 1178 0 
L 603 0 
L 603 3500 
z
M 603 4863 
L 1178 4863 
L 1178 4134 
L 603 4134 
L 603 4863 
z
" transform="scale(0.015625)"/>
       <path id="DejaVuSans-5b" d="M 550 4863 
L 1875 4863 
L 1875 4416 
L 1125 4416 
L 1125 -397 
L 1875 -397 
L 1875 -844 
L 550 -844 
L 550 4863 
z
" transform="scale(0.015625)"/>
       <path id="DejaVuSans-5d" d="M 1947 4863 
L 1947 -844 
L 622 -844 
L 622 -397 
L 1369 -397 
L 1369 4416 
L 622 4416 
L 622 4863 
L 1947 4863 
z
" transform="scale(0.015625)"/>
      </defs>
      <use xlink:href="#DejaVuSans-74"/>
      <use xlink:href="#DejaVuSans-69" transform="translate(39.208984 0)"/>
      <use xlink:href="#DejaVuSans-6d" transform="translate(66.992188 0)"/>
      <use xlink:href="#DejaVuSans-65" transform="translate(164.404297 0)"/>
      <use xlink:href="#DejaVuSans-20" transform="translate(225.927734 0)"/>
      <use xlink:href="#DejaVuSans-5b" transform="translate(257.714844 0)"/>
      <use xlink:href="#DejaVuSans-6d" transform="translate(296.728516 0)"/>
      <use xlink:href="#DejaVuSans-69" transform="translate(394.140625 0)"/>
      <use xlink:href="#DejaVuSans-6e" transform="translate(421.923828 0)"/>
      <use xlink:href="#DejaVuSans-5d" transform="translate(485.302734 0)"/>
     </g>
    </g>
   </g>
   <g id="matplotlib.axis_3">
    <g id="ytick_7">
     <g id="line2d_28">
      <g>
       <use xlink:href="#m0ef257c199" x="47.72" y="255.509091" style="stroke: #000000; stroke-width: 0.8"/>
      </g>
     </g>
     <g id="text_21">
      <!-- 0.0 -->
      <g transform="translate(24.816875 259.30831) scale(0.1 -0.1)">
       <use xlink:href="#DejaVuSans-30"/>
       <use xlink:href="#DejaVuSans-2e" transform="translate(63.623047 0)"/>
       <use xlink:href="#DejaVuSans-30" transform="translate(95.410156 0)"/>
      </g>
     </g>
    </g>
    <g id="ytick_8">
     <g id="line2d_29">
      <g>
       <use xlink:href="#m0ef257c199" x="47.72" y="229.719192" style="stroke: #000000; stroke-width: 0.8"/>
      </g>
     </g>
     <g id="text_22">
      <!-- 0.2 -->
      <g transform="translate(24.816875 233.518411) scale(0.1 -0.1)">
       <defs>
        <path id="DejaVuSans-32" d="M 1228 531 
L 3431 531 
L 3431 0 
L 469 0 
L 469 531 
Q 828 903 1448 1529 
Q 2069 2156 2228 2338 
Q 2531 2678 2651 2914 
Q 2772 3150 2772 3378 
Q 2772 3750 2511 3984 
Q 2250 4219 1831 4219 
Q 1534 4219 1204 4116 
Q 875 4013 500 3803 
L 500 4441 
Q 881 4594 1212 4672 
Q 1544 4750 1819 4750 
Q 2544 4750 2975 4387 
Q 3406 4025 3406 3419 
Q 3406 3131 3298 2873 
Q 3191 2616 2906 2266 
Q 2828 2175 2409 1742 
Q 1991 1309 1228 531 
z
" transform="scale(0.015625)"/>
       </defs>
       <use xlink:href="#DejaVuSans-30"/>
       <use xlink:href="#DejaVuSans-2e" transform="translate(63.623047 0)"/>
       <use xlink:href="#DejaVuSans-32" transform="translate(95.410156 0)"/>
      </g>
     </g>
    </g>
    <g id="ytick_9">
     <g id="line2d_30">
      <g>
       <use xlink:href="#m0ef257c199" x="47.72" y="191.034343" style="stroke: #000000; stroke-width: 0.8"/>
      </g>
     </g>
     <g id="text_23">
      <!-- 0.5 -->
      <g transform="translate(24.816875 194.833562) scale(0.1 -0.1)">
       <use xlink:href="#DejaVuSans-30"/>
       <use xlink:href="#DejaVuSans-2e" transform="translate(63.623047 0)"/>
       <use xlink:href="#DejaVuSans-35" transform="translate(95.410156 0)"/>
      </g>
     </g>
    </g>
    <g id="ytick_10">
     <g id="line2d_31">
      <g>
       <use xlink:href="#m0ef257c199" x="47.72" y="152.349495" style="stroke: #000000; stroke-width: 0.8"/>
      </g>
     </g>
     <g id="text_24">
      <!-- 0.8 -->
      <g transform="translate(24.816875 156.148714) scale(0.1 -0.1)">
       <use xlink:href="#DejaVuSans-30"/>
       <use xlink:href="#DejaVuSans-2e" transform="translate(63.623047 0)"/>
       <use xlink:href="#DejaVuSans-38" transform="translate(95.410156 0)"/>
      </g>
     </g>
    </g>
    <g id="text_25">
     <!-- Q components -->
     <g transform="translate(18.737188 233.898224) rotate(-90) scale(0.1 -0.1)">
      <defs>
       <path id="DejaVuSans-51" d="M 2522 4238 
Q 1834 4238 1429 3725 
Q 1025 3213 1025 2328 
Q 1025 1447 1429 934 
Q 1834 422 2522 422 
Q 3209 422 3611 934 
Q 4013 1447 4013 2328 
Q 4013 3213 3611 3725 
Q 3209 4238 2522 4238 
z
M 3406 84 
L 4238 -825 
L 3475 -825 
L 2784 -78 
Q 2681 -84 2626 -87 
Q 2572 -91 2522 -91 
Q 1538 -91 948 567 
Q 359 1225 359 2328 
Q 359 3434 948 4092 
Q 1538 4750 2522 4750 
Q 3503 4750 4090 4092 
Q 4678 3434 4678 2328 
Q 4678 1516 4351 937 
Q 4025 359 3406 84 
z
" transform="scale(0.015625)"/>
       <path id="DejaVuSans-63" d="M 3122 3366 
L 3122 2828 
Q 2878 2963 2633 3030 
Q 2388 3097 2138 3097 
Q 1578 3097 1268 2742 
Q 959 2388 959 1747 
Q 959 1106 1268 751 
Q 1578 397 2138 397 
Q 2388 397 2633 464 
Q 2878 531 3122 666 
L 3122 134 
Q 2881 22 2623 -34 
Q 2366 -91 2075 -91 
Q 1284 -91 818 406 
Q 353 903 353 1747 
Q 353 2603 823 3093 
Q 1294 3584 2113 3584 
Q 2378 3584 2631 3529 
Q 2884 3475 3122 3366 
z
" transform="scale(0.015625)"/>
       <path id="DejaVuSans-6f" d="M 1959 3097 
Q 1497 3097 1228 2736 
Q 959 2375 959 1747 
Q 959 1119 1226 758 
Q 1494 397 1959 397 
Q 2419 397 2687 759 
Q 2956 1122 2956 1747 
Q 2956 2369 2687 2733 
Q 2419 3097 1959 3097 
z
M 1959 3584 
Q 2709 3584 3137 3096 
Q 3566 2609 3566 1747 
Q 3566 888 3137 398 
Q 2709 -91 1959 -91 
Q 1206 -91 779 398 
Q 353 888 353 1747 
Q 353 2609 779 3096 
Q 1206 3584 1959 3584 
z
" transform="scale(0.015625)"/>
      </defs>
      <use xlink:href="#DejaVuSans-51"/>
      <use xlink:href="#DejaVuSans-20" transform="translate(78.710938 0)"/>
      <use xlink:href="#DejaVuSans-63" transform="translate(110.498047 0)"/>
      <use xlink:href="#DejaVuSans-6f" transform="translate(165.478516 0)"/>
      <use xlink:href="#DejaVuSans-6d" transform="translate(226.660156 0)"/>
      <use xlink:href="#DejaVuSans-70" transform="translate(324.072266 0)"/>
      <use xlink:href="#DejaVuSans-6f" transform="translate(387.548828 0)"/>
      <use xlink:href="#DejaVuSans-6e" transform="translate(448.730469 0)"/>
      <use xlink:href="#DejaVuSans-65" transform="translate(512.109375 0)"/>
      <use xlink:href="#DejaVuSans-6e" transform="translate(573.632812 0)"/>
      <use xlink:href="#DejaVuSans-74" transform="translate(637.011719 0)"/>
      <use xlink:href="#DejaVuSans-73" transform="translate(676.220703 0)"/>
     </g>
    </g>
   </g>
   <g id="line2d_32">
    <path d="M 0 0 
" clip-path="url(#pb947b76556)" style="fill: none; stroke: #d99f21; stroke-width: 1.5; stroke-linecap: square"/>
   </g>
   <g id="line2d_33">
    <path d="M 47.72 255.509091 
L 51.647021 255.400664 
L 52.895163 244.603339 
L 54.185307 235.34627 
L 55.464245 227.760113 
L 56.739416 221.53329 
L 57.774025 217.445865 
L 58.373357 215.752765 
L 58.684818 215.357942 
L 58.867981 215.388217 
L 59.087776 215.698421 
L 59.564182 216.939992 
L 61.450256 221.929386 
L 63.233993 226.055838 
L 65.081265 229.795715 
L 66.899893 233.013246 
L 68.838924 236.001306 
L 70.665549 238.45183 
L 72.70405 240.824585 
L 74.840974 242.957936 
L 77.018515 244.812854 
L 79.196057 246.393162 
L 81.717335 247.933007 
L 84.200236 249.194374 
L 87.096954 250.402325 
L 89.993673 251.378391 
L 93.501383 252.313035 
L 97.596324 253.13873 
L 102.322117 253.828412 
L 107.915472 254.38798 
L 114.907165 254.829931 
L 123.297197 255.132522 
L 135.882244 255.346465 
L 159.21881 255.464466 
L 206.301814 255.507663 
L 282.581239 255.406765 
L 283.82705 244.635149 
L 285.099767 235.513488 
L 286.29598 228.465219 
L 287.184107 224.386903 
L 287.627319 223.20153 
L 287.862439 223.049761 
L 288.068169 223.222075 
L 288.44669 223.979496 
L 290.479085 228.347737 
L 292.381568 231.891491 
L 294.166677 234.795152 
L 296.212 237.68576 
L 298.309219 240.231038 
L 300.406438 242.412454 
L 302.626601 244.382897 
L 304.762555 245.99779 
L 307.060135 247.473707 
L 309.644913 248.861576 
L 312.291836 250.034071 
L 315.087277 251.047858 
L 318.581577 252.054306 
L 321.705 252.759136 
L 321.705 252.759136 
" clip-path="url(#pb947b76556)" style="fill: none; stroke-dasharray: 5.55,2.4; stroke-dashoffset: 0; stroke: #d99f21; stroke-width: 1.5"/>
   </g>
   <g id="line2d_34">
    <path d="M 47.72 255.509091 
L 51.682131 255.398408 
L 55.160312 247.439218 
L 58.263403 240.845249 
L 58.794716 240.083418 
L 59.124408 239.985779 
L 61.139891 240.037432 
L 127.492213 241.815065 
L 198.839116 243.499346 
L 273.613117 245.042688 
L 282.619345 245.107508 
L 286.05251 237.940008 
L 287.58505 235.083217 
L 287.921219 234.845571 
L 288.486834 234.834488 
L 321.705 236.059921 
L 321.705 236.059921 
" clip-path="url(#pb947b76556)" style="fill: none; stroke: #d99f21; stroke-width: 1.5; stroke-linecap: square"/>
   </g>
   <g id="line2d_35">
    <path d="M 0 0 
" clip-path="url(#pb947b76556)" style="fill: none; stroke: #0d936e; stroke-width: 1.5; stroke-linecap: square"/>
   </g>
   <g id="line2d_36">
    <path d="M 47.72 255.509091 
L 51.646802 255.398222 
L 52.896098 244.590945 
L 54.161706 235.492425 
L 55.370292 228.251654 
L 56.697383 221.653557 
L 57.93846 216.548263 
L 59.262335 212.040952 
L 60.570492 208.37603 
L 61.870323 205.377711 
L 63.227841 202.815118 
L 64.480745 200.883519 
L 65.882707 199.143303 
L 67.284669 197.798071 
L 68.619788 196.868076 
L 69.714267 196.377528 
L 70.616257 196.185612 
L 71.535454 196.224388 
L 72.270812 196.452977 
L 73.006169 196.87571 
L 73.925366 197.68458 
L 75.028402 199.031242 
L 76.315278 200.98857 
L 79.096307 205.779852 
L 81.712707 210.085751 
L 83.941534 213.275087 
L 85.724595 215.477431 
L 87.507656 217.388748 
L 89.747066 219.424495 
L 91.911417 221.063073 
L 94.125695 222.461837 
L 96.241267 223.581137 
L 98.639906 224.639251 
L 101.83809 225.770464 
L 105.759628 226.823517 
L 109.681165 227.605225 
L 114.909882 228.350412 
L 120.138598 228.863039 
L 126.674494 229.29308 
L 135.824748 229.661774 
L 149.524852 229.961792 
L 157.380187 230.191746 
L 159.208064 233.377769 
L 161.12394 236.287719 
L 163.117202 238.909841 
L 165.149804 241.215694 
L 167.204135 243.220898 
L 169.389618 245.04625 
L 171.662499 246.65756 
L 173.811888 247.952368 
L 176.530088 249.322208 
L 179.248289 250.443729 
L 182.354804 251.478763 
L 185.523603 252.316962 
L 189.51772 253.129804 
L 193.689709 253.758721 
L 198.998783 254.324749 
L 205.834323 254.792864 
L 214.405576 255.127875 
L 226.787782 255.355785 
L 247.827589 255.476468 
L 282.573819 255.44296 
L 283.848414 244.430679 
L 285.142708 235.174836 
L 286.417711 227.629638 
L 287.719753 221.257773 
L 288.918564 216.382381 
L 290.256399 211.874156 
L 291.527083 208.352942 
L 292.726573 205.600438 
L 294.064079 203.089098 
L 295.39346 201.10331 
L 296.567077 199.74113 
L 297.600091 198.847355 
L 298.629514 198.267895 
L 299.401581 198.066465 
L 300.269838 198.114602 
L 300.976929 198.390002 
L 301.68402 198.884507 
L 302.567884 199.794141 
L 303.651799 201.275065 
L 305.026523 203.528424 
L 310.157653 212.278191 
L 312.130542 215.089829 
L 314.133041 217.542217 
L 315.679901 219.17988 
L 317.471131 220.828034 
L 319.7395 222.585705 
L 321.705 223.858103 
L 321.705 223.858103 
" clip-path="url(#pb947b76556)" style="fill: none; stroke-dasharray: 5.55,2.4; stroke-dashoffset: 0; stroke: #0d936e; stroke-width: 1.5"/>
   </g>
   <g id="line2d_37">
    <path d="M 47.72 255.509091 
L 51.681481 255.398942 
L 55.109698 247.550079 
L 58.600398 240.098451 
L 62.170284 233.003371 
L 65.649047 226.567777 
L 69.138275 220.578736 
L 71.535454 216.828929 
L 73.190009 214.618611 
L 74.476884 213.279646 
L 75.579921 212.429671 
L 76.866796 211.718873 
L 78.521351 211.089324 
L 80.821177 210.483901 
L 84.833064 209.710559 
L 92.474612 208.512455 
L 101.83809 207.239324 
L 114.909882 205.68773 
L 130.596032 204.049685 
L 149.524852 202.296591 
L 157.850949 201.685916 
L 192.855311 205.042426 
L 229.839673 208.361653 
L 267.904137 211.55 
L 282.628407 212.627405 
L 286.254272 207.368142 
L 289.959103 202.378548 
L 293.681935 197.729054 
L 297.26749 193.588456 
L 299.916292 190.839052 
L 301.507247 189.503351 
L 302.764845 188.745803 
L 304.044723 188.247006 
L 305.583934 187.898746 
L 307.902922 187.635541 
L 312.130542 187.428672 
L 321.705 187.195266 
L 321.705 187.195266 
" clip-path="url(#pb947b76556)" style="fill: none; stroke: #0d936e; stroke-width: 1.5; stroke-linecap: square"/>
   </g>
   <g id="line2d_38">
    <path d="M 0 0 
" clip-path="url(#pb947b76556)" style="fill: none; stroke: #136ea6; stroke-width: 1.5; stroke-linecap: square"/>
   </g>
   <g id="line2d_39">
    <path d="M 47.72 255.509091 
L 51.646078 255.398924 
L 52.901144 244.54503 
L 54.188412 235.311349 
L 55.408781 228.033621 
L 56.717387 221.553478 
L 57.985045 216.360585 
L 59.196764 212.225115 
L 60.460282 208.630461 
L 61.747353 205.595203 
L 63.138808 202.90008 
L 64.588097 200.622089 
L 65.982045 198.844937 
L 67.50438 197.278388 
L 68.898605 196.121159 
L 70.727475 194.92215 
L 72.556345 194.006064 
L 74.672966 193.212179 
L 77.103093 192.559045 
L 79.666211 192.081703 
L 83.192891 191.659902 
L 87.743837 191.357264 
L 94.245188 191.161861 
L 106.356231 191.060529 
L 153.481893 191.040109 
L 157.342851 191.150879 
L 159.126823 199.067916 
L 160.926485 206.068153 
L 162.681411 212.05738 
L 164.463822 217.398229 
L 166.323588 222.272329 
L 168.114332 226.375478 
L 169.992307 230.135473 
L 171.78711 233.274542 
L 173.59505 236.044089 
L 175.661267 238.789441 
L 177.495054 240.899859 
L 179.464441 242.870623 
L 181.508499 244.635441 
L 184.021105 246.470858 
L 186.092939 247.748819 
L 189.200689 249.335083 
L 192.308438 250.5971 
L 195.416188 251.601149 
L 198.756207 252.452647 
L 202.410411 253.173242 
L 206.978166 253.839997 
L 212.459471 254.393962 
L 219.409499 254.840377 
L 227.068497 255.128449 
L 239.06548 255.351635 
L 261.320339 255.478456 
L 282.574447 255.411553 
L 283.84204 244.45719 
L 285.138089 235.181768 
L 286.360028 227.91695 
L 287.627703 221.641123 
L 288.895378 216.433337 
L 290.209266 211.969011 
L 291.449654 208.477129 
L 292.714105 205.516492 
L 294.061823 202.912163 
L 295.45447 200.712187 
L 296.848897 198.917812 
L 298.369509 197.338282 
L 299.790569 196.149755 
L 301.528886 194.996409 
L 303.401135 194.043599 
L 305.340013 193.298005 
L 307.450357 192.695199 
L 310.223503 192.140556 
L 313.458839 191.723646 
L 318.000686 191.390392 
L 321.705 191.243156 
L 321.705 191.243156 
" clip-path="url(#pb947b76556)" style="fill: none; stroke-dasharray: 5.55,2.4; stroke-dashoffset: 0; stroke: #136ea6; stroke-width: 1.5"/>
   </g>
   <g id="line2d_40">
    <path d="M 47.72 255.509091 
L 51.679904 255.401271 
L 55.159066 247.439661 
L 58.670135 239.953609 
L 62.228488 232.890392 
L 65.855322 226.195958 
L 69.264379 220.336008 
L 72.922119 214.48225 
L 76.675097 208.909864 
L 80.077146 204.211479 
L 83.843026 199.374227 
L 87.743837 194.737538 
L 91.644648 190.452759 
L 95.545458 186.493182 
L 99.446269 182.834124 
L 103.547199 179.286401 
L 107.63492 176.031276 
L 111.470986 173.211975 
L 116.58574 169.777694 
L 120.685313 167.270469 
L 124.784885 164.962833 
L 128.884458 162.8389 
L 135.033817 159.965771 
L 141.183175 157.4288 
L 147.332534 155.188654 
L 153.481893 153.210606 
L 157.512012 152.131847 
L 182.764802 156.824192 
L 208.805268 161.43995 
L 234.614508 165.801667 
L 261.320339 170.102122 
L 282.627133 173.331177 
L 287.042622 170.335516 
L 291.572586 167.528075 
L 296.347916 164.834372 
L 301.211629 162.345701 
L 306.244446 160.015794 
L 311.610075 157.779731 
L 317.404769 155.622524 
L 321.705 154.177466 
L 321.705 154.177466 
" clip-path="url(#pb947b76556)" style="fill: none; stroke: #136ea6; stroke-width: 1.5; stroke-linecap: square"/>
   </g>
   <g id="patch_13">
    <path d="M 47.72 255.509091 
L 47.72 139.454545 
" style="fill: none; stroke: #000000; stroke-width: 0.8; stroke-linejoin: miter; stroke-linecap: square"/>
   </g>
   <g id="patch_14">
    <path d="M 321.705 255.509091 
L 321.705 139.454545 
" style="fill: none; stroke: #000000; stroke-width: 0.8; stroke-linejoin: miter; stroke-linecap: square"/>
   </g>
   <g id="patch_15">
    <path d="M 47.72 255.509091 
L 321.705 255.509091 
" style="fill: none; stroke: #000000; stroke-width: 0.8; stroke-linejoin: miter; stroke-linecap: square"/>
   </g>
   <g id="patch_16">
    <path d="M 47.72 139.454545 
L 321.705 139.454545 
" style="fill: none; stroke: #000000; stroke-width: 0.8; stroke-linejoin: miter; stroke-linecap: square"/>
   </g>
  </g>
  <g id="axes_3">
   <g id="patch_17">
    <path d="M 47.72 534.04 
L 321.705 534.04 
L 321.705 301.930909 
L 47.72 301.930909 
z
" style="fill: #ffffff"/>
   </g>
   <g id="matplotlib.axis_4">
    <g id="xtick_5">
     <g id="line2d_41">
      <g>
       <use xlink:href="#m538b1e7884" x="86.860714" y="534.04" style="stroke: #000000; stroke-width: 0.8"/>
      </g>
     </g>
     <g id="text_26">
      <!-- 0.1 -->
      <g transform="translate(78.909152 548.638438) scale(0.1 -0.1)">
       <use xlink:href="#DejaVuSans-30"/>
       <use xlink:href="#DejaVuSans-2e" transform="translate(63.623047 0)"/>
       <use xlink:href="#DejaVuSans-31" transform="translate(95.410156 0)"/>
      </g>
     </g>
    </g>
    <g id="xtick_6">
     <g id="line2d_42">
      <g>
       <use xlink:href="#m538b1e7884" x="165.142143" y="534.04" style="stroke: #000000; stroke-width: 0.8"/>
      </g>
     </g>
     <g id="text_27">
      <!-- 0.2 -->
      <g transform="translate(157.19058 548.638438) scale(0.1 -0.1)">
       <use xlink:href="#DejaVuSans-30"/>
       <use xlink:href="#DejaVuSans-2e" transform="translate(63.623047 0)"/>
       <use xlink:href="#DejaVuSans-32" transform="translate(95.410156 0)"/>
      </g>
     </g>
    </g>
    <g id="xtick_7">
     <g id="line2d_43">
      <g>
       <use xlink:href="#m538b1e7884" x="243.423571" y="534.04" style="stroke: #000000; stroke-width: 0.8"/>
      </g>
     </g>
     <g id="text_28">
      <!-- 0.3 -->
      <g transform="translate(235.472009 548.638438) scale(0.1 -0.1)">
       <use xlink:href="#DejaVuSans-30"/>
       <use xlink:href="#DejaVuSans-2e" transform="translate(63.623047 0)"/>
       <use xlink:href="#DejaVuSans-33" transform="translate(95.410156 0)"/>
      </g>
     </g>
    </g>
    <g id="xtick_8">
     <g id="line2d_44">
      <g>
       <use xlink:href="#m538b1e7884" x="321.705" y="534.04" style="stroke: #000000; stroke-width: 0.8"/>
      </g>
     </g>
     <g id="text_29">
      <!-- 0.4 -->
      <g transform="translate(313.753437 548.638438) scale(0.1 -0.1)">
       <use xlink:href="#DejaVuSans-30"/>
       <use xlink:href="#DejaVuSans-2e" transform="translate(63.623047 0)"/>
       <use xlink:href="#DejaVuSans-34" transform="translate(95.410156 0)"/>
      </g>
     </g>
    </g>
    <g id="text_30">
     <!-- quencher activity [Q] -->
     <g transform="translate(131.628125 562.316563) scale(0.1 -0.1)">
      <defs>
       <path id="DejaVuSans-71" d="M 947 1747 
Q 947 1113 1208 752 
Q 1469 391 1925 391 
Q 2381 391 2643 752 
Q 2906 1113 2906 1747 
Q 2906 2381 2643 2742 
Q 2381 3103 1925 3103 
Q 1469 3103 1208 2742 
Q 947 2381 947 1747 
z
M 2906 525 
Q 2725 213 2448 61 
Q 2172 -91 1784 -91 
Q 1150 -91 751 415 
Q 353 922 353 1747 
Q 353 2572 751 3078 
Q 1150 3584 1784 3584 
Q 2172 3584 2448 3432 
Q 2725 3281 2906 2969 
L 2906 3500 
L 3481 3500 
L 3481 -1331 
L 2906 -1331 
L 2906 525 
z
" transform="scale(0.015625)"/>
       <path id="DejaVuSans-68" d="M 3513 2113 
L 3513 0 
L 2938 0 
L 2938 2094 
Q 2938 2591 2744 2837 
Q 2550 3084 2163 3084 
Q 1697 3084 1428 2787 
Q 1159 2491 1159 1978 
L 1159 0 
L 581 0 
L 581 4863 
L 1159 4863 
L 1159 2956 
Q 1366 3272 1645 3428 
Q 1925 3584 2291 3584 
Q 2894 3584 3203 3211 
Q 3513 2838 3513 2113 
z
" transform="scale(0.015625)"/>
       <path id="DejaVuSans-72" d="M 2631 2963 
Q 2534 3019 2420 3045 
Q 2306 3072 2169 3072 
Q 1681 3072 1420 2755 
Q 1159 2438 1159 1844 
L 1159 0 
L 581 0 
L 581 3500 
L 1159 3500 
L 1159 2956 
Q 1341 3275 1631 3429 
Q 1922 3584 2338 3584 
Q 2397 3584 2469 3576 
Q 2541 3569 2628 3553 
L 2631 2963 
z
" transform="scale(0.015625)"/>
       <path id="DejaVuSans-61" d="M 2194 1759 
Q 1497 1759 1228 1600 
Q 959 1441 959 1056 
Q 959 750 1161 570 
Q 1363 391 1709 391 
Q 2188 391 2477 730 
Q 2766 1069 2766 1631 
L 2766 1759 
L 2194 1759 
z
M 3341 1997 
L 3341 0 
L 2766 0 
L 2766 531 
Q 2569 213 2275 61 
Q 1981 -91 1556 -91 
Q 1019 -91 701 211 
Q 384 513 384 1019 
Q 384 1609 779 1909 
Q 1175 2209 1959 2209 
L 2766 2209 
L 2766 2266 
Q 2766 2663 2505 2880 
Q 2244 3097 1772 3097 
Q 1472 3097 1187 3025 
Q 903 2953 641 2809 
L 641 3341 
Q 956 3463 1253 3523 
Q 1550 3584 1831 3584 
Q 2591 3584 2966 3190 
Q 3341 2797 3341 1997 
z
" transform="scale(0.015625)"/>
       <path id="DejaVuSans-76" d="M 191 3500 
L 800 3500 
L 1894 563 
L 2988 3500 
L 3597 3500 
L 2284 0 
L 1503 0 
L 191 3500 
z
" transform="scale(0.015625)"/>
       <path id="DejaVuSans-79" d="M 2059 -325 
Q 1816 -950 1584 -1140 
Q 1353 -1331 966 -1331 
L 506 -1331 
L 506 -850 
L 844 -850 
Q 1081 -850 1212 -737 
Q 1344 -625 1503 -206 
L 1606 56 
L 191 3500 
L 800 3500 
L 1894 763 
L 2988 3500 
L 3597 3500 
L 2059 -325 
z
" transform="scale(0.015625)"/>
      </defs>
      <use xlink:href="#DejaVuSans-71"/>
      <use xlink:href="#DejaVuSans-75" transform="translate(63.476562 0)"/>
      <use xlink:href="#DejaVuSans-65" transform="translate(126.855469 0)"/>
      <use xlink:href="#DejaVuSans-6e" transform="translate(188.378906 0)"/>
      <use xlink:href="#DejaVuSans-63" transform="translate(251.757812 0)"/>
      <use xlink:href="#DejaVuSans-68" transform="translate(306.738281 0)"/>
      <use xlink:href="#DejaVuSans-65" transform="translate(370.117188 0)"/>
      <use xlink:href="#DejaVuSans-72" transform="translate(431.640625 0)"/>
      <use xlink:href="#DejaVuSans-20" transform="translate(472.753906 0)"/>
      <use xlink:href="#DejaVuSans-61" transform="translate(504.541016 0)"/>
      <use xlink:href="#DejaVuSans-63" transform="translate(565.820312 0)"/>
      <use xlink:href="#DejaVuSans-74" transform="translate(620.800781 0)"/>
      <use xlink:href="#DejaVuSans-69" transform="translate(660.009766 0)"/>
      <use xlink:href="#DejaVuSans-76" transform="translate(687.792969 0)"/>
      <use xlink:href="#DejaVuSans-69" transform="translate(746.972656 0)"/>
      <use xlink:href="#DejaVuSans-74" transform="translate(774.755859 0)"/>
      <use xlink:href="#DejaVuSans-79" transform="translate(813.964844 0)"/>
      <use xlink:href="#DejaVuSans-20" transform="translate(873.144531 0)"/>
      <use xlink:href="#DejaVuSans-5b" transform="translate(904.931641 0)"/>
      <use xlink:href="#DejaVuSans-51" transform="translate(943.945312 0)"/>
      <use xlink:href="#DejaVuSans-5d" transform="translate(1022.65625 0)"/>
     </g>
    </g>
   </g>
   <g id="matplotlib.axis_5">
    <g id="ytick_11">
     <g id="line2d_45">
      <g>
       <use xlink:href="#m0ef257c199" x="47.72" y="487.618182" style="stroke: #000000; stroke-width: 0.8"/>
      </g>
     </g>
     <g id="text_31">
      <!-- 4 -->
      <g transform="translate(34.3575 491.417401) scale(0.1 -0.1)">
       <use xlink:href="#DejaVuSans-34"/>
      </g>
     </g>
    </g>
    <g id="ytick_12">
     <g id="line2d_46">
      <g>
       <use xlink:href="#m0ef257c199" x="47.72" y="441.196364" style="stroke: #000000; stroke-width: 0.8"/>
      </g>
     </g>
     <g id="text_32">
      <!-- 5 -->
      <g transform="translate(34.3575 444.995582) scale(0.1 -0.1)">
       <use xlink:href="#DejaVuSans-35"/>
      </g>
     </g>
    </g>
    <g id="ytick_13">
     <g id="line2d_47">
      <g>
       <use xlink:href="#m0ef257c199" x="47.72" y="394.774545" style="stroke: #000000; stroke-width: 0.8"/>
      </g>
     </g>
     <g id="text_33">
      <!-- 6 -->
      <g transform="translate(34.3575 398.573764) scale(0.1 -0.1)">
       <use xlink:href="#DejaVuSans-36"/>
      </g>
     </g>
    </g>
    <g id="ytick_14">
     <g id="line2d_48">
      <g>
       <use xlink:href="#m0ef257c199" x="47.72" y="348.352727" style="stroke: #000000; stroke-width: 0.8"/>
      </g>
     </g>
     <g id="text_34">
      <!-- 7 -->
      <g transform="translate(34.3575 352.151946) scale(0.1 -0.1)">
       <use xlink:href="#DejaVuSans-37"/>
      </g>
     </g>
    </g>
    <g id="ytick_15">
     <g id="line2d_49">
      <g>
       <use xlink:href="#m0ef257c199" x="47.72" y="301.930909" style="stroke: #000000; stroke-width: 0.8"/>
      </g>
     </g>
     <g id="text_35">
      <!-- 8 -->
      <g transform="translate(34.3575 305.730128) scale(0.1 -0.1)">
       <use xlink:href="#DejaVuSans-38"/>
      </g>
     </g>
    </g>
    <g id="text_36">
     <!-- lumen pH -->
     <g transform="translate(28.277812 442.18233) rotate(-90) scale(0.1 -0.1)">
      <use xlink:href="#DejaVuSans-6c"/>
      <use xlink:href="#DejaVuSans-75" transform="translate(27.783203 0)"/>
      <use xlink:href="#DejaVuSans-6d" transform="translate(91.162109 0)"/>
      <use xlink:href="#DejaVuSans-65" transform="translate(188.574219 0)"/>
      <use xlink:href="#DejaVuSans-6e" transform="translate(250.097656 0)"/>
      <use xlink:href="#DejaVuSans-20" transform="translate(313.476562 0)"/>
      <use xlink:href="#DejaVuSans-70" transform="translate(345.263672 0)"/>
      <use xlink:href="#DejaVuSans-48" transform="translate(408.740234 0)"/>
     </g>
    </g>
   </g>
   <g id="line2d_50">
    <path d="M 86.860714 311.184035 
L 86.970934 488.74101 
L 87.163353 499.876193 
L 87.384074 502.337154 
L 87.59221 502.715994 
L 87.875378 502.720917 
L 90.295226 502.147078 
L 110.561745 497.23942 
L 117.521252 495.301678 
L 124.563035 493.100984 
L 130.791663 490.903366 
L 136.358525 488.700142 
L 141.146008 486.593689 
L 146.144726 484.148639 
L 150.188345 481.95357 
L 154.117225 479.596981 
L 158.085684 476.942444 
L 161.232451 474.593339 
L 164.034211 472.272279 
L 166.422731 470.078271 
L 169.072359 467.343233 
L 171.607174 464.321472 
L 173.217439 462.110412 
L 175.022831 459.228004 
L 176.459981 456.450131 
L 177.718668 453.360762 
L 178.41859 451.094083 
L 179.044021 448.202899 
L 179.376759 445.477596 
L 179.497616 442.476857 
L 179.409514 439.127922 
L 179.020003 433.896229 
L 177.737521 418.616706 
L 176.786956 406.202177 
L 176.311709 403.236959 
L 175.765073 401.143023 
L 175.077837 399.406294 
L 174.246631 397.955732 
L 173.316972 396.779168 
L 172.1703 395.694435 
L 170.787829 394.706005 
L 169.099272 393.785904 
L 167.038427 392.928 
L 164.422762 392.099726 
L 161.320722 391.354789 
L 157.542823 390.666957 
L 152.2843 389.960129 
L 145.87669 389.341446 
L 137.895472 388.796501 
L 126.932041 388.292299 
L 112.953281 387.894288 
L 104.792402 387.652486 
L 104.682622 345.973464 
L 104.529117 343.858799 
L 104.33316 343.826056 
L 102.498394 343.826671 
L 102.498394 343.901552 
L 102.607547 474.740838 
L 102.825134 489.180304 
L 103.071786 493.006544 
L 103.330508 494.246163 
L 103.60472 494.665552 
L 103.940866 494.770609 
L 104.570438 494.673466 
L 108.105078 493.721092 
L 114.590823 491.806249 
L 120.501572 489.86152 
L 126.754259 487.562227 
L 132.524354 485.181685 
L 137.442521 482.920466 
L 142.318395 480.425399 
L 146.57881 477.9939 
L 150.66126 475.389823 
L 153.906389 473.079232 
L 157.052141 470.579322 
L 160.087791 467.849855 
L 162.704506 465.158463 
L 164.942277 462.506978 
L 166.638878 460.187523 
L 168.226144 457.65514 
L 169.44429 455.339142 
L 170.570288 452.696921 
L 171.436524 450.011602 
L 172.084796 447.052324 
L 172.452593 444.015905 
L 172.580207 440.627959 
L 172.483308 436.77294 
L 172.011643 429.630486 
L 171.095165 415.838405 
L 170.475465 406.682964 
L 170.066522 403.576408 
L 169.534841 401.184591 
L 168.898657 399.366705 
L 168.148674 397.902568 
L 167.285225 396.688804 
L 166.228525 395.586929 
L 165.01428 394.628556 
L 163.428568 393.676492 
L 161.584323 392.832856 
L 159.209622 392.005546 
L 156.205503 391.218823 
L 152.830241 390.552174 
L 148.347694 389.889715 
L 142.726411 389.284039 
L 135.283572 388.717097 
L 125.880275 388.231268 
L 113.952016 387.839601 
L 113.952016 387.839601 
" clip-path="url(#pabcbaf5920)" style="fill: none; stroke: #d99f21; stroke-width: 2; stroke-linecap: square"/>
   </g>
   <g id="line2d_51">
    <path d="M 86.860714 311.184035 
L 86.96976 495.393833 
L 87.156863 504.281295 
L 87.334003 505.313813 
L 87.529901 505.378253 
L 88.927284 505.154206 
L 97.375861 503.89841 
L 110.377487 502.21462 
L 143.239757 498.054223 
L 156.409958 496.109718 
L 167.004354 494.314943 
L 176.120581 492.549106 
L 184.186738 490.77134 
L 192.135881 488.776515 
L 198.481065 486.975729 
L 204.690894 484.998367 
L 210.353677 482.973421 
L 215.82381 480.773517 
L 220.227479 478.789696 
L 224.523314 476.627663 
L 227.92628 474.717459 
L 231.040542 472.776675 
L 233.879484 470.803404 
L 236.451879 468.795519 
L 239.233267 466.296448 
L 241.34241 464.06009 
L 243.010252 461.946418 
L 244.126958 460.23168 
L 244.902422 458.775604 
L 245.596906 457.06962 
L 246.03884 455.373882 
L 246.203793 453.705741 
L 246.070864 452.086216 
L 245.627482 450.538341 
L 244.873761 449.084501 
L 243.824698 447.743432 
L 242.509089 446.527889 
L 240.965612 445.443703 
L 239.237694 444.490262 
L 236.72172 443.412061 
L 234.048613 442.533614 
L 230.603338 441.67509 
L 226.290159 440.899203 
L 222.110058 440.368031 
L 216.081897 439.860265 
L 208.285933 439.482701 
L 194.363444 439.118869 
L 179.876644 438.672445 
L 176.452135 438.403048 
L 176.429451 438.307901 
L 176.318446 374.938441 
L 175.976387 355.64426 
L 175.801465 354.713589 
L 175.494217 354.486924 
L 165.575888 348.695636 
L 162.498854 347.178684 
L 159.762795 346.075616 
L 157.135903 345.266865 
L 154.542332 344.69988 
L 151.77029 344.305619 
L 148.088431 344.020407 
L 142.785442 343.867749 
L 131.343502 343.826305 
L 115.611964 343.826671 
L 115.611964 343.916616 
L 115.722935 481.789867 
L 115.925511 495.845162 
L 116.175982 499.717041 
L 116.416761 500.748698 
L 116.663214 501.010611 
L 117.043497 501.059145 
L 119.128571 500.883167 
L 137.321692 499.13117 
L 152.130608 497.483015 
L 164.528137 495.875543 
L 174.993245 494.299257 
L 184.460653 492.649567 
L 193.290496 490.870152 
L 200.642524 489.170007 
L 207.482653 487.371065 
L 213.910029 485.449698 
L 220.152786 483.321419 
L 225.367784 481.299094 
L 229.748096 479.387082 
L 233.394414 477.61199 
L 237.381691 475.431573 
L 240.945404 473.210254 
L 244.199457 470.879149 
L 246.743272 468.777824 
L 248.963955 466.655033 
L 250.48082 464.978768 
L 252.107323 462.859177 
L 252.984484 461.491534 
L 253.872029 459.815049 
L 254.548587 458.128276 
L 254.994636 456.440675 
L 255.189063 454.765306 
L 255.105018 453.069564 
L 254.715927 451.425882 
L 254.014834 449.856998 
L 253.007836 448.384401 
L 251.714953 447.02566 
L 250.201975 445.816446 
L 248.325425 444.645092 
L 246.121605 443.561746 
L 243.804867 442.65223 
L 240.745442 441.703236 
L 237.613445 440.94778 
L 233.349468 440.174232 
L 228.729063 439.578364 
L 223.286417 439.10614 
L 216.438995 438.749496 
L 206.482859 438.493616 
L 194.592077 438.314957 
L 194.592077 438.314957 
" clip-path="url(#pabcbaf5920)" style="fill: none; stroke: #0d936e; stroke-width: 2; stroke-linecap: square"/>
   </g>
   <g id="line2d_52">
    <path d="M 86.860714 311.184035 
L 86.971746 507.851257 
L 87.119782 510.281707 
L 87.278843 510.369397 
L 88.797234 510.22774 
L 97.600835 509.517789 
L 109.541909 508.787772 
L 126.222064 508.010652 
L 148.845448 507.19744 
L 180.983994 506.284226 
L 237.020484 504.958238 
L 281.742446 503.837868 
L 281.633998 381.763929 
L 281.207834 368.472049 
L 280.781956 359.965679 
L 280.508593 358.168648 
L 280.255823 357.743012 
L 279.85606 357.56568 
L 277.05078 356.920425 
L 260.514097 353.018731 
L 243.080717 348.94836 
L 235.270209 347.368203 
L 228.368746 346.214797 
L 221.809791 345.368828 
L 215.822796 344.806907 
L 208.374836 344.346072 
L 199.725185 344.051293 
L 188.092812 343.886813 
L 164.801736 343.827773 
L 119.812112 343.826671 
L 119.812112 343.885982 
L 119.921951 501.09013 
L 120.10016 507.638379 
L 120.283709 508.18527 
L 120.573906 508.275197 
L 121.696246 508.270224 
L 168.660032 506.994198 
L 280.168438 504.131864 
L 280.873755 504.089872 
L 280.873755 504.089872 
" clip-path="url(#pabcbaf5920)" style="fill: none; stroke: #136ea6; stroke-width: 2; stroke-linecap: square"/>
   </g>
   <g id="patch_18">
    <path d="M 47.72 534.04 
L 47.72 301.930909 
" style="fill: none; stroke: #000000; stroke-width: 0.8; stroke-linejoin: miter; stroke-linecap: square"/>
   </g>
   <g id="patch_19">
    <path d="M 321.705 534.04 
L 321.705 301.930909 
" style="fill: none; stroke: #000000; stroke-width: 0.8; stroke-linejoin: miter; stroke-linecap: square"/>
   </g>
   <g id="patch_20">
    <path d="M 47.72 534.04 
L 321.705 534.04 
" style="fill: none; stroke: #000000; stroke-width: 0.8; stroke-linejoin: miter; stroke-linecap: square"/>
   </g>
   <g id="patch_21">
    <path d="M 47.72 301.930909 
L 321.705 301.930909 
" style="fill: none; stroke: #000000; stroke-width: 0.8; stroke-linejoin: miter; stroke-linecap: square"/>
   </g>
   <g id="legend_2">
    <g id="patch_22">
     <path d="M 296.16125 441.502642 
L 347.24875 441.502642 
Q 349.24875 441.502642 349.24875 439.502642 
L 349.24875 396.468267 
Q 349.24875 394.468267 347.24875 394.468267 
L 296.16125 394.468267 
Q 294.16125 394.468267 294.16125 396.468267 
L 294.16125 439.502642 
Q 294.16125 441.502642 296.16125 441.502642 
z
" style="fill: #ffffff; stroke: #000000; stroke-linejoin: miter"/>
    </g>
    <g id="line2d_53">
     <path d="M 298.16125 402.566705 
L 308.16125 402.566705 
L 318.16125 402.566705 
" style="fill: none; stroke: #d99f21; stroke-width: 2; stroke-linecap: square"/>
    </g>
    <g id="text_37">
     <!-- 100 -->
     <g transform="translate(326.16125 406.066705) scale(0.1 -0.1)">
      <use xlink:href="#DejaVuSans-31"/>
      <use xlink:href="#DejaVuSans-30" transform="translate(63.623047 0)"/>
      <use xlink:href="#DejaVuSans-30" transform="translate(127.246094 0)"/>
     </g>
    </g>
    <g id="line2d_54">
     <path d="M 298.16125 417.24483 
L 308.16125 417.24483 
L 318.16125 417.24483 
" style="fill: none; stroke: #0d936e; stroke-width: 2; stroke-linecap: square"/>
    </g>
    <g id="text_38">
     <!-- 300 -->
     <g transform="translate(326.16125 420.74483) scale(0.1 -0.1)">
      <use xlink:href="#DejaVuSans-33"/>
      <use xlink:href="#DejaVuSans-30" transform="translate(63.623047 0)"/>
      <use xlink:href="#DejaVuSans-30" transform="translate(127.246094 0)"/>
     </g>
    </g>
    <g id="line2d_55">
     <path d="M 298.16125 431.922955 
L 308.16125 431.922955 
L 318.16125 431.922955 
" style="fill: none; stroke: #136ea6; stroke-width: 2; stroke-linecap: square"/>
    </g>
    <g id="text_39">
     <!-- 900 -->
     <g transform="translate(326.16125 435.422955) scale(0.1 -0.1)">
      <use xlink:href="#DejaVuSans-39"/>
      <use xlink:href="#DejaVuSans-30" transform="translate(63.623047 0)"/>
      <use xlink:href="#DejaVuSans-30" transform="translate(127.246094 0)"/>
     </g>
    </g>
   </g>
   <g id="line2d_56">
    <path d="M 86.876739 385.720226 
L 86.877191 385.899295 
L 86.877683 386.088541 
L 86.87822 386.288531 
L 86.878806 386.499933 
L 86.879447 386.72353 
L 86.880152 386.960246 
L 86.880929 387.211175 
L 86.881789 387.477621 
L 86.882745 387.761148 
L 86.883815 388.063648 
L 86.88502 388.38743 
L 86.886386 388.735344 
L 86.887951 389.110957 
L 86.889762 389.518803 
L 86.891885 389.964754 
L 86.894414 390.456589 
L 86.897485 391.004905 
L 86.901309 391.624642 
L 86.906224 392.337803 
L 86.912825 393.1787 
L 86.922259 394.205191 
L 86.937102 395.526535 
L 86.964719 397.38984 
L 87.039371 400.582075 
L 88.091004 411.115213 
L 101.987916 423.62766 
L 120.191297 428.342405 
L 139.020537 431.854423 
L 158.002166 434.972358 
L 176.980258 437.890644 
L 195.81043 440.714556 
L 214.244925 443.559818 
L 231.856982 446.56527 
L 247.937444 449.892124 
L 261.416719 453.68756 
L 271.173558 457.942974 
L 277.035997 462.344272 
L 280.112616 466.480356 
L 281.679296 470.15638 
L 282.508486 473.369039 
L 282.974243 476.179234 
L 283.251589 478.6521 
L 283.425414 480.841856 
L 283.539211 482.791101 
L 283.616518 484.533274 
L 283.670729 486.095179 
L 283.709805 487.498914 
L 283.738663 488.763201 
L 283.76044 489.904244 
L 283.777196 490.936261 
L 283.790316 491.871827 
L 283.800757 492.722082 
L 283.809187 493.496891 
L 283.816086 494.204964 
L 283.821802 494.853977 
L 283.826593 495.450667 
L 283.830649 496.000941 
L 283.834117 496.509969 
L 283.837108 496.982267 
L 283.839709 497.421787 
L 283.841987 497.831982 
L 283.843998 498.215875 
L 283.845782 498.576116 
L 283.847376 498.91503 
L 283.848808 499.23466 
L 283.8501 499.53681 
L 283.851271 499.823068 
L 283.852338 500.094844 
L 283.853314 500.353386 
L 283.85421 500.599805 
L 283.855035 500.835089 
L 283.855798 501.060125 
L 283.856505 501.275702 
L 283.857162 501.482534 
L 283.857775 501.681259 
L 283.858348 501.872454 
L 283.858884 502.05664 
L 283.859388 502.234291 
L 283.859862 502.405835 
L 283.860309 502.571662 
L 283.860731 502.732128 
L 283.86113 502.887558 
L 283.861509 503.038248 
L 283.861868 503.184473 
L 283.862209 503.326481 
L 283.862534 503.464503 
L 283.862844 503.598753 
L 283.86314 503.729425 
L 283.863422 503.856702 
L 283.863692 503.980751 
L 283.863951 504.101729 
L 283.864199 504.21978 
L 283.864437 504.33504 
L 283.864666 504.447633 
L 283.864886 504.557678 
L 283.865097 504.665283 
L 283.865301 504.770552 
L 283.865497 504.87358 
L 283.865686 504.974458 
" clip-path="url(#pabcbaf5920)" style="fill: none; stroke: #fb0102; stroke-width: 1.5; stroke-linecap: square"/>
   </g>
   <g id="PathCollection_1">
    <defs>
     <path id="m89a6450494" d="M 0 3 
C 0.795609 3 1.55874 2.683901 2.12132 2.12132 
C 2.683901 1.55874 3 0.795609 3 0 
C 3 -0.795609 2.683901 -1.55874 2.12132 -2.12132 
C 1.55874 -2.683901 0.795609 -3 0 -3 
C -0.795609 -3 -1.55874 -2.683901 -2.12132 -2.12132 
C -2.683901 -1.55874 -3 -0.795609 -3 0 
C -3 0.795609 -2.683901 1.55874 -2.12132 2.12132 
C -1.55874 2.683901 -0.795609 3 0 3 
z
" style="stroke: #fb0102"/>
    </defs>
    <g clip-path="url(#pabcbaf5920)">
     <use xlink:href="#m89a6450494" x="86.883815" y="388.063648" style="fill: #fb0102; stroke: #fb0102"/>
    </g>
   </g>
   <g id="PathCollection_2">
    <g clip-path="url(#pabcbaf5920)">
     <use xlink:href="#m89a6450494" x="176.980258" y="437.890644" style="fill: #fb0102; stroke: #fb0102"/>
    </g>
   </g>
   <g id="PathCollection_3">
    <g clip-path="url(#pabcbaf5920)">
     <use xlink:href="#m89a6450494" x="283.863692" y="503.980751" style="fill: #fb0102; stroke: #fb0102"/>
    </g>
   </g>
  </g>
 </g>
 <defs>
  <clipPath id="p73474bba66">
   <rect x="47.72" y="23.4" width="273.985" height="116.054545"/>
  </clipPath>
  <clipPath id="pb947b76556">
   <rect x="47.72" y="139.454545" width="273.985" height="116.054545"/>
  </clipPath>
  <clipPath id="pabcbaf5920">
   <rect x="47.72" y="301.930909" width="273.985" height="232.109091"/>
  </clipPath>
 </defs>
</svg>
