<?xml version="1.0" encoding="utf-8" standalone="no"?>
<!DOCTYPE svg PUBLIC "-//W3C//DTD SVG 1.1//EN"
  "http://www.w3.org/Graphics/SVG/1.1/DTD/svg11.dtd">
<svg xmlns:xlink="http://www.w3.org/1999/xlink" width="460.8pt" height="345.6pt" viewBox="0 0 460.8 345.6" xmlns="http://www.w3.org/2000/svg" version="1.1">
 <metadata>
  <rdf:RDF xmlns:dc="http://purl.org/dc/elements/1.1/" xmlns:cc="http://creativecommons.org/ns#" xmlns:rdf="http://www.w3.org/1999/02/22-rdf-syntax-ns#">
   <cc:Work>
    <dc:type rdf:resource="http://purl.org/dc/dcmitype/StillImage"/>
    <dc:date>2025-04-25T10:50:08.394325</dc:date>
    <dc:format>image/svg+xml</dc:format>
    <dc:creator>
     <cc:Agent>
      <dc:title>Matplotlib v3.10.0, https://matplotlib.org/</dc:title>
     </cc:Agent>
    </dc:creator>
   </cc:Work>
  </rdf:RDF>
 </metadata>
 <defs>
  <style type="text/css">*{stroke-linejoin: round; stroke-linecap: butt}</style>
 </defs>
 <g id="figure_1">
  <g id="patch_1">
   <path d="M 0 345.6 
L 460.8 345.6 
L 460.8 0 
L 0 0 
z
" style="fill: #ffffff"/>
  </g>
  <g id="axes_1">
   <g id="patch_2">
    <path d="M 47.72 136.24 
L 438.93 136.24 
L 438.93 25.92 
L 47.72 25.92 
z
" style="fill: #ffffff"/>
   </g>
   <g id="patch_3">
    <path d="M 47.72 25.92 
L 64.566364 25.92 
L 64.566364 12.13 
L 47.72 12.13 
z
" style="stroke: #000000; stroke-linejoin: miter"/>
   </g>
   <g id="patch_4">
    <path d="M 64.566364 25.92 
L 214.311818 25.92 
L 214.311818 12.13 
L 64.566364 12.13 
z
" style="fill: #ffffff; stroke: #000000; stroke-linejoin: miter"/>
   </g>
   <g id="patch_5">
    <path d="M 214.311818 25.92 
L 382.775455 25.92 
L 382.775455 12.13 
L 214.311818 12.13 
z
" style="stroke: #000000; stroke-linejoin: miter"/>
   </g>
   <g id="patch_6">
    <path d="M 382.775455 25.92 
L 438.93 25.92 
L 438.93 12.13 
L 382.775455 12.13 
z
" style="fill: #ffffff; stroke: #000000; stroke-linejoin: miter"/>
   </g>
   <g id="matplotlib.axis_1">
    <g id="xtick_1">
     <g id="line2d_1">
      <defs>
       <path id="medca0d57f5" d="M 0 0 
L 0 3.5 
" style="stroke: #000000; stroke-width: 0.8"/>
      </defs>
      <g>
       <use xlink:href="#medca0d57f5" x="64.566364" y="136.24" style="stroke: #000000; stroke-width: 0.8"/>
      </g>
     </g>
     <g id="text_1">
      <!-- 0.5 -->
      <g transform="translate(56.614801 150.838437) scale(0.1 -0.1)">
       <defs>
        <path id="DejaVuSans-30" d="M 2034 4250 
Q 1547 4250 1301 3770 
Q 1056 3291 1056 2328 
Q 1056 1369 1301 889 
Q 1547 409 2034 409 
Q 2525 409 2770 889 
Q 3016 1369 3016 2328 
Q 3016 3291 2770 3770 
Q 2525 4250 2034 4250 
z
M 2034 4750 
Q 2819 4750 3233 4129 
Q 3647 3509 3647 2328 
Q 3647 1150 3233 529 
Q 2819 -91 2034 -91 
Q 1250 -91 836 529 
Q 422 1150 422 2328 
Q 422 3509 836 4129 
Q 1250 4750 2034 4750 
z
" transform="scale(0.015625)"/>
        <path id="DejaVuSans-2e" d="M 684 794 
L 1344 794 
L 1344 0 
L 684 0 
L 684 794 
z
" transform="scale(0.015625)"/>
        <path id="DejaVuSans-35" d="M 691 4666 
L 3169 4666 
L 3169 4134 
L 1269 4134 
L 1269 2991 
Q 1406 3038 1543 3061 
Q 1681 3084 1819 3084 
Q 2600 3084 3056 2656 
Q 3513 2228 3513 1497 
Q 3513 744 3044 326 
Q 2575 -91 1722 -91 
Q 1428 -91 1123 -41 
Q 819 9 494 109 
L 494 744 
Q 775 591 1075 516 
Q 1375 441 1709 441 
Q 2250 441 2565 725 
Q 2881 1009 2881 1497 
Q 2881 1984 2565 2268 
Q 2250 2553 1709 2553 
Q 1456 2553 1204 2497 
Q 953 2441 691 2322 
L 691 4666 
z
" transform="scale(0.015625)"/>
       </defs>
       <use xlink:href="#DejaVuSans-30"/>
       <use xlink:href="#DejaVuSans-2e" transform="translate(63.623047 0)"/>
       <use xlink:href="#DejaVuSans-35" transform="translate(95.410156 0)"/>
      </g>
     </g>
    </g>
    <g id="xtick_2">
     <g id="line2d_2">
      <g>
       <use xlink:href="#medca0d57f5" x="214.311818" y="136.24" style="stroke: #000000; stroke-width: 0.8"/>
      </g>
     </g>
     <g id="text_2">
      <!-- 13.8 -->
      <g transform="translate(203.179006 150.838437) scale(0.1 -0.1)">
       <defs>
        <path id="DejaVuSans-31" d="M 794 531 
L 1825 531 
L 1825 4091 
L 703 3866 
L 703 4441 
L 1819 4666 
L 2450 4666 
L 2450 531 
L 3481 531 
L 3481 0 
L 794 0 
L 794 531 
z
" transform="scale(0.015625)"/>
        <path id="DejaVuSans-33" d="M 2597 2516 
Q 3050 2419 3304 2112 
Q 3559 1806 3559 1356 
Q 3559 666 3084 287 
Q 2609 -91 1734 -91 
Q 1441 -91 1130 -33 
Q 819 25 488 141 
L 488 750 
Q 750 597 1062 519 
Q 1375 441 1716 441 
Q 2309 441 2620 675 
Q 2931 909 2931 1356 
Q 2931 1769 2642 2001 
Q 2353 2234 1838 2234 
L 1294 2234 
L 1294 2753 
L 1863 2753 
Q 2328 2753 2575 2939 
Q 2822 3125 2822 3475 
Q 2822 3834 2567 4026 
Q 2313 4219 1838 4219 
Q 1578 4219 1281 4162 
Q 984 4106 628 3988 
L 628 4550 
Q 988 4650 1302 4700 
Q 1616 4750 1894 4750 
Q 2613 4750 3031 4423 
Q 3450 4097 3450 3541 
Q 3450 3153 3228 2886 
Q 3006 2619 2597 2516 
z
" transform="scale(0.015625)"/>
        <path id="DejaVuSans-38" d="M 2034 2216 
Q 1584 2216 1326 1975 
Q 1069 1734 1069 1313 
Q 1069 891 1326 650 
Q 1584 409 2034 409 
Q 2484 409 2743 651 
Q 3003 894 3003 1313 
Q 3003 1734 2745 1975 
Q 2488 2216 2034 2216 
z
M 1403 2484 
Q 997 2584 770 2862 
Q 544 3141 544 3541 
Q 544 4100 942 4425 
Q 1341 4750 2034 4750 
Q 2731 4750 3128 4425 
Q 3525 4100 3525 3541 
Q 3525 3141 3298 2862 
Q 3072 2584 2669 2484 
Q 3125 2378 3379 2068 
Q 3634 1759 3634 1313 
Q 3634 634 3220 271 
Q 2806 -91 2034 -91 
Q 1263 -91 848 271 
Q 434 634 434 1313 
Q 434 1759 690 2068 
Q 947 2378 1403 2484 
z
M 1172 3481 
Q 1172 3119 1398 2916 
Q 1625 2713 2034 2713 
Q 2441 2713 2670 2916 
Q 2900 3119 2900 3481 
Q 2900 3844 2670 4047 
Q 2441 4250 2034 4250 
Q 1625 4250 1398 4047 
Q 1172 3844 1172 3481 
z
" transform="scale(0.015625)"/>
       </defs>
       <use xlink:href="#DejaVuSans-31"/>
       <use xlink:href="#DejaVuSans-33" transform="translate(63.623047 0)"/>
       <use xlink:href="#DejaVuSans-2e" transform="translate(127.246094 0)"/>
       <use xlink:href="#DejaVuSans-38" transform="translate(159.033203 0)"/>
      </g>
     </g>
    </g>
    <g id="xtick_3">
     <g id="line2d_3">
      <g>
       <use xlink:href="#medca0d57f5" x="382.775455" y="136.24" style="stroke: #000000; stroke-width: 0.8"/>
      </g>
     </g>
     <g id="text_3">
      <!-- 28.8 -->
      <g transform="translate(371.642642 150.838437) scale(0.1 -0.1)">
       <defs>
        <path id="DejaVuSans-32" d="M 1228 531 
L 3431 531 
L 3431 0 
L 469 0 
L 469 531 
Q 828 903 1448 1529 
Q 2069 2156 2228 2338 
Q 2531 2678 2651 2914 
Q 2772 3150 2772 3378 
Q 2772 3750 2511 3984 
Q 2250 4219 1831 4219 
Q 1534 4219 1204 4116 
Q 875 4013 500 3803 
L 500 4441 
Q 881 4594 1212 4672 
Q 1544 4750 1819 4750 
Q 2544 4750 2975 4387 
Q 3406 4025 3406 3419 
Q 3406 3131 3298 2873 
Q 3191 2616 2906 2266 
Q 2828 2175 2409 1742 
Q 1991 1309 1228 531 
z
" transform="scale(0.015625)"/>
       </defs>
       <use xlink:href="#DejaVuSans-32"/>
       <use xlink:href="#DejaVuSans-38" transform="translate(63.623047 0)"/>
       <use xlink:href="#DejaVuSans-2e" transform="translate(127.246094 0)"/>
       <use xlink:href="#DejaVuSans-38" transform="translate(159.033203 0)"/>
      </g>
     </g>
    </g>
    <g id="xtick_4">
     <g id="line2d_4">
      <g>
       <use xlink:href="#medca0d57f5" x="438.93" y="136.24" style="stroke: #000000; stroke-width: 0.8"/>
      </g>
     </g>
     <g id="text_4">
      <!-- 33.8 -->
      <g transform="translate(427.797187 150.838437) scale(0.1 -0.1)">
       <use xlink:href="#DejaVuSans-33"/>
       <use xlink:href="#DejaVuSans-33" transform="translate(63.623047 0)"/>
       <use xlink:href="#DejaVuSans-2e" transform="translate(127.246094 0)"/>
       <use xlink:href="#DejaVuSans-38" transform="translate(159.033203 0)"/>
      </g>
     </g>
    </g>
    <g id="text_5">
     <!-- time [min] -->
     <g transform="translate(217.110156 164.516562) scale(0.1 -0.1)">
      <defs>
       <path id="DejaVuSans-74" d="M 1172 4494 
L 1172 3500 
L 2356 3500 
L 2356 3053 
L 1172 3053 
L 1172 1153 
Q 1172 725 1289 603 
Q 1406 481 1766 481 
L 2356 481 
L 2356 0 
L 1766 0 
Q 1100 0 847 248 
Q 594 497 594 1153 
L 594 3053 
L 172 3053 
L 172 3500 
L 594 3500 
L 594 4494 
L 1172 4494 
z
" transform="scale(0.015625)"/>
       <path id="DejaVuSans-69" d="M 603 3500 
L 1178 3500 
L 1178 0 
L 603 0 
L 603 3500 
z
M 603 4863 
L 1178 4863 
L 1178 4134 
L 603 4134 
L 603 4863 
z
" transform="scale(0.015625)"/>
       <path id="DejaVuSans-6d" d="M 3328 2828 
Q 3544 3216 3844 3400 
Q 4144 3584 4550 3584 
Q 5097 3584 5394 3201 
Q 5691 2819 5691 2113 
L 5691 0 
L 5113 0 
L 5113 2094 
Q 5113 2597 4934 2840 
Q 4756 3084 4391 3084 
Q 3944 3084 3684 2787 
Q 3425 2491 3425 1978 
L 3425 0 
L 2847 0 
L 2847 2094 
Q 2847 2600 2669 2842 
Q 2491 3084 2119 3084 
Q 1678 3084 1418 2786 
Q 1159 2488 1159 1978 
L 1159 0 
L 581 0 
L 581 3500 
L 1159 3500 
L 1159 2956 
Q 1356 3278 1631 3431 
Q 1906 3584 2284 3584 
Q 2666 3584 2933 3390 
Q 3200 3197 3328 2828 
z
" transform="scale(0.015625)"/>
       <path id="DejaVuSans-65" d="M 3597 1894 
L 3597 1613 
L 953 1613 
Q 991 1019 1311 708 
Q 1631 397 2203 397 
Q 2534 397 2845 478 
Q 3156 559 3463 722 
L 3463 178 
Q 3153 47 2828 -22 
Q 2503 -91 2169 -91 
Q 1331 -91 842 396 
Q 353 884 353 1716 
Q 353 2575 817 3079 
Q 1281 3584 2069 3584 
Q 2775 3584 3186 3129 
Q 3597 2675 3597 1894 
z
M 3022 2063 
Q 3016 2534 2758 2815 
Q 2500 3097 2075 3097 
Q 1594 3097 1305 2825 
Q 1016 2553 972 2059 
L 3022 2063 
z
" transform="scale(0.015625)"/>
       <path id="DejaVuSans-20" transform="scale(0.015625)"/>
       <path id="DejaVuSans-5b" d="M 550 4863 
L 1875 4863 
L 1875 4416 
L 1125 4416 
L 1125 -397 
L 1875 -397 
L 1875 -844 
L 550 -844 
L 550 4863 
z
" transform="scale(0.015625)"/>
       <path id="DejaVuSans-6e" d="M 3513 2113 
L 3513 0 
L 2938 0 
L 2938 2094 
Q 2938 2591 2744 2837 
Q 2550 3084 2163 3084 
Q 1697 3084 1428 2787 
Q 1159 2491 1159 1978 
L 1159 0 
L 581 0 
L 581 3500 
L 1159 3500 
L 1159 2956 
Q 1366 3272 1645 3428 
Q 1925 3584 2291 3584 
Q 2894 3584 3203 3211 
Q 3513 2838 3513 2113 
z
" transform="scale(0.015625)"/>
       <path id="DejaVuSans-5d" d="M 1947 4863 
L 1947 -844 
L 622 -844 
L 622 -397 
L 1369 -397 
L 1369 4416 
L 622 4416 
L 622 4863 
L 1947 4863 
z
" transform="scale(0.015625)"/>
      </defs>
      <use xlink:href="#DejaVuSans-74"/>
      <use xlink:href="#DejaVuSans-69" transform="translate(39.208984 0)"/>
      <use xlink:href="#DejaVuSans-6d" transform="translate(66.992188 0)"/>
      <use xlink:href="#DejaVuSans-65" transform="translate(164.404297 0)"/>
      <use xlink:href="#DejaVuSans-20" transform="translate(225.927734 0)"/>
      <use xlink:href="#DejaVuSans-5b" transform="translate(257.714844 0)"/>
      <use xlink:href="#DejaVuSans-6d" transform="translate(296.728516 0)"/>
      <use xlink:href="#DejaVuSans-69" transform="translate(394.140625 0)"/>
      <use xlink:href="#DejaVuSans-6e" transform="translate(421.923828 0)"/>
      <use xlink:href="#DejaVuSans-5d" transform="translate(485.302734 0)"/>
     </g>
    </g>
   </g>
   <g id="matplotlib.axis_2">
    <g id="ytick_1">
     <g id="line2d_5">
      <defs>
       <path id="m94ff908c0b" d="M 0 0 
L -3.5 0 
" style="stroke: #000000; stroke-width: 0.8"/>
      </defs>
      <g>
       <use xlink:href="#m94ff908c0b" x="47.72" y="136.24" style="stroke: #000000; stroke-width: 0.8"/>
      </g>
     </g>
     <g id="text_6">
      <!-- 0.00 -->
      <g transform="translate(18.454375 140.039219) scale(0.1 -0.1)">
       <use xlink:href="#DejaVuSans-30"/>
       <use xlink:href="#DejaVuSans-2e" transform="translate(63.623047 0)"/>
       <use xlink:href="#DejaVuSans-30" transform="translate(95.410156 0)"/>
       <use xlink:href="#DejaVuSans-30" transform="translate(159.033203 0)"/>
      </g>
     </g>
    </g>
    <g id="ytick_2">
     <g id="line2d_6">
      <g>
       <use xlink:href="#m94ff908c0b" x="47.72" y="111.643959" style="stroke: #000000; stroke-width: 0.8"/>
      </g>
     </g>
     <g id="text_7">
      <!-- 0.25 -->
      <g transform="translate(18.454375 115.443178) scale(0.1 -0.1)">
       <use xlink:href="#DejaVuSans-30"/>
       <use xlink:href="#DejaVuSans-2e" transform="translate(63.623047 0)"/>
       <use xlink:href="#DejaVuSans-32" transform="translate(95.410156 0)"/>
       <use xlink:href="#DejaVuSans-35" transform="translate(159.033203 0)"/>
      </g>
     </g>
    </g>
    <g id="ytick_3">
     <g id="line2d_7">
      <g>
       <use xlink:href="#m94ff908c0b" x="47.72" y="87.047919" style="stroke: #000000; stroke-width: 0.8"/>
      </g>
     </g>
     <g id="text_8">
      <!-- 0.50 -->
      <g transform="translate(18.454375 90.847138) scale(0.1 -0.1)">
       <use xlink:href="#DejaVuSans-30"/>
       <use xlink:href="#DejaVuSans-2e" transform="translate(63.623047 0)"/>
       <use xlink:href="#DejaVuSans-35" transform="translate(95.410156 0)"/>
       <use xlink:href="#DejaVuSans-30" transform="translate(159.033203 0)"/>
      </g>
     </g>
    </g>
    <g id="ytick_4">
     <g id="line2d_8">
      <g>
       <use xlink:href="#m94ff908c0b" x="47.72" y="62.451878" style="stroke: #000000; stroke-width: 0.8"/>
      </g>
     </g>
     <g id="text_9">
      <!-- 0.75 -->
      <g transform="translate(18.454375 66.251097) scale(0.1 -0.1)">
       <defs>
        <path id="DejaVuSans-37" d="M 525 4666 
L 3525 4666 
L 3525 4397 
L 1831 0 
L 1172 0 
L 2766 4134 
L 525 4134 
L 525 4666 
z
" transform="scale(0.015625)"/>
       </defs>
       <use xlink:href="#DejaVuSans-30"/>
       <use xlink:href="#DejaVuSans-2e" transform="translate(63.623047 0)"/>
       <use xlink:href="#DejaVuSans-37" transform="translate(95.410156 0)"/>
       <use xlink:href="#DejaVuSans-35" transform="translate(159.033203 0)"/>
      </g>
     </g>
    </g>
    <g id="ytick_5">
     <g id="line2d_9">
      <g>
       <use xlink:href="#m94ff908c0b" x="47.72" y="37.855838" style="stroke: #000000; stroke-width: 0.8"/>
      </g>
     </g>
     <g id="text_10">
      <!-- 1.00 -->
      <g transform="translate(18.454375 41.655057) scale(0.1 -0.1)">
       <use xlink:href="#DejaVuSans-31"/>
       <use xlink:href="#DejaVuSans-2e" transform="translate(63.623047 0)"/>
       <use xlink:href="#DejaVuSans-30" transform="translate(95.410156 0)"/>
       <use xlink:href="#DejaVuSans-30" transform="translate(159.033203 0)"/>
      </g>
     </g>
    </g>
    <g id="text_11">
     <!-- Fluorescence (a.u.) -->
     <g transform="translate(12.374688 128.919062) rotate(-90) scale(0.1 -0.1)">
      <defs>
       <path id="DejaVuSans-46" d="M 628 4666 
L 3309 4666 
L 3309 4134 
L 1259 4134 
L 1259 2759 
L 3109 2759 
L 3109 2228 
L 1259 2228 
L 1259 0 
L 628 0 
L 628 4666 
z
" transform="scale(0.015625)"/>
       <path id="DejaVuSans-6c" d="M 603 4863 
L 1178 4863 
L 1178 0 
L 603 0 
L 603 4863 
z
" transform="scale(0.015625)"/>
       <path id="DejaVuSans-75" d="M 544 1381 
L 544 3500 
L 1119 3500 
L 1119 1403 
Q 1119 906 1312 657 
Q 1506 409 1894 409 
Q 2359 409 2629 706 
Q 2900 1003 2900 1516 
L 2900 3500 
L 3475 3500 
L 3475 0 
L 2900 0 
L 2900 538 
Q 2691 219 2414 64 
Q 2138 -91 1772 -91 
Q 1169 -91 856 284 
Q 544 659 544 1381 
z
M 1991 3584 
L 1991 3584 
z
" transform="scale(0.015625)"/>
       <path id="DejaVuSans-6f" d="M 1959 3097 
Q 1497 3097 1228 2736 
Q 959 2375 959 1747 
Q 959 1119 1226 758 
Q 1494 397 1959 397 
Q 2419 397 2687 759 
Q 2956 1122 2956 1747 
Q 2956 2369 2687 2733 
Q 2419 3097 1959 3097 
z
M 1959 3584 
Q 2709 3584 3137 3096 
Q 3566 2609 3566 1747 
Q 3566 888 3137 398 
Q 2709 -91 1959 -91 
Q 1206 -91 779 398 
Q 353 888 353 1747 
Q 353 2609 779 3096 
Q 1206 3584 1959 3584 
z
" transform="scale(0.015625)"/>
       <path id="DejaVuSans-72" d="M 2631 2963 
Q 2534 3019 2420 3045 
Q 2306 3072 2169 3072 
Q 1681 3072 1420 2755 
Q 1159 2438 1159 1844 
L 1159 0 
L 581 0 
L 581 3500 
L 1159 3500 
L 1159 2956 
Q 1341 3275 1631 3429 
Q 1922 3584 2338 3584 
Q 2397 3584 2469 3576 
Q 2541 3569 2628 3553 
L 2631 2963 
z
" transform="scale(0.015625)"/>
       <path id="DejaVuSans-73" d="M 2834 3397 
L 2834 2853 
Q 2591 2978 2328 3040 
Q 2066 3103 1784 3103 
Q 1356 3103 1142 2972 
Q 928 2841 928 2578 
Q 928 2378 1081 2264 
Q 1234 2150 1697 2047 
L 1894 2003 
Q 2506 1872 2764 1633 
Q 3022 1394 3022 966 
Q 3022 478 2636 193 
Q 2250 -91 1575 -91 
Q 1294 -91 989 -36 
Q 684 19 347 128 
L 347 722 
Q 666 556 975 473 
Q 1284 391 1588 391 
Q 1994 391 2212 530 
Q 2431 669 2431 922 
Q 2431 1156 2273 1281 
Q 2116 1406 1581 1522 
L 1381 1569 
Q 847 1681 609 1914 
Q 372 2147 372 2553 
Q 372 3047 722 3315 
Q 1072 3584 1716 3584 
Q 2034 3584 2315 3537 
Q 2597 3491 2834 3397 
z
" transform="scale(0.015625)"/>
       <path id="DejaVuSans-63" d="M 3122 3366 
L 3122 2828 
Q 2878 2963 2633 3030 
Q 2388 3097 2138 3097 
Q 1578 3097 1268 2742 
Q 959 2388 959 1747 
Q 959 1106 1268 751 
Q 1578 397 2138 397 
Q 2388 397 2633 464 
Q 2878 531 3122 666 
L 3122 134 
Q 2881 22 2623 -34 
Q 2366 -91 2075 -91 
Q 1284 -91 818 406 
Q 353 903 353 1747 
Q 353 2603 823 3093 
Q 1294 3584 2113 3584 
Q 2378 3584 2631 3529 
Q 2884 3475 3122 3366 
z
" transform="scale(0.015625)"/>
       <path id="DejaVuSans-28" d="M 1984 4856 
Q 1566 4138 1362 3434 
Q 1159 2731 1159 2009 
Q 1159 1288 1364 580 
Q 1569 -128 1984 -844 
L 1484 -844 
Q 1016 -109 783 600 
Q 550 1309 550 2009 
Q 550 2706 781 3412 
Q 1013 4119 1484 4856 
L 1984 4856 
z
" transform="scale(0.015625)"/>
       <path id="DejaVuSans-61" d="M 2194 1759 
Q 1497 1759 1228 1600 
Q 959 1441 959 1056 
Q 959 750 1161 570 
Q 1363 391 1709 391 
Q 2188 391 2477 730 
Q 2766 1069 2766 1631 
L 2766 1759 
L 2194 1759 
z
M 3341 1997 
L 3341 0 
L 2766 0 
L 2766 531 
Q 2569 213 2275 61 
Q 1981 -91 1556 -91 
Q 1019 -91 701 211 
Q 384 513 384 1019 
Q 384 1609 779 1909 
Q 1175 2209 1959 2209 
L 2766 2209 
L 2766 2266 
Q 2766 2663 2505 2880 
Q 2244 3097 1772 3097 
Q 1472 3097 1187 3025 
Q 903 2953 641 2809 
L 641 3341 
Q 956 3463 1253 3523 
Q 1550 3584 1831 3584 
Q 2591 3584 2966 3190 
Q 3341 2797 3341 1997 
z
" transform="scale(0.015625)"/>
       <path id="DejaVuSans-29" d="M 513 4856 
L 1013 4856 
Q 1481 4119 1714 3412 
Q 1947 2706 1947 2009 
Q 1947 1309 1714 600 
Q 1481 -109 1013 -844 
L 513 -844 
Q 928 -128 1133 580 
Q 1338 1288 1338 2009 
Q 1338 2731 1133 3434 
Q 928 4138 513 4856 
z
" transform="scale(0.015625)"/>
      </defs>
      <use xlink:href="#DejaVuSans-46"/>
      <use xlink:href="#DejaVuSans-6c" transform="translate(57.519531 0)"/>
      <use xlink:href="#DejaVuSans-75" transform="translate(85.302734 0)"/>
      <use xlink:href="#DejaVuSans-6f" transform="translate(148.681641 0)"/>
      <use xlink:href="#DejaVuSans-72" transform="translate(209.863281 0)"/>
      <use xlink:href="#DejaVuSans-65" transform="translate(248.726562 0)"/>
      <use xlink:href="#DejaVuSans-73" transform="translate(310.25 0)"/>
      <use xlink:href="#DejaVuSans-63" transform="translate(362.349609 0)"/>
      <use xlink:href="#DejaVuSans-65" transform="translate(417.330078 0)"/>
      <use xlink:href="#DejaVuSans-6e" transform="translate(478.853516 0)"/>
      <use xlink:href="#DejaVuSans-63" transform="translate(542.232422 0)"/>
      <use xlink:href="#DejaVuSans-65" transform="translate(597.212891 0)"/>
      <use xlink:href="#DejaVuSans-20" transform="translate(658.736328 0)"/>
      <use xlink:href="#DejaVuSans-28" transform="translate(690.523438 0)"/>
      <use xlink:href="#DejaVuSans-61" transform="translate(729.537109 0)"/>
      <use xlink:href="#DejaVuSans-2e" transform="translate(790.816406 0)"/>
      <use xlink:href="#DejaVuSans-75" transform="translate(822.603516 0)"/>
      <use xlink:href="#DejaVuSans-2e" transform="translate(885.982422 0)"/>
      <use xlink:href="#DejaVuSans-29" transform="translate(917.769531 0)"/>
     </g>
    </g>
   </g>
   <g id="line2d_10">
    <path d="M 58.950909 79.597485 
L 58.974719 37.855838 
L 59.064865 38.403077 
L 59.100655 38.633695 
L 59.215434 83.389669 
L 59.494186 98.378075 
L 59.83306 105.591269 
L 60.226591 109.602082 
L 60.680244 112.089642 
L 61.188555 113.706852 
L 61.762455 114.820467 
L 62.412874 115.610514 
L 63.183539 116.196949 
L 64.140038 116.638336 
L 64.566364 116.772889 
L 64.589724 38.959508 
L 64.677625 39.510668 
L 64.716109 39.766883 
L 64.836355 55.599199 
L 66.607244 68.60789 
L 67.831563 75.946779 
L 69.001225 81.650895 
L 70.170887 86.278608 
L 70.181818 86.317471 
L 70.199039 71.455028 
L 70.293079 71.806873 
L 70.331564 71.954522 
L 70.451285 87.252167 
L 71.6485 90.913464 
L 72.882552 93.98694 
L 74.162651 96.590593 
L 75.507216 98.828219 
L 76.925455 100.760854 
L 78.435788 102.4456 
L 79.540909 103.484872 
L 79.560226 91.124218 
L 79.65217 91.216791 
L 79.690655 91.256472 
L 79.807231 103.714533 
L 81.555884 105.051794 
L 83.485878 106.244882 
L 85.636073 107.309476 
L 88.071234 108.263467 
L 90.882031 109.120546 
L 92.643636 109.556827 
L 92.665799 98.446394 
L 92.754897 98.470405 
L 92.793382 98.481049 
L 92.910258 109.617256 
L 96.600211 110.329518 
L 101.074904 110.958554 
L 106.668272 111.510726 
L 109.49 111.722344 
L 109.515008 101.090721 
L 109.601261 101.097779 
L 109.639745 101.101021 
L 109.762387 111.740941 
L 118.02025 112.188674 
L 129.487233 112.573486 
L 130.08 112.588685 
L 130.107403 102.173281 
L 130.191261 102.175928 
L 130.229745 102.177181 
L 130.350665 112.595522 
L 147.666331 112.918343 
L 154.413636 113.002905 
L 154.442986 102.720608 
L 154.524897 102.721847 
L 154.563382 102.722448 
L 154.675092 113.005879 
L 182.490909 113.230694 
L 182.521906 103.039101 
L 182.60217 103.039747 
L 182.640654 103.040067 
L 182.767339 113.232289 
L 214.311818 113.365089 
L 214.344463 103.233507 
L 214.423079 103.233857 
L 214.461564 103.234034 
L 214.576343 115.449175 
L 214.876957 118.062862 
L 215.237694 119.419343 
L 215.66402 120.202612 
L 216.17233 120.683372 
L 216.833681 120.994206 
L 217.768318 121.171413 
L 219.233128 121.201265 
L 219.927273 121.167679 
L 219.972945 97.721979 
L 220.038683 97.76098 
L 220.077018 97.786052 
L 220.19674 113.057091 
L 220.500648 116.333286 
L 220.859812 118.015997 
L 221.283442 119.002578 
L 221.780747 119.617556 
L 222.397773 120.025046 
L 223.226614 120.29237 
L 224.442248 120.430984 
L 226.422257 120.408135 
L 229.286364 120.205284 
L 229.326645 88.511972 
L 229.397774 88.650712 
L 229.436109 88.73266 
L 229.552686 109.058395 
L 229.850604 113.527631 
L 230.213288 115.886496 
L 230.627783 117.234317 
L 231.107044 118.087031 
L 231.676975 118.662025 
L 232.389389 119.063174 
L 233.34791 119.33762 
L 234.759785 119.492176 
L 237.078368 119.496823 
L 242.389091 119.234496 
L 242.426078 77.203593 
L 242.500352 77.516224 
L 242.538836 77.694211 
L 242.655713 104.404485 
L 242.956252 110.470606 
L 243.323577 113.6482 
L 243.740993 115.450349 
L 244.225195 116.601377 
L 244.776183 117.36206 
L 245.444048 117.906092 
L 246.295575 118.300766 
L 247.447642 118.574751 
L 249.167394 118.734415 
L 252.139392 118.755598 
L 259.235454 118.565922 
L 259.270345 67.166774 
L 259.346715 67.679654 
L 259.3852 67.96519 
L 259.507841 100.522686 
L 259.814445 108.059798 
L 260.18237 111.904875 
L 260.611615 114.135287 
L 261.102181 115.533397 
L 261.654068 116.453653 
L 262.308156 117.109896 
L 263.105326 117.58584 
L 264.147779 117.936026 
L 265.619478 118.177952 
L 267.929226 118.30911 
L 272.630485 118.309378 
L 279.825454 118.218793 
L 279.858698 60.825218 
L 279.936715 61.485822 
L 279.9752 61.84897 
L 280.16957 100.668627 
L 280.461124 107.364212 
L 280.849863 111.391227 
L 281.335787 113.844525 
L 281.821711 115.188086 
L 282.40482 116.149065 
L 283.085114 116.824906 
L 283.959777 117.3382 
L 285.02881 117.690623 
L 286.583766 117.946271 
L 289.013386 118.093284 
L 294.066996 118.127993 
L 365.595009 117.978326 
L 377.16 117.975149 
L 377.182013 54.837912 
L 377.271261 55.742016 
L 377.309745 56.175416 
L 377.424525 93.451569 
L 377.708742 103.908559 
L 378.053082 109.151359 
L 378.457544 112.161035 
L 378.916664 114.020972 
L 379.441372 115.262004 
L 380.037134 116.118839 
L 380.736745 116.740348 
L 381.600327 117.205723 
L 382.737195 117.555066 
L 382.775455 117.563552 
L 382.797467 56.234623 
L 382.886715 57.096806 
L 382.9252 57.510355 
L 383.03998 75.186239 
L 383.876233 81.643767 
L 384.761678 86.810708 
L 385.70178 91.023311 
L 386.696539 94.490649 
L 387.751421 97.381018 
L 388.390909 98.837213 
L 388.408429 86.25469 
L 388.50217 86.480205 
L 388.540655 86.574595 
L 388.660376 99.395865 
L 389.839172 101.522173 
L 391.091643 103.32983 
L 392.445417 104.895988 
L 393.918912 106.259862 
L 395.539757 107.45461 
L 397.344789 108.505553 
L 397.75 108.709078 
L 397.770515 97.963056 
L 397.861261 98.013936 
L 397.899745 98.036016 
L 398.016322 108.837224 
L 400.153564 109.725092 
L 402.627584 110.506511 
L 405.542005 111.187496 
L 409.052263 111.772358 
L 410.852727 112.00104 
L 410.876687 101.825596 
L 410.963988 101.836699 
L 411.002473 101.841724 
L 411.119349 112.031627 
L 416.044851 112.477613 
L 422.589926 112.834401 
L 427.699091 113.005566 
L 427.727093 102.921143 
L 427.810352 102.923379 
L 427.848836 102.924442 
L 427.970729 113.012914 
L 438.93 113.216169 
L 438.93 113.216169 
" clip-path="url(#peb913fde96)" style="fill: none; stroke: #fa0100; stroke-width: 1.5; stroke-linecap: square"/>
   </g>
   <g id="LineCollection_1">
    <path d="M 58.974719 37.855838 
L 58.974719 37.855838 
" clip-path="url(#peb913fde96)" style="fill: none; stroke: #000000; stroke-width: 0.5"/>
    <path d="M 64.589724 39.310826 
L 64.589724 38.473782 
" clip-path="url(#peb913fde96)" style="fill: none; stroke: #000000; stroke-width: 0.5"/>
    <path d="M 70.199039 79.142498 
L 70.199039 77.649798 
" clip-path="url(#peb913fde96)" style="fill: none; stroke: #000000; stroke-width: 0.5"/>
    <path d="M 79.560226 101.230377 
L 79.560226 95.028497 
" clip-path="url(#peb913fde96)" style="fill: none; stroke: #000000; stroke-width: 0.5"/>
    <path d="M 92.665799 104.575542 
L 92.665799 97.233513 
" clip-path="url(#peb913fde96)" style="fill: none; stroke: #000000; stroke-width: 0.5"/>
    <path d="M 109.515008 105.76185 
L 109.515008 97.443844 
" clip-path="url(#peb913fde96)" style="fill: none; stroke: #000000; stroke-width: 0.5"/>
    <path d="M 130.107403 106.219163 
L 130.107403 97.466754 
" clip-path="url(#peb913fde96)" style="fill: none; stroke: #000000; stroke-width: 0.5"/>
    <path d="M 154.442986 106.601998 
L 154.442986 97.694564 
" clip-path="url(#peb913fde96)" style="fill: none; stroke: #000000; stroke-width: 0.5"/>
    <path d="M 182.521906 106.356118 
L 182.521906 98.011085 
" clip-path="url(#peb913fde96)" style="fill: none; stroke: #000000; stroke-width: 0.5"/>
    <path d="M 214.344463 106.146685 
L 214.344463 98.022726 
" clip-path="url(#peb913fde96)" style="fill: none; stroke: #000000; stroke-width: 0.5"/>
    <path d="M 219.972945 103.635077 
L 219.972945 96.49492 
" clip-path="url(#peb913fde96)" style="fill: none; stroke: #000000; stroke-width: 0.5"/>
    <path d="M 229.326645 97.262635 
L 229.326645 90.282773 
" clip-path="url(#peb913fde96)" style="fill: none; stroke: #000000; stroke-width: 0.5"/>
    <path d="M 242.426078 87.795063 
L 242.426078 80.207249 
" clip-path="url(#peb913fde96)" style="fill: none; stroke: #000000; stroke-width: 0.5"/>
    <path d="M 259.270345 77.057295 
L 259.270345 68.977398 
" clip-path="url(#peb913fde96)" style="fill: none; stroke: #000000; stroke-width: 0.5"/>
    <path d="M 279.858698 67.456435 
L 279.858698 61.605595 
" clip-path="url(#peb913fde96)" style="fill: none; stroke: #000000; stroke-width: 0.5"/>
    <path d="M 377.182013 55.511844 
L 377.182013 48.921747 
" clip-path="url(#peb913fde96)" style="fill: none; stroke: #000000; stroke-width: 0.5"/>
    <path d="M 382.797467 56.096513 
L 382.797467 49.185121 
" clip-path="url(#peb913fde96)" style="fill: none; stroke: #000000; stroke-width: 0.5"/>
    <path d="M 388.408429 100.100492 
L 388.408429 92.42117 
" clip-path="url(#peb913fde96)" style="fill: none; stroke: #000000; stroke-width: 0.5"/>
    <path d="M 397.770515 104.455269 
L 397.770515 96.296327 
" clip-path="url(#peb913fde96)" style="fill: none; stroke: #000000; stroke-width: 0.5"/>
    <path d="M 410.876687 104.426338 
L 410.876687 97.490214 
" clip-path="url(#peb913fde96)" style="fill: none; stroke: #000000; stroke-width: 0.5"/>
    <path d="M 427.727093 102.515163 
L 427.727093 98.086598 
" clip-path="url(#peb913fde96)" style="fill: none; stroke: #000000; stroke-width: 0.5"/>
   </g>
   <g id="line2d_11">
    <defs>
     <path id="m5b35db7ce2" d="M 2.5 0 
L -2.5 -0 
" style="stroke: #000000"/>
    </defs>
    <g clip-path="url(#peb913fde96)">
     <use xlink:href="#m5b35db7ce2" x="58.974719" y="37.855838" style="stroke: #000000"/>
     <use xlink:href="#m5b35db7ce2" x="64.589724" y="39.310826" style="stroke: #000000"/>
     <use xlink:href="#m5b35db7ce2" x="70.199039" y="79.142498" style="stroke: #000000"/>
     <use xlink:href="#m5b35db7ce2" x="79.560226" y="101.230377" style="stroke: #000000"/>
     <use xlink:href="#m5b35db7ce2" x="92.665799" y="104.575542" style="stroke: #000000"/>
     <use xlink:href="#m5b35db7ce2" x="109.515008" y="105.76185" style="stroke: #000000"/>
     <use xlink:href="#m5b35db7ce2" x="130.107403" y="106.219163" style="stroke: #000000"/>
     <use xlink:href="#m5b35db7ce2" x="154.442986" y="106.601998" style="stroke: #000000"/>
     <use xlink:href="#m5b35db7ce2" x="182.521906" y="106.356118" style="stroke: #000000"/>
     <use xlink:href="#m5b35db7ce2" x="214.344463" y="106.146685" style="stroke: #000000"/>
     <use xlink:href="#m5b35db7ce2" x="219.972945" y="103.635077" style="stroke: #000000"/>
     <use xlink:href="#m5b35db7ce2" x="229.326645" y="97.262635" style="stroke: #000000"/>
     <use xlink:href="#m5b35db7ce2" x="242.426078" y="87.795063" style="stroke: #000000"/>
     <use xlink:href="#m5b35db7ce2" x="259.270345" y="77.057295" style="stroke: #000000"/>
     <use xlink:href="#m5b35db7ce2" x="279.858698" y="67.456435" style="stroke: #000000"/>
     <use xlink:href="#m5b35db7ce2" x="377.182013" y="55.511844" style="stroke: #000000"/>
     <use xlink:href="#m5b35db7ce2" x="382.797467" y="56.096513" style="stroke: #000000"/>
     <use xlink:href="#m5b35db7ce2" x="388.408429" y="100.100492" style="stroke: #000000"/>
     <use xlink:href="#m5b35db7ce2" x="397.770515" y="104.455269" style="stroke: #000000"/>
     <use xlink:href="#m5b35db7ce2" x="410.876687" y="104.426338" style="stroke: #000000"/>
     <use xlink:href="#m5b35db7ce2" x="427.727093" y="102.515163" style="stroke: #000000"/>
    </g>
   </g>
   <g id="line2d_12">
    <g clip-path="url(#peb913fde96)">
     <use xlink:href="#m5b35db7ce2" x="58.974719" y="37.855838" style="stroke: #000000"/>
     <use xlink:href="#m5b35db7ce2" x="64.589724" y="38.473782" style="stroke: #000000"/>
     <use xlink:href="#m5b35db7ce2" x="70.199039" y="77.649798" style="stroke: #000000"/>
     <use xlink:href="#m5b35db7ce2" x="79.560226" y="95.028497" style="stroke: #000000"/>
     <use xlink:href="#m5b35db7ce2" x="92.665799" y="97.233513" style="stroke: #000000"/>
     <use xlink:href="#m5b35db7ce2" x="109.515008" y="97.443844" style="stroke: #000000"/>
     <use xlink:href="#m5b35db7ce2" x="130.107403" y="97.466754" style="stroke: #000000"/>
     <use xlink:href="#m5b35db7ce2" x="154.442986" y="97.694564" style="stroke: #000000"/>
     <use xlink:href="#m5b35db7ce2" x="182.521906" y="98.011085" style="stroke: #000000"/>
     <use xlink:href="#m5b35db7ce2" x="214.344463" y="98.022726" style="stroke: #000000"/>
     <use xlink:href="#m5b35db7ce2" x="219.972945" y="96.49492" style="stroke: #000000"/>
     <use xlink:href="#m5b35db7ce2" x="229.326645" y="90.282773" style="stroke: #000000"/>
     <use xlink:href="#m5b35db7ce2" x="242.426078" y="80.207249" style="stroke: #000000"/>
     <use xlink:href="#m5b35db7ce2" x="259.270345" y="68.977398" style="stroke: #000000"/>
     <use xlink:href="#m5b35db7ce2" x="279.858698" y="61.605595" style="stroke: #000000"/>
     <use xlink:href="#m5b35db7ce2" x="377.182013" y="48.921747" style="stroke: #000000"/>
     <use xlink:href="#m5b35db7ce2" x="382.797467" y="49.185121" style="stroke: #000000"/>
     <use xlink:href="#m5b35db7ce2" x="388.408429" y="92.42117" style="stroke: #000000"/>
     <use xlink:href="#m5b35db7ce2" x="397.770515" y="96.296327" style="stroke: #000000"/>
     <use xlink:href="#m5b35db7ce2" x="410.876687" y="97.490214" style="stroke: #000000"/>
     <use xlink:href="#m5b35db7ce2" x="427.727093" y="98.086598" style="stroke: #000000"/>
    </g>
   </g>
   <g id="LineCollection_2">
    <path d="M 58.974719 120.255852 
L 58.974719 119.634715 
" clip-path="url(#peb913fde96)" style="fill: none; stroke: #0071ad; stroke-width: 0.5"/>
    <path d="M 64.589724 111.243847 
L 64.589724 109.663449 
" clip-path="url(#peb913fde96)" style="fill: none; stroke: #0071ad; stroke-width: 0.5"/>
    <path d="M 70.199039 87.831558 
L 70.199039 83.974429 
" clip-path="url(#peb913fde96)" style="fill: none; stroke: #0071ad; stroke-width: 0.5"/>
    <path d="M 79.560226 108.162341 
L 79.560226 104.33845 
" clip-path="url(#peb913fde96)" style="fill: none; stroke: #0071ad; stroke-width: 0.5"/>
    <path d="M 92.665799 111.723576 
L 92.665799 105.022968 
" clip-path="url(#peb913fde96)" style="fill: none; stroke: #0071ad; stroke-width: 0.5"/>
    <path d="M 109.515008 113.409114 
L 109.515008 106.263399 
" clip-path="url(#peb913fde96)" style="fill: none; stroke: #0071ad; stroke-width: 0.5"/>
    <path d="M 130.107403 113.943855 
L 130.107403 107.228543 
" clip-path="url(#peb913fde96)" style="fill: none; stroke: #0071ad; stroke-width: 0.5"/>
    <path d="M 154.442986 114.648208 
L 154.442986 107.675823 
" clip-path="url(#peb913fde96)" style="fill: none; stroke: #0071ad; stroke-width: 0.5"/>
    <path d="M 182.521906 115.279231 
L 182.521906 107.968389 
" clip-path="url(#peb913fde96)" style="fill: none; stroke: #0071ad; stroke-width: 0.5"/>
    <path d="M 214.344463 115.496528 
L 214.344463 109.355119 
" clip-path="url(#peb913fde96)" style="fill: none; stroke: #0071ad; stroke-width: 0.5"/>
    <path d="M 219.972945 118.055221 
L 219.972945 115.149697 
" clip-path="url(#peb913fde96)" style="fill: none; stroke: #0071ad; stroke-width: 0.5"/>
    <path d="M 229.326645 118.4571 
L 229.326645 116.866505 
" clip-path="url(#peb913fde96)" style="fill: none; stroke: #0071ad; stroke-width: 0.5"/>
    <path d="M 242.426078 118.230381 
L 242.426078 116.994121 
" clip-path="url(#peb913fde96)" style="fill: none; stroke: #0071ad; stroke-width: 0.5"/>
    <path d="M 259.270345 117.682012 
L 259.270345 116.555608 
" clip-path="url(#peb913fde96)" style="fill: none; stroke: #0071ad; stroke-width: 0.5"/>
    <path d="M 279.858698 117.692376 
L 279.858698 115.924545 
" clip-path="url(#peb913fde96)" style="fill: none; stroke: #0071ad; stroke-width: 0.5"/>
    <path d="M 377.182013 117.249284 
L 377.182013 114.590379 
" clip-path="url(#peb913fde96)" style="fill: none; stroke: #0071ad; stroke-width: 0.5"/>
    <path d="M 382.797467 115.107326 
L 382.797467 112.784809 
" clip-path="url(#peb913fde96)" style="fill: none; stroke: #0071ad; stroke-width: 0.5"/>
    <path d="M 388.408429 111.387247 
L 388.408429 103.042914 
" clip-path="url(#peb913fde96)" style="fill: none; stroke: #0071ad; stroke-width: 0.5"/>
    <path d="M 397.770515 112.85551 
L 397.770515 106.400944 
" clip-path="url(#peb913fde96)" style="fill: none; stroke: #0071ad; stroke-width: 0.5"/>
    <path d="M 410.876687 115.024633 
L 410.876687 109.410781 
" clip-path="url(#peb913fde96)" style="fill: none; stroke: #0071ad; stroke-width: 0.5"/>
    <path d="M 427.727093 114.92904 
L 427.727093 110.364752 
" clip-path="url(#peb913fde96)" style="fill: none; stroke: #0071ad; stroke-width: 0.5"/>
   </g>
   <g id="line2d_13">
    <defs>
     <path id="md7d70487ba" d="M 2.5 0 
L -2.5 -0 
" style="stroke: #0071ad"/>
    </defs>
    <g clip-path="url(#peb913fde96)">
     <use xlink:href="#md7d70487ba" x="58.974719" y="120.255852" style="fill: #0071ad; stroke: #0071ad"/>
     <use xlink:href="#md7d70487ba" x="64.589724" y="111.243847" style="fill: #0071ad; stroke: #0071ad"/>
     <use xlink:href="#md7d70487ba" x="70.199039" y="87.831558" style="fill: #0071ad; stroke: #0071ad"/>
     <use xlink:href="#md7d70487ba" x="79.560226" y="108.162341" style="fill: #0071ad; stroke: #0071ad"/>
     <use xlink:href="#md7d70487ba" x="92.665799" y="111.723576" style="fill: #0071ad; stroke: #0071ad"/>
     <use xlink:href="#md7d70487ba" x="109.515008" y="113.409114" style="fill: #0071ad; stroke: #0071ad"/>
     <use xlink:href="#md7d70487ba" x="130.107403" y="113.943855" style="fill: #0071ad; stroke: #0071ad"/>
     <use xlink:href="#md7d70487ba" x="154.442986" y="114.648208" style="fill: #0071ad; stroke: #0071ad"/>
     <use xlink:href="#md7d70487ba" x="182.521906" y="115.279231" style="fill: #0071ad; stroke: #0071ad"/>
     <use xlink:href="#md7d70487ba" x="214.344463" y="115.496528" style="fill: #0071ad; stroke: #0071ad"/>
     <use xlink:href="#md7d70487ba" x="219.972945" y="118.055221" style="fill: #0071ad; stroke: #0071ad"/>
     <use xlink:href="#md7d70487ba" x="229.326645" y="118.4571" style="fill: #0071ad; stroke: #0071ad"/>
     <use xlink:href="#md7d70487ba" x="242.426078" y="118.230381" style="fill: #0071ad; stroke: #0071ad"/>
     <use xlink:href="#md7d70487ba" x="259.270345" y="117.682012" style="fill: #0071ad; stroke: #0071ad"/>
     <use xlink:href="#md7d70487ba" x="279.858698" y="117.692376" style="fill: #0071ad; stroke: #0071ad"/>
     <use xlink:href="#md7d70487ba" x="377.182013" y="117.249284" style="fill: #0071ad; stroke: #0071ad"/>
     <use xlink:href="#md7d70487ba" x="382.797467" y="115.107326" style="fill: #0071ad; stroke: #0071ad"/>
     <use xlink:href="#md7d70487ba" x="388.408429" y="111.387247" style="fill: #0071ad; stroke: #0071ad"/>
     <use xlink:href="#md7d70487ba" x="397.770515" y="112.85551" style="fill: #0071ad; stroke: #0071ad"/>
     <use xlink:href="#md7d70487ba" x="410.876687" y="115.024633" style="fill: #0071ad; stroke: #0071ad"/>
     <use xlink:href="#md7d70487ba" x="427.727093" y="114.92904" style="fill: #0071ad; stroke: #0071ad"/>
    </g>
   </g>
   <g id="line2d_14">
    <g clip-path="url(#peb913fde96)">
     <use xlink:href="#md7d70487ba" x="58.974719" y="119.634715" style="fill: #0071ad; stroke: #0071ad"/>
     <use xlink:href="#md7d70487ba" x="64.589724" y="109.663449" style="fill: #0071ad; stroke: #0071ad"/>
     <use xlink:href="#md7d70487ba" x="70.199039" y="83.974429" style="fill: #0071ad; stroke: #0071ad"/>
     <use xlink:href="#md7d70487ba" x="79.560226" y="104.33845" style="fill: #0071ad; stroke: #0071ad"/>
     <use xlink:href="#md7d70487ba" x="92.665799" y="105.022968" style="fill: #0071ad; stroke: #0071ad"/>
     <use xlink:href="#md7d70487ba" x="109.515008" y="106.263399" style="fill: #0071ad; stroke: #0071ad"/>
     <use xlink:href="#md7d70487ba" x="130.107403" y="107.228543" style="fill: #0071ad; stroke: #0071ad"/>
     <use xlink:href="#md7d70487ba" x="154.442986" y="107.675823" style="fill: #0071ad; stroke: #0071ad"/>
     <use xlink:href="#md7d70487ba" x="182.521906" y="107.968389" style="fill: #0071ad; stroke: #0071ad"/>
     <use xlink:href="#md7d70487ba" x="214.344463" y="109.355119" style="fill: #0071ad; stroke: #0071ad"/>
     <use xlink:href="#md7d70487ba" x="219.972945" y="115.149697" style="fill: #0071ad; stroke: #0071ad"/>
     <use xlink:href="#md7d70487ba" x="229.326645" y="116.866505" style="fill: #0071ad; stroke: #0071ad"/>
     <use xlink:href="#md7d70487ba" x="242.426078" y="116.994121" style="fill: #0071ad; stroke: #0071ad"/>
     <use xlink:href="#md7d70487ba" x="259.270345" y="116.555608" style="fill: #0071ad; stroke: #0071ad"/>
     <use xlink:href="#md7d70487ba" x="279.858698" y="115.924545" style="fill: #0071ad; stroke: #0071ad"/>
     <use xlink:href="#md7d70487ba" x="377.182013" y="114.590379" style="fill: #0071ad; stroke: #0071ad"/>
     <use xlink:href="#md7d70487ba" x="382.797467" y="112.784809" style="fill: #0071ad; stroke: #0071ad"/>
     <use xlink:href="#md7d70487ba" x="388.408429" y="103.042914" style="fill: #0071ad; stroke: #0071ad"/>
     <use xlink:href="#md7d70487ba" x="397.770515" y="106.400944" style="fill: #0071ad; stroke: #0071ad"/>
     <use xlink:href="#md7d70487ba" x="410.876687" y="109.410781" style="fill: #0071ad; stroke: #0071ad"/>
     <use xlink:href="#md7d70487ba" x="427.727093" y="110.364752" style="fill: #0071ad; stroke: #0071ad"/>
    </g>
   </g>
   <g id="line2d_15">
    <defs>
     <path id="mc0cd6d4a0f" d="M 0 -1.75 
L -1.75 1.75 
L 1.75 1.75 
z
" style="stroke: #000000; stroke-linejoin: miter"/>
    </defs>
    <g clip-path="url(#peb913fde96)">
     <use xlink:href="#mc0cd6d4a0f" x="58.974719" y="37.855838" style="stroke: #000000; stroke-linejoin: miter"/>
     <use xlink:href="#mc0cd6d4a0f" x="64.589724" y="38.892304" style="stroke: #000000; stroke-linejoin: miter"/>
     <use xlink:href="#mc0cd6d4a0f" x="70.199039" y="78.396148" style="stroke: #000000; stroke-linejoin: miter"/>
     <use xlink:href="#mc0cd6d4a0f" x="79.560226" y="98.129437" style="stroke: #000000; stroke-linejoin: miter"/>
     <use xlink:href="#mc0cd6d4a0f" x="92.665799" y="100.904527" style="stroke: #000000; stroke-linejoin: miter"/>
     <use xlink:href="#mc0cd6d4a0f" x="109.515008" y="101.602847" style="stroke: #000000; stroke-linejoin: miter"/>
     <use xlink:href="#mc0cd6d4a0f" x="130.107403" y="101.842958" style="stroke: #000000; stroke-linejoin: miter"/>
     <use xlink:href="#mc0cd6d4a0f" x="154.442986" y="102.148281" style="stroke: #000000; stroke-linejoin: miter"/>
     <use xlink:href="#mc0cd6d4a0f" x="182.521906" y="102.183602" style="stroke: #000000; stroke-linejoin: miter"/>
     <use xlink:href="#mc0cd6d4a0f" x="214.344463" y="102.084706" style="stroke: #000000; stroke-linejoin: miter"/>
     <use xlink:href="#mc0cd6d4a0f" x="219.972945" y="100.064999" style="stroke: #000000; stroke-linejoin: miter"/>
     <use xlink:href="#mc0cd6d4a0f" x="229.326645" y="93.772704" style="stroke: #000000; stroke-linejoin: miter"/>
     <use xlink:href="#mc0cd6d4a0f" x="242.426078" y="84.001156" style="stroke: #000000; stroke-linejoin: miter"/>
     <use xlink:href="#mc0cd6d4a0f" x="259.270345" y="73.017347" style="stroke: #000000; stroke-linejoin: miter"/>
     <use xlink:href="#mc0cd6d4a0f" x="279.858698" y="64.531015" style="stroke: #000000; stroke-linejoin: miter"/>
     <use xlink:href="#mc0cd6d4a0f" x="377.182013" y="52.216795" style="stroke: #000000; stroke-linejoin: miter"/>
     <use xlink:href="#mc0cd6d4a0f" x="382.797467" y="52.640817" style="stroke: #000000; stroke-linejoin: miter"/>
     <use xlink:href="#mc0cd6d4a0f" x="388.408429" y="96.260831" style="stroke: #000000; stroke-linejoin: miter"/>
     <use xlink:href="#mc0cd6d4a0f" x="397.770515" y="100.375798" style="stroke: #000000; stroke-linejoin: miter"/>
     <use xlink:href="#mc0cd6d4a0f" x="410.876687" y="100.958276" style="stroke: #000000; stroke-linejoin: miter"/>
     <use xlink:href="#mc0cd6d4a0f" x="427.727093" y="100.300881" style="stroke: #000000; stroke-linejoin: miter"/>
    </g>
   </g>
   <g id="line2d_16">
    <defs>
     <path id="mbc9f1b7444" d="M 0 -1.75 
L -1.75 1.75 
L 1.75 1.75 
z
" style="stroke: #0071ad; stroke-linejoin: miter"/>
    </defs>
    <g clip-path="url(#peb913fde96)">
     <use xlink:href="#mbc9f1b7444" x="58.974719" y="119.945283" style="fill: #0071ad; stroke: #0071ad; stroke-linejoin: miter"/>
     <use xlink:href="#mbc9f1b7444" x="64.589724" y="110.453648" style="fill: #0071ad; stroke: #0071ad; stroke-linejoin: miter"/>
     <use xlink:href="#mbc9f1b7444" x="70.199039" y="85.902994" style="fill: #0071ad; stroke: #0071ad; stroke-linejoin: miter"/>
     <use xlink:href="#mbc9f1b7444" x="79.560226" y="106.250396" style="fill: #0071ad; stroke: #0071ad; stroke-linejoin: miter"/>
     <use xlink:href="#mbc9f1b7444" x="92.665799" y="108.373272" style="fill: #0071ad; stroke: #0071ad; stroke-linejoin: miter"/>
     <use xlink:href="#mbc9f1b7444" x="109.515008" y="109.836257" style="fill: #0071ad; stroke: #0071ad; stroke-linejoin: miter"/>
     <use xlink:href="#mbc9f1b7444" x="130.107403" y="110.586199" style="fill: #0071ad; stroke: #0071ad; stroke-linejoin: miter"/>
     <use xlink:href="#mbc9f1b7444" x="154.442986" y="111.162016" style="fill: #0071ad; stroke: #0071ad; stroke-linejoin: miter"/>
     <use xlink:href="#mbc9f1b7444" x="182.521906" y="111.62381" style="fill: #0071ad; stroke: #0071ad; stroke-linejoin: miter"/>
     <use xlink:href="#mbc9f1b7444" x="214.344463" y="112.425823" style="fill: #0071ad; stroke: #0071ad; stroke-linejoin: miter"/>
     <use xlink:href="#mbc9f1b7444" x="219.972945" y="116.602459" style="fill: #0071ad; stroke: #0071ad; stroke-linejoin: miter"/>
     <use xlink:href="#mbc9f1b7444" x="229.326645" y="117.661802" style="fill: #0071ad; stroke: #0071ad; stroke-linejoin: miter"/>
     <use xlink:href="#mbc9f1b7444" x="242.426078" y="117.612251" style="fill: #0071ad; stroke: #0071ad; stroke-linejoin: miter"/>
     <use xlink:href="#mbc9f1b7444" x="259.270345" y="117.11881" style="fill: #0071ad; stroke: #0071ad; stroke-linejoin: miter"/>
     <use xlink:href="#mbc9f1b7444" x="279.858698" y="116.808461" style="fill: #0071ad; stroke: #0071ad; stroke-linejoin: miter"/>
     <use xlink:href="#mbc9f1b7444" x="377.182013" y="115.919832" style="fill: #0071ad; stroke: #0071ad; stroke-linejoin: miter"/>
     <use xlink:href="#mbc9f1b7444" x="382.797467" y="113.946068" style="fill: #0071ad; stroke: #0071ad; stroke-linejoin: miter"/>
     <use xlink:href="#mbc9f1b7444" x="388.408429" y="107.21508" style="fill: #0071ad; stroke: #0071ad; stroke-linejoin: miter"/>
     <use xlink:href="#mbc9f1b7444" x="397.770515" y="109.628227" style="fill: #0071ad; stroke: #0071ad; stroke-linejoin: miter"/>
     <use xlink:href="#mbc9f1b7444" x="410.876687" y="112.217707" style="fill: #0071ad; stroke: #0071ad; stroke-linejoin: miter"/>
     <use xlink:href="#mbc9f1b7444" x="427.727093" y="112.646896" style="fill: #0071ad; stroke: #0071ad; stroke-linejoin: miter"/>
    </g>
   </g>
   <g id="patch_7">
    <path d="M 47.72 136.24 
L 47.72 25.92 
" style="fill: none; stroke: #000000; stroke-width: 0.8; stroke-linejoin: miter; stroke-linecap: square"/>
   </g>
   <g id="patch_8">
    <path d="M 438.93 136.24 
L 438.93 25.92 
" style="fill: none; stroke: #000000; stroke-width: 0.8; stroke-linejoin: miter; stroke-linecap: square"/>
   </g>
   <g id="patch_9">
    <path d="M 47.72 136.24 
L 438.93 136.24 
" style="fill: none; stroke: #000000; stroke-width: 0.8; stroke-linejoin: miter; stroke-linecap: square"/>
   </g>
   <g id="patch_10">
    <path d="M 47.72 25.92 
L 438.93 25.92 
" style="fill: none; stroke: #000000; stroke-width: 0.8; stroke-linejoin: miter; stroke-linecap: square"/>
   </g>
   <g id="legend_1">
    <g id="patch_11">
     <path d="M 89.214886 73.1625 
L 178.432386 73.1625 
Q 180.032386 73.1625 180.032386 71.5625 
L 180.032386 35.4375 
Q 180.032386 33.8375 178.432386 33.8375 
L 89.214886 33.8375 
Q 87.614886 33.8375 87.614886 35.4375 
L 87.614886 71.5625 
Q 87.614886 73.1625 89.214886 73.1625 
z
" style="fill: #ffffff; stroke: #000000; stroke-linejoin: miter"/>
    </g>
    <g id="line2d_17">
     <path d="M 90.814886 40.31625 
L 98.814886 40.31625 
L 106.814886 40.31625 
" style="fill: none; stroke: #fa0100; stroke-width: 1.5; stroke-linecap: square"/>
    </g>
    <g id="text_12">
     <!-- Simulated trace -->
     <g transform="translate(113.214886 43.11625) scale(0.08 -0.08)">
      <defs>
       <path id="DejaVuSans-53" d="M 3425 4513 
L 3425 3897 
Q 3066 4069 2747 4153 
Q 2428 4238 2131 4238 
Q 1616 4238 1336 4038 
Q 1056 3838 1056 3469 
Q 1056 3159 1242 3001 
Q 1428 2844 1947 2747 
L 2328 2669 
Q 3034 2534 3370 2195 
Q 3706 1856 3706 1288 
Q 3706 609 3251 259 
Q 2797 -91 1919 -91 
Q 1588 -91 1214 -16 
Q 841 59 441 206 
L 441 856 
Q 825 641 1194 531 
Q 1563 422 1919 422 
Q 2459 422 2753 634 
Q 3047 847 3047 1241 
Q 3047 1584 2836 1778 
Q 2625 1972 2144 2069 
L 1759 2144 
Q 1053 2284 737 2584 
Q 422 2884 422 3419 
Q 422 4038 858 4394 
Q 1294 4750 2059 4750 
Q 2388 4750 2728 4690 
Q 3069 4631 3425 4513 
z
" transform="scale(0.015625)"/>
       <path id="DejaVuSans-64" d="M 2906 2969 
L 2906 4863 
L 3481 4863 
L 3481 0 
L 2906 0 
L 2906 525 
Q 2725 213 2448 61 
Q 2172 -91 1784 -91 
Q 1150 -91 751 415 
Q 353 922 353 1747 
Q 353 2572 751 3078 
Q 1150 3584 1784 3584 
Q 2172 3584 2448 3432 
Q 2725 3281 2906 2969 
z
M 947 1747 
Q 947 1113 1208 752 
Q 1469 391 1925 391 
Q 2381 391 2643 752 
Q 2906 1113 2906 1747 
Q 2906 2381 2643 2742 
Q 2381 3103 1925 3103 
Q 1469 3103 1208 2742 
Q 947 2381 947 1747 
z
" transform="scale(0.015625)"/>
      </defs>
      <use xlink:href="#DejaVuSans-53"/>
      <use xlink:href="#DejaVuSans-69" transform="translate(63.476562 0)"/>
      <use xlink:href="#DejaVuSans-6d" transform="translate(91.259766 0)"/>
      <use xlink:href="#DejaVuSans-75" transform="translate(188.671875 0)"/>
      <use xlink:href="#DejaVuSans-6c" transform="translate(252.050781 0)"/>
      <use xlink:href="#DejaVuSans-61" transform="translate(279.833984 0)"/>
      <use xlink:href="#DejaVuSans-74" transform="translate(341.113281 0)"/>
      <use xlink:href="#DejaVuSans-65" transform="translate(380.322266 0)"/>
      <use xlink:href="#DejaVuSans-64" transform="translate(441.845703 0)"/>
      <use xlink:href="#DejaVuSans-20" transform="translate(505.322266 0)"/>
      <use xlink:href="#DejaVuSans-74" transform="translate(537.109375 0)"/>
      <use xlink:href="#DejaVuSans-72" transform="translate(576.318359 0)"/>
      <use xlink:href="#DejaVuSans-61" transform="translate(617.431641 0)"/>
      <use xlink:href="#DejaVuSans-63" transform="translate(678.710938 0)"/>
      <use xlink:href="#DejaVuSans-65" transform="translate(733.691406 0)"/>
     </g>
    </g>
    <g id="LineCollection_3">
     <path d="M 98.814886 57.18 
L 98.814886 49.18 
" style="fill: none; stroke: #000000; stroke-width: 0.5"/>
    </g>
    <g id="line2d_18">
     <g>
      <use xlink:href="#m5b35db7ce2" x="98.814886" y="57.18" style="stroke: #000000"/>
     </g>
    </g>
    <g id="line2d_19">
     <g>
      <use xlink:href="#m5b35db7ce2" x="98.814886" y="49.18" style="stroke: #000000"/>
     </g>
    </g>
    <g id="line2d_20"/>
    <g id="line2d_21">
     <g>
      <use xlink:href="#mc0cd6d4a0f" x="98.814886" y="53.18" style="stroke: #000000; stroke-linejoin: miter"/>
     </g>
    </g>
    <g id="text_13">
     <!-- $\mathrm{F_M^'}$ measured -->
     <g transform="translate(113.214886 55.98) scale(0.08 -0.08)">
      <defs>
       <path id="DejaVuSans-27" d="M 1147 4666 
L 1147 2931 
L 616 2931 
L 616 4666 
L 1147 4666 
z
" transform="scale(0.015625)"/>
       <path id="DejaVuSans-4d" d="M 628 4666 
L 1569 4666 
L 2759 1491 
L 3956 4666 
L 4897 4666 
L 4897 0 
L 4281 0 
L 4281 4097 
L 3078 897 
L 2444 897 
L 1241 4097 
L 1241 0 
L 628 0 
L 628 4666 
z
" transform="scale(0.015625)"/>
      </defs>
      <use xlink:href="#DejaVuSans-46" transform="translate(0 0.684375)"/>
      <use xlink:href="#DejaVuSans-27" transform="translate(58.476562 38.965625) scale(0.7)"/>
      <use xlink:href="#DejaVuSans-4d" transform="translate(58.476562 -26.659375) scale(0.7)"/>
      <use xlink:href="#DejaVuSans-20" transform="translate(121.606445 0.684375)"/>
      <use xlink:href="#DejaVuSans-6d" transform="translate(153.393555 0.684375)"/>
      <use xlink:href="#DejaVuSans-65" transform="translate(250.805664 0.684375)"/>
      <use xlink:href="#DejaVuSans-61" transform="translate(312.329102 0.684375)"/>
      <use xlink:href="#DejaVuSans-73" transform="translate(373.608398 0.684375)"/>
      <use xlink:href="#DejaVuSans-75" transform="translate(425.708008 0.684375)"/>
      <use xlink:href="#DejaVuSans-72" transform="translate(489.086914 0.684375)"/>
      <use xlink:href="#DejaVuSans-65" transform="translate(530.200195 0.684375)"/>
      <use xlink:href="#DejaVuSans-64" transform="translate(591.723633 0.684375)"/>
     </g>
    </g>
    <g id="LineCollection_4">
     <path d="M 98.814886 69.49875 
L 98.814886 61.49875 
" style="fill: none; stroke: #0071ad; stroke-width: 0.5"/>
    </g>
    <g id="line2d_22">
     <g>
      <use xlink:href="#md7d70487ba" x="98.814886" y="69.49875" style="fill: #0071ad; stroke: #0071ad"/>
     </g>
    </g>
    <g id="line2d_23">
     <g>
      <use xlink:href="#md7d70487ba" x="98.814886" y="61.49875" style="fill: #0071ad; stroke: #0071ad"/>
     </g>
    </g>
    <g id="line2d_24"/>
    <g id="line2d_25">
     <g>
      <use xlink:href="#mbc9f1b7444" x="98.814886" y="65.49875" style="fill: #0071ad; stroke: #0071ad; stroke-linejoin: miter"/>
     </g>
    </g>
    <g id="text_14">
     <!-- $\mathrm{F_S}$ measured -->
     <g transform="translate(113.214886 68.29875) scale(0.08 -0.08)">
      <use xlink:href="#DejaVuSans-46" transform="translate(0 0.015625)"/>
      <use xlink:href="#DejaVuSans-53" transform="translate(58.476562 -16.390625) scale(0.7)"/>
      <use xlink:href="#DejaVuSans-20" transform="translate(105.644531 0.015625)"/>
      <use xlink:href="#DejaVuSans-6d" transform="translate(137.431641 0.015625)"/>
      <use xlink:href="#DejaVuSans-65" transform="translate(234.84375 0.015625)"/>
      <use xlink:href="#DejaVuSans-61" transform="translate(296.367188 0.015625)"/>
      <use xlink:href="#DejaVuSans-73" transform="translate(357.646484 0.015625)"/>
      <use xlink:href="#DejaVuSans-75" transform="translate(409.746094 0.015625)"/>
      <use xlink:href="#DejaVuSans-72" transform="translate(473.125 0.015625)"/>
      <use xlink:href="#DejaVuSans-65" transform="translate(514.238281 0.015625)"/>
      <use xlink:href="#DejaVuSans-64" transform="translate(575.761719 0.015625)"/>
     </g>
    </g>
   </g>
  </g>
  <g id="axes_2">
   <g id="patch_12">
    <path d="M 47.72 303.64 
L 438.93 303.64 
L 438.93 193.32 
L 47.72 193.32 
z
" style="fill: #ffffff"/>
   </g>
   <g id="patch_13">
    <path d="M 47.72 193.32 
L 64.566364 193.32 
L 64.566364 179.53 
L 47.72 179.53 
z
" style="stroke: #000000; stroke-linejoin: miter"/>
   </g>
   <g id="patch_14">
    <path d="M 64.566364 193.32 
L 214.311818 193.32 
L 214.311818 179.53 
L 64.566364 179.53 
z
" style="fill: #ffffff; stroke: #000000; stroke-linejoin: miter"/>
   </g>
   <g id="patch_15">
    <path d="M 214.311818 193.32 
L 382.775455 193.32 
L 382.775455 179.53 
L 214.311818 179.53 
z
" style="stroke: #000000; stroke-linejoin: miter"/>
   </g>
   <g id="patch_16">
    <path d="M 382.775455 193.32 
L 438.93 193.32 
L 438.93 179.53 
L 382.775455 179.53 
z
" style="fill: #ffffff; stroke: #000000; stroke-linejoin: miter"/>
   </g>
   <g id="matplotlib.axis_3">
    <g id="xtick_5">
     <g id="line2d_26">
      <g>
       <use xlink:href="#medca0d57f5" x="64.566364" y="303.64" style="stroke: #000000; stroke-width: 0.8"/>
      </g>
     </g>
     <g id="text_15">
      <!-- 0.5 -->
      <g transform="translate(56.614801 318.238437) scale(0.1 -0.1)">
       <use xlink:href="#DejaVuSans-30"/>
       <use xlink:href="#DejaVuSans-2e" transform="translate(63.623047 0)"/>
       <use xlink:href="#DejaVuSans-35" transform="translate(95.410156 0)"/>
      </g>
     </g>
    </g>
    <g id="xtick_6">
     <g id="line2d_27">
      <g>
       <use xlink:href="#medca0d57f5" x="214.311818" y="303.64" style="stroke: #000000; stroke-width: 0.8"/>
      </g>
     </g>
     <g id="text_16">
      <!-- 13.8 -->
      <g transform="translate(203.179006 318.238437) scale(0.1 -0.1)">
       <use xlink:href="#DejaVuSans-31"/>
       <use xlink:href="#DejaVuSans-33" transform="translate(63.623047 0)"/>
       <use xlink:href="#DejaVuSans-2e" transform="translate(127.246094 0)"/>
       <use xlink:href="#DejaVuSans-38" transform="translate(159.033203 0)"/>
      </g>
     </g>
    </g>
    <g id="xtick_7">
     <g id="line2d_28">
      <g>
       <use xlink:href="#medca0d57f5" x="382.775455" y="303.64" style="stroke: #000000; stroke-width: 0.8"/>
      </g>
     </g>
     <g id="text_17">
      <!-- 28.8 -->
      <g transform="translate(371.642642 318.238437) scale(0.1 -0.1)">
       <use xlink:href="#DejaVuSans-32"/>
       <use xlink:href="#DejaVuSans-38" transform="translate(63.623047 0)"/>
       <use xlink:href="#DejaVuSans-2e" transform="translate(127.246094 0)"/>
       <use xlink:href="#DejaVuSans-38" transform="translate(159.033203 0)"/>
      </g>
     </g>
    </g>
    <g id="xtick_8">
     <g id="line2d_29">
      <g>
       <use xlink:href="#medca0d57f5" x="438.93" y="303.64" style="stroke: #000000; stroke-width: 0.8"/>
      </g>
     </g>
     <g id="text_18">
      <!-- 33.8 -->
      <g transform="translate(427.797187 318.238437) scale(0.1 -0.1)">
       <use xlink:href="#DejaVuSans-33"/>
       <use xlink:href="#DejaVuSans-33" transform="translate(63.623047 0)"/>
       <use xlink:href="#DejaVuSans-2e" transform="translate(127.246094 0)"/>
       <use xlink:href="#DejaVuSans-38" transform="translate(159.033203 0)"/>
      </g>
     </g>
    </g>
    <g id="text_19">
     <!-- time [min] -->
     <g transform="translate(217.110156 331.916562) scale(0.1 -0.1)">
      <use xlink:href="#DejaVuSans-74"/>
      <use xlink:href="#DejaVuSans-69" transform="translate(39.208984 0)"/>
      <use xlink:href="#DejaVuSans-6d" transform="translate(66.992188 0)"/>
      <use xlink:href="#DejaVuSans-65" transform="translate(164.404297 0)"/>
      <use xlink:href="#DejaVuSans-20" transform="translate(225.927734 0)"/>
      <use xlink:href="#DejaVuSans-5b" transform="translate(257.714844 0)"/>
      <use xlink:href="#DejaVuSans-6d" transform="translate(296.728516 0)"/>
      <use xlink:href="#DejaVuSans-69" transform="translate(394.140625 0)"/>
      <use xlink:href="#DejaVuSans-6e" transform="translate(421.923828 0)"/>
      <use xlink:href="#DejaVuSans-5d" transform="translate(485.302734 0)"/>
     </g>
    </g>
   </g>
   <g id="matplotlib.axis_4">
    <g id="ytick_6">
     <g id="line2d_30">
      <g>
       <use xlink:href="#m94ff908c0b" x="47.72" y="288.658067" style="stroke: #000000; stroke-width: 0.8"/>
      </g>
     </g>
     <g id="text_20">
      <!-- 0.2 -->
      <g transform="translate(24.816875 292.457285) scale(0.1 -0.1)">
       <use xlink:href="#DejaVuSans-30"/>
       <use xlink:href="#DejaVuSans-2e" transform="translate(63.623047 0)"/>
       <use xlink:href="#DejaVuSans-32" transform="translate(95.410156 0)"/>
      </g>
     </g>
    </g>
    <g id="ytick_7">
     <g id="line2d_31">
      <g>
       <use xlink:href="#m94ff908c0b" x="47.72" y="260.179815" style="stroke: #000000; stroke-width: 0.8"/>
      </g>
     </g>
     <g id="text_21">
      <!-- 0.4 -->
      <g transform="translate(24.816875 263.979034) scale(0.1 -0.1)">
       <defs>
        <path id="DejaVuSans-34" d="M 2419 4116 
L 825 1625 
L 2419 1625 
L 2419 4116 
z
M 2253 4666 
L 3047 4666 
L 3047 1625 
L 3713 1625 
L 3713 1100 
L 3047 1100 
L 3047 0 
L 2419 0 
L 2419 1100 
L 313 1100 
L 313 1709 
L 2253 4666 
z
" transform="scale(0.015625)"/>
       </defs>
       <use xlink:href="#DejaVuSans-30"/>
       <use xlink:href="#DejaVuSans-2e" transform="translate(63.623047 0)"/>
       <use xlink:href="#DejaVuSans-34" transform="translate(95.410156 0)"/>
      </g>
     </g>
    </g>
    <g id="ytick_8">
     <g id="line2d_32">
      <g>
       <use xlink:href="#m94ff908c0b" x="47.72" y="231.701563" style="stroke: #000000; stroke-width: 0.8"/>
      </g>
     </g>
     <g id="text_22">
      <!-- 0.6 -->
      <g transform="translate(24.816875 235.500782) scale(0.1 -0.1)">
       <defs>
        <path id="DejaVuSans-36" d="M 2113 2584 
Q 1688 2584 1439 2293 
Q 1191 2003 1191 1497 
Q 1191 994 1439 701 
Q 1688 409 2113 409 
Q 2538 409 2786 701 
Q 3034 994 3034 1497 
Q 3034 2003 2786 2293 
Q 2538 2584 2113 2584 
z
M 3366 4563 
L 3366 3988 
Q 3128 4100 2886 4159 
Q 2644 4219 2406 4219 
Q 1781 4219 1451 3797 
Q 1122 3375 1075 2522 
Q 1259 2794 1537 2939 
Q 1816 3084 2150 3084 
Q 2853 3084 3261 2657 
Q 3669 2231 3669 1497 
Q 3669 778 3244 343 
Q 2819 -91 2113 -91 
Q 1303 -91 875 529 
Q 447 1150 447 2328 
Q 447 3434 972 4092 
Q 1497 4750 2381 4750 
Q 2619 4750 2861 4703 
Q 3103 4656 3366 4563 
z
" transform="scale(0.015625)"/>
       </defs>
       <use xlink:href="#DejaVuSans-30"/>
       <use xlink:href="#DejaVuSans-2e" transform="translate(63.623047 0)"/>
       <use xlink:href="#DejaVuSans-36" transform="translate(95.410156 0)"/>
      </g>
     </g>
    </g>
    <g id="ytick_9">
     <g id="line2d_33">
      <g>
       <use xlink:href="#m94ff908c0b" x="47.72" y="203.223312" style="stroke: #000000; stroke-width: 0.8"/>
      </g>
     </g>
     <g id="text_23">
      <!-- 0.8 -->
      <g transform="translate(24.816875 207.022531) scale(0.1 -0.1)">
       <use xlink:href="#DejaVuSans-30"/>
       <use xlink:href="#DejaVuSans-2e" transform="translate(63.623047 0)"/>
       <use xlink:href="#DejaVuSans-38" transform="translate(95.410156 0)"/>
      </g>
     </g>
    </g>
    <g id="text_24">
     <!-- $\Phi$ PSII -->
     <g transform="translate(18.737188 263.18) rotate(-90) scale(0.1 -0.1)">
      <defs>
       <path id="DejaVuSans-3a6" d="M 2206 3644 
Q 1738 3578 1431 3306 
Q 1025 2947 1025 2328 
Q 1025 1713 1431 1353 
Q 1738 1081 2206 1016 
L 2206 3644 
z
M 2838 1016 
Q 3306 1081 3613 1353 
Q 4013 1713 4013 2328 
Q 4013 2947 3613 3306 
Q 3306 3578 2838 3644 
L 2838 1016 
z
M 2206 494 
Q 1444 563 950 981 
Q 359 1481 359 2328 
Q 359 3175 950 3678 
Q 1441 4100 2206 4169 
L 2206 4666 
L 2838 4666 
L 2838 4169 
Q 3600 4097 4091 3678 
Q 4678 3175 4678 2328 
Q 4678 1484 4091 981 
Q 3600 563 2838 491 
L 2838 0 
L 2206 0 
L 2206 494 
z
" transform="scale(0.015625)"/>
       <path id="DejaVuSans-50" d="M 1259 4147 
L 1259 2394 
L 2053 2394 
Q 2494 2394 2734 2622 
Q 2975 2850 2975 3272 
Q 2975 3691 2734 3919 
Q 2494 4147 2053 4147 
L 1259 4147 
z
M 628 4666 
L 2053 4666 
Q 2838 4666 3239 4311 
Q 3641 3956 3641 3272 
Q 3641 2581 3239 2228 
Q 2838 1875 2053 1875 
L 1259 1875 
L 1259 0 
L 628 0 
L 628 4666 
z
" transform="scale(0.015625)"/>
       <path id="DejaVuSans-49" d="M 628 4666 
L 1259 4666 
L 1259 0 
L 628 0 
L 628 4666 
z
" transform="scale(0.015625)"/>
      </defs>
      <use xlink:href="#DejaVuSans-3a6" transform="translate(0 0.78125)"/>
      <use xlink:href="#DejaVuSans-20" transform="translate(78.710938 0.78125)"/>
      <use xlink:href="#DejaVuSans-50" transform="translate(110.498047 0.78125)"/>
      <use xlink:href="#DejaVuSans-53" transform="translate(170.800781 0.78125)"/>
      <use xlink:href="#DejaVuSans-49" transform="translate(234.277344 0.78125)"/>
      <use xlink:href="#DejaVuSans-49" transform="translate(263.769531 0.78125)"/>
     </g>
    </g>
   </g>
   <g id="line2d_34">
    <path d="M 58.974719 256.723691 
L 64.589724 203.239432 
L 70.199039 284.47007 
L 79.560226 278.12449 
L 92.665799 275.276633 
L 109.515008 274.067152 
L 130.107403 273.602261 
L 154.442986 273.456849 
L 182.521906 273.426849 
L 214.344463 273.42829 
L 219.972945 230.30411 
L 229.326645 219.582962 
L 242.426078 210.994297 
L 259.270345 205.727031 
L 279.858698 203.121787 
L 377.182013 201.034615 
L 382.797467 207.984863 
L 388.408429 281.292961 
L 397.770515 277.160828 
L 410.876687 275.03493 
L 427.727093 274.039591 
" clip-path="url(#pc79c08a817)" style="fill: none; stroke: #fa0100; stroke-width: 1.5; stroke-linecap: square"/>
    <defs>
     <path id="mf2ac964718" d="M 0 3 
C 0.795609 3 1.55874 2.683901 2.12132 2.12132 
C 2.683901 1.55874 3 0.795609 3 0 
C 3 -0.795609 2.683901 -1.55874 2.12132 -2.12132 
C 1.55874 -2.683901 0.795609 -3 0 -3 
C -0.795609 -3 -1.55874 -2.683901 -2.12132 -2.12132 
C -2.683901 -1.55874 -3 -0.795609 -3 0 
C -3 0.795609 -2.683901 1.55874 -2.12132 2.12132 
C -1.55874 2.683901 -0.795609 3 0 3 
z
" style="stroke: #fa0100"/>
    </defs>
    <g clip-path="url(#pc79c08a817)">
     <use xlink:href="#mf2ac964718" x="58.974719" y="256.723691" style="fill: #fa0100; stroke: #fa0100"/>
     <use xlink:href="#mf2ac964718" x="64.589724" y="203.239432" style="fill: #fa0100; stroke: #fa0100"/>
     <use xlink:href="#mf2ac964718" x="70.199039" y="284.47007" style="fill: #fa0100; stroke: #fa0100"/>
     <use xlink:href="#mf2ac964718" x="79.560226" y="278.12449" style="fill: #fa0100; stroke: #fa0100"/>
     <use xlink:href="#mf2ac964718" x="92.665799" y="275.276633" style="fill: #fa0100; stroke: #fa0100"/>
     <use xlink:href="#mf2ac964718" x="109.515008" y="274.067152" style="fill: #fa0100; stroke: #fa0100"/>
     <use xlink:href="#mf2ac964718" x="130.107403" y="273.602261" style="fill: #fa0100; stroke: #fa0100"/>
     <use xlink:href="#mf2ac964718" x="154.442986" y="273.456849" style="fill: #fa0100; stroke: #fa0100"/>
     <use xlink:href="#mf2ac964718" x="182.521906" y="273.426849" style="fill: #fa0100; stroke: #fa0100"/>
     <use xlink:href="#mf2ac964718" x="214.344463" y="273.42829" style="fill: #fa0100; stroke: #fa0100"/>
     <use xlink:href="#mf2ac964718" x="219.972945" y="230.30411" style="fill: #fa0100; stroke: #fa0100"/>
     <use xlink:href="#mf2ac964718" x="229.326645" y="219.582962" style="fill: #fa0100; stroke: #fa0100"/>
     <use xlink:href="#mf2ac964718" x="242.426078" y="210.994297" style="fill: #fa0100; stroke: #fa0100"/>
     <use xlink:href="#mf2ac964718" x="259.270345" y="205.727031" style="fill: #fa0100; stroke: #fa0100"/>
     <use xlink:href="#mf2ac964718" x="279.858698" y="203.121787" style="fill: #fa0100; stroke: #fa0100"/>
     <use xlink:href="#mf2ac964718" x="377.182013" y="201.034615" style="fill: #fa0100; stroke: #fa0100"/>
     <use xlink:href="#mf2ac964718" x="382.797467" y="207.984863" style="fill: #fa0100; stroke: #fa0100"/>
     <use xlink:href="#mf2ac964718" x="388.408429" y="281.292961" style="fill: #fa0100; stroke: #fa0100"/>
     <use xlink:href="#mf2ac964718" x="397.770515" y="277.160828" style="fill: #fa0100; stroke: #fa0100"/>
     <use xlink:href="#mf2ac964718" x="410.876687" y="275.03493" style="fill: #fa0100; stroke: #fa0100"/>
     <use xlink:href="#mf2ac964718" x="427.727093" y="274.039591" style="fill: #fa0100; stroke: #fa0100"/>
    </g>
   </g>
   <g id="line2d_35">
    <path d="M 58.974719 198.334545 
L 64.589724 212.478744 
L 70.199039 298.625455 
L 79.560226 286.80698 
L 92.665799 286.996835 
L 109.515008 283.247199 
L 130.107403 281.016402 
L 154.442986 279.545026 
L 182.521906 277.504085 
L 214.344463 274.039231 
L 219.972945 252.253368 
L 229.326645 237.207359 
L 242.426078 225.626203 
L 259.270345 217.842148 
L 279.858698 213.333091 
L 377.182013 209.156281 
L 382.797467 212.716062 
L 388.408429 278.07365 
L 397.770515 280.446837 
L 410.876687 271.760971 
L 427.727093 268.201189 
" clip-path="url(#pc79c08a817)" style="fill: none; stroke: #0071ad; stroke-width: 1.5; stroke-linecap: square"/>
    <defs>
     <path id="mc2a6634068" d="M 0 -3 
L -3 3 
L 3 3 
z
" style="stroke: #0071ad; stroke-linejoin: miter"/>
    </defs>
    <g clip-path="url(#pc79c08a817)">
     <use xlink:href="#mc2a6634068" x="58.974719" y="198.334545" style="fill: #0071ad; stroke: #0071ad; stroke-linejoin: miter"/>
     <use xlink:href="#mc2a6634068" x="64.589724" y="212.478744" style="fill: #0071ad; stroke: #0071ad; stroke-linejoin: miter"/>
     <use xlink:href="#mc2a6634068" x="70.199039" y="298.625455" style="fill: #0071ad; stroke: #0071ad; stroke-linejoin: miter"/>
     <use xlink:href="#mc2a6634068" x="79.560226" y="286.80698" style="fill: #0071ad; stroke: #0071ad; stroke-linejoin: miter"/>
     <use xlink:href="#mc2a6634068" x="92.665799" y="286.996835" style="fill: #0071ad; stroke: #0071ad; stroke-linejoin: miter"/>
     <use xlink:href="#mc2a6634068" x="109.515008" y="283.247199" style="fill: #0071ad; stroke: #0071ad; stroke-linejoin: miter"/>
     <use xlink:href="#mc2a6634068" x="130.107403" y="281.016402" style="fill: #0071ad; stroke: #0071ad; stroke-linejoin: miter"/>
     <use xlink:href="#mc2a6634068" x="154.442986" y="279.545026" style="fill: #0071ad; stroke: #0071ad; stroke-linejoin: miter"/>
     <use xlink:href="#mc2a6634068" x="182.521906" y="277.504085" style="fill: #0071ad; stroke: #0071ad; stroke-linejoin: miter"/>
     <use xlink:href="#mc2a6634068" x="214.344463" y="274.039231" style="fill: #0071ad; stroke: #0071ad; stroke-linejoin: miter"/>
     <use xlink:href="#mc2a6634068" x="219.972945" y="252.253368" style="fill: #0071ad; stroke: #0071ad; stroke-linejoin: miter"/>
     <use xlink:href="#mc2a6634068" x="229.326645" y="237.207359" style="fill: #0071ad; stroke: #0071ad; stroke-linejoin: miter"/>
     <use xlink:href="#mc2a6634068" x="242.426078" y="225.626203" style="fill: #0071ad; stroke: #0071ad; stroke-linejoin: miter"/>
     <use xlink:href="#mc2a6634068" x="259.270345" y="217.842148" style="fill: #0071ad; stroke: #0071ad; stroke-linejoin: miter"/>
     <use xlink:href="#mc2a6634068" x="279.858698" y="213.333091" style="fill: #0071ad; stroke: #0071ad; stroke-linejoin: miter"/>
     <use xlink:href="#mc2a6634068" x="377.182013" y="209.156281" style="fill: #0071ad; stroke: #0071ad; stroke-linejoin: miter"/>
     <use xlink:href="#mc2a6634068" x="382.797467" y="212.716062" style="fill: #0071ad; stroke: #0071ad; stroke-linejoin: miter"/>
     <use xlink:href="#mc2a6634068" x="388.408429" y="278.07365" style="fill: #0071ad; stroke: #0071ad; stroke-linejoin: miter"/>
     <use xlink:href="#mc2a6634068" x="397.770515" y="280.446837" style="fill: #0071ad; stroke: #0071ad; stroke-linejoin: miter"/>
     <use xlink:href="#mc2a6634068" x="410.876687" y="271.760971" style="fill: #0071ad; stroke: #0071ad; stroke-linejoin: miter"/>
     <use xlink:href="#mc2a6634068" x="427.727093" y="268.201189" style="fill: #0071ad; stroke: #0071ad; stroke-linejoin: miter"/>
    </g>
   </g>
   <g id="patch_17">
    <path d="M 47.72 303.64 
L 47.72 193.32 
" style="fill: none; stroke: #000000; stroke-width: 0.8; stroke-linejoin: miter; stroke-linecap: square"/>
   </g>
   <g id="patch_18">
    <path d="M 438.93 303.64 
L 438.93 193.32 
" style="fill: none; stroke: #000000; stroke-width: 0.8; stroke-linejoin: miter; stroke-linecap: square"/>
   </g>
   <g id="patch_19">
    <path d="M 47.72 303.64 
L 438.93 303.64 
" style="fill: none; stroke: #000000; stroke-width: 0.8; stroke-linejoin: miter; stroke-linecap: square"/>
   </g>
   <g id="patch_20">
    <path d="M 47.72 193.32 
L 438.93 193.32 
" style="fill: none; stroke: #000000; stroke-width: 0.8; stroke-linejoin: miter; stroke-linecap: square"/>
   </g>
   <g id="legend_2">
    <g id="patch_21">
     <path d="M 95.423636 237.21658 
L 172.223636 237.21658 
Q 173.823636 237.21658 173.823636 235.61658 
L 173.823636 212.93158 
Q 173.823636 211.33158 172.223636 211.33158 
L 95.423636 211.33158 
Q 93.823636 211.33158 93.823636 212.93158 
L 93.823636 235.61658 
Q 93.823636 237.21658 95.423636 237.21658 
z
" style="fill: #ffffff; stroke: #000000; stroke-linejoin: miter"/>
    </g>
    <g id="line2d_36">
     <path d="M 97.023636 217.81033 
L 105.023636 217.81033 
L 113.023636 217.81033 
" style="fill: none; stroke: #fa0100; stroke-width: 1.5; stroke-linecap: square"/>
     <g>
      <use xlink:href="#mf2ac964718" x="105.023636" y="217.81033" style="fill: #fa0100; stroke: #fa0100"/>
     </g>
    </g>
    <g id="text_25">
     <!-- Simulation -->
     <g transform="translate(119.423636 220.61033) scale(0.08 -0.08)">
      <use xlink:href="#DejaVuSans-53"/>
      <use xlink:href="#DejaVuSans-69" transform="translate(63.476562 0)"/>
      <use xlink:href="#DejaVuSans-6d" transform="translate(91.259766 0)"/>
      <use xlink:href="#DejaVuSans-75" transform="translate(188.671875 0)"/>
      <use xlink:href="#DejaVuSans-6c" transform="translate(252.050781 0)"/>
      <use xlink:href="#DejaVuSans-61" transform="translate(279.833984 0)"/>
      <use xlink:href="#DejaVuSans-74" transform="translate(341.113281 0)"/>
      <use xlink:href="#DejaVuSans-69" transform="translate(380.322266 0)"/>
      <use xlink:href="#DejaVuSans-6f" transform="translate(408.105469 0)"/>
      <use xlink:href="#DejaVuSans-6e" transform="translate(469.287109 0)"/>
     </g>
    </g>
    <g id="line2d_37">
     <path d="M 97.023636 229.55283 
L 105.023636 229.55283 
L 113.023636 229.55283 
" style="fill: none; stroke: #0071ad; stroke-width: 1.5; stroke-linecap: square"/>
     <g>
      <use xlink:href="#mc2a6634068" x="105.023636" y="229.55283" style="fill: #0071ad; stroke: #0071ad; stroke-linejoin: miter"/>
     </g>
    </g>
    <g id="text_26">
     <!-- $\mathrm{F_S}$ measured -->
     <g transform="translate(119.423636 232.35283) scale(0.08 -0.08)">
      <use xlink:href="#DejaVuSans-46" transform="translate(0 0.015625)"/>
      <use xlink:href="#DejaVuSans-53" transform="translate(58.476562 -16.390625) scale(0.7)"/>
      <use xlink:href="#DejaVuSans-20" transform="translate(105.644531 0.015625)"/>
      <use xlink:href="#DejaVuSans-6d" transform="translate(137.431641 0.015625)"/>
      <use xlink:href="#DejaVuSans-65" transform="translate(234.84375 0.015625)"/>
      <use xlink:href="#DejaVuSans-61" transform="translate(296.367188 0.015625)"/>
      <use xlink:href="#DejaVuSans-73" transform="translate(357.646484 0.015625)"/>
      <use xlink:href="#DejaVuSans-75" transform="translate(409.746094 0.015625)"/>
      <use xlink:href="#DejaVuSans-72" transform="translate(473.125 0.015625)"/>
      <use xlink:href="#DejaVuSans-65" transform="translate(514.238281 0.015625)"/>
      <use xlink:href="#DejaVuSans-64" transform="translate(575.761719 0.015625)"/>
     </g>
    </g>
   </g>
  </g>
 </g>
 <defs>
  <clipPath id="peb913fde96">
   <rect x="47.72" y="25.92" width="391.21" height="110.32"/>
  </clipPath>
  <clipPath id="pc79c08a817">
   <rect x="47.72" y="193.32" width="391.21" height="110.32"/>
  </clipPath>
 </defs>
</svg>
