<?xml version="1.0" encoding="utf-8" standalone="no"?>
<!DOCTYPE svg PUBLIC "-//W3C//DTD SVG 1.1//EN"
  "http://www.w3.org/Graphics/SVG/1.1/DTD/svg11.dtd">
<svg xmlns:xlink="http://www.w3.org/1999/xlink" width="576pt" height="432pt" viewBox="0 0 576 432" xmlns="http://www.w3.org/2000/svg" version="1.1">
 <metadata>
  <rdf:RDF xmlns:dc="http://purl.org/dc/elements/1.1/" xmlns:cc="http://creativecommons.org/ns#" xmlns:rdf="http://www.w3.org/1999/02/22-rdf-syntax-ns#">
   <cc:Work>
    <dc:type rdf:resource="http://purl.org/dc/dcmitype/StillImage"/>
    <dc:date>2025-07-26T19:44:00.218018</dc:date>
    <dc:format>image/svg+xml</dc:format>
    <dc:creator>
     <cc:Agent>
      <dc:title>Matplotlib v3.10.3, https://matplotlib.org/</dc:title>
     </cc:Agent>
    </dc:creator>
   </cc:Work>
  </rdf:RDF>
 </metadata>
 <defs>
  <style type="text/css">*{stroke-linejoin: round; stroke-linecap: butt}</style>
 </defs>
 <g id="figure_1">
  <g id="patch_1">
   <path d="M 0 432 
L 576 432 
L 576 0 
L 0 0 
z
" style="fill: #ffffff"/>
  </g>
  <g id="axes_1">
   <g id="patch_2">
    <path d="M 77.76 191.83 
L 507.22 191.83 
L 507.22 29.88 
L 77.76 29.88 
z
" style="fill: #ffffff"/>
   </g>
   <g id="matplotlib.axis_1">
    <g id="xtick_1">
     <g id="line2d_1">
      <defs>
       <path id="m1457071b76" d="M 0 0 
L 0 3.5 
" style="stroke: #000000; stroke-width: 0.8"/>
      </defs>
      <g>
       <use xlink:href="#m1457071b76" x="97.280909" y="191.83" style="stroke: #000000; stroke-width: 0.8"/>
      </g>
     </g>
    </g>
    <g id="xtick_2">
     <g id="line2d_2">
      <g>
       <use xlink:href="#m1457071b76" x="162.350606" y="191.83" style="stroke: #000000; stroke-width: 0.8"/>
      </g>
     </g>
    </g>
    <g id="xtick_3">
     <g id="line2d_3">
      <g>
       <use xlink:href="#m1457071b76" x="227.420303" y="191.83" style="stroke: #000000; stroke-width: 0.8"/>
      </g>
     </g>
    </g>
    <g id="xtick_4">
     <g id="line2d_4">
      <g>
       <use xlink:href="#m1457071b76" x="292.49" y="191.83" style="stroke: #000000; stroke-width: 0.8"/>
      </g>
     </g>
    </g>
    <g id="xtick_5">
     <g id="line2d_5">
      <g>
       <use xlink:href="#m1457071b76" x="357.559697" y="191.83" style="stroke: #000000; stroke-width: 0.8"/>
      </g>
     </g>
    </g>
    <g id="xtick_6">
     <g id="line2d_6">
      <g>
       <use xlink:href="#m1457071b76" x="422.629394" y="191.83" style="stroke: #000000; stroke-width: 0.8"/>
      </g>
     </g>
    </g>
    <g id="xtick_7">
     <g id="line2d_7">
      <g>
       <use xlink:href="#m1457071b76" x="487.699091" y="191.83" style="stroke: #000000; stroke-width: 0.8"/>
      </g>
     </g>
    </g>
   </g>
   <g id="matplotlib.axis_2">
    <g id="ytick_1">
     <g id="line2d_8">
      <defs>
       <path id="md32e5e5168" d="M 0 0 
L -3.5 0 
" style="stroke: #000000; stroke-width: 0.8"/>
      </defs>
      <g>
       <use xlink:href="#md32e5e5168" x="77.76" y="186.60703" style="stroke: #000000; stroke-width: 0.8"/>
      </g>
     </g>
     <g id="text_1">
      <!-- 0 -->
      <g transform="translate(64.3975 190.406249) scale(0.1 -0.1)">
       <defs>
        <path id="DejaVuSans-30" d="M 2034 4250 
Q 1547 4250 1301 3770 
Q 1056 3291 1056 2328 
Q 1056 1369 1301 889 
Q 1547 409 2034 409 
Q 2525 409 2770 889 
Q 3016 1369 3016 2328 
Q 3016 3291 2770 3770 
Q 2525 4250 2034 4250 
z
M 2034 4750 
Q 2819 4750 3233 4129 
Q 3647 3509 3647 2328 
Q 3647 1150 3233 529 
Q 2819 -91 2034 -91 
Q 1250 -91 836 529 
Q 422 1150 422 2328 
Q 422 3509 836 4129 
Q 1250 4750 2034 4750 
z
" transform="scale(0.015625)"/>
       </defs>
       <use xlink:href="#DejaVuSans-30"/>
      </g>
     </g>
    </g>
    <g id="ytick_2">
     <g id="line2d_9">
      <g>
       <use xlink:href="#md32e5e5168" x="77.76" y="165.932739" style="stroke: #000000; stroke-width: 0.8"/>
      </g>
     </g>
     <g id="text_2">
      <!-- 100 -->
      <g transform="translate(51.6725 169.731957) scale(0.1 -0.1)">
       <defs>
        <path id="DejaVuSans-31" d="M 794 531 
L 1825 531 
L 1825 4091 
L 703 3866 
L 703 4441 
L 1819 4666 
L 2450 4666 
L 2450 531 
L 3481 531 
L 3481 0 
L 794 0 
L 794 531 
z
" transform="scale(0.015625)"/>
       </defs>
       <use xlink:href="#DejaVuSans-31"/>
       <use xlink:href="#DejaVuSans-30" transform="translate(63.623047 0)"/>
       <use xlink:href="#DejaVuSans-30" transform="translate(127.246094 0)"/>
      </g>
     </g>
    </g>
    <g id="ytick_3">
     <g id="line2d_10">
      <g>
       <use xlink:href="#md32e5e5168" x="77.76" y="145.258447" style="stroke: #000000; stroke-width: 0.8"/>
      </g>
     </g>
     <g id="text_3">
      <!-- 200 -->
      <g transform="translate(51.6725 149.057666) scale(0.1 -0.1)">
       <defs>
        <path id="DejaVuSans-32" d="M 1228 531 
L 3431 531 
L 3431 0 
L 469 0 
L 469 531 
Q 828 903 1448 1529 
Q 2069 2156 2228 2338 
Q 2531 2678 2651 2914 
Q 2772 3150 2772 3378 
Q 2772 3750 2511 3984 
Q 2250 4219 1831 4219 
Q 1534 4219 1204 4116 
Q 875 4013 500 3803 
L 500 4441 
Q 881 4594 1212 4672 
Q 1544 4750 1819 4750 
Q 2544 4750 2975 4387 
Q 3406 4025 3406 3419 
Q 3406 3131 3298 2873 
Q 3191 2616 2906 2266 
Q 2828 2175 2409 1742 
Q 1991 1309 1228 531 
z
" transform="scale(0.015625)"/>
       </defs>
       <use xlink:href="#DejaVuSans-32"/>
       <use xlink:href="#DejaVuSans-30" transform="translate(63.623047 0)"/>
       <use xlink:href="#DejaVuSans-30" transform="translate(127.246094 0)"/>
      </g>
     </g>
    </g>
    <g id="ytick_4">
     <g id="line2d_11">
      <g>
       <use xlink:href="#md32e5e5168" x="77.76" y="124.584156" style="stroke: #000000; stroke-width: 0.8"/>
      </g>
     </g>
     <g id="text_4">
      <!-- 300 -->
      <g transform="translate(51.6725 128.383374) scale(0.1 -0.1)">
       <defs>
        <path id="DejaVuSans-33" d="M 2597 2516 
Q 3050 2419 3304 2112 
Q 3559 1806 3559 1356 
Q 3559 666 3084 287 
Q 2609 -91 1734 -91 
Q 1441 -91 1130 -33 
Q 819 25 488 141 
L 488 750 
Q 750 597 1062 519 
Q 1375 441 1716 441 
Q 2309 441 2620 675 
Q 2931 909 2931 1356 
Q 2931 1769 2642 2001 
Q 2353 2234 1838 2234 
L 1294 2234 
L 1294 2753 
L 1863 2753 
Q 2328 2753 2575 2939 
Q 2822 3125 2822 3475 
Q 2822 3834 2567 4026 
Q 2313 4219 1838 4219 
Q 1578 4219 1281 4162 
Q 984 4106 628 3988 
L 628 4550 
Q 988 4650 1302 4700 
Q 1616 4750 1894 4750 
Q 2613 4750 3031 4423 
Q 3450 4097 3450 3541 
Q 3450 3153 3228 2886 
Q 3006 2619 2597 2516 
z
" transform="scale(0.015625)"/>
       </defs>
       <use xlink:href="#DejaVuSans-33"/>
       <use xlink:href="#DejaVuSans-30" transform="translate(63.623047 0)"/>
       <use xlink:href="#DejaVuSans-30" transform="translate(127.246094 0)"/>
      </g>
     </g>
    </g>
    <g id="ytick_5">
     <g id="line2d_12">
      <g>
       <use xlink:href="#md32e5e5168" x="77.76" y="103.909864" style="stroke: #000000; stroke-width: 0.8"/>
      </g>
     </g>
     <g id="text_5">
      <!-- 400 -->
      <g transform="translate(51.6725 107.709083) scale(0.1 -0.1)">
       <defs>
        <path id="DejaVuSans-34" d="M 2419 4116 
L 825 1625 
L 2419 1625 
L 2419 4116 
z
M 2253 4666 
L 3047 4666 
L 3047 1625 
L 3713 1625 
L 3713 1100 
L 3047 1100 
L 3047 0 
L 2419 0 
L 2419 1100 
L 313 1100 
L 313 1709 
L 2253 4666 
z
" transform="scale(0.015625)"/>
       </defs>
       <use xlink:href="#DejaVuSans-34"/>
       <use xlink:href="#DejaVuSans-30" transform="translate(63.623047 0)"/>
       <use xlink:href="#DejaVuSans-30" transform="translate(127.246094 0)"/>
      </g>
     </g>
    </g>
    <g id="ytick_6">
     <g id="line2d_13">
      <g>
       <use xlink:href="#md32e5e5168" x="77.76" y="83.235573" style="stroke: #000000; stroke-width: 0.8"/>
      </g>
     </g>
     <g id="text_6">
      <!-- 500 -->
      <g transform="translate(51.6725 87.034791) scale(0.1 -0.1)">
       <defs>
        <path id="DejaVuSans-35" d="M 691 4666 
L 3169 4666 
L 3169 4134 
L 1269 4134 
L 1269 2991 
Q 1406 3038 1543 3061 
Q 1681 3084 1819 3084 
Q 2600 3084 3056 2656 
Q 3513 2228 3513 1497 
Q 3513 744 3044 326 
Q 2575 -91 1722 -91 
Q 1428 -91 1123 -41 
Q 819 9 494 109 
L 494 744 
Q 775 591 1075 516 
Q 1375 441 1709 441 
Q 2250 441 2565 725 
Q 2881 1009 2881 1497 
Q 2881 1984 2565 2268 
Q 2250 2553 1709 2553 
Q 1456 2553 1204 2497 
Q 953 2441 691 2322 
L 691 4666 
z
" transform="scale(0.015625)"/>
       </defs>
       <use xlink:href="#DejaVuSans-35"/>
       <use xlink:href="#DejaVuSans-30" transform="translate(63.623047 0)"/>
       <use xlink:href="#DejaVuSans-30" transform="translate(127.246094 0)"/>
      </g>
     </g>
    </g>
    <g id="ytick_7">
     <g id="line2d_14">
      <g>
       <use xlink:href="#md32e5e5168" x="77.76" y="62.561281" style="stroke: #000000; stroke-width: 0.8"/>
      </g>
     </g>
     <g id="text_7">
      <!-- 600 -->
      <g transform="translate(51.6725 66.3605) scale(0.1 -0.1)">
       <defs>
        <path id="DejaVuSans-36" d="M 2113 2584 
Q 1688 2584 1439 2293 
Q 1191 2003 1191 1497 
Q 1191 994 1439 701 
Q 1688 409 2113 409 
Q 2538 409 2786 701 
Q 3034 994 3034 1497 
Q 3034 2003 2786 2293 
Q 2538 2584 2113 2584 
z
M 3366 4563 
L 3366 3988 
Q 3128 4100 2886 4159 
Q 2644 4219 2406 4219 
Q 1781 4219 1451 3797 
Q 1122 3375 1075 2522 
Q 1259 2794 1537 2939 
Q 1816 3084 2150 3084 
Q 2853 3084 3261 2657 
Q 3669 2231 3669 1497 
Q 3669 778 3244 343 
Q 2819 -91 2113 -91 
Q 1303 -91 875 529 
Q 447 1150 447 2328 
Q 447 3434 972 4092 
Q 1497 4750 2381 4750 
Q 2619 4750 2861 4703 
Q 3103 4656 3366 4563 
z
" transform="scale(0.015625)"/>
       </defs>
       <use xlink:href="#DejaVuSans-36"/>
       <use xlink:href="#DejaVuSans-30" transform="translate(63.623047 0)"/>
       <use xlink:href="#DejaVuSans-30" transform="translate(127.246094 0)"/>
      </g>
     </g>
    </g>
    <g id="ytick_8">
     <g id="line2d_15">
      <g>
       <use xlink:href="#md32e5e5168" x="77.76" y="41.88699" style="stroke: #000000; stroke-width: 0.8"/>
      </g>
     </g>
     <g id="text_8">
      <!-- 700 -->
      <g transform="translate(51.6725 45.686209) scale(0.1 -0.1)">
       <defs>
        <path id="DejaVuSans-37" d="M 525 4666 
L 3525 4666 
L 3525 4397 
L 1831 0 
L 1172 0 
L 2766 4134 
L 525 4134 
L 525 4666 
z
" transform="scale(0.015625)"/>
       </defs>
       <use xlink:href="#DejaVuSans-37"/>
       <use xlink:href="#DejaVuSans-30" transform="translate(63.623047 0)"/>
       <use xlink:href="#DejaVuSans-30" transform="translate(127.246094 0)"/>
      </g>
     </g>
    </g>
    <g id="text_9">
     <!-- mmol e$^-$ / mol Chl / s -->
     <g transform="translate(45.592812 165.505) rotate(-90) scale(0.1 -0.1)">
      <defs>
       <path id="DejaVuSans-6d" d="M 3328 2828 
Q 3544 3216 3844 3400 
Q 4144 3584 4550 3584 
Q 5097 3584 5394 3201 
Q 5691 2819 5691 2113 
L 5691 0 
L 5113 0 
L 5113 2094 
Q 5113 2597 4934 2840 
Q 4756 3084 4391 3084 
Q 3944 3084 3684 2787 
Q 3425 2491 3425 1978 
L 3425 0 
L 2847 0 
L 2847 2094 
Q 2847 2600 2669 2842 
Q 2491 3084 2119 3084 
Q 1678 3084 1418 2786 
Q 1159 2488 1159 1978 
L 1159 0 
L 581 0 
L 581 3500 
L 1159 3500 
L 1159 2956 
Q 1356 3278 1631 3431 
Q 1906 3584 2284 3584 
Q 2666 3584 2933 3390 
Q 3200 3197 3328 2828 
z
" transform="scale(0.015625)"/>
       <path id="DejaVuSans-6f" d="M 1959 3097 
Q 1497 3097 1228 2736 
Q 959 2375 959 1747 
Q 959 1119 1226 758 
Q 1494 397 1959 397 
Q 2419 397 2687 759 
Q 2956 1122 2956 1747 
Q 2956 2369 2687 2733 
Q 2419 3097 1959 3097 
z
M 1959 3584 
Q 2709 3584 3137 3096 
Q 3566 2609 3566 1747 
Q 3566 888 3137 398 
Q 2709 -91 1959 -91 
Q 1206 -91 779 398 
Q 353 888 353 1747 
Q 353 2609 779 3096 
Q 1206 3584 1959 3584 
z
" transform="scale(0.015625)"/>
       <path id="DejaVuSans-6c" d="M 603 4863 
L 1178 4863 
L 1178 0 
L 603 0 
L 603 4863 
z
" transform="scale(0.015625)"/>
       <path id="DejaVuSans-20" transform="scale(0.015625)"/>
       <path id="DejaVuSans-65" d="M 3597 1894 
L 3597 1613 
L 953 1613 
Q 991 1019 1311 708 
Q 1631 397 2203 397 
Q 2534 397 2845 478 
Q 3156 559 3463 722 
L 3463 178 
Q 3153 47 2828 -22 
Q 2503 -91 2169 -91 
Q 1331 -91 842 396 
Q 353 884 353 1716 
Q 353 2575 817 3079 
Q 1281 3584 2069 3584 
Q 2775 3584 3186 3129 
Q 3597 2675 3597 1894 
z
M 3022 2063 
Q 3016 2534 2758 2815 
Q 2500 3097 2075 3097 
Q 1594 3097 1305 2825 
Q 1016 2553 972 2059 
L 3022 2063 
z
" transform="scale(0.015625)"/>
       <path id="DejaVuSans-2212" d="M 678 2272 
L 4684 2272 
L 4684 1741 
L 678 1741 
L 678 2272 
z
" transform="scale(0.015625)"/>
       <path id="DejaVuSans-2f" d="M 1625 4666 
L 2156 4666 
L 531 -594 
L 0 -594 
L 1625 4666 
z
" transform="scale(0.015625)"/>
       <path id="DejaVuSans-43" d="M 4122 4306 
L 4122 3641 
Q 3803 3938 3442 4084 
Q 3081 4231 2675 4231 
Q 1875 4231 1450 3742 
Q 1025 3253 1025 2328 
Q 1025 1406 1450 917 
Q 1875 428 2675 428 
Q 3081 428 3442 575 
Q 3803 722 4122 1019 
L 4122 359 
Q 3791 134 3420 21 
Q 3050 -91 2638 -91 
Q 1578 -91 968 557 
Q 359 1206 359 2328 
Q 359 3453 968 4101 
Q 1578 4750 2638 4750 
Q 3056 4750 3426 4639 
Q 3797 4528 4122 4306 
z
" transform="scale(0.015625)"/>
       <path id="DejaVuSans-68" d="M 3513 2113 
L 3513 0 
L 2938 0 
L 2938 2094 
Q 2938 2591 2744 2837 
Q 2550 3084 2163 3084 
Q 1697 3084 1428 2787 
Q 1159 2491 1159 1978 
L 1159 0 
L 581 0 
L 581 4863 
L 1159 4863 
L 1159 2956 
Q 1366 3272 1645 3428 
Q 1925 3584 2291 3584 
Q 2894 3584 3203 3211 
Q 3513 2838 3513 2113 
z
" transform="scale(0.015625)"/>
       <path id="DejaVuSans-73" d="M 2834 3397 
L 2834 2853 
Q 2591 2978 2328 3040 
Q 2066 3103 1784 3103 
Q 1356 3103 1142 2972 
Q 928 2841 928 2578 
Q 928 2378 1081 2264 
Q 1234 2150 1697 2047 
L 1894 2003 
Q 2506 1872 2764 1633 
Q 3022 1394 3022 966 
Q 3022 478 2636 193 
Q 2250 -91 1575 -91 
Q 1294 -91 989 -36 
Q 684 19 347 128 
L 347 722 
Q 666 556 975 473 
Q 1284 391 1588 391 
Q 1994 391 2212 530 
Q 2431 669 2431 922 
Q 2431 1156 2273 1281 
Q 2116 1406 1581 1522 
L 1381 1569 
Q 847 1681 609 1914 
Q 372 2147 372 2553 
Q 372 3047 722 3315 
Q 1072 3584 1716 3584 
Q 2034 3584 2315 3537 
Q 2597 3491 2834 3397 
z
" transform="scale(0.015625)"/>
      </defs>
      <use xlink:href="#DejaVuSans-6d" transform="translate(0 0.015625)"/>
      <use xlink:href="#DejaVuSans-6d" transform="translate(97.412109 0.015625)"/>
      <use xlink:href="#DejaVuSans-6f" transform="translate(194.824219 0.015625)"/>
      <use xlink:href="#DejaVuSans-6c" transform="translate(256.005859 0.015625)"/>
      <use xlink:href="#DejaVuSans-20" transform="translate(283.789062 0.015625)"/>
      <use xlink:href="#DejaVuSans-65" transform="translate(315.576172 0.015625)"/>
      <use xlink:href="#DejaVuSans-2212" transform="translate(391.694336 38.296875) scale(0.7)"/>
      <use xlink:href="#DejaVuSans-20" transform="translate(466.71875 0.015625)"/>
      <use xlink:href="#DejaVuSans-2f" transform="translate(498.505859 0.015625)"/>
      <use xlink:href="#DejaVuSans-20" transform="translate(532.197266 0.015625)"/>
      <use xlink:href="#DejaVuSans-6d" transform="translate(563.984375 0.015625)"/>
      <use xlink:href="#DejaVuSans-6f" transform="translate(661.396484 0.015625)"/>
      <use xlink:href="#DejaVuSans-6c" transform="translate(722.578125 0.015625)"/>
      <use xlink:href="#DejaVuSans-20" transform="translate(750.361328 0.015625)"/>
      <use xlink:href="#DejaVuSans-43" transform="translate(782.148438 0.015625)"/>
      <use xlink:href="#DejaVuSans-68" transform="translate(851.972656 0.015625)"/>
      <use xlink:href="#DejaVuSans-6c" transform="translate(915.351562 0.015625)"/>
      <use xlink:href="#DejaVuSans-20" transform="translate(943.134766 0.015625)"/>
      <use xlink:href="#DejaVuSans-2f" transform="translate(974.921875 0.015625)"/>
      <use xlink:href="#DejaVuSans-20" transform="translate(1008.613281 0.015625)"/>
      <use xlink:href="#DejaVuSans-73" transform="translate(1040.400391 0.015625)"/>
     </g>
    </g>
   </g>
   <g id="line2d_16">
    <path d="M 97.280909 114.214986 
L 105.248627 112.89229 
L 113.216345 111.408581 
L 121.184063 109.73916 
L 129.151781 107.854203 
L 137.119499 105.718655 
L 145.087217 103.289377 
L 153.054935 100.513583 
L 161.022653 97.326473 
L 168.990371 93.648261 
L 176.958089 89.381083 
L 184.925807 84.407983 
L 192.893525 78.595917 
L 200.861243 70.799342 
L 208.828961 58.975604 
L 216.796679 48.901145 
L 224.764397 47.574818 
L 232.732115 41.605494 
L 240.699833 38.569365 
L 248.667551 37.493587 
L 256.635269 37.241364 
L 264.602987 37.577 
L 272.570705 38.839616 
L 280.538423 39.723479 
L 288.506141 40.445211 
L 296.473859 41.617653 
L 304.441577 42.984986 
L 312.409295 44.497821 
L 320.377013 46.136871 
L 328.344731 47.891026 
L 336.312449 49.751714 
L 344.280167 51.710909 
L 352.247885 53.760321 
L 360.215603 55.891082 
L 368.183321 58.093682 
L 376.151039 60.358049 
L 384.118757 62.673705 
L 392.086475 65.029967 
L 400.054193 67.416166 
L 408.021911 69.821854 
L 415.989629 72.236994 
L 423.957347 74.652112 
L 431.925065 77.058422 
L 439.892783 79.447907 
L 447.860501 81.813369 
L 455.828219 84.148452 
L 463.795937 86.447634 
L 471.763655 88.706204 
L 479.731373 90.920224 
L 487.699091 93.086477 
" clip-path="url(#p2ad36aac0e)" style="fill: none; stroke: #1f77b4; stroke-width: 2; stroke-linecap: square"/>
   </g>
   <g id="line2d_17">
    <path d="M 97.280909 118.025248 
L 105.248627 117.156217 
L 113.216345 116.182707 
L 121.184063 115.08906 
L 129.151781 113.856495 
L 137.119499 112.463076 
L 145.087217 110.882092 
L 153.054935 109.08126 
L 161.022653 107.021597 
L 168.990371 104.656194 
L 176.958089 101.929466 
L 184.925807 98.778758 
L 192.893525 95.140804 
L 200.861243 90.210802 
L 208.828961 83.277711 
L 216.796679 77.613154 
L 224.764397 77.510467 
L 232.732115 75.105959 
L 240.699833 74.309833 
L 248.667551 74.238222 
L 256.635269 74.42478 
L 264.602987 74.917816 
L 272.570705 76.054135 
L 280.538423 77.254654 
L 288.506141 78.242895 
L 296.473859 79.388226 
L 304.441577 80.632861 
L 312.409295 81.966602 
L 320.377013 83.385174 
L 328.344731 84.885203 
L 336.312449 86.462979 
L 344.280167 88.114057 
L 352.247885 89.833144 
L 360.215603 91.614121 
L 368.183321 93.45014 
L 376.151039 95.333767 
L 384.118757 97.257165 
L 392.086475 99.212278 
L 400.054193 101.191023 
L 408.021911 103.185461 
L 415.989629 105.187952 
L 423.957347 107.19128 
L 431.925065 109.188748 
L 439.892783 111.174243 
L 447.860501 113.142276 
L 455.828219 115.087999 
L 463.795937 117.007203 
L 471.763655 118.896295 
L 479.731373 120.752273 
L 487.699091 122.572683 
" clip-path="url(#p2ad36aac0e)" style="fill: none; stroke: #ff7f0e; stroke-width: 2; stroke-linecap: square"/>
   </g>
   <g id="line2d_18">
    <path d="M 97.280909 184.468636 
L 105.248627 184.242688 
L 113.216345 183.988582 
L 121.184063 183.701815 
L 129.151781 183.376888 
L 137.119499 183.007264 
L 145.087217 182.584761 
L 153.054935 182.099165 
L 161.022653 181.537616 
L 168.990371 180.883736 
L 176.958089 180.116462 
L 184.925807 179.208738 
L 192.893525 178.125796 
L 200.861243 176.572222 
L 208.828961 174.201641 
L 216.796679 172.077103 
L 224.764397 171.453837 
L 232.732115 169.676362 
L 240.699833 168.559038 
L 248.667551 168.058211 
L 256.635269 167.839663 
L 264.602987 167.762105 
L 272.570705 167.827523 
L 280.538423 167.670451 
L 288.506141 167.535716 
L 296.473859 167.547573 
L 304.441577 167.607098 
L 312.409295 167.694713 
L 320.377013 167.802924 
L 328.344731 167.92787 
L 336.312449 168.067128 
L 344.280167 168.218918 
L 352.247885 168.381749 
L 360.215603 168.554258 
L 368.183321 168.735126 
L 376.151039 168.923042 
L 384.118757 169.116697 
L 392.086475 169.314787 
L 400.054193 169.51603 
L 408.021911 169.719179 
L 415.989629 169.923043 
L 423.957347 170.126502 
L 431.925065 170.328516 
L 439.892783 170.528139 
L 447.860501 170.724521 
L 455.828219 170.91691 
L 463.795937 171.104656 
L 471.763655 171.287199 
L 479.731373 171.464075 
L 487.699091 171.634902 
" clip-path="url(#p2ad36aac0e)" style="fill: none; stroke: #2ca02c; stroke-width: 2; stroke-linecap: square"/>
   </g>
   <g id="patch_3">
    <path d="M 77.76 191.83 
L 77.76 29.88 
" style="fill: none; stroke: #000000; stroke-width: 0.8; stroke-linejoin: miter; stroke-linecap: square"/>
   </g>
   <g id="patch_4">
    <path d="M 507.22 191.83 
L 507.22 29.88 
" style="fill: none; stroke: #000000; stroke-width: 0.8; stroke-linejoin: miter; stroke-linecap: square"/>
   </g>
   <g id="patch_5">
    <path d="M 77.76 191.83 
L 507.22 191.83 
" style="fill: none; stroke: #000000; stroke-width: 0.8; stroke-linejoin: miter; stroke-linecap: square"/>
   </g>
   <g id="patch_6">
    <path d="M 77.76 29.88 
L 507.22 29.88 
" style="fill: none; stroke: #000000; stroke-width: 0.8; stroke-linejoin: miter; stroke-linecap: square"/>
   </g>
   <g id="text_10">
    <!-- A -->
    <g transform="translate(13.341 21.7825) scale(0.15 -0.15)">
     <defs>
      <path id="DejaVuSans-Bold-41" d="M 3419 850 
L 1538 850 
L 1241 0 
L 31 0 
L 1759 4666 
L 3194 4666 
L 4922 0 
L 3713 0 
L 3419 850 
z
M 1838 1716 
L 3116 1716 
L 2478 3572 
L 1838 1716 
z
" transform="scale(0.015625)"/>
     </defs>
     <use xlink:href="#DejaVuSans-Bold-41"/>
    </g>
   </g>
   <g id="text_11">
    <!-- Photosynthetic Electron Fluxes -->
    <g transform="translate(200.209063 23.88) scale(0.12 -0.12)">
     <defs>
      <path id="DejaVuSans-50" d="M 1259 4147 
L 1259 2394 
L 2053 2394 
Q 2494 2394 2734 2622 
Q 2975 2850 2975 3272 
Q 2975 3691 2734 3919 
Q 2494 4147 2053 4147 
L 1259 4147 
z
M 628 4666 
L 2053 4666 
Q 2838 4666 3239 4311 
Q 3641 3956 3641 3272 
Q 3641 2581 3239 2228 
Q 2838 1875 2053 1875 
L 1259 1875 
L 1259 0 
L 628 0 
L 628 4666 
z
" transform="scale(0.015625)"/>
      <path id="DejaVuSans-74" d="M 1172 4494 
L 1172 3500 
L 2356 3500 
L 2356 3053 
L 1172 3053 
L 1172 1153 
Q 1172 725 1289 603 
Q 1406 481 1766 481 
L 2356 481 
L 2356 0 
L 1766 0 
Q 1100 0 847 248 
Q 594 497 594 1153 
L 594 3053 
L 172 3053 
L 172 3500 
L 594 3500 
L 594 4494 
L 1172 4494 
z
" transform="scale(0.015625)"/>
      <path id="DejaVuSans-79" d="M 2059 -325 
Q 1816 -950 1584 -1140 
Q 1353 -1331 966 -1331 
L 506 -1331 
L 506 -850 
L 844 -850 
Q 1081 -850 1212 -737 
Q 1344 -625 1503 -206 
L 1606 56 
L 191 3500 
L 800 3500 
L 1894 763 
L 2988 3500 
L 3597 3500 
L 2059 -325 
z
" transform="scale(0.015625)"/>
      <path id="DejaVuSans-6e" d="M 3513 2113 
L 3513 0 
L 2938 0 
L 2938 2094 
Q 2938 2591 2744 2837 
Q 2550 3084 2163 3084 
Q 1697 3084 1428 2787 
Q 1159 2491 1159 1978 
L 1159 0 
L 581 0 
L 581 3500 
L 1159 3500 
L 1159 2956 
Q 1366 3272 1645 3428 
Q 1925 3584 2291 3584 
Q 2894 3584 3203 3211 
Q 3513 2838 3513 2113 
z
" transform="scale(0.015625)"/>
      <path id="DejaVuSans-69" d="M 603 3500 
L 1178 3500 
L 1178 0 
L 603 0 
L 603 3500 
z
M 603 4863 
L 1178 4863 
L 1178 4134 
L 603 4134 
L 603 4863 
z
" transform="scale(0.015625)"/>
      <path id="DejaVuSans-63" d="M 3122 3366 
L 3122 2828 
Q 2878 2963 2633 3030 
Q 2388 3097 2138 3097 
Q 1578 3097 1268 2742 
Q 959 2388 959 1747 
Q 959 1106 1268 751 
Q 1578 397 2138 397 
Q 2388 397 2633 464 
Q 2878 531 3122 666 
L 3122 134 
Q 2881 22 2623 -34 
Q 2366 -91 2075 -91 
Q 1284 -91 818 406 
Q 353 903 353 1747 
Q 353 2603 823 3093 
Q 1294 3584 2113 3584 
Q 2378 3584 2631 3529 
Q 2884 3475 3122 3366 
z
" transform="scale(0.015625)"/>
      <path id="DejaVuSans-45" d="M 628 4666 
L 3578 4666 
L 3578 4134 
L 1259 4134 
L 1259 2753 
L 3481 2753 
L 3481 2222 
L 1259 2222 
L 1259 531 
L 3634 531 
L 3634 0 
L 628 0 
L 628 4666 
z
" transform="scale(0.015625)"/>
      <path id="DejaVuSans-72" d="M 2631 2963 
Q 2534 3019 2420 3045 
Q 2306 3072 2169 3072 
Q 1681 3072 1420 2755 
Q 1159 2438 1159 1844 
L 1159 0 
L 581 0 
L 581 3500 
L 1159 3500 
L 1159 2956 
Q 1341 3275 1631 3429 
Q 1922 3584 2338 3584 
Q 2397 3584 2469 3576 
Q 2541 3569 2628 3553 
L 2631 2963 
z
" transform="scale(0.015625)"/>
      <path id="DejaVuSans-46" d="M 628 4666 
L 3309 4666 
L 3309 4134 
L 1259 4134 
L 1259 2759 
L 3109 2759 
L 3109 2228 
L 1259 2228 
L 1259 0 
L 628 0 
L 628 4666 
z
" transform="scale(0.015625)"/>
      <path id="DejaVuSans-75" d="M 544 1381 
L 544 3500 
L 1119 3500 
L 1119 1403 
Q 1119 906 1312 657 
Q 1506 409 1894 409 
Q 2359 409 2629 706 
Q 2900 1003 2900 1516 
L 2900 3500 
L 3475 3500 
L 3475 0 
L 2900 0 
L 2900 538 
Q 2691 219 2414 64 
Q 2138 -91 1772 -91 
Q 1169 -91 856 284 
Q 544 659 544 1381 
z
M 1991 3584 
L 1991 3584 
z
" transform="scale(0.015625)"/>
      <path id="DejaVuSans-78" d="M 3513 3500 
L 2247 1797 
L 3578 0 
L 2900 0 
L 1881 1375 
L 863 0 
L 184 0 
L 1544 1831 
L 300 3500 
L 978 3500 
L 1906 2253 
L 2834 3500 
L 3513 3500 
z
" transform="scale(0.015625)"/>
     </defs>
     <use xlink:href="#DejaVuSans-50"/>
     <use xlink:href="#DejaVuSans-68" transform="translate(60.302734 0)"/>
     <use xlink:href="#DejaVuSans-6f" transform="translate(123.681641 0)"/>
     <use xlink:href="#DejaVuSans-74" transform="translate(184.863281 0)"/>
     <use xlink:href="#DejaVuSans-6f" transform="translate(224.072266 0)"/>
     <use xlink:href="#DejaVuSans-73" transform="translate(285.253906 0)"/>
     <use xlink:href="#DejaVuSans-79" transform="translate(337.353516 0)"/>
     <use xlink:href="#DejaVuSans-6e" transform="translate(396.533203 0)"/>
     <use xlink:href="#DejaVuSans-74" transform="translate(459.912109 0)"/>
     <use xlink:href="#DejaVuSans-68" transform="translate(499.121094 0)"/>
     <use xlink:href="#DejaVuSans-65" transform="translate(562.5 0)"/>
     <use xlink:href="#DejaVuSans-74" transform="translate(624.023438 0)"/>
     <use xlink:href="#DejaVuSans-69" transform="translate(663.232422 0)"/>
     <use xlink:href="#DejaVuSans-63" transform="translate(691.015625 0)"/>
     <use xlink:href="#DejaVuSans-20" transform="translate(745.996094 0)"/>
     <use xlink:href="#DejaVuSans-45" transform="translate(777.783203 0)"/>
     <use xlink:href="#DejaVuSans-6c" transform="translate(840.966797 0)"/>
     <use xlink:href="#DejaVuSans-65" transform="translate(868.75 0)"/>
     <use xlink:href="#DejaVuSans-63" transform="translate(930.273438 0)"/>
     <use xlink:href="#DejaVuSans-74" transform="translate(985.253906 0)"/>
     <use xlink:href="#DejaVuSans-72" transform="translate(1024.462891 0)"/>
     <use xlink:href="#DejaVuSans-6f" transform="translate(1063.326172 0)"/>
     <use xlink:href="#DejaVuSans-6e" transform="translate(1124.507812 0)"/>
     <use xlink:href="#DejaVuSans-20" transform="translate(1187.886719 0)"/>
     <use xlink:href="#DejaVuSans-46" transform="translate(1219.673828 0)"/>
     <use xlink:href="#DejaVuSans-6c" transform="translate(1277.193359 0)"/>
     <use xlink:href="#DejaVuSans-75" transform="translate(1304.976562 0)"/>
     <use xlink:href="#DejaVuSans-78" transform="translate(1368.355469 0)"/>
     <use xlink:href="#DejaVuSans-65" transform="translate(1424.410156 0)"/>
     <use xlink:href="#DejaVuSans-73" transform="translate(1485.933594 0)"/>
    </g>
   </g>
   <g id="legend_1">
    <g id="patch_7">
     <path d="M 84.76 81.914375 
L 135.813125 81.914375 
Q 137.813125 81.914375 137.813125 79.914375 
L 137.813125 36.88 
Q 137.813125 34.88 135.813125 34.88 
L 84.76 34.88 
Q 82.76 34.88 82.76 36.88 
L 82.76 79.914375 
Q 82.76 81.914375 84.76 81.914375 
z
" style="fill: #ffffff; opacity: 0.8; stroke: #cccccc; stroke-linejoin: miter"/>
    </g>
    <g id="line2d_19">
     <path d="M 86.76 42.978437 
L 96.76 42.978437 
L 106.76 42.978437 
" style="fill: none; stroke: #1f77b4; stroke-width: 2; stroke-linecap: square"/>
    </g>
    <g id="text_12">
     <!-- PSI -->
     <g transform="translate(114.76 46.478437) scale(0.1 -0.1)">
      <defs>
       <path id="DejaVuSans-53" d="M 3425 4513 
L 3425 3897 
Q 3066 4069 2747 4153 
Q 2428 4238 2131 4238 
Q 1616 4238 1336 4038 
Q 1056 3838 1056 3469 
Q 1056 3159 1242 3001 
Q 1428 2844 1947 2747 
L 2328 2669 
Q 3034 2534 3370 2195 
Q 3706 1856 3706 1288 
Q 3706 609 3251 259 
Q 2797 -91 1919 -91 
Q 1588 -91 1214 -16 
Q 841 59 441 206 
L 441 856 
Q 825 641 1194 531 
Q 1563 422 1919 422 
Q 2459 422 2753 634 
Q 3047 847 3047 1241 
Q 3047 1584 2836 1778 
Q 2625 1972 2144 2069 
L 1759 2144 
Q 1053 2284 737 2584 
Q 422 2884 422 3419 
Q 422 4038 858 4394 
Q 1294 4750 2059 4750 
Q 2388 4750 2728 4690 
Q 3069 4631 3425 4513 
z
" transform="scale(0.015625)"/>
       <path id="DejaVuSans-49" d="M 628 4666 
L 1259 4666 
L 1259 0 
L 628 0 
L 628 4666 
z
" transform="scale(0.015625)"/>
      </defs>
      <use xlink:href="#DejaVuSans-50"/>
      <use xlink:href="#DejaVuSans-53" transform="translate(60.302734 0)"/>
      <use xlink:href="#DejaVuSans-49" transform="translate(123.779297 0)"/>
     </g>
    </g>
    <g id="line2d_20">
     <path d="M 86.76 57.656563 
L 96.76 57.656563 
L 106.76 57.656563 
" style="fill: none; stroke: #ff7f0e; stroke-width: 2; stroke-linecap: square"/>
    </g>
    <g id="text_13">
     <!-- LEF -->
     <g transform="translate(114.76 61.156563) scale(0.1 -0.1)">
      <defs>
       <path id="DejaVuSans-4c" d="M 628 4666 
L 1259 4666 
L 1259 531 
L 3531 531 
L 3531 0 
L 628 0 
L 628 4666 
z
" transform="scale(0.015625)"/>
      </defs>
      <use xlink:href="#DejaVuSans-4c"/>
      <use xlink:href="#DejaVuSans-45" transform="translate(55.712891 0)"/>
      <use xlink:href="#DejaVuSans-46" transform="translate(118.896484 0)"/>
     </g>
    </g>
    <g id="line2d_21">
     <path d="M 86.76 72.334687 
L 96.76 72.334687 
L 106.76 72.334687 
" style="fill: none; stroke: #2ca02c; stroke-width: 2; stroke-linecap: square"/>
    </g>
    <g id="text_14">
     <!-- CEF -->
     <g transform="translate(114.76 75.834687) scale(0.1 -0.1)">
      <use xlink:href="#DejaVuSans-43"/>
      <use xlink:href="#DejaVuSans-45" transform="translate(69.824219 0)"/>
      <use xlink:href="#DejaVuSans-46" transform="translate(133.007812 0)"/>
     </g>
    </g>
   </g>
  </g>
  <g id="axes_2">
   <g id="patch_8">
    <path d="M 77.76 387.16 
L 507.22 387.16 
L 507.22 225.21 
L 77.76 225.21 
z
" style="fill: #ffffff"/>
   </g>
   <g id="matplotlib.axis_3">
    <g id="xtick_8">
     <g id="line2d_22">
      <g>
       <use xlink:href="#m1457071b76" x="97.280909" y="387.16" style="stroke: #000000; stroke-width: 0.8"/>
      </g>
     </g>
     <g id="text_15">
      <!-- −3 -->
      <g transform="translate(89.909815 401.758438) scale(0.1 -0.1)">
       <use xlink:href="#DejaVuSans-2212"/>
       <use xlink:href="#DejaVuSans-33" transform="translate(83.789062 0)"/>
      </g>
     </g>
    </g>
    <g id="xtick_9">
     <g id="line2d_23">
      <g>
       <use xlink:href="#m1457071b76" x="162.350606" y="387.16" style="stroke: #000000; stroke-width: 0.8"/>
      </g>
     </g>
     <g id="text_16">
      <!-- −2 -->
      <g transform="translate(154.979512 401.758438) scale(0.1 -0.1)">
       <use xlink:href="#DejaVuSans-2212"/>
       <use xlink:href="#DejaVuSans-32" transform="translate(83.789062 0)"/>
      </g>
     </g>
    </g>
    <g id="xtick_10">
     <g id="line2d_24">
      <g>
       <use xlink:href="#m1457071b76" x="227.420303" y="387.16" style="stroke: #000000; stroke-width: 0.8"/>
      </g>
     </g>
     <g id="text_17">
      <!-- −1 -->
      <g transform="translate(220.049209 401.758438) scale(0.1 -0.1)">
       <use xlink:href="#DejaVuSans-2212"/>
       <use xlink:href="#DejaVuSans-31" transform="translate(83.789062 0)"/>
      </g>
     </g>
    </g>
    <g id="xtick_11">
     <g id="line2d_25">
      <g>
       <use xlink:href="#m1457071b76" x="292.49" y="387.16" style="stroke: #000000; stroke-width: 0.8"/>
      </g>
     </g>
     <g id="text_18">
      <!-- 0 -->
      <g transform="translate(289.30875 401.758438) scale(0.1 -0.1)">
       <use xlink:href="#DejaVuSans-30"/>
      </g>
     </g>
    </g>
    <g id="xtick_12">
     <g id="line2d_26">
      <g>
       <use xlink:href="#m1457071b76" x="357.559697" y="387.16" style="stroke: #000000; stroke-width: 0.8"/>
      </g>
     </g>
     <g id="text_19">
      <!-- 1 -->
      <g transform="translate(354.378447 401.758438) scale(0.1 -0.1)">
       <use xlink:href="#DejaVuSans-31"/>
      </g>
     </g>
    </g>
    <g id="xtick_13">
     <g id="line2d_27">
      <g>
       <use xlink:href="#m1457071b76" x="422.629394" y="387.16" style="stroke: #000000; stroke-width: 0.8"/>
      </g>
     </g>
     <g id="text_20">
      <!-- 2 -->
      <g transform="translate(419.448144 401.758438) scale(0.1 -0.1)">
       <use xlink:href="#DejaVuSans-32"/>
      </g>
     </g>
    </g>
    <g id="xtick_14">
     <g id="line2d_28">
      <g>
       <use xlink:href="#m1457071b76" x="487.699091" y="387.16" style="stroke: #000000; stroke-width: 0.8"/>
      </g>
     </g>
     <g id="text_21">
      <!-- 3 -->
      <g transform="translate(484.517841 401.758438) scale(0.1 -0.1)">
       <use xlink:href="#DejaVuSans-33"/>
      </g>
     </g>
    </g>
    <g id="text_22">
     <!-- log$_2$-fold change in PRG5 activity -->
     <g transform="translate(209.94 415.438125) scale(0.1 -0.1)">
      <defs>
       <path id="DejaVuSans-67" d="M 2906 1791 
Q 2906 2416 2648 2759 
Q 2391 3103 1925 3103 
Q 1463 3103 1205 2759 
Q 947 2416 947 1791 
Q 947 1169 1205 825 
Q 1463 481 1925 481 
Q 2391 481 2648 825 
Q 2906 1169 2906 1791 
z
M 3481 434 
Q 3481 -459 3084 -895 
Q 2688 -1331 1869 -1331 
Q 1566 -1331 1297 -1286 
Q 1028 -1241 775 -1147 
L 775 -588 
Q 1028 -725 1275 -790 
Q 1522 -856 1778 -856 
Q 2344 -856 2625 -561 
Q 2906 -266 2906 331 
L 2906 616 
Q 2728 306 2450 153 
Q 2172 0 1784 0 
Q 1141 0 747 490 
Q 353 981 353 1791 
Q 353 2603 747 3093 
Q 1141 3584 1784 3584 
Q 2172 3584 2450 3431 
Q 2728 3278 2906 2969 
L 2906 3500 
L 3481 3500 
L 3481 434 
z
" transform="scale(0.015625)"/>
       <path id="DejaVuSans-2d" d="M 313 2009 
L 1997 2009 
L 1997 1497 
L 313 1497 
L 313 2009 
z
" transform="scale(0.015625)"/>
       <path id="DejaVuSans-66" d="M 2375 4863 
L 2375 4384 
L 1825 4384 
Q 1516 4384 1395 4259 
Q 1275 4134 1275 3809 
L 1275 3500 
L 2222 3500 
L 2222 3053 
L 1275 3053 
L 1275 0 
L 697 0 
L 697 3053 
L 147 3053 
L 147 3500 
L 697 3500 
L 697 3744 
Q 697 4328 969 4595 
Q 1241 4863 1831 4863 
L 2375 4863 
z
" transform="scale(0.015625)"/>
       <path id="DejaVuSans-64" d="M 2906 2969 
L 2906 4863 
L 3481 4863 
L 3481 0 
L 2906 0 
L 2906 525 
Q 2725 213 2448 61 
Q 2172 -91 1784 -91 
Q 1150 -91 751 415 
Q 353 922 353 1747 
Q 353 2572 751 3078 
Q 1150 3584 1784 3584 
Q 2172 3584 2448 3432 
Q 2725 3281 2906 2969 
z
M 947 1747 
Q 947 1113 1208 752 
Q 1469 391 1925 391 
Q 2381 391 2643 752 
Q 2906 1113 2906 1747 
Q 2906 2381 2643 2742 
Q 2381 3103 1925 3103 
Q 1469 3103 1208 2742 
Q 947 2381 947 1747 
z
" transform="scale(0.015625)"/>
       <path id="DejaVuSans-61" d="M 2194 1759 
Q 1497 1759 1228 1600 
Q 959 1441 959 1056 
Q 959 750 1161 570 
Q 1363 391 1709 391 
Q 2188 391 2477 730 
Q 2766 1069 2766 1631 
L 2766 1759 
L 2194 1759 
z
M 3341 1997 
L 3341 0 
L 2766 0 
L 2766 531 
Q 2569 213 2275 61 
Q 1981 -91 1556 -91 
Q 1019 -91 701 211 
Q 384 513 384 1019 
Q 384 1609 779 1909 
Q 1175 2209 1959 2209 
L 2766 2209 
L 2766 2266 
Q 2766 2663 2505 2880 
Q 2244 3097 1772 3097 
Q 1472 3097 1187 3025 
Q 903 2953 641 2809 
L 641 3341 
Q 956 3463 1253 3523 
Q 1550 3584 1831 3584 
Q 2591 3584 2966 3190 
Q 3341 2797 3341 1997 
z
" transform="scale(0.015625)"/>
       <path id="DejaVuSans-52" d="M 2841 2188 
Q 3044 2119 3236 1894 
Q 3428 1669 3622 1275 
L 4263 0 
L 3584 0 
L 2988 1197 
Q 2756 1666 2539 1819 
Q 2322 1972 1947 1972 
L 1259 1972 
L 1259 0 
L 628 0 
L 628 4666 
L 2053 4666 
Q 2853 4666 3247 4331 
Q 3641 3997 3641 3322 
Q 3641 2881 3436 2590 
Q 3231 2300 2841 2188 
z
M 1259 4147 
L 1259 2491 
L 2053 2491 
Q 2509 2491 2742 2702 
Q 2975 2913 2975 3322 
Q 2975 3731 2742 3939 
Q 2509 4147 2053 4147 
L 1259 4147 
z
" transform="scale(0.015625)"/>
       <path id="DejaVuSans-47" d="M 3809 666 
L 3809 1919 
L 2778 1919 
L 2778 2438 
L 4434 2438 
L 4434 434 
Q 4069 175 3628 42 
Q 3188 -91 2688 -91 
Q 1594 -91 976 548 
Q 359 1188 359 2328 
Q 359 3472 976 4111 
Q 1594 4750 2688 4750 
Q 3144 4750 3555 4637 
Q 3966 4525 4313 4306 
L 4313 3634 
Q 3963 3931 3569 4081 
Q 3175 4231 2741 4231 
Q 1884 4231 1454 3753 
Q 1025 3275 1025 2328 
Q 1025 1384 1454 906 
Q 1884 428 2741 428 
Q 3075 428 3337 486 
Q 3600 544 3809 666 
z
" transform="scale(0.015625)"/>
       <path id="DejaVuSans-76" d="M 191 3500 
L 800 3500 
L 1894 563 
L 2988 3500 
L 3597 3500 
L 2284 0 
L 1503 0 
L 191 3500 
z
" transform="scale(0.015625)"/>
      </defs>
      <use xlink:href="#DejaVuSans-6c" transform="translate(0 0.015625)"/>
      <use xlink:href="#DejaVuSans-6f" transform="translate(27.783203 0.015625)"/>
      <use xlink:href="#DejaVuSans-67" transform="translate(88.964844 0.015625)"/>
      <use xlink:href="#DejaVuSans-32" transform="translate(153.398438 -16.390625) scale(0.7)"/>
      <use xlink:href="#DejaVuSans-2d" transform="translate(200.668945 0.015625)"/>
      <use xlink:href="#DejaVuSans-66" transform="translate(236.75293 0.015625)"/>
      <use xlink:href="#DejaVuSans-6f" transform="translate(271.958008 0.015625)"/>
      <use xlink:href="#DejaVuSans-6c" transform="translate(333.139648 0.015625)"/>
      <use xlink:href="#DejaVuSans-64" transform="translate(360.922852 0.015625)"/>
      <use xlink:href="#DejaVuSans-20" transform="translate(424.399414 0.015625)"/>
      <use xlink:href="#DejaVuSans-63" transform="translate(456.186523 0.015625)"/>
      <use xlink:href="#DejaVuSans-68" transform="translate(511.166992 0.015625)"/>
      <use xlink:href="#DejaVuSans-61" transform="translate(574.545898 0.015625)"/>
      <use xlink:href="#DejaVuSans-6e" transform="translate(635.825195 0.015625)"/>
      <use xlink:href="#DejaVuSans-67" transform="translate(699.204102 0.015625)"/>
      <use xlink:href="#DejaVuSans-65" transform="translate(762.680664 0.015625)"/>
      <use xlink:href="#DejaVuSans-20" transform="translate(824.204102 0.015625)"/>
      <use xlink:href="#DejaVuSans-69" transform="translate(855.991211 0.015625)"/>
      <use xlink:href="#DejaVuSans-6e" transform="translate(883.774414 0.015625)"/>
      <use xlink:href="#DejaVuSans-20" transform="translate(947.15332 0.015625)"/>
      <use xlink:href="#DejaVuSans-50" transform="translate(978.94043 0.015625)"/>
      <use xlink:href="#DejaVuSans-52" transform="translate(1039.243164 0.015625)"/>
      <use xlink:href="#DejaVuSans-47" transform="translate(1108.725586 0.015625)"/>
      <use xlink:href="#DejaVuSans-35" transform="translate(1186.21582 0.015625)"/>
      <use xlink:href="#DejaVuSans-20" transform="translate(1249.838867 0.015625)"/>
      <use xlink:href="#DejaVuSans-61" transform="translate(1281.625977 0.015625)"/>
      <use xlink:href="#DejaVuSans-63" transform="translate(1342.905273 0.015625)"/>
      <use xlink:href="#DejaVuSans-74" transform="translate(1397.885742 0.015625)"/>
      <use xlink:href="#DejaVuSans-69" transform="translate(1437.094727 0.015625)"/>
      <use xlink:href="#DejaVuSans-76" transform="translate(1464.87793 0.015625)"/>
      <use xlink:href="#DejaVuSans-69" transform="translate(1524.057617 0.015625)"/>
      <use xlink:href="#DejaVuSans-74" transform="translate(1551.84082 0.015625)"/>
      <use xlink:href="#DejaVuSans-79" transform="translate(1591.049805 0.015625)"/>
     </g>
    </g>
   </g>
   <g id="matplotlib.axis_4">
    <g id="ytick_9">
     <g id="line2d_29">
      <g>
       <use xlink:href="#md32e5e5168" x="77.76" y="384.688921" style="stroke: #000000; stroke-width: 0.8"/>
      </g>
     </g>
     <g id="text_23">
      <!-- 0.0 -->
      <g transform="translate(54.856875 388.48814) scale(0.1 -0.1)">
       <defs>
        <path id="DejaVuSans-2e" d="M 684 794 
L 1344 794 
L 1344 0 
L 684 0 
L 684 794 
z
" transform="scale(0.015625)"/>
       </defs>
       <use xlink:href="#DejaVuSans-30"/>
       <use xlink:href="#DejaVuSans-2e" transform="translate(63.623047 0)"/>
       <use xlink:href="#DejaVuSans-30" transform="translate(95.410156 0)"/>
      </g>
     </g>
    </g>
    <g id="ytick_10">
     <g id="line2d_30">
      <g>
       <use xlink:href="#md32e5e5168" x="77.76" y="354.24744" style="stroke: #000000; stroke-width: 0.8"/>
      </g>
     </g>
     <g id="text_24">
      <!-- 0.2 -->
      <g transform="translate(54.856875 358.046659) scale(0.1 -0.1)">
       <use xlink:href="#DejaVuSans-30"/>
       <use xlink:href="#DejaVuSans-2e" transform="translate(63.623047 0)"/>
       <use xlink:href="#DejaVuSans-32" transform="translate(95.410156 0)"/>
      </g>
     </g>
    </g>
    <g id="ytick_11">
     <g id="line2d_31">
      <g>
       <use xlink:href="#md32e5e5168" x="77.76" y="323.805959" style="stroke: #000000; stroke-width: 0.8"/>
      </g>
     </g>
     <g id="text_25">
      <!-- 0.4 -->
      <g transform="translate(54.856875 327.605178) scale(0.1 -0.1)">
       <use xlink:href="#DejaVuSans-30"/>
       <use xlink:href="#DejaVuSans-2e" transform="translate(63.623047 0)"/>
       <use xlink:href="#DejaVuSans-34" transform="translate(95.410156 0)"/>
      </g>
     </g>
    </g>
    <g id="ytick_12">
     <g id="line2d_32">
      <g>
       <use xlink:href="#md32e5e5168" x="77.76" y="293.364478" style="stroke: #000000; stroke-width: 0.8"/>
      </g>
     </g>
     <g id="text_26">
      <!-- 0.6 -->
      <g transform="translate(54.856875 297.163697) scale(0.1 -0.1)">
       <use xlink:href="#DejaVuSans-30"/>
       <use xlink:href="#DejaVuSans-2e" transform="translate(63.623047 0)"/>
       <use xlink:href="#DejaVuSans-36" transform="translate(95.410156 0)"/>
      </g>
     </g>
    </g>
    <g id="ytick_13">
     <g id="line2d_33">
      <g>
       <use xlink:href="#md32e5e5168" x="77.76" y="262.922998" style="stroke: #000000; stroke-width: 0.8"/>
      </g>
     </g>
     <g id="text_27">
      <!-- 0.8 -->
      <g transform="translate(54.856875 266.722216) scale(0.1 -0.1)">
       <defs>
        <path id="DejaVuSans-38" d="M 2034 2216 
Q 1584 2216 1326 1975 
Q 1069 1734 1069 1313 
Q 1069 891 1326 650 
Q 1584 409 2034 409 
Q 2484 409 2743 651 
Q 3003 894 3003 1313 
Q 3003 1734 2745 1975 
Q 2488 2216 2034 2216 
z
M 1403 2484 
Q 997 2584 770 2862 
Q 544 3141 544 3541 
Q 544 4100 942 4425 
Q 1341 4750 2034 4750 
Q 2731 4750 3128 4425 
Q 3525 4100 3525 3541 
Q 3525 3141 3298 2862 
Q 3072 2584 2669 2484 
Q 3125 2378 3379 2068 
Q 3634 1759 3634 1313 
Q 3634 634 3220 271 
Q 2806 -91 2034 -91 
Q 1263 -91 848 271 
Q 434 634 434 1313 
Q 434 1759 690 2068 
Q 947 2378 1403 2484 
z
M 1172 3481 
Q 1172 3119 1398 2916 
Q 1625 2713 2034 2713 
Q 2441 2713 2670 2916 
Q 2900 3119 2900 3481 
Q 2900 3844 2670 4047 
Q 2441 4250 2034 4250 
Q 1625 4250 1398 4047 
Q 1172 3844 1172 3481 
z
" transform="scale(0.015625)"/>
       </defs>
       <use xlink:href="#DejaVuSans-30"/>
       <use xlink:href="#DejaVuSans-2e" transform="translate(63.623047 0)"/>
       <use xlink:href="#DejaVuSans-38" transform="translate(95.410156 0)"/>
      </g>
     </g>
    </g>
    <g id="ytick_14">
     <g id="line2d_34">
      <g>
       <use xlink:href="#md32e5e5168" x="77.76" y="232.481517" style="stroke: #000000; stroke-width: 0.8"/>
      </g>
     </g>
     <g id="text_28">
      <!-- 1.0 -->
      <g transform="translate(54.856875 236.280735) scale(0.1 -0.1)">
       <use xlink:href="#DejaVuSans-31"/>
       <use xlink:href="#DejaVuSans-2e" transform="translate(63.623047 0)"/>
       <use xlink:href="#DejaVuSans-30" transform="translate(95.410156 0)"/>
      </g>
     </g>
    </g>
    <g id="text_29">
     <!-- Fraction of the pool -->
     <g transform="translate(48.777187 354.618594) rotate(-90) scale(0.1 -0.1)">
      <defs>
       <path id="DejaVuSans-70" d="M 1159 525 
L 1159 -1331 
L 581 -1331 
L 581 3500 
L 1159 3500 
L 1159 2969 
Q 1341 3281 1617 3432 
Q 1894 3584 2278 3584 
Q 2916 3584 3314 3078 
Q 3713 2572 3713 1747 
Q 3713 922 3314 415 
Q 2916 -91 2278 -91 
Q 1894 -91 1617 61 
Q 1341 213 1159 525 
z
M 3116 1747 
Q 3116 2381 2855 2742 
Q 2594 3103 2138 3103 
Q 1681 3103 1420 2742 
Q 1159 2381 1159 1747 
Q 1159 1113 1420 752 
Q 1681 391 2138 391 
Q 2594 391 2855 752 
Q 3116 1113 3116 1747 
z
" transform="scale(0.015625)"/>
      </defs>
      <use xlink:href="#DejaVuSans-46"/>
      <use xlink:href="#DejaVuSans-72" transform="translate(50.269531 0)"/>
      <use xlink:href="#DejaVuSans-61" transform="translate(91.382812 0)"/>
      <use xlink:href="#DejaVuSans-63" transform="translate(152.662109 0)"/>
      <use xlink:href="#DejaVuSans-74" transform="translate(207.642578 0)"/>
      <use xlink:href="#DejaVuSans-69" transform="translate(246.851562 0)"/>
      <use xlink:href="#DejaVuSans-6f" transform="translate(274.634766 0)"/>
      <use xlink:href="#DejaVuSans-6e" transform="translate(335.816406 0)"/>
      <use xlink:href="#DejaVuSans-20" transform="translate(399.195312 0)"/>
      <use xlink:href="#DejaVuSans-6f" transform="translate(430.982422 0)"/>
      <use xlink:href="#DejaVuSans-66" transform="translate(492.164062 0)"/>
      <use xlink:href="#DejaVuSans-20" transform="translate(527.369141 0)"/>
      <use xlink:href="#DejaVuSans-74" transform="translate(559.15625 0)"/>
      <use xlink:href="#DejaVuSans-68" transform="translate(598.365234 0)"/>
      <use xlink:href="#DejaVuSans-65" transform="translate(661.744141 0)"/>
      <use xlink:href="#DejaVuSans-20" transform="translate(723.267578 0)"/>
      <use xlink:href="#DejaVuSans-70" transform="translate(755.054688 0)"/>
      <use xlink:href="#DejaVuSans-6f" transform="translate(818.53125 0)"/>
      <use xlink:href="#DejaVuSans-6f" transform="translate(879.712891 0)"/>
      <use xlink:href="#DejaVuSans-6c" transform="translate(940.894531 0)"/>
     </g>
    </g>
   </g>
   <g id="line2d_35">
    <path d="M 97.280909 323.263384 
L 105.248627 322.77953 
L 113.216345 322.232832 
L 121.184063 321.612553 
L 129.151781 320.905377 
L 137.119499 320.095042 
L 145.087217 319.160784 
L 153.054935 318.075947 
L 161.022653 316.805763 
L 168.990371 315.304003 
L 176.958089 313.507884 
L 184.925807 311.330685 
L 192.893525 308.650005 
L 200.861243 300.464507 
L 208.828961 293.127709 
L 216.796679 291.77123 
L 224.764397 289.623057 
L 232.732115 283.991694 
L 240.699833 280.161057 
L 248.667551 277.690532 
L 256.635269 275.659042 
L 264.602987 273.89931 
L 272.570705 272.783533 
L 280.538423 272.272 
L 288.506141 271.931857 
L 296.473859 271.535422 
L 304.441577 271.102932 
L 312.409295 270.638164 
L 320.377013 270.142763 
L 328.344731 269.617997 
L 336.312449 269.065216 
L 344.280167 268.486005 
L 352.247885 267.882236 
L 360.215603 267.25607 
L 368.183321 266.609931 
L 376.151039 265.946451 
L 384.118757 265.268414 
L 392.086475 264.578689 
L 400.054193 263.880162 
L 408.021911 263.175672 
L 415.989629 262.467956 
L 423.957347 261.759606 
L 431.925065 261.053031 
L 439.892783 260.35043 
L 447.860501 259.653785 
L 455.828219 258.964844 
L 463.795937 258.285131 
L 471.763655 257.615946 
L 479.731373 256.958379 
L 487.699091 256.313319 
" clip-path="url(#pac6cb88ba3)" style="fill: none; stroke: #1f77b4; stroke-width: 2; stroke-linecap: square"/>
   </g>
   <g id="line2d_36">
    <path d="M 97.280909 234.497447 
L 105.248627 234.530108 
L 113.216345 234.566896 
L 121.184063 234.608482 
L 129.151781 234.655684 
L 137.119499 234.70948 
L 145.087217 234.77109 
L 153.054935 234.842033 
L 161.022653 234.924214 
L 168.990371 235.020036 
L 176.958089 235.132537 
L 184.925807 235.265509 
L 192.893525 235.423568 
L 200.861243 235.636591 
L 208.828961 235.990011 
L 216.796679 236.361686 
L 224.764397 236.365102 
L 232.732115 236.700985 
L 240.699833 237.255629 
L 248.667551 238.154848 
L 256.635269 239.396735 
L 264.602987 241.052209 
L 272.570705 243.360452 
L 280.538423 245.501646 
L 288.506141 247.267893 
L 296.473859 249.346931 
L 304.441577 251.623514 
L 312.409295 254.064175 
L 320.377013 256.645498 
L 328.344731 259.346025 
L 336.312449 262.144715 
L 344.280167 265.020811 
L 352.247885 267.954103 
L 360.215603 270.92528 
L 368.183321 273.916271 
L 376.151039 276.910508 
L 384.118757 279.893098 
L 392.086475 282.850911 
L 400.054193 285.772587 
L 408.021911 288.648471 
L 415.989629 291.470518 
L 423.957347 294.232152 
L 431.925065 296.928122 
L 439.892783 299.554353 
L 447.860501 302.107793 
L 455.828219 304.586279 
L 463.795937 306.988414 
L 471.763655 309.313448 
L 479.731373 311.561183 
L 487.699091 313.731884 
" clip-path="url(#pac6cb88ba3)" style="fill: none; stroke: #ff7f0e; stroke-width: 2; stroke-linecap: square"/>
   </g>
   <g id="line2d_37">
    <path d="M 97.280909 232.571364 
L 105.248627 232.574823 
L 113.216345 232.578858 
L 121.184063 232.583607 
L 129.151781 232.589253 
L 137.119499 232.596042 
L 145.087217 232.604324 
L 153.054935 232.614598 
L 161.022653 232.627611 
L 168.990371 232.644519 
L 176.958089 232.66721 
L 184.925807 232.698946 
L 192.893525 232.745826 
L 200.861243 232.838211 
L 208.828961 233.11898 
L 216.796679 233.82506 
L 224.764397 233.813243 
L 232.732115 235.335307 
L 240.699833 238.675232 
L 248.667551 243.604851 
L 256.635269 249.177599 
L 264.602987 255.188127 
L 272.570705 261.990271 
L 280.538423 267.225205 
L 288.506141 270.992989 
L 296.473859 274.951305 
L 304.441577 278.834206 
L 312.409295 282.593828 
L 320.377013 286.216468 
L 328.344731 289.699109 
L 336.312449 293.043164 
L 344.280167 296.252137 
L 352.247885 299.330556 
L 360.215603 302.283416 
L 368.183321 305.115872 
L 376.151039 307.833051 
L 384.118757 310.439942 
L 392.086475 312.941337 
L 400.054193 315.341796 
L 408.021911 317.645638 
L 415.989629 319.856947 
L 423.957347 321.979579 
L 431.925065 324.017184 
L 439.892783 325.973224 
L 447.860501 327.850996 
L 455.828219 329.653645 
L 463.795937 331.384187 
L 471.763655 333.045522 
L 479.731373 334.640445 
L 487.699091 336.171658 
" clip-path="url(#pac6cb88ba3)" style="fill: none; stroke: #2ca02c; stroke-width: 2; stroke-linecap: square"/>
   </g>
   <g id="line2d_38">
    <path d="M 97.280909 261.303084 
L 105.248627 261.756666 
L 113.216345 262.266341 
L 121.184063 262.841088 
L 129.151781 263.492132 
L 137.119499 264.231317 
L 145.087217 265.07452 
L 153.054935 266.041524 
L 161.022653 267.156991 
L 168.990371 268.45202 
L 176.958089 269.966039 
L 184.925807 271.747929 
L 192.893525 273.858226 
L 200.861243 277.508561 
L 208.828961 283.805627 
L 216.796679 288.221829 
L 224.764397 285.874141 
L 232.732115 288.405408 
L 240.699833 289.779018 
L 248.667551 290.423512 
L 256.635269 290.856195 
L 264.602987 291.442003 
L 272.570705 292.606546 
L 280.538423 293.250773 
L 288.506141 292.490991 
L 296.473859 291.619665 
L 304.441577 290.683672 
L 312.409295 289.692788 
L 320.377013 288.652104 
L 328.344731 287.565872 
L 336.312449 286.438401 
L 344.280167 285.274306 
L 352.247885 284.078532 
L 360.215603 282.856295 
L 368.183321 281.612983 
L 376.151039 280.354027 
L 384.118757 279.084785 
L 392.086475 277.81042 
L 400.054193 276.535804 
L 408.021911 275.265445 
L 415.989629 274.003428 
L 423.957347 272.753389 
L 431.925065 271.518501 
L 439.892783 270.301489 
L 447.860501 269.104644 
L 455.828219 267.929854 
L 463.795937 266.778646 
L 471.763655 265.652216 
L 479.731373 264.551475 
L 487.699091 263.477084 
" clip-path="url(#pac6cb88ba3)" style="fill: none; stroke: #9467bd; stroke-width: 2; stroke-linecap: square"/>
   </g>
   <g id="line2d_39">
    <path d="M 97.280909 317.026355 
L 105.248627 317.952476 
L 113.216345 318.987871 
L 121.184063 320.148862 
L 129.151781 321.455258 
L 137.119499 322.92979 
L 145.087217 324.60092 
L 153.054935 326.503688 
L 161.022653 328.681467 
L 168.990371 331.188415 
L 176.958089 334.092441 
L 184.925807 337.477325 
L 192.893525 341.444385 
L 200.861243 347.228848 
L 208.828961 356.638303 
L 216.796679 364.355296 
L 224.764397 363.406069 
L 232.732115 367.933282 
L 240.699833 370.330854 
L 248.667551 371.30296 
L 256.635269 371.740288 
L 264.602987 372.019996 
L 272.570705 372.303486 
L 280.538423 372.481969 
L 288.506141 372.715396 
L 296.473859 373.017817 
L 304.441577 373.338872 
L 312.409295 373.669443 
L 320.377013 374.005884 
L 328.344731 374.34584 
L 336.312449 374.687317 
L 344.280167 375.028446 
L 352.247885 375.367435 
L 360.215603 375.702582 
L 368.183321 376.032305 
L 376.151039 376.355182 
L 384.118757 376.66997 
L 392.086475 376.975626 
L 400.054193 377.271314 
L 408.021911 377.556403 
L 415.989629 377.830453 
L 423.957347 378.093202 
L 431.925065 378.344546 
L 439.892783 378.584512 
L 447.860501 378.813243 
L 455.828219 379.030971 
L 463.795937 379.238 
L 471.763655 379.434686 
L 479.731373 379.621425 
L 487.699091 379.798636 
" clip-path="url(#pac6cb88ba3)" style="fill: none; stroke: #8c564b; stroke-width: 2; stroke-linecap: square"/>
   </g>
   <g id="patch_9">
    <path d="M 77.76 387.16 
L 77.76 225.21 
" style="fill: none; stroke: #000000; stroke-width: 0.8; stroke-linejoin: miter; stroke-linecap: square"/>
   </g>
   <g id="patch_10">
    <path d="M 507.22 387.16 
L 507.22 225.21 
" style="fill: none; stroke: #000000; stroke-width: 0.8; stroke-linejoin: miter; stroke-linecap: square"/>
   </g>
   <g id="patch_11">
    <path d="M 77.76 387.16 
L 507.22 387.16 
" style="fill: none; stroke: #000000; stroke-width: 0.8; stroke-linejoin: miter; stroke-linecap: square"/>
   </g>
   <g id="patch_12">
    <path d="M 77.76 225.21 
L 507.22 225.21 
" style="fill: none; stroke: #000000; stroke-width: 0.8; stroke-linejoin: miter; stroke-linecap: square"/>
   </g>
   <g id="text_30">
    <!-- B -->
    <g transform="translate(13.341 217.1125) scale(0.15 -0.15)">
     <defs>
      <path id="DejaVuSans-Bold-42" d="M 2456 2859 
Q 2741 2859 2887 2984 
Q 3034 3109 3034 3353 
Q 3034 3594 2887 3720 
Q 2741 3847 2456 3847 
L 1791 3847 
L 1791 2859 
L 2456 2859 
z
M 2497 819 
Q 2859 819 3042 972 
Q 3225 1125 3225 1434 
Q 3225 1738 3044 1889 
Q 2863 2041 2497 2041 
L 1791 2041 
L 1791 819 
L 2497 819 
z
M 3616 2497 
Q 4003 2384 4215 2081 
Q 4428 1778 4428 1338 
Q 4428 663 3972 331 
Q 3516 0 2584 0 
L 588 0 
L 588 4666 
L 2394 4666 
Q 3366 4666 3802 4372 
Q 4238 4078 4238 3431 
Q 4238 3091 4078 2852 
Q 3919 2613 3616 2497 
z
" transform="scale(0.015625)"/>
     </defs>
     <use xlink:href="#DejaVuSans-Bold-42"/>
    </g>
   </g>
   <g id="text_31">
    <!-- Energy and Redox Status -->
    <g transform="translate(216.92 219.21) scale(0.12 -0.12)">
     <use xlink:href="#DejaVuSans-45"/>
     <use xlink:href="#DejaVuSans-6e" transform="translate(63.183594 0)"/>
     <use xlink:href="#DejaVuSans-65" transform="translate(126.5625 0)"/>
     <use xlink:href="#DejaVuSans-72" transform="translate(188.085938 0)"/>
     <use xlink:href="#DejaVuSans-67" transform="translate(227.449219 0)"/>
     <use xlink:href="#DejaVuSans-79" transform="translate(290.925781 0)"/>
     <use xlink:href="#DejaVuSans-20" transform="translate(350.105469 0)"/>
     <use xlink:href="#DejaVuSans-61" transform="translate(381.892578 0)"/>
     <use xlink:href="#DejaVuSans-6e" transform="translate(443.171875 0)"/>
     <use xlink:href="#DejaVuSans-64" transform="translate(506.550781 0)"/>
     <use xlink:href="#DejaVuSans-20" transform="translate(570.027344 0)"/>
     <use xlink:href="#DejaVuSans-52" transform="translate(601.814453 0)"/>
     <use xlink:href="#DejaVuSans-65" transform="translate(666.796875 0)"/>
     <use xlink:href="#DejaVuSans-64" transform="translate(728.320312 0)"/>
     <use xlink:href="#DejaVuSans-6f" transform="translate(791.796875 0)"/>
     <use xlink:href="#DejaVuSans-78" transform="translate(849.853516 0)"/>
     <use xlink:href="#DejaVuSans-20" transform="translate(909.033203 0)"/>
     <use xlink:href="#DejaVuSans-53" transform="translate(940.820312 0)"/>
     <use xlink:href="#DejaVuSans-74" transform="translate(1004.296875 0)"/>
     <use xlink:href="#DejaVuSans-61" transform="translate(1043.505859 0)"/>
     <use xlink:href="#DejaVuSans-74" transform="translate(1104.785156 0)"/>
     <use xlink:href="#DejaVuSans-75" transform="translate(1143.994141 0)"/>
     <use xlink:href="#DejaVuSans-73" transform="translate(1207.373047 0)"/>
    </g>
   </g>
   <g id="legend_2">
    <g id="patch_13">
     <path d="M 84.76 306.600625 
L 152.331875 306.600625 
Q 154.331875 306.600625 154.331875 304.600625 
L 154.331875 232.21 
Q 154.331875 230.21 152.331875 230.21 
L 84.76 230.21 
Q 82.76 230.21 82.76 232.21 
L 82.76 304.600625 
Q 82.76 306.600625 84.76 306.600625 
z
" style="fill: #ffffff; opacity: 0.8; stroke: #cccccc; stroke-linejoin: miter"/>
    </g>
    <g id="line2d_40">
     <path d="M 86.76 238.308438 
L 96.76 238.308438 
L 106.76 238.308438 
" style="fill: none; stroke: #1f77b4; stroke-width: 2; stroke-linecap: square"/>
    </g>
    <g id="text_32">
     <!-- ATP -->
     <g transform="translate(114.76 241.808438) scale(0.1 -0.1)">
      <defs>
       <path id="DejaVuSans-41" d="M 2188 4044 
L 1331 1722 
L 3047 1722 
L 2188 4044 
z
M 1831 4666 
L 2547 4666 
L 4325 0 
L 3669 0 
L 3244 1197 
L 1141 1197 
L 716 0 
L 50 0 
L 1831 4666 
z
" transform="scale(0.015625)"/>
       <path id="DejaVuSans-54" d="M -19 4666 
L 3928 4666 
L 3928 4134 
L 2272 4134 
L 2272 0 
L 1638 0 
L 1638 4134 
L -19 4134 
L -19 4666 
z
" transform="scale(0.015625)"/>
      </defs>
      <use xlink:href="#DejaVuSans-41"/>
      <use xlink:href="#DejaVuSans-54" transform="translate(60.658203 0)"/>
      <use xlink:href="#DejaVuSans-50" transform="translate(121.742188 0)"/>
     </g>
    </g>
    <g id="line2d_41">
     <path d="M 86.76 252.986562 
L 96.76 252.986562 
L 106.76 252.986562 
" style="fill: none; stroke: #ff7f0e; stroke-width: 2; stroke-linecap: square"/>
    </g>
    <g id="text_33">
     <!-- NADPH -->
     <g transform="translate(114.76 256.486562) scale(0.1 -0.1)">
      <defs>
       <path id="DejaVuSans-4e" d="M 628 4666 
L 1478 4666 
L 3547 763 
L 3547 4666 
L 4159 4666 
L 4159 0 
L 3309 0 
L 1241 3903 
L 1241 0 
L 628 0 
L 628 4666 
z
" transform="scale(0.015625)"/>
       <path id="DejaVuSans-44" d="M 1259 4147 
L 1259 519 
L 2022 519 
Q 2988 519 3436 956 
Q 3884 1394 3884 2338 
Q 3884 3275 3436 3711 
Q 2988 4147 2022 4147 
L 1259 4147 
z
M 628 4666 
L 1925 4666 
Q 3281 4666 3915 4102 
Q 4550 3538 4550 2338 
Q 4550 1131 3912 565 
Q 3275 0 1925 0 
L 628 0 
L 628 4666 
z
" transform="scale(0.015625)"/>
       <path id="DejaVuSans-48" d="M 628 4666 
L 1259 4666 
L 1259 2753 
L 3553 2753 
L 3553 4666 
L 4184 4666 
L 4184 0 
L 3553 0 
L 3553 2222 
L 1259 2222 
L 1259 0 
L 628 0 
L 628 4666 
z
" transform="scale(0.015625)"/>
      </defs>
      <use xlink:href="#DejaVuSans-4e"/>
      <use xlink:href="#DejaVuSans-41" transform="translate(74.804688 0)"/>
      <use xlink:href="#DejaVuSans-44" transform="translate(143.212891 0)"/>
      <use xlink:href="#DejaVuSans-50" transform="translate(220.214844 0)"/>
      <use xlink:href="#DejaVuSans-48" transform="translate(280.517578 0)"/>
     </g>
    </g>
    <g id="line2d_42">
     <path d="M 86.76 267.664688 
L 96.76 267.664688 
L 106.76 267.664688 
" style="fill: none; stroke: #2ca02c; stroke-width: 2; stroke-linecap: square"/>
    </g>
    <g id="text_34">
     <!-- Fdred -->
     <g transform="translate(114.76 271.164688) scale(0.1 -0.1)">
      <use xlink:href="#DejaVuSans-46"/>
      <use xlink:href="#DejaVuSans-64" transform="translate(57.519531 0)"/>
      <use xlink:href="#DejaVuSans-72" transform="translate(120.996094 0)"/>
      <use xlink:href="#DejaVuSans-65" transform="translate(159.859375 0)"/>
      <use xlink:href="#DejaVuSans-64" transform="translate(221.382812 0)"/>
     </g>
    </g>
    <g id="line2d_43">
     <path d="M 86.76 282.342813 
L 96.76 282.342813 
L 106.76 282.342813 
" style="fill: none; stroke: #9467bd; stroke-width: 2; stroke-linecap: square"/>
    </g>
    <g id="text_35">
     <!-- PQred -->
     <g transform="translate(114.76 285.842813) scale(0.1 -0.1)">
      <defs>
       <path id="DejaVuSans-51" d="M 2522 4238 
Q 1834 4238 1429 3725 
Q 1025 3213 1025 2328 
Q 1025 1447 1429 934 
Q 1834 422 2522 422 
Q 3209 422 3611 934 
Q 4013 1447 4013 2328 
Q 4013 3213 3611 3725 
Q 3209 4238 2522 4238 
z
M 3406 84 
L 4238 -825 
L 3475 -825 
L 2784 -78 
Q 2681 -84 2626 -87 
Q 2572 -91 2522 -91 
Q 1538 -91 948 567 
Q 359 1225 359 2328 
Q 359 3434 948 4092 
Q 1538 4750 2522 4750 
Q 3503 4750 4090 4092 
Q 4678 3434 4678 2328 
Q 4678 1516 4351 937 
Q 4025 359 3406 84 
z
" transform="scale(0.015625)"/>
      </defs>
      <use xlink:href="#DejaVuSans-50"/>
      <use xlink:href="#DejaVuSans-51" transform="translate(60.302734 0)"/>
      <use xlink:href="#DejaVuSans-72" transform="translate(139.013672 0)"/>
      <use xlink:href="#DejaVuSans-65" transform="translate(177.876953 0)"/>
      <use xlink:href="#DejaVuSans-64" transform="translate(239.400391 0)"/>
     </g>
    </g>
    <g id="line2d_44">
     <path d="M 86.76 297.020938 
L 96.76 297.020938 
L 106.76 297.020938 
" style="fill: none; stroke: #8c564b; stroke-width: 2; stroke-linecap: square"/>
    </g>
    <g id="text_36">
     <!-- PCred -->
     <g transform="translate(114.76 300.520938) scale(0.1 -0.1)">
      <use xlink:href="#DejaVuSans-50"/>
      <use xlink:href="#DejaVuSans-43" transform="translate(60.302734 0)"/>
      <use xlink:href="#DejaVuSans-72" transform="translate(130.126953 0)"/>
      <use xlink:href="#DejaVuSans-65" transform="translate(168.990234 0)"/>
      <use xlink:href="#DejaVuSans-64" transform="translate(230.513672 0)"/>
     </g>
    </g>
   </g>
  </g>
  <g id="axes_3">
   <g id="matplotlib.axis_5">
    <g id="ytick_15">
     <g id="line2d_45">
      <defs>
       <path id="m5c32943322" d="M 0 0 
L 3.5 0 
" style="stroke: #ff0000; stroke-width: 0.8"/>
      </defs>
      <g>
       <use xlink:href="#m5c32943322" x="507.22" y="185.121926" style="fill: #ff0000; stroke: #ff0000; stroke-width: 0.8"/>
      </g>
     </g>
     <g id="text_37">
      <!-- 0.0000 -->
      <g style="fill: #ff0000" transform="translate(514.22 188.921145) scale(0.1 -0.1)">
       <use xlink:href="#DejaVuSans-30"/>
       <use xlink:href="#DejaVuSans-2e" transform="translate(63.623047 0)"/>
       <use xlink:href="#DejaVuSans-30" transform="translate(95.410156 0)"/>
       <use xlink:href="#DejaVuSans-30" transform="translate(159.033203 0)"/>
       <use xlink:href="#DejaVuSans-30" transform="translate(222.65625 0)"/>
       <use xlink:href="#DejaVuSans-30" transform="translate(286.279297 0)"/>
      </g>
     </g>
    </g>
    <g id="ytick_16">
     <g id="line2d_46">
      <g>
       <use xlink:href="#m5c32943322" x="507.22" y="164.018756" style="fill: #ff0000; stroke: #ff0000; stroke-width: 0.8"/>
      </g>
     </g>
     <g id="text_38">
      <!-- 0.0001 -->
      <g style="fill: #ff0000" transform="translate(514.22 167.817975) scale(0.1 -0.1)">
       <use xlink:href="#DejaVuSans-30"/>
       <use xlink:href="#DejaVuSans-2e" transform="translate(63.623047 0)"/>
       <use xlink:href="#DejaVuSans-30" transform="translate(95.410156 0)"/>
       <use xlink:href="#DejaVuSans-30" transform="translate(159.033203 0)"/>
       <use xlink:href="#DejaVuSans-30" transform="translate(222.65625 0)"/>
       <use xlink:href="#DejaVuSans-31" transform="translate(286.279297 0)"/>
      </g>
     </g>
    </g>
    <g id="ytick_17">
     <g id="line2d_47">
      <g>
       <use xlink:href="#m5c32943322" x="507.22" y="142.915586" style="fill: #ff0000; stroke: #ff0000; stroke-width: 0.8"/>
      </g>
     </g>
     <g id="text_39">
      <!-- 0.0002 -->
      <g style="fill: #ff0000" transform="translate(514.22 146.714805) scale(0.1 -0.1)">
       <use xlink:href="#DejaVuSans-30"/>
       <use xlink:href="#DejaVuSans-2e" transform="translate(63.623047 0)"/>
       <use xlink:href="#DejaVuSans-30" transform="translate(95.410156 0)"/>
       <use xlink:href="#DejaVuSans-30" transform="translate(159.033203 0)"/>
       <use xlink:href="#DejaVuSans-30" transform="translate(222.65625 0)"/>
       <use xlink:href="#DejaVuSans-32" transform="translate(286.279297 0)"/>
      </g>
     </g>
    </g>
    <g id="ytick_18">
     <g id="line2d_48">
      <g>
       <use xlink:href="#m5c32943322" x="507.22" y="121.812416" style="fill: #ff0000; stroke: #ff0000; stroke-width: 0.8"/>
      </g>
     </g>
     <g id="text_40">
      <!-- 0.0003 -->
      <g style="fill: #ff0000" transform="translate(514.22 125.611634) scale(0.1 -0.1)">
       <use xlink:href="#DejaVuSans-30"/>
       <use xlink:href="#DejaVuSans-2e" transform="translate(63.623047 0)"/>
       <use xlink:href="#DejaVuSans-30" transform="translate(95.410156 0)"/>
       <use xlink:href="#DejaVuSans-30" transform="translate(159.033203 0)"/>
       <use xlink:href="#DejaVuSans-30" transform="translate(222.65625 0)"/>
       <use xlink:href="#DejaVuSans-33" transform="translate(286.279297 0)"/>
      </g>
     </g>
    </g>
    <g id="ytick_19">
     <g id="line2d_49">
      <g>
       <use xlink:href="#m5c32943322" x="507.22" y="100.709246" style="fill: #ff0000; stroke: #ff0000; stroke-width: 0.8"/>
      </g>
     </g>
     <g id="text_41">
      <!-- 0.0004 -->
      <g style="fill: #ff0000" transform="translate(514.22 104.508464) scale(0.1 -0.1)">
       <use xlink:href="#DejaVuSans-30"/>
       <use xlink:href="#DejaVuSans-2e" transform="translate(63.623047 0)"/>
       <use xlink:href="#DejaVuSans-30" transform="translate(95.410156 0)"/>
       <use xlink:href="#DejaVuSans-30" transform="translate(159.033203 0)"/>
       <use xlink:href="#DejaVuSans-30" transform="translate(222.65625 0)"/>
       <use xlink:href="#DejaVuSans-34" transform="translate(286.279297 0)"/>
      </g>
     </g>
    </g>
    <g id="ytick_20">
     <g id="line2d_50">
      <g>
       <use xlink:href="#m5c32943322" x="507.22" y="79.606075" style="fill: #ff0000; stroke: #ff0000; stroke-width: 0.8"/>
      </g>
     </g>
     <g id="text_42">
      <!-- 0.0005 -->
      <g style="fill: #ff0000" transform="translate(514.22 83.405294) scale(0.1 -0.1)">
       <use xlink:href="#DejaVuSans-30"/>
       <use xlink:href="#DejaVuSans-2e" transform="translate(63.623047 0)"/>
       <use xlink:href="#DejaVuSans-30" transform="translate(95.410156 0)"/>
       <use xlink:href="#DejaVuSans-30" transform="translate(159.033203 0)"/>
       <use xlink:href="#DejaVuSans-30" transform="translate(222.65625 0)"/>
       <use xlink:href="#DejaVuSans-35" transform="translate(286.279297 0)"/>
      </g>
     </g>
    </g>
    <g id="ytick_21">
     <g id="line2d_51">
      <g>
       <use xlink:href="#m5c32943322" x="507.22" y="58.502905" style="fill: #ff0000; stroke: #ff0000; stroke-width: 0.8"/>
      </g>
     </g>
     <g id="text_43">
      <!-- 0.0006 -->
      <g style="fill: #ff0000" transform="translate(514.22 62.302124) scale(0.1 -0.1)">
       <use xlink:href="#DejaVuSans-30"/>
       <use xlink:href="#DejaVuSans-2e" transform="translate(63.623047 0)"/>
       <use xlink:href="#DejaVuSans-30" transform="translate(95.410156 0)"/>
       <use xlink:href="#DejaVuSans-30" transform="translate(159.033203 0)"/>
       <use xlink:href="#DejaVuSans-30" transform="translate(222.65625 0)"/>
       <use xlink:href="#DejaVuSans-36" transform="translate(286.279297 0)"/>
      </g>
     </g>
    </g>
    <g id="ytick_22">
     <g id="line2d_52">
      <g>
       <use xlink:href="#m5c32943322" x="507.22" y="37.399735" style="fill: #ff0000; stroke: #ff0000; stroke-width: 0.8"/>
      </g>
     </g>
     <g id="text_44">
      <!-- 0.0007 -->
      <g style="fill: #ff0000" transform="translate(514.22 41.198954) scale(0.1 -0.1)">
       <use xlink:href="#DejaVuSans-30"/>
       <use xlink:href="#DejaVuSans-2e" transform="translate(63.623047 0)"/>
       <use xlink:href="#DejaVuSans-30" transform="translate(95.410156 0)"/>
       <use xlink:href="#DejaVuSans-30" transform="translate(159.033203 0)"/>
       <use xlink:href="#DejaVuSans-30" transform="translate(222.65625 0)"/>
       <use xlink:href="#DejaVuSans-37" transform="translate(286.279297 0)"/>
      </g>
     </g>
    </g>
    <g id="text_45">
     <!-- H$_2$O$_2$ / µM -->
     <g style="fill: #ff0000" transform="translate(560.78875 135.755) rotate(-90) scale(0.1 -0.1)">
      <defs>
       <path id="DejaVuSans-4f" d="M 2522 4238 
Q 1834 4238 1429 3725 
Q 1025 3213 1025 2328 
Q 1025 1447 1429 934 
Q 1834 422 2522 422 
Q 3209 422 3611 934 
Q 4013 1447 4013 2328 
Q 4013 3213 3611 3725 
Q 3209 4238 2522 4238 
z
M 2522 4750 
Q 3503 4750 4090 4092 
Q 4678 3434 4678 2328 
Q 4678 1225 4090 567 
Q 3503 -91 2522 -91 
Q 1538 -91 948 565 
Q 359 1222 359 2328 
Q 359 3434 948 4092 
Q 1538 4750 2522 4750 
z
" transform="scale(0.015625)"/>
       <path id="DejaVuSans-b5" d="M 544 -1331 
L 544 3500 
L 1119 3500 
L 1119 1325 
Q 1119 872 1334 640 
Q 1550 409 1972 409 
Q 2434 409 2667 671 
Q 2900 934 2900 1459 
L 2900 3500 
L 3475 3500 
L 3475 806 
Q 3475 619 3529 530 
Q 3584 441 3700 441 
Q 3728 441 3778 458 
Q 3828 475 3916 513 
L 3916 50 
Q 3788 -22 3673 -56 
Q 3559 -91 3450 -91 
Q 3234 -91 3106 31 
Q 2978 153 2931 403 
Q 2775 156 2548 32 
Q 2322 -91 2016 -91 
Q 1697 -91 1473 31 
Q 1250 153 1119 397 
L 1119 -1331 
L 544 -1331 
z
" transform="scale(0.015625)"/>
       <path id="DejaVuSans-4d" d="M 628 4666 
L 1569 4666 
L 2759 1491 
L 3956 4666 
L 4897 4666 
L 4897 0 
L 4281 0 
L 4281 4097 
L 3078 897 
L 2444 897 
L 1241 4097 
L 1241 0 
L 628 0 
L 628 4666 
z
" transform="scale(0.015625)"/>
      </defs>
      <use xlink:href="#DejaVuSans-48" transform="translate(0 0.78125)"/>
      <use xlink:href="#DejaVuSans-32" transform="translate(76.152344 -15.625) scale(0.7)"/>
      <use xlink:href="#DejaVuSans-4f" transform="translate(123.422852 0.78125)"/>
      <use xlink:href="#DejaVuSans-32" transform="translate(203.09082 -15.625) scale(0.7)"/>
      <use xlink:href="#DejaVuSans-20" transform="translate(250.361328 0.78125)"/>
      <use xlink:href="#DejaVuSans-2f" transform="translate(282.148438 0.78125)"/>
      <use xlink:href="#DejaVuSans-20" transform="translate(315.839844 0.78125)"/>
      <use xlink:href="#DejaVuSans-b5" transform="translate(347.626953 0.78125)"/>
      <use xlink:href="#DejaVuSans-4d" transform="translate(411.25 0.78125)"/>
     </g>
    </g>
   </g>
   <g id="line2d_53">
    <path d="M 97.280909 37.241364 
L 105.248627 38.343333 
L 113.216345 39.594364 
L 121.184063 41.02148 
L 129.151781 42.658725 
L 137.119499 44.547759 
L 145.087217 46.74294 
L 153.054935 49.31528 
L 161.022653 52.359158 
L 168.990371 56.002906 
L 176.958089 60.425579 
L 184.925807 65.883058 
L 192.893525 72.755081 
L 200.861243 83.213024 
L 208.828961 102.938357 
L 216.796679 128.177866 
L 224.764397 129.325925 
L 232.732115 151.227829 
L 240.699833 166.987935 
L 248.667551 174.579248 
L 256.635269 178.124581 
L 264.602987 180.094734 
L 272.570705 181.390074 
L 280.538423 182.052591 
L 288.506141 182.402334 
L 296.473859 182.699709 
L 304.441577 182.941842 
L 312.409295 183.140558 
L 320.377013 183.305794 
L 328.344731 183.445019 
L 336.312449 183.563787 
L 344.280167 183.666264 
L 352.247885 183.755617 
L 360.215603 183.834285 
L 368.183321 183.904168 
L 376.151039 183.966765 
L 384.118757 184.023266 
L 392.086475 184.074625 
L 400.054193 184.12161 
L 408.021911 184.164845 
L 415.989629 184.204837 
L 423.957347 184.242001 
L 431.925065 184.276681 
L 439.892783 184.309158 
L 447.860501 184.339667 
L 455.828219 184.368407 
L 463.795937 184.395542 
L 471.763655 184.421213 
L 479.731373 184.445543 
L 487.699091 184.468636 
" clip-path="url(#p2ad36aac0e)" style="fill: none; stroke: #ff0000; stroke-width: 2; stroke-linecap: square"/>
   </g>
   <g id="patch_14">
    <path d="M 77.76 191.83 
L 77.76 29.88 
" style="fill: none; stroke: #000000; stroke-width: 0.8; stroke-linejoin: miter; stroke-linecap: square"/>
   </g>
   <g id="patch_15">
    <path d="M 507.22 191.83 
L 507.22 29.88 
" style="fill: none; stroke: #000000; stroke-width: 0.8; stroke-linejoin: miter; stroke-linecap: square"/>
   </g>
   <g id="patch_16">
    <path d="M 77.76 191.83 
L 507.22 191.83 
" style="fill: none; stroke: #000000; stroke-width: 0.8; stroke-linejoin: miter; stroke-linecap: square"/>
   </g>
   <g id="patch_17">
    <path d="M 77.76 29.88 
L 507.22 29.88 
" style="fill: none; stroke: #000000; stroke-width: 0.8; stroke-linejoin: miter; stroke-linecap: square"/>
   </g>
   <g id="legend_3">
    <g id="patch_18">
     <path d="M 440.102812 186.83 
L 500.22 186.83 
Q 502.22 186.83 502.22 184.83 
L 502.22 171.151875 
Q 502.22 169.151875 500.22 169.151875 
L 440.102812 169.151875 
Q 438.102812 169.151875 438.102812 171.151875 
L 438.102812 184.83 
Q 438.102812 186.83 440.102812 186.83 
z
" style="fill: #ffffff; opacity: 0.8; stroke: #cccccc; stroke-linejoin: miter"/>
    </g>
    <g id="line2d_54">
     <path d="M 442.102812 177.250313 
L 452.102812 177.250313 
L 462.102812 177.250313 
" style="fill: none; stroke: #ff0000; stroke-width: 2; stroke-linecap: square"/>
    </g>
    <g id="text_46">
     <!-- H2O2 -->
     <g transform="translate(470.102812 180.750313) scale(0.1 -0.1)">
      <use xlink:href="#DejaVuSans-48"/>
      <use xlink:href="#DejaVuSans-32" transform="translate(75.195312 0)"/>
      <use xlink:href="#DejaVuSans-4f" transform="translate(138.818359 0)"/>
      <use xlink:href="#DejaVuSans-32" transform="translate(217.529297 0)"/>
     </g>
    </g>
   </g>
  </g>
 </g>
 <defs>
  <clipPath id="p2ad36aac0e">
   <rect x="77.76" y="29.88" width="429.46" height="161.95"/>
  </clipPath>
  <clipPath id="pac6cb88ba3">
   <rect x="77.76" y="225.21" width="429.46" height="161.95"/>
  </clipPath>
 </defs>
</svg>
