<?xml version="1.0" encoding="UTF-8" standalone="no"?>
<!-- Created with Inkscape (http://www.inkscape.org/) -->

<svg
   width="162.38437mm"
   height="89.195549mm"
   viewBox="0 0 162.38437 89.195549"
   version="1.1"
   id="svg1"
   inkscape:export-filename="PALM.png"
   inkscape:export-xdpi="150"
   inkscape:export-ydpi="150"
   inkscape:version="1.3.2 (1:1.3.2+202311252150+091e20ef0f)"
   sodipodi:docname="PALM.svg"
   xmlns:inkscape="http://www.inkscape.org/namespaces/inkscape"
   xmlns:sodipodi="http://sodipodi.sourceforge.net/DTD/sodipodi-0.dtd"
   xmlns="http://www.w3.org/2000/svg"
   xmlns:svg="http://www.w3.org/2000/svg">
  <sodipodi:namedview
     id="namedview1"
     pagecolor="#fcfcfc"
     bordercolor="#ffffff"
     borderopacity="1"
     inkscape:showpageshadow="0"
     inkscape:pageopacity="0"
     inkscape:pagecheckerboard="1"
     inkscape:deskcolor="#d1d1d1"
     inkscape:document-units="mm"
     showguides="false"
     inkscape:zoom="0.5"
     inkscape:cx="33"
     inkscape:cy="134"
     inkscape:window-width="1920"
     inkscape:window-height="954"
     inkscape:window-x="0"
     inkscape:window-y="0"
     inkscape:window-maximized="1"
     inkscape:current-layer="layer1">
    <sodipodi:guide
       position="16.384376,285.88145"
       orientation="1,0"
       id="guide88"
       inkscape:locked="false" />
    <sodipodi:guide
       position="36.384376,285.88145"
       orientation="-1,0"
       id="guide91"
       inkscape:label=""
       inkscape:locked="false"
       inkscape:color="rgb(0,134,229)" />
    <sodipodi:guide
       position="26.384376,285.88145"
       orientation="-1,0"
       id="guide92"
       inkscape:label=""
       inkscape:locked="false"
       inkscape:color="rgb(0,134,229)" />
    <sodipodi:guide
       position="46.384376,285.88145"
       orientation="-1,0"
       id="guide93"
       inkscape:label=""
       inkscape:locked="false"
       inkscape:color="rgb(0,134,229)" />
    <sodipodi:guide
       position="61.384376,285.88145"
       orientation="-1,0"
       id="guide94"
       inkscape:label=""
       inkscape:locked="false"
       inkscape:color="rgb(0,134,229)" />
    <sodipodi:guide
       position="76.384376,285.88145"
       orientation="-1,0"
       id="guide95"
       inkscape:label=""
       inkscape:locked="false"
       inkscape:color="rgb(0,134,229)" />
    <sodipodi:guide
       position="91.384377,285.88145"
       orientation="-1,0"
       id="guide96"
       inkscape:label=""
       inkscape:locked="false"
       inkscape:color="rgb(0,134,229)" />
    <sodipodi:guide
       position="111.38438,285.88145"
       orientation="-1,0"
       id="guide97"
       inkscape:label=""
       inkscape:locked="false"
       inkscape:color="rgb(0,134,229)" />
    <sodipodi:guide
       position="131.38438,285.88145"
       orientation="-1,0"
       id="guide98"
       inkscape:label=""
       inkscape:locked="false"
       inkscape:color="rgb(0,134,229)" />
    <sodipodi:guide
       position="111.38438,285.88145"
       orientation="0,-1"
       id="guide114"
       inkscape:locked="false" />
  </sodipodi:namedview>
  <defs
     id="defs1">
    <inkscape:path-effect
       effect="powerclip"
       id="path-effect144"
       is_visible="true"
       lpeversion="1"
       inverse="true"
       flatten="false"
       hide_clip="false"
       message="Use fill-rule evenodd on &lt;b&gt;fill and stroke&lt;/b&gt; dialog if no flatten result after convert clip to paths." />
    <inkscape:path-effect
       effect="powerclip"
       id="path-effect130"
       is_visible="true"
       lpeversion="1"
       inverse="true"
       flatten="false"
       hide_clip="false"
       message="Use fill-rule evenodd on &lt;b&gt;fill and stroke&lt;/b&gt; dialog if no flatten result after convert clip to paths." />
    <inkscape:path-effect
       effect="powermask"
       id="path-effect87"
       is_visible="true"
       lpeversion="1"
       uri="#mask-powermask-path-effect87"
       invert="false"
       hide_mask="false"
       background="false"
       background_color="#ffffffff" />
    <clipPath
       clipPathUnits="userSpaceOnUse"
       id="clipPath129">
      <path
         id="path130"
         style="font-weight:800;font-size:34.3951px;line-height:1.05;font-family:'Source Sans 3';-inkscape-font-specification:'Source Sans 3 Ultra-Bold';display:none;fill:#000000;fill-opacity:0.346511;stroke:none;stroke-width:0.945055"
         d="m 66.477078,190.23852 -7.779887,29.7403 4.684469,1.22473 2.557468,-9.77615 2.195732,0.57465 c 1.346726,0.35233 2.687193,0.32898 4.021976,-0.0703 1.342752,-0.42972 2.551091,-1.3017 3.624585,-2.61535 1.100942,-1.33901 1.961854,-3.19619 2.583305,-5.57175 0.64531,-2.46694 0.800219,-4.49289 0.464055,-6.07767 -0.336172,-1.58475 -1.000435,-2.83205 -1.992643,-3.7424 -0.992138,-0.91064 -2.190808,-1.54989 -3.596164,-1.9172 z m 19.911447,5.20846 -13.664282,28.20138 4.772319,1.24799 2.822567,-6.43682 5.567619,1.45625 -0.690915,6.99492 4.948018,1.29398 1.865519,-31.28698 z m -16.744715,1.8185 1.844334,0.48266 c 1.073473,0.2808 1.817256,0.78481 2.231903,1.51153 0.434173,0.73184 0.459933,1.82836 0.07752,3.29024 -0.374438,1.43143 -0.928317,2.47449 -1.66243,3.12849 -0.726072,0.62325 -1.635958,0.79204 -2.729034,0.50643 l -1.961637,-0.51315 z m 30.182656,1.69705 -7.779372,29.74031 12.061796,3.15536 1.60145,-6.12211 -7.377841,-1.9296 6.178431,-23.61871 z m -12.208042,2.66341 0.117306,0.031 c -0.164126,1.58407 -0.347943,3.24424 -0.551905,4.98058 -0.184409,1.74146 -0.341027,3.37635 -0.469738,4.90461 l -0.249079,2.52181 -3.784267,-0.99012 1.017508,-2.32079 c 0.636135,-1.39551 1.290286,-2.90013 1.962672,-4.51394 0.691914,-1.60871 1.344469,-3.14652 1.957503,-4.61315 z m 27.548706,1.34927 -7.77937,29.7403 4.21576,1.10329 2.56936,-9.82214 c 0.2629,-1.00504 0.5345,-2.20315 0.81493,-3.59409 0.28045,-1.39094 0.55093,-2.78457 0.81184,-4.18063 0.28043,-1.39093 0.5094,-2.58408 0.68626,-3.57911 l 0.11679,0.031 -0.55655,8.34729 -0.27234,11.20397 2.60604,0.6811 5.27824,-9.89449 3.63078,-7.54321 0.11731,0.031 c -0.33301,0.95417 -0.72782,2.10338 -1.18391,3.44837 -0.43659,1.35009 -0.87291,2.70029 -1.30948,4.05039 -0.4172,1.35518 -0.7573,2.53528 -1.02009,3.54036 l -2.56936,9.82214 4.24522,1.11052 7.77937,-29.7403 -5.09374,-1.33222 -6.19136,11.94966 c -0.39873,0.80681 -0.80541,1.64373 -1.22008,2.51147 -0.38717,0.84238 -0.78836,1.69749 -1.20302,2.56522 l -0.11679,-0.0305 c 0.0634,-0.95963 0.13235,-1.9016 0.20722,-2.82566 0.0826,-0.95455 0.1476,-1.88099 0.19534,-2.77968 l 0.36535,-13.4736 z" />
      <path
         id="lpe_path-effect130"
         style="font-weight:800;font-size:34.3951px;line-height:1.05;font-family:'Source Sans 3';-inkscape-font-specification:'Source Sans 3 Ultra-Bold';display:inline;fill:#000000;fill-opacity:0.346511;stroke:none;stroke-width:0.945055"
         class="powerclip"
         d="M 9.5406334,168.80583 H 181.92501 v 99.19555 H 9.5406334 Z m 56.9364446,21.43269 -7.779887,29.7403 4.684469,1.22473 2.557468,-9.77615 2.195732,0.57465 c 1.346726,0.35233 2.687193,0.32898 4.021976,-0.0703 1.342752,-0.42972 2.551091,-1.3017 3.624585,-2.61535 1.100942,-1.33901 1.961854,-3.19619 2.583305,-5.57175 0.64531,-2.46694 0.800219,-4.49289 0.464055,-6.07767 -0.336172,-1.58475 -1.000435,-2.83205 -1.992643,-3.7424 -0.992138,-0.91064 -2.190808,-1.54989 -3.596164,-1.9172 z m 19.911447,5.20846 -13.664282,28.20138 4.772319,1.24799 2.822567,-6.43682 5.567619,1.45625 -0.690915,6.99492 4.948018,1.29398 1.865519,-31.28698 z m -16.744715,1.8185 -2.199344,8.4062 1.961637,0.51315 c 1.093076,0.28561 2.002962,0.11682 2.729034,-0.50643 0.734113,-0.654 1.287992,-1.69706 1.66243,-3.12849 0.382413,-1.46188 0.356653,-2.5584 -0.07752,-3.29024 -0.414647,-0.72672 -1.15843,-1.23073 -2.231903,-1.51153 z m 30.182656,1.69705 -7.779372,29.74031 12.061796,3.15536 1.60145,-6.12211 -7.377841,-1.9296 6.178431,-23.61871 z m -12.208042,2.66341 c -0.613034,1.46663 -1.265589,3.00444 -1.957503,4.61315 -0.672386,1.61381 -1.326537,3.11843 -1.962672,4.51394 l -1.017508,2.32079 3.784267,0.99012 0.249079,-2.52181 c 0.128711,-1.52826 0.285329,-3.16315 0.469738,-4.90461 0.203962,-1.73634 0.387779,-3.39651 0.551905,-4.98058 z m 27.548706,1.34927 -7.77937,29.7403 4.21576,1.10329 2.56936,-9.82214 c 0.2629,-1.00504 0.5345,-2.20315 0.81493,-3.59409 0.28045,-1.39094 0.55093,-2.78457 0.81184,-4.18063 0.28043,-1.39093 0.5094,-2.58408 0.68626,-3.57911 l 0.11679,0.031 -0.55655,8.34729 -0.27234,11.20397 2.60604,0.6811 5.27824,-9.89449 3.63078,-7.54321 0.11731,0.031 c -0.33301,0.95417 -0.72782,2.10338 -1.18391,3.44837 -0.43659,1.35009 -0.87291,2.70029 -1.30948,4.05039 -0.4172,1.35518 -0.7573,2.53528 -1.02009,3.54036 l -2.56936,9.82214 4.24522,1.11052 7.77937,-29.7403 -5.09374,-1.33222 -6.19136,11.94966 c -0.39873,0.80681 -0.80541,1.64373 -1.22008,2.51147 -0.38717,0.84238 -0.78836,1.69749 -1.20302,2.56522 l -0.11679,-0.0305 c 0.0634,-0.95963 0.13235,-1.9016 0.20722,-2.82566 0.0826,-0.95455 0.1476,-1.88099 0.19534,-2.77968 l 0.36535,-13.4736 z" />
    </clipPath>
    <clipPath
       clipPathUnits="userSpaceOnUse"
       id="clipPath145">
      <g
         id="g157"
         clip-path="none">
        <path
           style="fill:#6c8c00;fill-opacity:1;stroke:none;stroke-width:0.264458px;stroke-linecap:butt;stroke-linejoin:miter;stroke-opacity:1"
           d="m 30.925009,184.92438 c 0,0 113.509191,-18.03411 145.812371,-8.16688 1.4521,4.04347 -5.98518,-0.96796 -6.49451,3.29287 -0.56674,4.74112 6.75951,3.42227 4.73136,7.75546 -7.20793,-14.40954 -140.23138,-2.54417 -144.049221,-2.88145 z"
           id="path145"
           sodipodi:nodetypes="ccscc" />
        <path
           id="path146"
           style="fill:#6c8c00;stroke-width:0.292927;stroke-linecap:round;stroke-linejoin:round;stroke-dashoffset:3.25191;paint-order:stroke fill markers"
           d="m 75.893827,184.92439 c 0.0679,0.0972 -18.349533,15.96824 -22.087369,18.58549 -10.958909,7.67352 -30.201671,18.38523 -30.369679,18.14532 -0.168074,-0.23985 16.322754,-14.88901 27.278343,-22.56021 7.28578,-5.10155 25.110741,-14.26766 25.1787,-14.1706 z"
           sodipodi:nodetypes="zszsz"
           inkscape:transform-center-x="26.229078"
           inkscape:transform-center-y="18.367013" />
        <path
           id="path147"
           style="fill:#6c8c00;stroke-width:0.358509;stroke-linecap:round;stroke-linejoin:round;stroke-dashoffset:3.25191;paint-order:stroke fill markers"
           d="m 145.92501,184.92438 c 0.14447,0.0126 0.53548,29.76572 0.0488,35.32912 -1.42704,16.31118 -6.52249,42.77909 -6.8796,42.74785 -0.35711,-0.0312 -1.11812,-27.01651 0.30849,-43.32275 0.94874,-10.84417 6.37789,-34.76686 6.52236,-34.75422 z"
           sodipodi:nodetypes="zszsz"
           inkscape:transform-center-x="3.5350037"
           inkscape:transform-center-y="39.038496" />
        <path
           id="path148"
           style="fill:#6c8c00;stroke-width:0.351339;stroke-linecap:round;stroke-linejoin:round;stroke-dashoffset:3.25191;paint-order:stroke fill markers"
           d="m 138.85564,184.92437 c 0.13996,0.0247 -2.01959,29.10515 -2.96993,34.49495 -2.78636,15.80224 -10.02161,41.20688 -10.36757,41.14588 -0.34597,-0.061 1.21597,-26.47094 4.00148,-42.2684 1.85245,-10.50579 9.19608,-33.39711 9.33604,-33.37243 z"
           sodipodi:nodetypes="zszsz"
           inkscape:transform-center-x="6.6892933"
           inkscape:transform-center-y="37.820458" />
        <path
           id="path149"
           style="fill:#6c8c00;stroke-width:0.344312;stroke-linecap:round;stroke-linejoin:round;stroke-dashoffset:3.25191;paint-order:stroke fill markers"
           d="m 131.91826,184.92438 c 0.13455,0.036 -4.45761,28.242 -5.84581,33.42273 -4.06996,15.18928 -13.30339,39.3731 -13.63593,39.284 -0.33254,-0.0891 3.44806,-25.73894 7.51678,-40.92363 2.70582,-10.09827 11.8304,-31.81915 11.96493,-31.7831 z"
           sodipodi:nodetypes="zszsz"
           inkscape:transform-center-x="9.7496356"
           inkscape:transform-center-y="36.353466" />
        <path
           id="path150"
           style="fill:#6c8c00;stroke-width:0.337426;stroke-linecap:round;stroke-linejoin:round;stroke-dashoffset:3.25191;paint-order:stroke fill markers"
           d="m 124.91499,184.92439 c 0.12825,0.0467 -6.76406,27.19109 -8.56177,32.13034 -5.27074,14.48123 -16.35067,37.30252 -16.667712,37.18713 -0.317051,-0.11537 5.564662,-24.83366 10.833792,-39.3105 3.50414,-9.62755 14.26743,-30.05367 14.3957,-30.00697 z"
           sodipodi:nodetypes="zszsz"
           inkscape:transform-center-x="12.619996"
           inkscape:transform-center-y="34.658918" />
        <path
           id="path151"
           style="fill:#6c8c00;stroke-width:0.330677;stroke-linecap:round;stroke-linejoin:round;stroke-dashoffset:3.25191;paint-order:stroke fill markers"
           d="m 117.91178,184.92431 c 0.1212,0.0566 -8.92602,25.96813 -11.10294,30.63663 -6.38254,13.68741 -19.148801,35.02081 -19.448455,34.88108 -0.299652,-0.13976 7.553737,-23.76909 13.934345,-37.45235 4.24331,-9.0998 16.49584,-28.12189 16.61707,-28.06536 z"
           sodipodi:nodetypes="zszsz"
           inkscape:transform-center-x="15.279256"
           inkscape:transform-center-y="32.759137" />
        <path
           id="path152"
           style="fill:#6c8c00;stroke-width:0.324063;stroke-linecap:round;stroke-linejoin:round;stroke-dashoffset:3.25191;paint-order:stroke fill markers"
           d="m 110.90864,184.92438 c 0.11353,0.0655 -10.932201,24.58955 -13.456221,28.96132 -7.400171,12.81747 -21.685639,32.55424 -21.966238,32.39222 -0.280638,-0.16195 9.404662,-22.55988 16.80258,-35.37346 4.919851,-8.52143 18.506379,-26.04561 18.619909,-25.98008 z"
           sodipodi:nodetypes="zszsz"
           inkscape:transform-center-x="17.713774"
           inkscape:transform-center-y="30.67718" />
        <path
           id="path153"
           style="fill:#6c8c00;stroke-width:0.317582;stroke-linecap:round;stroke-linejoin:round;stroke-dashoffset:3.25191;paint-order:stroke fill markers"
           d="m 103.90556,184.92419 c 0.10524,0.0735 -12.773048,23.07231 -15.610597,27.12474 -8.319347,11.88125 -23.951607,29.92954 -24.211716,29.74741 -0.260108,-0.18215 11.10839,-21.22128 19.425218,-33.09894 5.530943,-7.89901 20.291845,-23.84689 20.397095,-23.77321 z"
           sodipodi:nodetypes="zszsz"
           inkscape:transform-center-x="19.913025"
           inkscape:transform-center-y="28.436638" />
        <path
           id="path154"
           style="fill:#6c8c00;stroke-width:0.31123;stroke-linecap:round;stroke-linejoin:round;stroke-dashoffset:3.25191;paint-order:stroke fill markers"
           d="m 96.902537,184.92394 c 0.09641,0.081 -14.44064,21.43384 -17.556981,25.14774 -9.136746,10.88876 -25.939586,27.17358 -26.177979,26.97355 -0.238413,-0.20001 12.657377,-19.76892 21.791354,-30.65437 6.074367,-7.23915 21.847159,-21.54784 21.943604,-21.46692 z"
           sodipodi:nodetypes="zszsz"
           inkscape:transform-center-x="21.868871"
           inkscape:transform-center-y="26.061392" />
        <path
           id="path155"
           style="fill:#6c8c00;stroke-width:0.305005;stroke-linecap:round;stroke-linejoin:round;stroke-dashoffset:3.25191;paint-order:stroke fill markers"
           d="m 89.899569,184.92361 c 0.08721,0.0872 -15.92868,19.69181 -19.288288,23.05141 -9.84998,9.84999 -27.645025,24.3132 -27.860673,24.09754 -0.215615,-0.21569 14.04553,-18.21869 23.892515,-28.06568 6.548547,-6.54855 23.169208,-19.17052 23.256448,-19.08327 z"
           sodipodi:nodetypes="zszsz"
           inkscape:transform-center-x="23.575521"
           inkscape:transform-center-y="23.575452" />
        <path
           id="path156"
           style="fill:#6c8c00;stroke-width:0.298905;stroke-linecap:round;stroke-linejoin:round;stroke-dashoffset:3.25191;paint-order:stroke fill markers"
           d="m 82.896669,184.92317 c 0.07769,0.0927 -17.23263,17.86401 -20.799481,20.85697 -10.457551,8.77493 -29.065672,21.375 -29.25779,21.14606 -0.192088,-0.22899 15.268353,-16.58672 25.722744,-25.359 6.952471,-5.83381 24.256817,-16.73668 24.334529,-16.64403 z"
           sodipodi:nodetypes="zszsz"
           inkscape:transform-center-x="25.029401"
           inkscape:transform-center-y="21.002772" />
        <path
           id="path157"
           style="fill:#6c8c00;stroke-width:0.287068;stroke-linecap:round;stroke-linejoin:round;stroke-dashoffset:3.25191;paint-order:stroke fill markers"
           d="m 68.89105,184.92439 c 0.05809,0.10054 -19.277999,14.02205 -23.150668,16.25798 -11.354262,6.55539 -31.05535,15.36937 -31.198864,15.12077 -0.143509,-0.24859 17.207152,-13.14154 28.557971,-19.69493 7.548643,-4.35822 25.733529,-11.78436 25.791603,-11.68382 z"
           sodipodi:nodetypes="zszsz"
           inkscape:transform-center-x="27.175157"
           inkscape:transform-center-y="15.69145" />
      </g>
    </clipPath>
  </defs>
  <g
     inkscape:label="Layer 1"
     inkscape:groupmode="layer"
     id="layer1"
     transform="translate(-14.540633,-173.80583)">
    <g
       id="g26"
       style="display:none">
      <path
         style="fill:#6c8c00;fill-opacity:1;stroke:none;stroke-width:0.070859px;stroke-linecap:butt;stroke-linejoin:miter;stroke-opacity:1"
         d="m 77.151751,40.542839 c -1.757037,8.475745 -2.265538,10.110009 -4.294016,14.859749 -1.997703,4.677666 -10.056912,22.40688 -13.91045,28.372619 1.988911,-8.12797 8.939591,-25.387538 11.015386,-30.221916 1.958444,-4.561041 2.890835,-6.018079 7.18908,-13.010452 z"
         id="path2"
         sodipodi:nodetypes="cscsc" />
      <path
         style="fill:#6c8c00;fill-opacity:1;stroke:none;stroke-width:0.070859px;stroke-linecap:butt;stroke-linejoin:miter;stroke-opacity:1"
         d="m 80.895474,41.384342 c -1.247964,8.565514 -1.658004,10.227217 -3.399341,15.089573 -1.714918,4.788573 -8.701452,22.967248 -12.192007,29.152377 1.500184,-8.2322 7.4082,-25.875895 9.191716,-30.825562 1.682691,-4.669813 2.526445,-6.17991 6.399632,-13.416388 z"
         id="path2-8"
         sodipodi:nodetypes="cscsc" />
      <path
         style="fill:#6c8c00;fill-opacity:1;stroke:none;stroke-width:0.070859px;stroke-linecap:butt;stroke-linejoin:miter;stroke-opacity:1"
         d="m 86.737706,41.459511 c -1.247964,8.565514 -1.658004,10.227217 -3.399341,15.089573 -1.714918,4.788573 -8.701452,22.967248 -12.192007,29.152377 1.500184,-8.2322 7.4082,-25.875895 9.191716,-30.825562 1.682691,-4.669813 2.526445,-6.17991 6.399632,-13.416388 z"
         id="path2-8-3"
         sodipodi:nodetypes="cscsc" />
      <path
         style="fill:#6c8c00;fill-opacity:1;stroke:none;stroke-width:0.0762222px;stroke-linecap:butt;stroke-linejoin:miter;stroke-opacity:1"
         d="M 94.444989,42.457098 C 92.210402,51.496083 91.597108,53.232022 89.222816,58.254794 86.884546,63.201348 77.498002,81.929802 73.1123,88.185181 75.581938,79.529488 83.75774,61.260622 86.186348,56.148802 88.477658,51.326007 89.539364,49.79787 94.444989,42.457098 Z"
         id="path2-8-3-7"
         sodipodi:nodetypes="cscsc" />
      <path
         style="fill:#6c8c00;fill-opacity:1;stroke:none;stroke-width:0.070859px;stroke-linecap:butt;stroke-linejoin:miter;stroke-opacity:1"
         d="m 98.981426,42.34246 c -1.247964,8.565514 -1.658004,10.227217 -3.399341,15.089573 -1.714918,4.788573 -8.701452,22.967248 -12.192007,29.152377 1.500184,-8.2322 7.4082,-25.875895 9.191716,-30.825562 1.682691,-4.669813 2.526445,-6.17991 6.399632,-13.416388 z"
         id="path2-8-3-7-0"
         sodipodi:nodetypes="cscsc" />
      <path
         style="fill:#6c8c00;fill-opacity:1;stroke:none;stroke-width:0.0554158px;stroke-linecap:butt;stroke-linejoin:miter;stroke-opacity:1"
         d="m 81.477714,37.747814 c -1.24797,-5.238792 -1.65801,-6.255113 -3.39934,-9.229 -1.71492,-2.92876 -8.701459,-14.0471 -12.192009,-17.830014 1.50018,5.034932 7.408199,15.82607 9.191719,18.853358 1.68269,2.856125 2.52644,3.779722 6.39963,8.205656 z"
         id="path2-8-6"
         sodipodi:nodetypes="cscsc" />
      <path
         style="fill:#6c8c00;fill-opacity:1;stroke:none;stroke-width:0.070859px;stroke-linecap:butt;stroke-linejoin:miter;stroke-opacity:1"
         d="m 103.99625,43.496605 c -1.24797,8.565514 -1.65801,10.227217 -3.39934,15.089573 -1.714923,4.788573 -8.701457,22.967248 -12.192012,29.152377 1.500184,-8.2322 7.4082,-25.875895 9.191716,-30.825562 1.682691,-4.669813 2.526446,-6.17991 6.399636,-13.416388 z"
         id="path3"
         sodipodi:nodetypes="cscsc" />
      <path
         style="fill:#6c8c00;fill-opacity:1;stroke:none;stroke-width:0.070859px;stroke-linecap:butt;stroke-linejoin:miter;stroke-opacity:1"
         d="m 108.72178,44.840102 c -1.24797,8.565514 -1.65801,10.227217 -3.39934,15.089573 -1.71492,4.788573 -8.701454,22.967248 -12.192009,29.152377 1.500184,-8.2322 7.408199,-25.875895 9.191719,-30.825562 1.68269,-4.669813 2.52644,-6.17991 6.39963,-13.416388 z"
         id="path4"
         sodipodi:nodetypes="cscsc" />
      <path
         style="fill:#6c8c00;fill-opacity:1;stroke:none;stroke-width:0.070859px;stroke-linecap:butt;stroke-linejoin:miter;stroke-opacity:1"
         d="m 113.9252,45.082052 c -1.24797,8.565514 -1.65801,10.227217 -3.39934,15.089573 -1.71492,4.788573 -8.70145,22.967248 -12.192008,29.152377 1.500184,-8.2322 7.408198,-25.875895 9.191718,-30.825562 1.68269,-4.669813 2.52644,-6.17991 6.39963,-13.416388 z"
         id="path5"
         sodipodi:nodetypes="cscsc" />
      <path
         style="fill:#6c8c00;fill-opacity:1;stroke:none;stroke-width:0.070859px;stroke-linecap:butt;stroke-linejoin:miter;stroke-opacity:1"
         d="m 119.32849,45.659125 c -1.24797,8.565514 -1.65801,10.227217 -3.39934,15.089573 -1.71492,4.788573 -8.70145,22.967248 -12.19201,29.152377 1.50019,-8.2322 7.4082,-25.875895 9.19172,-30.825562 1.68269,-4.669813 2.52644,-6.17991 6.39963,-13.416388 z"
         id="path6"
         sodipodi:nodetypes="cscsc" />
      <path
         style="fill:#6c8c00;fill-opacity:1;stroke:none;stroke-width:0.070859px;stroke-linecap:butt;stroke-linejoin:miter;stroke-opacity:1"
         d="m 125.02858,46.485661 c -1.24797,8.565514 -1.65801,10.227217 -3.39934,15.089573 -1.71492,4.788573 -8.70145,22.967248 -12.19201,29.152377 1.50019,-8.2322 7.4082,-25.875895 9.19172,-30.825562 1.68269,-4.669813 2.52644,-6.17991 6.39963,-13.416388 z"
         id="path7"
         sodipodi:nodetypes="cscsc" />
      <path
         style="fill:#6c8c00;fill-opacity:1;stroke:none;stroke-width:0.070859px;stroke-linecap:butt;stroke-linejoin:miter;stroke-opacity:1"
         d="m 129.87058,47.069496 c -1.24797,8.565514 -1.65801,10.227217 -3.39934,15.089573 -1.71492,4.788573 -8.70145,22.967248 -12.19201,29.152377 1.50019,-8.2322 7.4082,-25.875895 9.19172,-30.825562 1.68269,-4.669813 2.52644,-6.17991 6.39963,-13.416388 z"
         id="path8"
         sodipodi:nodetypes="cscsc" />
      <path
         style="fill:#6c8c00;fill-opacity:1;stroke:none;stroke-width:0.070859px;stroke-linecap:butt;stroke-linejoin:miter;stroke-opacity:1"
         d="m 134.77945,47.838926 c -1.24797,8.565514 -1.65801,10.227217 -3.39934,15.089573 -1.71492,4.788573 -8.70145,22.967248 -12.19201,29.152377 1.50019,-8.2322 7.4082,-25.875895 9.19172,-30.825562 1.68269,-4.669813 2.52644,-6.17991 6.39963,-13.416388 z"
         id="path9"
         sodipodi:nodetypes="cscsc" />
      <path
         style="fill:#6c8c00;fill-opacity:1;stroke:none;stroke-width:0.070859px;stroke-linecap:butt;stroke-linejoin:miter;stroke-opacity:1"
         d="m 140.51937,47.832163 c -1.24797,8.565514 -1.65801,10.227217 -3.39934,15.089573 -1.71492,4.788573 -8.70145,22.967248 -12.19201,29.152377 1.50019,-8.2322 7.4082,-25.875895 9.19172,-30.825562 1.68269,-4.669813 2.52644,-6.17991 6.39963,-13.416388 z"
         id="path10"
         sodipodi:nodetypes="cscsc" />
      <path
         style="fill:#6c8c00;fill-opacity:1;stroke:none;stroke-width:0.070859px;stroke-linecap:butt;stroke-linejoin:miter;stroke-opacity:1"
         d="m 145.76262,49.206467 c -1.24797,8.565514 -1.65801,10.227217 -3.39934,15.089573 -1.71492,4.788573 -8.70145,22.967248 -12.19201,29.152377 1.50019,-8.2322 7.4082,-25.875895 9.19172,-30.825562 1.68269,-4.669813 2.52644,-6.17991 6.39963,-13.416388 z"
         id="path11"
         sodipodi:nodetypes="cscsc" />
      <path
         style="fill:#6c8c00;fill-opacity:1;stroke:none;stroke-width:0.070859px;stroke-linecap:butt;stroke-linejoin:miter;stroke-opacity:1"
         d="m 151.62201,50.0315 c -1.24797,8.565514 -1.65801,10.227217 -3.39934,15.089573 -1.71492,4.788573 -8.70145,22.967248 -12.19201,29.152377 1.50019,-8.2322 7.4082,-25.875895 9.19172,-30.825562 1.68269,-4.669813 2.52644,-6.17991 6.39963,-13.416388 z"
         id="path12"
         sodipodi:nodetypes="cscsc" />
      <path
         style="fill:#6c8c00;fill-opacity:1;stroke:none;stroke-width:0.070859px;stroke-linecap:butt;stroke-linejoin:miter;stroke-opacity:1"
         d="m 157.31384,50.582274 c -1.24797,8.565514 -1.65801,10.227217 -3.39934,15.089573 -1.71492,4.788573 -8.70145,22.967248 -12.19201,29.152377 1.50019,-8.2322 7.4082,-25.875895 9.19172,-30.825562 1.68269,-4.669813 2.52644,-6.17991 6.39963,-13.416388 z"
         id="path13"
         sodipodi:nodetypes="cscsc" />
      <path
         style="fill:#6c8c00;fill-opacity:1;stroke:none;stroke-width:0.0554158px;stroke-linecap:butt;stroke-linejoin:miter;stroke-opacity:1"
         d="m 85.981162,38.019849 c -1.24797,-5.238792 -1.65801,-6.255113 -3.39934,-9.229 -1.71492,-2.92876 -8.701459,-14.0471 -12.192009,-17.830014 1.50018,5.034932 7.408199,15.82607 9.191719,18.853358 1.68269,2.856125 2.52644,3.779722 6.39963,8.205656 z"
         id="path14"
         sodipodi:nodetypes="cscsc" />
      <path
         style="fill:#6c8c00;fill-opacity:1;stroke:none;stroke-width:0.0554158px;stroke-linecap:butt;stroke-linejoin:miter;stroke-opacity:1"
         d="m 90.588748,38.291884 c -1.24797,-5.238792 -1.65801,-6.255113 -3.39934,-9.229 -1.71492,-2.92876 -8.701459,-14.0471 -12.192009,-17.830014 1.50018,5.034932 7.408199,15.82607 9.191719,18.853358 1.68269,2.856125 2.52644,3.779722 6.39963,8.205656 z"
         id="path15"
         sodipodi:nodetypes="cscsc" />
      <path
         style="fill:#6c8c00;fill-opacity:1;stroke:none;stroke-width:0.0554158px;stroke-linecap:butt;stroke-linejoin:miter;stroke-opacity:1"
         d="m 95.878546,38.563919 c -1.24797,-5.238792 -1.65801,-6.255113 -3.39934,-9.229 -1.71492,-2.92876 -8.701459,-14.0471 -12.192009,-17.830014 1.50018,5.034932 7.408199,15.82607 9.191719,18.853358 1.68269,2.856125 2.52644,3.779722 6.39963,8.205656 z"
         id="path16"
         sodipodi:nodetypes="cscsc" />
      <path
         style="fill:#6c8c00;fill-opacity:1;stroke:none;stroke-width:0.0554158px;stroke-linecap:butt;stroke-linejoin:miter;stroke-opacity:1"
         d="m 102.04608,40.151496 c -1.24797,-5.238792 -1.65801,-6.255113 -3.399339,-9.229 -1.71492,-2.92876 -8.701459,-14.0471 -12.192009,-17.830014 1.50018,5.034932 7.408199,15.82607 9.191719,18.853358 1.68269,2.856125 2.52644,3.779722 6.399629,8.205656 z"
         id="path17"
         sodipodi:nodetypes="cscsc" />
      <path
         style="fill:#6c8c00;fill-opacity:1;stroke:none;stroke-width:0.0554158px;stroke-linecap:butt;stroke-linejoin:miter;stroke-opacity:1"
         d="m 108.49946,40.423531 c -1.24797,-5.238792 -1.65801,-6.255113 -3.39934,-9.229 -1.71492,-2.92876 -8.701455,-14.0471 -12.192005,-17.830014 1.50018,5.034932 7.408195,15.82607 9.191715,18.853358 1.68269,2.856125 2.52644,3.779722 6.39963,8.205656 z"
         id="path18"
         sodipodi:nodetypes="cscsc" />
      <path
         style="fill:#6c8c00;fill-opacity:1;stroke:none;stroke-width:0.0554158px;stroke-linecap:butt;stroke-linejoin:miter;stroke-opacity:1"
         d="m 113.34614,40.55211 c -1.24797,-5.238792 -1.65801,-6.255113 -3.39934,-9.229 -1.71492,-2.92876 -8.70146,-14.0471 -12.192006,-17.830014 1.50018,5.034932 7.408196,15.82607 9.191716,18.853358 1.68269,2.856125 2.52644,3.779722 6.39963,8.205656 z"
         id="path19"
         sodipodi:nodetypes="cscsc" />
      <path
         style="fill:#6c8c00;fill-opacity:1;stroke:none;stroke-width:0.0554158px;stroke-linecap:butt;stroke-linejoin:miter;stroke-opacity:1"
         d="m 119.13644,41.011168 c -1.24797,-5.238792 -1.65801,-6.255113 -3.39934,-9.229 -1.71492,-2.92876 -8.70146,-14.0471 -12.19201,-17.830014 1.50018,5.034932 7.4082,15.82607 9.19172,18.853358 1.68269,2.856125 2.52644,3.779722 6.39963,8.205656 z"
         id="path20"
         sodipodi:nodetypes="cscsc" />
      <path
         style="fill:#6c8c00;fill-opacity:1;stroke:none;stroke-width:0.0554158px;stroke-linecap:butt;stroke-linejoin:miter;stroke-opacity:1"
         d="m 125.57495,41.998356 c -1.24797,-5.238792 -1.65801,-6.255113 -3.39934,-9.229 -1.71492,-2.92876 -8.70146,-14.0471 -12.19201,-17.830014 1.50018,5.034932 7.4082,15.82607 9.19172,18.853358 1.68269,2.856125 2.52644,3.779722 6.39963,8.205656 z"
         id="path21"
         sodipodi:nodetypes="cscsc" />
      <path
         style="fill:#6c8c00;fill-opacity:1;stroke:none;stroke-width:0.0554158px;stroke-linecap:butt;stroke-linejoin:miter;stroke-opacity:1"
         d="m 131.29724,41.948412 c -1.24797,-5.238792 -1.65801,-6.255113 -3.39934,-9.229 -1.71492,-2.92876 -8.70146,-14.0471 -12.19201,-17.830014 1.50018,5.034932 7.4082,15.82607 9.19172,18.853358 1.68269,2.856125 2.52644,3.779722 6.39963,8.205656 z"
         id="path22"
         sodipodi:nodetypes="cscsc" />
      <path
         style="fill:#6c8c00;fill-opacity:1;stroke:none;stroke-width:0.0554158px;stroke-linecap:butt;stroke-linejoin:miter;stroke-opacity:1"
         d="m 137.76019,42.881406 c -1.24797,-5.238792 -1.65801,-6.255113 -3.39934,-9.229 -1.71492,-2.92876 -8.70146,-14.0471 -12.19201,-17.830014 1.50018,5.034932 7.4082,15.82607 9.19172,18.853358 1.68269,2.856125 2.52644,3.779722 6.39963,8.205656 z"
         id="path23"
         sodipodi:nodetypes="cscsc" />
      <path
         style="fill:#6c8c00;fill-opacity:1;stroke:none;stroke-width:0.0554158px;stroke-linecap:butt;stroke-linejoin:miter;stroke-opacity:1"
         d="m 144.33896,43.696447 c -1.24797,-5.238792 -1.65801,-6.255113 -3.39934,-9.229 -1.71492,-2.92876 -8.70146,-14.0471 -12.19201,-17.830014 1.50018,5.034932 7.4082,15.82607 9.19172,18.853358 1.68269,2.856125 2.52644,3.779722 6.39963,8.205656 z"
         id="path24"
         sodipodi:nodetypes="cscsc" />
      <path
         style="fill:#6c8c00;fill-opacity:1;stroke:none;stroke-width:0.0554158px;stroke-linecap:butt;stroke-linejoin:miter;stroke-opacity:1"
         d="m 151.47562,44.985423 c -1.24797,-5.238792 -1.65801,-6.255113 -3.39934,-9.229 -1.71492,-2.92876 -8.70146,-14.0471 -12.19201,-17.830014 1.50018,5.034932 7.4082,15.82607 9.19172,18.853358 1.68269,2.856125 2.52644,3.779722 6.39963,8.205656 z"
         id="path25"
         sodipodi:nodetypes="cscsc" />
      <path
         style="fill:#6c8c00;fill-opacity:1;stroke:none;stroke-width:0.0554158px;stroke-linecap:butt;stroke-linejoin:miter;stroke-opacity:1"
         d="m 157.8695,45.37116 c -1.24797,-5.238792 -1.65801,-6.255113 -3.39934,-9.229 -1.71492,-2.92876 -8.70146,-14.0471 -12.19201,-17.830014 1.50018,5.034932 7.4082,15.82607 9.19172,18.853358 1.68269,2.856125 2.52644,3.779722 6.39963,8.205656 z"
         id="path26"
         sodipodi:nodetypes="cscsc" />
    </g>
    <path
       id="path57"
       style="display:none;fill:#6c8c00;fill-opacity:1;stroke:none;stroke-width:0.070859px;stroke-linecap:butt;stroke-linejoin:miter;stroke-opacity:1"
       d="m 65.886418,10.688753 c 1.500178,5.034927 7.408168,15.826345 9.191687,18.85363 1.682688,2.856122 2.526423,3.779254 6.399609,8.205184 -1.247969,-5.238787 -1.657947,-6.25501 -3.399276,-9.228894 -1.714918,-2.928757 -8.701474,-14.04701 -12.19202,-17.82992 z m 4.503601,0.272335 c 1.500178,5.034927 7.408169,15.825828 9.191687,18.853113 1.682688,2.856122 2.526423,3.779771 6.399609,8.205701 -1.247969,-5.238787 -1.657947,-6.25501 -3.399276,-9.228895 C 80.867121,25.86225 73.880565,14.743998 70.390019,10.961088 Z m 4.60747,0.271818 c 1.500179,5.034927 7.408169,15.825828 9.191687,18.853113 1.682689,2.856122 2.526424,3.779771 6.39961,8.205701 -1.247969,-5.238787 -1.657948,-6.25501 -3.399276,-9.228894 -1.714918,-2.928758 -8.701474,-14.04701 -12.192021,-17.82992 z m 5.2896,0.271818 c 1.500179,5.034927 7.408169,15.826345 9.191687,18.85363 1.682688,2.856122 2.526423,3.779771 6.399609,8.2057 C 94.630417,33.325268 94.220438,32.309044 92.47911,29.33516 90.764191,26.406403 83.777636,15.287634 80.287089,11.504724 Z m 6.167582,1.5875 c 1.500179,5.034927 7.408169,15.826345 9.191687,18.85363 1.682689,2.856122 2.526424,3.779771 6.399612,8.2057 C 100.798,34.912768 100.38802,33.896544 98.646692,30.92266 96.931774,27.993903 89.945218,16.875134 86.454671,13.092224 Z m 6.453353,0.272335 c 1.500179,5.034927 7.408166,15.825828 9.191686,18.853113 1.68269,2.856122 2.52642,3.779771 6.39961,8.2057 -1.24797,-5.238786 -1.65795,-6.25501 -3.39928,-9.228894 -1.71491,-2.928757 -8.701469,-14.047009 -12.192016,-17.829919 z m 4.846733,0.128674 c 1.500178,5.034927 7.408173,15.825828 9.191683,18.853113 1.68269,2.856122 2.52643,3.779771 6.39961,8.205701 -1.24797,-5.238787 -1.65794,-6.25501 -3.39927,-9.228894 -1.71492,-2.928757 -8.70148,-14.04701 -12.192023,-17.82992 z m 5.790343,0.458887 c 1.50018,5.034927 7.40817,15.826345 9.19169,18.85363 1.68269,2.856122 2.52642,3.779254 6.39961,8.205183 -1.24797,-5.238786 -1.65795,-6.25501 -3.39928,-9.228894 C 114.0222,28.853282 107.03565,17.73503 103.5451,13.95212 Z m 12.16102,0.93741 c 1.50017,5.034927 7.40816,15.825828 9.19168,18.853113 1.68269,2.856122 2.52643,3.779771 6.39961,8.205701 -1.24797,-5.238787 -1.65795,-6.25501 -3.39927,-9.228894 -1.71492,-2.928757 -8.70148,-14.047009 -12.19202,-17.82992 z m -5.72265,0.04961 c 1.50018,5.034927 7.40817,15.826344 9.19168,18.853629 1.68269,2.856123 2.52643,3.779771 6.39961,8.205701 -1.24796,-5.238787 -1.65794,-6.25501 -3.39927,-9.228894 -1.71492,-2.928757 -8.70148,-14.047526 -12.19202,-17.830436 z m 12.1853,0.88315 c 1.50018,5.034927 7.40817,15.826345 9.19169,18.85363 1.68269,2.856122 2.52642,3.779771 6.39961,8.2057 -1.24797,-5.238786 -1.65795,-6.255527 -3.39928,-9.229411 C 132.64587,30.723452 125.65932,19.6052 122.16877,15.82229 Z m 6.57893,0.814937 c 1.50018,5.034927 7.40817,15.826345 9.19168,18.85363 1.68269,2.856122 2.52643,3.779771 6.39961,8.205701 -1.24797,-5.238787 -1.65794,-6.25501 -3.39927,-9.228894 -1.71492,-2.928757 -8.70148,-14.047526 -12.19202,-17.830437 z m 7.13651,1.289327 c 1.50018,5.034927 7.40817,15.825828 9.19169,18.853113 1.68269,2.856122 2.52642,3.779771 6.39961,8.205701 -1.24797,-5.238787 -1.65795,-6.25501 -3.39928,-9.228894 -1.71492,-2.928757 -8.70147,-14.047009 -12.19202,-17.82992 z m 6.39393,0.385507 c 1.50018,5.034927 7.40817,15.826344 9.19168,18.853629 1.68269,2.856122 2.52643,3.779771 6.39961,8.205701 -1.24797,-5.238787 -1.65794,-6.255527 -3.39927,-9.229411 -1.71492,-2.928757 -8.70148,-14.047009 -12.19202,-17.829919 z M 77.15188,40.542745 c -4.298241,6.992366 -5.230783,8.449539 -7.189225,13.010575 -2.075793,4.834373 -9.02644,22.093966 -11.015349,30.221928 3.853534,-5.965733 11.912561,-23.694767 13.910262,-28.372428 2.028476,-4.749735 2.537277,-6.384339 4.294312,-14.860075 z m 3.743441,0.841809 c -3.873183,7.236471 -4.71692,8.746427 -6.39961,13.416235 -1.783514,4.949662 -7.691504,22.593317 -9.191687,30.825509 3.490552,-6.185123 10.477105,-24.363658 12.192021,-29.152226 1.741335,-4.862351 2.151313,-6.524013 3.399276,-15.089518 z m 5.842537,0.07493 c -3.873183,7.236471 -4.71692,8.746427 -6.399609,13.416235 -1.783515,4.949662 -7.691505,22.593317 -9.191687,30.825509 3.490551,-6.185123 10.477104,-24.363658 12.19202,-29.152226 1.741336,-4.862351 2.151313,-6.524013 3.399276,-15.089518 z m 12.243697,0.88315 c -3.873183,7.236471 -4.71692,8.746427 -6.399609,13.416235 -1.783514,4.949662 -7.691505,22.593317 -9.191687,30.825509 3.490551,-6.185123 10.477104,-24.363657 12.19202,-29.152226 1.741336,-4.862351 2.151313,-6.524012 3.399276,-15.089518 z m -4.536674,0.114205 c -4.90562,7.340765 -5.967103,8.869397 -8.25841,13.692188 C 83.757865,61.260841 75.581969,79.52963 73.112333,88.185314 77.498031,81.929941 86.88471,63.20139 89.222978,58.254841 c 2.374289,-5.022767 2.987318,-6.759026 5.221903,-15.798002 z m 9.551359,1.03973 c -3.87319,7.236471 -4.716924,8.746427 -6.399613,13.416235 -1.783514,4.949662 -7.691505,22.593317 -9.191687,30.825509 3.490551,-6.185123 10.477099,-24.363658 12.19202,-29.152226 1.74133,-4.862351 2.15131,-6.524013 3.39928,-15.089518 z m 4.72529,1.343587 c -3.87319,7.236471 -4.71692,8.746427 -6.39961,13.416235 -1.78352,4.949662 -7.691505,22.593317 -9.191687,30.825509 3.490551,-6.185123 10.477107,-24.363657 12.192017,-29.152226 1.74133,-4.862351 2.15131,-6.524013 3.39928,-15.089518 z m 5.20382,0.241846 c -3.87319,7.236471 -4.71693,8.746427 -6.39961,13.416235 -1.78352,4.949662 -7.691508,22.593317 -9.191691,30.825509 3.490551,-6.185123 10.477101,-24.363658 12.192021,-29.152226 1.74133,-4.862351 2.15131,-6.524013 3.39928,-15.089518 z m 5.40328,0.577226 c -3.87318,7.23647 -4.71692,8.746427 -6.39961,13.416235 -1.78351,4.949662 -7.69149,22.593317 -9.19168,30.825508 3.49055,-6.185122 10.4771,-24.363657 12.19202,-29.152225 1.74133,-4.862351 2.1513,-6.524013 3.39927,-15.089518 z m 5.69991,0.826306 c -3.87318,7.23647 -4.71692,8.746943 -6.39961,13.416752 -1.78351,4.949662 -7.69149,22.593317 -9.19168,30.825508 3.49055,-6.185122 10.4771,-24.364174 12.19202,-29.152742 1.74133,-4.862351 2.15131,-6.524013 3.39927,-15.089518 z m 4.84209,0.583943 c -3.87319,7.236471 -4.71693,8.746427 -6.39961,13.416236 -1.78352,4.949662 -7.6915,22.593317 -9.19169,30.825508 3.49056,-6.185122 10.4771,-24.363657 12.19202,-29.152225 1.74133,-4.862352 2.15131,-6.524013 3.39928,-15.089519 z m 10.64896,0.762744 c -3.87319,7.236471 -4.71692,8.746428 -6.39961,13.416236 -1.78352,4.949662 -7.69202,22.593317 -9.1922,30.825508 3.49055,-6.185122 10.4771,-24.363657 12.19202,-29.152225 1.74132,-4.862351 2.15182,-6.524013 3.39979,-15.089519 z m -5.74022,0.0067 c -3.87319,7.236471 -4.71692,8.746427 -6.39961,13.416236 -1.78352,4.949662 -7.6915,22.593317 -9.19169,30.825508 3.49056,-6.185122 10.47711,-24.363657 12.19202,-29.152225 1.74133,-4.862351 2.15131,-6.524013 3.39928,-15.089519 z m 10.98331,1.367359 c -3.87319,7.236471 -4.71692,8.746944 -6.39961,13.416752 -1.78352,4.949662 -7.6915,22.593317 -9.19169,30.825509 3.49056,-6.185123 10.47711,-24.364175 12.19202,-29.152743 1.74133,-4.862351 2.15131,-6.524013 3.39928,-15.089518 z m 5.85907,0.825272 c -3.87318,7.236471 -4.71692,8.746427 -6.39961,13.416236 -1.78351,4.949662 -7.69149,22.593317 -9.19168,30.825508 3.49055,-6.185122 10.4771,-24.363657 12.19202,-29.152225 1.74133,-4.862351 2.1513,-6.524013 3.39927,-15.089519 z m 5.69216,0.550871 c -3.87318,7.236471 -4.71692,8.746427 -6.39961,13.416236 -1.78352,4.949662 -7.6915,22.593316 -9.19168,30.825508 3.49055,-6.185123 10.4771,-24.363657 12.19202,-29.152226 1.74132,-4.862351 2.1513,-6.524012 3.39927,-15.089518 z"
       mask="none" />
    <path
       id="path129"
       style="font-weight:800;font-size:34.3951px;line-height:1.05;font-family:'Source Sans 3';-inkscape-font-specification:'Source Sans 3 Ultra-Bold';display:inline;fill:none;fill-opacity:0.0989534;stroke:none;stroke-width:0.945054;stroke-opacity:0.442942"
       d="m 66.477079,190.23852 -7.779887,29.7403 4.684469,1.22473 2.557467,-9.77615 2.195731,0.57465 c 1.346728,0.35233 2.687194,0.32898 4.021977,-0.0703 1.342753,-0.42972 2.55109,-1.3017 3.624585,-2.61535 1.100941,-1.33901 1.961855,-3.19619 2.583305,-5.57175 0.64531,-2.46694 0.800218,-4.49289 0.464054,-6.07767 -0.33617,-1.58475 -1.000433,-2.83205 -1.992643,-3.7424 -0.992136,-0.91064 -2.190808,-1.54989 -3.596163,-1.9172 z m 19.911446,5.20846 -13.664282,28.20138 4.772319,1.24799 2.822566,-6.43682 5.567619,1.45625 -0.690914,6.99492 4.948019,1.29398 1.865519,-31.28698 z m -16.744714,1.8185 1.844332,0.48266 c 1.073475,0.2808 1.817257,0.78481 2.231905,1.51153 0.434172,0.73184 0.459933,1.82836 0.07751,3.29024 -0.374439,1.43143 -0.928319,2.47449 -1.662431,3.12849 -0.726073,0.62325 -1.635958,0.79204 -2.729033,0.50643 l -1.961637,-0.51315 z m 30.182654,1.69705 -7.77937,29.74031 12.061795,3.15536 1.60145,-6.12211 -7.377841,-1.9296 6.178431,-23.61871 z m -12.208041,2.66341 0.117306,0.031 c -0.164127,1.58407 -0.347943,3.24424 -0.551904,4.98058 -0.184409,1.74146 -0.341027,3.37635 -0.469739,4.90461 l -0.24908,2.52181 -3.784266,-0.99012 1.017509,-2.32079 c 0.636134,-1.39551 1.290284,-2.90013 1.962671,-4.51394 0.691914,-1.60871 1.344469,-3.14652 1.957503,-4.61315 z m 27.548706,1.34927 -7.77937,29.7403 4.21576,1.10329 2.56936,-9.82214 c 0.2629,-1.00504 0.5345,-2.20315 0.81493,-3.59409 0.28045,-1.39094 0.55093,-2.78457 0.81184,-4.18063 0.28043,-1.39093 0.5094,-2.58408 0.68626,-3.57911 l 0.11679,0.031 -0.55655,8.34729 -0.27234,11.20397 2.60604,0.6811 5.27824,-9.89449 3.63078,-7.54321 0.11731,0.031 c -0.33301,0.95417 -0.72782,2.10338 -1.18391,3.44837 -0.43659,1.35009 -0.87291,2.70029 -1.30948,4.05039 -0.4172,1.35518 -0.7573,2.53528 -1.02009,3.54036 l -2.56936,9.82214 4.24522,1.11052 7.77937,-29.7403 -5.09374,-1.33222 -6.19136,11.94966 c -0.39873,0.80681 -0.80541,1.64373 -1.22008,2.51147 -0.38717,0.84238 -0.78836,1.69749 -1.20302,2.56522 l -0.11679,-0.0305 c 0.0634,-0.95963 0.13235,-1.9016 0.20722,-2.82566 0.0826,-0.95455 0.1476,-1.88099 0.19534,-2.77968 l 0.36535,-13.4736 z" />
    <g
       id="g124"
       clip-path="url(#clipPath129)"
       inkscape:path-effect="#path-effect130">
      <path
         style="fill:#6c8c00;fill-opacity:1;stroke:none;stroke-width:0.264458px;stroke-linecap:butt;stroke-linejoin:miter;stroke-opacity:1"
         d="m 30.925009,184.92438 c 0,0 113.509191,-18.03411 145.812371,-8.16688 1.4521,4.04347 -5.98518,-0.96796 -6.49451,3.29287 -0.56674,4.74112 6.75951,3.42227 4.73136,7.75546 -7.20793,-14.40954 -140.23138,-2.54417 -144.049221,-2.88145 z"
         id="path88"
         sodipodi:nodetypes="ccscc"
         inkscape:original-d="m 30.925009,184.92438 c 0,0 113.509191,-18.03411 145.812371,-8.16688 1.4521,4.04347 -5.98518,-0.96796 -6.49451,3.29287 -0.56674,4.74112 6.75951,3.42227 4.73136,7.75546 -7.20793,-14.40954 -140.23138,-2.54417 -144.049221,-2.88145 z" />
      <path
         id="path98"
         style="fill:#6c8c00;stroke-width:0.292927;stroke-linecap:round;stroke-linejoin:round;stroke-dashoffset:3.25191;paint-order:stroke fill markers"
         d="m 75.893827,184.92439 c 0.0679,0.0972 -18.349533,15.96824 -22.087369,18.58549 -10.958909,7.67352 -30.201671,18.38523 -30.369679,18.14532 -0.168074,-0.23985 16.322754,-14.88901 27.278343,-22.56021 7.28578,-5.10155 25.110741,-14.26766 25.1787,-14.1706 z"
         sodipodi:nodetypes="zszsz"
         inkscape:transform-center-x="26.229078"
         inkscape:transform-center-y="18.367013"
         inkscape:original-d="m 75.893827,184.92439 c 0.0679,0.0972 -18.349533,15.96824 -22.087369,18.58549 -10.958909,7.67352 -30.201671,18.38523 -30.369679,18.14532 -0.168074,-0.23985 16.322754,-14.88901 27.278343,-22.56021 7.28578,-5.10155 25.110741,-14.26766 25.1787,-14.1706 z" />
      <path
         id="path113"
         style="fill:#6c8c00;stroke-width:0.358509;stroke-linecap:round;stroke-linejoin:round;stroke-dashoffset:3.25191;paint-order:stroke fill markers"
         d="m 145.92501,184.92438 c 0.14447,0.0126 0.53548,29.76572 0.0488,35.32912 -1.42704,16.31118 -6.52249,42.77909 -6.8796,42.74785 -0.35711,-0.0312 -1.11812,-27.01651 0.30849,-43.32275 0.94874,-10.84417 6.37789,-34.76686 6.52236,-34.75422 z"
         sodipodi:nodetypes="zszsz"
         inkscape:transform-center-x="3.5350037"
         inkscape:transform-center-y="39.038496"
         inkscape:original-d="m 145.92501,184.92438 c 0.14447,0.0126 0.53548,29.76572 0.0488,35.32912 -1.42704,16.31118 -6.52249,42.77909 -6.8796,42.74785 -0.35711,-0.0312 -1.11812,-27.01651 0.30849,-43.32275 0.94874,-10.84417 6.37789,-34.76686 6.52236,-34.75422 z" />
      <path
         id="path114"
         style="fill:#6c8c00;stroke-width:0.351339;stroke-linecap:round;stroke-linejoin:round;stroke-dashoffset:3.25191;paint-order:stroke fill markers"
         d="m 138.85564,184.92437 c 0.13996,0.0247 -2.01959,29.10515 -2.96993,34.49495 -2.78636,15.80224 -10.02161,41.20688 -10.36757,41.14588 -0.34597,-0.061 1.21597,-26.47094 4.00148,-42.2684 1.85245,-10.50579 9.19608,-33.39711 9.33604,-33.37243 z"
         sodipodi:nodetypes="zszsz"
         inkscape:transform-center-x="6.6892933"
         inkscape:transform-center-y="37.820458"
         inkscape:original-d="m 138.85564,184.92437 c 0.13996,0.0247 -2.01959,29.10515 -2.96993,34.49495 -2.78636,15.80224 -10.02161,41.20688 -10.36757,41.14588 -0.34597,-0.061 1.21597,-26.47094 4.00148,-42.2684 1.85245,-10.50579 9.19608,-33.39711 9.33604,-33.37243 z" />
      <path
         id="path115"
         style="fill:#6c8c00;stroke-width:0.344312;stroke-linecap:round;stroke-linejoin:round;stroke-dashoffset:3.25191;paint-order:stroke fill markers"
         d="m 131.91826,184.92438 c 0.13455,0.036 -4.45761,28.242 -5.84581,33.42273 -4.06996,15.18928 -13.30339,39.3731 -13.63593,39.284 -0.33254,-0.0891 3.44806,-25.73894 7.51678,-40.92363 2.70582,-10.09827 11.8304,-31.81915 11.96493,-31.7831 z"
         sodipodi:nodetypes="zszsz"
         inkscape:transform-center-x="9.7496356"
         inkscape:transform-center-y="36.353466"
         inkscape:original-d="m 131.91826,184.92438 c 0.13455,0.036 -4.45761,28.242 -5.84581,33.42273 -4.06996,15.18928 -13.30339,39.3731 -13.63593,39.284 -0.33254,-0.0891 3.44806,-25.73894 7.51678,-40.92363 2.70582,-10.09827 11.8304,-31.81915 11.96493,-31.7831 z" />
      <path
         id="path116"
         style="fill:#6c8c00;stroke-width:0.337426;stroke-linecap:round;stroke-linejoin:round;stroke-dashoffset:3.25191;paint-order:stroke fill markers"
         d="m 124.91499,184.92439 c 0.12825,0.0467 -6.76406,27.19109 -8.56177,32.13034 -5.27074,14.48123 -16.35067,37.30252 -16.667712,37.18713 -0.317051,-0.11537 5.564662,-24.83366 10.833792,-39.3105 3.50414,-9.62755 14.26743,-30.05367 14.3957,-30.00697 z"
         sodipodi:nodetypes="zszsz"
         inkscape:transform-center-x="12.619996"
         inkscape:transform-center-y="34.658918"
         inkscape:original-d="m 124.91499,184.92439 c 0.12825,0.0467 -6.76406,27.19109 -8.56177,32.13034 -5.27074,14.48123 -16.35067,37.30252 -16.667712,37.18713 -0.317051,-0.11537 5.564662,-24.83366 10.833792,-39.3105 3.50414,-9.62755 14.26743,-30.05367 14.3957,-30.00697 z" />
      <path
         id="path117"
         style="fill:#6c8c00;stroke-width:0.330677;stroke-linecap:round;stroke-linejoin:round;stroke-dashoffset:3.25191;paint-order:stroke fill markers"
         d="m 117.91178,184.92431 c 0.1212,0.0566 -8.92602,25.96813 -11.10294,30.63663 -6.38254,13.68741 -19.148801,35.02081 -19.448455,34.88108 -0.299652,-0.13976 7.553737,-23.76909 13.934345,-37.45235 4.24331,-9.0998 16.49584,-28.12189 16.61707,-28.06536 z"
         sodipodi:nodetypes="zszsz"
         inkscape:transform-center-x="15.279256"
         inkscape:transform-center-y="32.759137"
         inkscape:original-d="m 117.91178,184.92431 c 0.1212,0.0566 -8.92602,25.96813 -11.10294,30.63663 -6.38254,13.68741 -19.148801,35.02081 -19.448455,34.88108 -0.299652,-0.13976 7.553737,-23.76909 13.934345,-37.45235 4.24331,-9.0998 16.49584,-28.12189 16.61707,-28.06536 z" />
      <path
         id="path118"
         style="fill:#6c8c00;stroke-width:0.324063;stroke-linecap:round;stroke-linejoin:round;stroke-dashoffset:3.25191;paint-order:stroke fill markers"
         d="m 110.90864,184.92438 c 0.11353,0.0655 -10.932201,24.58955 -13.456221,28.96132 -7.400171,12.81747 -21.685639,32.55424 -21.966238,32.39222 -0.280638,-0.16195 9.404662,-22.55988 16.80258,-35.37346 4.919851,-8.52143 18.506379,-26.04561 18.619909,-25.98008 z"
         sodipodi:nodetypes="zszsz"
         inkscape:transform-center-x="17.713774"
         inkscape:transform-center-y="30.67718"
         inkscape:original-d="m 110.90864,184.92438 c 0.11353,0.0655 -10.932201,24.58955 -13.456221,28.96132 -7.400171,12.81747 -21.685639,32.55424 -21.966238,32.39222 -0.280638,-0.16195 9.404662,-22.55988 16.80258,-35.37346 4.919851,-8.52143 18.506379,-26.04561 18.619909,-25.98008 z" />
      <path
         id="path119"
         style="fill:#6c8c00;stroke-width:0.317582;stroke-linecap:round;stroke-linejoin:round;stroke-dashoffset:3.25191;paint-order:stroke fill markers"
         d="m 103.90556,184.92419 c 0.10524,0.0735 -12.773048,23.07231 -15.610597,27.12474 -8.319347,11.88125 -23.951607,29.92954 -24.211716,29.74741 -0.260108,-0.18215 11.10839,-21.22128 19.425218,-33.09894 5.530943,-7.89901 20.291845,-23.84689 20.397095,-23.77321 z"
         sodipodi:nodetypes="zszsz"
         inkscape:transform-center-x="19.913025"
         inkscape:transform-center-y="28.436638"
         inkscape:original-d="m 103.90556,184.92419 c 0.10524,0.0735 -12.773048,23.07231 -15.610597,27.12474 -8.319347,11.88125 -23.951607,29.92954 -24.211716,29.74741 -0.260108,-0.18215 11.10839,-21.22128 19.425218,-33.09894 5.530943,-7.89901 20.291845,-23.84689 20.397095,-23.77321 z" />
      <path
         id="path120"
         style="fill:#6c8c00;stroke-width:0.31123;stroke-linecap:round;stroke-linejoin:round;stroke-dashoffset:3.25191;paint-order:stroke fill markers"
         d="m 96.902537,184.92394 c 0.09641,0.081 -14.44064,21.43384 -17.556981,25.14774 -9.136746,10.88876 -25.939586,27.17358 -26.177979,26.97355 -0.238413,-0.20001 12.657377,-19.76892 21.791354,-30.65437 6.074367,-7.23915 21.847159,-21.54784 21.943604,-21.46692 z"
         sodipodi:nodetypes="zszsz"
         inkscape:transform-center-x="21.868871"
         inkscape:transform-center-y="26.061392"
         inkscape:original-d="m 96.902537,184.92394 c 0.09641,0.081 -14.44064,21.43384 -17.556981,25.14774 -9.136746,10.88876 -25.939586,27.17358 -26.177979,26.97355 -0.238413,-0.20001 12.657377,-19.76892 21.791354,-30.65437 6.074367,-7.23915 21.847159,-21.54784 21.943604,-21.46692 z" />
      <path
         id="path121"
         style="fill:#6c8c00;stroke-width:0.305005;stroke-linecap:round;stroke-linejoin:round;stroke-dashoffset:3.25191;paint-order:stroke fill markers"
         d="m 89.899569,184.92361 c 0.08721,0.0872 -15.92868,19.69181 -19.288288,23.05141 -9.84998,9.84999 -27.645025,24.3132 -27.860673,24.09754 -0.215615,-0.21569 14.04553,-18.21869 23.892515,-28.06568 6.548547,-6.54855 23.169208,-19.17052 23.256448,-19.08327 z"
         sodipodi:nodetypes="zszsz"
         inkscape:transform-center-x="23.575521"
         inkscape:transform-center-y="23.575452"
         inkscape:original-d="m 89.899569,184.92361 c 0.08721,0.0872 -15.92868,19.69181 -19.288288,23.05141 -9.84998,9.84999 -27.645025,24.3132 -27.860673,24.09754 -0.215615,-0.21569 14.04553,-18.21869 23.892515,-28.06568 6.548547,-6.54855 23.169208,-19.17052 23.256448,-19.08327 z" />
      <path
         id="path122"
         style="fill:#6c8c00;stroke-width:0.298905;stroke-linecap:round;stroke-linejoin:round;stroke-dashoffset:3.25191;paint-order:stroke fill markers"
         d="m 82.896669,184.92317 c 0.07769,0.0927 -17.23263,17.86401 -20.799481,20.85697 -10.457551,8.77493 -29.065672,21.375 -29.25779,21.14606 -0.192088,-0.22899 15.268353,-16.58672 25.722744,-25.359 6.952471,-5.83381 24.256817,-16.73668 24.334529,-16.64403 z"
         sodipodi:nodetypes="zszsz"
         inkscape:transform-center-x="25.029401"
         inkscape:transform-center-y="21.002772"
         inkscape:original-d="m 82.896669,184.92317 c 0.07769,0.0927 -17.23263,17.86401 -20.799481,20.85697 -10.457551,8.77493 -29.065672,21.375 -29.25779,21.14606 -0.192088,-0.22899 15.268353,-16.58672 25.722744,-25.359 6.952471,-5.83381 24.256817,-16.73668 24.334529,-16.64403 z" />
      <path
         id="path124"
         style="fill:#6c8c00;stroke-width:0.287068;stroke-linecap:round;stroke-linejoin:round;stroke-dashoffset:3.25191;paint-order:stroke fill markers"
         d="m 68.89105,184.92439 c 0.05809,0.10054 -19.277999,14.02205 -23.150668,16.25798 -11.354262,6.55539 -31.05535,15.36937 -31.198864,15.12077 -0.143509,-0.24859 17.207152,-13.14154 28.557971,-19.69493 7.548643,-4.35822 25.733529,-11.78436 25.791603,-11.68382 z"
         sodipodi:nodetypes="zszsz"
         inkscape:transform-center-x="27.175157"
         inkscape:transform-center-y="15.69145"
         inkscape:original-d="m 68.89105,184.92439 c 0.05809,0.10054 -19.277999,14.02205 -23.150668,16.25798 -11.354262,6.55539 -31.05535,15.36937 -31.198864,15.12077 -0.143509,-0.24859 17.207152,-13.14154 28.557971,-19.69493 7.548643,-4.35822 25.733529,-11.78436 25.791603,-11.68382 z" />
    </g>
    <path
       id="path144"
       style="font-weight:800;font-size:34.3951px;line-height:1.05;font-family:'Source Sans 3';-inkscape-font-specification:'Source Sans 3 Ultra-Bold';display:block;fill:#374600;fill-opacity:1;stroke:#000000;stroke-width:0.945055;stroke-opacity:1"
       d="m 66.477078,190.23852 -7.779887,29.7403 4.684469,1.22473 2.557468,-9.77615 2.195732,0.57465 c 1.346726,0.35233 2.687193,0.32898 4.021976,-0.0703 1.342752,-0.42972 2.551091,-1.3017 3.624585,-2.61535 1.100942,-1.33901 1.961854,-3.19619 2.583305,-5.57175 0.64531,-2.46694 0.800219,-4.49289 0.464055,-6.07767 -0.336172,-1.58475 -1.000435,-2.83205 -1.992643,-3.7424 -0.992138,-0.91064 -2.190808,-1.54989 -3.596164,-1.9172 z m 19.911447,5.20846 -13.664282,28.20138 4.772319,1.24799 2.822567,-6.43682 5.567619,1.45625 -0.690915,6.99492 4.948018,1.29398 1.865519,-31.28698 z m -16.744715,1.8185 1.844334,0.48266 c 1.073473,0.2808 1.817256,0.78481 2.231903,1.51153 0.434173,0.73184 0.459933,1.82836 0.07752,3.29024 -0.374438,1.43143 -0.928317,2.47449 -1.66243,3.12849 -0.726072,0.62325 -1.635958,0.79204 -2.729034,0.50643 l -1.961637,-0.51315 z m 30.182656,1.69705 -7.779372,29.74031 12.061796,3.15536 1.60145,-6.12211 -7.377841,-1.9296 6.178431,-23.61871 z m -12.208042,2.66341 0.117306,0.031 c -0.164126,1.58407 -0.347943,3.24424 -0.551905,4.98058 -0.184409,1.74146 -0.341027,3.37635 -0.469738,4.90461 l -0.249079,2.52181 -3.784267,-0.99012 1.017508,-2.32079 c 0.636135,-1.39551 1.290286,-2.90013 1.962672,-4.51394 0.691914,-1.60871 1.344469,-3.14652 1.957503,-4.61315 z m 27.548706,1.34927 -7.77937,29.7403 4.21576,1.10329 2.56936,-9.82214 c 0.2629,-1.00504 0.5345,-2.20315 0.81493,-3.59409 0.28045,-1.39094 0.55093,-2.78457 0.81184,-4.18063 0.28043,-1.39093 0.5094,-2.58408 0.68626,-3.57911 l 0.11679,0.031 -0.55655,8.34729 -0.27234,11.20397 2.60604,0.6811 5.27824,-9.89449 3.63078,-7.54321 0.11731,0.031 c -0.33301,0.95417 -0.72782,2.10338 -1.18391,3.44837 -0.43659,1.35009 -0.87291,2.70029 -1.30948,4.05039 -0.4172,1.35518 -0.7573,2.53528 -1.02009,3.54036 l -2.56936,9.82214 4.24522,1.11052 7.77937,-29.7403 -5.09374,-1.33222 -6.19136,11.94966 c -0.39873,0.80681 -0.80541,1.64373 -1.22008,2.51147 -0.38717,0.84238 -0.78836,1.69749 -1.20302,2.56522 l -0.11679,-0.0305 c 0.0634,-0.95963 0.13235,-1.9016 0.20722,-2.82566 0.0826,-0.95455 0.1476,-1.88099 0.19534,-2.77968 l 0.36535,-13.4736 z"
       clip-path="url(#clipPath145)" />
  </g>
</svg>
