<?xml version="1.0" encoding="UTF-8" standalone="no"?>
<!-- Created with Inkscape (http://www.inkscape.org/) -->

<svg
   width="120mm"
   height="120mm"
   viewBox="0 0 120 120"
   version="1.1"
   id="svg1"
   inkscape:version="1.3.2 (1:1.3.2+202311252150+091e20ef0f)"
   sodipodi:docname="sloth.svg"
   inkscape:export-filename="../Documents/PhotoModelBase/logo_ideas/Green_Sloth.png"
   inkscape:export-xdpi="150"
   inkscape:export-ydpi="150"
   xmlns:inkscape="http://www.inkscape.org/namespaces/inkscape"
   xmlns:sodipodi="http://sodipodi.sourceforge.net/DTD/sodipodi-0.dtd"
   xmlns="http://www.w3.org/2000/svg"
   xmlns:svg="http://www.w3.org/2000/svg">
  <sodipodi:namedview
     id="namedview1"
     pagecolor="#ffffff"
     bordercolor="#ff01f9"
     borderopacity="1"
     inkscape:showpageshadow="0"
     inkscape:pageopacity="0"
     inkscape:pagecheckerboard="1"
     inkscape:deskcolor="#000000"
     inkscape:document-units="mm"
     showguides="false"
     inkscape:zoom="0.70710678"
     inkscape:cx="35.355339"
     inkscape:cy="241.83052"
     inkscape:window-width="1920"
     inkscape:window-height="954"
     inkscape:window-x="0"
     inkscape:window-y="0"
     inkscape:window-maximized="1"
     inkscape:current-layer="layer1">
    <sodipodi:guide
       position="10,60"
       orientation="1,0"
       id="guide1"
       inkscape:locked="false" />
    <sodipodi:guide
       position="60,110"
       orientation="0,-1"
       id="guide2"
       inkscape:locked="false" />
    <sodipodi:guide
       position="110,60"
       orientation="1,0"
       id="guide3"
       inkscape:locked="false" />
    <sodipodi:guide
       position="60,10"
       orientation="0,-1"
       id="guide4"
       inkscape:locked="false" />
    <sodipodi:guide
       position="60.000053,110"
       orientation="-1,0"
       id="guide5"
       inkscape:locked="false"
       inkscape:label=""
       inkscape:color="rgb(224,27,36)" />
    <sodipodi:guide
       position="10,60"
       orientation="0,1"
       id="guide6"
       inkscape:locked="false"
       inkscape:label=""
       inkscape:color="rgb(192,28,40)" />
    <sodipodi:guide
       position="60,100"
       orientation="0,1"
       id="guide7"
       inkscape:label=""
       inkscape:locked="false"
       inkscape:color="rgb(0,134,229)" />
    <sodipodi:guide
       position="60,105"
       orientation="0,1"
       id="guide8"
       inkscape:label=""
       inkscape:locked="false"
       inkscape:color="rgb(0,134,229)" />
    <sodipodi:guide
       position="70.000053,110"
       orientation="-1,0"
       id="guide9"
       inkscape:label=""
       inkscape:locked="false"
       inkscape:color="rgb(0,134,229)" />
    <sodipodi:guide
       position="50.000053,110"
       orientation="-1,0"
       id="guide10"
       inkscape:label=""
       inkscape:locked="false"
       inkscape:color="rgb(0,134,229)" />
    <sodipodi:guide
       position="60,80"
       orientation="0,1"
       id="guide24"
       inkscape:label=""
       inkscape:locked="false"
       inkscape:color="rgb(0,134,229)" />
    <sodipodi:guide
       position="60,65"
       orientation="0,1"
       id="guide26"
       inkscape:label=""
       inkscape:locked="false"
       inkscape:color="rgb(0,134,229)" />
    <sodipodi:guide
       position="60,72.5"
       orientation="0,1"
       id="guide27"
       inkscape:label=""
       inkscape:locked="false"
       inkscape:color="rgb(0,134,229)" />
    <sodipodi:guide
       position="60.000053,60"
       orientation="0,-1"
       id="guide28"
       inkscape:locked="false" />
    <sodipodi:guide
       position="60.000053,50"
       orientation="0,1"
       id="guide29"
       inkscape:label=""
       inkscape:locked="false"
       inkscape:color="rgb(0,134,229)" />
    <sodipodi:guide
       position="60.000053,45"
       orientation="0,1"
       id="guide30"
       inkscape:label=""
       inkscape:locked="false"
       inkscape:color="rgb(0,134,229)" />
    <sodipodi:guide
       position="60,75"
       orientation="0,1"
       id="guide31"
       inkscape:label=""
       inkscape:locked="false"
       inkscape:color="rgb(0,134,229)" />
    <sodipodi:guide
       position="60,67.5"
       orientation="0,1"
       id="guide32"
       inkscape:label=""
       inkscape:locked="false"
       inkscape:color="rgb(0,134,229)" />
    <sodipodi:guide
       position="35.000053,110"
       orientation="-1,0"
       id="guide33"
       inkscape:label=""
       inkscape:locked="false"
       inkscape:color="rgb(0,134,229)" />
    <sodipodi:guide
       position="60,77.5"
       orientation="0,1"
       id="guide34"
       inkscape:label=""
       inkscape:locked="false"
       inkscape:color="rgb(0,134,229)" />
    <sodipodi:guide
       position="60.000053,62.5"
       orientation="0,1"
       id="guide35"
       inkscape:label=""
       inkscape:locked="false"
       inkscape:color="rgb(0,134,229)" />
    <sodipodi:guide
       position="37.500053,110"
       orientation="-1,0"
       id="guide36"
       inkscape:label=""
       inkscape:locked="false"
       inkscape:color="rgb(0,134,229)" />
    <sodipodi:guide
       position="47.500053,110"
       orientation="-1,0"
       id="guide37"
       inkscape:label=""
       inkscape:locked="false"
       inkscape:color="rgb(0,134,229)" />
    <sodipodi:guide
       position="52.500053,110"
       orientation="-1,0"
       id="guide38"
       inkscape:label=""
       inkscape:locked="false"
       inkscape:color="rgb(0,134,229)" />
    <sodipodi:guide
       position="32.500053,110"
       orientation="-1,0"
       id="guide39"
       inkscape:label=""
       inkscape:locked="false"
       inkscape:color="rgb(0,134,229)" />
    <sodipodi:guide
       position="60,70"
       orientation="0,1"
       id="guide40"
       inkscape:label=""
       inkscape:locked="false"
       inkscape:color="rgb(0,134,229)" />
  </sodipodi:namedview>
  <defs
     id="defs1" />
  <g
     inkscape:label="Layer 1"
     inkscape:groupmode="layer"
     id="layer1">
    <circle
       style="fill:#7cf490;stroke:#000000;stroke-width:1.5;stroke-linecap:round;stroke-linejoin:round;stroke-dashoffset:3.25191;paint-order:fill markers stroke;fill-opacity:1"
       id="path1"
       cx="60"
       cy="60"
       r="50" />
    <path
       id="circle8"
       style="fill:#ffffff;stroke:#000000;stroke-width:1.5;stroke-linecap:round;stroke-linejoin:round;stroke-dashoffset:3.25191;paint-order:fill markers stroke;fill-opacity:1"
       d="M 50.620683 15.934428 C 50.418142 15.936247 50.216186 15.956598 50.014518 15.997473 C 28.236678 20.411527 11.607745 38.982705 10.120829 61.686674 A 50 50 0 0 0 59.999955 110 A 50 50 0 0 0 109.8796 61.683573 C 108.39363 39.013838 91.810912 20.465039 70.080477 16.016593 C 66.824432 15.350047 63.453066 19.999813 59.999955 19.999813 C 56.79405 19.999812 53.658799 15.907146 50.620683 15.934428 z " />
    <path
       id="path18"
       style="display:none;fill:none;stroke:#000000;stroke-width:1.5;stroke-linecap:round;stroke-linejoin:round;stroke-dashoffset:3.25191;paint-order:fill markers stroke"
       d="m 59.999955,34.999931 a 50,50 0 0 0 -48.300927,37.081974 50,50 0 0 0 2.603975,7.738546 50,50 0 0 1 45.696952,-29.820402 50,50 0 0 1 45.708325,29.793013 50,50 0 0 0 2.5895,-7.699271 50,50 0 0 0 -48.297825,-37.09386 z m 0,15.000118 A 50,50 0 0 0 14.323157,79.870577 50,50 0 0 0 59.999955,110 50,50 0 0 0 105.68657,79.847323 50,50 0 0 0 59.999955,50.000049 Z" />
    <path
       id="path21"
       style="display:none;fill:none;stroke:#000000;stroke-width:1.5;stroke-linecap:round;stroke-linejoin:round;stroke-dashoffset:3.25191;paint-order:fill markers stroke"
       d="M 59.999955,50.000049 A 50,50 0 0 0 14.323157,79.870577 50,50 0 0 0 59.999955,110 50,50 0 0 0 105.68657,79.847323 50,50 0 0 0 59.999955,50.000049 Z" />
    <path
       id="path23"
       style="display:inline;fill:#7cf490;stroke:#000000;stroke-width:1.5;stroke-linecap:round;stroke-linejoin:round;stroke-dashoffset:3.25191;paint-order:fill markers stroke;fill-opacity:1"
       d="m 50.000053,40 c -5.324515,1.085218 -10.373747,2.683153 -14.979312,4.861564 -11.215534,5.304896 -19.800009,14.052165 -23.321713,27.220342 0.655573,2.646191 1.526467,5.234333 2.603975,7.738546 C 21.609763,63.256074 35.910685,57.962813 50.000053,55 c 0,0 5,0 5,-7.5 0,-7.5 -5,-7.5 -5,-7.5 z"
       sodipodi:nodetypes="csccczc" />
    <path
       id="path22"
       style="display:none;fill:none;stroke:#000000;stroke-width:1.5;stroke-linecap:round;stroke-linejoin:round;stroke-dashoffset:3.25191;paint-order:fill markers stroke"
       d="m 59.999955,34.999931 v 15.000118 a 50,50 0 0 1 45.708325,29.793013 50,50 0 0 0 2.5895,-7.699271 50,50 0 0 0 -48.297825,-37.09386 z" />
    <path
       id="path27"
       style="display:inline;fill:#7cf490;stroke:#000000;stroke-width:1.5;stroke-linecap:round;stroke-linejoin:round;stroke-dashoffset:3.25191;paint-order:fill markers stroke;fill-opacity:1"
       d="m 70.000053,40 c 18.290843,3.727956 33.333167,13.506327 38.301027,32.081906 -0.65558,2.646191 -1.52647,5.234333 -2.60398,7.738546 C 98.390343,63.256074 84.089421,57.962813 70.000053,55 c 0,0 -5,0 -5,-7.5 0,-7.5 5,-7.5 5,-7.5 z"
       sodipodi:nodetypes="cccczc" />
    <path
       style="fill:#7cf490;stroke:#000000;stroke-width:1.5;stroke-linecap:butt;stroke-linejoin:miter;stroke-dasharray:none;stroke-opacity:1;fill-opacity:1"
       d="M 50.000053,69.999999 C 50.597017,73.678656 56.273271,75 60.000051,75 63.726831,75 69.403088,73.678657 70.000052,69.999999 70.755158,65.346825 64.714097,60 60.000053,60 c -4.714045,0 -10.755106,5.346824 -10,9.999999 z"
       id="path30"
       sodipodi:nodetypes="sssss" />
    <path
       style="display:none;fill:none;stroke:#000000;stroke-width:1.5;stroke-linecap:butt;stroke-linejoin:miter;stroke-dasharray:none;stroke-opacity:1"
       d="m 32.500053,52.5 c 0,-2.5 1.325618,-3.817373 2.499998,-5 2.500975,-2.518539 12.500002,-5 14.999999,-5.000001 1.666667,-1e-6 2.500003,3.333334 2.500003,5.000001 0,1.666667 -0.029,4.620321 -2.5,5 -2.585047,0.397202 -11.858426,3.378114 -15,5 -2.221428,1.146847 -2.5,-2.5 -2.5,-5 z"
       id="path35"
       sodipodi:nodetypes="sssssss" />
  </g>
</svg>
