<?xml version="1.0" encoding="utf-8" standalone="no"?>
<!DOCTYPE svg PUBLIC "-//W3C//DTD SVG 1.1//EN"
  "http://www.w3.org/Graphics/SVG/1.1/DTD/svg11.dtd">
<svg xmlns:xlink="http://www.w3.org/1999/xlink" width="720pt" height="288pt" viewBox="0 0 720 288" xmlns="http://www.w3.org/2000/svg" version="1.1">
 <metadata>
  <rdf:RDF xmlns:dc="http://purl.org/dc/elements/1.1/" xmlns:cc="http://creativecommons.org/ns#" xmlns:rdf="http://www.w3.org/1999/02/22-rdf-syntax-ns#">
   <cc:Work>
    <dc:type rdf:resource="http://purl.org/dc/dcmitype/StillImage"/>
    <dc:date>2025-07-25T16:57:01.842755</dc:date>
    <dc:format>image/svg+xml</dc:format>
    <dc:creator>
     <cc:Agent>
      <dc:title>Matplotlib v3.10.3, https://matplotlib.org/</dc:title>
     </cc:Agent>
    </dc:creator>
   </cc:Work>
  </rdf:RDF>
 </metadata>
 <defs>
  <style type="text/css">*{stroke-linejoin: round; stroke-linecap: butt}</style>
 </defs>
 <g id="figure_1">
  <g id="patch_1">
   <path d="M 0 288 
L 720 288 
L 720 0 
L 0 0 
z
" style="fill: #ffffff"/>
  </g>
  <g id="axes_1">
   <g id="patch_2">
    <path d="M 48.845455 246.04 
L 350 246.04 
L 350 33.408 
L 48.845455 33.408 
z
" style="fill: #ffffff"/>
   </g>
   <g id="patch_3">
    <path d="M 62.534298 246.04 
L 89.911983 246.04 
L 89.911983 33.408 
L 62.534298 33.408 
z
" clip-path="url(#p1a082880e1)" style="fill: #ffffff; opacity: 0.3"/>
   </g>
   <g id="patch_4">
    <path d="M 89.911983 246.04 
L 117.289669 246.04 
L 117.289669 33.408 
L 89.911983 33.408 
z
" clip-path="url(#p1a082880e1)" style="opacity: 0.3"/>
   </g>
   <g id="patch_5">
    <path d="M 117.289669 246.04 
L 144.667355 246.04 
L 144.667355 33.408 
L 117.289669 33.408 
z
" clip-path="url(#p1a082880e1)" style="fill: #ffffff; opacity: 0.3"/>
   </g>
   <g id="patch_6">
    <path d="M 144.667355 246.04 
L 172.045041 246.04 
L 172.045041 33.408 
L 144.667355 33.408 
z
" clip-path="url(#p1a082880e1)" style="opacity: 0.3"/>
   </g>
   <g id="patch_7">
    <path d="M 172.045041 246.04 
L 199.422727 246.04 
L 199.422727 33.408 
L 172.045041 33.408 
z
" clip-path="url(#p1a082880e1)" style="fill: #ffffff; opacity: 0.3"/>
   </g>
   <g id="patch_8">
    <path d="M 199.422727 246.04 
L 226.800413 246.04 
L 226.800413 33.408 
L 199.422727 33.408 
z
" clip-path="url(#p1a082880e1)" style="opacity: 0.3"/>
   </g>
   <g id="patch_9">
    <path d="M 226.800413 246.04 
L 254.178099 246.04 
L 254.178099 33.408 
L 226.800413 33.408 
z
" clip-path="url(#p1a082880e1)" style="fill: #ffffff; opacity: 0.3"/>
   </g>
   <g id="patch_10">
    <path d="M 254.178099 246.04 
L 281.555785 246.04 
L 281.555785 33.408 
L 254.178099 33.408 
z
" clip-path="url(#p1a082880e1)" style="opacity: 0.3"/>
   </g>
   <g id="patch_11">
    <path d="M 281.555785 246.04 
L 308.933471 246.04 
L 308.933471 33.408 
L 281.555785 33.408 
z
" clip-path="url(#p1a082880e1)" style="fill: #ffffff; opacity: 0.3"/>
   </g>
   <g id="patch_12">
    <path d="M 308.933471 246.04 
L 336.311157 246.04 
L 336.311157 33.408 
L 308.933471 33.408 
z
" clip-path="url(#p1a082880e1)" style="opacity: 0.3"/>
   </g>
   <g id="matplotlib.axis_1">
    <g id="xtick_1">
     <g id="line2d_1">
      <defs>
       <path id="mfca12cb6fe" d="M 0 0 
L 0 3.5 
" style="stroke: #000000; stroke-width: 0.8"/>
      </defs>
      <g>
       <use xlink:href="#mfca12cb6fe" x="62.534298" y="246.04" style="stroke: #000000; stroke-width: 0.8"/>
      </g>
     </g>
     <g id="text_1">
      <!-- 0 -->
      <g transform="translate(59.353048 260.638438) scale(0.1 -0.1)">
       <defs>
        <path id="DejaVuSans-30" d="M 2034 4250 
Q 1547 4250 1301 3770 
Q 1056 3291 1056 2328 
Q 1056 1369 1301 889 
Q 1547 409 2034 409 
Q 2525 409 2770 889 
Q 3016 1369 3016 2328 
Q 3016 3291 2770 3770 
Q 2525 4250 2034 4250 
z
M 2034 4750 
Q 2819 4750 3233 4129 
Q 3647 3509 3647 2328 
Q 3647 1150 3233 529 
Q 2819 -91 2034 -91 
Q 1250 -91 836 529 
Q 422 1150 422 2328 
Q 422 3509 836 4129 
Q 1250 4750 2034 4750 
z
" transform="scale(0.015625)"/>
       </defs>
       <use xlink:href="#DejaVuSans-30"/>
      </g>
     </g>
    </g>
    <g id="xtick_2">
     <g id="line2d_2">
      <g>
       <use xlink:href="#mfca12cb6fe" x="108.163774" y="246.04" style="stroke: #000000; stroke-width: 0.8"/>
      </g>
     </g>
     <g id="text_2">
      <!-- 100 -->
      <g transform="translate(98.620024 260.638438) scale(0.1 -0.1)">
       <defs>
        <path id="DejaVuSans-31" d="M 794 531 
L 1825 531 
L 1825 4091 
L 703 3866 
L 703 4441 
L 1819 4666 
L 2450 4666 
L 2450 531 
L 3481 531 
L 3481 0 
L 794 0 
L 794 531 
z
" transform="scale(0.015625)"/>
       </defs>
       <use xlink:href="#DejaVuSans-31"/>
       <use xlink:href="#DejaVuSans-30" transform="translate(63.623047 0)"/>
       <use xlink:href="#DejaVuSans-30" transform="translate(127.246094 0)"/>
      </g>
     </g>
    </g>
    <g id="xtick_3">
     <g id="line2d_3">
      <g>
       <use xlink:href="#mfca12cb6fe" x="153.793251" y="246.04" style="stroke: #000000; stroke-width: 0.8"/>
      </g>
     </g>
     <g id="text_3">
      <!-- 200 -->
      <g transform="translate(144.249501 260.638438) scale(0.1 -0.1)">
       <defs>
        <path id="DejaVuSans-32" d="M 1228 531 
L 3431 531 
L 3431 0 
L 469 0 
L 469 531 
Q 828 903 1448 1529 
Q 2069 2156 2228 2338 
Q 2531 2678 2651 2914 
Q 2772 3150 2772 3378 
Q 2772 3750 2511 3984 
Q 2250 4219 1831 4219 
Q 1534 4219 1204 4116 
Q 875 4013 500 3803 
L 500 4441 
Q 881 4594 1212 4672 
Q 1544 4750 1819 4750 
Q 2544 4750 2975 4387 
Q 3406 4025 3406 3419 
Q 3406 3131 3298 2873 
Q 3191 2616 2906 2266 
Q 2828 2175 2409 1742 
Q 1991 1309 1228 531 
z
" transform="scale(0.015625)"/>
       </defs>
       <use xlink:href="#DejaVuSans-32"/>
       <use xlink:href="#DejaVuSans-30" transform="translate(63.623047 0)"/>
       <use xlink:href="#DejaVuSans-30" transform="translate(127.246094 0)"/>
      </g>
     </g>
    </g>
    <g id="xtick_4">
     <g id="line2d_4">
      <g>
       <use xlink:href="#mfca12cb6fe" x="199.422727" y="246.04" style="stroke: #000000; stroke-width: 0.8"/>
      </g>
     </g>
     <g id="text_4">
      <!-- 300 -->
      <g transform="translate(189.878977 260.638438) scale(0.1 -0.1)">
       <defs>
        <path id="DejaVuSans-33" d="M 2597 2516 
Q 3050 2419 3304 2112 
Q 3559 1806 3559 1356 
Q 3559 666 3084 287 
Q 2609 -91 1734 -91 
Q 1441 -91 1130 -33 
Q 819 25 488 141 
L 488 750 
Q 750 597 1062 519 
Q 1375 441 1716 441 
Q 2309 441 2620 675 
Q 2931 909 2931 1356 
Q 2931 1769 2642 2001 
Q 2353 2234 1838 2234 
L 1294 2234 
L 1294 2753 
L 1863 2753 
Q 2328 2753 2575 2939 
Q 2822 3125 2822 3475 
Q 2822 3834 2567 4026 
Q 2313 4219 1838 4219 
Q 1578 4219 1281 4162 
Q 984 4106 628 3988 
L 628 4550 
Q 988 4650 1302 4700 
Q 1616 4750 1894 4750 
Q 2613 4750 3031 4423 
Q 3450 4097 3450 3541 
Q 3450 3153 3228 2886 
Q 3006 2619 2597 2516 
z
" transform="scale(0.015625)"/>
       </defs>
       <use xlink:href="#DejaVuSans-33"/>
       <use xlink:href="#DejaVuSans-30" transform="translate(63.623047 0)"/>
       <use xlink:href="#DejaVuSans-30" transform="translate(127.246094 0)"/>
      </g>
     </g>
    </g>
    <g id="xtick_5">
     <g id="line2d_5">
      <g>
       <use xlink:href="#mfca12cb6fe" x="245.052204" y="246.04" style="stroke: #000000; stroke-width: 0.8"/>
      </g>
     </g>
     <g id="text_5">
      <!-- 400 -->
      <g transform="translate(235.508454 260.638438) scale(0.1 -0.1)">
       <defs>
        <path id="DejaVuSans-34" d="M 2419 4116 
L 825 1625 
L 2419 1625 
L 2419 4116 
z
M 2253 4666 
L 3047 4666 
L 3047 1625 
L 3713 1625 
L 3713 1100 
L 3047 1100 
L 3047 0 
L 2419 0 
L 2419 1100 
L 313 1100 
L 313 1709 
L 2253 4666 
z
" transform="scale(0.015625)"/>
       </defs>
       <use xlink:href="#DejaVuSans-34"/>
       <use xlink:href="#DejaVuSans-30" transform="translate(63.623047 0)"/>
       <use xlink:href="#DejaVuSans-30" transform="translate(127.246094 0)"/>
      </g>
     </g>
    </g>
    <g id="xtick_6">
     <g id="line2d_6">
      <g>
       <use xlink:href="#mfca12cb6fe" x="290.68168" y="246.04" style="stroke: #000000; stroke-width: 0.8"/>
      </g>
     </g>
     <g id="text_6">
      <!-- 500 -->
      <g transform="translate(281.13793 260.638438) scale(0.1 -0.1)">
       <defs>
        <path id="DejaVuSans-35" d="M 691 4666 
L 3169 4666 
L 3169 4134 
L 1269 4134 
L 1269 2991 
Q 1406 3038 1543 3061 
Q 1681 3084 1819 3084 
Q 2600 3084 3056 2656 
Q 3513 2228 3513 1497 
Q 3513 744 3044 326 
Q 2575 -91 1722 -91 
Q 1428 -91 1123 -41 
Q 819 9 494 109 
L 494 744 
Q 775 591 1075 516 
Q 1375 441 1709 441 
Q 2250 441 2565 725 
Q 2881 1009 2881 1497 
Q 2881 1984 2565 2268 
Q 2250 2553 1709 2553 
Q 1456 2553 1204 2497 
Q 953 2441 691 2322 
L 691 4666 
z
" transform="scale(0.015625)"/>
       </defs>
       <use xlink:href="#DejaVuSans-35"/>
       <use xlink:href="#DejaVuSans-30" transform="translate(63.623047 0)"/>
       <use xlink:href="#DejaVuSans-30" transform="translate(127.246094 0)"/>
      </g>
     </g>
    </g>
    <g id="xtick_7">
     <g id="line2d_7">
      <g>
       <use xlink:href="#mfca12cb6fe" x="336.311157" y="246.04" style="stroke: #000000; stroke-width: 0.8"/>
      </g>
     </g>
     <g id="text_7">
      <!-- 600 -->
      <g transform="translate(326.767407 260.638438) scale(0.1 -0.1)">
       <defs>
        <path id="DejaVuSans-36" d="M 2113 2584 
Q 1688 2584 1439 2293 
Q 1191 2003 1191 1497 
Q 1191 994 1439 701 
Q 1688 409 2113 409 
Q 2538 409 2786 701 
Q 3034 994 3034 1497 
Q 3034 2003 2786 2293 
Q 2538 2584 2113 2584 
z
M 3366 4563 
L 3366 3988 
Q 3128 4100 2886 4159 
Q 2644 4219 2406 4219 
Q 1781 4219 1451 3797 
Q 1122 3375 1075 2522 
Q 1259 2794 1537 2939 
Q 1816 3084 2150 3084 
Q 2853 3084 3261 2657 
Q 3669 2231 3669 1497 
Q 3669 778 3244 343 
Q 2819 -91 2113 -91 
Q 1303 -91 875 529 
Q 447 1150 447 2328 
Q 447 3434 972 4092 
Q 1497 4750 2381 4750 
Q 2619 4750 2861 4703 
Q 3103 4656 3366 4563 
z
" transform="scale(0.015625)"/>
       </defs>
       <use xlink:href="#DejaVuSans-36"/>
       <use xlink:href="#DejaVuSans-30" transform="translate(63.623047 0)"/>
       <use xlink:href="#DejaVuSans-30" transform="translate(127.246094 0)"/>
      </g>
     </g>
    </g>
    <g id="text_8">
     <!-- Time / (s) -->
     <g transform="translate(175.820384 274.316562) scale(0.1 -0.1)">
      <defs>
       <path id="DejaVuSans-54" d="M -19 4666 
L 3928 4666 
L 3928 4134 
L 2272 4134 
L 2272 0 
L 1638 0 
L 1638 4134 
L -19 4134 
L -19 4666 
z
" transform="scale(0.015625)"/>
       <path id="DejaVuSans-69" d="M 603 3500 
L 1178 3500 
L 1178 0 
L 603 0 
L 603 3500 
z
M 603 4863 
L 1178 4863 
L 1178 4134 
L 603 4134 
L 603 4863 
z
" transform="scale(0.015625)"/>
       <path id="DejaVuSans-6d" d="M 3328 2828 
Q 3544 3216 3844 3400 
Q 4144 3584 4550 3584 
Q 5097 3584 5394 3201 
Q 5691 2819 5691 2113 
L 5691 0 
L 5113 0 
L 5113 2094 
Q 5113 2597 4934 2840 
Q 4756 3084 4391 3084 
Q 3944 3084 3684 2787 
Q 3425 2491 3425 1978 
L 3425 0 
L 2847 0 
L 2847 2094 
Q 2847 2600 2669 2842 
Q 2491 3084 2119 3084 
Q 1678 3084 1418 2786 
Q 1159 2488 1159 1978 
L 1159 0 
L 581 0 
L 581 3500 
L 1159 3500 
L 1159 2956 
Q 1356 3278 1631 3431 
Q 1906 3584 2284 3584 
Q 2666 3584 2933 3390 
Q 3200 3197 3328 2828 
z
" transform="scale(0.015625)"/>
       <path id="DejaVuSans-65" d="M 3597 1894 
L 3597 1613 
L 953 1613 
Q 991 1019 1311 708 
Q 1631 397 2203 397 
Q 2534 397 2845 478 
Q 3156 559 3463 722 
L 3463 178 
Q 3153 47 2828 -22 
Q 2503 -91 2169 -91 
Q 1331 -91 842 396 
Q 353 884 353 1716 
Q 353 2575 817 3079 
Q 1281 3584 2069 3584 
Q 2775 3584 3186 3129 
Q 3597 2675 3597 1894 
z
M 3022 2063 
Q 3016 2534 2758 2815 
Q 2500 3097 2075 3097 
Q 1594 3097 1305 2825 
Q 1016 2553 972 2059 
L 3022 2063 
z
" transform="scale(0.015625)"/>
       <path id="DejaVuSans-20" transform="scale(0.015625)"/>
       <path id="DejaVuSans-2f" d="M 1625 4666 
L 2156 4666 
L 531 -594 
L 0 -594 
L 1625 4666 
z
" transform="scale(0.015625)"/>
       <path id="DejaVuSans-28" d="M 1984 4856 
Q 1566 4138 1362 3434 
Q 1159 2731 1159 2009 
Q 1159 1288 1364 580 
Q 1569 -128 1984 -844 
L 1484 -844 
Q 1016 -109 783 600 
Q 550 1309 550 2009 
Q 550 2706 781 3412 
Q 1013 4119 1484 4856 
L 1984 4856 
z
" transform="scale(0.015625)"/>
       <path id="DejaVuSans-73" d="M 2834 3397 
L 2834 2853 
Q 2591 2978 2328 3040 
Q 2066 3103 1784 3103 
Q 1356 3103 1142 2972 
Q 928 2841 928 2578 
Q 928 2378 1081 2264 
Q 1234 2150 1697 2047 
L 1894 2003 
Q 2506 1872 2764 1633 
Q 3022 1394 3022 966 
Q 3022 478 2636 193 
Q 2250 -91 1575 -91 
Q 1294 -91 989 -36 
Q 684 19 347 128 
L 347 722 
Q 666 556 975 473 
Q 1284 391 1588 391 
Q 1994 391 2212 530 
Q 2431 669 2431 922 
Q 2431 1156 2273 1281 
Q 2116 1406 1581 1522 
L 1381 1569 
Q 847 1681 609 1914 
Q 372 2147 372 2553 
Q 372 3047 722 3315 
Q 1072 3584 1716 3584 
Q 2034 3584 2315 3537 
Q 2597 3491 2834 3397 
z
" transform="scale(0.015625)"/>
       <path id="DejaVuSans-29" d="M 513 4856 
L 1013 4856 
Q 1481 4119 1714 3412 
Q 1947 2706 1947 2009 
Q 1947 1309 1714 600 
Q 1481 -109 1013 -844 
L 513 -844 
Q 928 -128 1133 580 
Q 1338 1288 1338 2009 
Q 1338 2731 1133 3434 
Q 928 4138 513 4856 
z
" transform="scale(0.015625)"/>
      </defs>
      <use xlink:href="#DejaVuSans-54"/>
      <use xlink:href="#DejaVuSans-69" transform="translate(57.958984 0)"/>
      <use xlink:href="#DejaVuSans-6d" transform="translate(85.742188 0)"/>
      <use xlink:href="#DejaVuSans-65" transform="translate(183.154297 0)"/>
      <use xlink:href="#DejaVuSans-20" transform="translate(244.677734 0)"/>
      <use xlink:href="#DejaVuSans-2f" transform="translate(276.464844 0)"/>
      <use xlink:href="#DejaVuSans-20" transform="translate(310.15625 0)"/>
      <use xlink:href="#DejaVuSans-28" transform="translate(341.943359 0)"/>
      <use xlink:href="#DejaVuSans-73" transform="translate(380.957031 0)"/>
      <use xlink:href="#DejaVuSans-29" transform="translate(433.056641 0)"/>
     </g>
    </g>
   </g>
   <g id="matplotlib.axis_2">
    <g id="ytick_1">
     <g id="line2d_8">
      <defs>
       <path id="m3ad2b04fb7" d="M 0 0 
L -3.5 0 
" style="stroke: #000000; stroke-width: 0.8"/>
      </defs>
      <g>
       <use xlink:href="#m3ad2b04fb7" x="48.845455" y="220.625005" style="stroke: #000000; stroke-width: 0.8"/>
      </g>
     </g>
     <g id="text_9">
      <!-- 0.2 -->
      <g transform="translate(25.94233 224.424224) scale(0.1 -0.1)">
       <defs>
        <path id="DejaVuSans-2e" d="M 684 794 
L 1344 794 
L 1344 0 
L 684 0 
L 684 794 
z
" transform="scale(0.015625)"/>
       </defs>
       <use xlink:href="#DejaVuSans-30"/>
       <use xlink:href="#DejaVuSans-2e" transform="translate(63.623047 0)"/>
       <use xlink:href="#DejaVuSans-32" transform="translate(95.410156 0)"/>
      </g>
     </g>
    </g>
    <g id="ytick_2">
     <g id="line2d_9">
      <g>
       <use xlink:href="#m3ad2b04fb7" x="48.845455" y="176.218674" style="stroke: #000000; stroke-width: 0.8"/>
      </g>
     </g>
     <g id="text_10">
      <!-- 0.4 -->
      <g transform="translate(25.94233 180.017893) scale(0.1 -0.1)">
       <use xlink:href="#DejaVuSans-30"/>
       <use xlink:href="#DejaVuSans-2e" transform="translate(63.623047 0)"/>
       <use xlink:href="#DejaVuSans-34" transform="translate(95.410156 0)"/>
      </g>
     </g>
    </g>
    <g id="ytick_3">
     <g id="line2d_10">
      <g>
       <use xlink:href="#m3ad2b04fb7" x="48.845455" y="131.812343" style="stroke: #000000; stroke-width: 0.8"/>
      </g>
     </g>
     <g id="text_11">
      <!-- 0.6 -->
      <g transform="translate(25.94233 135.611561) scale(0.1 -0.1)">
       <use xlink:href="#DejaVuSans-30"/>
       <use xlink:href="#DejaVuSans-2e" transform="translate(63.623047 0)"/>
       <use xlink:href="#DejaVuSans-36" transform="translate(95.410156 0)"/>
      </g>
     </g>
    </g>
    <g id="ytick_4">
     <g id="line2d_11">
      <g>
       <use xlink:href="#m3ad2b04fb7" x="48.845455" y="87.406011" style="stroke: #000000; stroke-width: 0.8"/>
      </g>
     </g>
     <g id="text_12">
      <!-- 0.8 -->
      <g transform="translate(25.94233 91.20523) scale(0.1 -0.1)">
       <defs>
        <path id="DejaVuSans-38" d="M 2034 2216 
Q 1584 2216 1326 1975 
Q 1069 1734 1069 1313 
Q 1069 891 1326 650 
Q 1584 409 2034 409 
Q 2484 409 2743 651 
Q 3003 894 3003 1313 
Q 3003 1734 2745 1975 
Q 2488 2216 2034 2216 
z
M 1403 2484 
Q 997 2584 770 2862 
Q 544 3141 544 3541 
Q 544 4100 942 4425 
Q 1341 4750 2034 4750 
Q 2731 4750 3128 4425 
Q 3525 4100 3525 3541 
Q 3525 3141 3298 2862 
Q 3072 2584 2669 2484 
Q 3125 2378 3379 2068 
Q 3634 1759 3634 1313 
Q 3634 634 3220 271 
Q 2806 -91 2034 -91 
Q 1263 -91 848 271 
Q 434 634 434 1313 
Q 434 1759 690 2068 
Q 947 2378 1403 2484 
z
M 1172 3481 
Q 1172 3119 1398 2916 
Q 1625 2713 2034 2713 
Q 2441 2713 2670 2916 
Q 2900 3119 2900 3481 
Q 2900 3844 2670 4047 
Q 2441 4250 2034 4250 
Q 1625 4250 1398 4047 
Q 1172 3844 1172 3481 
z
" transform="scale(0.015625)"/>
       </defs>
       <use xlink:href="#DejaVuSans-30"/>
       <use xlink:href="#DejaVuSans-2e" transform="translate(63.623047 0)"/>
       <use xlink:href="#DejaVuSans-38" transform="translate(95.410156 0)"/>
      </g>
     </g>
    </g>
    <g id="ytick_5">
     <g id="line2d_12">
      <g>
       <use xlink:href="#m3ad2b04fb7" x="48.845455" y="42.99968" style="stroke: #000000; stroke-width: 0.8"/>
      </g>
     </g>
     <g id="text_13">
      <!-- 1.0 -->
      <g transform="translate(25.94233 46.798899) scale(0.1 -0.1)">
       <use xlink:href="#DejaVuSans-31"/>
       <use xlink:href="#DejaVuSans-2e" transform="translate(63.623047 0)"/>
       <use xlink:href="#DejaVuSans-30" transform="translate(95.410156 0)"/>
      </g>
     </g>
    </g>
    <g id="text_14">
     <!-- Fd Redox State -->
     <g transform="translate(19.862642 177.549781) rotate(-90) scale(0.1 -0.1)">
      <defs>
       <path id="DejaVuSans-46" d="M 628 4666 
L 3309 4666 
L 3309 4134 
L 1259 4134 
L 1259 2759 
L 3109 2759 
L 3109 2228 
L 1259 2228 
L 1259 0 
L 628 0 
L 628 4666 
z
" transform="scale(0.015625)"/>
       <path id="DejaVuSans-64" d="M 2906 2969 
L 2906 4863 
L 3481 4863 
L 3481 0 
L 2906 0 
L 2906 525 
Q 2725 213 2448 61 
Q 2172 -91 1784 -91 
Q 1150 -91 751 415 
Q 353 922 353 1747 
Q 353 2572 751 3078 
Q 1150 3584 1784 3584 
Q 2172 3584 2448 3432 
Q 2725 3281 2906 2969 
z
M 947 1747 
Q 947 1113 1208 752 
Q 1469 391 1925 391 
Q 2381 391 2643 752 
Q 2906 1113 2906 1747 
Q 2906 2381 2643 2742 
Q 2381 3103 1925 3103 
Q 1469 3103 1208 2742 
Q 947 2381 947 1747 
z
" transform="scale(0.015625)"/>
       <path id="DejaVuSans-52" d="M 2841 2188 
Q 3044 2119 3236 1894 
Q 3428 1669 3622 1275 
L 4263 0 
L 3584 0 
L 2988 1197 
Q 2756 1666 2539 1819 
Q 2322 1972 1947 1972 
L 1259 1972 
L 1259 0 
L 628 0 
L 628 4666 
L 2053 4666 
Q 2853 4666 3247 4331 
Q 3641 3997 3641 3322 
Q 3641 2881 3436 2590 
Q 3231 2300 2841 2188 
z
M 1259 4147 
L 1259 2491 
L 2053 2491 
Q 2509 2491 2742 2702 
Q 2975 2913 2975 3322 
Q 2975 3731 2742 3939 
Q 2509 4147 2053 4147 
L 1259 4147 
z
" transform="scale(0.015625)"/>
       <path id="DejaVuSans-6f" d="M 1959 3097 
Q 1497 3097 1228 2736 
Q 959 2375 959 1747 
Q 959 1119 1226 758 
Q 1494 397 1959 397 
Q 2419 397 2687 759 
Q 2956 1122 2956 1747 
Q 2956 2369 2687 2733 
Q 2419 3097 1959 3097 
z
M 1959 3584 
Q 2709 3584 3137 3096 
Q 3566 2609 3566 1747 
Q 3566 888 3137 398 
Q 2709 -91 1959 -91 
Q 1206 -91 779 398 
Q 353 888 353 1747 
Q 353 2609 779 3096 
Q 1206 3584 1959 3584 
z
" transform="scale(0.015625)"/>
       <path id="DejaVuSans-78" d="M 3513 3500 
L 2247 1797 
L 3578 0 
L 2900 0 
L 1881 1375 
L 863 0 
L 184 0 
L 1544 1831 
L 300 3500 
L 978 3500 
L 1906 2253 
L 2834 3500 
L 3513 3500 
z
" transform="scale(0.015625)"/>
       <path id="DejaVuSans-53" d="M 3425 4513 
L 3425 3897 
Q 3066 4069 2747 4153 
Q 2428 4238 2131 4238 
Q 1616 4238 1336 4038 
Q 1056 3838 1056 3469 
Q 1056 3159 1242 3001 
Q 1428 2844 1947 2747 
L 2328 2669 
Q 3034 2534 3370 2195 
Q 3706 1856 3706 1288 
Q 3706 609 3251 259 
Q 2797 -91 1919 -91 
Q 1588 -91 1214 -16 
Q 841 59 441 206 
L 441 856 
Q 825 641 1194 531 
Q 1563 422 1919 422 
Q 2459 422 2753 634 
Q 3047 847 3047 1241 
Q 3047 1584 2836 1778 
Q 2625 1972 2144 2069 
L 1759 2144 
Q 1053 2284 737 2584 
Q 422 2884 422 3419 
Q 422 4038 858 4394 
Q 1294 4750 2059 4750 
Q 2388 4750 2728 4690 
Q 3069 4631 3425 4513 
z
" transform="scale(0.015625)"/>
       <path id="DejaVuSans-74" d="M 1172 4494 
L 1172 3500 
L 2356 3500 
L 2356 3053 
L 1172 3053 
L 1172 1153 
Q 1172 725 1289 603 
Q 1406 481 1766 481 
L 2356 481 
L 2356 0 
L 1766 0 
Q 1100 0 847 248 
Q 594 497 594 1153 
L 594 3053 
L 172 3053 
L 172 3500 
L 594 3500 
L 594 4494 
L 1172 4494 
z
" transform="scale(0.015625)"/>
       <path id="DejaVuSans-61" d="M 2194 1759 
Q 1497 1759 1228 1600 
Q 959 1441 959 1056 
Q 959 750 1161 570 
Q 1363 391 1709 391 
Q 2188 391 2477 730 
Q 2766 1069 2766 1631 
L 2766 1759 
L 2194 1759 
z
M 3341 1997 
L 3341 0 
L 2766 0 
L 2766 531 
Q 2569 213 2275 61 
Q 1981 -91 1556 -91 
Q 1019 -91 701 211 
Q 384 513 384 1019 
Q 384 1609 779 1909 
Q 1175 2209 1959 2209 
L 2766 2209 
L 2766 2266 
Q 2766 2663 2505 2880 
Q 2244 3097 1772 3097 
Q 1472 3097 1187 3025 
Q 903 2953 641 2809 
L 641 3341 
Q 956 3463 1253 3523 
Q 1550 3584 1831 3584 
Q 2591 3584 2966 3190 
Q 3341 2797 3341 1997 
z
" transform="scale(0.015625)"/>
      </defs>
      <use xlink:href="#DejaVuSans-46"/>
      <use xlink:href="#DejaVuSans-64" transform="translate(57.519531 0)"/>
      <use xlink:href="#DejaVuSans-20" transform="translate(120.996094 0)"/>
      <use xlink:href="#DejaVuSans-52" transform="translate(152.783203 0)"/>
      <use xlink:href="#DejaVuSans-65" transform="translate(217.765625 0)"/>
      <use xlink:href="#DejaVuSans-64" transform="translate(279.289062 0)"/>
      <use xlink:href="#DejaVuSans-6f" transform="translate(342.765625 0)"/>
      <use xlink:href="#DejaVuSans-78" transform="translate(400.822266 0)"/>
      <use xlink:href="#DejaVuSans-20" transform="translate(460.001953 0)"/>
      <use xlink:href="#DejaVuSans-53" transform="translate(491.789062 0)"/>
      <use xlink:href="#DejaVuSans-74" transform="translate(555.265625 0)"/>
      <use xlink:href="#DejaVuSans-61" transform="translate(594.474609 0)"/>
      <use xlink:href="#DejaVuSans-74" transform="translate(655.753906 0)"/>
      <use xlink:href="#DejaVuSans-65" transform="translate(694.962891 0)"/>
     </g>
    </g>
   </g>
   <g id="line2d_13">
    <path d="M 62.534298 208.000391 
L 63.903182 43.102847 
L 87.174215 43.095587 
L 89.911983 43.095591 
L 91.280868 180.538361 
L 92.649752 186.724706 
L 94.018636 190.470933 
L 95.387521 192.880207 
L 96.756405 194.364651 
L 98.125289 195.03156 
L 99.494174 194.954124 
L 100.863058 194.219698 
L 102.231942 192.922914 
L 103.600826 191.157515 
L 104.969711 189.012867 
L 107.707479 183.909043 
L 110.445248 178.163517 
L 117.289669 163.260357 
L 118.658554 43.079663 
L 125.502975 43.095881 
L 144.667355 43.095761 
L 146.03624 190.611091 
L 147.405124 196.299227 
L 148.774008 199.150493 
L 150.142893 200.575618 
L 151.511777 201.240812 
L 152.880661 201.347291 
L 154.249545 200.969454 
L 155.61843 200.159032 
L 156.987314 198.963962 
L 158.356198 197.429675 
L 159.725083 195.600101 
L 161.093967 193.519172 
L 163.831736 188.781983 
L 167.938388 180.880105 
L 172.045041 172.864273 
L 173.413926 43.076314 
L 178.889463 43.096482 
L 199.422727 43.096037 
L 200.791612 196.132076 
L 202.160496 201.449821 
L 203.52938 203.886781 
L 204.898264 204.905376 
L 206.267149 205.231702 
L 207.636033 205.098485 
L 209.004917 204.585681 
L 210.373802 203.736835 
L 211.742686 202.585735 
L 213.11157 201.160833 
L 214.480455 199.487901 
L 215.849339 197.593105 
L 218.587107 193.256599 
L 221.324876 188.417081 
L 226.800413 178.302851 
L 228.169298 43.07433 
L 232.27595 43.097924 
L 254.178099 43.096307 
L 255.546983 199.432166 
L 256.915868 204.483404 
L 258.284752 206.690154 
L 259.653636 207.502084 
L 261.022521 207.658094 
L 262.391405 207.402697 
L 263.760289 206.819169 
L 265.129174 205.948631 
L 266.498058 204.819496 
L 267.866942 203.453024 
L 269.235826 201.866583 
L 271.973595 198.105372 
L 274.711364 193.715502 
L 278.818017 186.479828 
L 281.555785 181.577581 
L 282.924669 43.073091 
L 287.031322 43.098204 
L 308.933471 43.096531 
L 310.302355 201.482385 
L 311.67124 206.354014 
L 313.040124 208.424026 
L 314.409008 209.119868 
L 315.777893 209.181088 
L 317.146777 208.857181 
L 318.515661 208.233397 
L 319.884545 207.350058 
L 321.25343 206.233212 
L 322.622314 204.900662 
L 323.991198 203.365442 
L 326.728967 199.738746 
L 329.466736 195.494144 
L 333.573388 188.441679 
L 336.311157 183.628051 
L 336.311157 183.628051 
" clip-path="url(#p1a082880e1)" style="fill: none; stroke: #ff0000; stroke-width: 3; stroke-linecap: square"/>
   </g>
   <g id="line2d_14">
    <path d="M 62.534298 208.000391 
L 63.081851 44.326194 
L 64.176959 102.147977 
L 64.724512 108.954141 
L 65.81962 117.331008 
L 66.914727 124.288293 
L 69.652496 139.336254 
L 70.20005 130.847216 
L 70.747603 129.295926 
L 71.295157 128.463665 
L 71.842711 127.907975 
L 72.937818 127.297581 
L 74.032926 127.053489 
L 75.675587 126.964576 
L 81.698678 127.072683 
L 89.911983 127.238771 
L 90.459537 235.615564 
L 91.007091 232.925856 
L 91.554645 232.279627 
L 92.649752 231.971334 
L 95.935074 231.402416 
L 98.125289 231.262108 
L 104.695934 231.033913 
L 107.433702 230.605869 
L 110.171471 229.924733 
L 113.456793 228.854682 
L 117.289669 227.459147 
L 117.837223 43.284612 
L 118.384777 45.000058 
L 118.932331 62.403879 
L 119.479884 93.511286 
L 120.027438 104.384948 
L 121.122545 114.96513 
L 122.217653 123.120544 
L 123.31276 129.868688 
L 126.050529 144.70886 
L 126.598083 136.255441 
L 127.145636 134.68555 
L 127.69319 133.851992 
L 128.240744 133.277963 
L 129.335851 132.606023 
L 130.430959 132.290562 
L 132.07362 132.095615 
L 137.001603 131.886437 
L 144.667355 131.62296 
L 145.214909 236.034117 
L 145.762463 233.507861 
L 146.310017 232.968361 
L 147.405124 232.788794 
L 153.428215 232.194993 
L 158.356198 231.970727 
L 161.093967 231.604137 
L 163.831736 230.999166 
L 167.117058 230.002852 
L 172.045041 228.236442 
L 172.592595 43.311135 
L 173.140149 45.332563 
L 173.687702 67.069794 
L 174.235256 96.994562 
L 174.78281 107.067459 
L 175.877917 117.525292 
L 176.973025 125.672761 
L 178.068132 132.373614 
L 180.805901 146.871746 
L 181.353455 138.786475 
L 181.901008 137.175372 
L 182.448562 136.33888 
L 182.996116 135.757141 
L 184.091223 135.061415 
L 185.186331 134.718888 
L 186.828992 134.48378 
L 191.756975 134.162591 
L 199.422727 133.739313 
L 199.970281 236.221685 
L 200.517835 233.790315 
L 201.065388 233.305355 
L 202.70805 233.133745 
L 208.183587 232.644666 
L 213.11157 232.381565 
L 215.849339 231.999695 
L 218.587107 231.38979 
L 221.87243 230.397961 
L 226.800413 228.644348 
L 227.347967 43.325563 
L 227.895521 45.527228 
L 228.443074 69.584251 
L 228.990628 98.748847 
L 229.538182 108.47065 
L 230.633289 118.884512 
L 231.728397 127.033573 
L 232.823504 133.714884 
L 235.561273 148.05283 
L 236.108826 140.097471 
L 236.65638 138.481557 
L 237.203934 137.64789 
L 237.751488 137.065441 
L 238.846595 136.36239 
L 239.941702 136.009361 
L 241.584364 135.757126 
L 246.512347 135.385664 
L 254.178099 134.889684 
L 254.725653 236.319178 
L 255.273207 233.950679 
L 255.82076 233.498025 
L 258.010975 233.298466 
L 261.843851 232.928013 
L 268.414496 232.540612 
L 271.152264 232.109474 
L 273.890033 231.457287 
L 277.175355 230.434845 
L 281.555785 228.876814 
L 282.103339 43.333973 
L 282.650893 45.646044 
L 283.746 99.738577 
L 284.293554 109.276992 
L 285.388661 119.671715 
L 286.483769 127.824113 
L 287.578876 134.496429 
L 290.316645 148.751051 
L 290.864198 140.842351 
L 291.411752 139.231692 
L 291.959306 138.401323 
L 292.50686 137.819663 
L 293.601967 137.114179 
L 294.697074 136.756303 
L 296.339736 136.495403 
L 301.267719 136.097324 
L 308.933471 135.562568 
L 309.481025 236.374909 
L 310.028579 234.049669 
L 310.576132 233.617324 
L 313.861455 233.298139 
L 317.146777 233.033266 
L 322.622314 232.725429 
L 325.360083 232.3365 
L 328.097851 231.72908 
L 331.383174 230.749196 
L 336.311157 229.015728 
L 336.311157 229.015728 
" clip-path="url(#p1a082880e1)" style="fill: none; stroke: #000000; stroke-width: 3; stroke-linecap: square"/>
   </g>
   <g id="patch_13">
    <path d="M 48.845455 246.04 
L 48.845455 33.408 
" style="fill: none; stroke: #000000; stroke-width: 0.8; stroke-linejoin: miter; stroke-linecap: square"/>
   </g>
   <g id="patch_14">
    <path d="M 350 246.04 
L 350 33.408 
" style="fill: none; stroke: #000000; stroke-width: 0.8; stroke-linejoin: miter; stroke-linecap: square"/>
   </g>
   <g id="patch_15">
    <path d="M 48.845455 246.04 
L 350 246.04 
" style="fill: none; stroke: #000000; stroke-width: 0.8; stroke-linejoin: miter; stroke-linecap: square"/>
   </g>
   <g id="patch_16">
    <path d="M 48.845455 33.408 
L 350 33.408 
" style="fill: none; stroke: #000000; stroke-width: 0.8; stroke-linejoin: miter; stroke-linecap: square"/>
   </g>
   <g id="text_15">
    <!-- A -->
    <g transform="translate(3.672273 22.7764) scale(0.15 -0.15)">
     <defs>
      <path id="DejaVuSans-Bold-41" d="M 3419 850 
L 1538 850 
L 1241 0 
L 31 0 
L 1759 4666 
L 3194 4666 
L 4922 0 
L 3713 0 
L 3419 850 
z
M 1838 1716 
L 3116 1716 
L 2478 3572 
L 1838 1716 
z
" transform="scale(0.015625)"/>
     </defs>
     <use xlink:href="#DejaVuSans-Bold-41"/>
    </g>
   </g>
  </g>
  <g id="axes_2">
   <g id="patch_17">
    <path d="M 408.045455 246.04 
L 709.2 246.04 
L 709.2 33.408 
L 408.045455 33.408 
z
" style="fill: #ffffff"/>
   </g>
   <g id="patch_18">
    <path d="M 421.734298 246.04 
L 449.111983 246.04 
L 449.111983 33.408 
L 421.734298 33.408 
z
" clip-path="url(#pae1b206078)" style="fill: #ffffff; opacity: 0.3"/>
   </g>
   <g id="patch_19">
    <path d="M 449.111983 246.04 
L 476.489669 246.04 
L 476.489669 33.408 
L 449.111983 33.408 
z
" clip-path="url(#pae1b206078)" style="opacity: 0.3"/>
   </g>
   <g id="patch_20">
    <path d="M 476.489669 246.04 
L 503.867355 246.04 
L 503.867355 33.408 
L 476.489669 33.408 
z
" clip-path="url(#pae1b206078)" style="fill: #ffffff; opacity: 0.3"/>
   </g>
   <g id="patch_21">
    <path d="M 503.867355 246.04 
L 531.245041 246.04 
L 531.245041 33.408 
L 503.867355 33.408 
z
" clip-path="url(#pae1b206078)" style="opacity: 0.3"/>
   </g>
   <g id="patch_22">
    <path d="M 531.245041 246.04 
L 558.622727 246.04 
L 558.622727 33.408 
L 531.245041 33.408 
z
" clip-path="url(#pae1b206078)" style="fill: #ffffff; opacity: 0.3"/>
   </g>
   <g id="patch_23">
    <path d="M 558.622727 246.04 
L 586.000413 246.04 
L 586.000413 33.408 
L 558.622727 33.408 
z
" clip-path="url(#pae1b206078)" style="opacity: 0.3"/>
   </g>
   <g id="patch_24">
    <path d="M 586.000413 246.04 
L 613.378099 246.04 
L 613.378099 33.408 
L 586.000413 33.408 
z
" clip-path="url(#pae1b206078)" style="fill: #ffffff; opacity: 0.3"/>
   </g>
   <g id="patch_25">
    <path d="M 613.378099 246.04 
L 640.755785 246.04 
L 640.755785 33.408 
L 613.378099 33.408 
z
" clip-path="url(#pae1b206078)" style="opacity: 0.3"/>
   </g>
   <g id="patch_26">
    <path d="M 640.755785 246.04 
L 668.133471 246.04 
L 668.133471 33.408 
L 640.755785 33.408 
z
" clip-path="url(#pae1b206078)" style="fill: #ffffff; opacity: 0.3"/>
   </g>
   <g id="patch_27">
    <path d="M 668.133471 246.04 
L 695.511157 246.04 
L 695.511157 33.408 
L 668.133471 33.408 
z
" clip-path="url(#pae1b206078)" style="opacity: 0.3"/>
   </g>
   <g id="matplotlib.axis_3">
    <g id="xtick_8">
     <g id="line2d_15">
      <g>
       <use xlink:href="#mfca12cb6fe" x="421.734298" y="246.04" style="stroke: #000000; stroke-width: 0.8"/>
      </g>
     </g>
     <g id="text_16">
      <!-- 0 -->
      <g transform="translate(418.553048 260.638438) scale(0.1 -0.1)">
       <use xlink:href="#DejaVuSans-30"/>
      </g>
     </g>
    </g>
    <g id="xtick_9">
     <g id="line2d_16">
      <g>
       <use xlink:href="#mfca12cb6fe" x="467.363774" y="246.04" style="stroke: #000000; stroke-width: 0.8"/>
      </g>
     </g>
     <g id="text_17">
      <!-- 100 -->
      <g transform="translate(457.820024 260.638438) scale(0.1 -0.1)">
       <use xlink:href="#DejaVuSans-31"/>
       <use xlink:href="#DejaVuSans-30" transform="translate(63.623047 0)"/>
       <use xlink:href="#DejaVuSans-30" transform="translate(127.246094 0)"/>
      </g>
     </g>
    </g>
    <g id="xtick_10">
     <g id="line2d_17">
      <g>
       <use xlink:href="#mfca12cb6fe" x="512.993251" y="246.04" style="stroke: #000000; stroke-width: 0.8"/>
      </g>
     </g>
     <g id="text_18">
      <!-- 200 -->
      <g transform="translate(503.449501 260.638438) scale(0.1 -0.1)">
       <use xlink:href="#DejaVuSans-32"/>
       <use xlink:href="#DejaVuSans-30" transform="translate(63.623047 0)"/>
       <use xlink:href="#DejaVuSans-30" transform="translate(127.246094 0)"/>
      </g>
     </g>
    </g>
    <g id="xtick_11">
     <g id="line2d_18">
      <g>
       <use xlink:href="#mfca12cb6fe" x="558.622727" y="246.04" style="stroke: #000000; stroke-width: 0.8"/>
      </g>
     </g>
     <g id="text_19">
      <!-- 300 -->
      <g transform="translate(549.078977 260.638438) scale(0.1 -0.1)">
       <use xlink:href="#DejaVuSans-33"/>
       <use xlink:href="#DejaVuSans-30" transform="translate(63.623047 0)"/>
       <use xlink:href="#DejaVuSans-30" transform="translate(127.246094 0)"/>
      </g>
     </g>
    </g>
    <g id="xtick_12">
     <g id="line2d_19">
      <g>
       <use xlink:href="#mfca12cb6fe" x="604.252204" y="246.04" style="stroke: #000000; stroke-width: 0.8"/>
      </g>
     </g>
     <g id="text_20">
      <!-- 400 -->
      <g transform="translate(594.708454 260.638438) scale(0.1 -0.1)">
       <use xlink:href="#DejaVuSans-34"/>
       <use xlink:href="#DejaVuSans-30" transform="translate(63.623047 0)"/>
       <use xlink:href="#DejaVuSans-30" transform="translate(127.246094 0)"/>
      </g>
     </g>
    </g>
    <g id="xtick_13">
     <g id="line2d_20">
      <g>
       <use xlink:href="#mfca12cb6fe" x="649.88168" y="246.04" style="stroke: #000000; stroke-width: 0.8"/>
      </g>
     </g>
     <g id="text_21">
      <!-- 500 -->
      <g transform="translate(640.33793 260.638438) scale(0.1 -0.1)">
       <use xlink:href="#DejaVuSans-35"/>
       <use xlink:href="#DejaVuSans-30" transform="translate(63.623047 0)"/>
       <use xlink:href="#DejaVuSans-30" transform="translate(127.246094 0)"/>
      </g>
     </g>
    </g>
    <g id="xtick_14">
     <g id="line2d_21">
      <g>
       <use xlink:href="#mfca12cb6fe" x="695.511157" y="246.04" style="stroke: #000000; stroke-width: 0.8"/>
      </g>
     </g>
     <g id="text_22">
      <!-- 600 -->
      <g transform="translate(685.967407 260.638438) scale(0.1 -0.1)">
       <use xlink:href="#DejaVuSans-36"/>
       <use xlink:href="#DejaVuSans-30" transform="translate(63.623047 0)"/>
       <use xlink:href="#DejaVuSans-30" transform="translate(127.246094 0)"/>
      </g>
     </g>
    </g>
    <g id="text_23">
     <!-- Time / (s) -->
     <g transform="translate(535.020384 274.316562) scale(0.1 -0.1)">
      <use xlink:href="#DejaVuSans-54"/>
      <use xlink:href="#DejaVuSans-69" transform="translate(57.958984 0)"/>
      <use xlink:href="#DejaVuSans-6d" transform="translate(85.742188 0)"/>
      <use xlink:href="#DejaVuSans-65" transform="translate(183.154297 0)"/>
      <use xlink:href="#DejaVuSans-20" transform="translate(244.677734 0)"/>
      <use xlink:href="#DejaVuSans-2f" transform="translate(276.464844 0)"/>
      <use xlink:href="#DejaVuSans-20" transform="translate(310.15625 0)"/>
      <use xlink:href="#DejaVuSans-28" transform="translate(341.943359 0)"/>
      <use xlink:href="#DejaVuSans-73" transform="translate(380.957031 0)"/>
      <use xlink:href="#DejaVuSans-29" transform="translate(433.056641 0)"/>
     </g>
    </g>
   </g>
   <g id="matplotlib.axis_4">
    <g id="ytick_6">
     <g id="line2d_22">
      <g>
       <use xlink:href="#m3ad2b04fb7" x="408.045455" y="217.064443" style="stroke: #000000; stroke-width: 0.8"/>
      </g>
     </g>
     <g id="text_24">
      <!-- 0.5 -->
      <g transform="translate(385.14233 220.863662) scale(0.1 -0.1)">
       <use xlink:href="#DejaVuSans-30"/>
       <use xlink:href="#DejaVuSans-2e" transform="translate(63.623047 0)"/>
       <use xlink:href="#DejaVuSans-35" transform="translate(95.410156 0)"/>
      </g>
     </g>
    </g>
    <g id="ytick_7">
     <g id="line2d_23">
      <g>
       <use xlink:href="#m3ad2b04fb7" x="408.045455" y="187.548022" style="stroke: #000000; stroke-width: 0.8"/>
      </g>
     </g>
     <g id="text_25">
      <!-- 1.0 -->
      <g transform="translate(385.14233 191.347241) scale(0.1 -0.1)">
       <use xlink:href="#DejaVuSans-31"/>
       <use xlink:href="#DejaVuSans-2e" transform="translate(63.623047 0)"/>
       <use xlink:href="#DejaVuSans-30" transform="translate(95.410156 0)"/>
      </g>
     </g>
    </g>
    <g id="ytick_8">
     <g id="line2d_24">
      <g>
       <use xlink:href="#m3ad2b04fb7" x="408.045455" y="158.031602" style="stroke: #000000; stroke-width: 0.8"/>
      </g>
     </g>
     <g id="text_26">
      <!-- 1.5 -->
      <g transform="translate(385.14233 161.830821) scale(0.1 -0.1)">
       <use xlink:href="#DejaVuSans-31"/>
       <use xlink:href="#DejaVuSans-2e" transform="translate(63.623047 0)"/>
       <use xlink:href="#DejaVuSans-35" transform="translate(95.410156 0)"/>
      </g>
     </g>
    </g>
    <g id="ytick_9">
     <g id="line2d_25">
      <g>
       <use xlink:href="#m3ad2b04fb7" x="408.045455" y="128.515181" style="stroke: #000000; stroke-width: 0.8"/>
      </g>
     </g>
     <g id="text_27">
      <!-- 2.0 -->
      <g transform="translate(385.14233 132.3144) scale(0.1 -0.1)">
       <use xlink:href="#DejaVuSans-32"/>
       <use xlink:href="#DejaVuSans-2e" transform="translate(63.623047 0)"/>
       <use xlink:href="#DejaVuSans-30" transform="translate(95.410156 0)"/>
      </g>
     </g>
    </g>
    <g id="ytick_10">
     <g id="line2d_26">
      <g>
       <use xlink:href="#m3ad2b04fb7" x="408.045455" y="98.998761" style="stroke: #000000; stroke-width: 0.8"/>
      </g>
     </g>
     <g id="text_28">
      <!-- 2.5 -->
      <g transform="translate(385.14233 102.797979) scale(0.1 -0.1)">
       <use xlink:href="#DejaVuSans-32"/>
       <use xlink:href="#DejaVuSans-2e" transform="translate(63.623047 0)"/>
       <use xlink:href="#DejaVuSans-35" transform="translate(95.410156 0)"/>
      </g>
     </g>
    </g>
    <g id="ytick_11">
     <g id="line2d_27">
      <g>
       <use xlink:href="#m3ad2b04fb7" x="408.045455" y="69.48234" style="stroke: #000000; stroke-width: 0.8"/>
      </g>
     </g>
     <g id="text_29">
      <!-- 3.0 -->
      <g transform="translate(385.14233 73.281559) scale(0.1 -0.1)">
       <use xlink:href="#DejaVuSans-33"/>
       <use xlink:href="#DejaVuSans-2e" transform="translate(63.623047 0)"/>
       <use xlink:href="#DejaVuSans-30" transform="translate(95.410156 0)"/>
      </g>
     </g>
    </g>
    <g id="ytick_12">
     <g id="line2d_28">
      <g>
       <use xlink:href="#m3ad2b04fb7" x="408.045455" y="39.965919" style="stroke: #000000; stroke-width: 0.8"/>
      </g>
     </g>
     <g id="text_30">
      <!-- 3.5 -->
      <g transform="translate(385.14233 43.765138) scale(0.1 -0.1)">
       <use xlink:href="#DejaVuSans-33"/>
       <use xlink:href="#DejaVuSans-2e" transform="translate(63.623047 0)"/>
       <use xlink:href="#DejaVuSans-35" transform="translate(95.410156 0)"/>
      </g>
     </g>
    </g>
    <g id="text_31">
     <!-- Rate of RuBisCO / (mM / s) -->
     <g transform="translate(379.062642 205.869312) rotate(-90) scale(0.1 -0.1)">
      <defs>
       <path id="DejaVuSans-66" d="M 2375 4863 
L 2375 4384 
L 1825 4384 
Q 1516 4384 1395 4259 
Q 1275 4134 1275 3809 
L 1275 3500 
L 2222 3500 
L 2222 3053 
L 1275 3053 
L 1275 0 
L 697 0 
L 697 3053 
L 147 3053 
L 147 3500 
L 697 3500 
L 697 3744 
Q 697 4328 969 4595 
Q 1241 4863 1831 4863 
L 2375 4863 
z
" transform="scale(0.015625)"/>
       <path id="DejaVuSans-75" d="M 544 1381 
L 544 3500 
L 1119 3500 
L 1119 1403 
Q 1119 906 1312 657 
Q 1506 409 1894 409 
Q 2359 409 2629 706 
Q 2900 1003 2900 1516 
L 2900 3500 
L 3475 3500 
L 3475 0 
L 2900 0 
L 2900 538 
Q 2691 219 2414 64 
Q 2138 -91 1772 -91 
Q 1169 -91 856 284 
Q 544 659 544 1381 
z
M 1991 3584 
L 1991 3584 
z
" transform="scale(0.015625)"/>
       <path id="DejaVuSans-42" d="M 1259 2228 
L 1259 519 
L 2272 519 
Q 2781 519 3026 730 
Q 3272 941 3272 1375 
Q 3272 1813 3026 2020 
Q 2781 2228 2272 2228 
L 1259 2228 
z
M 1259 4147 
L 1259 2741 
L 2194 2741 
Q 2656 2741 2882 2914 
Q 3109 3088 3109 3444 
Q 3109 3797 2882 3972 
Q 2656 4147 2194 4147 
L 1259 4147 
z
M 628 4666 
L 2241 4666 
Q 2963 4666 3353 4366 
Q 3744 4066 3744 3513 
Q 3744 3084 3544 2831 
Q 3344 2578 2956 2516 
Q 3422 2416 3680 2098 
Q 3938 1781 3938 1306 
Q 3938 681 3513 340 
Q 3088 0 2303 0 
L 628 0 
L 628 4666 
z
" transform="scale(0.015625)"/>
       <path id="DejaVuSans-43" d="M 4122 4306 
L 4122 3641 
Q 3803 3938 3442 4084 
Q 3081 4231 2675 4231 
Q 1875 4231 1450 3742 
Q 1025 3253 1025 2328 
Q 1025 1406 1450 917 
Q 1875 428 2675 428 
Q 3081 428 3442 575 
Q 3803 722 4122 1019 
L 4122 359 
Q 3791 134 3420 21 
Q 3050 -91 2638 -91 
Q 1578 -91 968 557 
Q 359 1206 359 2328 
Q 359 3453 968 4101 
Q 1578 4750 2638 4750 
Q 3056 4750 3426 4639 
Q 3797 4528 4122 4306 
z
" transform="scale(0.015625)"/>
       <path id="DejaVuSans-4f" d="M 2522 4238 
Q 1834 4238 1429 3725 
Q 1025 3213 1025 2328 
Q 1025 1447 1429 934 
Q 1834 422 2522 422 
Q 3209 422 3611 934 
Q 4013 1447 4013 2328 
Q 4013 3213 3611 3725 
Q 3209 4238 2522 4238 
z
M 2522 4750 
Q 3503 4750 4090 4092 
Q 4678 3434 4678 2328 
Q 4678 1225 4090 567 
Q 3503 -91 2522 -91 
Q 1538 -91 948 565 
Q 359 1222 359 2328 
Q 359 3434 948 4092 
Q 1538 4750 2522 4750 
z
" transform="scale(0.015625)"/>
       <path id="DejaVuSans-4d" d="M 628 4666 
L 1569 4666 
L 2759 1491 
L 3956 4666 
L 4897 4666 
L 4897 0 
L 4281 0 
L 4281 4097 
L 3078 897 
L 2444 897 
L 1241 4097 
L 1241 0 
L 628 0 
L 628 4666 
z
" transform="scale(0.015625)"/>
      </defs>
      <use xlink:href="#DejaVuSans-52"/>
      <use xlink:href="#DejaVuSans-61" transform="translate(67.232422 0)"/>
      <use xlink:href="#DejaVuSans-74" transform="translate(128.511719 0)"/>
      <use xlink:href="#DejaVuSans-65" transform="translate(167.720703 0)"/>
      <use xlink:href="#DejaVuSans-20" transform="translate(229.244141 0)"/>
      <use xlink:href="#DejaVuSans-6f" transform="translate(261.03125 0)"/>
      <use xlink:href="#DejaVuSans-66" transform="translate(322.212891 0)"/>
      <use xlink:href="#DejaVuSans-20" transform="translate(357.417969 0)"/>
      <use xlink:href="#DejaVuSans-52" transform="translate(389.205078 0)"/>
      <use xlink:href="#DejaVuSans-75" transform="translate(454.1875 0)"/>
      <use xlink:href="#DejaVuSans-42" transform="translate(517.566406 0)"/>
      <use xlink:href="#DejaVuSans-69" transform="translate(586.169922 0)"/>
      <use xlink:href="#DejaVuSans-73" transform="translate(613.953125 0)"/>
      <use xlink:href="#DejaVuSans-43" transform="translate(666.052734 0)"/>
      <use xlink:href="#DejaVuSans-4f" transform="translate(735.876953 0)"/>
      <use xlink:href="#DejaVuSans-20" transform="translate(814.587891 0)"/>
      <use xlink:href="#DejaVuSans-2f" transform="translate(846.375 0)"/>
      <use xlink:href="#DejaVuSans-20" transform="translate(880.066406 0)"/>
      <use xlink:href="#DejaVuSans-28" transform="translate(911.853516 0)"/>
      <use xlink:href="#DejaVuSans-6d" transform="translate(950.867188 0)"/>
      <use xlink:href="#DejaVuSans-4d" transform="translate(1048.279297 0)"/>
      <use xlink:href="#DejaVuSans-20" transform="translate(1134.558594 0)"/>
      <use xlink:href="#DejaVuSans-2f" transform="translate(1166.345703 0)"/>
      <use xlink:href="#DejaVuSans-20" transform="translate(1200.037109 0)"/>
      <use xlink:href="#DejaVuSans-73" transform="translate(1231.824219 0)"/>
      <use xlink:href="#DejaVuSans-29" transform="translate(1283.923828 0)"/>
     </g>
    </g>
   </g>
   <g id="line2d_29">
    <path d="M 421.734298 207.150713 
L 422.281851 119.039774 
L 422.829405 96.110591 
L 423.376959 85.292374 
L 424.472066 69.732666 
L 425.567174 57.878998 
L 426.662281 49.671466 
L 427.209835 46.751465 
L 427.757388 44.575354 
L 428.304942 43.180088 
L 428.852496 43.073091 
L 429.40005 44.35258 
L 429.947603 43.585966 
L 430.495157 43.339674 
L 431.590264 43.295075 
L 437.065802 43.784595 
L 441.993785 43.804887 
L 449.111983 43.719338 
L 449.659537 220.316336 
L 450.207091 227.41052 
L 450.754645 228.082884 
L 451.302198 227.910427 
L 452.397306 227.233072 
L 453.492413 226.883087 
L 454.587521 226.882446 
L 456.230182 227.23273 
L 458.96795 228.154676 
L 466.633702 230.869231 
L 470.466579 231.928585 
L 474.299455 232.733157 
L 476.489669 233.096674 
L 477.037223 161.47023 
L 477.584777 135.811917 
L 478.132331 118.25581 
L 479.227438 96.329976 
L 480.322545 78.813113 
L 481.417653 65.454097 
L 482.51276 56.148366 
L 483.060314 52.764711 
L 483.607868 50.112863 
L 484.155421 48.167058 
L 484.702975 46.955951 
L 485.250529 46.415766 
L 485.798083 48.036659 
L 486.345636 47.090859 
L 486.89319 46.745762 
L 487.988298 46.569803 
L 490.726066 46.731783 
L 494.011388 46.795733 
L 500.034479 46.592678 
L 503.867355 46.433289 
L 504.414909 220.150173 
L 504.962463 227.479086 
L 505.510017 228.215813 
L 506.05757 228.069217 
L 507.152678 227.41534 
L 508.247785 227.069254 
L 509.342893 227.06615 
L 510.985554 227.411026 
L 513.723322 228.32304 
L 521.389074 230.995637 
L 525.22195 232.035665 
L 529.054826 232.825663 
L 531.245041 233.182484 
L 531.792595 162.146621 
L 532.340149 136.284218 
L 532.887702 118.838823 
L 533.98281 97.351525 
L 535.077917 80.062656 
L 536.173025 66.967266 
L 537.268132 57.902937 
L 537.815686 54.622831 
L 538.36324 52.061194 
L 538.910793 50.190919 
L 539.458347 49.037124 
L 540.005901 48.526856 
L 540.553455 50.100075 
L 541.101008 49.044297 
L 541.648562 48.647547 
L 542.743669 48.405602 
L 544.933884 48.462327 
L 548.219207 48.499121 
L 553.14719 48.271838 
L 558.622727 47.955378 
L 559.170281 220.065122 
L 559.717835 227.52892 
L 560.265388 228.311173 
L 560.812942 228.182062 
L 562.455603 227.319375 
L 563.550711 227.159759 
L 564.645818 227.269949 
L 566.288479 227.689674 
L 570.121355 229.025628 
L 575.596893 230.905288 
L 579.429769 231.968014 
L 583.262645 232.781163 
L 586.000413 233.231466 
L 586.547967 162.558233 
L 587.095521 136.588416 
L 587.643074 119.212447 
L 588.738182 97.940659 
L 589.833289 80.775882 
L 590.928397 67.822552 
L 592.023504 58.889087 
L 592.571058 55.665796 
L 593.118612 53.154575 
L 593.666165 51.328143 
L 594.213719 50.209775 
L 594.761273 49.723458 
L 595.308826 51.259244 
L 595.85638 50.155587 
L 596.403934 49.734822 
L 597.499041 49.460716 
L 599.689256 49.48119 
L 602.974579 49.482141 
L 608.450116 49.170813 
L 613.378099 48.843497 
L 613.925653 220.017609 
L 614.473207 227.565308 
L 615.02076 228.381132 
L 615.568314 228.264238 
L 617.210975 227.408698 
L 618.306083 227.246055 
L 619.40119 227.352102 
L 621.043851 227.766417 
L 624.876727 229.091754 
L 630.352264 230.95444 
L 634.18514 232.007407 
L 638.018017 232.813737 
L 640.755785 233.260462 
L 641.303339 162.804721 
L 641.850893 136.772669 
L 642.398446 119.440163 
L 643.493554 98.289374 
L 644.588661 81.198794 
L 645.683769 68.329997 
L 646.778876 59.474716 
L 647.32643 56.285664 
L 647.873983 53.805206 
L 648.421537 52.006182 
L 648.969091 50.910782 
L 649.516645 50.440128 
L 650.064198 51.94885 
L 650.611752 50.82302 
L 651.159306 50.389938 
L 652.254413 50.098521 
L 653.897074 50.083579 
L 657.72995 50.078429 
L 663.205488 49.736452 
L 668.133471 49.3842 
L 668.681025 219.989614 
L 669.228579 227.59135 
L 669.776132 228.431368 
L 670.323686 228.322701 
L 671.966347 227.469964 
L 673.061455 227.304495 
L 674.156562 227.407218 
L 675.799223 227.817383 
L 679.084545 228.938787 
L 685.107636 230.985685 
L 688.940512 232.032028 
L 692.773388 232.833884 
L 695.511157 233.278269 
L 695.511157 233.278269 
" clip-path="url(#pae1b206078)" style="fill: none; stroke: #000000; stroke-width: 3; stroke-linecap: square"/>
   </g>
   <g id="line2d_30">
    <path d="M 421.734298 207.150713 
L 423.103182 143.119949 
L 424.472066 149.041647 
L 425.84095 149.601392 
L 429.947603 149.184648 
L 438.160909 148.346555 
L 449.111983 147.476407 
L 450.480868 230.515279 
L 453.218636 231.117657 
L 458.694174 232.543112 
L 462.800826 233.253898 
L 466.907479 233.709023 
L 472.383017 234.092139 
L 476.489669 234.271811 
L 477.858554 165.318467 
L 479.227438 145.278047 
L 480.596322 145.565089 
L 481.965207 146.805868 
L 483.334091 147.285642 
L 484.702975 147.374481 
L 488.809628 147.142141 
L 499.760702 146.438765 
L 503.867355 146.224839 
L 505.23624 231.564158 
L 517.556198 234.085086 
L 521.662851 234.570226 
L 527.138388 234.971119 
L 531.245041 235.153796 
L 532.613926 166.889754 
L 533.98281 142.796821 
L 535.351694 144.109628 
L 536.720579 145.619954 
L 538.089463 146.187741 
L 539.458347 146.320856 
L 543.565 146.176804 
L 555.884959 145.589264 
L 558.622727 145.483984 
L 559.991612 232.238023 
L 569.573802 234.186432 
L 573.680455 234.822974 
L 577.787107 235.262379 
L 583.262645 235.623074 
L 586.000413 235.737922 
L 587.369298 167.973296 
L 588.738182 140.573913 
L 590.107066 143.150851 
L 591.47595 144.898649 
L 592.844835 145.530908 
L 594.213719 145.691755 
L 596.951488 145.657278 
L 613.378099 145.039537 
L 614.746983 232.675618 
L 617.484752 233.17073 
L 628.435826 235.185968 
L 632.542479 235.63525 
L 638.018017 236.005065 
L 640.755785 236.121928 
L 642.124669 168.725109 
L 643.493554 138.625796 
L 644.862438 142.519183 
L 646.231322 144.454635 
L 647.600207 145.132907 
L 648.969091 145.311405 
L 651.70686 145.299249 
L 668.133471 144.770887 
L 669.502355 232.961625 
L 670.87124 233.266227 
L 673.609008 233.697802 
L 680.45343 235.02238 
L 684.560083 235.595733 
L 690.03562 236.095524 
L 695.511157 236.374909 
L 695.511157 236.374909 
" clip-path="url(#pae1b206078)" style="fill: none; stroke: #ff0000; stroke-width: 3; stroke-linecap: square"/>
   </g>
   <g id="patch_28">
    <path d="M 408.045455 246.04 
L 408.045455 33.408 
" style="fill: none; stroke: #000000; stroke-width: 0.8; stroke-linejoin: miter; stroke-linecap: square"/>
   </g>
   <g id="patch_29">
    <path d="M 709.2 246.04 
L 709.2 33.408 
" style="fill: none; stroke: #000000; stroke-width: 0.8; stroke-linejoin: miter; stroke-linecap: square"/>
   </g>
   <g id="patch_30">
    <path d="M 408.045455 246.04 
L 709.2 246.04 
" style="fill: none; stroke: #000000; stroke-width: 0.8; stroke-linejoin: miter; stroke-linecap: square"/>
   </g>
   <g id="patch_31">
    <path d="M 408.045455 33.408 
L 709.2 33.408 
" style="fill: none; stroke: #000000; stroke-width: 0.8; stroke-linejoin: miter; stroke-linecap: square"/>
   </g>
   <g id="text_32">
    <!-- B -->
    <g transform="translate(362.872273 22.7764) scale(0.15 -0.15)">
     <defs>
      <path id="DejaVuSans-Bold-42" d="M 2456 2859 
Q 2741 2859 2887 2984 
Q 3034 3109 3034 3353 
Q 3034 3594 2887 3720 
Q 2741 3847 2456 3847 
L 1791 3847 
L 1791 2859 
L 2456 2859 
z
M 2497 819 
Q 2859 819 3042 972 
Q 3225 1125 3225 1434 
Q 3225 1738 3044 1889 
Q 2863 2041 2497 2041 
L 1791 2041 
L 1791 819 
L 2497 819 
z
M 3616 2497 
Q 4003 2384 4215 2081 
Q 4428 1778 4428 1338 
Q 4428 663 3972 331 
Q 3516 0 2584 0 
L 588 0 
L 588 4666 
L 2394 4666 
Q 3366 4666 3802 4372 
Q 4238 4078 4238 3431 
Q 4238 3091 4078 2852 
Q 3919 2613 3616 2497 
z
" transform="scale(0.015625)"/>
     </defs>
     <use xlink:href="#DejaVuSans-Bold-42"/>
    </g>
   </g>
  </g>
  <g id="legend_1">
   <g id="patch_32">
    <path d="M 273.521875 283 
L 446.478125 283 
Q 448.478125 283 448.478125 281 
L 448.478125 267.321875 
Q 448.478125 265.321875 446.478125 265.321875 
L 273.521875 265.321875 
Q 271.521875 265.321875 271.521875 267.321875 
L 271.521875 281 
Q 271.521875 283 273.521875 283 
z
" style="fill: #ffffff; opacity: 0.8; stroke: #cccccc; stroke-linejoin: miter"/>
   </g>
   <g id="line2d_31">
    <path d="M 275.521875 273.420313 
L 285.521875 273.420313 
L 295.521875 273.420313 
" style="fill: none; stroke: #ff0000; stroke-width: 3; stroke-linecap: square"/>
   </g>
   <g id="text_33">
    <!-- PGR-5 KO -->
    <g transform="translate(303.521875 276.920313) scale(0.1 -0.1)">
     <defs>
      <path id="DejaVuSans-50" d="M 1259 4147 
L 1259 2394 
L 2053 2394 
Q 2494 2394 2734 2622 
Q 2975 2850 2975 3272 
Q 2975 3691 2734 3919 
Q 2494 4147 2053 4147 
L 1259 4147 
z
M 628 4666 
L 2053 4666 
Q 2838 4666 3239 4311 
Q 3641 3956 3641 3272 
Q 3641 2581 3239 2228 
Q 2838 1875 2053 1875 
L 1259 1875 
L 1259 0 
L 628 0 
L 628 4666 
z
" transform="scale(0.015625)"/>
      <path id="DejaVuSans-47" d="M 3809 666 
L 3809 1919 
L 2778 1919 
L 2778 2438 
L 4434 2438 
L 4434 434 
Q 4069 175 3628 42 
Q 3188 -91 2688 -91 
Q 1594 -91 976 548 
Q 359 1188 359 2328 
Q 359 3472 976 4111 
Q 1594 4750 2688 4750 
Q 3144 4750 3555 4637 
Q 3966 4525 4313 4306 
L 4313 3634 
Q 3963 3931 3569 4081 
Q 3175 4231 2741 4231 
Q 1884 4231 1454 3753 
Q 1025 3275 1025 2328 
Q 1025 1384 1454 906 
Q 1884 428 2741 428 
Q 3075 428 3337 486 
Q 3600 544 3809 666 
z
" transform="scale(0.015625)"/>
      <path id="DejaVuSans-2d" d="M 313 2009 
L 1997 2009 
L 1997 1497 
L 313 1497 
L 313 2009 
z
" transform="scale(0.015625)"/>
      <path id="DejaVuSans-4b" d="M 628 4666 
L 1259 4666 
L 1259 2694 
L 3353 4666 
L 4166 4666 
L 1850 2491 
L 4331 0 
L 3500 0 
L 1259 2247 
L 1259 0 
L 628 0 
L 628 4666 
z
" transform="scale(0.015625)"/>
     </defs>
     <use xlink:href="#DejaVuSans-50"/>
     <use xlink:href="#DejaVuSans-47" transform="translate(60.302734 0)"/>
     <use xlink:href="#DejaVuSans-52" transform="translate(137.792969 0)"/>
     <use xlink:href="#DejaVuSans-2d" transform="translate(203.275391 0)"/>
     <use xlink:href="#DejaVuSans-35" transform="translate(239.359375 0)"/>
     <use xlink:href="#DejaVuSans-20" transform="translate(302.982422 0)"/>
     <use xlink:href="#DejaVuSans-4b" transform="translate(334.769531 0)"/>
     <use xlink:href="#DejaVuSans-4f" transform="translate(394.845703 0)"/>
    </g>
   </g>
   <g id="line2d_32">
    <path d="M 370.876563 273.420313 
L 380.876563 273.420313 
L 390.876563 273.420313 
" style="fill: none; stroke: #000000; stroke-width: 3; stroke-linecap: square"/>
   </g>
   <g id="text_34">
    <!-- wild type -->
    <g transform="translate(398.876563 276.920313) scale(0.1 -0.1)">
     <defs>
      <path id="DejaVuSans-77" d="M 269 3500 
L 844 3500 
L 1563 769 
L 2278 3500 
L 2956 3500 
L 3675 769 
L 4391 3500 
L 4966 3500 
L 4050 0 
L 3372 0 
L 2619 2869 
L 1863 0 
L 1184 0 
L 269 3500 
z
" transform="scale(0.015625)"/>
      <path id="DejaVuSans-6c" d="M 603 4863 
L 1178 4863 
L 1178 0 
L 603 0 
L 603 4863 
z
" transform="scale(0.015625)"/>
      <path id="DejaVuSans-79" d="M 2059 -325 
Q 1816 -950 1584 -1140 
Q 1353 -1331 966 -1331 
L 506 -1331 
L 506 -850 
L 844 -850 
Q 1081 -850 1212 -737 
Q 1344 -625 1503 -206 
L 1606 56 
L 191 3500 
L 800 3500 
L 1894 763 
L 2988 3500 
L 3597 3500 
L 2059 -325 
z
" transform="scale(0.015625)"/>
      <path id="DejaVuSans-70" d="M 1159 525 
L 1159 -1331 
L 581 -1331 
L 581 3500 
L 1159 3500 
L 1159 2969 
Q 1341 3281 1617 3432 
Q 1894 3584 2278 3584 
Q 2916 3584 3314 3078 
Q 3713 2572 3713 1747 
Q 3713 922 3314 415 
Q 2916 -91 2278 -91 
Q 1894 -91 1617 61 
Q 1341 213 1159 525 
z
M 3116 1747 
Q 3116 2381 2855 2742 
Q 2594 3103 2138 3103 
Q 1681 3103 1420 2742 
Q 1159 2381 1159 1747 
Q 1159 1113 1420 752 
Q 1681 391 2138 391 
Q 2594 391 2855 752 
Q 3116 1113 3116 1747 
z
" transform="scale(0.015625)"/>
     </defs>
     <use xlink:href="#DejaVuSans-77"/>
     <use xlink:href="#DejaVuSans-69" transform="translate(81.787109 0)"/>
     <use xlink:href="#DejaVuSans-6c" transform="translate(109.570312 0)"/>
     <use xlink:href="#DejaVuSans-64" transform="translate(137.353516 0)"/>
     <use xlink:href="#DejaVuSans-20" transform="translate(200.830078 0)"/>
     <use xlink:href="#DejaVuSans-74" transform="translate(232.617188 0)"/>
     <use xlink:href="#DejaVuSans-79" transform="translate(271.826172 0)"/>
     <use xlink:href="#DejaVuSans-70" transform="translate(331.005859 0)"/>
     <use xlink:href="#DejaVuSans-65" transform="translate(394.482422 0)"/>
    </g>
   </g>
  </g>
 </g>
 <defs>
  <clipPath id="p1a082880e1">
   <rect x="48.845455" y="33.408" width="301.154545" height="212.632"/>
  </clipPath>
  <clipPath id="pae1b206078">
   <rect x="408.045455" y="33.408" width="301.154545" height="212.632"/>
  </clipPath>
 </defs>
</svg>
