<?xml version="1.0" encoding="utf-8" standalone="no"?>
<!DOCTYPE svg PUBLIC "-//W3C//DTD SVG 1.1//EN"
  "http://www.w3.org/Graphics/SVG/1.1/DTD/svg11.dtd">
<svg xmlns:xlink="http://www.w3.org/1999/xlink" width="566.73325pt" height="423.21025pt" viewBox="0 0 566.73325 423.21025" xmlns="http://www.w3.org/2000/svg" version="1.1">
 <metadata>
  <rdf:RDF xmlns:dc="http://purl.org/dc/elements/1.1/" xmlns:cc="http://creativecommons.org/ns#" xmlns:rdf="http://www.w3.org/1999/02/22-rdf-syntax-ns#">
   <cc:Work>
    <dc:type rdf:resource="http://purl.org/dc/dcmitype/StillImage"/>
    <dc:date>2026-02-08T14:16:41.756765</dc:date>
    <dc:format>image/svg+xml</dc:format>
    <dc:creator>
     <cc:Agent>
      <dc:title>Matplotlib v3.10.8, https://matplotlib.org/</dc:title>
     </cc:Agent>
    </dc:creator>
   </cc:Work>
  </rdf:RDF>
 </metadata>
 <defs>
  <style type="text/css">*{stroke-linejoin: round; stroke-linecap: butt}</style>
 </defs>
 <g id="figure_1">
  <g id="patch_1">
   <path d="M 0 423.21025 
L 566.73325 423.21025 
L 566.73325 0 
L 0 0 
z
" style="fill: #ffffff"/>
  </g>
  <g id="axes_1">
   <g id="patch_2">
    <path d="M 43.78125 175.054 
L 559.53325 175.054 
L 559.53325 29.094 
L 43.78125 29.094 
z
" style="fill: #ffffff"/>
   </g>
   <g id="patch_3">
    <path d="M 43.78125 29.094 
L 77.712303 29.094 
L 77.712303 7.2 
L 43.78125 7.2 
z
" style="stroke: #000000; stroke-linejoin: miter"/>
   </g>
   <g id="patch_4">
    <path d="M 77.712303 29.094 
L 258.677916 29.094 
L 258.677916 7.2 
L 77.712303 7.2 
z
" style="fill: #ffffff; stroke: #000000; stroke-linejoin: miter"/>
   </g>
   <g id="patch_5">
    <path d="M 258.677916 29.094 
L 475.836653 29.094 
L 475.836653 7.2 
L 258.677916 7.2 
z
" style="stroke: #000000; stroke-linejoin: miter"/>
   </g>
   <g id="patch_6">
    <path d="M 475.836653 29.094 
L 559.53325 29.094 
L 559.53325 7.2 
L 475.836653 7.2 
z
" style="fill: #ffffff; stroke: #000000; stroke-linejoin: miter"/>
   </g>
   <g id="matplotlib.axis_1">
    <g id="xtick_1">
     <g id="line2d_1">
      <defs>
       <path id="m78f470812b" d="M 0 0 
L 0 3.5 
" style="stroke: #000000; stroke-width: 0.8"/>
      </defs>
      <g>
       <use xlink:href="#m78f470812b" x="70.926092" y="175.054" style="stroke: #000000; stroke-width: 0.8"/>
      </g>
     </g>
     <g id="text_1">
      <!-- 0 -->
      <g transform="translate(67.744842 189.652437) scale(0.1 -0.1)">
       <defs>
        <path id="DejaVuSans-30" d="M 2034 4250 
Q 1547 4250 1301 3770 
Q 1056 3291 1056 2328 
Q 1056 1369 1301 889 
Q 1547 409 2034 409 
Q 2525 409 2770 889 
Q 3016 1369 3016 2328 
Q 3016 3291 2770 3770 
Q 2525 4250 2034 4250 
z
M 2034 4750 
Q 2819 4750 3233 4129 
Q 3647 3509 3647 2328 
Q 3647 1150 3233 529 
Q 2819 -91 2034 -91 
Q 1250 -91 836 529 
Q 422 1150 422 2328 
Q 422 3509 836 4129 
Q 1250 4750 2034 4750 
z
" transform="scale(0.015625)"/>
       </defs>
       <use xlink:href="#DejaVuSans-30"/>
      </g>
     </g>
    </g>
    <g id="xtick_2">
     <g id="line2d_2">
      <g>
       <use xlink:href="#m78f470812b" x="260.939987" y="175.054" style="stroke: #000000; stroke-width: 0.8"/>
      </g>
     </g>
     <g id="text_2">
      <!-- 14 -->
      <g transform="translate(254.577487 189.652437) scale(0.1 -0.1)">
       <defs>
        <path id="DejaVuSans-31" d="M 794 531 
L 1825 531 
L 1825 4091 
L 703 3866 
L 703 4441 
L 1819 4666 
L 2450 4666 
L 2450 531 
L 3481 531 
L 3481 0 
L 794 0 
L 794 531 
z
" transform="scale(0.015625)"/>
        <path id="DejaVuSans-34" d="M 2419 4116 
L 825 1625 
L 2419 1625 
L 2419 4116 
z
M 2253 4666 
L 3047 4666 
L 3047 1625 
L 3713 1625 
L 3713 1100 
L 3047 1100 
L 3047 0 
L 2419 0 
L 2419 1100 
L 313 1100 
L 313 1709 
L 2253 4666 
z
" transform="scale(0.015625)"/>
       </defs>
       <use xlink:href="#DejaVuSans-31"/>
       <use xlink:href="#DejaVuSans-34" transform="translate(63.623047 0)"/>
      </g>
     </g>
    </g>
    <g id="xtick_3">
     <g id="line2d_3">
      <g>
       <use xlink:href="#m78f470812b" x="478.098724" y="175.054" style="stroke: #000000; stroke-width: 0.8"/>
      </g>
     </g>
     <g id="text_3">
      <!-- 30 -->
      <g transform="translate(471.736224 189.652437) scale(0.1 -0.1)">
       <defs>
        <path id="DejaVuSans-33" d="M 2597 2516 
Q 3050 2419 3304 2112 
Q 3559 1806 3559 1356 
Q 3559 666 3084 287 
Q 2609 -91 1734 -91 
Q 1441 -91 1130 -33 
Q 819 25 488 141 
L 488 750 
Q 750 597 1062 519 
Q 1375 441 1716 441 
Q 2309 441 2620 675 
Q 2931 909 2931 1356 
Q 2931 1769 2642 2001 
Q 2353 2234 1838 2234 
L 1294 2234 
L 1294 2753 
L 1863 2753 
Q 2328 2753 2575 2939 
Q 2822 3125 2822 3475 
Q 2822 3834 2567 4026 
Q 2313 4219 1838 4219 
Q 1578 4219 1281 4162 
Q 984 4106 628 3988 
L 628 4550 
Q 988 4650 1302 4700 
Q 1616 4750 1894 4750 
Q 2613 4750 3031 4423 
Q 3450 4097 3450 3541 
Q 3450 3153 3228 2886 
Q 3006 2619 2597 2516 
z
" transform="scale(0.015625)"/>
       </defs>
       <use xlink:href="#DejaVuSans-33"/>
       <use xlink:href="#DejaVuSans-30" transform="translate(63.623047 0)"/>
      </g>
     </g>
    </g>
    <g id="xtick_4">
     <g id="line2d_4">
      <g>
       <use xlink:href="#m78f470812b" x="545.960829" y="175.054" style="stroke: #000000; stroke-width: 0.8"/>
      </g>
     </g>
     <g id="text_4">
      <!-- 35 -->
      <g transform="translate(539.598329 189.652437) scale(0.1 -0.1)">
       <defs>
        <path id="DejaVuSans-35" d="M 691 4666 
L 3169 4666 
L 3169 4134 
L 1269 4134 
L 1269 2991 
Q 1406 3038 1543 3061 
Q 1681 3084 1819 3084 
Q 2600 3084 3056 2656 
Q 3513 2228 3513 1497 
Q 3513 744 3044 326 
Q 2575 -91 1722 -91 
Q 1428 -91 1123 -41 
Q 819 9 494 109 
L 494 744 
Q 775 591 1075 516 
Q 1375 441 1709 441 
Q 2250 441 2565 725 
Q 2881 1009 2881 1497 
Q 2881 1984 2565 2268 
Q 2250 2553 1709 2553 
Q 1456 2553 1204 2497 
Q 953 2441 691 2322 
L 691 4666 
z
" transform="scale(0.015625)"/>
       </defs>
       <use xlink:href="#DejaVuSans-33"/>
       <use xlink:href="#DejaVuSans-35" transform="translate(63.623047 0)"/>
      </g>
     </g>
    </g>
    <g id="text_5">
     <!-- Time (min) -->
     <g transform="translate(274.504906 203.330562) scale(0.1 -0.1)">
      <defs>
       <path id="DejaVuSans-54" d="M -19 4666 
L 3928 4666 
L 3928 4134 
L 2272 4134 
L 2272 0 
L 1638 0 
L 1638 4134 
L -19 4134 
L -19 4666 
z
" transform="scale(0.015625)"/>
       <path id="DejaVuSans-69" d="M 603 3500 
L 1178 3500 
L 1178 0 
L 603 0 
L 603 3500 
z
M 603 4863 
L 1178 4863 
L 1178 4134 
L 603 4134 
L 603 4863 
z
" transform="scale(0.015625)"/>
       <path id="DejaVuSans-6d" d="M 3328 2828 
Q 3544 3216 3844 3400 
Q 4144 3584 4550 3584 
Q 5097 3584 5394 3201 
Q 5691 2819 5691 2113 
L 5691 0 
L 5113 0 
L 5113 2094 
Q 5113 2597 4934 2840 
Q 4756 3084 4391 3084 
Q 3944 3084 3684 2787 
Q 3425 2491 3425 1978 
L 3425 0 
L 2847 0 
L 2847 2094 
Q 2847 2600 2669 2842 
Q 2491 3084 2119 3084 
Q 1678 3084 1418 2786 
Q 1159 2488 1159 1978 
L 1159 0 
L 581 0 
L 581 3500 
L 1159 3500 
L 1159 2956 
Q 1356 3278 1631 3431 
Q 1906 3584 2284 3584 
Q 2666 3584 2933 3390 
Q 3200 3197 3328 2828 
z
" transform="scale(0.015625)"/>
       <path id="DejaVuSans-65" d="M 3597 1894 
L 3597 1613 
L 953 1613 
Q 991 1019 1311 708 
Q 1631 397 2203 397 
Q 2534 397 2845 478 
Q 3156 559 3463 722 
L 3463 178 
Q 3153 47 2828 -22 
Q 2503 -91 2169 -91 
Q 1331 -91 842 396 
Q 353 884 353 1716 
Q 353 2575 817 3079 
Q 1281 3584 2069 3584 
Q 2775 3584 3186 3129 
Q 3597 2675 3597 1894 
z
M 3022 2063 
Q 3016 2534 2758 2815 
Q 2500 3097 2075 3097 
Q 1594 3097 1305 2825 
Q 1016 2553 972 2059 
L 3022 2063 
z
" transform="scale(0.015625)"/>
       <path id="DejaVuSans-20" transform="scale(0.015625)"/>
       <path id="DejaVuSans-28" d="M 1984 4856 
Q 1566 4138 1362 3434 
Q 1159 2731 1159 2009 
Q 1159 1288 1364 580 
Q 1569 -128 1984 -844 
L 1484 -844 
Q 1016 -109 783 600 
Q 550 1309 550 2009 
Q 550 2706 781 3412 
Q 1013 4119 1484 4856 
L 1984 4856 
z
" transform="scale(0.015625)"/>
       <path id="DejaVuSans-6e" d="M 3513 2113 
L 3513 0 
L 2938 0 
L 2938 2094 
Q 2938 2591 2744 2837 
Q 2550 3084 2163 3084 
Q 1697 3084 1428 2787 
Q 1159 2491 1159 1978 
L 1159 0 
L 581 0 
L 581 3500 
L 1159 3500 
L 1159 2956 
Q 1366 3272 1645 3428 
Q 1925 3584 2291 3584 
Q 2894 3584 3203 3211 
Q 3513 2838 3513 2113 
z
" transform="scale(0.015625)"/>
       <path id="DejaVuSans-29" d="M 513 4856 
L 1013 4856 
Q 1481 4119 1714 3412 
Q 1947 2706 1947 2009 
Q 1947 1309 1714 600 
Q 1481 -109 1013 -844 
L 513 -844 
Q 928 -128 1133 580 
Q 1338 1288 1338 2009 
Q 1338 2731 1133 3434 
Q 928 4138 513 4856 
z
" transform="scale(0.015625)"/>
      </defs>
      <use xlink:href="#DejaVuSans-54"/>
      <use xlink:href="#DejaVuSans-69" transform="translate(57.958984 0)"/>
      <use xlink:href="#DejaVuSans-6d" transform="translate(85.742188 0)"/>
      <use xlink:href="#DejaVuSans-65" transform="translate(183.154297 0)"/>
      <use xlink:href="#DejaVuSans-20" transform="translate(244.677734 0)"/>
      <use xlink:href="#DejaVuSans-28" transform="translate(276.464844 0)"/>
      <use xlink:href="#DejaVuSans-6d" transform="translate(315.478516 0)"/>
      <use xlink:href="#DejaVuSans-69" transform="translate(412.890625 0)"/>
      <use xlink:href="#DejaVuSans-6e" transform="translate(440.673828 0)"/>
      <use xlink:href="#DejaVuSans-29" transform="translate(504.052734 0)"/>
     </g>
    </g>
   </g>
   <g id="matplotlib.axis_2">
    <g id="ytick_1">
     <g id="line2d_5">
      <defs>
       <path id="m7c4ebeece9" d="M 0 0 
L -3.5 0 
" style="stroke: #000000; stroke-width: 0.8"/>
      </defs>
      <g>
       <use xlink:href="#m7c4ebeece9" x="43.78125" y="175.054" style="stroke: #000000; stroke-width: 0.8"/>
      </g>
     </g>
     <g id="text_6">
      <!-- 0.0 -->
      <g transform="translate(20.878125 178.853219) scale(0.1 -0.1)">
       <defs>
        <path id="DejaVuSans-2e" d="M 684 794 
L 1344 794 
L 1344 0 
L 684 0 
L 684 794 
z
" transform="scale(0.015625)"/>
       </defs>
       <use xlink:href="#DejaVuSans-30"/>
       <use xlink:href="#DejaVuSans-2e" transform="translate(63.623047 0)"/>
       <use xlink:href="#DejaVuSans-30" transform="translate(95.410156 0)"/>
      </g>
     </g>
    </g>
    <g id="ytick_2">
     <g id="line2d_6">
      <g>
       <use xlink:href="#m7c4ebeece9" x="43.78125" y="145.862" style="stroke: #000000; stroke-width: 0.8"/>
      </g>
     </g>
     <g id="text_7">
      <!-- 0.2 -->
      <g transform="translate(20.878125 149.661219) scale(0.1 -0.1)">
       <defs>
        <path id="DejaVuSans-32" d="M 1228 531 
L 3431 531 
L 3431 0 
L 469 0 
L 469 531 
Q 828 903 1448 1529 
Q 2069 2156 2228 2338 
Q 2531 2678 2651 2914 
Q 2772 3150 2772 3378 
Q 2772 3750 2511 3984 
Q 2250 4219 1831 4219 
Q 1534 4219 1204 4116 
Q 875 4013 500 3803 
L 500 4441 
Q 881 4594 1212 4672 
Q 1544 4750 1819 4750 
Q 2544 4750 2975 4387 
Q 3406 4025 3406 3419 
Q 3406 3131 3298 2873 
Q 3191 2616 2906 2266 
Q 2828 2175 2409 1742 
Q 1991 1309 1228 531 
z
" transform="scale(0.015625)"/>
       </defs>
       <use xlink:href="#DejaVuSans-30"/>
       <use xlink:href="#DejaVuSans-2e" transform="translate(63.623047 0)"/>
       <use xlink:href="#DejaVuSans-32" transform="translate(95.410156 0)"/>
      </g>
     </g>
    </g>
    <g id="ytick_3">
     <g id="line2d_7">
      <g>
       <use xlink:href="#m7c4ebeece9" x="43.78125" y="116.67" style="stroke: #000000; stroke-width: 0.8"/>
      </g>
     </g>
     <g id="text_8">
      <!-- 0.4 -->
      <g transform="translate(20.878125 120.469219) scale(0.1 -0.1)">
       <use xlink:href="#DejaVuSans-30"/>
       <use xlink:href="#DejaVuSans-2e" transform="translate(63.623047 0)"/>
       <use xlink:href="#DejaVuSans-34" transform="translate(95.410156 0)"/>
      </g>
     </g>
    </g>
    <g id="ytick_4">
     <g id="line2d_8">
      <g>
       <use xlink:href="#m7c4ebeece9" x="43.78125" y="87.478" style="stroke: #000000; stroke-width: 0.8"/>
      </g>
     </g>
     <g id="text_9">
      <!-- 0.6 -->
      <g transform="translate(20.878125 91.277219) scale(0.1 -0.1)">
       <defs>
        <path id="DejaVuSans-36" d="M 2113 2584 
Q 1688 2584 1439 2293 
Q 1191 2003 1191 1497 
Q 1191 994 1439 701 
Q 1688 409 2113 409 
Q 2538 409 2786 701 
Q 3034 994 3034 1497 
Q 3034 2003 2786 2293 
Q 2538 2584 2113 2584 
z
M 3366 4563 
L 3366 3988 
Q 3128 4100 2886 4159 
Q 2644 4219 2406 4219 
Q 1781 4219 1451 3797 
Q 1122 3375 1075 2522 
Q 1259 2794 1537 2939 
Q 1816 3084 2150 3084 
Q 2853 3084 3261 2657 
Q 3669 2231 3669 1497 
Q 3669 778 3244 343 
Q 2819 -91 2113 -91 
Q 1303 -91 875 529 
Q 447 1150 447 2328 
Q 447 3434 972 4092 
Q 1497 4750 2381 4750 
Q 2619 4750 2861 4703 
Q 3103 4656 3366 4563 
z
" transform="scale(0.015625)"/>
       </defs>
       <use xlink:href="#DejaVuSans-30"/>
       <use xlink:href="#DejaVuSans-2e" transform="translate(63.623047 0)"/>
       <use xlink:href="#DejaVuSans-36" transform="translate(95.410156 0)"/>
      </g>
     </g>
    </g>
    <g id="ytick_5">
     <g id="line2d_9">
      <g>
       <use xlink:href="#m7c4ebeece9" x="43.78125" y="58.286" style="stroke: #000000; stroke-width: 0.8"/>
      </g>
     </g>
     <g id="text_10">
      <!-- 0.8 -->
      <g transform="translate(20.878125 62.085219) scale(0.1 -0.1)">
       <defs>
        <path id="DejaVuSans-38" d="M 2034 2216 
Q 1584 2216 1326 1975 
Q 1069 1734 1069 1313 
Q 1069 891 1326 650 
Q 1584 409 2034 409 
Q 2484 409 2743 651 
Q 3003 894 3003 1313 
Q 3003 1734 2745 1975 
Q 2488 2216 2034 2216 
z
M 1403 2484 
Q 997 2584 770 2862 
Q 544 3141 544 3541 
Q 544 4100 942 4425 
Q 1341 4750 2034 4750 
Q 2731 4750 3128 4425 
Q 3525 4100 3525 3541 
Q 3525 3141 3298 2862 
Q 3072 2584 2669 2484 
Q 3125 2378 3379 2068 
Q 3634 1759 3634 1313 
Q 3634 634 3220 271 
Q 2806 -91 2034 -91 
Q 1263 -91 848 271 
Q 434 634 434 1313 
Q 434 1759 690 2068 
Q 947 2378 1403 2484 
z
M 1172 3481 
Q 1172 3119 1398 2916 
Q 1625 2713 2034 2713 
Q 2441 2713 2670 2916 
Q 2900 3119 2900 3481 
Q 2900 3844 2670 4047 
Q 2441 4250 2034 4250 
Q 1625 4250 1398 4047 
Q 1172 3844 1172 3481 
z
" transform="scale(0.015625)"/>
       </defs>
       <use xlink:href="#DejaVuSans-30"/>
       <use xlink:href="#DejaVuSans-2e" transform="translate(63.623047 0)"/>
       <use xlink:href="#DejaVuSans-38" transform="translate(95.410156 0)"/>
      </g>
     </g>
    </g>
    <g id="ytick_6">
     <g id="line2d_10">
      <g>
       <use xlink:href="#m7c4ebeece9" x="43.78125" y="29.094" style="stroke: #000000; stroke-width: 0.8"/>
      </g>
     </g>
     <g id="text_11">
      <!-- 1.0 -->
      <g transform="translate(20.878125 32.893219) scale(0.1 -0.1)">
       <use xlink:href="#DejaVuSans-31"/>
       <use xlink:href="#DejaVuSans-2e" transform="translate(63.623047 0)"/>
       <use xlink:href="#DejaVuSans-30" transform="translate(95.410156 0)"/>
      </g>
     </g>
    </g>
    <g id="text_12">
     <!-- Fluorescence (a.u.) -->
     <g transform="translate(14.798438 149.913062) rotate(-90) scale(0.1 -0.1)">
      <defs>
       <path id="DejaVuSans-46" d="M 628 4666 
L 3309 4666 
L 3309 4134 
L 1259 4134 
L 1259 2759 
L 3109 2759 
L 3109 2228 
L 1259 2228 
L 1259 0 
L 628 0 
L 628 4666 
z
" transform="scale(0.015625)"/>
       <path id="DejaVuSans-6c" d="M 603 4863 
L 1178 4863 
L 1178 0 
L 603 0 
L 603 4863 
z
" transform="scale(0.015625)"/>
       <path id="DejaVuSans-75" d="M 544 1381 
L 544 3500 
L 1119 3500 
L 1119 1403 
Q 1119 906 1312 657 
Q 1506 409 1894 409 
Q 2359 409 2629 706 
Q 2900 1003 2900 1516 
L 2900 3500 
L 3475 3500 
L 3475 0 
L 2900 0 
L 2900 538 
Q 2691 219 2414 64 
Q 2138 -91 1772 -91 
Q 1169 -91 856 284 
Q 544 659 544 1381 
z
M 1991 3584 
L 1991 3584 
z
" transform="scale(0.015625)"/>
       <path id="DejaVuSans-6f" d="M 1959 3097 
Q 1497 3097 1228 2736 
Q 959 2375 959 1747 
Q 959 1119 1226 758 
Q 1494 397 1959 397 
Q 2419 397 2687 759 
Q 2956 1122 2956 1747 
Q 2956 2369 2687 2733 
Q 2419 3097 1959 3097 
z
M 1959 3584 
Q 2709 3584 3137 3096 
Q 3566 2609 3566 1747 
Q 3566 888 3137 398 
Q 2709 -91 1959 -91 
Q 1206 -91 779 398 
Q 353 888 353 1747 
Q 353 2609 779 3096 
Q 1206 3584 1959 3584 
z
" transform="scale(0.015625)"/>
       <path id="DejaVuSans-72" d="M 2631 2963 
Q 2534 3019 2420 3045 
Q 2306 3072 2169 3072 
Q 1681 3072 1420 2755 
Q 1159 2438 1159 1844 
L 1159 0 
L 581 0 
L 581 3500 
L 1159 3500 
L 1159 2956 
Q 1341 3275 1631 3429 
Q 1922 3584 2338 3584 
Q 2397 3584 2469 3576 
Q 2541 3569 2628 3553 
L 2631 2963 
z
" transform="scale(0.015625)"/>
       <path id="DejaVuSans-73" d="M 2834 3397 
L 2834 2853 
Q 2591 2978 2328 3040 
Q 2066 3103 1784 3103 
Q 1356 3103 1142 2972 
Q 928 2841 928 2578 
Q 928 2378 1081 2264 
Q 1234 2150 1697 2047 
L 1894 2003 
Q 2506 1872 2764 1633 
Q 3022 1394 3022 966 
Q 3022 478 2636 193 
Q 2250 -91 1575 -91 
Q 1294 -91 989 -36 
Q 684 19 347 128 
L 347 722 
Q 666 556 975 473 
Q 1284 391 1588 391 
Q 1994 391 2212 530 
Q 2431 669 2431 922 
Q 2431 1156 2273 1281 
Q 2116 1406 1581 1522 
L 1381 1569 
Q 847 1681 609 1914 
Q 372 2147 372 2553 
Q 372 3047 722 3315 
Q 1072 3584 1716 3584 
Q 2034 3584 2315 3537 
Q 2597 3491 2834 3397 
z
" transform="scale(0.015625)"/>
       <path id="DejaVuSans-63" d="M 3122 3366 
L 3122 2828 
Q 2878 2963 2633 3030 
Q 2388 3097 2138 3097 
Q 1578 3097 1268 2742 
Q 959 2388 959 1747 
Q 959 1106 1268 751 
Q 1578 397 2138 397 
Q 2388 397 2633 464 
Q 2878 531 3122 666 
L 3122 134 
Q 2881 22 2623 -34 
Q 2366 -91 2075 -91 
Q 1284 -91 818 406 
Q 353 903 353 1747 
Q 353 2603 823 3093 
Q 1294 3584 2113 3584 
Q 2378 3584 2631 3529 
Q 2884 3475 3122 3366 
z
" transform="scale(0.015625)"/>
       <path id="DejaVuSans-61" d="M 2194 1759 
Q 1497 1759 1228 1600 
Q 959 1441 959 1056 
Q 959 750 1161 570 
Q 1363 391 1709 391 
Q 2188 391 2477 730 
Q 2766 1069 2766 1631 
L 2766 1759 
L 2194 1759 
z
M 3341 1997 
L 3341 0 
L 2766 0 
L 2766 531 
Q 2569 213 2275 61 
Q 1981 -91 1556 -91 
Q 1019 -91 701 211 
Q 384 513 384 1019 
Q 384 1609 779 1909 
Q 1175 2209 1959 2209 
L 2766 2209 
L 2766 2266 
Q 2766 2663 2505 2880 
Q 2244 3097 1772 3097 
Q 1472 3097 1187 3025 
Q 903 2953 641 2809 
L 641 3341 
Q 956 3463 1253 3523 
Q 1550 3584 1831 3584 
Q 2591 3584 2966 3190 
Q 3341 2797 3341 1997 
z
" transform="scale(0.015625)"/>
      </defs>
      <use xlink:href="#DejaVuSans-46"/>
      <use xlink:href="#DejaVuSans-6c" transform="translate(57.519531 0)"/>
      <use xlink:href="#DejaVuSans-75" transform="translate(85.302734 0)"/>
      <use xlink:href="#DejaVuSans-6f" transform="translate(148.681641 0)"/>
      <use xlink:href="#DejaVuSans-72" transform="translate(209.863281 0)"/>
      <use xlink:href="#DejaVuSans-65" transform="translate(248.726562 0)"/>
      <use xlink:href="#DejaVuSans-73" transform="translate(310.25 0)"/>
      <use xlink:href="#DejaVuSans-63" transform="translate(362.349609 0)"/>
      <use xlink:href="#DejaVuSans-65" transform="translate(417.330078 0)"/>
      <use xlink:href="#DejaVuSans-6e" transform="translate(478.853516 0)"/>
      <use xlink:href="#DejaVuSans-63" transform="translate(542.232422 0)"/>
      <use xlink:href="#DejaVuSans-65" transform="translate(597.212891 0)"/>
      <use xlink:href="#DejaVuSans-20" transform="translate(658.736328 0)"/>
      <use xlink:href="#DejaVuSans-28" transform="translate(690.523438 0)"/>
      <use xlink:href="#DejaVuSans-61" transform="translate(729.537109 0)"/>
      <use xlink:href="#DejaVuSans-2e" transform="translate(790.816406 0)"/>
      <use xlink:href="#DejaVuSans-75" transform="translate(822.603516 0)"/>
      <use xlink:href="#DejaVuSans-2e" transform="translate(885.982422 0)"/>
      <use xlink:href="#DejaVuSans-29" transform="translate(917.769531 0)"/>
     </g>
    </g>
   </g>
   <g id="line2d_11">
    <path d="M 70.926092 91.020744 
L 70.954866 29.094 
L 71.040643 29.723603 
L 71.107058 30.248007 
L 71.225952 94.351318 
L 71.516583 116.072785 
L 71.866661 127.149106 
L 72.276186 133.594359 
L 72.745158 137.666051 
L 73.266973 140.356622 
L 73.841629 142.2148 
L 74.475733 143.547804 
L 75.182494 144.532763 
L 75.988334 145.279478 
L 76.939489 145.855719 
L 77.712303 146.173136 
L 77.740533 30.731375 
L 77.823596 31.360608 
L 77.893268 31.929174 
L 78.012163 55.163164 
L 80.013552 73.365235 
L 81.367627 83.637847 
L 82.649045 91.718512 
L 83.923857 98.376009 
L 84.498513 100.990328 
L 84.519324 78.940822 
L 84.609807 79.353211 
L 84.679479 79.681857 
L 84.801902 102.284316 
L 86.10404 107.237518 
L 87.439566 111.458635 
L 88.808481 115.064434 
L 90.233042 118.199409 
L 91.71325 120.925368 
L 93.260235 123.313042 
L 94.885125 125.416234 
L 95.808864 126.459405 
L 95.832209 108.121483 
L 95.920158 108.2294 
L 95.98983 108.317692 
L 96.115058 126.783811 
L 97.915213 128.501798 
L 99.85625 130.047853 
L 101.969476 131.445296 
L 104.286198 132.708592 
L 106.853376 133.853133 
L 109.749279 134.896743 
L 111.643355 135.467588 
L 111.670138 118.984461 
L 111.754649 119.012198 
L 111.824321 119.035873 
L 111.945387 135.551687 
L 115.577367 136.436629 
L 119.814677 137.234609 
L 124.859093 137.952056 
L 131.013281 138.594741 
L 132.001987 138.680289 
L 132.032208 122.90751 
L 132.113281 122.915582 
L 132.182952 122.92279 
L 132.306461 138.705826 
L 140.35925 139.264153 
L 150.857518 139.757619 
L 156.884759 139.965569 
L 156.917875 124.513566 
L 156.996053 124.516566 
L 157.065724 124.519352 
L 157.182628 139.97481 
L 173.870644 140.378182 
L 186.291671 140.580094 
L 186.32714 125.325565 
L 186.402965 125.326958 
L 186.472636 125.328295 
L 186.607637 140.584506 
L 217.016465 140.894794 
L 220.222723 140.918035 
L 220.260183 125.798072 
L 220.334017 125.798793 
L 220.403689 125.799505 
L 220.518512 140.92013 
L 258.677916 141.11742 
L 258.717367 126.086487 
L 258.78921 126.086875 
L 258.858882 126.087269 
L 258.971171 143.744304 
L 259.294828 147.610366 
L 259.671327 149.663874 
L 260.107273 150.889999 
L 260.609272 151.664817 
L 261.197139 152.171502 
L 261.936926 152.509697 
L 262.934318 152.707615 
L 264.387472 152.751111 
L 265.464127 152.693125 
L 265.519321 117.909738 
L 265.575602 117.948933 
L 265.645093 118.004795 
L 265.767516 140.17692 
L 266.090268 144.924435 
L 266.468667 147.486049 
L 266.902713 149.017941 
L 267.403535 150.006745 
L 267.982263 150.666016 
L 268.672285 151.115817 
L 269.562636 151.421716 
L 270.786869 151.59208 
L 272.612088 151.60169 
L 275.761704 151.365946 
L 276.774478 151.265342 
L 276.823158 104.246028 
L 276.885953 104.390747 
L 276.955443 104.573436 
L 277.080672 134.260606 
L 277.409396 140.785056 
L 277.78508 144.207419 
L 278.223379 146.305689 
L 278.724292 147.662754 
L 279.287819 148.570391 
L 279.945267 149.212004 
L 280.743597 149.673688 
L 281.761076 149.995907 
L 283.15424 150.191197 
L 285.236159 150.239648 
L 288.946044 150.070075 
L 292.608969 149.825109 
L 292.653668 87.469233 
L 292.720263 87.800571 
L 292.789935 88.197099 
L 292.911001 126.999791 
L 293.233843 135.821108 
L 293.617219 140.576281 
L 294.061128 143.433014 
L 294.565569 145.270235 
L 295.130544 146.505187 
L 295.756052 147.358643 
L 296.502625 147.998731 
L 297.41062 148.472791 
L 298.580925 148.817664 
L 300.17496 149.040057 
L 302.576103 149.130773 
L 307.075722 149.040267 
L 312.967601 148.833231 
L 313.009766 72.578887 
L 313.078895 73.126938 
L 313.148566 73.763395 
L 313.272075 120.814624 
L 313.593199 131.744614 
L 313.963726 137.497161 
L 314.408358 141.093478 
L 314.902395 143.356184 
L 315.445834 144.869546 
L 316.063379 145.95729 
L 316.75503 146.742122 
L 317.57019 147.337083 
L 318.582964 147.795235 
L 319.892159 148.134013 
L 321.720093 148.363211 
L 324.585503 148.474349 
L 330.489234 148.433112 
L 337.850373 148.31824 
L 337.890547 63.170732 
L 337.961666 63.879899 
L 338.031338 64.689542 
L 338.162357 117.04415 
L 338.555415 130.965626 
L 338.948472 136.84591 
L 339.472548 140.834277 
L 339.996625 143.045651 
L 340.520701 144.430718 
L 341.175797 145.551736 
L 341.961911 146.405535 
L 342.879045 147.029232 
L 343.927198 147.469011 
L 345.368408 147.815839 
L 347.333695 148.045908 
L 350.609172 148.172159 
L 357.946242 148.166599 
L 398.955222 147.997754 
L 469.050443 147.953317 
L 469.07614 54.039835 
L 469.161737 55.08613 
L 469.231408 56.054559 
L 469.350303 109.682521 
L 469.654144 125.176129 
L 470.017433 133.232272 
L 470.440168 137.979202 
L 470.915746 140.972109 
L 471.450771 142.995022 
L 472.045243 144.408561 
L 472.712372 145.4352 
L 473.471976 146.199977 
L 474.370289 146.785964 
L 475.486575 147.239896 
L 475.836653 147.341954 
L 475.86235 56.144258 
L 475.947947 57.140392 
L 476.017619 58.063904 
L 476.136513 83.522323 
L 477.048037 92.462694 
L 478.005798 99.736284 
L 479.0164 105.762069 
L 480.079845 110.796498 
L 481.196131 115.033415 
L 482.365259 118.621589 
L 482.622864 119.318241 
L 482.644037 100.798788 
L 482.734158 101.063577 
L 482.803829 101.274234 
L 482.926253 120.100923 
L 484.183873 122.96367 
L 485.50827 125.435879 
L 486.910573 127.588696 
L 488.40191 129.473831 
L 489.993412 131.129775 
L 491.718467 132.603151 
L 493.599333 133.914621 
L 493.933215 134.120757 
L 493.958007 118.211384 
L 494.044509 118.270642 
L 494.11418 118.319915 
L 494.239409 134.303528 
L 496.383942 135.43331 
L 498.778931 136.439984 
L 501.502644 137.338764 
L 504.63335 138.132773 
L 508.311928 138.830226 
L 509.767706 139.052878 
L 509.79666 123.961858 
L 509.879 123.974671 
L 509.948672 123.985906 
L 510.069738 139.095917 
L 514.872022 139.659316 
L 520.884966 140.131026 
L 528.754256 140.51354 
L 530.126337 140.562329 
L 530.160178 125.599111 
L 530.237631 125.601674 
L 530.307303 125.604068 
L 530.427826 140.572519 
L 542.225698 140.8566 
L 559.578491 141.05738 
L 559.578491 141.05738 
" clip-path="url(#p5de16dd0e5)" style="fill: none; stroke: #fa0100; stroke-width: 1.5; stroke-linecap: square"/>
   </g>
   <g id="LineCollection_1">
    <path d="M 70.926092 29.094 
L 70.926092 29.094 
" clip-path="url(#p5de16dd0e5)" style="fill: none; stroke: #000000; stroke-width: 0.5"/>
    <path d="M 77.561498 31.252579 
L 77.561498 30.010765 
" clip-path="url(#p5de16dd0e5)" style="fill: none; stroke: #000000; stroke-width: 0.5"/>
    <path d="M 84.498513 90.345738 
L 84.498513 88.13121 
" clip-path="url(#p5de16dd0e5)" style="fill: none; stroke: #000000; stroke-width: 0.5"/>
    <path d="M 95.884266 123.1147 
L 95.884266 113.913764 
" clip-path="url(#p5de16dd0e5)" style="fill: none; stroke: #000000; stroke-width: 0.5"/>
    <path d="M 111.869562 128.077492 
L 111.869562 117.185063 
" clip-path="url(#p5de16dd0e5)" style="fill: none; stroke: #000000; stroke-width: 0.5"/>
    <path d="M 132.529803 129.837466 
L 132.529803 117.497104 
" clip-path="url(#p5de16dd0e5)" style="fill: none; stroke: #000000; stroke-width: 0.5"/>
    <path d="M 157.789587 130.515923 
L 157.789587 117.531093 
" clip-path="url(#p5de16dd0e5)" style="fill: none; stroke: #000000; stroke-width: 0.5"/>
    <path d="M 187.648913 131.083887 
L 187.648913 117.869066 
" clip-path="url(#p5de16dd0e5)" style="fill: none; stroke: #000000; stroke-width: 0.5"/>
    <path d="M 222.107782 130.719106 
L 222.107782 118.338648 
" clip-path="url(#p5de16dd0e5)" style="fill: none; stroke: #000000; stroke-width: 0.5"/>
    <path d="M 261.166194 130.408397 
L 261.166194 118.355918 
" clip-path="url(#p5de16dd0e5)" style="fill: none; stroke: #000000; stroke-width: 0.5"/>
    <path d="M 267.952404 126.682246 
L 267.952404 116.089308 
" clip-path="url(#p5de16dd0e5)" style="fill: none; stroke: #000000; stroke-width: 0.5"/>
    <path d="M 279.262755 117.228269 
L 279.262755 106.873139 
" clip-path="url(#p5de16dd0e5)" style="fill: none; stroke: #000000; stroke-width: 0.5"/>
    <path d="M 295.097246 103.182442 
L 295.097246 91.925372 
" clip-path="url(#p5de16dd0e5)" style="fill: none; stroke: #000000; stroke-width: 0.5"/>
    <path d="M 315.53128 87.252189 
L 315.53128 75.265079 
" clip-path="url(#p5de16dd0e5)" style="fill: none; stroke: #000000; stroke-width: 0.5"/>
    <path d="M 340.489455 73.008621 
L 340.489455 64.328477 
" clip-path="url(#p5de16dd0e5)" style="fill: none; stroke: #000000; stroke-width: 0.5"/>
    <path d="M 469.653662 55.287958 
L 469.653662 45.511074 
" clip-path="url(#p5de16dd0e5)" style="fill: none; stroke: #000000; stroke-width: 0.5"/>
    <path d="M 476.439872 56.155357 
L 476.439872 45.901809 
" clip-path="url(#p5de16dd0e5)" style="fill: none; stroke: #000000; stroke-width: 0.5"/>
    <path d="M 483.376887 121.438434 
L 483.376887 110.045605 
" clip-path="url(#p5de16dd0e5)" style="fill: none; stroke: #000000; stroke-width: 0.5"/>
    <path d="M 494.762641 127.89906 
L 494.762641 115.794681 
" clip-path="url(#p5de16dd0e5)" style="fill: none; stroke: #000000; stroke-width: 0.5"/>
    <path d="M 510.898741 127.856138 
L 510.898741 117.565899 
" clip-path="url(#p5de16dd0e5)" style="fill: none; stroke: #000000; stroke-width: 0.5"/>
    <path d="M 531.48358 125.020773 
L 531.48358 118.450677 
" clip-path="url(#p5de16dd0e5)" style="fill: none; stroke: #000000; stroke-width: 0.5"/>
    <path d="M 556.743363 122.821423 
L 556.743363 118.805986 
" clip-path="url(#p5de16dd0e5)" style="fill: none; stroke: #000000; stroke-width: 0.5"/>
   </g>
   <g id="line2d_12">
    <defs>
     <path id="ma9ac1a4d28" d="M 2.5 0 
L -2.5 -0 
" style="stroke: #000000"/>
    </defs>
    <g clip-path="url(#p5de16dd0e5)">
     <use xlink:href="#ma9ac1a4d28" x="70.926092" y="29.094" style="stroke: #000000"/>
     <use xlink:href="#ma9ac1a4d28" x="77.561498" y="31.252579" style="stroke: #000000"/>
     <use xlink:href="#ma9ac1a4d28" x="84.498513" y="90.345738" style="stroke: #000000"/>
     <use xlink:href="#ma9ac1a4d28" x="95.884266" y="123.1147" style="stroke: #000000"/>
     <use xlink:href="#ma9ac1a4d28" x="111.869562" y="128.077492" style="stroke: #000000"/>
     <use xlink:href="#ma9ac1a4d28" x="132.529803" y="129.837466" style="stroke: #000000"/>
     <use xlink:href="#ma9ac1a4d28" x="157.789587" y="130.515923" style="stroke: #000000"/>
     <use xlink:href="#ma9ac1a4d28" x="187.648913" y="131.083887" style="stroke: #000000"/>
     <use xlink:href="#ma9ac1a4d28" x="222.107782" y="130.719106" style="stroke: #000000"/>
     <use xlink:href="#ma9ac1a4d28" x="261.166194" y="130.408397" style="stroke: #000000"/>
     <use xlink:href="#ma9ac1a4d28" x="267.952404" y="126.682246" style="stroke: #000000"/>
     <use xlink:href="#ma9ac1a4d28" x="279.262755" y="117.228269" style="stroke: #000000"/>
     <use xlink:href="#ma9ac1a4d28" x="295.097246" y="103.182442" style="stroke: #000000"/>
     <use xlink:href="#ma9ac1a4d28" x="315.53128" y="87.252189" style="stroke: #000000"/>
     <use xlink:href="#ma9ac1a4d28" x="340.489455" y="73.008621" style="stroke: #000000"/>
     <use xlink:href="#ma9ac1a4d28" x="469.653662" y="55.287958" style="stroke: #000000"/>
     <use xlink:href="#ma9ac1a4d28" x="476.439872" y="56.155357" style="stroke: #000000"/>
     <use xlink:href="#ma9ac1a4d28" x="483.376887" y="121.438434" style="stroke: #000000"/>
     <use xlink:href="#ma9ac1a4d28" x="494.762641" y="127.89906" style="stroke: #000000"/>
     <use xlink:href="#ma9ac1a4d28" x="510.898741" y="127.856138" style="stroke: #000000"/>
     <use xlink:href="#ma9ac1a4d28" x="531.48358" y="125.020773" style="stroke: #000000"/>
     <use xlink:href="#ma9ac1a4d28" x="556.743363" y="122.821423" style="stroke: #000000"/>
    </g>
   </g>
   <g id="line2d_13">
    <g clip-path="url(#p5de16dd0e5)">
     <use xlink:href="#ma9ac1a4d28" x="70.926092" y="29.094" style="stroke: #000000"/>
     <use xlink:href="#ma9ac1a4d28" x="77.561498" y="30.010765" style="stroke: #000000"/>
     <use xlink:href="#ma9ac1a4d28" x="84.498513" y="88.13121" style="stroke: #000000"/>
     <use xlink:href="#ma9ac1a4d28" x="95.884266" y="113.913764" style="stroke: #000000"/>
     <use xlink:href="#ma9ac1a4d28" x="111.869562" y="117.185063" style="stroke: #000000"/>
     <use xlink:href="#ma9ac1a4d28" x="132.529803" y="117.497104" style="stroke: #000000"/>
     <use xlink:href="#ma9ac1a4d28" x="157.789587" y="117.531093" style="stroke: #000000"/>
     <use xlink:href="#ma9ac1a4d28" x="187.648913" y="117.869066" style="stroke: #000000"/>
     <use xlink:href="#ma9ac1a4d28" x="222.107782" y="118.338648" style="stroke: #000000"/>
     <use xlink:href="#ma9ac1a4d28" x="261.166194" y="118.355918" style="stroke: #000000"/>
     <use xlink:href="#ma9ac1a4d28" x="267.952404" y="116.089308" style="stroke: #000000"/>
     <use xlink:href="#ma9ac1a4d28" x="279.262755" y="106.873139" style="stroke: #000000"/>
     <use xlink:href="#ma9ac1a4d28" x="295.097246" y="91.925372" style="stroke: #000000"/>
     <use xlink:href="#ma9ac1a4d28" x="315.53128" y="75.265079" style="stroke: #000000"/>
     <use xlink:href="#ma9ac1a4d28" x="340.489455" y="64.328477" style="stroke: #000000"/>
     <use xlink:href="#ma9ac1a4d28" x="469.653662" y="45.511074" style="stroke: #000000"/>
     <use xlink:href="#ma9ac1a4d28" x="476.439872" y="45.901809" style="stroke: #000000"/>
     <use xlink:href="#ma9ac1a4d28" x="483.376887" y="110.045605" style="stroke: #000000"/>
     <use xlink:href="#ma9ac1a4d28" x="494.762641" y="115.794681" style="stroke: #000000"/>
     <use xlink:href="#ma9ac1a4d28" x="510.898741" y="117.565899" style="stroke: #000000"/>
     <use xlink:href="#ma9ac1a4d28" x="531.48358" y="118.450677" style="stroke: #000000"/>
     <use xlink:href="#ma9ac1a4d28" x="556.743363" y="118.805986" style="stroke: #000000"/>
    </g>
   </g>
   <g id="LineCollection_2">
    <path d="M 70.926092 151.340363 
L 70.926092 150.418861 
" clip-path="url(#p5de16dd0e5)" style="fill: none; stroke: #0071ad; stroke-width: 0.5"/>
    <path d="M 77.561498 137.970405 
L 77.561498 135.625769 
" clip-path="url(#p5de16dd0e5)" style="fill: none; stroke: #0071ad; stroke-width: 0.5"/>
    <path d="M 84.498513 103.236585 
L 84.498513 97.514257 
" clip-path="url(#p5de16dd0e5)" style="fill: none; stroke: #0071ad; stroke-width: 0.5"/>
    <path d="M 95.884266 133.398768 
L 95.884266 127.72575 
" clip-path="url(#p5de16dd0e5)" style="fill: none; stroke: #0071ad; stroke-width: 0.5"/>
    <path d="M 111.869562 138.682118 
L 111.869562 128.741281 
" clip-path="url(#p5de16dd0e5)" style="fill: none; stroke: #0071ad; stroke-width: 0.5"/>
    <path d="M 132.529803 141.182735 
L 132.529803 130.58155 
" clip-path="url(#p5de16dd0e5)" style="fill: none; stroke: #0071ad; stroke-width: 0.5"/>
    <path d="M 157.789587 141.976061 
L 157.789587 132.013412 
" clip-path="url(#p5de16dd0e5)" style="fill: none; stroke: #0071ad; stroke-width: 0.5"/>
    <path d="M 187.648913 143.02102 
L 187.648913 132.676983 
" clip-path="url(#p5de16dd0e5)" style="fill: none; stroke: #0071ad; stroke-width: 0.5"/>
    <path d="M 222.107782 143.957188 
L 222.107782 133.111027 
" clip-path="url(#p5de16dd0e5)" style="fill: none; stroke: #0071ad; stroke-width: 0.5"/>
    <path d="M 261.166194 144.279563 
L 261.166194 135.16834 
" clip-path="url(#p5de16dd0e5)" style="fill: none; stroke: #0071ad; stroke-width: 0.5"/>
    <path d="M 267.952404 148.075569 
L 267.952404 143.765015 
" clip-path="url(#p5de16dd0e5)" style="fill: none; stroke: #0071ad; stroke-width: 0.5"/>
    <path d="M 279.262755 148.671786 
L 279.262755 146.312023 
" clip-path="url(#p5de16dd0e5)" style="fill: none; stroke: #0071ad; stroke-width: 0.5"/>
    <path d="M 295.097246 148.335431 
L 295.097246 146.501351 
" clip-path="url(#p5de16dd0e5)" style="fill: none; stroke: #0071ad; stroke-width: 0.5"/>
    <path d="M 315.53128 147.521886 
L 315.53128 145.850784 
" clip-path="url(#p5de16dd0e5)" style="fill: none; stroke: #0071ad; stroke-width: 0.5"/>
    <path d="M 340.489455 147.537263 
L 340.489455 144.914558 
" clip-path="url(#p5de16dd0e5)" style="fill: none; stroke: #0071ad; stroke-width: 0.5"/>
    <path d="M 469.653662 146.879903 
L 469.653662 142.935227 
" clip-path="url(#p5de16dd0e5)" style="fill: none; stroke: #0071ad; stroke-width: 0.5"/>
    <path d="M 476.439872 143.702154 
L 476.439872 140.256533 
" clip-path="url(#p5de16dd0e5)" style="fill: none; stroke: #0071ad; stroke-width: 0.5"/>
    <path d="M 483.376887 138.183149 
L 483.376887 125.803728 
" clip-path="url(#p5de16dd0e5)" style="fill: none; stroke: #0071ad; stroke-width: 0.5"/>
    <path d="M 494.762641 140.361423 
L 494.762641 130.785608 
" clip-path="url(#p5de16dd0e5)" style="fill: none; stroke: #0071ad; stroke-width: 0.5"/>
    <path d="M 510.898741 143.579472 
L 510.898741 135.250918 
" clip-path="url(#p5de16dd0e5)" style="fill: none; stroke: #0071ad; stroke-width: 0.5"/>
    <path d="M 531.48358 143.437654 
L 531.48358 136.666203 
" clip-path="url(#p5de16dd0e5)" style="fill: none; stroke: #0071ad; stroke-width: 0.5"/>
    <path d="M 556.743363 143.220303 
L 556.743363 137.393841 
" clip-path="url(#p5de16dd0e5)" style="fill: none; stroke: #0071ad; stroke-width: 0.5"/>
   </g>
   <g id="line2d_14">
    <defs>
     <path id="mfcfd8739a4" d="M 2.5 0 
L -2.5 -0 
" style="stroke: #0071ad"/>
    </defs>
    <g clip-path="url(#p5de16dd0e5)">
     <use xlink:href="#mfcfd8739a4" x="70.926092" y="151.340363" style="fill: #0071ad; stroke: #0071ad"/>
     <use xlink:href="#mfcfd8739a4" x="77.561498" y="137.970405" style="fill: #0071ad; stroke: #0071ad"/>
     <use xlink:href="#mfcfd8739a4" x="84.498513" y="103.236585" style="fill: #0071ad; stroke: #0071ad"/>
     <use xlink:href="#mfcfd8739a4" x="95.884266" y="133.398768" style="fill: #0071ad; stroke: #0071ad"/>
     <use xlink:href="#mfcfd8739a4" x="111.869562" y="138.682118" style="fill: #0071ad; stroke: #0071ad"/>
     <use xlink:href="#mfcfd8739a4" x="132.529803" y="141.182735" style="fill: #0071ad; stroke: #0071ad"/>
     <use xlink:href="#mfcfd8739a4" x="157.789587" y="141.976061" style="fill: #0071ad; stroke: #0071ad"/>
     <use xlink:href="#mfcfd8739a4" x="187.648913" y="143.02102" style="fill: #0071ad; stroke: #0071ad"/>
     <use xlink:href="#mfcfd8739a4" x="222.107782" y="143.957188" style="fill: #0071ad; stroke: #0071ad"/>
     <use xlink:href="#mfcfd8739a4" x="261.166194" y="144.279563" style="fill: #0071ad; stroke: #0071ad"/>
     <use xlink:href="#mfcfd8739a4" x="267.952404" y="148.075569" style="fill: #0071ad; stroke: #0071ad"/>
     <use xlink:href="#mfcfd8739a4" x="279.262755" y="148.671786" style="fill: #0071ad; stroke: #0071ad"/>
     <use xlink:href="#mfcfd8739a4" x="295.097246" y="148.335431" style="fill: #0071ad; stroke: #0071ad"/>
     <use xlink:href="#mfcfd8739a4" x="315.53128" y="147.521886" style="fill: #0071ad; stroke: #0071ad"/>
     <use xlink:href="#mfcfd8739a4" x="340.489455" y="147.537263" style="fill: #0071ad; stroke: #0071ad"/>
     <use xlink:href="#mfcfd8739a4" x="469.653662" y="146.879903" style="fill: #0071ad; stroke: #0071ad"/>
     <use xlink:href="#mfcfd8739a4" x="476.439872" y="143.702154" style="fill: #0071ad; stroke: #0071ad"/>
     <use xlink:href="#mfcfd8739a4" x="483.376887" y="138.183149" style="fill: #0071ad; stroke: #0071ad"/>
     <use xlink:href="#mfcfd8739a4" x="494.762641" y="140.361423" style="fill: #0071ad; stroke: #0071ad"/>
     <use xlink:href="#mfcfd8739a4" x="510.898741" y="143.579472" style="fill: #0071ad; stroke: #0071ad"/>
     <use xlink:href="#mfcfd8739a4" x="531.48358" y="143.437654" style="fill: #0071ad; stroke: #0071ad"/>
     <use xlink:href="#mfcfd8739a4" x="556.743363" y="143.220303" style="fill: #0071ad; stroke: #0071ad"/>
    </g>
   </g>
   <g id="line2d_15">
    <g clip-path="url(#p5de16dd0e5)">
     <use xlink:href="#mfcfd8739a4" x="70.926092" y="150.418861" style="fill: #0071ad; stroke: #0071ad"/>
     <use xlink:href="#mfcfd8739a4" x="77.561498" y="135.625769" style="fill: #0071ad; stroke: #0071ad"/>
     <use xlink:href="#mfcfd8739a4" x="84.498513" y="97.514257" style="fill: #0071ad; stroke: #0071ad"/>
     <use xlink:href="#mfcfd8739a4" x="95.884266" y="127.72575" style="fill: #0071ad; stroke: #0071ad"/>
     <use xlink:href="#mfcfd8739a4" x="111.869562" y="128.741281" style="fill: #0071ad; stroke: #0071ad"/>
     <use xlink:href="#mfcfd8739a4" x="132.529803" y="130.58155" style="fill: #0071ad; stroke: #0071ad"/>
     <use xlink:href="#mfcfd8739a4" x="157.789587" y="132.013412" style="fill: #0071ad; stroke: #0071ad"/>
     <use xlink:href="#mfcfd8739a4" x="187.648913" y="132.676983" style="fill: #0071ad; stroke: #0071ad"/>
     <use xlink:href="#mfcfd8739a4" x="222.107782" y="133.111027" style="fill: #0071ad; stroke: #0071ad"/>
     <use xlink:href="#mfcfd8739a4" x="261.166194" y="135.16834" style="fill: #0071ad; stroke: #0071ad"/>
     <use xlink:href="#mfcfd8739a4" x="267.952404" y="143.765015" style="fill: #0071ad; stroke: #0071ad"/>
     <use xlink:href="#mfcfd8739a4" x="279.262755" y="146.312023" style="fill: #0071ad; stroke: #0071ad"/>
     <use xlink:href="#mfcfd8739a4" x="295.097246" y="146.501351" style="fill: #0071ad; stroke: #0071ad"/>
     <use xlink:href="#mfcfd8739a4" x="315.53128" y="145.850784" style="fill: #0071ad; stroke: #0071ad"/>
     <use xlink:href="#mfcfd8739a4" x="340.489455" y="144.914558" style="fill: #0071ad; stroke: #0071ad"/>
     <use xlink:href="#mfcfd8739a4" x="469.653662" y="142.935227" style="fill: #0071ad; stroke: #0071ad"/>
     <use xlink:href="#mfcfd8739a4" x="476.439872" y="140.256533" style="fill: #0071ad; stroke: #0071ad"/>
     <use xlink:href="#mfcfd8739a4" x="483.376887" y="125.803728" style="fill: #0071ad; stroke: #0071ad"/>
     <use xlink:href="#mfcfd8739a4" x="494.762641" y="130.785608" style="fill: #0071ad; stroke: #0071ad"/>
     <use xlink:href="#mfcfd8739a4" x="510.898741" y="135.250918" style="fill: #0071ad; stroke: #0071ad"/>
     <use xlink:href="#mfcfd8739a4" x="531.48358" y="136.666203" style="fill: #0071ad; stroke: #0071ad"/>
     <use xlink:href="#mfcfd8739a4" x="556.743363" y="137.393841" style="fill: #0071ad; stroke: #0071ad"/>
    </g>
   </g>
   <g id="line2d_16">
    <defs>
     <path id="m1f115f9833" d="M 0 -1.75 
L -1.75 1.75 
L 1.75 1.75 
z
" style="stroke: #000000; stroke-linejoin: miter"/>
    </defs>
    <g clip-path="url(#p5de16dd0e5)">
     <use xlink:href="#m1f115f9833" x="70.926092" y="29.094" style="stroke: #000000; stroke-linejoin: miter"/>
     <use xlink:href="#m1f115f9833" x="77.561498" y="30.631672" style="stroke: #000000; stroke-linejoin: miter"/>
     <use xlink:href="#m1f115f9833" x="84.498513" y="89.238474" style="stroke: #000000; stroke-linejoin: miter"/>
     <use xlink:href="#m1f115f9833" x="95.884266" y="118.514232" style="stroke: #000000; stroke-linejoin: miter"/>
     <use xlink:href="#m1f115f9833" x="111.869562" y="122.631278" style="stroke: #000000; stroke-linejoin: miter"/>
     <use xlink:href="#m1f115f9833" x="132.529803" y="123.667285" style="stroke: #000000; stroke-linejoin: miter"/>
     <use xlink:href="#m1f115f9833" x="157.789587" y="124.023508" style="stroke: #000000; stroke-linejoin: miter"/>
     <use xlink:href="#m1f115f9833" x="187.648913" y="124.476477" style="stroke: #000000; stroke-linejoin: miter"/>
     <use xlink:href="#m1f115f9833" x="222.107782" y="124.528877" style="stroke: #000000; stroke-linejoin: miter"/>
     <use xlink:href="#m1f115f9833" x="261.166194" y="124.382158" style="stroke: #000000; stroke-linejoin: miter"/>
     <use xlink:href="#m1f115f9833" x="267.952404" y="121.385777" style="stroke: #000000; stroke-linejoin: miter"/>
     <use xlink:href="#m1f115f9833" x="279.262755" y="112.050704" style="stroke: #000000; stroke-linejoin: miter"/>
     <use xlink:href="#m1f115f9833" x="295.097246" y="97.553907" style="stroke: #000000; stroke-linejoin: miter"/>
     <use xlink:href="#m1f115f9833" x="315.53128" y="81.258634" style="stroke: #000000; stroke-linejoin: miter"/>
     <use xlink:href="#m1f115f9833" x="340.489455" y="68.668549" style="stroke: #000000; stroke-linejoin: miter"/>
     <use xlink:href="#m1f115f9833" x="469.653662" y="50.399516" style="stroke: #000000; stroke-linejoin: miter"/>
     <use xlink:href="#m1f115f9833" x="476.439872" y="51.028583" style="stroke: #000000; stroke-linejoin: miter"/>
     <use xlink:href="#m1f115f9833" x="483.376887" y="115.74202" style="stroke: #000000; stroke-linejoin: miter"/>
     <use xlink:href="#m1f115f9833" x="494.762641" y="121.846871" style="stroke: #000000; stroke-linejoin: miter"/>
     <use xlink:href="#m1f115f9833" x="510.898741" y="122.711018" style="stroke: #000000; stroke-linejoin: miter"/>
     <use xlink:href="#m1f115f9833" x="531.48358" y="121.735725" style="stroke: #000000; stroke-linejoin: miter"/>
     <use xlink:href="#m1f115f9833" x="556.743363" y="120.813705" style="stroke: #000000; stroke-linejoin: miter"/>
    </g>
   </g>
   <g id="line2d_17">
    <defs>
     <path id="md414d2367a" d="M 0 -1.75 
L -1.75 1.75 
L 1.75 1.75 
z
" style="stroke: #0071ad; stroke-linejoin: miter"/>
    </defs>
    <g clip-path="url(#p5de16dd0e5)">
     <use xlink:href="#md414d2367a" x="70.926092" y="150.879612" style="fill: #0071ad; stroke: #0071ad; stroke-linejoin: miter"/>
     <use xlink:href="#md414d2367a" x="77.561498" y="136.798087" style="fill: #0071ad; stroke: #0071ad; stroke-linejoin: miter"/>
     <use xlink:href="#md414d2367a" x="84.498513" y="100.375421" style="fill: #0071ad; stroke: #0071ad; stroke-linejoin: miter"/>
     <use xlink:href="#md414d2367a" x="95.884266" y="130.562259" style="fill: #0071ad; stroke: #0071ad; stroke-linejoin: miter"/>
     <use xlink:href="#md414d2367a" x="111.869562" y="133.711699" style="fill: #0071ad; stroke: #0071ad; stroke-linejoin: miter"/>
     <use xlink:href="#md414d2367a" x="132.529803" y="135.882142" style="fill: #0071ad; stroke: #0071ad; stroke-linejoin: miter"/>
     <use xlink:href="#md414d2367a" x="157.789587" y="136.994737" style="fill: #0071ad; stroke: #0071ad; stroke-linejoin: miter"/>
     <use xlink:href="#md414d2367a" x="187.648913" y="137.849002" style="fill: #0071ad; stroke: #0071ad; stroke-linejoin: miter"/>
     <use xlink:href="#md414d2367a" x="222.107782" y="138.534107" style="fill: #0071ad; stroke: #0071ad; stroke-linejoin: miter"/>
     <use xlink:href="#md414d2367a" x="261.166194" y="139.723951" style="fill: #0071ad; stroke: #0071ad; stroke-linejoin: miter"/>
     <use xlink:href="#md414d2367a" x="267.952404" y="145.920292" style="fill: #0071ad; stroke: #0071ad; stroke-linejoin: miter"/>
     <use xlink:href="#md414d2367a" x="279.262755" y="147.491904" style="fill: #0071ad; stroke: #0071ad; stroke-linejoin: miter"/>
     <use xlink:href="#md414d2367a" x="295.097246" y="147.418391" style="fill: #0071ad; stroke: #0071ad; stroke-linejoin: miter"/>
     <use xlink:href="#md414d2367a" x="315.53128" y="146.686335" style="fill: #0071ad; stroke: #0071ad; stroke-linejoin: miter"/>
     <use xlink:href="#md414d2367a" x="340.489455" y="146.22591" style="fill: #0071ad; stroke: #0071ad; stroke-linejoin: miter"/>
     <use xlink:href="#md414d2367a" x="469.653662" y="144.907565" style="fill: #0071ad; stroke: #0071ad; stroke-linejoin: miter"/>
     <use xlink:href="#md414d2367a" x="476.439872" y="141.979344" style="fill: #0071ad; stroke: #0071ad; stroke-linejoin: miter"/>
     <use xlink:href="#md414d2367a" x="483.376887" y="131.993438" style="fill: #0071ad; stroke: #0071ad; stroke-linejoin: miter"/>
     <use xlink:href="#md414d2367a" x="494.762641" y="135.573516" style="fill: #0071ad; stroke: #0071ad; stroke-linejoin: miter"/>
     <use xlink:href="#md414d2367a" x="510.898741" y="139.415195" style="fill: #0071ad; stroke: #0071ad; stroke-linejoin: miter"/>
     <use xlink:href="#md414d2367a" x="531.48358" y="140.051929" style="fill: #0071ad; stroke: #0071ad; stroke-linejoin: miter"/>
     <use xlink:href="#md414d2367a" x="556.743363" y="140.307072" style="fill: #0071ad; stroke: #0071ad; stroke-linejoin: miter"/>
    </g>
   </g>
   <g id="patch_7">
    <path d="M 43.78125 175.054 
L 43.78125 29.094 
" style="fill: none; stroke: #000000; stroke-width: 0.8; stroke-linejoin: miter; stroke-linecap: square"/>
   </g>
   <g id="patch_8">
    <path d="M 559.53325 175.054 
L 559.53325 29.094 
" style="fill: none; stroke: #000000; stroke-width: 0.8; stroke-linejoin: miter; stroke-linecap: square"/>
   </g>
   <g id="patch_9">
    <path d="M 43.78125 175.054 
L 559.53325 175.054 
" style="fill: none; stroke: #000000; stroke-width: 0.8; stroke-linejoin: miter; stroke-linecap: square"/>
   </g>
   <g id="patch_10">
    <path d="M 43.78125 29.094 
L 559.53325 29.094 
" style="fill: none; stroke: #000000; stroke-width: 0.8; stroke-linejoin: miter; stroke-linecap: square"/>
   </g>
   <g id="legend_1">
    <g id="patch_11">
     <path d="M 91.170712 90.162125 
L 202.692588 90.162125 
Q 204.692588 90.162125 204.692588 88.162125 
L 204.692588 43.005875 
Q 204.692588 41.005875 202.692588 41.005875 
L 91.170712 41.005875 
Q 89.170712 41.005875 89.170712 43.005875 
L 89.170712 88.162125 
Q 89.170712 90.162125 91.170712 90.162125 
z
" style="fill: #ffffff; opacity: 0.8; stroke: #000000; stroke-linejoin: miter"/>
    </g>
    <g id="line2d_18">
     <path d="M 93.170712 49.104312 
L 103.170712 49.104312 
L 113.170712 49.104312 
" style="fill: none; stroke: #fa0100; stroke-width: 1.5; stroke-linecap: square"/>
    </g>
    <g id="text_13">
     <!-- Simulated trace -->
     <g transform="translate(121.170712 52.604312) scale(0.1 -0.1)">
      <defs>
       <path id="DejaVuSans-53" d="M 3425 4513 
L 3425 3897 
Q 3066 4069 2747 4153 
Q 2428 4238 2131 4238 
Q 1616 4238 1336 4038 
Q 1056 3838 1056 3469 
Q 1056 3159 1242 3001 
Q 1428 2844 1947 2747 
L 2328 2669 
Q 3034 2534 3370 2195 
Q 3706 1856 3706 1288 
Q 3706 609 3251 259 
Q 2797 -91 1919 -91 
Q 1588 -91 1214 -16 
Q 841 59 441 206 
L 441 856 
Q 825 641 1194 531 
Q 1563 422 1919 422 
Q 2459 422 2753 634 
Q 3047 847 3047 1241 
Q 3047 1584 2836 1778 
Q 2625 1972 2144 2069 
L 1759 2144 
Q 1053 2284 737 2584 
Q 422 2884 422 3419 
Q 422 4038 858 4394 
Q 1294 4750 2059 4750 
Q 2388 4750 2728 4690 
Q 3069 4631 3425 4513 
z
" transform="scale(0.015625)"/>
       <path id="DejaVuSans-74" d="M 1172 4494 
L 1172 3500 
L 2356 3500 
L 2356 3053 
L 1172 3053 
L 1172 1153 
Q 1172 725 1289 603 
Q 1406 481 1766 481 
L 2356 481 
L 2356 0 
L 1766 0 
Q 1100 0 847 248 
Q 594 497 594 1153 
L 594 3053 
L 172 3053 
L 172 3500 
L 594 3500 
L 594 4494 
L 1172 4494 
z
" transform="scale(0.015625)"/>
       <path id="DejaVuSans-64" d="M 2906 2969 
L 2906 4863 
L 3481 4863 
L 3481 0 
L 2906 0 
L 2906 525 
Q 2725 213 2448 61 
Q 2172 -91 1784 -91 
Q 1150 -91 751 415 
Q 353 922 353 1747 
Q 353 2572 751 3078 
Q 1150 3584 1784 3584 
Q 2172 3584 2448 3432 
Q 2725 3281 2906 2969 
z
M 947 1747 
Q 947 1113 1208 752 
Q 1469 391 1925 391 
Q 2381 391 2643 752 
Q 2906 1113 2906 1747 
Q 2906 2381 2643 2742 
Q 2381 3103 1925 3103 
Q 1469 3103 1208 2742 
Q 947 2381 947 1747 
z
" transform="scale(0.015625)"/>
      </defs>
      <use xlink:href="#DejaVuSans-53"/>
      <use xlink:href="#DejaVuSans-69" transform="translate(63.476562 0)"/>
      <use xlink:href="#DejaVuSans-6d" transform="translate(91.259766 0)"/>
      <use xlink:href="#DejaVuSans-75" transform="translate(188.671875 0)"/>
      <use xlink:href="#DejaVuSans-6c" transform="translate(252.050781 0)"/>
      <use xlink:href="#DejaVuSans-61" transform="translate(279.833984 0)"/>
      <use xlink:href="#DejaVuSans-74" transform="translate(341.113281 0)"/>
      <use xlink:href="#DejaVuSans-65" transform="translate(380.322266 0)"/>
      <use xlink:href="#DejaVuSans-64" transform="translate(441.845703 0)"/>
      <use xlink:href="#DejaVuSans-20" transform="translate(505.322266 0)"/>
      <use xlink:href="#DejaVuSans-74" transform="translate(537.109375 0)"/>
      <use xlink:href="#DejaVuSans-72" transform="translate(576.318359 0)"/>
      <use xlink:href="#DejaVuSans-61" transform="translate(617.431641 0)"/>
      <use xlink:href="#DejaVuSans-63" transform="translate(678.710938 0)"/>
      <use xlink:href="#DejaVuSans-65" transform="translate(733.691406 0)"/>
     </g>
    </g>
    <g id="LineCollection_3">
     <path d="M 103.170712 70.184 
L 103.170712 60.184 
" style="fill: none; stroke: #000000; stroke-width: 0.5"/>
    </g>
    <g id="line2d_19">
     <g>
      <use xlink:href="#ma9ac1a4d28" x="103.170712" y="70.184" style="stroke: #000000"/>
     </g>
    </g>
    <g id="line2d_20">
     <g>
      <use xlink:href="#ma9ac1a4d28" x="103.170712" y="60.184" style="stroke: #000000"/>
     </g>
    </g>
    <g id="line2d_21"/>
    <g id="line2d_22">
     <g>
      <use xlink:href="#m1f115f9833" x="103.170712" y="65.184" style="stroke: #000000; stroke-linejoin: miter"/>
     </g>
    </g>
    <g id="text_14">
     <!-- $\mathrm{F_M^'}$ measured -->
     <g transform="translate(121.170712 68.684) scale(0.1 -0.1)">
      <defs>
       <path id="DejaVuSans-27" d="M 1147 4666 
L 1147 2931 
L 616 2931 
L 616 4666 
L 1147 4666 
z
" transform="scale(0.015625)"/>
       <path id="DejaVuSans-4d" d="M 628 4666 
L 1569 4666 
L 2759 1491 
L 3956 4666 
L 4897 4666 
L 4897 0 
L 4281 0 
L 4281 4097 
L 3078 897 
L 2444 897 
L 1241 4097 
L 1241 0 
L 628 0 
L 628 4666 
z
" transform="scale(0.015625)"/>
      </defs>
      <use xlink:href="#DejaVuSans-46" transform="translate(0 0.684375)"/>
      <use xlink:href="#DejaVuSans-27" transform="translate(58.476562 38.965625) scale(0.7)"/>
      <use xlink:href="#DejaVuSans-4d" transform="translate(58.476562 -26.659375) scale(0.7)"/>
      <use xlink:href="#DejaVuSans-20" transform="translate(121.606445 0.684375)"/>
      <use xlink:href="#DejaVuSans-6d" transform="translate(153.393555 0.684375)"/>
      <use xlink:href="#DejaVuSans-65" transform="translate(250.805664 0.684375)"/>
      <use xlink:href="#DejaVuSans-61" transform="translate(312.329102 0.684375)"/>
      <use xlink:href="#DejaVuSans-73" transform="translate(373.608398 0.684375)"/>
      <use xlink:href="#DejaVuSans-75" transform="translate(425.708008 0.684375)"/>
      <use xlink:href="#DejaVuSans-72" transform="translate(489.086914 0.684375)"/>
      <use xlink:href="#DejaVuSans-65" transform="translate(530.200195 0.684375)"/>
      <use xlink:href="#DejaVuSans-64" transform="translate(591.723633 0.684375)"/>
     </g>
    </g>
    <g id="LineCollection_4">
     <path d="M 103.170712 85.582437 
L 103.170712 75.582437 
" style="fill: none; stroke: #0071ad; stroke-width: 0.5"/>
    </g>
    <g id="line2d_23">
     <g>
      <use xlink:href="#mfcfd8739a4" x="103.170712" y="85.582437" style="fill: #0071ad; stroke: #0071ad"/>
     </g>
    </g>
    <g id="line2d_24">
     <g>
      <use xlink:href="#mfcfd8739a4" x="103.170712" y="75.582437" style="fill: #0071ad; stroke: #0071ad"/>
     </g>
    </g>
    <g id="line2d_25"/>
    <g id="line2d_26">
     <g>
      <use xlink:href="#md414d2367a" x="103.170712" y="80.582437" style="fill: #0071ad; stroke: #0071ad; stroke-linejoin: miter"/>
     </g>
    </g>
    <g id="text_15">
     <!-- $\mathrm{F_S}$ measured -->
     <g transform="translate(121.170712 84.082437) scale(0.1 -0.1)">
      <use xlink:href="#DejaVuSans-46" transform="translate(0 0.015625)"/>
      <use xlink:href="#DejaVuSans-53" transform="translate(58.476562 -16.390625) scale(0.7)"/>
      <use xlink:href="#DejaVuSans-20" transform="translate(105.644531 0.015625)"/>
      <use xlink:href="#DejaVuSans-6d" transform="translate(137.431641 0.015625)"/>
      <use xlink:href="#DejaVuSans-65" transform="translate(234.84375 0.015625)"/>
      <use xlink:href="#DejaVuSans-61" transform="translate(296.367188 0.015625)"/>
      <use xlink:href="#DejaVuSans-73" transform="translate(357.646484 0.015625)"/>
      <use xlink:href="#DejaVuSans-75" transform="translate(409.746094 0.015625)"/>
      <use xlink:href="#DejaVuSans-72" transform="translate(473.125 0.015625)"/>
      <use xlink:href="#DejaVuSans-65" transform="translate(514.238281 0.015625)"/>
      <use xlink:href="#DejaVuSans-64" transform="translate(575.761719 0.015625)"/>
     </g>
    </g>
   </g>
  </g>
  <g id="axes_2">
   <g id="patch_12">
    <path d="M 43.78125 385.654 
L 559.53325 385.654 
L 559.53325 239.694 
L 43.78125 239.694 
z
" style="fill: #ffffff"/>
   </g>
   <g id="patch_13">
    <path d="M 43.78125 239.694 
L 77.712303 239.694 
L 77.712303 217.8 
L 43.78125 217.8 
z
" style="stroke: #000000; stroke-linejoin: miter"/>
   </g>
   <g id="patch_14">
    <path d="M 77.712303 239.694 
L 258.677916 239.694 
L 258.677916 217.8 
L 77.712303 217.8 
z
" style="fill: #ffffff; stroke: #000000; stroke-linejoin: miter"/>
   </g>
   <g id="patch_15">
    <path d="M 258.677916 239.694 
L 475.836653 239.694 
L 475.836653 217.8 
L 258.677916 217.8 
z
" style="stroke: #000000; stroke-linejoin: miter"/>
   </g>
   <g id="patch_16">
    <path d="M 475.836653 239.694 
L 559.53325 239.694 
L 559.53325 217.8 
L 475.836653 217.8 
z
" style="fill: #ffffff; stroke: #000000; stroke-linejoin: miter"/>
   </g>
   <g id="matplotlib.axis_3">
    <g id="xtick_5">
     <g id="line2d_27">
      <g>
       <use xlink:href="#m78f470812b" x="70.926092" y="385.654" style="stroke: #000000; stroke-width: 0.8"/>
      </g>
     </g>
     <g id="text_16">
      <!-- 0 -->
      <g transform="translate(67.744842 400.252437) scale(0.1 -0.1)">
       <use xlink:href="#DejaVuSans-30"/>
      </g>
     </g>
    </g>
    <g id="xtick_6">
     <g id="line2d_28">
      <g>
       <use xlink:href="#m78f470812b" x="260.939987" y="385.654" style="stroke: #000000; stroke-width: 0.8"/>
      </g>
     </g>
     <g id="text_17">
      <!-- 14 -->
      <g transform="translate(254.577487 400.252437) scale(0.1 -0.1)">
       <use xlink:href="#DejaVuSans-31"/>
       <use xlink:href="#DejaVuSans-34" transform="translate(63.623047 0)"/>
      </g>
     </g>
    </g>
    <g id="xtick_7">
     <g id="line2d_29">
      <g>
       <use xlink:href="#m78f470812b" x="478.098724" y="385.654" style="stroke: #000000; stroke-width: 0.8"/>
      </g>
     </g>
     <g id="text_18">
      <!-- 30 -->
      <g transform="translate(471.736224 400.252437) scale(0.1 -0.1)">
       <use xlink:href="#DejaVuSans-33"/>
       <use xlink:href="#DejaVuSans-30" transform="translate(63.623047 0)"/>
      </g>
     </g>
    </g>
    <g id="xtick_8">
     <g id="line2d_30">
      <g>
       <use xlink:href="#m78f470812b" x="545.960829" y="385.654" style="stroke: #000000; stroke-width: 0.8"/>
      </g>
     </g>
     <g id="text_19">
      <!-- 35 -->
      <g transform="translate(539.598329 400.252437) scale(0.1 -0.1)">
       <use xlink:href="#DejaVuSans-33"/>
       <use xlink:href="#DejaVuSans-35" transform="translate(63.623047 0)"/>
      </g>
     </g>
    </g>
    <g id="text_20">
     <!-- Time (min) -->
     <g transform="translate(274.504906 413.930562) scale(0.1 -0.1)">
      <use xlink:href="#DejaVuSans-54"/>
      <use xlink:href="#DejaVuSans-69" transform="translate(57.958984 0)"/>
      <use xlink:href="#DejaVuSans-6d" transform="translate(85.742188 0)"/>
      <use xlink:href="#DejaVuSans-65" transform="translate(183.154297 0)"/>
      <use xlink:href="#DejaVuSans-20" transform="translate(244.677734 0)"/>
      <use xlink:href="#DejaVuSans-28" transform="translate(276.464844 0)"/>
      <use xlink:href="#DejaVuSans-6d" transform="translate(315.478516 0)"/>
      <use xlink:href="#DejaVuSans-69" transform="translate(412.890625 0)"/>
      <use xlink:href="#DejaVuSans-6e" transform="translate(440.673828 0)"/>
      <use xlink:href="#DejaVuSans-29" transform="translate(504.052734 0)"/>
     </g>
    </g>
   </g>
   <g id="matplotlib.axis_4">
    <g id="ytick_7">
     <g id="line2d_31">
      <g>
       <use xlink:href="#m7c4ebeece9" x="43.78125" y="385.654" style="stroke: #000000; stroke-width: 0.8"/>
      </g>
     </g>
     <g id="text_21">
      <!-- 0.0 -->
      <g transform="translate(20.878125 389.453219) scale(0.1 -0.1)">
       <use xlink:href="#DejaVuSans-30"/>
       <use xlink:href="#DejaVuSans-2e" transform="translate(63.623047 0)"/>
       <use xlink:href="#DejaVuSans-30" transform="translate(95.410156 0)"/>
      </g>
     </g>
    </g>
    <g id="ytick_8">
     <g id="line2d_32">
      <g>
       <use xlink:href="#m7c4ebeece9" x="43.78125" y="353.218444" style="stroke: #000000; stroke-width: 0.8"/>
      </g>
     </g>
     <g id="text_22">
      <!-- 0.2 -->
      <g transform="translate(20.878125 357.017663) scale(0.1 -0.1)">
       <use xlink:href="#DejaVuSans-30"/>
       <use xlink:href="#DejaVuSans-2e" transform="translate(63.623047 0)"/>
       <use xlink:href="#DejaVuSans-32" transform="translate(95.410156 0)"/>
      </g>
     </g>
    </g>
    <g id="ytick_9">
     <g id="line2d_33">
      <g>
       <use xlink:href="#m7c4ebeece9" x="43.78125" y="320.782889" style="stroke: #000000; stroke-width: 0.8"/>
      </g>
     </g>
     <g id="text_23">
      <!-- 0.4 -->
      <g transform="translate(20.878125 324.582108) scale(0.1 -0.1)">
       <use xlink:href="#DejaVuSans-30"/>
       <use xlink:href="#DejaVuSans-2e" transform="translate(63.623047 0)"/>
       <use xlink:href="#DejaVuSans-34" transform="translate(95.410156 0)"/>
      </g>
     </g>
    </g>
    <g id="ytick_10">
     <g id="line2d_34">
      <g>
       <use xlink:href="#m7c4ebeece9" x="43.78125" y="288.347333" style="stroke: #000000; stroke-width: 0.8"/>
      </g>
     </g>
     <g id="text_24">
      <!-- 0.6 -->
      <g transform="translate(20.878125 292.146552) scale(0.1 -0.1)">
       <use xlink:href="#DejaVuSans-30"/>
       <use xlink:href="#DejaVuSans-2e" transform="translate(63.623047 0)"/>
       <use xlink:href="#DejaVuSans-36" transform="translate(95.410156 0)"/>
      </g>
     </g>
    </g>
    <g id="ytick_11">
     <g id="line2d_35">
      <g>
       <use xlink:href="#m7c4ebeece9" x="43.78125" y="255.911778" style="stroke: #000000; stroke-width: 0.8"/>
      </g>
     </g>
     <g id="text_25">
      <!-- 0.8 -->
      <g transform="translate(20.878125 259.710997) scale(0.1 -0.1)">
       <use xlink:href="#DejaVuSans-30"/>
       <use xlink:href="#DejaVuSans-2e" transform="translate(63.623047 0)"/>
       <use xlink:href="#DejaVuSans-38" transform="translate(95.410156 0)"/>
      </g>
     </g>
    </g>
    <g id="text_26">
     <!-- $\Phi_{\mathrm{PSII}}$ -->
     <g transform="translate(14.798438 323.224) rotate(-90) scale(0.1 -0.1)">
      <defs>
       <path id="DejaVuSans-3a6" d="M 2206 3644 
Q 1738 3578 1431 3306 
Q 1025 2947 1025 2328 
Q 1025 1713 1431 1353 
Q 1738 1081 2206 1016 
L 2206 3644 
z
M 2838 1016 
Q 3306 1081 3613 1353 
Q 4013 1713 4013 2328 
Q 4013 2947 3613 3306 
Q 3306 3578 2838 3644 
L 2838 1016 
z
M 2206 494 
Q 1444 563 950 981 
Q 359 1481 359 2328 
Q 359 3175 950 3678 
Q 1441 4100 2206 4169 
L 2206 4666 
L 2838 4666 
L 2838 4169 
Q 3600 4097 4091 3678 
Q 4678 3175 4678 2328 
Q 4678 1484 4091 981 
Q 3600 563 2838 491 
L 2838 0 
L 2206 0 
L 2206 494 
z
" transform="scale(0.015625)"/>
       <path id="DejaVuSans-50" d="M 1259 4147 
L 1259 2394 
L 2053 2394 
Q 2494 2394 2734 2622 
Q 2975 2850 2975 3272 
Q 2975 3691 2734 3919 
Q 2494 4147 2053 4147 
L 1259 4147 
z
M 628 4666 
L 2053 4666 
Q 2838 4666 3239 4311 
Q 3641 3956 3641 3272 
Q 3641 2581 3239 2228 
Q 2838 1875 2053 1875 
L 1259 1875 
L 1259 0 
L 628 0 
L 628 4666 
z
" transform="scale(0.015625)"/>
       <path id="DejaVuSans-49" d="M 628 4666 
L 1259 4666 
L 1259 0 
L 628 0 
L 628 4666 
z
" transform="scale(0.015625)"/>
      </defs>
      <use xlink:href="#DejaVuSans-3a6" transform="translate(0 0.09375)"/>
      <use xlink:href="#DejaVuSans-50" transform="translate(79.667969 -16.3125) scale(0.7)"/>
      <use xlink:href="#DejaVuSans-53" transform="translate(121.879883 -16.3125) scale(0.7)"/>
      <use xlink:href="#DejaVuSans-49" transform="translate(166.313477 -16.3125) scale(0.7)"/>
      <use xlink:href="#DejaVuSans-49" transform="translate(186.958008 -16.3125) scale(0.7)"/>
     </g>
    </g>
   </g>
   <g id="line2d_36">
    <path d="M 70.954866 316.846506 
L 77.740533 255.930138 
L 84.519324 348.448489 
L 95.832209 341.221135 
L 111.670138 337.977542 
L 132.032208 336.599994 
L 156.917875 336.070502 
L 186.32714 335.904883 
L 220.260183 335.870715 
L 258.717367 335.872356 
L 265.519321 286.755691 
L 276.823158 274.544745 
L 292.653668 264.762609 
L 313.009766 258.76341 
L 337.890547 255.796145 
L 469.07614 253.357506 
L 475.86235 261.271931 
L 482.644037 345.206419 
L 493.958007 340.262936 
L 509.79666 337.751759 
L 530.160178 336.585009 
" clip-path="url(#p42621454f0)" style="fill: none; stroke: #fa0100; stroke-width: 1.5; stroke-linecap: square"/>
    <defs>
     <path id="m3e41f1c346" d="M 0 3 
C 0.795609 3 1.55874 2.683901 2.12132 2.12132 
C 2.683901 1.55874 3 0.795609 3 0 
C 3 -0.795609 2.683901 -1.55874 2.12132 -2.12132 
C 1.55874 -2.683901 0.795609 -3 0 -3 
C -0.795609 -3 -1.55874 -2.683901 -2.12132 -2.12132 
C -2.683901 -1.55874 -3 -0.795609 -3 0 
C -3 0.795609 -2.683901 1.55874 -2.12132 2.12132 
C -1.55874 2.683901 -0.795609 3 0 3 
z
" style="stroke: #fa0100"/>
    </defs>
    <g clip-path="url(#p42621454f0)">
     <use xlink:href="#m3e41f1c346" x="70.954866" y="316.846506" style="fill: #fa0100; stroke: #fa0100"/>
     <use xlink:href="#m3e41f1c346" x="77.740533" y="255.930138" style="fill: #fa0100; stroke: #fa0100"/>
     <use xlink:href="#m3e41f1c346" x="84.519324" y="348.448489" style="fill: #fa0100; stroke: #fa0100"/>
     <use xlink:href="#m3e41f1c346" x="95.832209" y="341.221135" style="fill: #fa0100; stroke: #fa0100"/>
     <use xlink:href="#m3e41f1c346" x="111.670138" y="337.977542" style="fill: #fa0100; stroke: #fa0100"/>
     <use xlink:href="#m3e41f1c346" x="132.032208" y="336.599994" style="fill: #fa0100; stroke: #fa0100"/>
     <use xlink:href="#m3e41f1c346" x="156.917875" y="336.070502" style="fill: #fa0100; stroke: #fa0100"/>
     <use xlink:href="#m3e41f1c346" x="186.32714" y="335.904883" style="fill: #fa0100; stroke: #fa0100"/>
     <use xlink:href="#m3e41f1c346" x="220.260183" y="335.870715" style="fill: #fa0100; stroke: #fa0100"/>
     <use xlink:href="#m3e41f1c346" x="258.717367" y="335.872356" style="fill: #fa0100; stroke: #fa0100"/>
     <use xlink:href="#m3e41f1c346" x="265.519321" y="286.755691" style="fill: #fa0100; stroke: #fa0100"/>
     <use xlink:href="#m3e41f1c346" x="276.823158" y="274.544745" style="fill: #fa0100; stroke: #fa0100"/>
     <use xlink:href="#m3e41f1c346" x="292.653668" y="264.762609" style="fill: #fa0100; stroke: #fa0100"/>
     <use xlink:href="#m3e41f1c346" x="313.009766" y="258.76341" style="fill: #fa0100; stroke: #fa0100"/>
     <use xlink:href="#m3e41f1c346" x="337.890547" y="255.796145" style="fill: #fa0100; stroke: #fa0100"/>
     <use xlink:href="#m3e41f1c346" x="469.07614" y="253.357506" style="fill: #fa0100; stroke: #fa0100"/>
     <use xlink:href="#m3e41f1c346" x="475.86235" y="261.271931" style="fill: #fa0100; stroke: #fa0100"/>
     <use xlink:href="#m3e41f1c346" x="482.644037" y="345.206419" style="fill: #fa0100; stroke: #fa0100"/>
     <use xlink:href="#m3e41f1c346" x="493.958007" y="340.262936" style="fill: #fa0100; stroke: #fa0100"/>
     <use xlink:href="#m3e41f1c346" x="509.79666" y="337.751759" style="fill: #fa0100; stroke: #fa0100"/>
     <use xlink:href="#m3e41f1c346" x="530.160178" y="336.585009" style="fill: #fa0100; stroke: #fa0100"/>
    </g>
   </g>
   <g id="line2d_37">
    <path d="M 70.926092 250.343674 
L 77.561498 266.453333 
L 84.498513 364.570889 
L 95.884266 351.110133 
L 111.869562 351.32637 
L 132.529803 347.055689 
L 157.789587 344.514904 
L 187.648913 342.839067 
L 222.107782 340.514519 
L 261.166194 336.568193 
L 267.952404 311.754993 
L 279.262755 294.618207 
L 295.097246 281.427748 
L 315.53128 272.56203 
L 340.489455 267.4264 
L 469.653662 262.669185 
L 476.439872 266.72363 
L 483.376887 341.16323 
L 494.762641 343.866193 
L 510.898741 333.973348 
L 531.48358 329.918904 
L 556.743363 327.594356 
" clip-path="url(#p42621454f0)" style="fill: none; stroke: #0071ad; stroke-width: 1.5; stroke-linecap: square"/>
    <defs>
     <path id="mde93d743cb" d="M 0 -3 
L -3 3 
L 3 3 
z
" style="stroke: #0071ad; stroke-linejoin: miter"/>
    </defs>
    <g clip-path="url(#p42621454f0)">
     <use xlink:href="#mde93d743cb" x="70.926092" y="250.343674" style="fill: #0071ad; stroke: #0071ad; stroke-linejoin: miter"/>
     <use xlink:href="#mde93d743cb" x="77.561498" y="266.453333" style="fill: #0071ad; stroke: #0071ad; stroke-linejoin: miter"/>
     <use xlink:href="#mde93d743cb" x="84.498513" y="364.570889" style="fill: #0071ad; stroke: #0071ad; stroke-linejoin: miter"/>
     <use xlink:href="#mde93d743cb" x="95.884266" y="351.110133" style="fill: #0071ad; stroke: #0071ad; stroke-linejoin: miter"/>
     <use xlink:href="#mde93d743cb" x="111.869562" y="351.32637" style="fill: #0071ad; stroke: #0071ad; stroke-linejoin: miter"/>
     <use xlink:href="#mde93d743cb" x="132.529803" y="347.055689" style="fill: #0071ad; stroke: #0071ad; stroke-linejoin: miter"/>
     <use xlink:href="#mde93d743cb" x="157.789587" y="344.514904" style="fill: #0071ad; stroke: #0071ad; stroke-linejoin: miter"/>
     <use xlink:href="#mde93d743cb" x="187.648913" y="342.839067" style="fill: #0071ad; stroke: #0071ad; stroke-linejoin: miter"/>
     <use xlink:href="#mde93d743cb" x="222.107782" y="340.514519" style="fill: #0071ad; stroke: #0071ad; stroke-linejoin: miter"/>
     <use xlink:href="#mde93d743cb" x="261.166194" y="336.568193" style="fill: #0071ad; stroke: #0071ad; stroke-linejoin: miter"/>
     <use xlink:href="#mde93d743cb" x="267.952404" y="311.754993" style="fill: #0071ad; stroke: #0071ad; stroke-linejoin: miter"/>
     <use xlink:href="#mde93d743cb" x="279.262755" y="294.618207" style="fill: #0071ad; stroke: #0071ad; stroke-linejoin: miter"/>
     <use xlink:href="#mde93d743cb" x="295.097246" y="281.427748" style="fill: #0071ad; stroke: #0071ad; stroke-linejoin: miter"/>
     <use xlink:href="#mde93d743cb" x="315.53128" y="272.56203" style="fill: #0071ad; stroke: #0071ad; stroke-linejoin: miter"/>
     <use xlink:href="#mde93d743cb" x="340.489455" y="267.4264" style="fill: #0071ad; stroke: #0071ad; stroke-linejoin: miter"/>
     <use xlink:href="#mde93d743cb" x="469.653662" y="262.669185" style="fill: #0071ad; stroke: #0071ad; stroke-linejoin: miter"/>
     <use xlink:href="#mde93d743cb" x="476.439872" y="266.72363" style="fill: #0071ad; stroke: #0071ad; stroke-linejoin: miter"/>
     <use xlink:href="#mde93d743cb" x="483.376887" y="341.16323" style="fill: #0071ad; stroke: #0071ad; stroke-linejoin: miter"/>
     <use xlink:href="#mde93d743cb" x="494.762641" y="343.866193" style="fill: #0071ad; stroke: #0071ad; stroke-linejoin: miter"/>
     <use xlink:href="#mde93d743cb" x="510.898741" y="333.973348" style="fill: #0071ad; stroke: #0071ad; stroke-linejoin: miter"/>
     <use xlink:href="#mde93d743cb" x="531.48358" y="329.918904" style="fill: #0071ad; stroke: #0071ad; stroke-linejoin: miter"/>
     <use xlink:href="#mde93d743cb" x="556.743363" y="327.594356" style="fill: #0071ad; stroke: #0071ad; stroke-linejoin: miter"/>
    </g>
   </g>
   <g id="patch_17">
    <path d="M 43.78125 385.654 
L 43.78125 239.694 
" style="fill: none; stroke: #000000; stroke-width: 0.8; stroke-linejoin: miter; stroke-linecap: square"/>
   </g>
   <g id="patch_18">
    <path d="M 559.53325 385.654 
L 559.53325 239.694 
" style="fill: none; stroke: #000000; stroke-width: 0.8; stroke-linejoin: miter; stroke-linecap: square"/>
   </g>
   <g id="patch_19">
    <path d="M 43.78125 385.654 
L 559.53325 385.654 
" style="fill: none; stroke: #000000; stroke-width: 0.8; stroke-linejoin: miter; stroke-linecap: square"/>
   </g>
   <g id="patch_20">
    <path d="M 43.78125 239.694 
L 559.53325 239.694 
" style="fill: none; stroke: #000000; stroke-width: 0.8; stroke-linejoin: miter; stroke-linecap: square"/>
   </g>
   <g id="legend_2">
    <g id="patch_21">
     <path d="M 102.041806 292.362125 
L 191.821494 292.362125 
Q 193.821494 292.362125 193.821494 290.362125 
L 193.821494 262.005875 
Q 193.821494 260.005875 191.821494 260.005875 
L 102.041806 260.005875 
Q 100.041806 260.005875 100.041806 262.005875 
L 100.041806 290.362125 
Q 100.041806 292.362125 102.041806 292.362125 
z
" style="fill: #ffffff; opacity: 0.8; stroke: #000000; stroke-linejoin: miter"/>
    </g>
    <g id="line2d_38">
     <path d="M 104.041806 268.104312 
L 114.041806 268.104312 
L 124.041806 268.104312 
" style="fill: none; stroke: #fa0100; stroke-width: 1.5; stroke-linecap: square"/>
     <g>
      <use xlink:href="#m3e41f1c346" x="114.041806" y="268.104312" style="fill: #fa0100; stroke: #fa0100"/>
     </g>
    </g>
    <g id="text_27">
     <!-- Simulation -->
     <g transform="translate(132.041806 271.604312) scale(0.1 -0.1)">
      <use xlink:href="#DejaVuSans-53"/>
      <use xlink:href="#DejaVuSans-69" transform="translate(63.476562 0)"/>
      <use xlink:href="#DejaVuSans-6d" transform="translate(91.259766 0)"/>
      <use xlink:href="#DejaVuSans-75" transform="translate(188.671875 0)"/>
      <use xlink:href="#DejaVuSans-6c" transform="translate(252.050781 0)"/>
      <use xlink:href="#DejaVuSans-61" transform="translate(279.833984 0)"/>
      <use xlink:href="#DejaVuSans-74" transform="translate(341.113281 0)"/>
      <use xlink:href="#DejaVuSans-69" transform="translate(380.322266 0)"/>
      <use xlink:href="#DejaVuSans-6f" transform="translate(408.105469 0)"/>
      <use xlink:href="#DejaVuSans-6e" transform="translate(469.287109 0)"/>
     </g>
    </g>
    <g id="line2d_39">
     <path d="M 104.041806 282.782437 
L 114.041806 282.782437 
L 124.041806 282.782437 
" style="fill: none; stroke: #0071ad; stroke-width: 1.5; stroke-linecap: square"/>
     <g>
      <use xlink:href="#mde93d743cb" x="114.041806" y="282.782437" style="fill: #0071ad; stroke: #0071ad; stroke-linejoin: miter"/>
     </g>
    </g>
    <g id="text_28">
     <!-- Experiment -->
     <g transform="translate(132.041806 286.282437) scale(0.1 -0.1)">
      <defs>
       <path id="DejaVuSans-45" d="M 628 4666 
L 3578 4666 
L 3578 4134 
L 1259 4134 
L 1259 2753 
L 3481 2753 
L 3481 2222 
L 1259 2222 
L 1259 531 
L 3634 531 
L 3634 0 
L 628 0 
L 628 4666 
z
" transform="scale(0.015625)"/>
       <path id="DejaVuSans-78" d="M 3513 3500 
L 2247 1797 
L 3578 0 
L 2900 0 
L 1881 1375 
L 863 0 
L 184 0 
L 1544 1831 
L 300 3500 
L 978 3500 
L 1906 2253 
L 2834 3500 
L 3513 3500 
z
" transform="scale(0.015625)"/>
       <path id="DejaVuSans-70" d="M 1159 525 
L 1159 -1331 
L 581 -1331 
L 581 3500 
L 1159 3500 
L 1159 2969 
Q 1341 3281 1617 3432 
Q 1894 3584 2278 3584 
Q 2916 3584 3314 3078 
Q 3713 2572 3713 1747 
Q 3713 922 3314 415 
Q 2916 -91 2278 -91 
Q 1894 -91 1617 61 
Q 1341 213 1159 525 
z
M 3116 1747 
Q 3116 2381 2855 2742 
Q 2594 3103 2138 3103 
Q 1681 3103 1420 2742 
Q 1159 2381 1159 1747 
Q 1159 1113 1420 752 
Q 1681 391 2138 391 
Q 2594 391 2855 752 
Q 3116 1113 3116 1747 
z
" transform="scale(0.015625)"/>
      </defs>
      <use xlink:href="#DejaVuSans-45"/>
      <use xlink:href="#DejaVuSans-78" transform="translate(63.183594 0)"/>
      <use xlink:href="#DejaVuSans-70" transform="translate(122.363281 0)"/>
      <use xlink:href="#DejaVuSans-65" transform="translate(185.839844 0)"/>
      <use xlink:href="#DejaVuSans-72" transform="translate(247.363281 0)"/>
      <use xlink:href="#DejaVuSans-69" transform="translate(288.476562 0)"/>
      <use xlink:href="#DejaVuSans-6d" transform="translate(316.259766 0)"/>
      <use xlink:href="#DejaVuSans-65" transform="translate(413.671875 0)"/>
      <use xlink:href="#DejaVuSans-6e" transform="translate(475.195312 0)"/>
      <use xlink:href="#DejaVuSans-74" transform="translate(538.574219 0)"/>
     </g>
    </g>
   </g>
  </g>
 </g>
 <defs>
  <clipPath id="p5de16dd0e5">
   <rect x="43.78125" y="29.094" width="515.752" height="145.96"/>
  </clipPath>
  <clipPath id="p42621454f0">
   <rect x="43.78125" y="239.694" width="515.752" height="145.96"/>
  </clipPath>
 </defs>
</svg>
