<?xml version="1.0" encoding="utf-8" standalone="no"?>
<!DOCTYPE svg PUBLIC "-//W3C//DTD SVG 1.1//EN"
  "http://www.w3.org/Graphics/SVG/1.1/DTD/svg11.dtd">
<svg xmlns:xlink="http://www.w3.org/1999/xlink" width="711.526716pt" height="275.193781pt" viewBox="0 0 711.526716 275.193781" xmlns="http://www.w3.org/2000/svg" version="1.1">
 <metadata>
  <rdf:RDF xmlns:dc="http://purl.org/dc/elements/1.1/" xmlns:cc="http://creativecommons.org/ns#" xmlns:rdf="http://www.w3.org/1999/02/22-rdf-syntax-ns#">
   <cc:Work>
    <dc:type rdf:resource="http://purl.org/dc/dcmitype/StillImage"/>
    <dc:date>2026-02-08T14:49:57.944377</dc:date>
    <dc:format>image/svg+xml</dc:format>
    <dc:creator>
     <cc:Agent>
      <dc:title>Matplotlib v3.10.8, https://matplotlib.org/</dc:title>
     </cc:Agent>
    </dc:creator>
   </cc:Work>
  </rdf:RDF>
 </metadata>
 <defs>
  <style type="text/css">*{stroke-linejoin: round; stroke-linecap: butt}</style>
 </defs>
 <g id="figure_1">
  <g id="patch_1">
   <path d="M 0 275.193781 
L 711.526716 275.193781 
L 711.526716 0 
L 0 0 
z
" style="fill: #ffffff"/>
  </g>
  <g id="axes_1">
   <g id="patch_2">
    <path d="M 47.866091 236.115656 
L 318.973364 236.115656 
L 318.973364 28.955656 
L 47.866091 28.955656 
z
" style="fill: #ffffff"/>
   </g>
   <g id="matplotlib.axis_1">
    <g id="xtick_1">
     <g id="line2d_1">
      <defs>
       <path id="mf3777c6062" d="M 0 0 
L 0 3.5 
" style="stroke: #000000; stroke-width: 0.8"/>
      </defs>
      <g>
       <use xlink:href="#mf3777c6062" x="51.690488" y="236.115656" style="stroke: #000000; stroke-width: 0.8"/>
      </g>
     </g>
     <g id="text_1">
      <!-- 0 -->
      <g transform="translate(48.509238 250.714094) scale(0.1 -0.1)">
       <defs>
        <path id="DejaVuSans-30" d="M 2034 4250 
Q 1547 4250 1301 3770 
Q 1056 3291 1056 2328 
Q 1056 1369 1301 889 
Q 1547 409 2034 409 
Q 2525 409 2770 889 
Q 3016 1369 3016 2328 
Q 3016 3291 2770 3770 
Q 2525 4250 2034 4250 
z
M 2034 4750 
Q 2819 4750 3233 4129 
Q 3647 3509 3647 2328 
Q 3647 1150 3233 529 
Q 2819 -91 2034 -91 
Q 1250 -91 836 529 
Q 422 1150 422 2328 
Q 422 3509 836 4129 
Q 1250 4750 2034 4750 
z
" transform="scale(0.015625)"/>
       </defs>
       <use xlink:href="#DejaVuSans-30"/>
      </g>
     </g>
    </g>
    <g id="xtick_2">
     <g id="line2d_2">
      <g>
       <use xlink:href="#mf3777c6062" x="85.685131" y="236.115656" style="stroke: #000000; stroke-width: 0.8"/>
      </g>
     </g>
     <g id="text_2">
      <!-- 200 -->
      <g transform="translate(76.141381 250.714094) scale(0.1 -0.1)">
       <defs>
        <path id="DejaVuSans-32" d="M 1228 531 
L 3431 531 
L 3431 0 
L 469 0 
L 469 531 
Q 828 903 1448 1529 
Q 2069 2156 2228 2338 
Q 2531 2678 2651 2914 
Q 2772 3150 2772 3378 
Q 2772 3750 2511 3984 
Q 2250 4219 1831 4219 
Q 1534 4219 1204 4116 
Q 875 4013 500 3803 
L 500 4441 
Q 881 4594 1212 4672 
Q 1544 4750 1819 4750 
Q 2544 4750 2975 4387 
Q 3406 4025 3406 3419 
Q 3406 3131 3298 2873 
Q 3191 2616 2906 2266 
Q 2828 2175 2409 1742 
Q 1991 1309 1228 531 
z
" transform="scale(0.015625)"/>
       </defs>
       <use xlink:href="#DejaVuSans-32"/>
       <use xlink:href="#DejaVuSans-30" transform="translate(63.623047 0)"/>
       <use xlink:href="#DejaVuSans-30" transform="translate(127.246094 0)"/>
      </g>
     </g>
    </g>
    <g id="xtick_3">
     <g id="line2d_3">
      <g>
       <use xlink:href="#mf3777c6062" x="119.679773" y="236.115656" style="stroke: #000000; stroke-width: 0.8"/>
      </g>
     </g>
     <g id="text_3">
      <!-- 400 -->
      <g transform="translate(110.136023 250.714094) scale(0.1 -0.1)">
       <defs>
        <path id="DejaVuSans-34" d="M 2419 4116 
L 825 1625 
L 2419 1625 
L 2419 4116 
z
M 2253 4666 
L 3047 4666 
L 3047 1625 
L 3713 1625 
L 3713 1100 
L 3047 1100 
L 3047 0 
L 2419 0 
L 2419 1100 
L 313 1100 
L 313 1709 
L 2253 4666 
z
" transform="scale(0.015625)"/>
       </defs>
       <use xlink:href="#DejaVuSans-34"/>
       <use xlink:href="#DejaVuSans-30" transform="translate(63.623047 0)"/>
       <use xlink:href="#DejaVuSans-30" transform="translate(127.246094 0)"/>
      </g>
     </g>
    </g>
    <g id="xtick_4">
     <g id="line2d_4">
      <g>
       <use xlink:href="#mf3777c6062" x="153.674415" y="236.115656" style="stroke: #000000; stroke-width: 0.8"/>
      </g>
     </g>
     <g id="text_4">
      <!-- 600 -->
      <g transform="translate(144.130665 250.714094) scale(0.1 -0.1)">
       <defs>
        <path id="DejaVuSans-36" d="M 2113 2584 
Q 1688 2584 1439 2293 
Q 1191 2003 1191 1497 
Q 1191 994 1439 701 
Q 1688 409 2113 409 
Q 2538 409 2786 701 
Q 3034 994 3034 1497 
Q 3034 2003 2786 2293 
Q 2538 2584 2113 2584 
z
M 3366 4563 
L 3366 3988 
Q 3128 4100 2886 4159 
Q 2644 4219 2406 4219 
Q 1781 4219 1451 3797 
Q 1122 3375 1075 2522 
Q 1259 2794 1537 2939 
Q 1816 3084 2150 3084 
Q 2853 3084 3261 2657 
Q 3669 2231 3669 1497 
Q 3669 778 3244 343 
Q 2819 -91 2113 -91 
Q 1303 -91 875 529 
Q 447 1150 447 2328 
Q 447 3434 972 4092 
Q 1497 4750 2381 4750 
Q 2619 4750 2861 4703 
Q 3103 4656 3366 4563 
z
" transform="scale(0.015625)"/>
       </defs>
       <use xlink:href="#DejaVuSans-36"/>
       <use xlink:href="#DejaVuSans-30" transform="translate(63.623047 0)"/>
       <use xlink:href="#DejaVuSans-30" transform="translate(127.246094 0)"/>
      </g>
     </g>
    </g>
    <g id="xtick_5">
     <g id="line2d_5">
      <g>
       <use xlink:href="#mf3777c6062" x="187.669058" y="236.115656" style="stroke: #000000; stroke-width: 0.8"/>
      </g>
     </g>
     <g id="text_5">
      <!-- 800 -->
      <g transform="translate(178.125308 250.714094) scale(0.1 -0.1)">
       <defs>
        <path id="DejaVuSans-38" d="M 2034 2216 
Q 1584 2216 1326 1975 
Q 1069 1734 1069 1313 
Q 1069 891 1326 650 
Q 1584 409 2034 409 
Q 2484 409 2743 651 
Q 3003 894 3003 1313 
Q 3003 1734 2745 1975 
Q 2488 2216 2034 2216 
z
M 1403 2484 
Q 997 2584 770 2862 
Q 544 3141 544 3541 
Q 544 4100 942 4425 
Q 1341 4750 2034 4750 
Q 2731 4750 3128 4425 
Q 3525 4100 3525 3541 
Q 3525 3141 3298 2862 
Q 3072 2584 2669 2484 
Q 3125 2378 3379 2068 
Q 3634 1759 3634 1313 
Q 3634 634 3220 271 
Q 2806 -91 2034 -91 
Q 1263 -91 848 271 
Q 434 634 434 1313 
Q 434 1759 690 2068 
Q 947 2378 1403 2484 
z
M 1172 3481 
Q 1172 3119 1398 2916 
Q 1625 2713 2034 2713 
Q 2441 2713 2670 2916 
Q 2900 3119 2900 3481 
Q 2900 3844 2670 4047 
Q 2441 4250 2034 4250 
Q 1625 4250 1398 4047 
Q 1172 3844 1172 3481 
z
" transform="scale(0.015625)"/>
       </defs>
       <use xlink:href="#DejaVuSans-38"/>
       <use xlink:href="#DejaVuSans-30" transform="translate(63.623047 0)"/>
       <use xlink:href="#DejaVuSans-30" transform="translate(127.246094 0)"/>
      </g>
     </g>
    </g>
    <g id="xtick_6">
     <g id="line2d_6">
      <g>
       <use xlink:href="#mf3777c6062" x="221.6637" y="236.115656" style="stroke: #000000; stroke-width: 0.8"/>
      </g>
     </g>
     <g id="text_6">
      <!-- 1000 -->
      <g transform="translate(208.9387 250.714094) scale(0.1 -0.1)">
       <defs>
        <path id="DejaVuSans-31" d="M 794 531 
L 1825 531 
L 1825 4091 
L 703 3866 
L 703 4441 
L 1819 4666 
L 2450 4666 
L 2450 531 
L 3481 531 
L 3481 0 
L 794 0 
L 794 531 
z
" transform="scale(0.015625)"/>
       </defs>
       <use xlink:href="#DejaVuSans-31"/>
       <use xlink:href="#DejaVuSans-30" transform="translate(63.623047 0)"/>
       <use xlink:href="#DejaVuSans-30" transform="translate(127.246094 0)"/>
       <use xlink:href="#DejaVuSans-30" transform="translate(190.869141 0)"/>
      </g>
     </g>
    </g>
    <g id="xtick_7">
     <g id="line2d_7">
      <g>
       <use xlink:href="#mf3777c6062" x="255.658342" y="236.115656" style="stroke: #000000; stroke-width: 0.8"/>
      </g>
     </g>
     <g id="text_7">
      <!-- 1200 -->
      <g transform="translate(242.933342 250.714094) scale(0.1 -0.1)">
       <use xlink:href="#DejaVuSans-31"/>
       <use xlink:href="#DejaVuSans-32" transform="translate(63.623047 0)"/>
       <use xlink:href="#DejaVuSans-30" transform="translate(127.246094 0)"/>
       <use xlink:href="#DejaVuSans-30" transform="translate(190.869141 0)"/>
      </g>
     </g>
    </g>
    <g id="xtick_8">
     <g id="line2d_8">
      <g>
       <use xlink:href="#mf3777c6062" x="289.652985" y="236.115656" style="stroke: #000000; stroke-width: 0.8"/>
      </g>
     </g>
     <g id="text_8">
      <!-- 1400 -->
      <g transform="translate(276.927985 250.714094) scale(0.1 -0.1)">
       <use xlink:href="#DejaVuSans-31"/>
       <use xlink:href="#DejaVuSans-34" transform="translate(63.623047 0)"/>
       <use xlink:href="#DejaVuSans-30" transform="translate(127.246094 0)"/>
       <use xlink:href="#DejaVuSans-30" transform="translate(190.869141 0)"/>
      </g>
     </g>
    </g>
    <g id="text_9">
     <!-- PPFD / (µmol $m^{-2}\ s^{-1})$ -->
     <g transform="translate(127.619727 265.893781) scale(0.1 -0.1)">
      <defs>
       <path id="DejaVuSans-50" d="M 1259 4147 
L 1259 2394 
L 2053 2394 
Q 2494 2394 2734 2622 
Q 2975 2850 2975 3272 
Q 2975 3691 2734 3919 
Q 2494 4147 2053 4147 
L 1259 4147 
z
M 628 4666 
L 2053 4666 
Q 2838 4666 3239 4311 
Q 3641 3956 3641 3272 
Q 3641 2581 3239 2228 
Q 2838 1875 2053 1875 
L 1259 1875 
L 1259 0 
L 628 0 
L 628 4666 
z
" transform="scale(0.015625)"/>
       <path id="DejaVuSans-46" d="M 628 4666 
L 3309 4666 
L 3309 4134 
L 1259 4134 
L 1259 2759 
L 3109 2759 
L 3109 2228 
L 1259 2228 
L 1259 0 
L 628 0 
L 628 4666 
z
" transform="scale(0.015625)"/>
       <path id="DejaVuSans-44" d="M 1259 4147 
L 1259 519 
L 2022 519 
Q 2988 519 3436 956 
Q 3884 1394 3884 2338 
Q 3884 3275 3436 3711 
Q 2988 4147 2022 4147 
L 1259 4147 
z
M 628 4666 
L 1925 4666 
Q 3281 4666 3915 4102 
Q 4550 3538 4550 2338 
Q 4550 1131 3912 565 
Q 3275 0 1925 0 
L 628 0 
L 628 4666 
z
" transform="scale(0.015625)"/>
       <path id="DejaVuSans-20" transform="scale(0.015625)"/>
       <path id="DejaVuSans-2f" d="M 1625 4666 
L 2156 4666 
L 531 -594 
L 0 -594 
L 1625 4666 
z
" transform="scale(0.015625)"/>
       <path id="DejaVuSans-28" d="M 1984 4856 
Q 1566 4138 1362 3434 
Q 1159 2731 1159 2009 
Q 1159 1288 1364 580 
Q 1569 -128 1984 -844 
L 1484 -844 
Q 1016 -109 783 600 
Q 550 1309 550 2009 
Q 550 2706 781 3412 
Q 1013 4119 1484 4856 
L 1984 4856 
z
" transform="scale(0.015625)"/>
       <path id="DejaVuSans-b5" d="M 544 -1331 
L 544 3500 
L 1119 3500 
L 1119 1325 
Q 1119 872 1334 640 
Q 1550 409 1972 409 
Q 2434 409 2667 671 
Q 2900 934 2900 1459 
L 2900 3500 
L 3475 3500 
L 3475 806 
Q 3475 619 3529 530 
Q 3584 441 3700 441 
Q 3728 441 3778 458 
Q 3828 475 3916 513 
L 3916 50 
Q 3788 -22 3673 -56 
Q 3559 -91 3450 -91 
Q 3234 -91 3106 31 
Q 2978 153 2931 403 
Q 2775 156 2548 32 
Q 2322 -91 2016 -91 
Q 1697 -91 1473 31 
Q 1250 153 1119 397 
L 1119 -1331 
L 544 -1331 
z
" transform="scale(0.015625)"/>
       <path id="DejaVuSans-6d" d="M 3328 2828 
Q 3544 3216 3844 3400 
Q 4144 3584 4550 3584 
Q 5097 3584 5394 3201 
Q 5691 2819 5691 2113 
L 5691 0 
L 5113 0 
L 5113 2094 
Q 5113 2597 4934 2840 
Q 4756 3084 4391 3084 
Q 3944 3084 3684 2787 
Q 3425 2491 3425 1978 
L 3425 0 
L 2847 0 
L 2847 2094 
Q 2847 2600 2669 2842 
Q 2491 3084 2119 3084 
Q 1678 3084 1418 2786 
Q 1159 2488 1159 1978 
L 1159 0 
L 581 0 
L 581 3500 
L 1159 3500 
L 1159 2956 
Q 1356 3278 1631 3431 
Q 1906 3584 2284 3584 
Q 2666 3584 2933 3390 
Q 3200 3197 3328 2828 
z
" transform="scale(0.015625)"/>
       <path id="DejaVuSans-6f" d="M 1959 3097 
Q 1497 3097 1228 2736 
Q 959 2375 959 1747 
Q 959 1119 1226 758 
Q 1494 397 1959 397 
Q 2419 397 2687 759 
Q 2956 1122 2956 1747 
Q 2956 2369 2687 2733 
Q 2419 3097 1959 3097 
z
M 1959 3584 
Q 2709 3584 3137 3096 
Q 3566 2609 3566 1747 
Q 3566 888 3137 398 
Q 2709 -91 1959 -91 
Q 1206 -91 779 398 
Q 353 888 353 1747 
Q 353 2609 779 3096 
Q 1206 3584 1959 3584 
z
" transform="scale(0.015625)"/>
       <path id="DejaVuSans-6c" d="M 603 4863 
L 1178 4863 
L 1178 0 
L 603 0 
L 603 4863 
z
" transform="scale(0.015625)"/>
       <path id="DejaVuSans-Oblique-6d" d="M 5747 2113 
L 5338 0 
L 4763 0 
L 5166 2094 
Q 5191 2228 5203 2325 
Q 5216 2422 5216 2491 
Q 5216 2772 5059 2928 
Q 4903 3084 4622 3084 
Q 4203 3084 3875 2770 
Q 3547 2456 3450 1953 
L 3066 0 
L 2491 0 
L 2900 2094 
Q 2925 2209 2937 2307 
Q 2950 2406 2950 2484 
Q 2950 2769 2794 2926 
Q 2638 3084 2363 3084 
Q 1938 3084 1609 2770 
Q 1281 2456 1184 1953 
L 800 0 
L 225 0 
L 909 3500 
L 1484 3500 
L 1375 2956 
Q 1609 3263 1923 3423 
Q 2238 3584 2597 3584 
Q 2978 3584 3223 3384 
Q 3469 3184 3519 2828 
Q 3781 3197 4126 3390 
Q 4472 3584 4856 3584 
Q 5306 3584 5551 3325 
Q 5797 3066 5797 2591 
Q 5797 2488 5784 2364 
Q 5772 2241 5747 2113 
z
" transform="scale(0.015625)"/>
       <path id="DejaVuSans-2212" d="M 678 2272 
L 4684 2272 
L 4684 1741 
L 678 1741 
L 678 2272 
z
" transform="scale(0.015625)"/>
       <path id="DejaVuSans-Oblique-73" d="M 3200 3397 
L 3091 2853 
Q 2863 2978 2609 3040 
Q 2356 3103 2088 3103 
Q 1634 3103 1373 2948 
Q 1113 2794 1113 2528 
Q 1113 2219 1719 2053 
Q 1766 2041 1788 2034 
L 1972 1978 
Q 2547 1819 2739 1644 
Q 2931 1469 2931 1166 
Q 2931 609 2489 259 
Q 2047 -91 1331 -91 
Q 1053 -91 747 -37 
Q 441 16 72 128 
L 184 722 
Q 500 559 806 475 
Q 1113 391 1394 391 
Q 1816 391 2080 572 
Q 2344 753 2344 1031 
Q 2344 1331 1650 1516 
L 1591 1531 
L 1394 1581 
Q 956 1697 753 1886 
Q 550 2075 550 2369 
Q 550 2928 970 3256 
Q 1391 3584 2113 3584 
Q 2397 3584 2667 3537 
Q 2938 3491 3200 3397 
z
" transform="scale(0.015625)"/>
       <path id="DejaVuSans-29" d="M 513 4856 
L 1013 4856 
Q 1481 4119 1714 3412 
Q 1947 2706 1947 2009 
Q 1947 1309 1714 600 
Q 1481 -109 1013 -844 
L 513 -844 
Q 928 -128 1133 580 
Q 1338 1288 1338 2009 
Q 1338 2731 1133 3434 
Q 928 4138 513 4856 
z
" transform="scale(0.015625)"/>
      </defs>
      <use xlink:href="#DejaVuSans-50" transform="translate(0 0.765625)"/>
      <use xlink:href="#DejaVuSans-50" transform="translate(60.302734 0.765625)"/>
      <use xlink:href="#DejaVuSans-46" transform="translate(120.605469 0.765625)"/>
      <use xlink:href="#DejaVuSans-44" transform="translate(178.125 0.765625)"/>
      <use xlink:href="#DejaVuSans-20" transform="translate(255.126953 0.765625)"/>
      <use xlink:href="#DejaVuSans-2f" transform="translate(286.914062 0.765625)"/>
      <use xlink:href="#DejaVuSans-20" transform="translate(320.605469 0.765625)"/>
      <use xlink:href="#DejaVuSans-28" transform="translate(352.392578 0.765625)"/>
      <use xlink:href="#DejaVuSans-b5" transform="translate(391.40625 0.765625)"/>
      <use xlink:href="#DejaVuSans-6d" transform="translate(455.029297 0.765625)"/>
      <use xlink:href="#DejaVuSans-6f" transform="translate(552.441406 0.765625)"/>
      <use xlink:href="#DejaVuSans-6c" transform="translate(613.623047 0.765625)"/>
      <use xlink:href="#DejaVuSans-20" transform="translate(641.40625 0.765625)"/>
      <use xlink:href="#DejaVuSans-Oblique-6d" transform="translate(673.193359 0.765625)"/>
      <use xlink:href="#DejaVuSans-2212" transform="translate(775.255365 39.046875) scale(0.7)"/>
      <use xlink:href="#DejaVuSans-32" transform="translate(833.907708 39.046875) scale(0.7)"/>
      <use xlink:href="#DejaVuSans-Oblique-73" transform="translate(913.648595 0.765625)"/>
      <use xlink:href="#DejaVuSans-2212" transform="translate(970.3981 39.046875) scale(0.7)"/>
      <use xlink:href="#DejaVuSans-31" transform="translate(1029.050444 39.046875) scale(0.7)"/>
      <use xlink:href="#DejaVuSans-29" transform="translate(1076.320951 0.765625)"/>
     </g>
    </g>
   </g>
   <g id="matplotlib.axis_2">
    <g id="ytick_1">
     <g id="line2d_9">
      <defs>
       <path id="m3fe10f935a" d="M 0 0 
L -3.5 0 
" style="stroke: #000000; stroke-width: 0.8"/>
      </defs>
      <g>
       <use xlink:href="#m3fe10f935a" x="47.866091" y="229.312398" style="stroke: #000000; stroke-width: 0.8"/>
      </g>
     </g>
     <g id="text_10">
      <!-- 0 -->
      <g transform="translate(34.503591 233.111617) scale(0.1 -0.1)">
       <use xlink:href="#DejaVuSans-30"/>
      </g>
     </g>
    </g>
    <g id="ytick_2">
     <g id="line2d_10">
      <g>
       <use xlink:href="#m3fe10f935a" x="47.866091" y="203.606737" style="stroke: #000000; stroke-width: 0.8"/>
      </g>
     </g>
     <g id="text_11">
      <!-- 100 -->
      <g transform="translate(21.778591 207.405956) scale(0.1 -0.1)">
       <use xlink:href="#DejaVuSans-31"/>
       <use xlink:href="#DejaVuSans-30" transform="translate(63.623047 0)"/>
       <use xlink:href="#DejaVuSans-30" transform="translate(127.246094 0)"/>
      </g>
     </g>
    </g>
    <g id="ytick_3">
     <g id="line2d_11">
      <g>
       <use xlink:href="#m3fe10f935a" x="47.866091" y="177.901077" style="stroke: #000000; stroke-width: 0.8"/>
      </g>
     </g>
     <g id="text_12">
      <!-- 200 -->
      <g transform="translate(21.778591 181.700295) scale(0.1 -0.1)">
       <use xlink:href="#DejaVuSans-32"/>
       <use xlink:href="#DejaVuSans-30" transform="translate(63.623047 0)"/>
       <use xlink:href="#DejaVuSans-30" transform="translate(127.246094 0)"/>
      </g>
     </g>
    </g>
    <g id="ytick_4">
     <g id="line2d_12">
      <g>
       <use xlink:href="#m3fe10f935a" x="47.866091" y="152.195416" style="stroke: #000000; stroke-width: 0.8"/>
      </g>
     </g>
     <g id="text_13">
      <!-- 300 -->
      <g transform="translate(21.778591 155.994635) scale(0.1 -0.1)">
       <defs>
        <path id="DejaVuSans-33" d="M 2597 2516 
Q 3050 2419 3304 2112 
Q 3559 1806 3559 1356 
Q 3559 666 3084 287 
Q 2609 -91 1734 -91 
Q 1441 -91 1130 -33 
Q 819 25 488 141 
L 488 750 
Q 750 597 1062 519 
Q 1375 441 1716 441 
Q 2309 441 2620 675 
Q 2931 909 2931 1356 
Q 2931 1769 2642 2001 
Q 2353 2234 1838 2234 
L 1294 2234 
L 1294 2753 
L 1863 2753 
Q 2328 2753 2575 2939 
Q 2822 3125 2822 3475 
Q 2822 3834 2567 4026 
Q 2313 4219 1838 4219 
Q 1578 4219 1281 4162 
Q 984 4106 628 3988 
L 628 4550 
Q 988 4650 1302 4700 
Q 1616 4750 1894 4750 
Q 2613 4750 3031 4423 
Q 3450 4097 3450 3541 
Q 3450 3153 3228 2886 
Q 3006 2619 2597 2516 
z
" transform="scale(0.015625)"/>
       </defs>
       <use xlink:href="#DejaVuSans-33"/>
       <use xlink:href="#DejaVuSans-30" transform="translate(63.623047 0)"/>
       <use xlink:href="#DejaVuSans-30" transform="translate(127.246094 0)"/>
      </g>
     </g>
    </g>
    <g id="ytick_5">
     <g id="line2d_13">
      <g>
       <use xlink:href="#m3fe10f935a" x="47.866091" y="126.489756" style="stroke: #000000; stroke-width: 0.8"/>
      </g>
     </g>
     <g id="text_14">
      <!-- 400 -->
      <g transform="translate(21.778591 130.288974) scale(0.1 -0.1)">
       <use xlink:href="#DejaVuSans-34"/>
       <use xlink:href="#DejaVuSans-30" transform="translate(63.623047 0)"/>
       <use xlink:href="#DejaVuSans-30" transform="translate(127.246094 0)"/>
      </g>
     </g>
    </g>
    <g id="ytick_6">
     <g id="line2d_14">
      <g>
       <use xlink:href="#m3fe10f935a" x="47.866091" y="100.784095" style="stroke: #000000; stroke-width: 0.8"/>
      </g>
     </g>
     <g id="text_15">
      <!-- 500 -->
      <g transform="translate(21.778591 104.583314) scale(0.1 -0.1)">
       <defs>
        <path id="DejaVuSans-35" d="M 691 4666 
L 3169 4666 
L 3169 4134 
L 1269 4134 
L 1269 2991 
Q 1406 3038 1543 3061 
Q 1681 3084 1819 3084 
Q 2600 3084 3056 2656 
Q 3513 2228 3513 1497 
Q 3513 744 3044 326 
Q 2575 -91 1722 -91 
Q 1428 -91 1123 -41 
Q 819 9 494 109 
L 494 744 
Q 775 591 1075 516 
Q 1375 441 1709 441 
Q 2250 441 2565 725 
Q 2881 1009 2881 1497 
Q 2881 1984 2565 2268 
Q 2250 2553 1709 2553 
Q 1456 2553 1204 2497 
Q 953 2441 691 2322 
L 691 4666 
z
" transform="scale(0.015625)"/>
       </defs>
       <use xlink:href="#DejaVuSans-35"/>
       <use xlink:href="#DejaVuSans-30" transform="translate(63.623047 0)"/>
       <use xlink:href="#DejaVuSans-30" transform="translate(127.246094 0)"/>
      </g>
     </g>
    </g>
    <g id="ytick_7">
     <g id="line2d_15">
      <g>
       <use xlink:href="#m3fe10f935a" x="47.866091" y="75.078434" style="stroke: #000000; stroke-width: 0.8"/>
      </g>
     </g>
     <g id="text_16">
      <!-- 600 -->
      <g transform="translate(21.778591 78.877653) scale(0.1 -0.1)">
       <use xlink:href="#DejaVuSans-36"/>
       <use xlink:href="#DejaVuSans-30" transform="translate(63.623047 0)"/>
       <use xlink:href="#DejaVuSans-30" transform="translate(127.246094 0)"/>
      </g>
     </g>
    </g>
    <g id="ytick_8">
     <g id="line2d_16">
      <g>
       <use xlink:href="#m3fe10f935a" x="47.866091" y="49.372774" style="stroke: #000000; stroke-width: 0.8"/>
      </g>
     </g>
     <g id="text_17">
      <!-- 700 -->
      <g transform="translate(21.778591 53.171993) scale(0.1 -0.1)">
       <defs>
        <path id="DejaVuSans-37" d="M 525 4666 
L 3525 4666 
L 3525 4397 
L 1831 0 
L 1172 0 
L 2766 4134 
L 525 4134 
L 525 4666 
z
" transform="scale(0.015625)"/>
       </defs>
       <use xlink:href="#DejaVuSans-37"/>
       <use xlink:href="#DejaVuSans-30" transform="translate(63.623047 0)"/>
       <use xlink:href="#DejaVuSans-30" transform="translate(127.246094 0)"/>
      </g>
     </g>
    </g>
    <g id="text_18">
     <!-- mmol e$^-$ / mol Chl / s -->
     <g transform="translate(15.698903 187.185656) rotate(-90) scale(0.1 -0.1)">
      <defs>
       <path id="DejaVuSans-65" d="M 3597 1894 
L 3597 1613 
L 953 1613 
Q 991 1019 1311 708 
Q 1631 397 2203 397 
Q 2534 397 2845 478 
Q 3156 559 3463 722 
L 3463 178 
Q 3153 47 2828 -22 
Q 2503 -91 2169 -91 
Q 1331 -91 842 396 
Q 353 884 353 1716 
Q 353 2575 817 3079 
Q 1281 3584 2069 3584 
Q 2775 3584 3186 3129 
Q 3597 2675 3597 1894 
z
M 3022 2063 
Q 3016 2534 2758 2815 
Q 2500 3097 2075 3097 
Q 1594 3097 1305 2825 
Q 1016 2553 972 2059 
L 3022 2063 
z
" transform="scale(0.015625)"/>
       <path id="DejaVuSans-43" d="M 4122 4306 
L 4122 3641 
Q 3803 3938 3442 4084 
Q 3081 4231 2675 4231 
Q 1875 4231 1450 3742 
Q 1025 3253 1025 2328 
Q 1025 1406 1450 917 
Q 1875 428 2675 428 
Q 3081 428 3442 575 
Q 3803 722 4122 1019 
L 4122 359 
Q 3791 134 3420 21 
Q 3050 -91 2638 -91 
Q 1578 -91 968 557 
Q 359 1206 359 2328 
Q 359 3453 968 4101 
Q 1578 4750 2638 4750 
Q 3056 4750 3426 4639 
Q 3797 4528 4122 4306 
z
" transform="scale(0.015625)"/>
       <path id="DejaVuSans-68" d="M 3513 2113 
L 3513 0 
L 2938 0 
L 2938 2094 
Q 2938 2591 2744 2837 
Q 2550 3084 2163 3084 
Q 1697 3084 1428 2787 
Q 1159 2491 1159 1978 
L 1159 0 
L 581 0 
L 581 4863 
L 1159 4863 
L 1159 2956 
Q 1366 3272 1645 3428 
Q 1925 3584 2291 3584 
Q 2894 3584 3203 3211 
Q 3513 2838 3513 2113 
z
" transform="scale(0.015625)"/>
       <path id="DejaVuSans-73" d="M 2834 3397 
L 2834 2853 
Q 2591 2978 2328 3040 
Q 2066 3103 1784 3103 
Q 1356 3103 1142 2972 
Q 928 2841 928 2578 
Q 928 2378 1081 2264 
Q 1234 2150 1697 2047 
L 1894 2003 
Q 2506 1872 2764 1633 
Q 3022 1394 3022 966 
Q 3022 478 2636 193 
Q 2250 -91 1575 -91 
Q 1294 -91 989 -36 
Q 684 19 347 128 
L 347 722 
Q 666 556 975 473 
Q 1284 391 1588 391 
Q 1994 391 2212 530 
Q 2431 669 2431 922 
Q 2431 1156 2273 1281 
Q 2116 1406 1581 1522 
L 1381 1569 
Q 847 1681 609 1914 
Q 372 2147 372 2553 
Q 372 3047 722 3315 
Q 1072 3584 1716 3584 
Q 2034 3584 2315 3537 
Q 2597 3491 2834 3397 
z
" transform="scale(0.015625)"/>
      </defs>
      <use xlink:href="#DejaVuSans-6d" transform="translate(0 0.015625)"/>
      <use xlink:href="#DejaVuSans-6d" transform="translate(97.412109 0.015625)"/>
      <use xlink:href="#DejaVuSans-6f" transform="translate(194.824219 0.015625)"/>
      <use xlink:href="#DejaVuSans-6c" transform="translate(256.005859 0.015625)"/>
      <use xlink:href="#DejaVuSans-20" transform="translate(283.789062 0.015625)"/>
      <use xlink:href="#DejaVuSans-65" transform="translate(315.576172 0.015625)"/>
      <use xlink:href="#DejaVuSans-2212" transform="translate(391.694336 38.296875) scale(0.7)"/>
      <use xlink:href="#DejaVuSans-20" transform="translate(466.71875 0.015625)"/>
      <use xlink:href="#DejaVuSans-2f" transform="translate(498.505859 0.015625)"/>
      <use xlink:href="#DejaVuSans-20" transform="translate(532.197266 0.015625)"/>
      <use xlink:href="#DejaVuSans-6d" transform="translate(563.984375 0.015625)"/>
      <use xlink:href="#DejaVuSans-6f" transform="translate(661.396484 0.015625)"/>
      <use xlink:href="#DejaVuSans-6c" transform="translate(722.578125 0.015625)"/>
      <use xlink:href="#DejaVuSans-20" transform="translate(750.361328 0.015625)"/>
      <use xlink:href="#DejaVuSans-43" transform="translate(782.148438 0.015625)"/>
      <use xlink:href="#DejaVuSans-68" transform="translate(851.972656 0.015625)"/>
      <use xlink:href="#DejaVuSans-6c" transform="translate(915.351562 0.015625)"/>
      <use xlink:href="#DejaVuSans-20" transform="translate(943.134766 0.015625)"/>
      <use xlink:href="#DejaVuSans-2f" transform="translate(974.921875 0.015625)"/>
      <use xlink:href="#DejaVuSans-20" transform="translate(1008.613281 0.015625)"/>
      <use xlink:href="#DejaVuSans-73" transform="translate(1040.400391 0.015625)"/>
     </g>
    </g>
   </g>
   <g id="line2d_17">
    <path d="M 60.189149 213.619071 
L 72.536902 192.249231 
L 80.933374 178.154397 
L 88.342026 166.130384 
L 95.256768 155.333585 
L 101.6776 145.730655 
L 107.604522 137.262545 
L 108.592342 135.889865 
M 109.580162 134.528449 
L 115.013174 127.244467 
L 120.446185 120.309247 
L 125.879197 113.723476 
L 131.312208 107.483044 
L 132.793939 105.840105 
M 133.781759 104.758682 
L 139.21477 99.006274 
L 144.647782 93.57658 
L 148.599063 89.823765 
M 149.586883 88.91073 
L 151.562524 87.114359 
M 152.550344 86.230881 
L 157.983355 81.543463 
L 163.416367 77.138481 
L 168.849378 73.005452 
L 174.28239 69.135012 
L 176.75194 67.460285 
M 177.739761 66.804957 
L 183.172772 63.347264 
L 188.605784 60.133576 
L 194.038795 57.162206 
L 198.977897 54.702051 
L 201.941357 53.438315 
L 203.916998 52.817956 
L 205.892638 52.476123 
L 207.868279 52.380781 
L 210.33783 52.446976 
L 210.83174 52.268492 
L 212.80738 51.063511 
L 214.783021 50.219442 
L 217.746482 49.277761 
L 222.191673 48.147678 
L 228.118594 46.886594 
L 235.527246 45.540319 
L 244.417629 44.155534 
L 254.789742 42.777372 
L 266.149675 41.498182 
L 278.497428 40.330135 
L 291.833002 39.289245 
L 306.156396 38.398716 
L 306.650306 38.37202 
L 306.650306 38.37202 
" clip-path="url(#p3ab98608d7)" style="fill: none; stroke: #1f77b4; stroke-width: 2; stroke-linecap: square"/>
   </g>
   <g id="line2d_18">
    <path d="M 60.189149 218.536296 
L 68.091711 208.029575 
L 76.488183 197.20675 
L 84.390745 187.369256 
L 91.799397 178.502622 
L 98.714139 170.581477 
L 105.134971 163.564316 
L 108.592342 159.928866 
M 109.580162 158.909059 
L 115.507084 152.969491 
L 121.434005 147.340359 
L 127.360927 142.021544 
L 132.793939 137.414631 
M 133.781759 136.604163 
L 139.70868 131.913055 
L 145.635602 127.508763 
L 148.599063 125.410723 
M 149.586883 124.72645 
L 151.562524 123.380197 
M 152.550344 122.718113 
L 158.477265 118.896971 
L 164.404187 115.327601 
L 170.331109 112.000088 
L 176.75194 108.658077 
M 177.739761 108.167577 
L 184.160592 105.129571 
L 190.581424 102.347243 
L 196.508346 100.009421 
L 200.953537 98.464587 
L 203.423088 97.810783 
L 205.398728 97.507103 
L 207.868279 97.402541 
L 210.83174 97.401897 
L 213.795201 96.640512 
L 218.240392 95.815056 
L 225.649044 94.693088 
L 235.527246 93.432704 
L 247.38109 92.154288 
L 261.210573 90.894997 
L 277.509608 89.641882 
L 297.759923 88.320853 
L 306.650306 87.795496 
L 306.650306 87.795496 
" clip-path="url(#p3ab98608d7)" style="fill: none; stroke: #ff7f0e; stroke-width: 2; stroke-linecap: square"/>
   </g>
   <g id="line2d_19">
    <path d="M 60.189149 226.699293 
L 72.042992 224.269141 
L 93.281128 219.964791 
L 106.616701 217.485823 
L 108.592342 217.138841 
M 109.580162 216.96745 
L 121.927916 214.946467 
L 132.793939 213.355143 
M 133.781759 213.218985 
L 146.623422 211.572049 
L 148.599063 211.338235 
M 149.586883 211.223208 
L 151.562524 210.996868 
M 152.550344 210.885536 
L 166.379828 209.450236 
L 176.75194 208.516191 
M 177.739761 208.433272 
L 192.557065 207.310644 
L 203.423088 206.67326 
L 208.856099 206.593358 
L 210.83174 206.538976 
L 213.795201 206.086371 
L 217.746482 205.789849 
L 226.142954 205.423387 
L 241.454168 204.996208 
L 263.680124 204.60368 
L 289.363451 204.369722 
L 306.650306 204.340612 
L 306.650306 204.340612 
" clip-path="url(#p3ab98608d7)" style="fill: none; stroke: #2ca02c; stroke-width: 2; stroke-linecap: square"/>
   </g>
   <g id="patch_3">
    <path d="M 47.866091 236.115656 
L 47.866091 28.955656 
" style="fill: none; stroke: #000000; stroke-width: 0.8; stroke-linejoin: miter; stroke-linecap: square"/>
   </g>
   <g id="patch_4">
    <path d="M 318.973364 236.115656 
L 318.973364 28.955656 
" style="fill: none; stroke: #000000; stroke-width: 0.8; stroke-linejoin: miter; stroke-linecap: square"/>
   </g>
   <g id="patch_5">
    <path d="M 47.866091 236.115656 
L 318.973364 236.115656 
" style="fill: none; stroke: #000000; stroke-width: 0.8; stroke-linejoin: miter; stroke-linecap: square"/>
   </g>
   <g id="patch_6">
    <path d="M 47.866091 28.955656 
L 318.973364 28.955656 
" style="fill: none; stroke: #000000; stroke-width: 0.8; stroke-linejoin: miter; stroke-linecap: square"/>
   </g>
   <g id="text_19">
    <!-- A -->
    <g transform="translate(7.2 18.597656) scale(0.15 -0.15)">
     <defs>
      <path id="DejaVuSans-Bold-41" d="M 3419 850 
L 1538 850 
L 1241 0 
L 31 0 
L 1759 4666 
L 3194 4666 
L 4922 0 
L 3713 0 
L 3419 850 
z
M 1838 1716 
L 3116 1716 
L 2478 3572 
L 1838 1716 
z
" transform="scale(0.015625)"/>
     </defs>
     <use xlink:href="#DejaVuSans-Bold-41"/>
    </g>
   </g>
   <g id="text_20">
    <!-- Photosynthetic Electron Fluxes -->
    <g transform="translate(91.13879 22.955656) scale(0.12 -0.12)">
     <defs>
      <path id="DejaVuSans-74" d="M 1172 4494 
L 1172 3500 
L 2356 3500 
L 2356 3053 
L 1172 3053 
L 1172 1153 
Q 1172 725 1289 603 
Q 1406 481 1766 481 
L 2356 481 
L 2356 0 
L 1766 0 
Q 1100 0 847 248 
Q 594 497 594 1153 
L 594 3053 
L 172 3053 
L 172 3500 
L 594 3500 
L 594 4494 
L 1172 4494 
z
" transform="scale(0.015625)"/>
      <path id="DejaVuSans-79" d="M 2059 -325 
Q 1816 -950 1584 -1140 
Q 1353 -1331 966 -1331 
L 506 -1331 
L 506 -850 
L 844 -850 
Q 1081 -850 1212 -737 
Q 1344 -625 1503 -206 
L 1606 56 
L 191 3500 
L 800 3500 
L 1894 763 
L 2988 3500 
L 3597 3500 
L 2059 -325 
z
" transform="scale(0.015625)"/>
      <path id="DejaVuSans-6e" d="M 3513 2113 
L 3513 0 
L 2938 0 
L 2938 2094 
Q 2938 2591 2744 2837 
Q 2550 3084 2163 3084 
Q 1697 3084 1428 2787 
Q 1159 2491 1159 1978 
L 1159 0 
L 581 0 
L 581 3500 
L 1159 3500 
L 1159 2956 
Q 1366 3272 1645 3428 
Q 1925 3584 2291 3584 
Q 2894 3584 3203 3211 
Q 3513 2838 3513 2113 
z
" transform="scale(0.015625)"/>
      <path id="DejaVuSans-69" d="M 603 3500 
L 1178 3500 
L 1178 0 
L 603 0 
L 603 3500 
z
M 603 4863 
L 1178 4863 
L 1178 4134 
L 603 4134 
L 603 4863 
z
" transform="scale(0.015625)"/>
      <path id="DejaVuSans-63" d="M 3122 3366 
L 3122 2828 
Q 2878 2963 2633 3030 
Q 2388 3097 2138 3097 
Q 1578 3097 1268 2742 
Q 959 2388 959 1747 
Q 959 1106 1268 751 
Q 1578 397 2138 397 
Q 2388 397 2633 464 
Q 2878 531 3122 666 
L 3122 134 
Q 2881 22 2623 -34 
Q 2366 -91 2075 -91 
Q 1284 -91 818 406 
Q 353 903 353 1747 
Q 353 2603 823 3093 
Q 1294 3584 2113 3584 
Q 2378 3584 2631 3529 
Q 2884 3475 3122 3366 
z
" transform="scale(0.015625)"/>
      <path id="DejaVuSans-45" d="M 628 4666 
L 3578 4666 
L 3578 4134 
L 1259 4134 
L 1259 2753 
L 3481 2753 
L 3481 2222 
L 1259 2222 
L 1259 531 
L 3634 531 
L 3634 0 
L 628 0 
L 628 4666 
z
" transform="scale(0.015625)"/>
      <path id="DejaVuSans-72" d="M 2631 2963 
Q 2534 3019 2420 3045 
Q 2306 3072 2169 3072 
Q 1681 3072 1420 2755 
Q 1159 2438 1159 1844 
L 1159 0 
L 581 0 
L 581 3500 
L 1159 3500 
L 1159 2956 
Q 1341 3275 1631 3429 
Q 1922 3584 2338 3584 
Q 2397 3584 2469 3576 
Q 2541 3569 2628 3553 
L 2631 2963 
z
" transform="scale(0.015625)"/>
      <path id="DejaVuSans-75" d="M 544 1381 
L 544 3500 
L 1119 3500 
L 1119 1403 
Q 1119 906 1312 657 
Q 1506 409 1894 409 
Q 2359 409 2629 706 
Q 2900 1003 2900 1516 
L 2900 3500 
L 3475 3500 
L 3475 0 
L 2900 0 
L 2900 538 
Q 2691 219 2414 64 
Q 2138 -91 1772 -91 
Q 1169 -91 856 284 
Q 544 659 544 1381 
z
M 1991 3584 
L 1991 3584 
z
" transform="scale(0.015625)"/>
      <path id="DejaVuSans-78" d="M 3513 3500 
L 2247 1797 
L 3578 0 
L 2900 0 
L 1881 1375 
L 863 0 
L 184 0 
L 1544 1831 
L 300 3500 
L 978 3500 
L 1906 2253 
L 2834 3500 
L 3513 3500 
z
" transform="scale(0.015625)"/>
     </defs>
     <use xlink:href="#DejaVuSans-50"/>
     <use xlink:href="#DejaVuSans-68" transform="translate(60.302734 0)"/>
     <use xlink:href="#DejaVuSans-6f" transform="translate(123.681641 0)"/>
     <use xlink:href="#DejaVuSans-74" transform="translate(184.863281 0)"/>
     <use xlink:href="#DejaVuSans-6f" transform="translate(224.072266 0)"/>
     <use xlink:href="#DejaVuSans-73" transform="translate(285.253906 0)"/>
     <use xlink:href="#DejaVuSans-79" transform="translate(337.353516 0)"/>
     <use xlink:href="#DejaVuSans-6e" transform="translate(396.533203 0)"/>
     <use xlink:href="#DejaVuSans-74" transform="translate(459.912109 0)"/>
     <use xlink:href="#DejaVuSans-68" transform="translate(499.121094 0)"/>
     <use xlink:href="#DejaVuSans-65" transform="translate(562.5 0)"/>
     <use xlink:href="#DejaVuSans-74" transform="translate(624.023438 0)"/>
     <use xlink:href="#DejaVuSans-69" transform="translate(663.232422 0)"/>
     <use xlink:href="#DejaVuSans-63" transform="translate(691.015625 0)"/>
     <use xlink:href="#DejaVuSans-20" transform="translate(745.996094 0)"/>
     <use xlink:href="#DejaVuSans-45" transform="translate(777.783203 0)"/>
     <use xlink:href="#DejaVuSans-6c" transform="translate(840.966797 0)"/>
     <use xlink:href="#DejaVuSans-65" transform="translate(868.75 0)"/>
     <use xlink:href="#DejaVuSans-63" transform="translate(930.273438 0)"/>
     <use xlink:href="#DejaVuSans-74" transform="translate(985.253906 0)"/>
     <use xlink:href="#DejaVuSans-72" transform="translate(1024.462891 0)"/>
     <use xlink:href="#DejaVuSans-6f" transform="translate(1063.326172 0)"/>
     <use xlink:href="#DejaVuSans-6e" transform="translate(1124.507812 0)"/>
     <use xlink:href="#DejaVuSans-20" transform="translate(1187.886719 0)"/>
     <use xlink:href="#DejaVuSans-46" transform="translate(1219.673828 0)"/>
     <use xlink:href="#DejaVuSans-6c" transform="translate(1277.193359 0)"/>
     <use xlink:href="#DejaVuSans-75" transform="translate(1304.976562 0)"/>
     <use xlink:href="#DejaVuSans-78" transform="translate(1368.355469 0)"/>
     <use xlink:href="#DejaVuSans-65" transform="translate(1424.410156 0)"/>
     <use xlink:href="#DejaVuSans-73" transform="translate(1485.933594 0)"/>
    </g>
   </g>
   <g id="legend_1">
    <g id="patch_7">
     <path d="M 54.866091 80.990031 
L 105.919216 80.990031 
Q 107.919216 80.990031 107.919216 78.990031 
L 107.919216 35.955656 
Q 107.919216 33.955656 105.919216 33.955656 
L 54.866091 33.955656 
Q 52.866091 33.955656 52.866091 35.955656 
L 52.866091 78.990031 
Q 52.866091 80.990031 54.866091 80.990031 
z
" style="fill: #ffffff; opacity: 0.8; stroke: #cccccc; stroke-linejoin: miter"/>
    </g>
    <g id="line2d_20">
     <path d="M 56.866091 42.054094 
L 66.866091 42.054094 
L 76.866091 42.054094 
" style="fill: none; stroke: #1f77b4; stroke-width: 2; stroke-linecap: square"/>
    </g>
    <g id="text_21">
     <!-- PSI -->
     <g transform="translate(84.866091 45.554094) scale(0.1 -0.1)">
      <defs>
       <path id="DejaVuSans-53" d="M 3425 4513 
L 3425 3897 
Q 3066 4069 2747 4153 
Q 2428 4238 2131 4238 
Q 1616 4238 1336 4038 
Q 1056 3838 1056 3469 
Q 1056 3159 1242 3001 
Q 1428 2844 1947 2747 
L 2328 2669 
Q 3034 2534 3370 2195 
Q 3706 1856 3706 1288 
Q 3706 609 3251 259 
Q 2797 -91 1919 -91 
Q 1588 -91 1214 -16 
Q 841 59 441 206 
L 441 856 
Q 825 641 1194 531 
Q 1563 422 1919 422 
Q 2459 422 2753 634 
Q 3047 847 3047 1241 
Q 3047 1584 2836 1778 
Q 2625 1972 2144 2069 
L 1759 2144 
Q 1053 2284 737 2584 
Q 422 2884 422 3419 
Q 422 4038 858 4394 
Q 1294 4750 2059 4750 
Q 2388 4750 2728 4690 
Q 3069 4631 3425 4513 
z
" transform="scale(0.015625)"/>
       <path id="DejaVuSans-49" d="M 628 4666 
L 1259 4666 
L 1259 0 
L 628 0 
L 628 4666 
z
" transform="scale(0.015625)"/>
      </defs>
      <use xlink:href="#DejaVuSans-50"/>
      <use xlink:href="#DejaVuSans-53" transform="translate(60.302734 0)"/>
      <use xlink:href="#DejaVuSans-49" transform="translate(123.779297 0)"/>
     </g>
    </g>
    <g id="line2d_21">
     <path d="M 56.866091 56.732219 
L 66.866091 56.732219 
L 76.866091 56.732219 
" style="fill: none; stroke: #ff7f0e; stroke-width: 2; stroke-linecap: square"/>
    </g>
    <g id="text_22">
     <!-- LEF -->
     <g transform="translate(84.866091 60.232219) scale(0.1 -0.1)">
      <defs>
       <path id="DejaVuSans-4c" d="M 628 4666 
L 1259 4666 
L 1259 531 
L 3531 531 
L 3531 0 
L 628 0 
L 628 4666 
z
" transform="scale(0.015625)"/>
      </defs>
      <use xlink:href="#DejaVuSans-4c"/>
      <use xlink:href="#DejaVuSans-45" transform="translate(55.712891 0)"/>
      <use xlink:href="#DejaVuSans-46" transform="translate(118.896484 0)"/>
     </g>
    </g>
    <g id="line2d_22">
     <path d="M 56.866091 71.410344 
L 66.866091 71.410344 
L 76.866091 71.410344 
" style="fill: none; stroke: #2ca02c; stroke-width: 2; stroke-linecap: square"/>
    </g>
    <g id="text_23">
     <!-- CEF -->
     <g transform="translate(84.866091 74.910344) scale(0.1 -0.1)">
      <use xlink:href="#DejaVuSans-43"/>
      <use xlink:href="#DejaVuSans-45" transform="translate(69.824219 0)"/>
      <use xlink:href="#DejaVuSans-46" transform="translate(133.007812 0)"/>
     </g>
    </g>
   </g>
  </g>
  <g id="axes_2">
   <g id="patch_8">
    <path d="M 406.178818 236.115656 
L 677.286091 236.115656 
L 677.286091 28.955656 
L 406.178818 28.955656 
z
" style="fill: #ffffff"/>
   </g>
   <g id="matplotlib.axis_3">
    <g id="xtick_9">
     <g id="line2d_23">
      <g>
       <use xlink:href="#mf3777c6062" x="410.003215" y="236.115656" style="stroke: #000000; stroke-width: 0.8"/>
      </g>
     </g>
     <g id="text_24">
      <!-- 0 -->
      <g transform="translate(406.821965 250.714094) scale(0.1 -0.1)">
       <use xlink:href="#DejaVuSans-30"/>
      </g>
     </g>
    </g>
    <g id="xtick_10">
     <g id="line2d_24">
      <g>
       <use xlink:href="#mf3777c6062" x="443.997858" y="236.115656" style="stroke: #000000; stroke-width: 0.8"/>
      </g>
     </g>
     <g id="text_25">
      <!-- 200 -->
      <g transform="translate(434.454108 250.714094) scale(0.1 -0.1)">
       <use xlink:href="#DejaVuSans-32"/>
       <use xlink:href="#DejaVuSans-30" transform="translate(63.623047 0)"/>
       <use xlink:href="#DejaVuSans-30" transform="translate(127.246094 0)"/>
      </g>
     </g>
    </g>
    <g id="xtick_11">
     <g id="line2d_25">
      <g>
       <use xlink:href="#mf3777c6062" x="477.9925" y="236.115656" style="stroke: #000000; stroke-width: 0.8"/>
      </g>
     </g>
     <g id="text_26">
      <!-- 400 -->
      <g transform="translate(468.44875 250.714094) scale(0.1 -0.1)">
       <use xlink:href="#DejaVuSans-34"/>
       <use xlink:href="#DejaVuSans-30" transform="translate(63.623047 0)"/>
       <use xlink:href="#DejaVuSans-30" transform="translate(127.246094 0)"/>
      </g>
     </g>
    </g>
    <g id="xtick_12">
     <g id="line2d_26">
      <g>
       <use xlink:href="#mf3777c6062" x="511.987142" y="236.115656" style="stroke: #000000; stroke-width: 0.8"/>
      </g>
     </g>
     <g id="text_27">
      <!-- 600 -->
      <g transform="translate(502.443392 250.714094) scale(0.1 -0.1)">
       <use xlink:href="#DejaVuSans-36"/>
       <use xlink:href="#DejaVuSans-30" transform="translate(63.623047 0)"/>
       <use xlink:href="#DejaVuSans-30" transform="translate(127.246094 0)"/>
      </g>
     </g>
    </g>
    <g id="xtick_13">
     <g id="line2d_27">
      <g>
       <use xlink:href="#mf3777c6062" x="545.981785" y="236.115656" style="stroke: #000000; stroke-width: 0.8"/>
      </g>
     </g>
     <g id="text_28">
      <!-- 800 -->
      <g transform="translate(536.438035 250.714094) scale(0.1 -0.1)">
       <use xlink:href="#DejaVuSans-38"/>
       <use xlink:href="#DejaVuSans-30" transform="translate(63.623047 0)"/>
       <use xlink:href="#DejaVuSans-30" transform="translate(127.246094 0)"/>
      </g>
     </g>
    </g>
    <g id="xtick_14">
     <g id="line2d_28">
      <g>
       <use xlink:href="#mf3777c6062" x="579.976427" y="236.115656" style="stroke: #000000; stroke-width: 0.8"/>
      </g>
     </g>
     <g id="text_29">
      <!-- 1000 -->
      <g transform="translate(567.251427 250.714094) scale(0.1 -0.1)">
       <use xlink:href="#DejaVuSans-31"/>
       <use xlink:href="#DejaVuSans-30" transform="translate(63.623047 0)"/>
       <use xlink:href="#DejaVuSans-30" transform="translate(127.246094 0)"/>
       <use xlink:href="#DejaVuSans-30" transform="translate(190.869141 0)"/>
      </g>
     </g>
    </g>
    <g id="xtick_15">
     <g id="line2d_29">
      <g>
       <use xlink:href="#mf3777c6062" x="613.97107" y="236.115656" style="stroke: #000000; stroke-width: 0.8"/>
      </g>
     </g>
     <g id="text_30">
      <!-- 1200 -->
      <g transform="translate(601.24607 250.714094) scale(0.1 -0.1)">
       <use xlink:href="#DejaVuSans-31"/>
       <use xlink:href="#DejaVuSans-32" transform="translate(63.623047 0)"/>
       <use xlink:href="#DejaVuSans-30" transform="translate(127.246094 0)"/>
       <use xlink:href="#DejaVuSans-30" transform="translate(190.869141 0)"/>
      </g>
     </g>
    </g>
    <g id="xtick_16">
     <g id="line2d_30">
      <g>
       <use xlink:href="#mf3777c6062" x="647.965712" y="236.115656" style="stroke: #000000; stroke-width: 0.8"/>
      </g>
     </g>
     <g id="text_31">
      <!-- 1400 -->
      <g transform="translate(635.240712 250.714094) scale(0.1 -0.1)">
       <use xlink:href="#DejaVuSans-31"/>
       <use xlink:href="#DejaVuSans-34" transform="translate(63.623047 0)"/>
       <use xlink:href="#DejaVuSans-30" transform="translate(127.246094 0)"/>
       <use xlink:href="#DejaVuSans-30" transform="translate(190.869141 0)"/>
      </g>
     </g>
    </g>
    <g id="text_32">
     <!-- PPFD / (µmol $m^{-2}\ s^{-1})$ -->
     <g transform="translate(485.932455 265.893781) scale(0.1 -0.1)">
      <use xlink:href="#DejaVuSans-50" transform="translate(0 0.765625)"/>
      <use xlink:href="#DejaVuSans-50" transform="translate(60.302734 0.765625)"/>
      <use xlink:href="#DejaVuSans-46" transform="translate(120.605469 0.765625)"/>
      <use xlink:href="#DejaVuSans-44" transform="translate(178.125 0.765625)"/>
      <use xlink:href="#DejaVuSans-20" transform="translate(255.126953 0.765625)"/>
      <use xlink:href="#DejaVuSans-2f" transform="translate(286.914062 0.765625)"/>
      <use xlink:href="#DejaVuSans-20" transform="translate(320.605469 0.765625)"/>
      <use xlink:href="#DejaVuSans-28" transform="translate(352.392578 0.765625)"/>
      <use xlink:href="#DejaVuSans-b5" transform="translate(391.40625 0.765625)"/>
      <use xlink:href="#DejaVuSans-6d" transform="translate(455.029297 0.765625)"/>
      <use xlink:href="#DejaVuSans-6f" transform="translate(552.441406 0.765625)"/>
      <use xlink:href="#DejaVuSans-6c" transform="translate(613.623047 0.765625)"/>
      <use xlink:href="#DejaVuSans-20" transform="translate(641.40625 0.765625)"/>
      <use xlink:href="#DejaVuSans-Oblique-6d" transform="translate(673.193359 0.765625)"/>
      <use xlink:href="#DejaVuSans-2212" transform="translate(775.255365 39.046875) scale(0.7)"/>
      <use xlink:href="#DejaVuSans-32" transform="translate(833.907708 39.046875) scale(0.7)"/>
      <use xlink:href="#DejaVuSans-Oblique-73" transform="translate(913.648595 0.765625)"/>
      <use xlink:href="#DejaVuSans-2212" transform="translate(970.3981 39.046875) scale(0.7)"/>
      <use xlink:href="#DejaVuSans-31" transform="translate(1029.050444 39.046875) scale(0.7)"/>
      <use xlink:href="#DejaVuSans-29" transform="translate(1076.320951 0.765625)"/>
     </g>
    </g>
   </g>
   <g id="matplotlib.axis_4">
    <g id="ytick_9">
     <g id="line2d_31">
      <g>
       <use xlink:href="#m3fe10f935a" x="406.178818" y="196.799284" style="stroke: #000000; stroke-width: 0.8"/>
      </g>
     </g>
     <g id="text_33">
      <!-- 0.2 -->
      <g transform="translate(383.275693 200.598503) scale(0.1 -0.1)">
       <defs>
        <path id="DejaVuSans-2e" d="M 684 794 
L 1344 794 
L 1344 0 
L 684 0 
L 684 794 
z
" transform="scale(0.015625)"/>
       </defs>
       <use xlink:href="#DejaVuSans-30"/>
       <use xlink:href="#DejaVuSans-2e" transform="translate(63.623047 0)"/>
       <use xlink:href="#DejaVuSans-32" transform="translate(95.410156 0)"/>
      </g>
     </g>
    </g>
    <g id="ytick_10">
     <g id="line2d_32">
      <g>
       <use xlink:href="#m3fe10f935a" x="406.178818" y="154.972736" style="stroke: #000000; stroke-width: 0.8"/>
      </g>
     </g>
     <g id="text_34">
      <!-- 0.4 -->
      <g transform="translate(383.275693 158.771954) scale(0.1 -0.1)">
       <use xlink:href="#DejaVuSans-30"/>
       <use xlink:href="#DejaVuSans-2e" transform="translate(63.623047 0)"/>
       <use xlink:href="#DejaVuSans-34" transform="translate(95.410156 0)"/>
      </g>
     </g>
    </g>
    <g id="ytick_11">
     <g id="line2d_33">
      <g>
       <use xlink:href="#m3fe10f935a" x="406.178818" y="113.146187" style="stroke: #000000; stroke-width: 0.8"/>
      </g>
     </g>
     <g id="text_35">
      <!-- 0.6 -->
      <g transform="translate(383.275693 116.945406) scale(0.1 -0.1)">
       <use xlink:href="#DejaVuSans-30"/>
       <use xlink:href="#DejaVuSans-2e" transform="translate(63.623047 0)"/>
       <use xlink:href="#DejaVuSans-36" transform="translate(95.410156 0)"/>
      </g>
     </g>
    </g>
    <g id="ytick_12">
     <g id="line2d_34">
      <g>
       <use xlink:href="#m3fe10f935a" x="406.178818" y="71.319638" style="stroke: #000000; stroke-width: 0.8"/>
      </g>
     </g>
     <g id="text_36">
      <!-- 0.8 -->
      <g transform="translate(383.275693 75.118857) scale(0.1 -0.1)">
       <use xlink:href="#DejaVuSans-30"/>
       <use xlink:href="#DejaVuSans-2e" transform="translate(63.623047 0)"/>
       <use xlink:href="#DejaVuSans-38" transform="translate(95.410156 0)"/>
      </g>
     </g>
    </g>
    <g id="ytick_13">
     <g id="line2d_35">
      <g>
       <use xlink:href="#m3fe10f935a" x="406.178818" y="29.49309" style="stroke: #000000; stroke-width: 0.8"/>
      </g>
     </g>
     <g id="text_37">
      <!-- 1.0 -->
      <g transform="translate(383.275693 33.292308) scale(0.1 -0.1)">
       <use xlink:href="#DejaVuSans-31"/>
       <use xlink:href="#DejaVuSans-2e" transform="translate(63.623047 0)"/>
       <use xlink:href="#DejaVuSans-30" transform="translate(95.410156 0)"/>
      </g>
     </g>
    </g>
    <g id="text_38">
     <!-- Fraction of the pool -->
     <g transform="translate(377.196006 180.96925) rotate(-90) scale(0.1 -0.1)">
      <defs>
       <path id="DejaVuSans-61" d="M 2194 1759 
Q 1497 1759 1228 1600 
Q 959 1441 959 1056 
Q 959 750 1161 570 
Q 1363 391 1709 391 
Q 2188 391 2477 730 
Q 2766 1069 2766 1631 
L 2766 1759 
L 2194 1759 
z
M 3341 1997 
L 3341 0 
L 2766 0 
L 2766 531 
Q 2569 213 2275 61 
Q 1981 -91 1556 -91 
Q 1019 -91 701 211 
Q 384 513 384 1019 
Q 384 1609 779 1909 
Q 1175 2209 1959 2209 
L 2766 2209 
L 2766 2266 
Q 2766 2663 2505 2880 
Q 2244 3097 1772 3097 
Q 1472 3097 1187 3025 
Q 903 2953 641 2809 
L 641 3341 
Q 956 3463 1253 3523 
Q 1550 3584 1831 3584 
Q 2591 3584 2966 3190 
Q 3341 2797 3341 1997 
z
" transform="scale(0.015625)"/>
       <path id="DejaVuSans-66" d="M 2375 4863 
L 2375 4384 
L 1825 4384 
Q 1516 4384 1395 4259 
Q 1275 4134 1275 3809 
L 1275 3500 
L 2222 3500 
L 2222 3053 
L 1275 3053 
L 1275 0 
L 697 0 
L 697 3053 
L 147 3053 
L 147 3500 
L 697 3500 
L 697 3744 
Q 697 4328 969 4595 
Q 1241 4863 1831 4863 
L 2375 4863 
z
" transform="scale(0.015625)"/>
       <path id="DejaVuSans-70" d="M 1159 525 
L 1159 -1331 
L 581 -1331 
L 581 3500 
L 1159 3500 
L 1159 2969 
Q 1341 3281 1617 3432 
Q 1894 3584 2278 3584 
Q 2916 3584 3314 3078 
Q 3713 2572 3713 1747 
Q 3713 922 3314 415 
Q 2916 -91 2278 -91 
Q 1894 -91 1617 61 
Q 1341 213 1159 525 
z
M 3116 1747 
Q 3116 2381 2855 2742 
Q 2594 3103 2138 3103 
Q 1681 3103 1420 2742 
Q 1159 2381 1159 1747 
Q 1159 1113 1420 752 
Q 1681 391 2138 391 
Q 2594 391 2855 752 
Q 3116 1113 3116 1747 
z
" transform="scale(0.015625)"/>
      </defs>
      <use xlink:href="#DejaVuSans-46"/>
      <use xlink:href="#DejaVuSans-72" transform="translate(50.269531 0)"/>
      <use xlink:href="#DejaVuSans-61" transform="translate(91.382812 0)"/>
      <use xlink:href="#DejaVuSans-63" transform="translate(152.662109 0)"/>
      <use xlink:href="#DejaVuSans-74" transform="translate(207.642578 0)"/>
      <use xlink:href="#DejaVuSans-69" transform="translate(246.851562 0)"/>
      <use xlink:href="#DejaVuSans-6f" transform="translate(274.634766 0)"/>
      <use xlink:href="#DejaVuSans-6e" transform="translate(335.816406 0)"/>
      <use xlink:href="#DejaVuSans-20" transform="translate(399.195312 0)"/>
      <use xlink:href="#DejaVuSans-6f" transform="translate(430.982422 0)"/>
      <use xlink:href="#DejaVuSans-66" transform="translate(492.164062 0)"/>
      <use xlink:href="#DejaVuSans-20" transform="translate(527.369141 0)"/>
      <use xlink:href="#DejaVuSans-74" transform="translate(559.15625 0)"/>
      <use xlink:href="#DejaVuSans-68" transform="translate(598.365234 0)"/>
      <use xlink:href="#DejaVuSans-65" transform="translate(661.744141 0)"/>
      <use xlink:href="#DejaVuSans-20" transform="translate(723.267578 0)"/>
      <use xlink:href="#DejaVuSans-70" transform="translate(755.054688 0)"/>
      <use xlink:href="#DejaVuSans-6f" transform="translate(818.53125 0)"/>
      <use xlink:href="#DejaVuSans-6f" transform="translate(879.712891 0)"/>
      <use xlink:href="#DejaVuSans-6c" transform="translate(940.894531 0)"/>
     </g>
    </g>
   </g>
   <g id="line2d_36">
    <path d="M 418.501876 108.024393 
L 419.489696 110.236661 
L 420.477517 112.02356 
L 421.959247 114.167606 
L 423.440977 115.865227 
L 424.922708 117.244264 
L 426.898348 118.715856 
L 428.873989 119.867759 
L 430.849629 120.770892 
L 433.31918 121.622063 
L 435.788731 122.2251 
L 438.752192 122.686765 
L 441.715652 122.918354 
L 445.173023 122.956556 
L 449.124304 122.758458 
L 453.569496 122.297199 
L 458.508597 121.560104 
L 464.435519 120.44382 
L 466.905069 119.920123 
M 467.892889 119.702383 
L 475.301541 117.939244 
L 483.698014 115.706453 
L 491.106666 113.555811 
M 492.094486 113.256707 
L 500.984868 110.43243 
L 506.91179 108.412687 
M 507.89961 108.064946 
L 509.875251 107.359667 
M 510.863071 107.002066 
L 519.259543 103.823858 
L 527.162106 100.593474 
L 535.064668 97.116056 
M 536.052488 96.663471 
L 543.95505 92.898174 
L 551.857612 88.883799 
L 561.241905 84.097751 
L 563.217545 83.390436 
L 565.193186 82.942527 
L 567.662737 82.656611 
L 569.144467 82.629551 
L 574.083568 83.066065 
L 584.455681 83.673275 
L 600.754716 84.396972 
L 621.498941 85.088371 
L 647.182268 85.711397 
L 664.963033 86.033059 
L 664.963033 86.033059 
" clip-path="url(#p6f7f0ec3d8)" style="fill: none; stroke: #1f77b4; stroke-width: 2; stroke-linecap: square"/>
   </g>
   <g id="line2d_37">
    <path d="M 418.501876 84.842375 
L 419.489696 86.886539 
L 420.477517 88.448103 
L 421.465337 89.656036 
L 422.453157 90.595597 
L 423.934888 91.626875 
L 425.416618 92.320683 
L 426.898348 92.766026 
L 428.873989 93.075626 
L 430.849629 93.147151 
L 433.31918 92.997688 
L 436.282641 92.572555 
L 439.740012 91.846664 
L 444.185203 90.675278 
L 450.112125 88.852706 
L 457.520777 86.323929 
L 466.905069 82.898911 
M 467.892889 82.529924 
L 491.106666 73.842882 
M 492.094486 73.484289 
L 502.960509 69.667896 
L 506.91179 68.348092 
M 507.89961 68.024479 
L 509.875251 67.385141 
M 510.863071 67.069491 
L 519.753454 64.354819 
L 528.643836 61.879588 
L 535.064668 60.247939 
M 536.052488 60.008782 
L 544.44896 58.105552 
L 552.351522 56.530685 
L 558.772354 55.455987 
L 561.735815 55.151495 
L 564.205366 55.142439 
L 567.168826 55.397422 
L 568.650557 55.560811 
L 569.144467 55.420319 
L 571.614018 54.117332 
L 574.083568 53.123038 
L 578.034849 51.791692 
L 583.467861 50.205556 
L 589.888693 48.561915 
L 597.297345 46.899494 
L 605.199907 45.350418 
L 614.090289 43.837778 
L 623.474582 42.463431 
L 633.846695 41.168353 
L 645.206628 39.977749 
L 657.554381 38.912037 
L 664.963033 38.37202 
L 664.963033 38.37202 
" clip-path="url(#p6f7f0ec3d8)" style="fill: none; stroke: #ff7f0e; stroke-width: 2; stroke-linecap: square"/>
   </g>
   <g id="line2d_38">
    <path d="M 418.501876 195.903818 
L 428.873989 182.64259 
L 433.31918 177.525107 
L 437.764371 172.729102 
L 442.703473 167.718231 
L 448.136484 162.529269 
L 454.063406 157.188463 
L 460.484237 151.714572 
L 466.905069 146.512847 
M 467.892889 145.734137 
L 475.301541 140.059751 
L 483.204104 134.303914 
L 491.106666 128.828928 
M 492.094486 128.163478 
L 499.997048 122.987317 
L 506.91179 118.670319 
M 507.89961 118.069662 
L 509.875251 116.880394 
M 510.863071 116.291789 
L 518.765633 111.728514 
L 526.668195 107.428407 
L 534.076847 103.645002 
L 535.064668 103.159319 
M 536.052488 102.678155 
L 543.46114 99.217353 
L 550.375882 96.235288 
L 556.302804 93.909509 
L 559.760174 92.765328 
L 561.735815 92.326 
L 563.217545 92.185384 
L 565.193186 92.26305 
L 567.662737 92.638555 
L 568.650557 92.806529 
L 569.144467 92.576464 
L 571.120108 90.787158 
L 573.095748 89.323111 
L 576.059209 87.423623 
L 580.99831 84.557371 
L 587.419142 81.094477 
L 595.321704 77.085253 
L 604.212087 72.828273 
L 613.596379 68.581226 
L 623.474582 64.356777 
L 633.352784 60.369704 
L 643.230987 56.614431 
L 653.10919 53.093839 
L 662.493482 49.976604 
L 664.963033 49.194991 
L 664.963033 49.194991 
" clip-path="url(#p6f7f0ec3d8)" style="fill: none; stroke: #2ca02c; stroke-width: 2; stroke-linecap: square"/>
   </g>
   <g id="line2d_39">
    <path d="M 418.501876 145.935909 
L 419.489696 147.382196 
L 420.477517 148.502059 
L 421.959247 149.76258 
L 423.440977 150.675218 
L 424.922708 151.345704 
L 426.898348 151.972459 
L 428.873989 152.379045 
L 431.34354 152.665215 
L 434.307 152.772004 
L 437.764371 152.657615 
L 441.715652 152.288599 
L 446.160844 151.632801 
L 451.099945 150.656396 
L 456.039046 149.456889 
L 461.472058 147.916738 
L 466.905069 146.183464 
M 467.892889 145.850692 
L 475.301541 143.218216 
L 485.673654 139.267998 
L 491.106666 137.148849 
M 492.094486 136.763225 
L 506.91179 131.086965 
M 507.89961 130.720821 
L 509.875251 129.994778 
M 510.863071 129.635025 
L 520.741274 126.172439 
L 529.631656 123.294894 
L 535.064668 121.660946 
M 536.052488 121.374572 
L 543.95505 119.207215 
L 551.857612 117.271643 
L 557.784534 116.023302 
L 560.747995 115.588654 
L 562.723635 115.506852 
L 564.699276 115.658108 
L 567.168826 116.086741 
L 568.650557 116.395446 
L 569.144467 116.326766 
L 572.601838 114.805343 
L 583.961771 109.585618 
L 590.876513 106.690783 
L 598.285165 103.83609 
L 606.187727 101.045429 
L 614.090289 98.487829 
L 622.486762 95.995641 
L 631.871054 93.451517 
L 641.749257 91.014185 
L 652.12137 88.687015 
L 662.987393 86.472267 
L 664.963033 86.091927 
L 664.963033 86.091927 
" clip-path="url(#p6f7f0ec3d8)" style="fill: none; stroke: #d62728; stroke-width: 2; stroke-linecap: square"/>
   </g>
   <g id="line2d_40">
    <path d="M 418.501876 95.09189 
L 420.477517 102.973753 
L 422.453157 110.027838 
L 424.922708 117.964442 
L 427.392258 125.132669 
L 429.861809 131.681319 
L 432.82527 138.863031 
L 435.788731 145.420517 
L 438.752192 151.439866 
L 441.715652 156.983798 
L 444.679113 162.099652 
L 447.642574 166.824466 
L 450.606035 171.188364 
L 454.063406 175.857282 
L 457.520777 180.10507 
L 460.978148 183.963894 
L 464.435519 187.463948 
L 466.905069 189.760395 
M 467.892889 190.634157 
L 471.35026 193.50244 
L 474.807631 196.095683 
L 478.265002 198.439569 
L 482.216283 200.844026 
L 486.167564 202.988095 
L 490.612756 205.127009 
L 491.106666 205.348458 
M 492.094486 205.782245 
L 496.539677 207.593314 
L 501.478779 209.36394 
L 506.91179 211.061933 
M 507.89961 211.345882 
L 509.875251 211.89293 
M 510.863071 212.156467 
L 516.789993 213.610508 
L 523.704735 215.068548 
L 531.113387 216.400193 
L 535.064668 217.029709 
M 536.052488 217.179365 
L 544.94287 218.404981 
L 555.314983 219.610422 
L 565.193186 220.767083 
L 569.638377 221.331026 
L 573.095748 221.60954 
L 593.346064 223.668649 
L 605.199907 224.546821 
L 618.53548 225.304768 
L 633.846695 225.948428 
L 651.133549 226.448446 
L 664.963033 226.699293 
L 664.963033 226.699293 
" clip-path="url(#p6f7f0ec3d8)" style="fill: none; stroke: #9467bd; stroke-width: 2; stroke-linecap: square"/>
   </g>
   <g id="patch_9">
    <path d="M 406.178818 236.115656 
L 406.178818 28.955656 
" style="fill: none; stroke: #000000; stroke-width: 0.8; stroke-linejoin: miter; stroke-linecap: square"/>
   </g>
   <g id="patch_10">
    <path d="M 677.286091 236.115656 
L 677.286091 28.955656 
" style="fill: none; stroke: #000000; stroke-width: 0.8; stroke-linejoin: miter; stroke-linecap: square"/>
   </g>
   <g id="patch_11">
    <path d="M 406.178818 236.115656 
L 677.286091 236.115656 
" style="fill: none; stroke: #000000; stroke-width: 0.8; stroke-linejoin: miter; stroke-linecap: square"/>
   </g>
   <g id="patch_12">
    <path d="M 406.178818 28.955656 
L 677.286091 28.955656 
" style="fill: none; stroke: #000000; stroke-width: 0.8; stroke-linejoin: miter; stroke-linecap: square"/>
   </g>
   <g id="text_39">
    <!-- B -->
    <g transform="translate(365.512727 18.597656) scale(0.15 -0.15)">
     <defs>
      <path id="DejaVuSans-Bold-42" d="M 2456 2859 
Q 2741 2859 2887 2984 
Q 3034 3109 3034 3353 
Q 3034 3594 2887 3720 
Q 2741 3847 2456 3847 
L 1791 3847 
L 1791 2859 
L 2456 2859 
z
M 2497 819 
Q 2859 819 3042 972 
Q 3225 1125 3225 1434 
Q 3225 1738 3044 1889 
Q 2863 2041 2497 2041 
L 1791 2041 
L 1791 819 
L 2497 819 
z
M 3616 2497 
Q 4003 2384 4215 2081 
Q 4428 1778 4428 1338 
Q 4428 663 3972 331 
Q 3516 0 2584 0 
L 588 0 
L 588 4666 
L 2394 4666 
Q 3366 4666 3802 4372 
Q 4238 4078 4238 3431 
Q 4238 3091 4078 2852 
Q 3919 2613 3616 2497 
z
" transform="scale(0.015625)"/>
     </defs>
     <use xlink:href="#DejaVuSans-Bold-42"/>
    </g>
   </g>
   <g id="text_40">
    <!-- Energy and Redox Status -->
    <g transform="translate(466.162455 22.955656) scale(0.12 -0.12)">
     <defs>
      <path id="DejaVuSans-67" d="M 2906 1791 
Q 2906 2416 2648 2759 
Q 2391 3103 1925 3103 
Q 1463 3103 1205 2759 
Q 947 2416 947 1791 
Q 947 1169 1205 825 
Q 1463 481 1925 481 
Q 2391 481 2648 825 
Q 2906 1169 2906 1791 
z
M 3481 434 
Q 3481 -459 3084 -895 
Q 2688 -1331 1869 -1331 
Q 1566 -1331 1297 -1286 
Q 1028 -1241 775 -1147 
L 775 -588 
Q 1028 -725 1275 -790 
Q 1522 -856 1778 -856 
Q 2344 -856 2625 -561 
Q 2906 -266 2906 331 
L 2906 616 
Q 2728 306 2450 153 
Q 2172 0 1784 0 
Q 1141 0 747 490 
Q 353 981 353 1791 
Q 353 2603 747 3093 
Q 1141 3584 1784 3584 
Q 2172 3584 2450 3431 
Q 2728 3278 2906 2969 
L 2906 3500 
L 3481 3500 
L 3481 434 
z
" transform="scale(0.015625)"/>
      <path id="DejaVuSans-64" d="M 2906 2969 
L 2906 4863 
L 3481 4863 
L 3481 0 
L 2906 0 
L 2906 525 
Q 2725 213 2448 61 
Q 2172 -91 1784 -91 
Q 1150 -91 751 415 
Q 353 922 353 1747 
Q 353 2572 751 3078 
Q 1150 3584 1784 3584 
Q 2172 3584 2448 3432 
Q 2725 3281 2906 2969 
z
M 947 1747 
Q 947 1113 1208 752 
Q 1469 391 1925 391 
Q 2381 391 2643 752 
Q 2906 1113 2906 1747 
Q 2906 2381 2643 2742 
Q 2381 3103 1925 3103 
Q 1469 3103 1208 2742 
Q 947 2381 947 1747 
z
" transform="scale(0.015625)"/>
      <path id="DejaVuSans-52" d="M 2841 2188 
Q 3044 2119 3236 1894 
Q 3428 1669 3622 1275 
L 4263 0 
L 3584 0 
L 2988 1197 
Q 2756 1666 2539 1819 
Q 2322 1972 1947 1972 
L 1259 1972 
L 1259 0 
L 628 0 
L 628 4666 
L 2053 4666 
Q 2853 4666 3247 4331 
Q 3641 3997 3641 3322 
Q 3641 2881 3436 2590 
Q 3231 2300 2841 2188 
z
M 1259 4147 
L 1259 2491 
L 2053 2491 
Q 2509 2491 2742 2702 
Q 2975 2913 2975 3322 
Q 2975 3731 2742 3939 
Q 2509 4147 2053 4147 
L 1259 4147 
z
" transform="scale(0.015625)"/>
     </defs>
     <use xlink:href="#DejaVuSans-45"/>
     <use xlink:href="#DejaVuSans-6e" transform="translate(63.183594 0)"/>
     <use xlink:href="#DejaVuSans-65" transform="translate(126.5625 0)"/>
     <use xlink:href="#DejaVuSans-72" transform="translate(188.085938 0)"/>
     <use xlink:href="#DejaVuSans-67" transform="translate(227.449219 0)"/>
     <use xlink:href="#DejaVuSans-79" transform="translate(290.925781 0)"/>
     <use xlink:href="#DejaVuSans-20" transform="translate(350.105469 0)"/>
     <use xlink:href="#DejaVuSans-61" transform="translate(381.892578 0)"/>
     <use xlink:href="#DejaVuSans-6e" transform="translate(443.171875 0)"/>
     <use xlink:href="#DejaVuSans-64" transform="translate(506.550781 0)"/>
     <use xlink:href="#DejaVuSans-20" transform="translate(570.027344 0)"/>
     <use xlink:href="#DejaVuSans-52" transform="translate(601.814453 0)"/>
     <use xlink:href="#DejaVuSans-65" transform="translate(666.796875 0)"/>
     <use xlink:href="#DejaVuSans-64" transform="translate(728.320312 0)"/>
     <use xlink:href="#DejaVuSans-6f" transform="translate(791.796875 0)"/>
     <use xlink:href="#DejaVuSans-78" transform="translate(849.853516 0)"/>
     <use xlink:href="#DejaVuSans-20" transform="translate(909.033203 0)"/>
     <use xlink:href="#DejaVuSans-53" transform="translate(940.820312 0)"/>
     <use xlink:href="#DejaVuSans-74" transform="translate(1004.296875 0)"/>
     <use xlink:href="#DejaVuSans-61" transform="translate(1043.505859 0)"/>
     <use xlink:href="#DejaVuSans-74" transform="translate(1104.785156 0)"/>
     <use xlink:href="#DejaVuSans-75" transform="translate(1143.994141 0)"/>
     <use xlink:href="#DejaVuSans-73" transform="translate(1207.373047 0)"/>
    </g>
   </g>
   <g id="legend_2">
    <g id="patch_13">
     <path d="M 413.178818 110.346281 
L 480.750693 110.346281 
Q 482.750693 110.346281 482.750693 108.346281 
L 482.750693 35.955656 
Q 482.750693 33.955656 480.750693 33.955656 
L 413.178818 33.955656 
Q 411.178818 33.955656 411.178818 35.955656 
L 411.178818 108.346281 
Q 411.178818 110.346281 413.178818 110.346281 
z
" style="fill: #ffffff; opacity: 0.8; stroke: #cccccc; stroke-linejoin: miter"/>
    </g>
    <g id="line2d_41">
     <path d="M 415.178818 42.054094 
L 425.178818 42.054094 
L 435.178818 42.054094 
" style="fill: none; stroke: #1f77b4; stroke-width: 2; stroke-linecap: square"/>
    </g>
    <g id="text_41">
     <!-- ATP -->
     <g transform="translate(443.178818 45.554094) scale(0.1 -0.1)">
      <defs>
       <path id="DejaVuSans-41" d="M 2188 4044 
L 1331 1722 
L 3047 1722 
L 2188 4044 
z
M 1831 4666 
L 2547 4666 
L 4325 0 
L 3669 0 
L 3244 1197 
L 1141 1197 
L 716 0 
L 50 0 
L 1831 4666 
z
" transform="scale(0.015625)"/>
       <path id="DejaVuSans-54" d="M -19 4666 
L 3928 4666 
L 3928 4134 
L 2272 4134 
L 2272 0 
L 1638 0 
L 1638 4134 
L -19 4134 
L -19 4666 
z
" transform="scale(0.015625)"/>
      </defs>
      <use xlink:href="#DejaVuSans-41"/>
      <use xlink:href="#DejaVuSans-54" transform="translate(60.658203 0)"/>
      <use xlink:href="#DejaVuSans-50" transform="translate(121.742188 0)"/>
     </g>
    </g>
    <g id="line2d_42">
     <path d="M 415.178818 56.732219 
L 425.178818 56.732219 
L 435.178818 56.732219 
" style="fill: none; stroke: #ff7f0e; stroke-width: 2; stroke-linecap: square"/>
    </g>
    <g id="text_42">
     <!-- NADPH -->
     <g transform="translate(443.178818 60.232219) scale(0.1 -0.1)">
      <defs>
       <path id="DejaVuSans-4e" d="M 628 4666 
L 1478 4666 
L 3547 763 
L 3547 4666 
L 4159 4666 
L 4159 0 
L 3309 0 
L 1241 3903 
L 1241 0 
L 628 0 
L 628 4666 
z
" transform="scale(0.015625)"/>
       <path id="DejaVuSans-48" d="M 628 4666 
L 1259 4666 
L 1259 2753 
L 3553 2753 
L 3553 4666 
L 4184 4666 
L 4184 0 
L 3553 0 
L 3553 2222 
L 1259 2222 
L 1259 0 
L 628 0 
L 628 4666 
z
" transform="scale(0.015625)"/>
      </defs>
      <use xlink:href="#DejaVuSans-4e"/>
      <use xlink:href="#DejaVuSans-41" transform="translate(74.804688 0)"/>
      <use xlink:href="#DejaVuSans-44" transform="translate(143.212891 0)"/>
      <use xlink:href="#DejaVuSans-50" transform="translate(220.214844 0)"/>
      <use xlink:href="#DejaVuSans-48" transform="translate(280.517578 0)"/>
     </g>
    </g>
    <g id="line2d_43">
     <path d="M 415.178818 71.410344 
L 425.178818 71.410344 
L 435.178818 71.410344 
" style="fill: none; stroke: #2ca02c; stroke-width: 2; stroke-linecap: square"/>
    </g>
    <g id="text_43">
     <!-- Fdred -->
     <g transform="translate(443.178818 74.910344) scale(0.1 -0.1)">
      <use xlink:href="#DejaVuSans-46"/>
      <use xlink:href="#DejaVuSans-64" transform="translate(57.519531 0)"/>
      <use xlink:href="#DejaVuSans-72" transform="translate(120.996094 0)"/>
      <use xlink:href="#DejaVuSans-65" transform="translate(159.859375 0)"/>
      <use xlink:href="#DejaVuSans-64" transform="translate(221.382812 0)"/>
     </g>
    </g>
    <g id="line2d_44">
     <path d="M 415.178818 86.088469 
L 425.178818 86.088469 
L 435.178818 86.088469 
" style="fill: none; stroke: #d62728; stroke-width: 2; stroke-linecap: square"/>
    </g>
    <g id="text_44">
     <!-- PQred -->
     <g transform="translate(443.178818 89.588469) scale(0.1 -0.1)">
      <defs>
       <path id="DejaVuSans-51" d="M 2522 4238 
Q 1834 4238 1429 3725 
Q 1025 3213 1025 2328 
Q 1025 1447 1429 934 
Q 1834 422 2522 422 
Q 3209 422 3611 934 
Q 4013 1447 4013 2328 
Q 4013 3213 3611 3725 
Q 3209 4238 2522 4238 
z
M 3406 84 
L 4238 -825 
L 3475 -825 
L 2784 -78 
Q 2681 -84 2626 -87 
Q 2572 -91 2522 -91 
Q 1538 -91 948 567 
Q 359 1225 359 2328 
Q 359 3434 948 4092 
Q 1538 4750 2522 4750 
Q 3503 4750 4090 4092 
Q 4678 3434 4678 2328 
Q 4678 1516 4351 937 
Q 4025 359 3406 84 
z
" transform="scale(0.015625)"/>
      </defs>
      <use xlink:href="#DejaVuSans-50"/>
      <use xlink:href="#DejaVuSans-51" transform="translate(60.302734 0)"/>
      <use xlink:href="#DejaVuSans-72" transform="translate(139.013672 0)"/>
      <use xlink:href="#DejaVuSans-65" transform="translate(177.876953 0)"/>
      <use xlink:href="#DejaVuSans-64" transform="translate(239.400391 0)"/>
     </g>
    </g>
    <g id="line2d_45">
     <path d="M 415.178818 100.766594 
L 425.178818 100.766594 
L 435.178818 100.766594 
" style="fill: none; stroke: #9467bd; stroke-width: 2; stroke-linecap: square"/>
    </g>
    <g id="text_45">
     <!-- PCred -->
     <g transform="translate(443.178818 104.266594) scale(0.1 -0.1)">
      <use xlink:href="#DejaVuSans-50"/>
      <use xlink:href="#DejaVuSans-43" transform="translate(60.302734 0)"/>
      <use xlink:href="#DejaVuSans-72" transform="translate(130.126953 0)"/>
      <use xlink:href="#DejaVuSans-65" transform="translate(168.990234 0)"/>
      <use xlink:href="#DejaVuSans-64" transform="translate(230.513672 0)"/>
     </g>
    </g>
   </g>
  </g>
  <g id="axes_3">
   <g id="matplotlib.axis_5">
    <g id="ytick_14">
     <g id="line2d_46">
      <defs>
       <path id="mc791e4a2ae" d="M 0 0 
L 3.5 0 
" style="stroke: #ff0000; stroke-width: 0.8"/>
      </defs>
      <g>
       <use xlink:href="#mc791e4a2ae" x="318.973364" y="226.876122" style="fill: #ff0000; stroke: #ff0000; stroke-width: 0.8"/>
      </g>
     </g>
     <g id="text_46">
      <!-- 0.0 -->
      <g style="fill: #ff0000" transform="translate(325.973364 230.675341) scale(0.1 -0.1)">
       <use xlink:href="#DejaVuSans-30"/>
       <use xlink:href="#DejaVuSans-2e" transform="translate(63.623047 0)"/>
       <use xlink:href="#DejaVuSans-30" transform="translate(95.410156 0)"/>
      </g>
     </g>
    </g>
    <g id="ytick_15">
     <g id="line2d_47">
      <g>
       <use xlink:href="#mc791e4a2ae" x="318.973364" y="194.567503" style="fill: #ff0000; stroke: #ff0000; stroke-width: 0.8"/>
      </g>
     </g>
     <g id="text_47">
      <!-- 0.2 -->
      <g style="fill: #ff0000" transform="translate(325.973364 198.366722) scale(0.1 -0.1)">
       <use xlink:href="#DejaVuSans-30"/>
       <use xlink:href="#DejaVuSans-2e" transform="translate(63.623047 0)"/>
       <use xlink:href="#DejaVuSans-32" transform="translate(95.410156 0)"/>
      </g>
     </g>
    </g>
    <g id="ytick_16">
     <g id="line2d_48">
      <g>
       <use xlink:href="#mc791e4a2ae" x="318.973364" y="162.258885" style="fill: #ff0000; stroke: #ff0000; stroke-width: 0.8"/>
      </g>
     </g>
     <g id="text_48">
      <!-- 0.4 -->
      <g style="fill: #ff0000" transform="translate(325.973364 166.058103) scale(0.1 -0.1)">
       <use xlink:href="#DejaVuSans-30"/>
       <use xlink:href="#DejaVuSans-2e" transform="translate(63.623047 0)"/>
       <use xlink:href="#DejaVuSans-34" transform="translate(95.410156 0)"/>
      </g>
     </g>
    </g>
    <g id="ytick_17">
     <g id="line2d_49">
      <g>
       <use xlink:href="#mc791e4a2ae" x="318.973364" y="129.950266" style="fill: #ff0000; stroke: #ff0000; stroke-width: 0.8"/>
      </g>
     </g>
     <g id="text_49">
      <!-- 0.6 -->
      <g style="fill: #ff0000" transform="translate(325.973364 133.749485) scale(0.1 -0.1)">
       <use xlink:href="#DejaVuSans-30"/>
       <use xlink:href="#DejaVuSans-2e" transform="translate(63.623047 0)"/>
       <use xlink:href="#DejaVuSans-36" transform="translate(95.410156 0)"/>
      </g>
     </g>
    </g>
    <g id="ytick_18">
     <g id="line2d_50">
      <g>
       <use xlink:href="#mc791e4a2ae" x="318.973364" y="97.641647" style="fill: #ff0000; stroke: #ff0000; stroke-width: 0.8"/>
      </g>
     </g>
     <g id="text_50">
      <!-- 0.8 -->
      <g style="fill: #ff0000" transform="translate(325.973364 101.440866) scale(0.1 -0.1)">
       <use xlink:href="#DejaVuSans-30"/>
       <use xlink:href="#DejaVuSans-2e" transform="translate(63.623047 0)"/>
       <use xlink:href="#DejaVuSans-38" transform="translate(95.410156 0)"/>
      </g>
     </g>
    </g>
    <g id="ytick_19">
     <g id="line2d_51">
      <g>
       <use xlink:href="#mc791e4a2ae" x="318.973364" y="65.333029" style="fill: #ff0000; stroke: #ff0000; stroke-width: 0.8"/>
      </g>
     </g>
     <g id="text_51">
      <!-- 1.0 -->
      <g style="fill: #ff0000" transform="translate(325.973364 69.132248) scale(0.1 -0.1)">
       <use xlink:href="#DejaVuSans-31"/>
       <use xlink:href="#DejaVuSans-2e" transform="translate(63.623047 0)"/>
       <use xlink:href="#DejaVuSans-30" transform="translate(95.410156 0)"/>
      </g>
     </g>
    </g>
    <g id="ytick_20">
     <g id="line2d_52">
      <g>
       <use xlink:href="#mc791e4a2ae" x="318.973364" y="33.02441" style="fill: #ff0000; stroke: #ff0000; stroke-width: 0.8"/>
      </g>
     </g>
     <g id="text_52">
      <!-- 1.2 -->
      <g style="fill: #ff0000" transform="translate(325.973364 36.823629) scale(0.1 -0.1)">
       <use xlink:href="#DejaVuSans-31"/>
       <use xlink:href="#DejaVuSans-2e" transform="translate(63.623047 0)"/>
       <use xlink:href="#DejaVuSans-32" transform="translate(95.410156 0)"/>
      </g>
     </g>
    </g>
    <g id="text_53">
     <!-- mmol e$^-$ / mol Chl / s -->
     <g style="fill: #ff0000" transform="translate(353.474926 187.185656) rotate(-90) scale(0.1 -0.1)">
      <use xlink:href="#DejaVuSans-6d" transform="translate(0 0.015625)"/>
      <use xlink:href="#DejaVuSans-6d" transform="translate(97.412109 0.015625)"/>
      <use xlink:href="#DejaVuSans-6f" transform="translate(194.824219 0.015625)"/>
      <use xlink:href="#DejaVuSans-6c" transform="translate(256.005859 0.015625)"/>
      <use xlink:href="#DejaVuSans-20" transform="translate(283.789062 0.015625)"/>
      <use xlink:href="#DejaVuSans-65" transform="translate(315.576172 0.015625)"/>
      <use xlink:href="#DejaVuSans-2212" transform="translate(391.694336 38.296875) scale(0.7)"/>
      <use xlink:href="#DejaVuSans-20" transform="translate(466.71875 0.015625)"/>
      <use xlink:href="#DejaVuSans-2f" transform="translate(498.505859 0.015625)"/>
      <use xlink:href="#DejaVuSans-20" transform="translate(532.197266 0.015625)"/>
      <use xlink:href="#DejaVuSans-6d" transform="translate(563.984375 0.015625)"/>
      <use xlink:href="#DejaVuSans-6f" transform="translate(661.396484 0.015625)"/>
      <use xlink:href="#DejaVuSans-6c" transform="translate(722.578125 0.015625)"/>
      <use xlink:href="#DejaVuSans-20" transform="translate(750.361328 0.015625)"/>
      <use xlink:href="#DejaVuSans-43" transform="translate(782.148438 0.015625)"/>
      <use xlink:href="#DejaVuSans-68" transform="translate(851.972656 0.015625)"/>
      <use xlink:href="#DejaVuSans-6c" transform="translate(915.351562 0.015625)"/>
      <use xlink:href="#DejaVuSans-20" transform="translate(943.134766 0.015625)"/>
      <use xlink:href="#DejaVuSans-2f" transform="translate(974.921875 0.015625)"/>
      <use xlink:href="#DejaVuSans-20" transform="translate(1008.613281 0.015625)"/>
      <use xlink:href="#DejaVuSans-73" transform="translate(1040.400391 0.015625)"/>
     </g>
    </g>
   </g>
   <g id="line2d_53">
    <path d="M 60.189149 226.699293 
L 73.030812 226.288417 
L 83.896835 225.730629 
L 93.281128 225.038654 
L 102.17151 224.157837 
L 108.592342 223.364575 
M 109.580162 223.230002 
L 117.482724 222.027436 
L 125.385286 220.593133 
L 132.793939 219.031694 
M 133.781759 218.807465 
L 141.684321 216.877058 
L 148.599063 214.988612 
M 149.586883 214.703683 
L 151.562524 214.122502 
M 152.550344 213.826264 
L 160.452906 211.321951 
L 168.355468 208.583776 
L 176.75194 205.43198 
M 177.739761 205.045793 
L 186.630143 201.44006 
L 203.916998 194.308006 
L 205.892638 193.853365 
L 208.362189 193.534567 
L 210.33783 193.371719 
L 210.83174 193.114798 
L 215.276931 189.392271 
L 223.179493 182.927256 
L 228.612505 178.175067 
L 233.551606 173.56702 
L 238.490707 168.647239 
L 242.935898 163.922579 
L 247.38109 158.886611 
L 251.826281 153.50718 
L 256.271472 147.748375 
L 260.222753 142.278485 
L 264.174034 136.445468 
L 268.125315 130.214209 
L 272.076596 123.545689 
L 276.027877 116.396569 
L 279.485248 109.709177 
L 282.942619 102.581661 
L 286.39999 94.975365 
L 289.857361 86.848232 
L 293.314732 78.154681 
L 296.772103 68.845544 
L 300.229474 58.868106 
L 303.686845 48.166285 
L 306.650306 38.37202 
L 306.650306 38.37202 
" clip-path="url(#p3ab98608d7)" style="fill: none; stroke-dasharray: 7.4,3.2; stroke-dashoffset: 0; stroke: #ff0000; stroke-width: 2"/>
   </g>
   <g id="line2d_54">
    <path d="M 60.189149 126.639385 
L 61.176969 128.203428 
L 62.164789 129.414471 
L 63.64652 130.777623 
L 65.12825 131.764568 
L 66.609981 132.489645 
L 68.585621 133.16743 
L 70.561262 133.60712 
L 73.030812 133.91659 
L 75.994273 134.032074 
L 79.451644 133.908372 
L 83.402925 133.509311 
L 87.354206 132.890943 
L 91.799397 131.975859 
L 96.738499 130.724115 
L 102.17151 129.101106 
L 108.098432 127.084992 
L 108.592342 126.907095 
M 109.580162 126.54723 
L 116.988814 123.700417 
L 126.867017 119.636105 
L 132.793939 117.136883 
M 133.781759 116.71986 
L 148.599063 110.581439 
M 149.586883 110.185484 
L 151.562524 109.400327 
M 152.550344 109.011283 
L 161.934636 105.447198 
L 170.331109 102.487513 
L 176.75194 100.387954 
M 177.739761 100.078264 
L 185.642323 97.73444 
L 193.050975 95.764106 
L 198.977897 94.390712 
L 201.941357 93.878118 
L 203.916998 93.731452 
L 205.892638 93.833637 
L 208.362189 94.252262 
L 210.33783 94.693738 
L 210.83174 94.619465 
L 214.289111 92.974168 
L 225.649044 87.329454 
L 232.563786 84.198921 
L 239.478528 81.309516 
L 246.88718 78.456733 
L 254.789742 75.661064 
L 263.186214 72.938016 
L 272.076596 70.299241 
L 281.460889 67.753408 
L 291.339092 65.306939 
L 301.711204 62.964687 
L 306.650306 61.922906 
L 306.650306 61.922906 
" clip-path="url(#p3ab98608d7)" style="fill: none; stroke-dasharray: 2,3.3; stroke-dashoffset: 0; stroke: #ff0000; stroke-width: 2"/>
   </g>
   <g id="patch_14">
    <path d="M 47.866091 236.115656 
L 47.866091 28.955656 
" style="fill: none; stroke: #000000; stroke-width: 0.8; stroke-linejoin: miter; stroke-linecap: square"/>
   </g>
   <g id="patch_15">
    <path d="M 318.973364 236.115656 
L 318.973364 28.955656 
" style="fill: none; stroke: #000000; stroke-width: 0.8; stroke-linejoin: miter; stroke-linecap: square"/>
   </g>
   <g id="patch_16">
    <path d="M 47.866091 236.115656 
L 318.973364 236.115656 
" style="fill: none; stroke: #000000; stroke-width: 0.8; stroke-linejoin: miter; stroke-linecap: square"/>
   </g>
   <g id="patch_17">
    <path d="M 47.866091 28.955656 
L 318.973364 28.955656 
" style="fill: none; stroke: #000000; stroke-width: 0.8; stroke-linejoin: miter; stroke-linecap: square"/>
   </g>
   <g id="legend_3">
    <g id="patch_18">
     <path d="M 245.812426 231.115656 
L 311.973364 231.115656 
Q 313.973364 231.115656 313.973364 229.115656 
L 313.973364 200.759406 
Q 313.973364 198.759406 311.973364 198.759406 
L 245.812426 198.759406 
Q 243.812426 198.759406 243.812426 200.759406 
L 243.812426 229.115656 
Q 243.812426 231.115656 245.812426 231.115656 
z
" style="fill: #ffffff; opacity: 0.8; stroke: #cccccc; stroke-linejoin: miter"/>
    </g>
    <g id="line2d_55">
     <path d="M 247.812426 206.857844 
L 257.812426 206.857844 
L 267.812426 206.857844 
" style="fill: none; stroke-dasharray: 7.4,3.2; stroke-dashoffset: 0; stroke: #ff0000; stroke-width: 2"/>
    </g>
    <g id="text_54">
     <!-- Mehler -->
     <g transform="translate(275.812426 210.357844) scale(0.1 -0.1)">
      <defs>
       <path id="DejaVuSans-4d" d="M 628 4666 
L 1569 4666 
L 2759 1491 
L 3956 4666 
L 4897 4666 
L 4897 0 
L 4281 0 
L 4281 4097 
L 3078 897 
L 2444 897 
L 1241 4097 
L 1241 0 
L 628 0 
L 628 4666 
z
" transform="scale(0.015625)"/>
      </defs>
      <use xlink:href="#DejaVuSans-4d"/>
      <use xlink:href="#DejaVuSans-65" transform="translate(86.279297 0)"/>
      <use xlink:href="#DejaVuSans-68" transform="translate(147.802734 0)"/>
      <use xlink:href="#DejaVuSans-6c" transform="translate(211.181641 0)"/>
      <use xlink:href="#DejaVuSans-65" transform="translate(238.964844 0)"/>
      <use xlink:href="#DejaVuSans-72" transform="translate(300.488281 0)"/>
     </g>
    </g>
    <g id="line2d_56">
     <path d="M 247.812426 221.535969 
L 257.812426 221.535969 
L 267.812426 221.535969 
" style="fill: none; stroke-dasharray: 2,3.3; stroke-dashoffset: 0; stroke: #ff0000; stroke-width: 2"/>
    </g>
    <g id="text_55">
     <!-- PTOX -->
     <g transform="translate(275.812426 225.035969) scale(0.1 -0.1)">
      <defs>
       <path id="DejaVuSans-4f" d="M 2522 4238 
Q 1834 4238 1429 3725 
Q 1025 3213 1025 2328 
Q 1025 1447 1429 934 
Q 1834 422 2522 422 
Q 3209 422 3611 934 
Q 4013 1447 4013 2328 
Q 4013 3213 3611 3725 
Q 3209 4238 2522 4238 
z
M 2522 4750 
Q 3503 4750 4090 4092 
Q 4678 3434 4678 2328 
Q 4678 1225 4090 567 
Q 3503 -91 2522 -91 
Q 1538 -91 948 565 
Q 359 1222 359 2328 
Q 359 3434 948 4092 
Q 1538 4750 2522 4750 
z
" transform="scale(0.015625)"/>
       <path id="DejaVuSans-58" d="M 403 4666 
L 1081 4666 
L 2241 2931 
L 3406 4666 
L 4084 4666 
L 2584 2425 
L 4184 0 
L 3506 0 
L 2194 1984 
L 872 0 
L 191 0 
L 1856 2491 
L 403 4666 
z
" transform="scale(0.015625)"/>
      </defs>
      <use xlink:href="#DejaVuSans-50"/>
      <use xlink:href="#DejaVuSans-54" transform="translate(60.302734 0)"/>
      <use xlink:href="#DejaVuSans-4f" transform="translate(121.386719 0)"/>
      <use xlink:href="#DejaVuSans-58" transform="translate(193.722656 0)"/>
     </g>
    </g>
   </g>
  </g>
  <g id="axes_4">
   <g id="matplotlib.axis_6">
    <g id="ytick_21">
     <g id="line2d_57">
      <g>
       <use xlink:href="#mc791e4a2ae" x="677.286091" y="226.876042" style="fill: #ff0000; stroke: #ff0000; stroke-width: 0.8"/>
      </g>
     </g>
     <g id="text_56">
      <!-- 0 -->
      <g style="fill: #ff0000" transform="translate(684.286091 230.675261) scale(0.1 -0.1)">
       <use xlink:href="#DejaVuSans-30"/>
      </g>
     </g>
    </g>
    <g id="ytick_22">
     <g id="line2d_58">
      <g>
       <use xlink:href="#mc791e4a2ae" x="677.286091" y="191.754906" style="fill: #ff0000; stroke: #ff0000; stroke-width: 0.8"/>
      </g>
     </g>
     <g id="text_57">
      <!-- 1 -->
      <g style="fill: #ff0000" transform="translate(684.286091 195.554124) scale(0.1 -0.1)">
       <use xlink:href="#DejaVuSans-31"/>
      </g>
     </g>
    </g>
    <g id="ytick_23">
     <g id="line2d_59">
      <g>
       <use xlink:href="#mc791e4a2ae" x="677.286091" y="156.633769" style="fill: #ff0000; stroke: #ff0000; stroke-width: 0.8"/>
      </g>
     </g>
     <g id="text_58">
      <!-- 2 -->
      <g style="fill: #ff0000" transform="translate(684.286091 160.432988) scale(0.1 -0.1)">
       <use xlink:href="#DejaVuSans-32"/>
      </g>
     </g>
    </g>
    <g id="ytick_24">
     <g id="line2d_60">
      <g>
       <use xlink:href="#mc791e4a2ae" x="677.286091" y="121.512633" style="fill: #ff0000; stroke: #ff0000; stroke-width: 0.8"/>
      </g>
     </g>
     <g id="text_59">
      <!-- 3 -->
      <g style="fill: #ff0000" transform="translate(684.286091 125.311852) scale(0.1 -0.1)">
       <use xlink:href="#DejaVuSans-33"/>
      </g>
     </g>
    </g>
    <g id="ytick_25">
     <g id="line2d_61">
      <g>
       <use xlink:href="#mc791e4a2ae" x="677.286091" y="86.391497" style="fill: #ff0000; stroke: #ff0000; stroke-width: 0.8"/>
      </g>
     </g>
     <g id="text_60">
      <!-- 4 -->
      <g style="fill: #ff0000" transform="translate(684.286091 90.190716) scale(0.1 -0.1)">
       <use xlink:href="#DejaVuSans-34"/>
      </g>
     </g>
    </g>
    <g id="ytick_26">
     <g id="line2d_62">
      <g>
       <use xlink:href="#mc791e4a2ae" x="677.286091" y="51.270361" style="fill: #ff0000; stroke: #ff0000; stroke-width: 0.8"/>
      </g>
     </g>
     <g id="text_61">
      <!-- 5 -->
      <g style="fill: #ff0000" transform="translate(684.286091 55.06958) scale(0.1 -0.1)">
       <use xlink:href="#DejaVuSans-35"/>
      </g>
     </g>
    </g>
    <g id="text_62">
     <!-- Concentration/mM -->
     <g style="fill: #ff0000" transform="translate(702.247028 178.7755) rotate(-90) scale(0.1 -0.1)">
      <use xlink:href="#DejaVuSans-43"/>
      <use xlink:href="#DejaVuSans-6f" transform="translate(69.824219 0)"/>
      <use xlink:href="#DejaVuSans-6e" transform="translate(131.005859 0)"/>
      <use xlink:href="#DejaVuSans-63" transform="translate(194.384766 0)"/>
      <use xlink:href="#DejaVuSans-65" transform="translate(249.365234 0)"/>
      <use xlink:href="#DejaVuSans-6e" transform="translate(310.888672 0)"/>
      <use xlink:href="#DejaVuSans-74" transform="translate(374.267578 0)"/>
      <use xlink:href="#DejaVuSans-72" transform="translate(413.476562 0)"/>
      <use xlink:href="#DejaVuSans-61" transform="translate(454.589844 0)"/>
      <use xlink:href="#DejaVuSans-74" transform="translate(515.869141 0)"/>
      <use xlink:href="#DejaVuSans-69" transform="translate(555.078125 0)"/>
      <use xlink:href="#DejaVuSans-6f" transform="translate(582.861328 0)"/>
      <use xlink:href="#DejaVuSans-6e" transform="translate(644.042969 0)"/>
      <use xlink:href="#DejaVuSans-2f" transform="translate(707.421875 0)"/>
      <use xlink:href="#DejaVuSans-6d" transform="translate(741.113281 0)"/>
      <use xlink:href="#DejaVuSans-4d" transform="translate(838.525391 0)"/>
     </g>
    </g>
    <g id="text_63">
     <!-- 1e−5 -->
     <g style="fill: #ff0000" transform="translate(650.028278 25.955656) scale(0.1 -0.1)">
      <use xlink:href="#DejaVuSans-31"/>
      <use xlink:href="#DejaVuSans-65" transform="translate(63.623047 0)"/>
      <use xlink:href="#DejaVuSans-2212" transform="translate(125.146484 0)"/>
      <use xlink:href="#DejaVuSans-35" transform="translate(208.935547 0)"/>
     </g>
    </g>
   </g>
   <g id="line2d_63">
    <path d="M 418.501876 226.699293 
L 431.34354 226.288603 
L 442.209562 225.731065 
L 451.593855 225.039399 
L 460.484237 224.158971 
L 466.905069 223.366057 
M 467.892889 223.231542 
L 475.795452 222.029497 
L 483.698014 220.595806 
L 491.106666 219.035021 
M 492.094486 218.810886 
L 499.997048 216.881269 
L 506.91179 214.993581 
M 507.89961 214.708763 
L 509.875251 214.127811 
M 510.863071 213.831689 
L 518.765633 211.328339 
L 526.668195 208.591183 
L 535.064668 205.440514 
M 536.052488 205.054462 
L 544.94287 201.449954 
L 562.229725 194.320139 
L 564.205366 193.865633 
L 566.674916 193.546929 
L 568.650557 193.384128 
L 569.144467 193.127282 
L 573.589658 189.405806 
L 581.49222 182.942456 
L 586.925232 178.191364 
L 591.864333 173.584276 
L 596.803435 168.665407 
L 601.248626 163.941514 
L 605.693817 158.906244 
L 610.139008 153.527425 
L 614.584199 147.76912 
L 618.53548 142.299559 
L 622.486762 136.466734 
L 626.438043 130.235499 
L 630.389324 123.566798 
L 634.340605 116.417247 
L 637.797976 109.729229 
L 641.255347 102.600809 
L 644.712718 94.993279 
L 648.170088 86.864521 
L 651.627459 78.168881 
L 655.08483 68.857103 
L 658.542201 58.876372 
L 661.999572 48.170487 
L 664.963033 38.37202 
L 664.963033 38.37202 
" clip-path="url(#p6f7f0ec3d8)" style="fill: none; stroke-dasharray: 7.4,3.2; stroke-dashoffset: 0; stroke: #ff0000; stroke-width: 2"/>
   </g>
   <g id="patch_19">
    <path d="M 406.178818 236.115656 
L 406.178818 28.955656 
" style="fill: none; stroke: #000000; stroke-width: 0.8; stroke-linejoin: miter; stroke-linecap: square"/>
   </g>
   <g id="patch_20">
    <path d="M 677.286091 236.115656 
L 677.286091 28.955656 
" style="fill: none; stroke: #000000; stroke-width: 0.8; stroke-linejoin: miter; stroke-linecap: square"/>
   </g>
   <g id="patch_21">
    <path d="M 406.178818 236.115656 
L 677.286091 236.115656 
" style="fill: none; stroke: #000000; stroke-width: 0.8; stroke-linejoin: miter; stroke-linecap: square"/>
   </g>
   <g id="patch_22">
    <path d="M 406.178818 28.955656 
L 677.286091 28.955656 
" style="fill: none; stroke: #000000; stroke-width: 0.8; stroke-linejoin: miter; stroke-linecap: square"/>
   </g>
   <g id="legend_4">
    <g id="patch_23">
     <path d="M 610.168903 231.115656 
L 670.286091 231.115656 
Q 672.286091 231.115656 672.286091 229.115656 
L 672.286091 215.437531 
Q 672.286091 213.437531 670.286091 213.437531 
L 610.168903 213.437531 
Q 608.168903 213.437531 608.168903 215.437531 
L 608.168903 229.115656 
Q 608.168903 231.115656 610.168903 231.115656 
z
" style="fill: #ffffff; opacity: 0.8; stroke: #cccccc; stroke-linejoin: miter"/>
    </g>
    <g id="line2d_64">
     <path d="M 612.168903 221.535969 
L 622.168903 221.535969 
L 632.168903 221.535969 
" style="fill: none; stroke-dasharray: 7.4,3.2; stroke-dashoffset: 0; stroke: #ff0000; stroke-width: 2"/>
    </g>
    <g id="text_64">
     <!-- H2O2 -->
     <g transform="translate(640.168903 225.035969) scale(0.1 -0.1)">
      <use xlink:href="#DejaVuSans-48"/>
      <use xlink:href="#DejaVuSans-32" transform="translate(75.195312 0)"/>
      <use xlink:href="#DejaVuSans-4f" transform="translate(138.818359 0)"/>
      <use xlink:href="#DejaVuSans-32" transform="translate(217.529297 0)"/>
     </g>
    </g>
   </g>
  </g>
 </g>
 <defs>
  <clipPath id="p3ab98608d7">
   <rect x="47.866091" y="28.955656" width="271.107273" height="207.16"/>
  </clipPath>
  <clipPath id="p6f7f0ec3d8">
   <rect x="406.178818" y="28.955656" width="271.107273" height="207.16"/>
  </clipPath>
 </defs>
</svg>
