<?xml version="1.0" encoding="utf-8" standalone="no"?>
<!DOCTYPE svg PUBLIC "-//W3C//DTD SVG 1.1//EN"
  "http://www.w3.org/Graphics/SVG/1.1/DTD/svg11.dtd">
<svg xmlns:xlink="http://www.w3.org/1999/xlink" width="719.927727pt" height="286.021256pt" viewBox="0 0 719.927727 286.021256" xmlns="http://www.w3.org/2000/svg" version="1.1">
 <metadata>
  <rdf:RDF xmlns:dc="http://purl.org/dc/elements/1.1/" xmlns:cc="http://creativecommons.org/ns#" xmlns:rdf="http://www.w3.org/1999/02/22-rdf-syntax-ns#">
   <cc:Work>
    <dc:type rdf:resource="http://purl.org/dc/dcmitype/StillImage"/>
    <dc:date>2026-02-08T14:50:03.299151</dc:date>
    <dc:format>image/svg+xml</dc:format>
    <dc:creator>
     <cc:Agent>
      <dc:title>Matplotlib v3.10.8, https://matplotlib.org/</dc:title>
     </cc:Agent>
    </dc:creator>
   </cc:Work>
  </rdf:RDF>
 </metadata>
 <defs>
  <style type="text/css">*{stroke-linejoin: round; stroke-linecap: butt}</style>
 </defs>
 <g id="figure_1">
  <g id="patch_1">
   <path d="M 0 286.021256 
L 719.927727 286.021256 
L 719.927727 0 
L 0 0 
z
" style="fill: #ffffff"/>
  </g>
  <g id="axes_1">
   <g id="patch_2">
    <path d="M 52.373182 241.861256 
L 353.527727 241.861256 
L 353.527727 29.229256 
L 52.373182 29.229256 
z
" style="fill: #ffffff"/>
   </g>
   <g id="patch_3">
    <path d="M 93.439711 241.861256 
L 120.817397 241.861256 
L 120.817397 29.229256 
L 93.439711 29.229256 
z
" clip-path="url(#p59b006c3b7)" style="fill: #b3b3b3; stroke: #b3b3b3; stroke-linejoin: miter"/>
   </g>
   <g id="patch_4">
    <path d="M 148.195083 241.861256 
L 175.572769 241.861256 
L 175.572769 29.229256 
L 148.195083 29.229256 
z
" clip-path="url(#p59b006c3b7)" style="fill: #b3b3b3; stroke: #b3b3b3; stroke-linejoin: miter"/>
   </g>
   <g id="patch_5">
    <path d="M 202.950455 241.861256 
L 230.32814 241.861256 
L 230.32814 29.229256 
L 202.950455 29.229256 
z
" clip-path="url(#p59b006c3b7)" style="fill: #b3b3b3; stroke: #b3b3b3; stroke-linejoin: miter"/>
   </g>
   <g id="patch_6">
    <path d="M 257.705826 241.861256 
L 285.083512 241.861256 
L 285.083512 29.229256 
L 257.705826 29.229256 
z
" clip-path="url(#p59b006c3b7)" style="fill: #b3b3b3; stroke: #b3b3b3; stroke-linejoin: miter"/>
   </g>
   <g id="patch_7">
    <path d="M 312.461198 241.861256 
L 339.838884 241.861256 
L 339.838884 29.229256 
L 312.461198 29.229256 
z
" clip-path="url(#p59b006c3b7)" style="fill: #b3b3b3; stroke: #b3b3b3; stroke-linejoin: miter"/>
   </g>
   <g id="matplotlib.axis_1">
    <g id="xtick_1">
     <g id="line2d_1">
      <defs>
       <path id="mf6501858d4" d="M 0 0 
L 0 3.5 
" style="stroke: #000000; stroke-width: 0.8"/>
      </defs>
      <g>
       <use xlink:href="#mf6501858d4" x="66.062025" y="241.861256" style="stroke: #000000; stroke-width: 0.8"/>
      </g>
     </g>
     <g id="text_1">
      <!-- 0 -->
      <g transform="translate(62.880775 256.459694) scale(0.1 -0.1)">
       <defs>
        <path id="DejaVuSans-30" d="M 2034 4250 
Q 1547 4250 1301 3770 
Q 1056 3291 1056 2328 
Q 1056 1369 1301 889 
Q 1547 409 2034 409 
Q 2525 409 2770 889 
Q 3016 1369 3016 2328 
Q 3016 3291 2770 3770 
Q 2525 4250 2034 4250 
z
M 2034 4750 
Q 2819 4750 3233 4129 
Q 3647 3509 3647 2328 
Q 3647 1150 3233 529 
Q 2819 -91 2034 -91 
Q 1250 -91 836 529 
Q 422 1150 422 2328 
Q 422 3509 836 4129 
Q 1250 4750 2034 4750 
z
" transform="scale(0.015625)"/>
       </defs>
       <use xlink:href="#DejaVuSans-30"/>
      </g>
     </g>
    </g>
    <g id="xtick_2">
     <g id="line2d_2">
      <g>
       <use xlink:href="#mf6501858d4" x="111.691501" y="241.861256" style="stroke: #000000; stroke-width: 0.8"/>
      </g>
     </g>
     <g id="text_2">
      <!-- 100 -->
      <g transform="translate(102.147751 256.459694) scale(0.1 -0.1)">
       <defs>
        <path id="DejaVuSans-31" d="M 794 531 
L 1825 531 
L 1825 4091 
L 703 3866 
L 703 4441 
L 1819 4666 
L 2450 4666 
L 2450 531 
L 3481 531 
L 3481 0 
L 794 0 
L 794 531 
z
" transform="scale(0.015625)"/>
       </defs>
       <use xlink:href="#DejaVuSans-31"/>
       <use xlink:href="#DejaVuSans-30" transform="translate(63.623047 0)"/>
       <use xlink:href="#DejaVuSans-30" transform="translate(127.246094 0)"/>
      </g>
     </g>
    </g>
    <g id="xtick_3">
     <g id="line2d_3">
      <g>
       <use xlink:href="#mf6501858d4" x="157.320978" y="241.861256" style="stroke: #000000; stroke-width: 0.8"/>
      </g>
     </g>
     <g id="text_3">
      <!-- 200 -->
      <g transform="translate(147.777228 256.459694) scale(0.1 -0.1)">
       <defs>
        <path id="DejaVuSans-32" d="M 1228 531 
L 3431 531 
L 3431 0 
L 469 0 
L 469 531 
Q 828 903 1448 1529 
Q 2069 2156 2228 2338 
Q 2531 2678 2651 2914 
Q 2772 3150 2772 3378 
Q 2772 3750 2511 3984 
Q 2250 4219 1831 4219 
Q 1534 4219 1204 4116 
Q 875 4013 500 3803 
L 500 4441 
Q 881 4594 1212 4672 
Q 1544 4750 1819 4750 
Q 2544 4750 2975 4387 
Q 3406 4025 3406 3419 
Q 3406 3131 3298 2873 
Q 3191 2616 2906 2266 
Q 2828 2175 2409 1742 
Q 1991 1309 1228 531 
z
" transform="scale(0.015625)"/>
       </defs>
       <use xlink:href="#DejaVuSans-32"/>
       <use xlink:href="#DejaVuSans-30" transform="translate(63.623047 0)"/>
       <use xlink:href="#DejaVuSans-30" transform="translate(127.246094 0)"/>
      </g>
     </g>
    </g>
    <g id="xtick_4">
     <g id="line2d_4">
      <g>
       <use xlink:href="#mf6501858d4" x="202.950455" y="241.861256" style="stroke: #000000; stroke-width: 0.8"/>
      </g>
     </g>
     <g id="text_4">
      <!-- 300 -->
      <g transform="translate(193.406705 256.459694) scale(0.1 -0.1)">
       <defs>
        <path id="DejaVuSans-33" d="M 2597 2516 
Q 3050 2419 3304 2112 
Q 3559 1806 3559 1356 
Q 3559 666 3084 287 
Q 2609 -91 1734 -91 
Q 1441 -91 1130 -33 
Q 819 25 488 141 
L 488 750 
Q 750 597 1062 519 
Q 1375 441 1716 441 
Q 2309 441 2620 675 
Q 2931 909 2931 1356 
Q 2931 1769 2642 2001 
Q 2353 2234 1838 2234 
L 1294 2234 
L 1294 2753 
L 1863 2753 
Q 2328 2753 2575 2939 
Q 2822 3125 2822 3475 
Q 2822 3834 2567 4026 
Q 2313 4219 1838 4219 
Q 1578 4219 1281 4162 
Q 984 4106 628 3988 
L 628 4550 
Q 988 4650 1302 4700 
Q 1616 4750 1894 4750 
Q 2613 4750 3031 4423 
Q 3450 4097 3450 3541 
Q 3450 3153 3228 2886 
Q 3006 2619 2597 2516 
z
" transform="scale(0.015625)"/>
       </defs>
       <use xlink:href="#DejaVuSans-33"/>
       <use xlink:href="#DejaVuSans-30" transform="translate(63.623047 0)"/>
       <use xlink:href="#DejaVuSans-30" transform="translate(127.246094 0)"/>
      </g>
     </g>
    </g>
    <g id="xtick_5">
     <g id="line2d_5">
      <g>
       <use xlink:href="#mf6501858d4" x="248.579931" y="241.861256" style="stroke: #000000; stroke-width: 0.8"/>
      </g>
     </g>
     <g id="text_5">
      <!-- 400 -->
      <g transform="translate(239.036181 256.459694) scale(0.1 -0.1)">
       <defs>
        <path id="DejaVuSans-34" d="M 2419 4116 
L 825 1625 
L 2419 1625 
L 2419 4116 
z
M 2253 4666 
L 3047 4666 
L 3047 1625 
L 3713 1625 
L 3713 1100 
L 3047 1100 
L 3047 0 
L 2419 0 
L 2419 1100 
L 313 1100 
L 313 1709 
L 2253 4666 
z
" transform="scale(0.015625)"/>
       </defs>
       <use xlink:href="#DejaVuSans-34"/>
       <use xlink:href="#DejaVuSans-30" transform="translate(63.623047 0)"/>
       <use xlink:href="#DejaVuSans-30" transform="translate(127.246094 0)"/>
      </g>
     </g>
    </g>
    <g id="xtick_6">
     <g id="line2d_6">
      <g>
       <use xlink:href="#mf6501858d4" x="294.209408" y="241.861256" style="stroke: #000000; stroke-width: 0.8"/>
      </g>
     </g>
     <g id="text_6">
      <!-- 500 -->
      <g transform="translate(284.665658 256.459694) scale(0.1 -0.1)">
       <defs>
        <path id="DejaVuSans-35" d="M 691 4666 
L 3169 4666 
L 3169 4134 
L 1269 4134 
L 1269 2991 
Q 1406 3038 1543 3061 
Q 1681 3084 1819 3084 
Q 2600 3084 3056 2656 
Q 3513 2228 3513 1497 
Q 3513 744 3044 326 
Q 2575 -91 1722 -91 
Q 1428 -91 1123 -41 
Q 819 9 494 109 
L 494 744 
Q 775 591 1075 516 
Q 1375 441 1709 441 
Q 2250 441 2565 725 
Q 2881 1009 2881 1497 
Q 2881 1984 2565 2268 
Q 2250 2553 1709 2553 
Q 1456 2553 1204 2497 
Q 953 2441 691 2322 
L 691 4666 
z
" transform="scale(0.015625)"/>
       </defs>
       <use xlink:href="#DejaVuSans-35"/>
       <use xlink:href="#DejaVuSans-30" transform="translate(63.623047 0)"/>
       <use xlink:href="#DejaVuSans-30" transform="translate(127.246094 0)"/>
      </g>
     </g>
    </g>
    <g id="xtick_7">
     <g id="line2d_7">
      <g>
       <use xlink:href="#mf6501858d4" x="339.838884" y="241.861256" style="stroke: #000000; stroke-width: 0.8"/>
      </g>
     </g>
     <g id="text_7">
      <!-- 600 -->
      <g transform="translate(330.295134 256.459694) scale(0.1 -0.1)">
       <defs>
        <path id="DejaVuSans-36" d="M 2113 2584 
Q 1688 2584 1439 2293 
Q 1191 2003 1191 1497 
Q 1191 994 1439 701 
Q 1688 409 2113 409 
Q 2538 409 2786 701 
Q 3034 994 3034 1497 
Q 3034 2003 2786 2293 
Q 2538 2584 2113 2584 
z
M 3366 4563 
L 3366 3988 
Q 3128 4100 2886 4159 
Q 2644 4219 2406 4219 
Q 1781 4219 1451 3797 
Q 1122 3375 1075 2522 
Q 1259 2794 1537 2939 
Q 1816 3084 2150 3084 
Q 2853 3084 3261 2657 
Q 3669 2231 3669 1497 
Q 3669 778 3244 343 
Q 2819 -91 2113 -91 
Q 1303 -91 875 529 
Q 447 1150 447 2328 
Q 447 3434 972 4092 
Q 1497 4750 2381 4750 
Q 2619 4750 2861 4703 
Q 3103 4656 3366 4563 
z
" transform="scale(0.015625)"/>
       </defs>
       <use xlink:href="#DejaVuSans-36"/>
       <use xlink:href="#DejaVuSans-30" transform="translate(63.623047 0)"/>
       <use xlink:href="#DejaVuSans-30" transform="translate(127.246094 0)"/>
      </g>
     </g>
    </g>
    <g id="text_8">
     <!-- Time / (s) -->
     <g transform="translate(179.348111 270.137819) scale(0.1 -0.1)">
      <defs>
       <path id="DejaVuSans-54" d="M -19 4666 
L 3928 4666 
L 3928 4134 
L 2272 4134 
L 2272 0 
L 1638 0 
L 1638 4134 
L -19 4134 
L -19 4666 
z
" transform="scale(0.015625)"/>
       <path id="DejaVuSans-69" d="M 603 3500 
L 1178 3500 
L 1178 0 
L 603 0 
L 603 3500 
z
M 603 4863 
L 1178 4863 
L 1178 4134 
L 603 4134 
L 603 4863 
z
" transform="scale(0.015625)"/>
       <path id="DejaVuSans-6d" d="M 3328 2828 
Q 3544 3216 3844 3400 
Q 4144 3584 4550 3584 
Q 5097 3584 5394 3201 
Q 5691 2819 5691 2113 
L 5691 0 
L 5113 0 
L 5113 2094 
Q 5113 2597 4934 2840 
Q 4756 3084 4391 3084 
Q 3944 3084 3684 2787 
Q 3425 2491 3425 1978 
L 3425 0 
L 2847 0 
L 2847 2094 
Q 2847 2600 2669 2842 
Q 2491 3084 2119 3084 
Q 1678 3084 1418 2786 
Q 1159 2488 1159 1978 
L 1159 0 
L 581 0 
L 581 3500 
L 1159 3500 
L 1159 2956 
Q 1356 3278 1631 3431 
Q 1906 3584 2284 3584 
Q 2666 3584 2933 3390 
Q 3200 3197 3328 2828 
z
" transform="scale(0.015625)"/>
       <path id="DejaVuSans-65" d="M 3597 1894 
L 3597 1613 
L 953 1613 
Q 991 1019 1311 708 
Q 1631 397 2203 397 
Q 2534 397 2845 478 
Q 3156 559 3463 722 
L 3463 178 
Q 3153 47 2828 -22 
Q 2503 -91 2169 -91 
Q 1331 -91 842 396 
Q 353 884 353 1716 
Q 353 2575 817 3079 
Q 1281 3584 2069 3584 
Q 2775 3584 3186 3129 
Q 3597 2675 3597 1894 
z
M 3022 2063 
Q 3016 2534 2758 2815 
Q 2500 3097 2075 3097 
Q 1594 3097 1305 2825 
Q 1016 2553 972 2059 
L 3022 2063 
z
" transform="scale(0.015625)"/>
       <path id="DejaVuSans-20" transform="scale(0.015625)"/>
       <path id="DejaVuSans-2f" d="M 1625 4666 
L 2156 4666 
L 531 -594 
L 0 -594 
L 1625 4666 
z
" transform="scale(0.015625)"/>
       <path id="DejaVuSans-28" d="M 1984 4856 
Q 1566 4138 1362 3434 
Q 1159 2731 1159 2009 
Q 1159 1288 1364 580 
Q 1569 -128 1984 -844 
L 1484 -844 
Q 1016 -109 783 600 
Q 550 1309 550 2009 
Q 550 2706 781 3412 
Q 1013 4119 1484 4856 
L 1984 4856 
z
" transform="scale(0.015625)"/>
       <path id="DejaVuSans-73" d="M 2834 3397 
L 2834 2853 
Q 2591 2978 2328 3040 
Q 2066 3103 1784 3103 
Q 1356 3103 1142 2972 
Q 928 2841 928 2578 
Q 928 2378 1081 2264 
Q 1234 2150 1697 2047 
L 1894 2003 
Q 2506 1872 2764 1633 
Q 3022 1394 3022 966 
Q 3022 478 2636 193 
Q 2250 -91 1575 -91 
Q 1294 -91 989 -36 
Q 684 19 347 128 
L 347 722 
Q 666 556 975 473 
Q 1284 391 1588 391 
Q 1994 391 2212 530 
Q 2431 669 2431 922 
Q 2431 1156 2273 1281 
Q 2116 1406 1581 1522 
L 1381 1569 
Q 847 1681 609 1914 
Q 372 2147 372 2553 
Q 372 3047 722 3315 
Q 1072 3584 1716 3584 
Q 2034 3584 2315 3537 
Q 2597 3491 2834 3397 
z
" transform="scale(0.015625)"/>
       <path id="DejaVuSans-29" d="M 513 4856 
L 1013 4856 
Q 1481 4119 1714 3412 
Q 1947 2706 1947 2009 
Q 1947 1309 1714 600 
Q 1481 -109 1013 -844 
L 513 -844 
Q 928 -128 1133 580 
Q 1338 1288 1338 2009 
Q 1338 2731 1133 3434 
Q 928 4138 513 4856 
z
" transform="scale(0.015625)"/>
      </defs>
      <use xlink:href="#DejaVuSans-54"/>
      <use xlink:href="#DejaVuSans-69" transform="translate(57.958984 0)"/>
      <use xlink:href="#DejaVuSans-6d" transform="translate(85.742188 0)"/>
      <use xlink:href="#DejaVuSans-65" transform="translate(183.154297 0)"/>
      <use xlink:href="#DejaVuSans-20" transform="translate(244.677734 0)"/>
      <use xlink:href="#DejaVuSans-2f" transform="translate(276.464844 0)"/>
      <use xlink:href="#DejaVuSans-20" transform="translate(310.15625 0)"/>
      <use xlink:href="#DejaVuSans-28" transform="translate(341.943359 0)"/>
      <use xlink:href="#DejaVuSans-73" transform="translate(380.957031 0)"/>
      <use xlink:href="#DejaVuSans-29" transform="translate(433.056641 0)"/>
     </g>
    </g>
   </g>
   <g id="matplotlib.axis_2">
    <g id="ytick_1">
     <g id="line2d_8">
      <defs>
       <path id="m086c0e9572" d="M 0 0 
L -3.5 0 
" style="stroke: #000000; stroke-width: 0.8"/>
      </defs>
      <g>
       <use xlink:href="#m086c0e9572" x="52.373182" y="219.10716" style="stroke: #000000; stroke-width: 0.8"/>
      </g>
     </g>
     <g id="text_9">
      <!-- 0.2 -->
      <g transform="translate(29.470057 222.906379) scale(0.1 -0.1)">
       <defs>
        <path id="DejaVuSans-2e" d="M 684 794 
L 1344 794 
L 1344 0 
L 684 0 
L 684 794 
z
" transform="scale(0.015625)"/>
       </defs>
       <use xlink:href="#DejaVuSans-30"/>
       <use xlink:href="#DejaVuSans-2e" transform="translate(63.623047 0)"/>
       <use xlink:href="#DejaVuSans-32" transform="translate(95.410156 0)"/>
      </g>
     </g>
    </g>
    <g id="ytick_2">
     <g id="line2d_9">
      <g>
       <use xlink:href="#m086c0e9572" x="52.373182" y="174.029618" style="stroke: #000000; stroke-width: 0.8"/>
      </g>
     </g>
     <g id="text_10">
      <!-- 0.4 -->
      <g transform="translate(29.470057 177.828836) scale(0.1 -0.1)">
       <use xlink:href="#DejaVuSans-30"/>
       <use xlink:href="#DejaVuSans-2e" transform="translate(63.623047 0)"/>
       <use xlink:href="#DejaVuSans-34" transform="translate(95.410156 0)"/>
      </g>
     </g>
    </g>
    <g id="ytick_3">
     <g id="line2d_10">
      <g>
       <use xlink:href="#m086c0e9572" x="52.373182" y="128.952075" style="stroke: #000000; stroke-width: 0.8"/>
      </g>
     </g>
     <g id="text_11">
      <!-- 0.6 -->
      <g transform="translate(29.470057 132.751294) scale(0.1 -0.1)">
       <use xlink:href="#DejaVuSans-30"/>
       <use xlink:href="#DejaVuSans-2e" transform="translate(63.623047 0)"/>
       <use xlink:href="#DejaVuSans-36" transform="translate(95.410156 0)"/>
      </g>
     </g>
    </g>
    <g id="ytick_4">
     <g id="line2d_11">
      <g>
       <use xlink:href="#m086c0e9572" x="52.373182" y="83.874533" style="stroke: #000000; stroke-width: 0.8"/>
      </g>
     </g>
     <g id="text_12">
      <!-- 0.8 -->
      <g transform="translate(29.470057 87.673752) scale(0.1 -0.1)">
       <defs>
        <path id="DejaVuSans-38" d="M 2034 2216 
Q 1584 2216 1326 1975 
Q 1069 1734 1069 1313 
Q 1069 891 1326 650 
Q 1584 409 2034 409 
Q 2484 409 2743 651 
Q 3003 894 3003 1313 
Q 3003 1734 2745 1975 
Q 2488 2216 2034 2216 
z
M 1403 2484 
Q 997 2584 770 2862 
Q 544 3141 544 3541 
Q 544 4100 942 4425 
Q 1341 4750 2034 4750 
Q 2731 4750 3128 4425 
Q 3525 4100 3525 3541 
Q 3525 3141 3298 2862 
Q 3072 2584 2669 2484 
Q 3125 2378 3379 2068 
Q 3634 1759 3634 1313 
Q 3634 634 3220 271 
Q 2806 -91 2034 -91 
Q 1263 -91 848 271 
Q 434 634 434 1313 
Q 434 1759 690 2068 
Q 947 2378 1403 2484 
z
M 1172 3481 
Q 1172 3119 1398 2916 
Q 1625 2713 2034 2713 
Q 2441 2713 2670 2916 
Q 2900 3119 2900 3481 
Q 2900 3844 2670 4047 
Q 2441 4250 2034 4250 
Q 1625 4250 1398 4047 
Q 1172 3844 1172 3481 
z
" transform="scale(0.015625)"/>
       </defs>
       <use xlink:href="#DejaVuSans-30"/>
       <use xlink:href="#DejaVuSans-2e" transform="translate(63.623047 0)"/>
       <use xlink:href="#DejaVuSans-38" transform="translate(95.410156 0)"/>
      </g>
     </g>
    </g>
    <g id="ytick_5">
     <g id="line2d_12">
      <g>
       <use xlink:href="#m086c0e9572" x="52.373182" y="38.79699" style="stroke: #000000; stroke-width: 0.8"/>
      </g>
     </g>
     <g id="text_13">
      <!-- 1.0 -->
      <g transform="translate(29.470057 42.596209) scale(0.1 -0.1)">
       <use xlink:href="#DejaVuSans-31"/>
       <use xlink:href="#DejaVuSans-2e" transform="translate(63.623047 0)"/>
       <use xlink:href="#DejaVuSans-30" transform="translate(95.410156 0)"/>
      </g>
     </g>
    </g>
    <g id="text_14">
     <!-- Fd Redox State -->
     <g transform="translate(23.390369 173.371038) rotate(-90) scale(0.1 -0.1)">
      <defs>
       <path id="DejaVuSans-46" d="M 628 4666 
L 3309 4666 
L 3309 4134 
L 1259 4134 
L 1259 2759 
L 3109 2759 
L 3109 2228 
L 1259 2228 
L 1259 0 
L 628 0 
L 628 4666 
z
" transform="scale(0.015625)"/>
       <path id="DejaVuSans-64" d="M 2906 2969 
L 2906 4863 
L 3481 4863 
L 3481 0 
L 2906 0 
L 2906 525 
Q 2725 213 2448 61 
Q 2172 -91 1784 -91 
Q 1150 -91 751 415 
Q 353 922 353 1747 
Q 353 2572 751 3078 
Q 1150 3584 1784 3584 
Q 2172 3584 2448 3432 
Q 2725 3281 2906 2969 
z
M 947 1747 
Q 947 1113 1208 752 
Q 1469 391 1925 391 
Q 2381 391 2643 752 
Q 2906 1113 2906 1747 
Q 2906 2381 2643 2742 
Q 2381 3103 1925 3103 
Q 1469 3103 1208 2742 
Q 947 2381 947 1747 
z
" transform="scale(0.015625)"/>
       <path id="DejaVuSans-52" d="M 2841 2188 
Q 3044 2119 3236 1894 
Q 3428 1669 3622 1275 
L 4263 0 
L 3584 0 
L 2988 1197 
Q 2756 1666 2539 1819 
Q 2322 1972 1947 1972 
L 1259 1972 
L 1259 0 
L 628 0 
L 628 4666 
L 2053 4666 
Q 2853 4666 3247 4331 
Q 3641 3997 3641 3322 
Q 3641 2881 3436 2590 
Q 3231 2300 2841 2188 
z
M 1259 4147 
L 1259 2491 
L 2053 2491 
Q 2509 2491 2742 2702 
Q 2975 2913 2975 3322 
Q 2975 3731 2742 3939 
Q 2509 4147 2053 4147 
L 1259 4147 
z
" transform="scale(0.015625)"/>
       <path id="DejaVuSans-6f" d="M 1959 3097 
Q 1497 3097 1228 2736 
Q 959 2375 959 1747 
Q 959 1119 1226 758 
Q 1494 397 1959 397 
Q 2419 397 2687 759 
Q 2956 1122 2956 1747 
Q 2956 2369 2687 2733 
Q 2419 3097 1959 3097 
z
M 1959 3584 
Q 2709 3584 3137 3096 
Q 3566 2609 3566 1747 
Q 3566 888 3137 398 
Q 2709 -91 1959 -91 
Q 1206 -91 779 398 
Q 353 888 353 1747 
Q 353 2609 779 3096 
Q 1206 3584 1959 3584 
z
" transform="scale(0.015625)"/>
       <path id="DejaVuSans-78" d="M 3513 3500 
L 2247 1797 
L 3578 0 
L 2900 0 
L 1881 1375 
L 863 0 
L 184 0 
L 1544 1831 
L 300 3500 
L 978 3500 
L 1906 2253 
L 2834 3500 
L 3513 3500 
z
" transform="scale(0.015625)"/>
       <path id="DejaVuSans-53" d="M 3425 4513 
L 3425 3897 
Q 3066 4069 2747 4153 
Q 2428 4238 2131 4238 
Q 1616 4238 1336 4038 
Q 1056 3838 1056 3469 
Q 1056 3159 1242 3001 
Q 1428 2844 1947 2747 
L 2328 2669 
Q 3034 2534 3370 2195 
Q 3706 1856 3706 1288 
Q 3706 609 3251 259 
Q 2797 -91 1919 -91 
Q 1588 -91 1214 -16 
Q 841 59 441 206 
L 441 856 
Q 825 641 1194 531 
Q 1563 422 1919 422 
Q 2459 422 2753 634 
Q 3047 847 3047 1241 
Q 3047 1584 2836 1778 
Q 2625 1972 2144 2069 
L 1759 2144 
Q 1053 2284 737 2584 
Q 422 2884 422 3419 
Q 422 4038 858 4394 
Q 1294 4750 2059 4750 
Q 2388 4750 2728 4690 
Q 3069 4631 3425 4513 
z
" transform="scale(0.015625)"/>
       <path id="DejaVuSans-74" d="M 1172 4494 
L 1172 3500 
L 2356 3500 
L 2356 3053 
L 1172 3053 
L 1172 1153 
Q 1172 725 1289 603 
Q 1406 481 1766 481 
L 2356 481 
L 2356 0 
L 1766 0 
Q 1100 0 847 248 
Q 594 497 594 1153 
L 594 3053 
L 172 3053 
L 172 3500 
L 594 3500 
L 594 4494 
L 1172 4494 
z
" transform="scale(0.015625)"/>
       <path id="DejaVuSans-61" d="M 2194 1759 
Q 1497 1759 1228 1600 
Q 959 1441 959 1056 
Q 959 750 1161 570 
Q 1363 391 1709 391 
Q 2188 391 2477 730 
Q 2766 1069 2766 1631 
L 2766 1759 
L 2194 1759 
z
M 3341 1997 
L 3341 0 
L 2766 0 
L 2766 531 
Q 2569 213 2275 61 
Q 1981 -91 1556 -91 
Q 1019 -91 701 211 
Q 384 513 384 1019 
Q 384 1609 779 1909 
Q 1175 2209 1959 2209 
L 2766 2209 
L 2766 2266 
Q 2766 2663 2505 2880 
Q 2244 3097 1772 3097 
Q 1472 3097 1187 3025 
Q 903 2953 641 2809 
L 641 3341 
Q 956 3463 1253 3523 
Q 1550 3584 1831 3584 
Q 2591 3584 2966 3190 
Q 3341 2797 3341 1997 
z
" transform="scale(0.015625)"/>
      </defs>
      <use xlink:href="#DejaVuSans-46"/>
      <use xlink:href="#DejaVuSans-64" transform="translate(57.519531 0)"/>
      <use xlink:href="#DejaVuSans-20" transform="translate(120.996094 0)"/>
      <use xlink:href="#DejaVuSans-52" transform="translate(152.783203 0)"/>
      <use xlink:href="#DejaVuSans-65" transform="translate(217.765625 0)"/>
      <use xlink:href="#DejaVuSans-64" transform="translate(279.289062 0)"/>
      <use xlink:href="#DejaVuSans-6f" transform="translate(342.765625 0)"/>
      <use xlink:href="#DejaVuSans-78" transform="translate(400.822266 0)"/>
      <use xlink:href="#DejaVuSans-20" transform="translate(460.001953 0)"/>
      <use xlink:href="#DejaVuSans-53" transform="translate(491.789062 0)"/>
      <use xlink:href="#DejaVuSans-74" transform="translate(555.265625 0)"/>
      <use xlink:href="#DejaVuSans-61" transform="translate(594.474609 0)"/>
      <use xlink:href="#DejaVuSans-74" transform="translate(655.753906 0)"/>
      <use xlink:href="#DejaVuSans-65" transform="translate(694.962891 0)"/>
     </g>
    </g>
   </g>
   <g id="line2d_13">
    <path d="M 66.062025 206.291722 
L 68.799793 38.894769 
L 71.537562 38.894491 
L 74.275331 38.894419 
L 77.013099 38.894387 
L 79.750868 38.89437 
L 82.488636 38.894359 
L 85.226405 38.894351 
L 87.964174 38.894347 
L 90.701942 38.894347 
L 93.439711 38.894351 
L 96.177479 184.694448 
L 98.915248 190.942991 
L 101.653017 193.12686 
L 104.390785 192.302729 
L 107.128554 189.194274 
L 109.866322 184.539324 
L 112.604091 178.973045 
L 115.34186 172.972605 
L 118.079628 166.862873 
L 120.817397 160.875405 
L 123.555165 38.901953 
L 126.292934 38.896109 
L 129.030702 38.894646 
L 131.768471 38.894435 
L 134.50624 38.894407 
L 137.244008 38.894419 
L 139.981777 38.894442 
L 142.719545 38.894467 
L 145.457314 38.894495 
L 148.195083 38.894524 
L 150.932851 194.41369 
L 153.67062 198.754723 
L 156.408388 199.53806 
L 159.146157 198.331836 
L 161.883926 195.561226 
L 164.621694 191.591617 
L 167.359463 186.782824 
L 170.097231 181.489862 
L 172.835 176.023163 
L 175.572769 170.62448 
L 178.310537 38.904159 
L 181.048306 38.896397 
L 183.786074 38.894858 
L 186.523843 38.894649 
L 189.261612 38.89463 
L 191.99938 38.894654 
L 194.737149 38.894688 
L 197.474917 38.894726 
L 200.212686 38.894764 
L 202.950455 38.894804 
L 205.688223 199.642135 
L 208.425992 203.14992 
L 211.16376 203.345956 
L 213.901529 201.963722 
L 216.639298 199.348785 
L 219.377066 195.727146 
L 222.114835 191.325071 
L 224.852603 186.412387 
L 227.590372 181.271213 
L 230.32814 176.145261 
L 233.065909 38.906957 
L 235.803678 38.896719 
L 238.541446 38.895113 
L 241.279215 38.8949 
L 244.016983 38.894883 
L 246.754752 38.894911 
L 249.492521 38.89495 
L 252.230289 38.894992 
L 254.968058 38.895034 
L 257.705826 38.895077 
L 260.443595 202.721584 
L 263.181364 205.785881 
L 265.919132 205.684993 
L 268.656901 204.208954 
L 271.394669 201.675622 
L 274.132438 198.248916 
L 276.870207 194.084716 
L 279.607975 189.398031 
L 282.345744 184.445887 
L 285.083512 179.469546 
L 287.821281 38.909971 
L 290.55905 38.897004 
L 293.296818 38.895343 
L 296.034587 38.895124 
L 298.772355 38.895107 
L 301.510124 38.895135 
L 304.247893 38.895175 
L 306.985661 38.895218 
L 309.72343 38.895262 
L 312.461198 38.895305 
L 315.198967 204.620457 
L 317.936736 207.42812 
L 320.674504 207.161463 
L 323.412273 205.631563 
L 326.150041 203.145138 
L 328.88781 199.835023 
L 331.625579 195.817269 
L 334.363347 191.272029 
L 337.101116 186.437376 
L 339.838884 181.551 
" clip-path="url(#p59b006c3b7)" style="fill: none; stroke: #ff0000; stroke-width: 3; stroke-linecap: square"/>
   </g>
   <g id="line2d_14">
    <path d="M 66.062025 206.291722 
L 68.799793 110.204951 
L 71.537562 127.450972 
L 74.275331 126.397619 
L 77.013099 124.21477 
L 79.750868 124.031042 
L 82.488636 124.082244 
L 85.226405 124.140773 
L 87.964174 124.195485 
L 90.701942 124.250976 
L 93.439711 124.309372 
L 96.177479 230.62499 
L 98.915248 230.118575 
L 101.653017 229.905045 
L 104.390785 229.879896 
L 107.128554 229.774222 
L 109.866322 229.444794 
L 112.604091 228.852386 
L 115.34186 228.030949 
L 118.079628 227.062522 
L 120.817397 226.0446 
L 123.555165 101.110115 
L 126.292934 123.71456 
L 129.030702 138.940131 
L 131.768471 130.439851 
L 134.50624 129.348013 
L 137.244008 129.15233 
L 139.981777 129.047675 
L 142.719545 128.946108 
L 145.457314 128.848872 
L 148.195083 128.75983 
L 150.932851 231.454808 
L 153.67062 231.085419 
L 156.408388 230.871223 
L 159.146157 230.789778 
L 161.883926 230.624376 
L 164.621694 230.252245 
L 167.359463 229.63813 
L 170.097231 228.811536 
L 172.835 227.84658 
L 175.572769 226.833646 
L 178.310537 103.83316 
L 181.048306 126.286456 
L 183.786074 141.233051 
L 186.523843 132.956502 
L 189.261612 131.799274 
L 191.99938 131.537539 
L 194.737149 131.370433 
L 197.474917 131.208701 
L 200.212686 131.05334 
L 202.950455 130.908172 
L 205.688223 231.851375 
L 208.425992 231.539322 
L 211.16376 231.330362 
L 213.901529 231.22973 
L 216.639298 231.041423 
L 219.377066 230.653782 
L 222.114835 230.034657 
L 224.852603 229.211352 
L 227.590372 228.253531 
L 230.32814 227.247718 
L 233.065909 105.257576 
L 235.803678 127.660491 
L 238.541446 142.486055 
L 241.279215 134.284572 
L 244.016983 133.103517 
L 246.754752 132.812774 
L 249.492521 132.61751 
L 252.230289 132.428532 
L 254.968058 132.246746 
L 257.705826 132.075929 
L 260.443595 232.068104 
L 263.181364 231.775483 
L 265.919132 231.569253 
L 268.656901 231.461556 
L 271.394669 231.263962 
L 274.132438 230.870977 
L 276.870207 230.252496 
L 279.607975 229.434364 
L 282.345744 228.483358 
L 285.083512 227.483697 
L 287.821281 106.076094 
L 290.55905 128.459869 
L 293.296818 143.225764 
L 296.034587 135.0502 
L 298.772355 133.858915 
L 301.510124 133.553092 
L 304.247893 133.34287 
L 306.985661 133.139379 
L 309.72343 132.943505 
L 312.461198 132.758987 
L 315.198967 232.196165 
L 317.936736 231.908263 
L 320.674504 231.702975 
L 323.412273 231.592292 
L 326.150041 231.390485 
L 328.88781 230.995678 
L 331.625579 230.379076 
L 334.363347 229.565513 
L 337.101116 228.619805 
L 339.838884 227.624709 
" clip-path="url(#p59b006c3b7)" style="fill: none; stroke: #000000; stroke-width: 3; stroke-linecap: square"/>
   </g>
   <g id="patch_8">
    <path d="M 52.373182 241.861256 
L 52.373182 29.229256 
" style="fill: none; stroke: #000000; stroke-width: 0.8; stroke-linejoin: miter; stroke-linecap: square"/>
   </g>
   <g id="patch_9">
    <path d="M 353.527727 241.861256 
L 353.527727 29.229256 
" style="fill: none; stroke: #000000; stroke-width: 0.8; stroke-linejoin: miter; stroke-linecap: square"/>
   </g>
   <g id="patch_10">
    <path d="M 52.373182 241.861256 
L 353.527727 241.861256 
" style="fill: none; stroke: #000000; stroke-width: 0.8; stroke-linejoin: miter; stroke-linecap: square"/>
   </g>
   <g id="patch_11">
    <path d="M 52.373182 29.229256 
L 353.527727 29.229256 
" style="fill: none; stroke: #000000; stroke-width: 0.8; stroke-linejoin: miter; stroke-linecap: square"/>
   </g>
   <g id="text_15">
    <!-- A -->
    <g transform="translate(7.2 18.597656) scale(0.15 -0.15)">
     <defs>
      <path id="DejaVuSans-Bold-41" d="M 3419 850 
L 1538 850 
L 1241 0 
L 31 0 
L 1759 4666 
L 3194 4666 
L 4922 0 
L 3713 0 
L 3419 850 
z
M 1838 1716 
L 3116 1716 
L 2478 3572 
L 1838 1716 
z
" transform="scale(0.015625)"/>
     </defs>
     <use xlink:href="#DejaVuSans-Bold-41"/>
    </g>
   </g>
  </g>
  <g id="axes_2">
   <g id="patch_12">
    <path d="M 411.573182 241.861256 
L 712.727727 241.861256 
L 712.727727 29.229256 
L 411.573182 29.229256 
z
" style="fill: #ffffff"/>
   </g>
   <g id="patch_13">
    <path d="M 452.639711 241.861256 
L 480.017397 241.861256 
L 480.017397 29.229256 
L 452.639711 29.229256 
z
" clip-path="url(#p61868ed0a7)" style="fill: #b3b3b3; stroke: #b3b3b3; stroke-linejoin: miter"/>
   </g>
   <g id="patch_14">
    <path d="M 507.395083 241.861256 
L 534.772769 241.861256 
L 534.772769 29.229256 
L 507.395083 29.229256 
z
" clip-path="url(#p61868ed0a7)" style="fill: #b3b3b3; stroke: #b3b3b3; stroke-linejoin: miter"/>
   </g>
   <g id="patch_15">
    <path d="M 562.150455 241.861256 
L 589.52814 241.861256 
L 589.52814 29.229256 
L 562.150455 29.229256 
z
" clip-path="url(#p61868ed0a7)" style="fill: #b3b3b3; stroke: #b3b3b3; stroke-linejoin: miter"/>
   </g>
   <g id="patch_16">
    <path d="M 616.905826 241.861256 
L 644.283512 241.861256 
L 644.283512 29.229256 
L 616.905826 29.229256 
z
" clip-path="url(#p61868ed0a7)" style="fill: #b3b3b3; stroke: #b3b3b3; stroke-linejoin: miter"/>
   </g>
   <g id="patch_17">
    <path d="M 671.661198 241.861256 
L 699.038884 241.861256 
L 699.038884 29.229256 
L 671.661198 29.229256 
z
" clip-path="url(#p61868ed0a7)" style="fill: #b3b3b3; stroke: #b3b3b3; stroke-linejoin: miter"/>
   </g>
   <g id="matplotlib.axis_3">
    <g id="xtick_8">
     <g id="line2d_15">
      <g>
       <use xlink:href="#mf6501858d4" x="425.262025" y="241.861256" style="stroke: #000000; stroke-width: 0.8"/>
      </g>
     </g>
     <g id="text_16">
      <!-- 0 -->
      <g transform="translate(422.080775 256.459694) scale(0.1 -0.1)">
       <use xlink:href="#DejaVuSans-30"/>
      </g>
     </g>
    </g>
    <g id="xtick_9">
     <g id="line2d_16">
      <g>
       <use xlink:href="#mf6501858d4" x="470.891501" y="241.861256" style="stroke: #000000; stroke-width: 0.8"/>
      </g>
     </g>
     <g id="text_17">
      <!-- 100 -->
      <g transform="translate(461.347751 256.459694) scale(0.1 -0.1)">
       <use xlink:href="#DejaVuSans-31"/>
       <use xlink:href="#DejaVuSans-30" transform="translate(63.623047 0)"/>
       <use xlink:href="#DejaVuSans-30" transform="translate(127.246094 0)"/>
      </g>
     </g>
    </g>
    <g id="xtick_10">
     <g id="line2d_17">
      <g>
       <use xlink:href="#mf6501858d4" x="516.520978" y="241.861256" style="stroke: #000000; stroke-width: 0.8"/>
      </g>
     </g>
     <g id="text_18">
      <!-- 200 -->
      <g transform="translate(506.977228 256.459694) scale(0.1 -0.1)">
       <use xlink:href="#DejaVuSans-32"/>
       <use xlink:href="#DejaVuSans-30" transform="translate(63.623047 0)"/>
       <use xlink:href="#DejaVuSans-30" transform="translate(127.246094 0)"/>
      </g>
     </g>
    </g>
    <g id="xtick_11">
     <g id="line2d_18">
      <g>
       <use xlink:href="#mf6501858d4" x="562.150455" y="241.861256" style="stroke: #000000; stroke-width: 0.8"/>
      </g>
     </g>
     <g id="text_19">
      <!-- 300 -->
      <g transform="translate(552.606705 256.459694) scale(0.1 -0.1)">
       <use xlink:href="#DejaVuSans-33"/>
       <use xlink:href="#DejaVuSans-30" transform="translate(63.623047 0)"/>
       <use xlink:href="#DejaVuSans-30" transform="translate(127.246094 0)"/>
      </g>
     </g>
    </g>
    <g id="xtick_12">
     <g id="line2d_19">
      <g>
       <use xlink:href="#mf6501858d4" x="607.779931" y="241.861256" style="stroke: #000000; stroke-width: 0.8"/>
      </g>
     </g>
     <g id="text_20">
      <!-- 400 -->
      <g transform="translate(598.236181 256.459694) scale(0.1 -0.1)">
       <use xlink:href="#DejaVuSans-34"/>
       <use xlink:href="#DejaVuSans-30" transform="translate(63.623047 0)"/>
       <use xlink:href="#DejaVuSans-30" transform="translate(127.246094 0)"/>
      </g>
     </g>
    </g>
    <g id="xtick_13">
     <g id="line2d_20">
      <g>
       <use xlink:href="#mf6501858d4" x="653.409408" y="241.861256" style="stroke: #000000; stroke-width: 0.8"/>
      </g>
     </g>
     <g id="text_21">
      <!-- 500 -->
      <g transform="translate(643.865658 256.459694) scale(0.1 -0.1)">
       <use xlink:href="#DejaVuSans-35"/>
       <use xlink:href="#DejaVuSans-30" transform="translate(63.623047 0)"/>
       <use xlink:href="#DejaVuSans-30" transform="translate(127.246094 0)"/>
      </g>
     </g>
    </g>
    <g id="xtick_14">
     <g id="line2d_21">
      <g>
       <use xlink:href="#mf6501858d4" x="699.038884" y="241.861256" style="stroke: #000000; stroke-width: 0.8"/>
      </g>
     </g>
     <g id="text_22">
      <!-- 600 -->
      <g transform="translate(689.495134 256.459694) scale(0.1 -0.1)">
       <use xlink:href="#DejaVuSans-36"/>
       <use xlink:href="#DejaVuSans-30" transform="translate(63.623047 0)"/>
       <use xlink:href="#DejaVuSans-30" transform="translate(127.246094 0)"/>
      </g>
     </g>
    </g>
    <g id="text_23">
     <!-- Time / (s) -->
     <g transform="translate(538.548111 270.137819) scale(0.1 -0.1)">
      <use xlink:href="#DejaVuSans-54"/>
      <use xlink:href="#DejaVuSans-69" transform="translate(57.958984 0)"/>
      <use xlink:href="#DejaVuSans-6d" transform="translate(85.742188 0)"/>
      <use xlink:href="#DejaVuSans-65" transform="translate(183.154297 0)"/>
      <use xlink:href="#DejaVuSans-20" transform="translate(244.677734 0)"/>
      <use xlink:href="#DejaVuSans-2f" transform="translate(276.464844 0)"/>
      <use xlink:href="#DejaVuSans-20" transform="translate(310.15625 0)"/>
      <use xlink:href="#DejaVuSans-28" transform="translate(341.943359 0)"/>
      <use xlink:href="#DejaVuSans-73" transform="translate(380.957031 0)"/>
      <use xlink:href="#DejaVuSans-29" transform="translate(433.056641 0)"/>
     </g>
    </g>
   </g>
   <g id="matplotlib.axis_4">
    <g id="ytick_6">
     <g id="line2d_22">
      <g>
       <use xlink:href="#m086c0e9572" x="411.573182" y="212.850794" style="stroke: #000000; stroke-width: 0.8"/>
      </g>
     </g>
     <g id="text_24">
      <!-- 0.5 -->
      <g transform="translate(388.670057 216.650013) scale(0.1 -0.1)">
       <use xlink:href="#DejaVuSans-30"/>
       <use xlink:href="#DejaVuSans-2e" transform="translate(63.623047 0)"/>
       <use xlink:href="#DejaVuSans-35" transform="translate(95.410156 0)"/>
      </g>
     </g>
    </g>
    <g id="ytick_7">
     <g id="line2d_23">
      <g>
       <use xlink:href="#m086c0e9572" x="411.573182" y="183.281026" style="stroke: #000000; stroke-width: 0.8"/>
      </g>
     </g>
     <g id="text_25">
      <!-- 1.0 -->
      <g transform="translate(388.670057 187.080245) scale(0.1 -0.1)">
       <use xlink:href="#DejaVuSans-31"/>
       <use xlink:href="#DejaVuSans-2e" transform="translate(63.623047 0)"/>
       <use xlink:href="#DejaVuSans-30" transform="translate(95.410156 0)"/>
      </g>
     </g>
    </g>
    <g id="ytick_8">
     <g id="line2d_24">
      <g>
       <use xlink:href="#m086c0e9572" x="411.573182" y="153.711259" style="stroke: #000000; stroke-width: 0.8"/>
      </g>
     </g>
     <g id="text_26">
      <!-- 1.5 -->
      <g transform="translate(388.670057 157.510477) scale(0.1 -0.1)">
       <use xlink:href="#DejaVuSans-31"/>
       <use xlink:href="#DejaVuSans-2e" transform="translate(63.623047 0)"/>
       <use xlink:href="#DejaVuSans-35" transform="translate(95.410156 0)"/>
      </g>
     </g>
    </g>
    <g id="ytick_9">
     <g id="line2d_25">
      <g>
       <use xlink:href="#m086c0e9572" x="411.573182" y="124.141491" style="stroke: #000000; stroke-width: 0.8"/>
      </g>
     </g>
     <g id="text_27">
      <!-- 2.0 -->
      <g transform="translate(388.670057 127.94071) scale(0.1 -0.1)">
       <use xlink:href="#DejaVuSans-32"/>
       <use xlink:href="#DejaVuSans-2e" transform="translate(63.623047 0)"/>
       <use xlink:href="#DejaVuSans-30" transform="translate(95.410156 0)"/>
      </g>
     </g>
    </g>
    <g id="ytick_10">
     <g id="line2d_26">
      <g>
       <use xlink:href="#m086c0e9572" x="411.573182" y="94.571723" style="stroke: #000000; stroke-width: 0.8"/>
      </g>
     </g>
     <g id="text_28">
      <!-- 2.5 -->
      <g transform="translate(388.670057 98.370942) scale(0.1 -0.1)">
       <use xlink:href="#DejaVuSans-32"/>
       <use xlink:href="#DejaVuSans-2e" transform="translate(63.623047 0)"/>
       <use xlink:href="#DejaVuSans-35" transform="translate(95.410156 0)"/>
      </g>
     </g>
    </g>
    <g id="ytick_11">
     <g id="line2d_27">
      <g>
       <use xlink:href="#m086c0e9572" x="411.573182" y="65.001956" style="stroke: #000000; stroke-width: 0.8"/>
      </g>
     </g>
     <g id="text_29">
      <!-- 3.0 -->
      <g transform="translate(388.670057 68.801175) scale(0.1 -0.1)">
       <use xlink:href="#DejaVuSans-33"/>
       <use xlink:href="#DejaVuSans-2e" transform="translate(63.623047 0)"/>
       <use xlink:href="#DejaVuSans-30" transform="translate(95.410156 0)"/>
      </g>
     </g>
    </g>
    <g id="ytick_12">
     <g id="line2d_28">
      <g>
       <use xlink:href="#m086c0e9572" x="411.573182" y="35.432188" style="stroke: #000000; stroke-width: 0.8"/>
      </g>
     </g>
     <g id="text_30">
      <!-- 3.5 -->
      <g transform="translate(388.670057 39.231407) scale(0.1 -0.1)">
       <use xlink:href="#DejaVuSans-33"/>
       <use xlink:href="#DejaVuSans-2e" transform="translate(63.623047 0)"/>
       <use xlink:href="#DejaVuSans-35" transform="translate(95.410156 0)"/>
      </g>
     </g>
    </g>
    <g id="text_31">
     <!-- Rate of RuBisCO / (mM / s) -->
     <g transform="translate(382.590369 201.690569) rotate(-90) scale(0.1 -0.1)">
      <defs>
       <path id="DejaVuSans-66" d="M 2375 4863 
L 2375 4384 
L 1825 4384 
Q 1516 4384 1395 4259 
Q 1275 4134 1275 3809 
L 1275 3500 
L 2222 3500 
L 2222 3053 
L 1275 3053 
L 1275 0 
L 697 0 
L 697 3053 
L 147 3053 
L 147 3500 
L 697 3500 
L 697 3744 
Q 697 4328 969 4595 
Q 1241 4863 1831 4863 
L 2375 4863 
z
" transform="scale(0.015625)"/>
       <path id="DejaVuSans-75" d="M 544 1381 
L 544 3500 
L 1119 3500 
L 1119 1403 
Q 1119 906 1312 657 
Q 1506 409 1894 409 
Q 2359 409 2629 706 
Q 2900 1003 2900 1516 
L 2900 3500 
L 3475 3500 
L 3475 0 
L 2900 0 
L 2900 538 
Q 2691 219 2414 64 
Q 2138 -91 1772 -91 
Q 1169 -91 856 284 
Q 544 659 544 1381 
z
M 1991 3584 
L 1991 3584 
z
" transform="scale(0.015625)"/>
       <path id="DejaVuSans-42" d="M 1259 2228 
L 1259 519 
L 2272 519 
Q 2781 519 3026 730 
Q 3272 941 3272 1375 
Q 3272 1813 3026 2020 
Q 2781 2228 2272 2228 
L 1259 2228 
z
M 1259 4147 
L 1259 2741 
L 2194 2741 
Q 2656 2741 2882 2914 
Q 3109 3088 3109 3444 
Q 3109 3797 2882 3972 
Q 2656 4147 2194 4147 
L 1259 4147 
z
M 628 4666 
L 2241 4666 
Q 2963 4666 3353 4366 
Q 3744 4066 3744 3513 
Q 3744 3084 3544 2831 
Q 3344 2578 2956 2516 
Q 3422 2416 3680 2098 
Q 3938 1781 3938 1306 
Q 3938 681 3513 340 
Q 3088 0 2303 0 
L 628 0 
L 628 4666 
z
" transform="scale(0.015625)"/>
       <path id="DejaVuSans-43" d="M 4122 4306 
L 4122 3641 
Q 3803 3938 3442 4084 
Q 3081 4231 2675 4231 
Q 1875 4231 1450 3742 
Q 1025 3253 1025 2328 
Q 1025 1406 1450 917 
Q 1875 428 2675 428 
Q 3081 428 3442 575 
Q 3803 722 4122 1019 
L 4122 359 
Q 3791 134 3420 21 
Q 3050 -91 2638 -91 
Q 1578 -91 968 557 
Q 359 1206 359 2328 
Q 359 3453 968 4101 
Q 1578 4750 2638 4750 
Q 3056 4750 3426 4639 
Q 3797 4528 4122 4306 
z
" transform="scale(0.015625)"/>
       <path id="DejaVuSans-4f" d="M 2522 4238 
Q 1834 4238 1429 3725 
Q 1025 3213 1025 2328 
Q 1025 1447 1429 934 
Q 1834 422 2522 422 
Q 3209 422 3611 934 
Q 4013 1447 4013 2328 
Q 4013 3213 3611 3725 
Q 3209 4238 2522 4238 
z
M 2522 4750 
Q 3503 4750 4090 4092 
Q 4678 3434 4678 2328 
Q 4678 1225 4090 567 
Q 3503 -91 2522 -91 
Q 1538 -91 948 565 
Q 359 1222 359 2328 
Q 359 3434 948 4092 
Q 1538 4750 2522 4750 
z
" transform="scale(0.015625)"/>
       <path id="DejaVuSans-4d" d="M 628 4666 
L 1569 4666 
L 2759 1491 
L 3956 4666 
L 4897 4666 
L 4897 0 
L 4281 0 
L 4281 4097 
L 3078 897 
L 2444 897 
L 1241 4097 
L 1241 0 
L 628 0 
L 628 4666 
z
" transform="scale(0.015625)"/>
      </defs>
      <use xlink:href="#DejaVuSans-52"/>
      <use xlink:href="#DejaVuSans-61" transform="translate(67.232422 0)"/>
      <use xlink:href="#DejaVuSans-74" transform="translate(128.511719 0)"/>
      <use xlink:href="#DejaVuSans-65" transform="translate(167.720703 0)"/>
      <use xlink:href="#DejaVuSans-20" transform="translate(229.244141 0)"/>
      <use xlink:href="#DejaVuSans-6f" transform="translate(261.03125 0)"/>
      <use xlink:href="#DejaVuSans-66" transform="translate(322.212891 0)"/>
      <use xlink:href="#DejaVuSans-20" transform="translate(357.417969 0)"/>
      <use xlink:href="#DejaVuSans-52" transform="translate(389.205078 0)"/>
      <use xlink:href="#DejaVuSans-75" transform="translate(454.1875 0)"/>
      <use xlink:href="#DejaVuSans-42" transform="translate(517.566406 0)"/>
      <use xlink:href="#DejaVuSans-69" transform="translate(586.169922 0)"/>
      <use xlink:href="#DejaVuSans-73" transform="translate(613.953125 0)"/>
      <use xlink:href="#DejaVuSans-43" transform="translate(666.052734 0)"/>
      <use xlink:href="#DejaVuSans-4f" transform="translate(735.876953 0)"/>
      <use xlink:href="#DejaVuSans-20" transform="translate(814.587891 0)"/>
      <use xlink:href="#DejaVuSans-2f" transform="translate(846.375 0)"/>
      <use xlink:href="#DejaVuSans-20" transform="translate(880.066406 0)"/>
      <use xlink:href="#DejaVuSans-28" transform="translate(911.853516 0)"/>
      <use xlink:href="#DejaVuSans-6d" transform="translate(950.867188 0)"/>
      <use xlink:href="#DejaVuSans-4d" transform="translate(1048.279297 0)"/>
      <use xlink:href="#DejaVuSans-20" transform="translate(1134.558594 0)"/>
      <use xlink:href="#DejaVuSans-2f" transform="translate(1166.345703 0)"/>
      <use xlink:href="#DejaVuSans-20" transform="translate(1200.037109 0)"/>
      <use xlink:href="#DejaVuSans-73" transform="translate(1231.824219 0)"/>
      <use xlink:href="#DejaVuSans-29" transform="translate(1283.923828 0)"/>
     </g>
    </g>
   </g>
   <g id="line2d_29">
    <path d="M 425.262025 202.919146 
L 427.999793 65.252734 
L 430.737562 42.23 
L 433.475331 39.058777 
L 436.213099 38.894347 
L 438.950868 39.180594 
L 441.688636 39.281205 
L 444.426405 39.286789 
L 447.164174 39.26024 
L 449.901942 39.226012 
L 452.639711 39.19239 
L 455.377479 223.362861 
L 458.115248 222.686546 
L 460.853017 223.38077 
L 463.590785 224.365755 
L 466.328554 225.378232 
L 469.066322 226.329714 
L 471.804091 227.168014 
L 474.54186 227.871772 
L 477.279628 228.446693 
L 480.017397 228.911997 
L 482.755165 91.898116 
L 485.492934 55.846013 
L 488.230702 42.434858 
L 490.968471 42.085692 
L 493.70624 42.175254 
L 496.444008 42.27826 
L 499.181777 42.238656 
L 501.919545 42.139264 
L 504.657314 42.024695 
L 507.395083 41.911247 
L 510.132851 223.537181 
L 512.87062 222.870578 
L 515.608388 223.55566 
L 518.346157 224.529593 
L 521.083926 225.527523 
L 523.821694 226.462701 
L 526.559463 227.285734 
L 529.297231 227.976694 
L 532.035 228.541218 
L 534.772769 228.997968 
L 537.510537 92.921505 
L 540.248306 57.487812 
L 542.986074 44.519786 
L 545.723843 43.953425 
L 548.461612 43.943952 
L 551.19938 43.990549 
L 553.937149 43.900594 
L 556.674917 43.753119 
L 559.412686 43.592818 
L 562.150455 43.436086 
L 564.888223 223.659294 
L 567.625992 222.994582 
L 570.36376 223.66979 
L 573.101529 224.634374 
L 575.839298 225.621152 
L 578.577066 226.544335 
L 581.314835 227.356412 
L 584.052603 228.038433 
L 586.790372 228.595931 
L 589.52814 229.047039 
L 592.265909 93.511723 
L 595.003678 58.412723 
L 597.741446 45.69456 
L 600.479215 45.024584 
L 603.216983 44.964656 
L 605.954752 44.980899 
L 608.692521 44.863812 
L 611.430289 44.690543 
L 614.168058 44.505744 
L 616.905826 44.325808 
L 619.643595 223.746786 
L 622.381364 223.078957 
L 625.119132 223.745108 
L 627.856901 224.702208 
L 630.594669 225.68065 
L 633.332438 226.595198 
L 636.070207 227.399671 
L 638.807975 228.075682 
L 641.545744 228.628568 
L 644.283512 229.076084 
L 647.021281 93.861052 
L 649.75905 58.961687 
L 652.496818 46.39684 
L 655.234587 45.671257 
L 657.972355 45.583082 
L 660.710124 45.581536 
L 663.447893 45.448508 
L 666.185661 45.260135 
L 668.92343 45.061005 
L 671.661198 44.867491 
L 674.398967 223.808102 
L 677.136736 223.135812 
L 679.874504 223.794997 
L 682.612273 224.746604 
L 685.350041 225.719105 
L 688.08781 226.62763 
L 690.825579 227.426896 
L 693.563347 228.098876 
L 696.301116 228.648738 
L 699.038884 229.093925 
" clip-path="url(#p61868ed0a7)" style="fill: none; stroke: #000000; stroke-width: 3; stroke-linecap: square"/>
   </g>
   <g id="line2d_30">
    <path d="M 425.262025 202.919146 
L 427.999793 144.705045 
L 430.737562 145.16297 
L 433.475331 144.848317 
L 436.213099 144.544698 
L 438.950868 144.265599 
L 441.688636 144.008708 
L 444.426405 143.770121 
L 447.164174 143.5467 
L 449.901942 143.33619 
L 452.639711 143.136987 
L 455.377479 226.606647 
L 458.115248 227.307578 
L 460.853017 228.042937 
L 463.590785 228.631187 
L 466.328554 229.069513 
L 469.066322 229.394277 
L 471.804091 229.640485 
L 474.54186 229.830897 
L 477.279628 229.977872 
L 480.017397 230.089262 
L 482.755165 140.934652 
L 485.492934 142.465235 
L 488.230702 143.034865 
L 490.968471 142.901511 
L 493.70624 142.701734 
L 496.444008 142.510418 
L 499.181777 142.335033 
L 501.919545 142.173714 
L 504.657314 142.023779 
L 507.395083 141.883157 
L 510.132851 227.66318 
L 512.87062 228.231169 
L 515.608388 228.889282 
L 518.346157 229.453592 
L 521.083926 229.902192 
L 523.821694 230.247925 
L 526.559463 230.5103 
L 529.297231 230.709191 
L 532.035 230.859925 
L 534.772769 230.972842 
L 537.510537 138.448927 
L 540.248306 141.27718 
L 542.986074 141.979352 
L 545.723843 141.907999 
L 548.461612 141.759409 
L 551.19938 141.614001 
L 553.937149 141.480956 
L 556.674917 141.359171 
L 559.412686 141.246436 
L 562.150455 141.140963 
L 564.888223 228.345881 
L 567.625992 228.843288 
L 570.36376 229.458251 
L 573.101529 230.003701 
L 575.839298 230.452373 
L 578.577066 230.808239 
L 581.314835 231.081628 
L 584.052603 231.288063 
L 586.790372 231.442966 
L 589.52814 231.558025 
L 592.265909 136.221996 
L 595.003678 140.55457 
L 597.741446 141.349109 
L 600.479215 141.31457 
L 603.216983 141.196106 
L 605.954752 141.077701 
L 608.692521 140.969583 
L 611.430289 140.871124 
L 614.168058 140.780375 
L 616.905826 140.695713 
L 619.643595 228.790568 
L 622.381364 229.247356 
L 625.119132 229.836373 
L 627.856901 230.368329 
L 630.594669 230.81426 
L 633.332438 231.174845 
L 636.070207 231.45516 
L 638.807975 231.667222 
L 641.545744 231.82565 
L 644.283512 231.942723 
L 647.021281 134.270393 
L 649.75905 140.109757 
L 652.496818 140.968072 
L 655.234587 140.955892 
L 657.972355 140.855607 
L 660.710124 140.753494 
L 663.447893 140.660428 
L 666.185661 140.576068 
L 668.92343 140.498627 
L 671.661198 140.426577 
L 674.398967 229.081862 
L 677.136736 229.514215 
L 679.874504 230.087084 
L 682.612273 230.609706 
L 685.350041 231.052745 
L 688.08781 231.415596 
L 690.825579 231.700242 
L 693.563347 231.916269 
L 696.301116 232.077414 
L 699.038884 232.196165 
" clip-path="url(#p61868ed0a7)" style="fill: none; stroke: #ff0000; stroke-width: 3; stroke-linecap: square"/>
   </g>
   <g id="patch_18">
    <path d="M 411.573182 241.861256 
L 411.573182 29.229256 
" style="fill: none; stroke: #000000; stroke-width: 0.8; stroke-linejoin: miter; stroke-linecap: square"/>
   </g>
   <g id="patch_19">
    <path d="M 712.727727 241.861256 
L 712.727727 29.229256 
" style="fill: none; stroke: #000000; stroke-width: 0.8; stroke-linejoin: miter; stroke-linecap: square"/>
   </g>
   <g id="patch_20">
    <path d="M 411.573182 241.861256 
L 712.727727 241.861256 
" style="fill: none; stroke: #000000; stroke-width: 0.8; stroke-linejoin: miter; stroke-linecap: square"/>
   </g>
   <g id="patch_21">
    <path d="M 411.573182 29.229256 
L 712.727727 29.229256 
" style="fill: none; stroke: #000000; stroke-width: 0.8; stroke-linejoin: miter; stroke-linecap: square"/>
   </g>
   <g id="text_32">
    <!-- B -->
    <g transform="translate(366.4 18.597656) scale(0.15 -0.15)">
     <defs>
      <path id="DejaVuSans-Bold-42" d="M 2456 2859 
Q 2741 2859 2887 2984 
Q 3034 3109 3034 3353 
Q 3034 3594 2887 3720 
Q 2741 3847 2456 3847 
L 1791 3847 
L 1791 2859 
L 2456 2859 
z
M 2497 819 
Q 2859 819 3042 972 
Q 3225 1125 3225 1434 
Q 3225 1738 3044 1889 
Q 2863 2041 2497 2041 
L 1791 2041 
L 1791 819 
L 2497 819 
z
M 3616 2497 
Q 4003 2384 4215 2081 
Q 4428 1778 4428 1338 
Q 4428 663 3972 331 
Q 3516 0 2584 0 
L 588 0 
L 588 4666 
L 2394 4666 
Q 3366 4666 3802 4372 
Q 4238 4078 4238 3431 
Q 4238 3091 4078 2852 
Q 3919 2613 3616 2497 
z
" transform="scale(0.015625)"/>
     </defs>
     <use xlink:href="#DejaVuSans-Bold-42"/>
    </g>
   </g>
  </g>
  <g id="legend_1">
   <g id="patch_22">
    <path d="M 273.485739 281.021256 
L 446.441989 281.021256 
Q 448.441989 281.021256 448.441989 279.021256 
L 448.441989 265.343131 
Q 448.441989 263.343131 446.441989 263.343131 
L 273.485739 263.343131 
Q 271.485739 263.343131 271.485739 265.343131 
L 271.485739 279.021256 
Q 271.485739 281.021256 273.485739 281.021256 
z
" style="fill: #ffffff; opacity: 0.8; stroke: #cccccc; stroke-linejoin: miter"/>
   </g>
   <g id="line2d_31">
    <path d="M 275.485739 271.441569 
L 285.485739 271.441569 
L 295.485739 271.441569 
" style="fill: none; stroke: #ff0000; stroke-width: 3; stroke-linecap: square"/>
   </g>
   <g id="text_33">
    <!-- PGR-5 KO -->
    <g transform="translate(303.485739 274.941569) scale(0.1 -0.1)">
     <defs>
      <path id="DejaVuSans-50" d="M 1259 4147 
L 1259 2394 
L 2053 2394 
Q 2494 2394 2734 2622 
Q 2975 2850 2975 3272 
Q 2975 3691 2734 3919 
Q 2494 4147 2053 4147 
L 1259 4147 
z
M 628 4666 
L 2053 4666 
Q 2838 4666 3239 4311 
Q 3641 3956 3641 3272 
Q 3641 2581 3239 2228 
Q 2838 1875 2053 1875 
L 1259 1875 
L 1259 0 
L 628 0 
L 628 4666 
z
" transform="scale(0.015625)"/>
      <path id="DejaVuSans-47" d="M 3809 666 
L 3809 1919 
L 2778 1919 
L 2778 2438 
L 4434 2438 
L 4434 434 
Q 4069 175 3628 42 
Q 3188 -91 2688 -91 
Q 1594 -91 976 548 
Q 359 1188 359 2328 
Q 359 3472 976 4111 
Q 1594 4750 2688 4750 
Q 3144 4750 3555 4637 
Q 3966 4525 4313 4306 
L 4313 3634 
Q 3963 3931 3569 4081 
Q 3175 4231 2741 4231 
Q 1884 4231 1454 3753 
Q 1025 3275 1025 2328 
Q 1025 1384 1454 906 
Q 1884 428 2741 428 
Q 3075 428 3337 486 
Q 3600 544 3809 666 
z
" transform="scale(0.015625)"/>
      <path id="DejaVuSans-2d" d="M 313 2009 
L 1997 2009 
L 1997 1497 
L 313 1497 
L 313 2009 
z
" transform="scale(0.015625)"/>
      <path id="DejaVuSans-4b" d="M 628 4666 
L 1259 4666 
L 1259 2694 
L 3353 4666 
L 4166 4666 
L 1850 2491 
L 4331 0 
L 3500 0 
L 1259 2247 
L 1259 0 
L 628 0 
L 628 4666 
z
" transform="scale(0.015625)"/>
     </defs>
     <use xlink:href="#DejaVuSans-50"/>
     <use xlink:href="#DejaVuSans-47" transform="translate(60.302734 0)"/>
     <use xlink:href="#DejaVuSans-52" transform="translate(137.792969 0)"/>
     <use xlink:href="#DejaVuSans-2d" transform="translate(203.275391 0)"/>
     <use xlink:href="#DejaVuSans-35" transform="translate(239.359375 0)"/>
     <use xlink:href="#DejaVuSans-20" transform="translate(302.982422 0)"/>
     <use xlink:href="#DejaVuSans-4b" transform="translate(334.769531 0)"/>
     <use xlink:href="#DejaVuSans-4f" transform="translate(394.845703 0)"/>
    </g>
   </g>
   <g id="line2d_32">
    <path d="M 370.840426 271.441569 
L 380.840426 271.441569 
L 390.840426 271.441569 
" style="fill: none; stroke: #000000; stroke-width: 3; stroke-linecap: square"/>
   </g>
   <g id="text_34">
    <!-- wild type -->
    <g transform="translate(398.840426 274.941569) scale(0.1 -0.1)">
     <defs>
      <path id="DejaVuSans-77" d="M 269 3500 
L 844 3500 
L 1563 769 
L 2278 3500 
L 2956 3500 
L 3675 769 
L 4391 3500 
L 4966 3500 
L 4050 0 
L 3372 0 
L 2619 2869 
L 1863 0 
L 1184 0 
L 269 3500 
z
" transform="scale(0.015625)"/>
      <path id="DejaVuSans-6c" d="M 603 4863 
L 1178 4863 
L 1178 0 
L 603 0 
L 603 4863 
z
" transform="scale(0.015625)"/>
      <path id="DejaVuSans-79" d="M 2059 -325 
Q 1816 -950 1584 -1140 
Q 1353 -1331 966 -1331 
L 506 -1331 
L 506 -850 
L 844 -850 
Q 1081 -850 1212 -737 
Q 1344 -625 1503 -206 
L 1606 56 
L 191 3500 
L 800 3500 
L 1894 763 
L 2988 3500 
L 3597 3500 
L 2059 -325 
z
" transform="scale(0.015625)"/>
      <path id="DejaVuSans-70" d="M 1159 525 
L 1159 -1331 
L 581 -1331 
L 581 3500 
L 1159 3500 
L 1159 2969 
Q 1341 3281 1617 3432 
Q 1894 3584 2278 3584 
Q 2916 3584 3314 3078 
Q 3713 2572 3713 1747 
Q 3713 922 3314 415 
Q 2916 -91 2278 -91 
Q 1894 -91 1617 61 
Q 1341 213 1159 525 
z
M 3116 1747 
Q 3116 2381 2855 2742 
Q 2594 3103 2138 3103 
Q 1681 3103 1420 2742 
Q 1159 2381 1159 1747 
Q 1159 1113 1420 752 
Q 1681 391 2138 391 
Q 2594 391 2855 752 
Q 3116 1113 3116 1747 
z
" transform="scale(0.015625)"/>
     </defs>
     <use xlink:href="#DejaVuSans-77"/>
     <use xlink:href="#DejaVuSans-69" transform="translate(81.787109 0)"/>
     <use xlink:href="#DejaVuSans-6c" transform="translate(109.570312 0)"/>
     <use xlink:href="#DejaVuSans-64" transform="translate(137.353516 0)"/>
     <use xlink:href="#DejaVuSans-20" transform="translate(200.830078 0)"/>
     <use xlink:href="#DejaVuSans-74" transform="translate(232.617188 0)"/>
     <use xlink:href="#DejaVuSans-79" transform="translate(271.826172 0)"/>
     <use xlink:href="#DejaVuSans-70" transform="translate(331.005859 0)"/>
     <use xlink:href="#DejaVuSans-65" transform="translate(394.482422 0)"/>
    </g>
   </g>
  </g>
 </g>
 <defs>
  <clipPath id="p59b006c3b7">
   <rect x="52.373182" y="29.229256" width="301.154545" height="212.632"/>
  </clipPath>
  <clipPath id="p61868ed0a7">
   <rect x="411.573182" y="29.229256" width="301.154545" height="212.632"/>
  </clipPath>
 </defs>
</svg>
