<?xml version="1.0" encoding="utf-8" standalone="no"?>
<!DOCTYPE svg PUBLIC "-//W3C//DTD SVG 1.1//EN"
  "http://www.w3.org/Graphics/SVG/1.1/DTD/svg11.dtd">
<svg xmlns:xlink="http://www.w3.org/1999/xlink" width="621.70625pt" height="321.95625pt" viewBox="0 0 621.70625 321.95625" xmlns="http://www.w3.org/2000/svg" version="1.1">
 <metadata>
  <rdf:RDF xmlns:dc="http://purl.org/dc/elements/1.1/" xmlns:cc="http://creativecommons.org/ns#" xmlns:rdf="http://www.w3.org/1999/02/22-rdf-syntax-ns#">
   <cc:Work>
    <dc:type rdf:resource="http://purl.org/dc/dcmitype/StillImage"/>
    <dc:date>2026-01-27T10:02:22.103595</dc:date>
    <dc:format>image/svg+xml</dc:format>
    <dc:creator>
     <cc:Agent>
      <dc:title>Matplotlib v3.10.8, https://matplotlib.org/</dc:title>
     </cc:Agent>
    </dc:creator>
   </cc:Work>
  </rdf:RDF>
 </metadata>
 <defs>
  <style type="text/css">*{stroke-linejoin: round; stroke-linecap: butt}</style>
 </defs>
 <g id="figure_1">
  <g id="patch_1">
   <path d="M 0 321.95625 
L 621.70625 321.95625 
L 621.70625 0 
L 0 0 
z
" style="fill: #ffffff"/>
  </g>
  <g id="axes_1">
   <g id="patch_2">
    <path d="M 43.78125 284.4 
L 601.78125 284.4 
L 601.78125 7.2 
L 43.78125 7.2 
z
" style="fill: #ffffff"/>
   </g>
   <g id="patch_3">
    <path d="M 43.78125 284.4 
L 70.38669 284.4 
L 70.38669 7.2 
L 43.78125 7.2 
z
" clip-path="url(#pe3f770f676)" style="opacity: 0.3"/>
   </g>
   <g id="patch_4">
    <path d="M 70.38669 284.4 
L 97.17069 284.4 
L 97.17069 7.2 
L 70.38669 7.2 
z
" clip-path="url(#pe3f770f676)" style="opacity: 0.3"/>
   </g>
   <g id="patch_5">
    <path d="M 97.17069 284.4 
L 123.95469 284.4 
L 123.95469 7.2 
L 97.17069 7.2 
z
" clip-path="url(#pe3f770f676)" style="fill: #ffffff; opacity: 0.3"/>
   </g>
   <g id="patch_6">
    <path d="M 123.95469 284.4 
L 150.73869 284.4 
L 150.73869 7.2 
L 123.95469 7.2 
z
" clip-path="url(#pe3f770f676)" style="fill: #ffffff; opacity: 0.3"/>
   </g>
   <g id="patch_7">
    <path d="M 150.73869 284.4 
L 177.52269 284.4 
L 177.52269 7.2 
L 150.73869 7.2 
z
" clip-path="url(#pe3f770f676)" style="fill: #ffffff; opacity: 0.3"/>
   </g>
   <g id="patch_8">
    <path d="M 177.52269 284.4 
L 204.30669 284.4 
L 204.30669 7.2 
L 177.52269 7.2 
z
" clip-path="url(#pe3f770f676)" style="fill: #ffffff; opacity: 0.3"/>
   </g>
   <g id="patch_9">
    <path d="M 204.30669 284.4 
L 231.09069 284.4 
L 231.09069 7.2 
L 204.30669 7.2 
z
" clip-path="url(#pe3f770f676)" style="fill: #ffffff; opacity: 0.3"/>
   </g>
   <g id="patch_10">
    <path d="M 231.09069 284.4 
L 257.87469 284.4 
L 257.87469 7.2 
L 231.09069 7.2 
z
" clip-path="url(#pe3f770f676)" style="fill: #ffffff; opacity: 0.3"/>
   </g>
   <g id="patch_11">
    <path d="M 257.87469 284.4 
L 284.65869 284.4 
L 284.65869 7.2 
L 257.87469 7.2 
z
" clip-path="url(#pe3f770f676)" style="fill: #ffffff; opacity: 0.3"/>
   </g>
   <g id="patch_12">
    <path d="M 284.65869 284.4 
L 311.44269 284.4 
L 311.44269 7.2 
L 284.65869 7.2 
z
" clip-path="url(#pe3f770f676)" style="fill: #ffffff; opacity: 0.3"/>
   </g>
   <g id="patch_13">
    <path d="M 311.44269 284.4 
L 338.22669 284.4 
L 338.22669 7.2 
L 311.44269 7.2 
z
" clip-path="url(#pe3f770f676)" style="fill: #ffffff; opacity: 0.3"/>
   </g>
   <g id="patch_14">
    <path d="M 338.22669 284.4 
L 365.01069 284.4 
L 365.01069 7.2 
L 338.22669 7.2 
z
" clip-path="url(#pe3f770f676)" style="fill: #ffffff; opacity: 0.3"/>
   </g>
   <g id="patch_15">
    <path d="M 365.01069 284.4 
L 391.79469 284.4 
L 391.79469 7.2 
L 365.01069 7.2 
z
" clip-path="url(#pe3f770f676)" style="opacity: 0.3"/>
   </g>
   <g id="patch_16">
    <path d="M 391.79469 284.4 
L 418.57869 284.4 
L 418.57869 7.2 
L 391.79469 7.2 
z
" clip-path="url(#pe3f770f676)" style="opacity: 0.3"/>
   </g>
   <g id="patch_17">
    <path d="M 418.57869 284.4 
L 445.36269 284.4 
L 445.36269 7.2 
L 418.57869 7.2 
z
" clip-path="url(#pe3f770f676)" style="opacity: 0.3"/>
   </g>
   <g id="patch_18">
    <path d="M 445.36269 284.4 
L 472.14669 284.4 
L 472.14669 7.2 
L 445.36269 7.2 
z
" clip-path="url(#pe3f770f676)" style="opacity: 0.3"/>
   </g>
   <g id="patch_19">
    <path d="M 472.14669 284.4 
L 498.93069 284.4 
L 498.93069 7.2 
L 472.14669 7.2 
z
" clip-path="url(#pe3f770f676)" style="opacity: 0.3"/>
   </g>
   <g id="patch_20">
    <path d="M 498.93069 284.4 
L 525.71469 284.4 
L 525.71469 7.2 
L 498.93069 7.2 
z
" clip-path="url(#pe3f770f676)" style="opacity: 0.3"/>
   </g>
   <g id="patch_21">
    <path d="M 525.71469 284.4 
L 552.49869 284.4 
L 552.49869 7.2 
L 525.71469 7.2 
z
" clip-path="url(#pe3f770f676)" style="opacity: 0.3"/>
   </g>
   <g id="patch_22">
    <path d="M 552.49869 284.4 
L 579.28269 284.4 
L 579.28269 7.2 
L 552.49869 7.2 
z
" clip-path="url(#pe3f770f676)" style="opacity: 0.3"/>
   </g>
   <g id="patch_23">
    <path d="M 579.28269 284.4 
L 606.06669 284.4 
L 606.06669 7.2 
L 579.28269 7.2 
z
" clip-path="url(#pe3f770f676)" style="opacity: 0.3"/>
   </g>
   <g id="matplotlib.axis_1">
    <g id="xtick_1">
     <g id="line2d_1">
      <defs>
       <path id="m01a80b8445" d="M 0 0 
L 0 3.5 
" style="stroke: #000000; stroke-width: 0.8"/>
      </defs>
      <g>
       <use xlink:href="#m01a80b8445" x="43.78125" y="284.4" style="stroke: #000000; stroke-width: 0.8"/>
      </g>
     </g>
     <g id="text_1">
      <!-- 0 -->
      <g transform="translate(40.6 298.998438) scale(0.1 -0.1)">
       <defs>
        <path id="DejaVuSans-30" d="M 2034 4250 
Q 1547 4250 1301 3770 
Q 1056 3291 1056 2328 
Q 1056 1369 1301 889 
Q 1547 409 2034 409 
Q 2525 409 2770 889 
Q 3016 1369 3016 2328 
Q 3016 3291 2770 3770 
Q 2525 4250 2034 4250 
z
M 2034 4750 
Q 2819 4750 3233 4129 
Q 3647 3509 3647 2328 
Q 3647 1150 3233 529 
Q 2819 -91 2034 -91 
Q 1250 -91 836 529 
Q 422 1150 422 2328 
Q 422 3509 836 4129 
Q 1250 4750 2034 4750 
z
" transform="scale(0.015625)"/>
       </defs>
       <use xlink:href="#DejaVuSans-30"/>
      </g>
     </g>
    </g>
    <g id="xtick_2">
     <g id="line2d_2">
      <g>
       <use xlink:href="#m01a80b8445" x="155.38125" y="284.4" style="stroke: #000000; stroke-width: 0.8"/>
      </g>
     </g>
     <g id="text_2">
      <!-- 500 -->
      <g transform="translate(145.8375 298.998438) scale(0.1 -0.1)">
       <defs>
        <path id="DejaVuSans-35" d="M 691 4666 
L 3169 4666 
L 3169 4134 
L 1269 4134 
L 1269 2991 
Q 1406 3038 1543 3061 
Q 1681 3084 1819 3084 
Q 2600 3084 3056 2656 
Q 3513 2228 3513 1497 
Q 3513 744 3044 326 
Q 2575 -91 1722 -91 
Q 1428 -91 1123 -41 
Q 819 9 494 109 
L 494 744 
Q 775 591 1075 516 
Q 1375 441 1709 441 
Q 2250 441 2565 725 
Q 2881 1009 2881 1497 
Q 2881 1984 2565 2268 
Q 2250 2553 1709 2553 
Q 1456 2553 1204 2497 
Q 953 2441 691 2322 
L 691 4666 
z
" transform="scale(0.015625)"/>
       </defs>
       <use xlink:href="#DejaVuSans-35"/>
       <use xlink:href="#DejaVuSans-30" transform="translate(63.623047 0)"/>
       <use xlink:href="#DejaVuSans-30" transform="translate(127.246094 0)"/>
      </g>
     </g>
    </g>
    <g id="xtick_3">
     <g id="line2d_3">
      <g>
       <use xlink:href="#m01a80b8445" x="266.98125" y="284.4" style="stroke: #000000; stroke-width: 0.8"/>
      </g>
     </g>
     <g id="text_3">
      <!-- 1000 -->
      <g transform="translate(254.25625 298.998438) scale(0.1 -0.1)">
       <defs>
        <path id="DejaVuSans-31" d="M 794 531 
L 1825 531 
L 1825 4091 
L 703 3866 
L 703 4441 
L 1819 4666 
L 2450 4666 
L 2450 531 
L 3481 531 
L 3481 0 
L 794 0 
L 794 531 
z
" transform="scale(0.015625)"/>
       </defs>
       <use xlink:href="#DejaVuSans-31"/>
       <use xlink:href="#DejaVuSans-30" transform="translate(63.623047 0)"/>
       <use xlink:href="#DejaVuSans-30" transform="translate(127.246094 0)"/>
       <use xlink:href="#DejaVuSans-30" transform="translate(190.869141 0)"/>
      </g>
     </g>
    </g>
    <g id="xtick_4">
     <g id="line2d_4">
      <g>
       <use xlink:href="#m01a80b8445" x="378.58125" y="284.4" style="stroke: #000000; stroke-width: 0.8"/>
      </g>
     </g>
     <g id="text_4">
      <!-- 1500 -->
      <g transform="translate(365.85625 298.998438) scale(0.1 -0.1)">
       <use xlink:href="#DejaVuSans-31"/>
       <use xlink:href="#DejaVuSans-35" transform="translate(63.623047 0)"/>
       <use xlink:href="#DejaVuSans-30" transform="translate(127.246094 0)"/>
       <use xlink:href="#DejaVuSans-30" transform="translate(190.869141 0)"/>
      </g>
     </g>
    </g>
    <g id="xtick_5">
     <g id="line2d_5">
      <g>
       <use xlink:href="#m01a80b8445" x="490.18125" y="284.4" style="stroke: #000000; stroke-width: 0.8"/>
      </g>
     </g>
     <g id="text_5">
      <!-- 2000 -->
      <g transform="translate(477.45625 298.998438) scale(0.1 -0.1)">
       <defs>
        <path id="DejaVuSans-32" d="M 1228 531 
L 3431 531 
L 3431 0 
L 469 0 
L 469 531 
Q 828 903 1448 1529 
Q 2069 2156 2228 2338 
Q 2531 2678 2651 2914 
Q 2772 3150 2772 3378 
Q 2772 3750 2511 3984 
Q 2250 4219 1831 4219 
Q 1534 4219 1204 4116 
Q 875 4013 500 3803 
L 500 4441 
Q 881 4594 1212 4672 
Q 1544 4750 1819 4750 
Q 2544 4750 2975 4387 
Q 3406 4025 3406 3419 
Q 3406 3131 3298 2873 
Q 3191 2616 2906 2266 
Q 2828 2175 2409 1742 
Q 1991 1309 1228 531 
z
" transform="scale(0.015625)"/>
       </defs>
       <use xlink:href="#DejaVuSans-32"/>
       <use xlink:href="#DejaVuSans-30" transform="translate(63.623047 0)"/>
       <use xlink:href="#DejaVuSans-30" transform="translate(127.246094 0)"/>
       <use xlink:href="#DejaVuSans-30" transform="translate(190.869141 0)"/>
      </g>
     </g>
    </g>
    <g id="xtick_6">
     <g id="line2d_6">
      <g>
       <use xlink:href="#m01a80b8445" x="601.78125" y="284.4" style="stroke: #000000; stroke-width: 0.8"/>
      </g>
     </g>
     <g id="text_6">
      <!-- 2500 -->
      <g transform="translate(589.05625 298.998438) scale(0.1 -0.1)">
       <use xlink:href="#DejaVuSans-32"/>
       <use xlink:href="#DejaVuSans-35" transform="translate(63.623047 0)"/>
       <use xlink:href="#DejaVuSans-30" transform="translate(127.246094 0)"/>
       <use xlink:href="#DejaVuSans-30" transform="translate(190.869141 0)"/>
      </g>
     </g>
    </g>
    <g id="text_7">
     <!-- Time/(s) -->
     <g transform="translate(302.357031 312.676562) scale(0.1 -0.1)">
      <defs>
       <path id="DejaVuSans-54" d="M -19 4666 
L 3928 4666 
L 3928 4134 
L 2272 4134 
L 2272 0 
L 1638 0 
L 1638 4134 
L -19 4134 
L -19 4666 
z
" transform="scale(0.015625)"/>
       <path id="DejaVuSans-69" d="M 603 3500 
L 1178 3500 
L 1178 0 
L 603 0 
L 603 3500 
z
M 603 4863 
L 1178 4863 
L 1178 4134 
L 603 4134 
L 603 4863 
z
" transform="scale(0.015625)"/>
       <path id="DejaVuSans-6d" d="M 3328 2828 
Q 3544 3216 3844 3400 
Q 4144 3584 4550 3584 
Q 5097 3584 5394 3201 
Q 5691 2819 5691 2113 
L 5691 0 
L 5113 0 
L 5113 2094 
Q 5113 2597 4934 2840 
Q 4756 3084 4391 3084 
Q 3944 3084 3684 2787 
Q 3425 2491 3425 1978 
L 3425 0 
L 2847 0 
L 2847 2094 
Q 2847 2600 2669 2842 
Q 2491 3084 2119 3084 
Q 1678 3084 1418 2786 
Q 1159 2488 1159 1978 
L 1159 0 
L 581 0 
L 581 3500 
L 1159 3500 
L 1159 2956 
Q 1356 3278 1631 3431 
Q 1906 3584 2284 3584 
Q 2666 3584 2933 3390 
Q 3200 3197 3328 2828 
z
" transform="scale(0.015625)"/>
       <path id="DejaVuSans-65" d="M 3597 1894 
L 3597 1613 
L 953 1613 
Q 991 1019 1311 708 
Q 1631 397 2203 397 
Q 2534 397 2845 478 
Q 3156 559 3463 722 
L 3463 178 
Q 3153 47 2828 -22 
Q 2503 -91 2169 -91 
Q 1331 -91 842 396 
Q 353 884 353 1716 
Q 353 2575 817 3079 
Q 1281 3584 2069 3584 
Q 2775 3584 3186 3129 
Q 3597 2675 3597 1894 
z
M 3022 2063 
Q 3016 2534 2758 2815 
Q 2500 3097 2075 3097 
Q 1594 3097 1305 2825 
Q 1016 2553 972 2059 
L 3022 2063 
z
" transform="scale(0.015625)"/>
       <path id="DejaVuSans-2f" d="M 1625 4666 
L 2156 4666 
L 531 -594 
L 0 -594 
L 1625 4666 
z
" transform="scale(0.015625)"/>
       <path id="DejaVuSans-28" d="M 1984 4856 
Q 1566 4138 1362 3434 
Q 1159 2731 1159 2009 
Q 1159 1288 1364 580 
Q 1569 -128 1984 -844 
L 1484 -844 
Q 1016 -109 783 600 
Q 550 1309 550 2009 
Q 550 2706 781 3412 
Q 1013 4119 1484 4856 
L 1984 4856 
z
" transform="scale(0.015625)"/>
       <path id="DejaVuSans-73" d="M 2834 3397 
L 2834 2853 
Q 2591 2978 2328 3040 
Q 2066 3103 1784 3103 
Q 1356 3103 1142 2972 
Q 928 2841 928 2578 
Q 928 2378 1081 2264 
Q 1234 2150 1697 2047 
L 1894 2003 
Q 2506 1872 2764 1633 
Q 3022 1394 3022 966 
Q 3022 478 2636 193 
Q 2250 -91 1575 -91 
Q 1294 -91 989 -36 
Q 684 19 347 128 
L 347 722 
Q 666 556 975 473 
Q 1284 391 1588 391 
Q 1994 391 2212 530 
Q 2431 669 2431 922 
Q 2431 1156 2273 1281 
Q 2116 1406 1581 1522 
L 1381 1569 
Q 847 1681 609 1914 
Q 372 2147 372 2553 
Q 372 3047 722 3315 
Q 1072 3584 1716 3584 
Q 2034 3584 2315 3537 
Q 2597 3491 2834 3397 
z
" transform="scale(0.015625)"/>
       <path id="DejaVuSans-29" d="M 513 4856 
L 1013 4856 
Q 1481 4119 1714 3412 
Q 1947 2706 1947 2009 
Q 1947 1309 1714 600 
Q 1481 -109 1013 -844 
L 513 -844 
Q 928 -128 1133 580 
Q 1338 1288 1338 2009 
Q 1338 2731 1133 3434 
Q 928 4138 513 4856 
z
" transform="scale(0.015625)"/>
      </defs>
      <use xlink:href="#DejaVuSans-54"/>
      <use xlink:href="#DejaVuSans-69" transform="translate(57.958984 0)"/>
      <use xlink:href="#DejaVuSans-6d" transform="translate(85.742188 0)"/>
      <use xlink:href="#DejaVuSans-65" transform="translate(183.154297 0)"/>
      <use xlink:href="#DejaVuSans-2f" transform="translate(244.677734 0)"/>
      <use xlink:href="#DejaVuSans-28" transform="translate(278.369141 0)"/>
      <use xlink:href="#DejaVuSans-73" transform="translate(317.382812 0)"/>
      <use xlink:href="#DejaVuSans-29" transform="translate(369.482422 0)"/>
     </g>
    </g>
   </g>
   <g id="matplotlib.axis_2">
    <g id="ytick_1">
     <g id="line2d_7">
      <defs>
       <path id="m49bb6c0cd5" d="M 0 0 
L -3.5 0 
" style="stroke: #000000; stroke-width: 0.8"/>
      </defs>
      <g>
       <use xlink:href="#m49bb6c0cd5" x="43.78125" y="284.4" style="stroke: #000000; stroke-width: 0.8"/>
      </g>
     </g>
     <g id="text_8">
      <!-- 0.0 -->
      <g transform="translate(20.878125 288.199219) scale(0.1 -0.1)">
       <defs>
        <path id="DejaVuSans-2e" d="M 684 794 
L 1344 794 
L 1344 0 
L 684 0 
L 684 794 
z
" transform="scale(0.015625)"/>
       </defs>
       <use xlink:href="#DejaVuSans-30"/>
       <use xlink:href="#DejaVuSans-2e" transform="translate(63.623047 0)"/>
       <use xlink:href="#DejaVuSans-30" transform="translate(95.410156 0)"/>
      </g>
     </g>
    </g>
    <g id="ytick_2">
     <g id="line2d_8">
      <g>
       <use xlink:href="#m49bb6c0cd5" x="43.78125" y="234" style="stroke: #000000; stroke-width: 0.8"/>
      </g>
     </g>
     <g id="text_9">
      <!-- 0.2 -->
      <g transform="translate(20.878125 237.799219) scale(0.1 -0.1)">
       <use xlink:href="#DejaVuSans-30"/>
       <use xlink:href="#DejaVuSans-2e" transform="translate(63.623047 0)"/>
       <use xlink:href="#DejaVuSans-32" transform="translate(95.410156 0)"/>
      </g>
     </g>
    </g>
    <g id="ytick_3">
     <g id="line2d_9">
      <g>
       <use xlink:href="#m49bb6c0cd5" x="43.78125" y="183.6" style="stroke: #000000; stroke-width: 0.8"/>
      </g>
     </g>
     <g id="text_10">
      <!-- 0.4 -->
      <g transform="translate(20.878125 187.399219) scale(0.1 -0.1)">
       <defs>
        <path id="DejaVuSans-34" d="M 2419 4116 
L 825 1625 
L 2419 1625 
L 2419 4116 
z
M 2253 4666 
L 3047 4666 
L 3047 1625 
L 3713 1625 
L 3713 1100 
L 3047 1100 
L 3047 0 
L 2419 0 
L 2419 1100 
L 313 1100 
L 313 1709 
L 2253 4666 
z
" transform="scale(0.015625)"/>
       </defs>
       <use xlink:href="#DejaVuSans-30"/>
       <use xlink:href="#DejaVuSans-2e" transform="translate(63.623047 0)"/>
       <use xlink:href="#DejaVuSans-34" transform="translate(95.410156 0)"/>
      </g>
     </g>
    </g>
    <g id="ytick_4">
     <g id="line2d_10">
      <g>
       <use xlink:href="#m49bb6c0cd5" x="43.78125" y="133.2" style="stroke: #000000; stroke-width: 0.8"/>
      </g>
     </g>
     <g id="text_11">
      <!-- 0.6 -->
      <g transform="translate(20.878125 136.999219) scale(0.1 -0.1)">
       <defs>
        <path id="DejaVuSans-36" d="M 2113 2584 
Q 1688 2584 1439 2293 
Q 1191 2003 1191 1497 
Q 1191 994 1439 701 
Q 1688 409 2113 409 
Q 2538 409 2786 701 
Q 3034 994 3034 1497 
Q 3034 2003 2786 2293 
Q 2538 2584 2113 2584 
z
M 3366 4563 
L 3366 3988 
Q 3128 4100 2886 4159 
Q 2644 4219 2406 4219 
Q 1781 4219 1451 3797 
Q 1122 3375 1075 2522 
Q 1259 2794 1537 2939 
Q 1816 3084 2150 3084 
Q 2853 3084 3261 2657 
Q 3669 2231 3669 1497 
Q 3669 778 3244 343 
Q 2819 -91 2113 -91 
Q 1303 -91 875 529 
Q 447 1150 447 2328 
Q 447 3434 972 4092 
Q 1497 4750 2381 4750 
Q 2619 4750 2861 4703 
Q 3103 4656 3366 4563 
z
" transform="scale(0.015625)"/>
       </defs>
       <use xlink:href="#DejaVuSans-30"/>
       <use xlink:href="#DejaVuSans-2e" transform="translate(63.623047 0)"/>
       <use xlink:href="#DejaVuSans-36" transform="translate(95.410156 0)"/>
      </g>
     </g>
    </g>
    <g id="ytick_5">
     <g id="line2d_11">
      <g>
       <use xlink:href="#m49bb6c0cd5" x="43.78125" y="82.8" style="stroke: #000000; stroke-width: 0.8"/>
      </g>
     </g>
     <g id="text_12">
      <!-- 0.8 -->
      <g transform="translate(20.878125 86.599219) scale(0.1 -0.1)">
       <defs>
        <path id="DejaVuSans-38" d="M 2034 2216 
Q 1584 2216 1326 1975 
Q 1069 1734 1069 1313 
Q 1069 891 1326 650 
Q 1584 409 2034 409 
Q 2484 409 2743 651 
Q 3003 894 3003 1313 
Q 3003 1734 2745 1975 
Q 2488 2216 2034 2216 
z
M 1403 2484 
Q 997 2584 770 2862 
Q 544 3141 544 3541 
Q 544 4100 942 4425 
Q 1341 4750 2034 4750 
Q 2731 4750 3128 4425 
Q 3525 4100 3525 3541 
Q 3525 3141 3298 2862 
Q 3072 2584 2669 2484 
Q 3125 2378 3379 2068 
Q 3634 1759 3634 1313 
Q 3634 634 3220 271 
Q 2806 -91 2034 -91 
Q 1263 -91 848 271 
Q 434 634 434 1313 
Q 434 1759 690 2068 
Q 947 2378 1403 2484 
z
M 1172 3481 
Q 1172 3119 1398 2916 
Q 1625 2713 2034 2713 
Q 2441 2713 2670 2916 
Q 2900 3119 2900 3481 
Q 2900 3844 2670 4047 
Q 2441 4250 2034 4250 
Q 1625 4250 1398 4047 
Q 1172 3844 1172 3481 
z
" transform="scale(0.015625)"/>
       </defs>
       <use xlink:href="#DejaVuSans-30"/>
       <use xlink:href="#DejaVuSans-2e" transform="translate(63.623047 0)"/>
       <use xlink:href="#DejaVuSans-38" transform="translate(95.410156 0)"/>
      </g>
     </g>
    </g>
    <g id="ytick_6">
     <g id="line2d_12">
      <g>
       <use xlink:href="#m49bb6c0cd5" x="43.78125" y="32.4" style="stroke: #000000; stroke-width: 0.8"/>
      </g>
     </g>
     <g id="text_13">
      <!-- 1.0 -->
      <g transform="translate(20.878125 36.199219) scale(0.1 -0.1)">
       <use xlink:href="#DejaVuSans-31"/>
       <use xlink:href="#DejaVuSans-2e" transform="translate(63.623047 0)"/>
       <use xlink:href="#DejaVuSans-30" transform="translate(95.410156 0)"/>
      </g>
     </g>
    </g>
    <g id="text_14">
     <!-- Fluorescence (normalised) -->
     <g transform="translate(14.798438 211.992188) rotate(-90) scale(0.1 -0.1)">
      <defs>
       <path id="DejaVuSans-46" d="M 628 4666 
L 3309 4666 
L 3309 4134 
L 1259 4134 
L 1259 2759 
L 3109 2759 
L 3109 2228 
L 1259 2228 
L 1259 0 
L 628 0 
L 628 4666 
z
" transform="scale(0.015625)"/>
       <path id="DejaVuSans-6c" d="M 603 4863 
L 1178 4863 
L 1178 0 
L 603 0 
L 603 4863 
z
" transform="scale(0.015625)"/>
       <path id="DejaVuSans-75" d="M 544 1381 
L 544 3500 
L 1119 3500 
L 1119 1403 
Q 1119 906 1312 657 
Q 1506 409 1894 409 
Q 2359 409 2629 706 
Q 2900 1003 2900 1516 
L 2900 3500 
L 3475 3500 
L 3475 0 
L 2900 0 
L 2900 538 
Q 2691 219 2414 64 
Q 2138 -91 1772 -91 
Q 1169 -91 856 284 
Q 544 659 544 1381 
z
M 1991 3584 
L 1991 3584 
z
" transform="scale(0.015625)"/>
       <path id="DejaVuSans-6f" d="M 1959 3097 
Q 1497 3097 1228 2736 
Q 959 2375 959 1747 
Q 959 1119 1226 758 
Q 1494 397 1959 397 
Q 2419 397 2687 759 
Q 2956 1122 2956 1747 
Q 2956 2369 2687 2733 
Q 2419 3097 1959 3097 
z
M 1959 3584 
Q 2709 3584 3137 3096 
Q 3566 2609 3566 1747 
Q 3566 888 3137 398 
Q 2709 -91 1959 -91 
Q 1206 -91 779 398 
Q 353 888 353 1747 
Q 353 2609 779 3096 
Q 1206 3584 1959 3584 
z
" transform="scale(0.015625)"/>
       <path id="DejaVuSans-72" d="M 2631 2963 
Q 2534 3019 2420 3045 
Q 2306 3072 2169 3072 
Q 1681 3072 1420 2755 
Q 1159 2438 1159 1844 
L 1159 0 
L 581 0 
L 581 3500 
L 1159 3500 
L 1159 2956 
Q 1341 3275 1631 3429 
Q 1922 3584 2338 3584 
Q 2397 3584 2469 3576 
Q 2541 3569 2628 3553 
L 2631 2963 
z
" transform="scale(0.015625)"/>
       <path id="DejaVuSans-63" d="M 3122 3366 
L 3122 2828 
Q 2878 2963 2633 3030 
Q 2388 3097 2138 3097 
Q 1578 3097 1268 2742 
Q 959 2388 959 1747 
Q 959 1106 1268 751 
Q 1578 397 2138 397 
Q 2388 397 2633 464 
Q 2878 531 3122 666 
L 3122 134 
Q 2881 22 2623 -34 
Q 2366 -91 2075 -91 
Q 1284 -91 818 406 
Q 353 903 353 1747 
Q 353 2603 823 3093 
Q 1294 3584 2113 3584 
Q 2378 3584 2631 3529 
Q 2884 3475 3122 3366 
z
" transform="scale(0.015625)"/>
       <path id="DejaVuSans-6e" d="M 3513 2113 
L 3513 0 
L 2938 0 
L 2938 2094 
Q 2938 2591 2744 2837 
Q 2550 3084 2163 3084 
Q 1697 3084 1428 2787 
Q 1159 2491 1159 1978 
L 1159 0 
L 581 0 
L 581 3500 
L 1159 3500 
L 1159 2956 
Q 1366 3272 1645 3428 
Q 1925 3584 2291 3584 
Q 2894 3584 3203 3211 
Q 3513 2838 3513 2113 
z
" transform="scale(0.015625)"/>
       <path id="DejaVuSans-20" transform="scale(0.015625)"/>
       <path id="DejaVuSans-61" d="M 2194 1759 
Q 1497 1759 1228 1600 
Q 959 1441 959 1056 
Q 959 750 1161 570 
Q 1363 391 1709 391 
Q 2188 391 2477 730 
Q 2766 1069 2766 1631 
L 2766 1759 
L 2194 1759 
z
M 3341 1997 
L 3341 0 
L 2766 0 
L 2766 531 
Q 2569 213 2275 61 
Q 1981 -91 1556 -91 
Q 1019 -91 701 211 
Q 384 513 384 1019 
Q 384 1609 779 1909 
Q 1175 2209 1959 2209 
L 2766 2209 
L 2766 2266 
Q 2766 2663 2505 2880 
Q 2244 3097 1772 3097 
Q 1472 3097 1187 3025 
Q 903 2953 641 2809 
L 641 3341 
Q 956 3463 1253 3523 
Q 1550 3584 1831 3584 
Q 2591 3584 2966 3190 
Q 3341 2797 3341 1997 
z
" transform="scale(0.015625)"/>
       <path id="DejaVuSans-64" d="M 2906 2969 
L 2906 4863 
L 3481 4863 
L 3481 0 
L 2906 0 
L 2906 525 
Q 2725 213 2448 61 
Q 2172 -91 1784 -91 
Q 1150 -91 751 415 
Q 353 922 353 1747 
Q 353 2572 751 3078 
Q 1150 3584 1784 3584 
Q 2172 3584 2448 3432 
Q 2725 3281 2906 2969 
z
M 947 1747 
Q 947 1113 1208 752 
Q 1469 391 1925 391 
Q 2381 391 2643 752 
Q 2906 1113 2906 1747 
Q 2906 2381 2643 2742 
Q 2381 3103 1925 3103 
Q 1469 3103 1208 2742 
Q 947 2381 947 1747 
z
" transform="scale(0.015625)"/>
      </defs>
      <use xlink:href="#DejaVuSans-46"/>
      <use xlink:href="#DejaVuSans-6c" transform="translate(57.519531 0)"/>
      <use xlink:href="#DejaVuSans-75" transform="translate(85.302734 0)"/>
      <use xlink:href="#DejaVuSans-6f" transform="translate(148.681641 0)"/>
      <use xlink:href="#DejaVuSans-72" transform="translate(209.863281 0)"/>
      <use xlink:href="#DejaVuSans-65" transform="translate(248.726562 0)"/>
      <use xlink:href="#DejaVuSans-73" transform="translate(310.25 0)"/>
      <use xlink:href="#DejaVuSans-63" transform="translate(362.349609 0)"/>
      <use xlink:href="#DejaVuSans-65" transform="translate(417.330078 0)"/>
      <use xlink:href="#DejaVuSans-6e" transform="translate(478.853516 0)"/>
      <use xlink:href="#DejaVuSans-63" transform="translate(542.232422 0)"/>
      <use xlink:href="#DejaVuSans-65" transform="translate(597.212891 0)"/>
      <use xlink:href="#DejaVuSans-20" transform="translate(658.736328 0)"/>
      <use xlink:href="#DejaVuSans-28" transform="translate(690.523438 0)"/>
      <use xlink:href="#DejaVuSans-6e" transform="translate(729.537109 0)"/>
      <use xlink:href="#DejaVuSans-6f" transform="translate(792.916016 0)"/>
      <use xlink:href="#DejaVuSans-72" transform="translate(854.097656 0)"/>
      <use xlink:href="#DejaVuSans-6d" transform="translate(893.460938 0)"/>
      <use xlink:href="#DejaVuSans-61" transform="translate(990.873047 0)"/>
      <use xlink:href="#DejaVuSans-6c" transform="translate(1052.152344 0)"/>
      <use xlink:href="#DejaVuSans-69" transform="translate(1079.935547 0)"/>
      <use xlink:href="#DejaVuSans-73" transform="translate(1107.71875 0)"/>
      <use xlink:href="#DejaVuSans-65" transform="translate(1159.818359 0)"/>
      <use xlink:href="#DejaVuSans-64" transform="translate(1221.341797 0)"/>
      <use xlink:href="#DejaVuSans-29" transform="translate(1284.818359 0)"/>
     </g>
    </g>
   </g>
   <g id="line2d_13">
    <path d="M 43.78125 217.889759 
L 46.441794 231.849842 
L 62.405058 231.062498 
L 70.38669 230.721168 
L 70.404546 37.149927 
L 70.511682 38.579709 
L 70.56525 39.335651 
L 73.225794 230.781111 
L 97.17069 229.869408 
L 97.188546 32.4 
L 97.295682 33.865836 
L 97.34925 34.633972 
L 100.009794 107.753811 
L 110.65197 126.329769 
L 115.973058 134.538907 
L 121.294146 141.950481 
L 123.95469 145.372339 
L 123.972546 101.043272 
L 124.079682 101.767034 
L 124.13325 102.073442 
L 126.793794 148.881089 
L 132.114882 154.820975 
L 137.43597 160.126023 
L 142.757058 164.852355 
L 148.078146 169.054514 
L 150.73869 170.975377 
L 150.756546 125.394132 
L 150.863682 125.989209 
L 150.91725 126.245958 
L 153.577794 172.968244 
L 158.898882 176.252842 
L 164.21997 179.160458 
L 169.541058 181.731875 
L 174.862146 184.004018 
L 177.52269 185.038414 
L 177.540546 138.932098 
L 177.647682 139.448804 
L 177.70125 139.675584 
L 180.361794 186.146158 
L 185.682882 187.900505 
L 191.00397 189.447317 
L 196.325058 190.810581 
L 204.30669 192.556942 
L 204.324546 146.190731 
L 204.431682 146.662006 
L 204.48525 146.871682 
L 207.145794 193.178565 
L 215.127426 194.512388 
L 223.109058 195.611597 
L 231.09069 196.516419 
L 231.108546 149.99131 
L 231.215682 150.437301 
L 231.26925 150.637588 
L 233.929794 196.876659 
L 244.57197 197.754643 
L 255.214146 198.426798 
L 257.87469 198.568314 
L 257.892546 151.92553 
L 257.999682 152.357943 
L 258.05325 152.553248 
L 260.713794 198.789034 
L 276.677058 199.38756 
L 284.65869 199.602988 
L 284.676546 152.860964 
L 284.783682 153.286358 
L 284.83725 153.479122 
L 287.497794 199.749463 
L 308.782146 200.069702 
L 311.44269 200.096486 
L 311.460546 153.264377 
L 311.567682 153.68634 
L 311.62125 153.877892 
L 314.281794 200.203543 
L 338.22669 200.302654 
L 338.244546 153.385554 
L 338.351682 153.80602 
L 338.40525 153.997074 
L 341.065794 200.388852 
L 365.01069 200.356733 
L 365.028546 153.357837 
L 365.135682 153.777842 
L 365.18925 153.968778 
L 367.849794 253.409313 
L 381.152514 251.085941 
L 391.79469 249.381613 
L 391.812546 123.147261 
L 391.919682 123.864274 
L 391.97325 124.380958 
L 394.633794 249.031148 
L 410.597058 246.710301 
L 418.57869 245.633439 
L 418.596546 105.810634 
L 418.703682 106.657848 
L 418.75725 107.218261 
L 421.417794 245.36093 
L 437.381058 243.382211 
L 445.36269 242.465141 
L 445.380546 91.038438 
L 445.487682 92.014247 
L 445.54125 92.627476 
L 448.201794 242.259816 
L 466.825602 240.308475 
L 472.14669 239.792131 
L 472.164546 78.465435 
L 472.271682 79.549476 
L 472.32525 80.202014 
L 474.985794 239.644793 
L 493.609602 237.979723 
L 498.93069 237.539312 
L 498.948546 67.799254 
L 499.055682 68.974008 
L 499.10925 69.656675 
L 501.769794 237.441762 
L 523.054146 235.827863 
L 525.71469 235.64115 
L 525.732546 58.757894 
L 525.839682 60.008655 
L 525.89325 60.715086 
L 528.553794 235.586378 
L 552.49869 234.041517 
L 552.516546 51.092177 
L 552.623682 52.406667 
L 552.67725 53.132298 
L 555.337794 234.023622 
L 579.28269 232.692684 
L 579.300546 44.58844 
L 579.407682 45.95637 
L 579.46125 46.697833 
L 582.121794 232.706775 
L 606.06669 231.554193 
L 606.084546 39.065545 
L 606.191682 40.47825 
L 606.24525 41.232987 
L 606.24525 41.232987 
" clip-path="url(#pe3f770f676)" style="fill: none; stroke: #ff0000; stroke-width: 2.5; stroke-linecap: square"/>
   </g>
   <g id="line2d_14">
    <path d="M 70.404546 284.4 
L 97.188546 289.149927 
L 123.972546 196.586899 
L 150.756546 144.546421 
L 177.540546 108.07858 
L 204.324546 85.583503 
L 231.108546 72.836088 
L 257.892546 66.067729 
L 284.676546 62.722982 
L 311.460546 61.265807 
L 338.244546 60.826351 
L 365.028546 60.926941 
L 391.812546 150.006449 
L 418.596546 187.515743 
L 445.380546 214.169368 
L 472.164546 233.84264 
L 498.948546 248.741626 
L 525.732546 260.267946 
L 552.516546 269.340725 
L 579.300546 276.583425 
L 606.084546 282.432337 
" clip-path="url(#pe3f770f676)" style="fill: none; stroke-dasharray: 7.4,3.2; stroke-dashoffset: 0; stroke: #000000; stroke-width: 2"/>
   </g>
   <g id="patch_24">
    <path d="M 43.78125 284.4 
L 43.78125 7.2 
" style="fill: none; stroke: #000000; stroke-width: 0.8; stroke-linejoin: miter; stroke-linecap: square"/>
   </g>
   <g id="patch_25">
    <path d="M 601.78125 284.4 
L 601.78125 7.2 
" style="fill: none; stroke: #000000; stroke-width: 0.8; stroke-linejoin: miter; stroke-linecap: square"/>
   </g>
   <g id="patch_26">
    <path d="M 43.78125 284.4 
L 601.78125 284.4 
" style="fill: none; stroke: #000000; stroke-width: 0.8; stroke-linejoin: miter; stroke-linecap: square"/>
   </g>
   <g id="patch_27">
    <path d="M 43.78125 7.2 
L 601.78125 7.2 
" style="fill: none; stroke: #000000; stroke-width: 0.8; stroke-linejoin: miter; stroke-linecap: square"/>
   </g>
   <g id="legend_1">
    <g id="patch_28">
     <path d="M 496.90625 44.55625 
L 594.78125 44.55625 
Q 596.78125 44.55625 596.78125 42.55625 
L 596.78125 14.2 
Q 596.78125 12.2 594.78125 12.2 
L 496.90625 12.2 
Q 494.90625 12.2 494.90625 14.2 
L 494.90625 42.55625 
Q 494.90625 44.55625 496.90625 44.55625 
z
" style="fill: #ffffff; opacity: 0.8; stroke: #cccccc; stroke-linejoin: miter"/>
    </g>
    <g id="line2d_15">
     <path d="M 498.90625 20.298437 
L 508.90625 20.298437 
L 518.90625 20.298437 
" style="fill: none; stroke: #ff0000; stroke-width: 2.5; stroke-linecap: square"/>
    </g>
    <g id="text_15">
     <!-- Fluorescence -->
     <g transform="translate(526.90625 23.798437) scale(0.1 -0.1)">
      <use xlink:href="#DejaVuSans-46"/>
      <use xlink:href="#DejaVuSans-6c" transform="translate(57.519531 0)"/>
      <use xlink:href="#DejaVuSans-75" transform="translate(85.302734 0)"/>
      <use xlink:href="#DejaVuSans-6f" transform="translate(148.681641 0)"/>
      <use xlink:href="#DejaVuSans-72" transform="translate(209.863281 0)"/>
      <use xlink:href="#DejaVuSans-65" transform="translate(248.726562 0)"/>
      <use xlink:href="#DejaVuSans-73" transform="translate(310.25 0)"/>
      <use xlink:href="#DejaVuSans-63" transform="translate(362.349609 0)"/>
      <use xlink:href="#DejaVuSans-65" transform="translate(417.330078 0)"/>
      <use xlink:href="#DejaVuSans-6e" transform="translate(478.853516 0)"/>
      <use xlink:href="#DejaVuSans-63" transform="translate(542.232422 0)"/>
      <use xlink:href="#DejaVuSans-65" transform="translate(597.212891 0)"/>
     </g>
    </g>
    <g id="line2d_16">
     <path d="M 498.90625 34.976562 
L 508.90625 34.976562 
L 518.90625 34.976562 
" style="fill: none; stroke-dasharray: 7.4,3.2; stroke-dashoffset: 0; stroke: #000000; stroke-width: 2"/>
    </g>
    <g id="text_16">
     <!-- NPQ -->
     <g transform="translate(526.90625 38.476562) scale(0.1 -0.1)">
      <defs>
       <path id="DejaVuSans-4e" d="M 628 4666 
L 1478 4666 
L 3547 763 
L 3547 4666 
L 4159 4666 
L 4159 0 
L 3309 0 
L 1241 3903 
L 1241 0 
L 628 0 
L 628 4666 
z
" transform="scale(0.015625)"/>
       <path id="DejaVuSans-50" d="M 1259 4147 
L 1259 2394 
L 2053 2394 
Q 2494 2394 2734 2622 
Q 2975 2850 2975 3272 
Q 2975 3691 2734 3919 
Q 2494 4147 2053 4147 
L 1259 4147 
z
M 628 4666 
L 2053 4666 
Q 2838 4666 3239 4311 
Q 3641 3956 3641 3272 
Q 3641 2581 3239 2228 
Q 2838 1875 2053 1875 
L 1259 1875 
L 1259 0 
L 628 0 
L 628 4666 
z
" transform="scale(0.015625)"/>
       <path id="DejaVuSans-51" d="M 2522 4238 
Q 1834 4238 1429 3725 
Q 1025 3213 1025 2328 
Q 1025 1447 1429 934 
Q 1834 422 2522 422 
Q 3209 422 3611 934 
Q 4013 1447 4013 2328 
Q 4013 3213 3611 3725 
Q 3209 4238 2522 4238 
z
M 3406 84 
L 4238 -825 
L 3475 -825 
L 2784 -78 
Q 2681 -84 2626 -87 
Q 2572 -91 2522 -91 
Q 1538 -91 948 567 
Q 359 1225 359 2328 
Q 359 3434 948 4092 
Q 1538 4750 2522 4750 
Q 3503 4750 4090 4092 
Q 4678 3434 4678 2328 
Q 4678 1516 4351 937 
Q 4025 359 3406 84 
z
" transform="scale(0.015625)"/>
      </defs>
      <use xlink:href="#DejaVuSans-4e"/>
      <use xlink:href="#DejaVuSans-50" transform="translate(74.804688 0)"/>
      <use xlink:href="#DejaVuSans-51" transform="translate(135.107422 0)"/>
     </g>
    </g>
   </g>
  </g>
 </g>
 <defs>
  <clipPath id="pe3f770f676">
   <rect x="43.78125" y="7.2" width="558" height="277.2"/>
  </clipPath>
 </defs>
</svg>
