<?xml version="1.0" encoding="UTF-8" standalone="no"?>
<!-- Created with Inkscape (http://www.inkscape.org/) -->

<svg
   width="100"
   height="100"
   viewBox="0 0 26.458333 26.458333"
   version="1.1"
   id="svg1"
   inkscape:version="1.3.2 (1:1.3.2+202311252150+091e20ef0f)"
   sodipodi:docname="searchicon.svg"
   xmlns:inkscape="http://www.inkscape.org/namespaces/inkscape"
   xmlns:sodipodi="http://sodipodi.sourceforge.net/DTD/sodipodi-0.dtd"
   xmlns="http://www.w3.org/2000/svg"
   xmlns:svg="http://www.w3.org/2000/svg">
  <sodipodi:namedview
     id="namedview1"
     pagecolor="#ffffff"
     bordercolor="#b93131"
     borderopacity="1"
     inkscape:showpageshadow="0"
     inkscape:pageopacity="0"
     inkscape:pagecheckerboard="false"
     inkscape:deskcolor="#757575"
     inkscape:document-units="mm"
     showguides="true"
     inkscape:zoom="5.6943322"
     inkscape:cx="54.791324"
     inkscape:cy="46.800922"
     inkscape:window-width="1920"
     inkscape:window-height="981"
     inkscape:window-x="0"
     inkscape:window-y="0"
     inkscape:window-maximized="1"
     inkscape:current-layer="layer1">
    <sodipodi:guide
       position="8.1465949,19.922653"
       orientation="1,0"
       id="guide2"
       inkscape:locked="false" />
  </sodipodi:namedview>
  <defs
     id="defs1" />
  <g
     inkscape:label="Layer 1"
     inkscape:groupmode="layer"
     id="layer1">
    <path
       id="path1"
       style="fill:#0a6167;stroke-width:4;stroke-linecap:round;stroke-linejoin:round;stroke-dashoffset:3.25191;paint-order:stroke markers fill"
       d="m 22.49821,13.189789 a 6.6176276,6.6176276 0 0 0 1e-6,-9.358818 6.6176276,6.6176276 0 0 0 -9.358819,0 6.6176276,6.6176276 0 0 0 -1.151034,7.801451 L 2.8546316,20.76615 c -0.4089964,0.408995 -0.4089956,1.06725 -4e-7,1.476245 l 1.2317903,1.23179 c 0.4089946,0.408995 1.0676145,0.40936 1.4766098,3.65e-4 l 9.1311717,-9.13117 a 6.6176276,6.6176276 0 0 0 7.804007,-1.153591 z m -0.738123,-0.738123 a 5.5741768,5.5741768 0 0 1 -7.882571,0 5.5741768,5.5741768 0 0 1 -3.66e-4,-7.882937 5.5741768,5.5741768 0 0 1 7.883303,-2e-7 5.5741768,5.5741768 0 0 1 -3.66e-4,7.8829372 z" />
  </g>
</svg>
