<?xml version="1.0" encoding="utf-8" standalone="no"?>
<!DOCTYPE svg PUBLIC "-//W3C//DTD SVG 1.1//EN"
  "http://www.w3.org/Graphics/SVG/1.1/DTD/svg11.dtd">
<svg xmlns:xlink="http://www.w3.org/1999/xlink" width="712.031875pt" height="351.594375pt" viewBox="0 0 712.031875 351.594375" xmlns="http://www.w3.org/2000/svg" version="1.1">
 <metadata>
  <rdf:RDF xmlns:dc="http://purl.org/dc/elements/1.1/" xmlns:cc="http://creativecommons.org/ns#" xmlns:rdf="http://www.w3.org/1999/02/22-rdf-syntax-ns#">
   <cc:Work>
    <dc:type rdf:resource="http://purl.org/dc/dcmitype/StillImage"/>
    <dc:date>2026-01-20T15:34:04.670468</dc:date>
    <dc:format>image/svg+xml</dc:format>
    <dc:creator>
     <cc:Agent>
      <dc:title>Matplotlib v3.10.8, https://matplotlib.org/</dc:title>
     </cc:Agent>
    </dc:creator>
   </cc:Work>
  </rdf:RDF>
 </metadata>
 <defs>
  <style type="text/css">*{stroke-linejoin: round; stroke-linecap: butt}</style>
 </defs>
 <g id="figure_1">
  <g id="patch_1">
   <path d="M 0 351.594375 
L 712.031875 351.594375 
L 712.031875 0 
L 0 0 
z
" style="fill: #ffffff"/>
  </g>
  <g id="axes_1">
   <g id="patch_2">
    <path d="M 43.78125 150.978125 
L 353.81125 150.978125 
L 353.81125 29.878125 
L 43.78125 29.878125 
z
" style="fill: #ffffff"/>
   </g>
   <g id="patch_3">
    <path d="M 43.78125 150.978125 
L 58.506162 150.978125 
L 58.506162 29.878125 
L 43.78125 29.878125 
z
" clip-path="url(#pe5d758b37f)" style="fill: #d3d3d3; opacity: 0.3"/>
   </g>
   <g id="patch_4">
    <path d="M 58.506162 150.978125 
L 70.810541 150.978125 
L 70.810541 29.878125 
L 58.506162 29.878125 
z
" clip-path="url(#pe5d758b37f)" style="fill: #d3d3d3; opacity: 0.3"/>
   </g>
   <g id="patch_5">
    <path d="M 70.810541 150.978125 
L 83.114919 150.978125 
L 83.114919 29.878125 
L 70.810541 29.878125 
z
" clip-path="url(#pe5d758b37f)" style="fill: #d3d3d3; opacity: 0.3"/>
   </g>
   <g id="patch_6">
    <path d="M 83.114919 150.978125 
L 95.419298 150.978125 
L 95.419298 29.878125 
L 83.114919 29.878125 
z
" clip-path="url(#pe5d758b37f)" style="fill: #d3d3d3; opacity: 0.3"/>
   </g>
   <g id="patch_7">
    <path d="M 95.419298 150.978125 
L 107.723677 150.978125 
L 107.723677 29.878125 
L 95.419298 29.878125 
z
" clip-path="url(#pe5d758b37f)" style="fill: #d3d3d3; opacity: 0.3"/>
   </g>
   <g id="patch_8">
    <path d="M 107.723677 150.978125 
L 120.028055 150.978125 
L 120.028055 29.878125 
L 107.723677 29.878125 
z
" clip-path="url(#pe5d758b37f)" style="fill: #d3d3d3; opacity: 0.3"/>
   </g>
   <g id="patch_9">
    <path d="M 120.028055 150.978125 
L 132.332434 150.978125 
L 132.332434 29.878125 
L 120.028055 29.878125 
z
" clip-path="url(#pe5d758b37f)" style="fill: #d3d3d3; opacity: 0.3"/>
   </g>
   <g id="patch_10">
    <path d="M 132.332434 150.978125 
L 144.636813 150.978125 
L 144.636813 29.878125 
L 132.332434 29.878125 
z
" clip-path="url(#pe5d758b37f)" style="fill: #d3d3d3; opacity: 0.3"/>
   </g>
   <g id="patch_11">
    <path d="M 144.636813 150.978125 
L 156.941191 150.978125 
L 156.941191 29.878125 
L 144.636813 29.878125 
z
" clip-path="url(#pe5d758b37f)" style="fill: #d3d3d3; opacity: 0.3"/>
   </g>
   <g id="patch_12">
    <path d="M 156.941191 150.978125 
L 169.24557 150.978125 
L 169.24557 29.878125 
L 156.941191 29.878125 
z
" clip-path="url(#pe5d758b37f)" style="fill: #d3d3d3; opacity: 0.3"/>
   </g>
   <g id="patch_13">
    <path d="M 169.24557 150.978125 
L 181.549949 150.978125 
L 181.549949 29.878125 
L 169.24557 29.878125 
z
" clip-path="url(#pe5d758b37f)" style="fill: #808080; opacity: 0.3"/>
   </g>
   <g id="patch_14">
    <path d="M 181.549949 150.978125 
L 193.854327 150.978125 
L 193.854327 29.878125 
L 181.549949 29.878125 
z
" clip-path="url(#pe5d758b37f)" style="fill: #808080; opacity: 0.3"/>
   </g>
   <g id="patch_15">
    <path d="M 193.854327 150.978125 
L 206.158706 150.978125 
L 206.158706 29.878125 
L 193.854327 29.878125 
z
" clip-path="url(#pe5d758b37f)" style="fill: #808080; opacity: 0.3"/>
   </g>
   <g id="patch_16">
    <path d="M 206.158706 150.978125 
L 218.463085 150.978125 
L 218.463085 29.878125 
L 206.158706 29.878125 
z
" clip-path="url(#pe5d758b37f)" style="fill: #808080; opacity: 0.3"/>
   </g>
   <g id="patch_17">
    <path d="M 218.463085 150.978125 
L 230.767463 150.978125 
L 230.767463 29.878125 
L 218.463085 29.878125 
z
" clip-path="url(#pe5d758b37f)" style="fill: #808080; opacity: 0.3"/>
   </g>
   <g id="patch_18">
    <path d="M 230.767463 150.978125 
L 243.071842 150.978125 
L 243.071842 29.878125 
L 230.767463 29.878125 
z
" clip-path="url(#pe5d758b37f)" style="fill: #808080; opacity: 0.3"/>
   </g>
   <g id="patch_19">
    <path d="M 243.071842 150.978125 
L 255.376221 150.978125 
L 255.376221 29.878125 
L 243.071842 29.878125 
z
" clip-path="url(#pe5d758b37f)" style="fill: #808080; opacity: 0.3"/>
   </g>
   <g id="patch_20">
    <path d="M 255.376221 150.978125 
L 267.680599 150.978125 
L 267.680599 29.878125 
L 255.376221 29.878125 
z
" clip-path="url(#pe5d758b37f)" style="fill: #808080; opacity: 0.3"/>
   </g>
   <g id="patch_21">
    <path d="M 267.680599 150.978125 
L 279.984978 150.978125 
L 279.984978 29.878125 
L 267.680599 29.878125 
z
" clip-path="url(#pe5d758b37f)" style="fill: #808080; opacity: 0.3"/>
   </g>
   <g id="patch_22">
    <path d="M 279.984978 150.978125 
L 292.289357 150.978125 
L 292.289357 29.878125 
L 279.984978 29.878125 
z
" clip-path="url(#pe5d758b37f)" style="fill: #808080; opacity: 0.3"/>
   </g>
   <g id="patch_23">
    <path d="M 292.289357 150.978125 
L 304.593735 150.978125 
L 304.593735 29.878125 
L 292.289357 29.878125 
z
" clip-path="url(#pe5d758b37f)" style="opacity: 0.3"/>
   </g>
   <g id="patch_24">
    <path d="M 304.593735 150.978125 
L 316.898114 150.978125 
L 316.898114 29.878125 
L 304.593735 29.878125 
z
" clip-path="url(#pe5d758b37f)" style="opacity: 0.3"/>
   </g>
   <g id="patch_25">
    <path d="M 316.898114 150.978125 
L 329.202493 150.978125 
L 329.202493 29.878125 
L 316.898114 29.878125 
z
" clip-path="url(#pe5d758b37f)" style="opacity: 0.3"/>
   </g>
   <g id="patch_26">
    <path d="M 329.202493 150.978125 
L 341.506871 150.978125 
L 341.506871 29.878125 
L 329.202493 29.878125 
z
" clip-path="url(#pe5d758b37f)" style="opacity: 0.3"/>
   </g>
   <g id="patch_27">
    <path d="M 341.506871 150.978125 
L 353.81125 150.978125 
L 353.81125 29.878125 
L 341.506871 29.878125 
z
" clip-path="url(#pe5d758b37f)" style="opacity: 0.3"/>
   </g>
   <g id="matplotlib.axis_1">
    <g id="xtick_1">
     <g id="line2d_1">
      <defs>
       <path id="m5daf18e3a8" d="M 0 0 
L 0 3.5 
" style="stroke: #000000; stroke-width: 0.8"/>
      </defs>
      <g>
       <use xlink:href="#m5daf18e3a8" x="43.78125" y="150.978125" style="stroke: #000000; stroke-width: 0.8"/>
      </g>
     </g>
     <g id="text_1">
      <!-- 0 -->
      <g transform="translate(40.6 165.576562) scale(0.1 -0.1)">
       <defs>
        <path id="DejaVuSans-30" d="M 2034 4250 
Q 1547 4250 1301 3770 
Q 1056 3291 1056 2328 
Q 1056 1369 1301 889 
Q 1547 409 2034 409 
Q 2525 409 2770 889 
Q 3016 1369 3016 2328 
Q 3016 3291 2770 3770 
Q 2525 4250 2034 4250 
z
M 2034 4750 
Q 2819 4750 3233 4129 
Q 3647 3509 3647 2328 
Q 3647 1150 3233 529 
Q 2819 -91 2034 -91 
Q 1250 -91 836 529 
Q 422 1150 422 2328 
Q 422 3509 836 4129 
Q 1250 4750 2034 4750 
z
" transform="scale(0.015625)"/>
       </defs>
       <use xlink:href="#DejaVuSans-30"/>
      </g>
     </g>
    </g>
    <g id="xtick_2">
     <g id="line2d_2">
      <g>
       <use xlink:href="#m5daf18e3a8" x="84.123475" y="150.978125" style="stroke: #000000; stroke-width: 0.8"/>
      </g>
     </g>
     <g id="text_2">
      <!-- 200 -->
      <g transform="translate(74.579725 165.576562) scale(0.1 -0.1)">
       <defs>
        <path id="DejaVuSans-32" d="M 1228 531 
L 3431 531 
L 3431 0 
L 469 0 
L 469 531 
Q 828 903 1448 1529 
Q 2069 2156 2228 2338 
Q 2531 2678 2651 2914 
Q 2772 3150 2772 3378 
Q 2772 3750 2511 3984 
Q 2250 4219 1831 4219 
Q 1534 4219 1204 4116 
Q 875 4013 500 3803 
L 500 4441 
Q 881 4594 1212 4672 
Q 1544 4750 1819 4750 
Q 2544 4750 2975 4387 
Q 3406 4025 3406 3419 
Q 3406 3131 3298 2873 
Q 3191 2616 2906 2266 
Q 2828 2175 2409 1742 
Q 1991 1309 1228 531 
z
" transform="scale(0.015625)"/>
       </defs>
       <use xlink:href="#DejaVuSans-32"/>
       <use xlink:href="#DejaVuSans-30" transform="translate(63.623047 0)"/>
       <use xlink:href="#DejaVuSans-30" transform="translate(127.246094 0)"/>
      </g>
     </g>
    </g>
    <g id="xtick_3">
     <g id="line2d_3">
      <g>
       <use xlink:href="#m5daf18e3a8" x="124.4657" y="150.978125" style="stroke: #000000; stroke-width: 0.8"/>
      </g>
     </g>
     <g id="text_3">
      <!-- 400 -->
      <g transform="translate(114.92195 165.576562) scale(0.1 -0.1)">
       <defs>
        <path id="DejaVuSans-34" d="M 2419 4116 
L 825 1625 
L 2419 1625 
L 2419 4116 
z
M 2253 4666 
L 3047 4666 
L 3047 1625 
L 3713 1625 
L 3713 1100 
L 3047 1100 
L 3047 0 
L 2419 0 
L 2419 1100 
L 313 1100 
L 313 1709 
L 2253 4666 
z
" transform="scale(0.015625)"/>
       </defs>
       <use xlink:href="#DejaVuSans-34"/>
       <use xlink:href="#DejaVuSans-30" transform="translate(63.623047 0)"/>
       <use xlink:href="#DejaVuSans-30" transform="translate(127.246094 0)"/>
      </g>
     </g>
    </g>
    <g id="xtick_4">
     <g id="line2d_4">
      <g>
       <use xlink:href="#m5daf18e3a8" x="164.807925" y="150.978125" style="stroke: #000000; stroke-width: 0.8"/>
      </g>
     </g>
     <g id="text_4">
      <!-- 600 -->
      <g transform="translate(155.264175 165.576562) scale(0.1 -0.1)">
       <defs>
        <path id="DejaVuSans-36" d="M 2113 2584 
Q 1688 2584 1439 2293 
Q 1191 2003 1191 1497 
Q 1191 994 1439 701 
Q 1688 409 2113 409 
Q 2538 409 2786 701 
Q 3034 994 3034 1497 
Q 3034 2003 2786 2293 
Q 2538 2584 2113 2584 
z
M 3366 4563 
L 3366 3988 
Q 3128 4100 2886 4159 
Q 2644 4219 2406 4219 
Q 1781 4219 1451 3797 
Q 1122 3375 1075 2522 
Q 1259 2794 1537 2939 
Q 1816 3084 2150 3084 
Q 2853 3084 3261 2657 
Q 3669 2231 3669 1497 
Q 3669 778 3244 343 
Q 2819 -91 2113 -91 
Q 1303 -91 875 529 
Q 447 1150 447 2328 
Q 447 3434 972 4092 
Q 1497 4750 2381 4750 
Q 2619 4750 2861 4703 
Q 3103 4656 3366 4563 
z
" transform="scale(0.015625)"/>
       </defs>
       <use xlink:href="#DejaVuSans-36"/>
       <use xlink:href="#DejaVuSans-30" transform="translate(63.623047 0)"/>
       <use xlink:href="#DejaVuSans-30" transform="translate(127.246094 0)"/>
      </g>
     </g>
    </g>
    <g id="xtick_5">
     <g id="line2d_5">
      <g>
       <use xlink:href="#m5daf18e3a8" x="205.15015" y="150.978125" style="stroke: #000000; stroke-width: 0.8"/>
      </g>
     </g>
     <g id="text_5">
      <!-- 800 -->
      <g transform="translate(195.6064 165.576562) scale(0.1 -0.1)">
       <defs>
        <path id="DejaVuSans-38" d="M 2034 2216 
Q 1584 2216 1326 1975 
Q 1069 1734 1069 1313 
Q 1069 891 1326 650 
Q 1584 409 2034 409 
Q 2484 409 2743 651 
Q 3003 894 3003 1313 
Q 3003 1734 2745 1975 
Q 2488 2216 2034 2216 
z
M 1403 2484 
Q 997 2584 770 2862 
Q 544 3141 544 3541 
Q 544 4100 942 4425 
Q 1341 4750 2034 4750 
Q 2731 4750 3128 4425 
Q 3525 4100 3525 3541 
Q 3525 3141 3298 2862 
Q 3072 2584 2669 2484 
Q 3125 2378 3379 2068 
Q 3634 1759 3634 1313 
Q 3634 634 3220 271 
Q 2806 -91 2034 -91 
Q 1263 -91 848 271 
Q 434 634 434 1313 
Q 434 1759 690 2068 
Q 947 2378 1403 2484 
z
M 1172 3481 
Q 1172 3119 1398 2916 
Q 1625 2713 2034 2713 
Q 2441 2713 2670 2916 
Q 2900 3119 2900 3481 
Q 2900 3844 2670 4047 
Q 2441 4250 2034 4250 
Q 1625 4250 1398 4047 
Q 1172 3844 1172 3481 
z
" transform="scale(0.015625)"/>
       </defs>
       <use xlink:href="#DejaVuSans-38"/>
       <use xlink:href="#DejaVuSans-30" transform="translate(63.623047 0)"/>
       <use xlink:href="#DejaVuSans-30" transform="translate(127.246094 0)"/>
      </g>
     </g>
    </g>
    <g id="xtick_6">
     <g id="line2d_6">
      <g>
       <use xlink:href="#m5daf18e3a8" x="245.492376" y="150.978125" style="stroke: #000000; stroke-width: 0.8"/>
      </g>
     </g>
     <g id="text_6">
      <!-- 1000 -->
      <g transform="translate(232.767376 165.576562) scale(0.1 -0.1)">
       <defs>
        <path id="DejaVuSans-31" d="M 794 531 
L 1825 531 
L 1825 4091 
L 703 3866 
L 703 4441 
L 1819 4666 
L 2450 4666 
L 2450 531 
L 3481 531 
L 3481 0 
L 794 0 
L 794 531 
z
" transform="scale(0.015625)"/>
       </defs>
       <use xlink:href="#DejaVuSans-31"/>
       <use xlink:href="#DejaVuSans-30" transform="translate(63.623047 0)"/>
       <use xlink:href="#DejaVuSans-30" transform="translate(127.246094 0)"/>
       <use xlink:href="#DejaVuSans-30" transform="translate(190.869141 0)"/>
      </g>
     </g>
    </g>
    <g id="xtick_7">
     <g id="line2d_7">
      <g>
       <use xlink:href="#m5daf18e3a8" x="285.834601" y="150.978125" style="stroke: #000000; stroke-width: 0.8"/>
      </g>
     </g>
     <g id="text_7">
      <!-- 1200 -->
      <g transform="translate(273.109601 165.576562) scale(0.1 -0.1)">
       <use xlink:href="#DejaVuSans-31"/>
       <use xlink:href="#DejaVuSans-32" transform="translate(63.623047 0)"/>
       <use xlink:href="#DejaVuSans-30" transform="translate(127.246094 0)"/>
       <use xlink:href="#DejaVuSans-30" transform="translate(190.869141 0)"/>
      </g>
     </g>
    </g>
    <g id="xtick_8">
     <g id="line2d_8">
      <g>
       <use xlink:href="#m5daf18e3a8" x="326.176826" y="150.978125" style="stroke: #000000; stroke-width: 0.8"/>
      </g>
     </g>
     <g id="text_8">
      <!-- 1400 -->
      <g transform="translate(313.451826 165.576562) scale(0.1 -0.1)">
       <use xlink:href="#DejaVuSans-31"/>
       <use xlink:href="#DejaVuSans-34" transform="translate(63.623047 0)"/>
       <use xlink:href="#DejaVuSans-30" transform="translate(127.246094 0)"/>
       <use xlink:href="#DejaVuSans-30" transform="translate(190.869141 0)"/>
      </g>
     </g>
    </g>
    <g id="text_9">
     <!-- Time [s] -->
     <g transform="translate(178.467344 179.254687) scale(0.1 -0.1)">
      <defs>
       <path id="DejaVuSans-54" d="M -19 4666 
L 3928 4666 
L 3928 4134 
L 2272 4134 
L 2272 0 
L 1638 0 
L 1638 4134 
L -19 4134 
L -19 4666 
z
" transform="scale(0.015625)"/>
       <path id="DejaVuSans-69" d="M 603 3500 
L 1178 3500 
L 1178 0 
L 603 0 
L 603 3500 
z
M 603 4863 
L 1178 4863 
L 1178 4134 
L 603 4134 
L 603 4863 
z
" transform="scale(0.015625)"/>
       <path id="DejaVuSans-6d" d="M 3328 2828 
Q 3544 3216 3844 3400 
Q 4144 3584 4550 3584 
Q 5097 3584 5394 3201 
Q 5691 2819 5691 2113 
L 5691 0 
L 5113 0 
L 5113 2094 
Q 5113 2597 4934 2840 
Q 4756 3084 4391 3084 
Q 3944 3084 3684 2787 
Q 3425 2491 3425 1978 
L 3425 0 
L 2847 0 
L 2847 2094 
Q 2847 2600 2669 2842 
Q 2491 3084 2119 3084 
Q 1678 3084 1418 2786 
Q 1159 2488 1159 1978 
L 1159 0 
L 581 0 
L 581 3500 
L 1159 3500 
L 1159 2956 
Q 1356 3278 1631 3431 
Q 1906 3584 2284 3584 
Q 2666 3584 2933 3390 
Q 3200 3197 3328 2828 
z
" transform="scale(0.015625)"/>
       <path id="DejaVuSans-65" d="M 3597 1894 
L 3597 1613 
L 953 1613 
Q 991 1019 1311 708 
Q 1631 397 2203 397 
Q 2534 397 2845 478 
Q 3156 559 3463 722 
L 3463 178 
Q 3153 47 2828 -22 
Q 2503 -91 2169 -91 
Q 1331 -91 842 396 
Q 353 884 353 1716 
Q 353 2575 817 3079 
Q 1281 3584 2069 3584 
Q 2775 3584 3186 3129 
Q 3597 2675 3597 1894 
z
M 3022 2063 
Q 3016 2534 2758 2815 
Q 2500 3097 2075 3097 
Q 1594 3097 1305 2825 
Q 1016 2553 972 2059 
L 3022 2063 
z
" transform="scale(0.015625)"/>
       <path id="DejaVuSans-20" transform="scale(0.015625)"/>
       <path id="DejaVuSans-5b" d="M 550 4863 
L 1875 4863 
L 1875 4416 
L 1125 4416 
L 1125 -397 
L 1875 -397 
L 1875 -844 
L 550 -844 
L 550 4863 
z
" transform="scale(0.015625)"/>
       <path id="DejaVuSans-73" d="M 2834 3397 
L 2834 2853 
Q 2591 2978 2328 3040 
Q 2066 3103 1784 3103 
Q 1356 3103 1142 2972 
Q 928 2841 928 2578 
Q 928 2378 1081 2264 
Q 1234 2150 1697 2047 
L 1894 2003 
Q 2506 1872 2764 1633 
Q 3022 1394 3022 966 
Q 3022 478 2636 193 
Q 2250 -91 1575 -91 
Q 1294 -91 989 -36 
Q 684 19 347 128 
L 347 722 
Q 666 556 975 473 
Q 1284 391 1588 391 
Q 1994 391 2212 530 
Q 2431 669 2431 922 
Q 2431 1156 2273 1281 
Q 2116 1406 1581 1522 
L 1381 1569 
Q 847 1681 609 1914 
Q 372 2147 372 2553 
Q 372 3047 722 3315 
Q 1072 3584 1716 3584 
Q 2034 3584 2315 3537 
Q 2597 3491 2834 3397 
z
" transform="scale(0.015625)"/>
       <path id="DejaVuSans-5d" d="M 1947 4863 
L 1947 -844 
L 622 -844 
L 622 -397 
L 1369 -397 
L 1369 4416 
L 622 4416 
L 622 4863 
L 1947 4863 
z
" transform="scale(0.015625)"/>
      </defs>
      <use xlink:href="#DejaVuSans-54"/>
      <use xlink:href="#DejaVuSans-69" transform="translate(57.958984 0)"/>
      <use xlink:href="#DejaVuSans-6d" transform="translate(85.742188 0)"/>
      <use xlink:href="#DejaVuSans-65" transform="translate(183.154297 0)"/>
      <use xlink:href="#DejaVuSans-20" transform="translate(244.677734 0)"/>
      <use xlink:href="#DejaVuSans-5b" transform="translate(276.464844 0)"/>
      <use xlink:href="#DejaVuSans-73" transform="translate(315.478516 0)"/>
      <use xlink:href="#DejaVuSans-5d" transform="translate(367.578125 0)"/>
     </g>
    </g>
   </g>
   <g id="matplotlib.axis_2">
    <g id="ytick_1">
     <g id="line2d_9">
      <defs>
       <path id="mc6f1567ca8" d="M 0 0 
L -3.5 0 
" style="stroke: #000000; stroke-width: 0.8"/>
      </defs>
      <g>
       <use xlink:href="#mc6f1567ca8" x="43.78125" y="143.839641" style="stroke: #000000; stroke-width: 0.8"/>
      </g>
     </g>
     <g id="text_10">
      <!-- 0.2 -->
      <g transform="translate(20.878125 147.63886) scale(0.1 -0.1)">
       <defs>
        <path id="DejaVuSans-2e" d="M 684 794 
L 1344 794 
L 1344 0 
L 684 0 
L 684 794 
z
" transform="scale(0.015625)"/>
       </defs>
       <use xlink:href="#DejaVuSans-30"/>
       <use xlink:href="#DejaVuSans-2e" transform="translate(63.623047 0)"/>
       <use xlink:href="#DejaVuSans-32" transform="translate(95.410156 0)"/>
      </g>
     </g>
    </g>
    <g id="ytick_2">
     <g id="line2d_10">
      <g>
       <use xlink:href="#mc6f1567ca8" x="43.78125" y="116.725398" style="stroke: #000000; stroke-width: 0.8"/>
      </g>
     </g>
     <g id="text_11">
      <!-- 0.4 -->
      <g transform="translate(20.878125 120.524617) scale(0.1 -0.1)">
       <use xlink:href="#DejaVuSans-30"/>
       <use xlink:href="#DejaVuSans-2e" transform="translate(63.623047 0)"/>
       <use xlink:href="#DejaVuSans-34" transform="translate(95.410156 0)"/>
      </g>
     </g>
    </g>
    <g id="ytick_3">
     <g id="line2d_11">
      <g>
       <use xlink:href="#mc6f1567ca8" x="43.78125" y="89.611156" style="stroke: #000000; stroke-width: 0.8"/>
      </g>
     </g>
     <g id="text_12">
      <!-- 0.6 -->
      <g transform="translate(20.878125 93.410374) scale(0.1 -0.1)">
       <use xlink:href="#DejaVuSans-30"/>
       <use xlink:href="#DejaVuSans-2e" transform="translate(63.623047 0)"/>
       <use xlink:href="#DejaVuSans-36" transform="translate(95.410156 0)"/>
      </g>
     </g>
    </g>
    <g id="ytick_4">
     <g id="line2d_12">
      <g>
       <use xlink:href="#mc6f1567ca8" x="43.78125" y="62.496913" style="stroke: #000000; stroke-width: 0.8"/>
      </g>
     </g>
     <g id="text_13">
      <!-- 0.8 -->
      <g transform="translate(20.878125 66.296132) scale(0.1 -0.1)">
       <use xlink:href="#DejaVuSans-30"/>
       <use xlink:href="#DejaVuSans-2e" transform="translate(63.623047 0)"/>
       <use xlink:href="#DejaVuSans-38" transform="translate(95.410156 0)"/>
      </g>
     </g>
    </g>
    <g id="ytick_5">
     <g id="line2d_13">
      <g>
       <use xlink:href="#mc6f1567ca8" x="43.78125" y="35.38267" style="stroke: #000000; stroke-width: 0.8"/>
      </g>
     </g>
     <g id="text_14">
      <!-- 1.0 -->
      <g transform="translate(20.878125 39.181889) scale(0.1 -0.1)">
       <use xlink:href="#DejaVuSans-31"/>
       <use xlink:href="#DejaVuSans-2e" transform="translate(63.623047 0)"/>
       <use xlink:href="#DejaVuSans-30" transform="translate(95.410156 0)"/>
      </g>
     </g>
    </g>
    <g id="text_15">
     <!-- Fluorescence [a.u.] -->
     <g transform="translate(14.798438 138.267187) rotate(-90) scale(0.1 -0.1)">
      <defs>
       <path id="DejaVuSans-46" d="M 628 4666 
L 3309 4666 
L 3309 4134 
L 1259 4134 
L 1259 2759 
L 3109 2759 
L 3109 2228 
L 1259 2228 
L 1259 0 
L 628 0 
L 628 4666 
z
" transform="scale(0.015625)"/>
       <path id="DejaVuSans-6c" d="M 603 4863 
L 1178 4863 
L 1178 0 
L 603 0 
L 603 4863 
z
" transform="scale(0.015625)"/>
       <path id="DejaVuSans-75" d="M 544 1381 
L 544 3500 
L 1119 3500 
L 1119 1403 
Q 1119 906 1312 657 
Q 1506 409 1894 409 
Q 2359 409 2629 706 
Q 2900 1003 2900 1516 
L 2900 3500 
L 3475 3500 
L 3475 0 
L 2900 0 
L 2900 538 
Q 2691 219 2414 64 
Q 2138 -91 1772 -91 
Q 1169 -91 856 284 
Q 544 659 544 1381 
z
M 1991 3584 
L 1991 3584 
z
" transform="scale(0.015625)"/>
       <path id="DejaVuSans-6f" d="M 1959 3097 
Q 1497 3097 1228 2736 
Q 959 2375 959 1747 
Q 959 1119 1226 758 
Q 1494 397 1959 397 
Q 2419 397 2687 759 
Q 2956 1122 2956 1747 
Q 2956 2369 2687 2733 
Q 2419 3097 1959 3097 
z
M 1959 3584 
Q 2709 3584 3137 3096 
Q 3566 2609 3566 1747 
Q 3566 888 3137 398 
Q 2709 -91 1959 -91 
Q 1206 -91 779 398 
Q 353 888 353 1747 
Q 353 2609 779 3096 
Q 1206 3584 1959 3584 
z
" transform="scale(0.015625)"/>
       <path id="DejaVuSans-72" d="M 2631 2963 
Q 2534 3019 2420 3045 
Q 2306 3072 2169 3072 
Q 1681 3072 1420 2755 
Q 1159 2438 1159 1844 
L 1159 0 
L 581 0 
L 581 3500 
L 1159 3500 
L 1159 2956 
Q 1341 3275 1631 3429 
Q 1922 3584 2338 3584 
Q 2397 3584 2469 3576 
Q 2541 3569 2628 3553 
L 2631 2963 
z
" transform="scale(0.015625)"/>
       <path id="DejaVuSans-63" d="M 3122 3366 
L 3122 2828 
Q 2878 2963 2633 3030 
Q 2388 3097 2138 3097 
Q 1578 3097 1268 2742 
Q 959 2388 959 1747 
Q 959 1106 1268 751 
Q 1578 397 2138 397 
Q 2388 397 2633 464 
Q 2878 531 3122 666 
L 3122 134 
Q 2881 22 2623 -34 
Q 2366 -91 2075 -91 
Q 1284 -91 818 406 
Q 353 903 353 1747 
Q 353 2603 823 3093 
Q 1294 3584 2113 3584 
Q 2378 3584 2631 3529 
Q 2884 3475 3122 3366 
z
" transform="scale(0.015625)"/>
       <path id="DejaVuSans-6e" d="M 3513 2113 
L 3513 0 
L 2938 0 
L 2938 2094 
Q 2938 2591 2744 2837 
Q 2550 3084 2163 3084 
Q 1697 3084 1428 2787 
Q 1159 2491 1159 1978 
L 1159 0 
L 581 0 
L 581 3500 
L 1159 3500 
L 1159 2956 
Q 1366 3272 1645 3428 
Q 1925 3584 2291 3584 
Q 2894 3584 3203 3211 
Q 3513 2838 3513 2113 
z
" transform="scale(0.015625)"/>
       <path id="DejaVuSans-61" d="M 2194 1759 
Q 1497 1759 1228 1600 
Q 959 1441 959 1056 
Q 959 750 1161 570 
Q 1363 391 1709 391 
Q 2188 391 2477 730 
Q 2766 1069 2766 1631 
L 2766 1759 
L 2194 1759 
z
M 3341 1997 
L 3341 0 
L 2766 0 
L 2766 531 
Q 2569 213 2275 61 
Q 1981 -91 1556 -91 
Q 1019 -91 701 211 
Q 384 513 384 1019 
Q 384 1609 779 1909 
Q 1175 2209 1959 2209 
L 2766 2209 
L 2766 2266 
Q 2766 2663 2505 2880 
Q 2244 3097 1772 3097 
Q 1472 3097 1187 3025 
Q 903 2953 641 2809 
L 641 3341 
Q 956 3463 1253 3523 
Q 1550 3584 1831 3584 
Q 2591 3584 2966 3190 
Q 3341 2797 3341 1997 
z
" transform="scale(0.015625)"/>
      </defs>
      <use xlink:href="#DejaVuSans-46"/>
      <use xlink:href="#DejaVuSans-6c" transform="translate(57.519531 0)"/>
      <use xlink:href="#DejaVuSans-75" transform="translate(85.302734 0)"/>
      <use xlink:href="#DejaVuSans-6f" transform="translate(148.681641 0)"/>
      <use xlink:href="#DejaVuSans-72" transform="translate(209.863281 0)"/>
      <use xlink:href="#DejaVuSans-65" transform="translate(248.726562 0)"/>
      <use xlink:href="#DejaVuSans-73" transform="translate(310.25 0)"/>
      <use xlink:href="#DejaVuSans-63" transform="translate(362.349609 0)"/>
      <use xlink:href="#DejaVuSans-65" transform="translate(417.330078 0)"/>
      <use xlink:href="#DejaVuSans-6e" transform="translate(478.853516 0)"/>
      <use xlink:href="#DejaVuSans-63" transform="translate(542.232422 0)"/>
      <use xlink:href="#DejaVuSans-65" transform="translate(597.212891 0)"/>
      <use xlink:href="#DejaVuSans-20" transform="translate(658.736328 0)"/>
      <use xlink:href="#DejaVuSans-5b" transform="translate(690.523438 0)"/>
      <use xlink:href="#DejaVuSans-61" transform="translate(729.537109 0)"/>
      <use xlink:href="#DejaVuSans-2e" transform="translate(790.816406 0)"/>
      <use xlink:href="#DejaVuSans-75" transform="translate(822.603516 0)"/>
      <use xlink:href="#DejaVuSans-2e" transform="translate(885.982422 0)"/>
      <use xlink:href="#DejaVuSans-5d" transform="translate(917.769531 0)"/>
     </g>
    </g>
   </g>
   <g id="line2d_14">
    <path d="M 43.78125 143.816788 
L 58.506162 129.76263 
L 70.810541 137.932324 
L 83.114919 140.731729 
L 95.419298 141.531559 
L 107.723677 142.674174 
L 120.028055 145.47358 
L 132.332434 142.38852 
L 144.636813 142.102867 
L 156.941191 141.531559 
L 169.24557 141.245906 
L 181.549949 138.4465 
L 193.854327 139.017808 
L 206.158706 139.589115 
L 218.463085 140.160422 
L 230.767463 140.160422 
L 243.071842 140.446076 
L 255.376221 140.960252 
L 267.680599 141.245906 
L 279.984978 141.531559 
L 292.289357 141.817213 
L 304.593735 144.902272 
L 316.898114 145.187926 
L 329.202493 145.187926 
L 341.506871 145.187926 
L 353.81125 145.187926 
" clip-path="url(#pe5d758b37f)" style="fill: none"/>
    <defs>
     <path id="m9e83ef1703" d="M 0 3 
C 0.795609 3 1.55874 2.683901 2.12132 2.12132 
C 2.683901 1.55874 3 0.795609 3 0 
C 3 -0.795609 2.683901 -1.55874 2.12132 -2.12132 
C 1.55874 -2.683901 0.795609 -3 0 -3 
C -0.795609 -3 -1.55874 -2.683901 -2.12132 -2.12132 
C -2.683901 -1.55874 -3 -0.795609 -3 0 
C -3 0.795609 -2.683901 1.55874 -2.12132 2.12132 
C -1.55874 2.683901 -0.795609 3 0 3 
z
" style="stroke: #84569f"/>
    </defs>
    <g clip-path="url(#pe5d758b37f)">
     <use xlink:href="#m9e83ef1703" x="43.78125" y="143.816788" style="fill: #84569f; stroke: #84569f"/>
     <use xlink:href="#m9e83ef1703" x="58.506162" y="129.76263" style="fill: #84569f; stroke: #84569f"/>
     <use xlink:href="#m9e83ef1703" x="70.810541" y="137.932324" style="fill: #84569f; stroke: #84569f"/>
     <use xlink:href="#m9e83ef1703" x="83.114919" y="140.731729" style="fill: #84569f; stroke: #84569f"/>
     <use xlink:href="#m9e83ef1703" x="95.419298" y="141.531559" style="fill: #84569f; stroke: #84569f"/>
     <use xlink:href="#m9e83ef1703" x="107.723677" y="142.674174" style="fill: #84569f; stroke: #84569f"/>
     <use xlink:href="#m9e83ef1703" x="120.028055" y="145.47358" style="fill: #84569f; stroke: #84569f"/>
     <use xlink:href="#m9e83ef1703" x="132.332434" y="142.38852" style="fill: #84569f; stroke: #84569f"/>
     <use xlink:href="#m9e83ef1703" x="144.636813" y="142.102867" style="fill: #84569f; stroke: #84569f"/>
     <use xlink:href="#m9e83ef1703" x="156.941191" y="141.531559" style="fill: #84569f; stroke: #84569f"/>
     <use xlink:href="#m9e83ef1703" x="169.24557" y="141.245906" style="fill: #84569f; stroke: #84569f"/>
     <use xlink:href="#m9e83ef1703" x="181.549949" y="138.4465" style="fill: #84569f; stroke: #84569f"/>
     <use xlink:href="#m9e83ef1703" x="193.854327" y="139.017808" style="fill: #84569f; stroke: #84569f"/>
     <use xlink:href="#m9e83ef1703" x="206.158706" y="139.589115" style="fill: #84569f; stroke: #84569f"/>
     <use xlink:href="#m9e83ef1703" x="218.463085" y="140.160422" style="fill: #84569f; stroke: #84569f"/>
     <use xlink:href="#m9e83ef1703" x="230.767463" y="140.160422" style="fill: #84569f; stroke: #84569f"/>
     <use xlink:href="#m9e83ef1703" x="243.071842" y="140.446076" style="fill: #84569f; stroke: #84569f"/>
     <use xlink:href="#m9e83ef1703" x="255.376221" y="140.960252" style="fill: #84569f; stroke: #84569f"/>
     <use xlink:href="#m9e83ef1703" x="267.680599" y="141.245906" style="fill: #84569f; stroke: #84569f"/>
     <use xlink:href="#m9e83ef1703" x="279.984978" y="141.531559" style="fill: #84569f; stroke: #84569f"/>
     <use xlink:href="#m9e83ef1703" x="292.289357" y="141.817213" style="fill: #84569f; stroke: #84569f"/>
     <use xlink:href="#m9e83ef1703" x="304.593735" y="144.902272" style="fill: #84569f; stroke: #84569f"/>
     <use xlink:href="#m9e83ef1703" x="316.898114" y="145.187926" style="fill: #84569f; stroke: #84569f"/>
     <use xlink:href="#m9e83ef1703" x="329.202493" y="145.187926" style="fill: #84569f; stroke: #84569f"/>
     <use xlink:href="#m9e83ef1703" x="341.506871" y="145.187926" style="fill: #84569f; stroke: #84569f"/>
     <use xlink:href="#m9e83ef1703" x="353.81125" y="145.187926" style="fill: #84569f; stroke: #84569f"/>
    </g>
   </g>
   <g id="line2d_15">
    <path d="M 43.926482 35.38267 
L 58.651394 129.248453 
L 70.955773 137.361016 
L 83.260151 139.589115 
L 95.56453 140.960252 
L 107.868909 141.817213 
L 120.173287 142.102867 
L 132.477666 141.817213 
L 144.782045 141.245906 
L 157.086423 140.960252 
L 169.390802 140.446076 
L 181.695181 121.364413 
L 193.999559 109.881137 
L 206.303938 108.795653 
L 218.608317 108.51 
L 230.912695 108.224346 
L 243.217074 108.51 
L 255.521453 108.51 
L 267.825831 108.224346 
L 280.13021 107.367385 
L 292.434589 106.796078 
L 304.738967 82.744042 
L 317.043346 75.716963 
L 329.347725 74.060172 
L 341.652103 72.917557 
L 353.956482 71.832074 
" clip-path="url(#pe5d758b37f)" style="fill: none"/>
    <defs>
     <path id="md784c4cca0" d="M -3 3 
L 3 -3 
M -3 -3 
L 3 3 
" style="stroke: #84569f"/>
    </defs>
    <g clip-path="url(#pe5d758b37f)">
     <use xlink:href="#md784c4cca0" x="43.926482" y="35.38267" style="fill: #84569f; stroke: #84569f"/>
     <use xlink:href="#md784c4cca0" x="58.651394" y="129.248453" style="fill: #84569f; stroke: #84569f"/>
     <use xlink:href="#md784c4cca0" x="70.955773" y="137.361016" style="fill: #84569f; stroke: #84569f"/>
     <use xlink:href="#md784c4cca0" x="83.260151" y="139.589115" style="fill: #84569f; stroke: #84569f"/>
     <use xlink:href="#md784c4cca0" x="95.56453" y="140.960252" style="fill: #84569f; stroke: #84569f"/>
     <use xlink:href="#md784c4cca0" x="107.868909" y="141.817213" style="fill: #84569f; stroke: #84569f"/>
     <use xlink:href="#md784c4cca0" x="120.173287" y="142.102867" style="fill: #84569f; stroke: #84569f"/>
     <use xlink:href="#md784c4cca0" x="132.477666" y="141.817213" style="fill: #84569f; stroke: #84569f"/>
     <use xlink:href="#md784c4cca0" x="144.782045" y="141.245906" style="fill: #84569f; stroke: #84569f"/>
     <use xlink:href="#md784c4cca0" x="157.086423" y="140.960252" style="fill: #84569f; stroke: #84569f"/>
     <use xlink:href="#md784c4cca0" x="169.390802" y="140.446076" style="fill: #84569f; stroke: #84569f"/>
     <use xlink:href="#md784c4cca0" x="181.695181" y="121.364413" style="fill: #84569f; stroke: #84569f"/>
     <use xlink:href="#md784c4cca0" x="193.999559" y="109.881137" style="fill: #84569f; stroke: #84569f"/>
     <use xlink:href="#md784c4cca0" x="206.303938" y="108.795653" style="fill: #84569f; stroke: #84569f"/>
     <use xlink:href="#md784c4cca0" x="218.608317" y="108.51" style="fill: #84569f; stroke: #84569f"/>
     <use xlink:href="#md784c4cca0" x="230.912695" y="108.224346" style="fill: #84569f; stroke: #84569f"/>
     <use xlink:href="#md784c4cca0" x="243.217074" y="108.51" style="fill: #84569f; stroke: #84569f"/>
     <use xlink:href="#md784c4cca0" x="255.521453" y="108.51" style="fill: #84569f; stroke: #84569f"/>
     <use xlink:href="#md784c4cca0" x="267.825831" y="108.224346" style="fill: #84569f; stroke: #84569f"/>
     <use xlink:href="#md784c4cca0" x="280.13021" y="107.367385" style="fill: #84569f; stroke: #84569f"/>
     <use xlink:href="#md784c4cca0" x="292.434589" y="106.796078" style="fill: #84569f; stroke: #84569f"/>
     <use xlink:href="#md784c4cca0" x="304.738967" y="82.744042" style="fill: #84569f; stroke: #84569f"/>
     <use xlink:href="#md784c4cca0" x="317.043346" y="75.716963" style="fill: #84569f; stroke: #84569f"/>
     <use xlink:href="#md784c4cca0" x="329.347725" y="74.060172" style="fill: #84569f; stroke: #84569f"/>
     <use xlink:href="#md784c4cca0" x="341.652103" y="72.917557" style="fill: #84569f; stroke: #84569f"/>
     <use xlink:href="#md784c4cca0" x="353.956482" y="71.832074" style="fill: #84569f; stroke: #84569f"/>
    </g>
   </g>
   <g id="patch_28">
    <path d="M 43.78125 150.978125 
L 43.78125 29.878125 
" style="fill: none; stroke: #000000; stroke-width: 0.8; stroke-linejoin: miter; stroke-linecap: square"/>
   </g>
   <g id="patch_29">
    <path d="M 353.81125 150.978125 
L 353.81125 29.878125 
" style="fill: none; stroke: #000000; stroke-width: 0.8; stroke-linejoin: miter; stroke-linecap: square"/>
   </g>
   <g id="patch_30">
    <path d="M 43.78125 150.978125 
L 353.81125 150.978125 
" style="fill: none; stroke: #000000; stroke-width: 0.8; stroke-linejoin: miter; stroke-linecap: square"/>
   </g>
   <g id="patch_31">
    <path d="M 43.78125 29.878125 
L 353.81125 29.878125 
" style="fill: none; stroke: #000000; stroke-width: 0.8; stroke-linejoin: miter; stroke-linecap: square"/>
   </g>
   <g id="legend_1">
    <g id="line2d_16">
     <path d="M 89.161094 15.298437 
L 99.161094 15.298437 
L 109.161094 15.298437 
" style="fill: none"/>
     <g>
      <use xlink:href="#m9e83ef1703" x="99.161094" y="15.298437" style="fill: #84569f; stroke: #84569f"/>
     </g>
    </g>
    <g id="text_16">
     <!-- Measured Fluo -->
     <g transform="translate(117.161094 18.798437) scale(0.1 -0.1)">
      <defs>
       <path id="DejaVuSans-4d" d="M 628 4666 
L 1569 4666 
L 2759 1491 
L 3956 4666 
L 4897 4666 
L 4897 0 
L 4281 0 
L 4281 4097 
L 3078 897 
L 2444 897 
L 1241 4097 
L 1241 0 
L 628 0 
L 628 4666 
z
" transform="scale(0.015625)"/>
       <path id="DejaVuSans-64" d="M 2906 2969 
L 2906 4863 
L 3481 4863 
L 3481 0 
L 2906 0 
L 2906 525 
Q 2725 213 2448 61 
Q 2172 -91 1784 -91 
Q 1150 -91 751 415 
Q 353 922 353 1747 
Q 353 2572 751 3078 
Q 1150 3584 1784 3584 
Q 2172 3584 2448 3432 
Q 2725 3281 2906 2969 
z
M 947 1747 
Q 947 1113 1208 752 
Q 1469 391 1925 391 
Q 2381 391 2643 752 
Q 2906 1113 2906 1747 
Q 2906 2381 2643 2742 
Q 2381 3103 1925 3103 
Q 1469 3103 1208 2742 
Q 947 2381 947 1747 
z
" transform="scale(0.015625)"/>
      </defs>
      <use xlink:href="#DejaVuSans-4d"/>
      <use xlink:href="#DejaVuSans-65" transform="translate(86.279297 0)"/>
      <use xlink:href="#DejaVuSans-61" transform="translate(147.802734 0)"/>
      <use xlink:href="#DejaVuSans-73" transform="translate(209.082031 0)"/>
      <use xlink:href="#DejaVuSans-75" transform="translate(261.181641 0)"/>
      <use xlink:href="#DejaVuSans-72" transform="translate(324.560547 0)"/>
      <use xlink:href="#DejaVuSans-65" transform="translate(363.423828 0)"/>
      <use xlink:href="#DejaVuSans-64" transform="translate(424.947266 0)"/>
      <use xlink:href="#DejaVuSans-20" transform="translate(488.423828 0)"/>
      <use xlink:href="#DejaVuSans-46" transform="translate(520.210938 0)"/>
      <use xlink:href="#DejaVuSans-6c" transform="translate(577.730469 0)"/>
      <use xlink:href="#DejaVuSans-75" transform="translate(605.513672 0)"/>
      <use xlink:href="#DejaVuSans-6f" transform="translate(668.892578 0)"/>
     </g>
    </g>
    <g id="line2d_17">
     <path d="M 210.168906 15.298437 
L 220.168906 15.298437 
L 230.168906 15.298437 
" style="fill: none"/>
     <g>
      <use xlink:href="#md784c4cca0" x="220.168906" y="15.298437" style="fill: #84569f; stroke: #84569f"/>
     </g>
    </g>
    <g id="text_17">
     <!-- Measured Fm' -->
     <g transform="translate(238.168906 18.798437) scale(0.1 -0.1)">
      <defs>
       <path id="DejaVuSans-27" d="M 1147 4666 
L 1147 2931 
L 616 2931 
L 616 4666 
L 1147 4666 
z
" transform="scale(0.015625)"/>
      </defs>
      <use xlink:href="#DejaVuSans-4d"/>
      <use xlink:href="#DejaVuSans-65" transform="translate(86.279297 0)"/>
      <use xlink:href="#DejaVuSans-61" transform="translate(147.802734 0)"/>
      <use xlink:href="#DejaVuSans-73" transform="translate(209.082031 0)"/>
      <use xlink:href="#DejaVuSans-75" transform="translate(261.181641 0)"/>
      <use xlink:href="#DejaVuSans-72" transform="translate(324.560547 0)"/>
      <use xlink:href="#DejaVuSans-65" transform="translate(363.423828 0)"/>
      <use xlink:href="#DejaVuSans-64" transform="translate(424.947266 0)"/>
      <use xlink:href="#DejaVuSans-20" transform="translate(488.423828 0)"/>
      <use xlink:href="#DejaVuSans-46" transform="translate(520.210938 0)"/>
      <use xlink:href="#DejaVuSans-6d" transform="translate(577.730469 0)"/>
      <use xlink:href="#DejaVuSans-27" transform="translate(675.142578 0)"/>
     </g>
    </g>
   </g>
  </g>
  <g id="axes_2">
   <g id="patch_32">
    <path d="M 367.76125 150.978125 
L 677.79125 150.978125 
L 677.79125 29.878125 
L 367.76125 29.878125 
z
" style="fill: #ffffff"/>
   </g>
   <g id="patch_33">
    <path d="M 367.76125 150.978125 
L 382.486162 150.978125 
L 382.486162 29.878125 
L 367.76125 29.878125 
z
" clip-path="url(#p6c72b5344e)" style="fill: #d3d3d3; opacity: 0.3"/>
   </g>
   <g id="patch_34">
    <path d="M 382.486162 150.978125 
L 394.790541 150.978125 
L 394.790541 29.878125 
L 382.486162 29.878125 
z
" clip-path="url(#p6c72b5344e)" style="fill: #d3d3d3; opacity: 0.3"/>
   </g>
   <g id="patch_35">
    <path d="M 394.790541 150.978125 
L 407.094919 150.978125 
L 407.094919 29.878125 
L 394.790541 29.878125 
z
" clip-path="url(#p6c72b5344e)" style="fill: #d3d3d3; opacity: 0.3"/>
   </g>
   <g id="patch_36">
    <path d="M 407.094919 150.978125 
L 419.399298 150.978125 
L 419.399298 29.878125 
L 407.094919 29.878125 
z
" clip-path="url(#p6c72b5344e)" style="fill: #d3d3d3; opacity: 0.3"/>
   </g>
   <g id="patch_37">
    <path d="M 419.399298 150.978125 
L 431.703677 150.978125 
L 431.703677 29.878125 
L 419.399298 29.878125 
z
" clip-path="url(#p6c72b5344e)" style="fill: #d3d3d3; opacity: 0.3"/>
   </g>
   <g id="patch_38">
    <path d="M 431.703677 150.978125 
L 444.008055 150.978125 
L 444.008055 29.878125 
L 431.703677 29.878125 
z
" clip-path="url(#p6c72b5344e)" style="fill: #d3d3d3; opacity: 0.3"/>
   </g>
   <g id="patch_39">
    <path d="M 444.008055 150.978125 
L 456.312434 150.978125 
L 456.312434 29.878125 
L 444.008055 29.878125 
z
" clip-path="url(#p6c72b5344e)" style="fill: #d3d3d3; opacity: 0.3"/>
   </g>
   <g id="patch_40">
    <path d="M 456.312434 150.978125 
L 468.616813 150.978125 
L 468.616813 29.878125 
L 456.312434 29.878125 
z
" clip-path="url(#p6c72b5344e)" style="fill: #d3d3d3; opacity: 0.3"/>
   </g>
   <g id="patch_41">
    <path d="M 468.616813 150.978125 
L 480.921191 150.978125 
L 480.921191 29.878125 
L 468.616813 29.878125 
z
" clip-path="url(#p6c72b5344e)" style="fill: #d3d3d3; opacity: 0.3"/>
   </g>
   <g id="patch_42">
    <path d="M 480.921191 150.978125 
L 493.22557 150.978125 
L 493.22557 29.878125 
L 480.921191 29.878125 
z
" clip-path="url(#p6c72b5344e)" style="fill: #d3d3d3; opacity: 0.3"/>
   </g>
   <g id="patch_43">
    <path d="M 493.22557 150.978125 
L 505.529949 150.978125 
L 505.529949 29.878125 
L 493.22557 29.878125 
z
" clip-path="url(#p6c72b5344e)" style="fill: #808080; opacity: 0.3"/>
   </g>
   <g id="patch_44">
    <path d="M 505.529949 150.978125 
L 517.834327 150.978125 
L 517.834327 29.878125 
L 505.529949 29.878125 
z
" clip-path="url(#p6c72b5344e)" style="fill: #808080; opacity: 0.3"/>
   </g>
   <g id="patch_45">
    <path d="M 517.834327 150.978125 
L 530.138706 150.978125 
L 530.138706 29.878125 
L 517.834327 29.878125 
z
" clip-path="url(#p6c72b5344e)" style="fill: #808080; opacity: 0.3"/>
   </g>
   <g id="patch_46">
    <path d="M 530.138706 150.978125 
L 542.443085 150.978125 
L 542.443085 29.878125 
L 530.138706 29.878125 
z
" clip-path="url(#p6c72b5344e)" style="fill: #808080; opacity: 0.3"/>
   </g>
   <g id="patch_47">
    <path d="M 542.443085 150.978125 
L 554.747463 150.978125 
L 554.747463 29.878125 
L 542.443085 29.878125 
z
" clip-path="url(#p6c72b5344e)" style="fill: #808080; opacity: 0.3"/>
   </g>
   <g id="patch_48">
    <path d="M 554.747463 150.978125 
L 567.051842 150.978125 
L 567.051842 29.878125 
L 554.747463 29.878125 
z
" clip-path="url(#p6c72b5344e)" style="fill: #808080; opacity: 0.3"/>
   </g>
   <g id="patch_49">
    <path d="M 567.051842 150.978125 
L 579.356221 150.978125 
L 579.356221 29.878125 
L 567.051842 29.878125 
z
" clip-path="url(#p6c72b5344e)" style="fill: #808080; opacity: 0.3"/>
   </g>
   <g id="patch_50">
    <path d="M 579.356221 150.978125 
L 591.660599 150.978125 
L 591.660599 29.878125 
L 579.356221 29.878125 
z
" clip-path="url(#p6c72b5344e)" style="fill: #808080; opacity: 0.3"/>
   </g>
   <g id="patch_51">
    <path d="M 591.660599 150.978125 
L 603.964978 150.978125 
L 603.964978 29.878125 
L 591.660599 29.878125 
z
" clip-path="url(#p6c72b5344e)" style="fill: #808080; opacity: 0.3"/>
   </g>
   <g id="patch_52">
    <path d="M 603.964978 150.978125 
L 616.269357 150.978125 
L 616.269357 29.878125 
L 603.964978 29.878125 
z
" clip-path="url(#p6c72b5344e)" style="fill: #808080; opacity: 0.3"/>
   </g>
   <g id="patch_53">
    <path d="M 616.269357 150.978125 
L 628.573735 150.978125 
L 628.573735 29.878125 
L 616.269357 29.878125 
z
" clip-path="url(#p6c72b5344e)" style="opacity: 0.3"/>
   </g>
   <g id="patch_54">
    <path d="M 628.573735 150.978125 
L 640.878114 150.978125 
L 640.878114 29.878125 
L 628.573735 29.878125 
z
" clip-path="url(#p6c72b5344e)" style="opacity: 0.3"/>
   </g>
   <g id="patch_55">
    <path d="M 640.878114 150.978125 
L 653.182493 150.978125 
L 653.182493 29.878125 
L 640.878114 29.878125 
z
" clip-path="url(#p6c72b5344e)" style="opacity: 0.3"/>
   </g>
   <g id="patch_56">
    <path d="M 653.182493 150.978125 
L 665.486871 150.978125 
L 665.486871 29.878125 
L 653.182493 29.878125 
z
" clip-path="url(#p6c72b5344e)" style="opacity: 0.3"/>
   </g>
   <g id="patch_57">
    <path d="M 665.486871 150.978125 
L 677.79125 150.978125 
L 677.79125 29.878125 
L 665.486871 29.878125 
z
" clip-path="url(#p6c72b5344e)" style="opacity: 0.3"/>
   </g>
   <g id="matplotlib.axis_3">
    <g id="xtick_9">
     <g id="line2d_18">
      <g>
       <use xlink:href="#m5daf18e3a8" x="367.76125" y="150.978125" style="stroke: #000000; stroke-width: 0.8"/>
      </g>
     </g>
     <g id="text_18">
      <!-- 0 -->
      <g transform="translate(364.58 165.576562) scale(0.1 -0.1)">
       <use xlink:href="#DejaVuSans-30"/>
      </g>
     </g>
    </g>
    <g id="xtick_10">
     <g id="line2d_19">
      <g>
       <use xlink:href="#m5daf18e3a8" x="408.103475" y="150.978125" style="stroke: #000000; stroke-width: 0.8"/>
      </g>
     </g>
     <g id="text_19">
      <!-- 200 -->
      <g transform="translate(398.559725 165.576562) scale(0.1 -0.1)">
       <use xlink:href="#DejaVuSans-32"/>
       <use xlink:href="#DejaVuSans-30" transform="translate(63.623047 0)"/>
       <use xlink:href="#DejaVuSans-30" transform="translate(127.246094 0)"/>
      </g>
     </g>
    </g>
    <g id="xtick_11">
     <g id="line2d_20">
      <g>
       <use xlink:href="#m5daf18e3a8" x="448.4457" y="150.978125" style="stroke: #000000; stroke-width: 0.8"/>
      </g>
     </g>
     <g id="text_20">
      <!-- 400 -->
      <g transform="translate(438.90195 165.576562) scale(0.1 -0.1)">
       <use xlink:href="#DejaVuSans-34"/>
       <use xlink:href="#DejaVuSans-30" transform="translate(63.623047 0)"/>
       <use xlink:href="#DejaVuSans-30" transform="translate(127.246094 0)"/>
      </g>
     </g>
    </g>
    <g id="xtick_12">
     <g id="line2d_21">
      <g>
       <use xlink:href="#m5daf18e3a8" x="488.787925" y="150.978125" style="stroke: #000000; stroke-width: 0.8"/>
      </g>
     </g>
     <g id="text_21">
      <!-- 600 -->
      <g transform="translate(479.244175 165.576562) scale(0.1 -0.1)">
       <use xlink:href="#DejaVuSans-36"/>
       <use xlink:href="#DejaVuSans-30" transform="translate(63.623047 0)"/>
       <use xlink:href="#DejaVuSans-30" transform="translate(127.246094 0)"/>
      </g>
     </g>
    </g>
    <g id="xtick_13">
     <g id="line2d_22">
      <g>
       <use xlink:href="#m5daf18e3a8" x="529.13015" y="150.978125" style="stroke: #000000; stroke-width: 0.8"/>
      </g>
     </g>
     <g id="text_22">
      <!-- 800 -->
      <g transform="translate(519.5864 165.576562) scale(0.1 -0.1)">
       <use xlink:href="#DejaVuSans-38"/>
       <use xlink:href="#DejaVuSans-30" transform="translate(63.623047 0)"/>
       <use xlink:href="#DejaVuSans-30" transform="translate(127.246094 0)"/>
      </g>
     </g>
    </g>
    <g id="xtick_14">
     <g id="line2d_23">
      <g>
       <use xlink:href="#m5daf18e3a8" x="569.472376" y="150.978125" style="stroke: #000000; stroke-width: 0.8"/>
      </g>
     </g>
     <g id="text_23">
      <!-- 1000 -->
      <g transform="translate(556.747376 165.576562) scale(0.1 -0.1)">
       <use xlink:href="#DejaVuSans-31"/>
       <use xlink:href="#DejaVuSans-30" transform="translate(63.623047 0)"/>
       <use xlink:href="#DejaVuSans-30" transform="translate(127.246094 0)"/>
       <use xlink:href="#DejaVuSans-30" transform="translate(190.869141 0)"/>
      </g>
     </g>
    </g>
    <g id="xtick_15">
     <g id="line2d_24">
      <g>
       <use xlink:href="#m5daf18e3a8" x="609.814601" y="150.978125" style="stroke: #000000; stroke-width: 0.8"/>
      </g>
     </g>
     <g id="text_24">
      <!-- 1200 -->
      <g transform="translate(597.089601 165.576562) scale(0.1 -0.1)">
       <use xlink:href="#DejaVuSans-31"/>
       <use xlink:href="#DejaVuSans-32" transform="translate(63.623047 0)"/>
       <use xlink:href="#DejaVuSans-30" transform="translate(127.246094 0)"/>
       <use xlink:href="#DejaVuSans-30" transform="translate(190.869141 0)"/>
      </g>
     </g>
    </g>
    <g id="xtick_16">
     <g id="line2d_25">
      <g>
       <use xlink:href="#m5daf18e3a8" x="650.156826" y="150.978125" style="stroke: #000000; stroke-width: 0.8"/>
      </g>
     </g>
     <g id="text_25">
      <!-- 1400 -->
      <g transform="translate(637.431826 165.576562) scale(0.1 -0.1)">
       <use xlink:href="#DejaVuSans-31"/>
       <use xlink:href="#DejaVuSans-34" transform="translate(63.623047 0)"/>
       <use xlink:href="#DejaVuSans-30" transform="translate(127.246094 0)"/>
       <use xlink:href="#DejaVuSans-30" transform="translate(190.869141 0)"/>
      </g>
     </g>
    </g>
    <g id="text_26">
     <!-- Time [s] -->
     <g transform="translate(502.447344 179.254687) scale(0.1 -0.1)">
      <use xlink:href="#DejaVuSans-54"/>
      <use xlink:href="#DejaVuSans-69" transform="translate(57.958984 0)"/>
      <use xlink:href="#DejaVuSans-6d" transform="translate(85.742188 0)"/>
      <use xlink:href="#DejaVuSans-65" transform="translate(183.154297 0)"/>
      <use xlink:href="#DejaVuSans-20" transform="translate(244.677734 0)"/>
      <use xlink:href="#DejaVuSans-5b" transform="translate(276.464844 0)"/>
      <use xlink:href="#DejaVuSans-73" transform="translate(315.478516 0)"/>
      <use xlink:href="#DejaVuSans-5d" transform="translate(367.578125 0)"/>
     </g>
    </g>
   </g>
   <g id="matplotlib.axis_4">
    <g id="ytick_6">
     <g id="line2d_26">
      <defs>
       <path id="m35b35f56b3" d="M 0 0 
L 3.5 0 
" style="stroke: #000000; stroke-width: 0.8"/>
      </defs>
      <g>
       <use xlink:href="#m35b35f56b3" x="677.79125" y="145.47358" style="stroke: #000000; stroke-width: 0.8"/>
      </g>
     </g>
     <g id="text_27">
      <!-- 0 -->
      <g transform="translate(684.79125 149.272798) scale(0.1 -0.1)">
       <use xlink:href="#DejaVuSans-30"/>
      </g>
     </g>
    </g>
    <g id="ytick_7">
     <g id="line2d_27">
      <g>
       <use xlink:href="#m35b35f56b3" x="677.79125" y="115.711316" style="stroke: #000000; stroke-width: 0.8"/>
      </g>
     </g>
     <g id="text_28">
      <!-- 1 -->
      <g transform="translate(684.79125 119.510534) scale(0.1 -0.1)">
       <use xlink:href="#DejaVuSans-31"/>
      </g>
     </g>
    </g>
    <g id="ytick_8">
     <g id="line2d_28">
      <g>
       <use xlink:href="#m35b35f56b3" x="677.79125" y="85.949052" style="stroke: #000000; stroke-width: 0.8"/>
      </g>
     </g>
     <g id="text_29">
      <!-- 2 -->
      <g transform="translate(684.79125 89.74827) scale(0.1 -0.1)">
       <use xlink:href="#DejaVuSans-32"/>
      </g>
     </g>
    </g>
    <g id="ytick_9">
     <g id="line2d_29">
      <g>
       <use xlink:href="#m35b35f56b3" x="677.79125" y="56.186788" style="stroke: #000000; stroke-width: 0.8"/>
      </g>
     </g>
     <g id="text_30">
      <!-- 3 -->
      <g transform="translate(684.79125 59.986006) scale(0.1 -0.1)">
       <defs>
        <path id="DejaVuSans-33" d="M 2597 2516 
Q 3050 2419 3304 2112 
Q 3559 1806 3559 1356 
Q 3559 666 3084 287 
Q 2609 -91 1734 -91 
Q 1441 -91 1130 -33 
Q 819 25 488 141 
L 488 750 
Q 750 597 1062 519 
Q 1375 441 1716 441 
Q 2309 441 2620 675 
Q 2931 909 2931 1356 
Q 2931 1769 2642 2001 
Q 2353 2234 1838 2234 
L 1294 2234 
L 1294 2753 
L 1863 2753 
Q 2328 2753 2575 2939 
Q 2822 3125 2822 3475 
Q 2822 3834 2567 4026 
Q 2313 4219 1838 4219 
Q 1578 4219 1281 4162 
Q 984 4106 628 3988 
L 628 4550 
Q 988 4650 1302 4700 
Q 1616 4750 1894 4750 
Q 2613 4750 3031 4423 
Q 3450 4097 3450 3541 
Q 3450 3153 3228 2886 
Q 3006 2619 2597 2516 
z
" transform="scale(0.015625)"/>
       </defs>
       <use xlink:href="#DejaVuSans-33"/>
      </g>
     </g>
    </g>
    <g id="text_31">
     <!-- NPQ [a.u.] -->
     <g transform="translate(702.752187 116.021094) rotate(-90) scale(0.1 -0.1)">
      <defs>
       <path id="DejaVuSans-4e" d="M 628 4666 
L 1478 4666 
L 3547 763 
L 3547 4666 
L 4159 4666 
L 4159 0 
L 3309 0 
L 1241 3903 
L 1241 0 
L 628 0 
L 628 4666 
z
" transform="scale(0.015625)"/>
       <path id="DejaVuSans-50" d="M 1259 4147 
L 1259 2394 
L 2053 2394 
Q 2494 2394 2734 2622 
Q 2975 2850 2975 3272 
Q 2975 3691 2734 3919 
Q 2494 4147 2053 4147 
L 1259 4147 
z
M 628 4666 
L 2053 4666 
Q 2838 4666 3239 4311 
Q 3641 3956 3641 3272 
Q 3641 2581 3239 2228 
Q 2838 1875 2053 1875 
L 1259 1875 
L 1259 0 
L 628 0 
L 628 4666 
z
" transform="scale(0.015625)"/>
       <path id="DejaVuSans-51" d="M 2522 4238 
Q 1834 4238 1429 3725 
Q 1025 3213 1025 2328 
Q 1025 1447 1429 934 
Q 1834 422 2522 422 
Q 3209 422 3611 934 
Q 4013 1447 4013 2328 
Q 4013 3213 3611 3725 
Q 3209 4238 2522 4238 
z
M 3406 84 
L 4238 -825 
L 3475 -825 
L 2784 -78 
Q 2681 -84 2626 -87 
Q 2572 -91 2522 -91 
Q 1538 -91 948 567 
Q 359 1225 359 2328 
Q 359 3434 948 4092 
Q 1538 4750 2522 4750 
Q 3503 4750 4090 4092 
Q 4678 3434 4678 2328 
Q 4678 1516 4351 937 
Q 4025 359 3406 84 
z
" transform="scale(0.015625)"/>
      </defs>
      <use xlink:href="#DejaVuSans-4e"/>
      <use xlink:href="#DejaVuSans-50" transform="translate(74.804688 0)"/>
      <use xlink:href="#DejaVuSans-51" transform="translate(135.107422 0)"/>
      <use xlink:href="#DejaVuSans-20" transform="translate(213.818359 0)"/>
      <use xlink:href="#DejaVuSans-5b" transform="translate(245.605469 0)"/>
      <use xlink:href="#DejaVuSans-61" transform="translate(284.619141 0)"/>
      <use xlink:href="#DejaVuSans-2e" transform="translate(345.898438 0)"/>
      <use xlink:href="#DejaVuSans-75" transform="translate(377.685547 0)"/>
      <use xlink:href="#DejaVuSans-2e" transform="translate(441.064453 0)"/>
      <use xlink:href="#DejaVuSans-5d" transform="translate(472.851562 0)"/>
     </g>
    </g>
   </g>
   <g id="line2d_30">
    <path d="M 367.76125 145.47358 
L 382.486162 78.488101 
L 394.790541 55.12385 
L 407.094919 46.591304 
L 419.399298 40.71041 
L 431.703677 36.75378 
L 444.008055 35.38267 
L 456.312434 36.75378 
L 468.616813 39.416897 
L 480.921191 40.71041 
L 493.22557 42.977693 
L 505.529949 93.869654 
L 517.834327 109.168629 
L 530.138706 110.322376 
L 542.443085 110.619327 
L 554.747463 110.913574 
L 567.051842 110.619327 
L 579.356221 110.619327 
L 591.660599 110.913574 
L 603.964978 111.780451 
L 616.269357 112.345503 
L 628.573735 129.493711 
L 640.878114 132.868805 
L 653.182493 133.593242 
L 665.486871 134.078587 
L 677.79125 134.5293 
" clip-path="url(#p6c72b5344e)" style="fill: none; stroke: #84569f; stroke-linecap: square"/>
    <defs>
     <path id="m303badecf9" d="M -3 3 
L 3 3 
L 3 -3 
L -3 -3 
z
" style="stroke: #84569f; stroke-linejoin: miter"/>
    </defs>
    <g clip-path="url(#p6c72b5344e)">
     <use xlink:href="#m303badecf9" x="367.76125" y="145.47358" style="fill: #84569f; stroke: #84569f; stroke-linejoin: miter"/>
     <use xlink:href="#m303badecf9" x="382.486162" y="78.488101" style="fill: #84569f; stroke: #84569f; stroke-linejoin: miter"/>
     <use xlink:href="#m303badecf9" x="394.790541" y="55.12385" style="fill: #84569f; stroke: #84569f; stroke-linejoin: miter"/>
     <use xlink:href="#m303badecf9" x="407.094919" y="46.591304" style="fill: #84569f; stroke: #84569f; stroke-linejoin: miter"/>
     <use xlink:href="#m303badecf9" x="419.399298" y="40.71041" style="fill: #84569f; stroke: #84569f; stroke-linejoin: miter"/>
     <use xlink:href="#m303badecf9" x="431.703677" y="36.75378" style="fill: #84569f; stroke: #84569f; stroke-linejoin: miter"/>
     <use xlink:href="#m303badecf9" x="444.008055" y="35.38267" style="fill: #84569f; stroke: #84569f; stroke-linejoin: miter"/>
     <use xlink:href="#m303badecf9" x="456.312434" y="36.75378" style="fill: #84569f; stroke: #84569f; stroke-linejoin: miter"/>
     <use xlink:href="#m303badecf9" x="468.616813" y="39.416897" style="fill: #84569f; stroke: #84569f; stroke-linejoin: miter"/>
     <use xlink:href="#m303badecf9" x="480.921191" y="40.71041" style="fill: #84569f; stroke: #84569f; stroke-linejoin: miter"/>
     <use xlink:href="#m303badecf9" x="493.22557" y="42.977693" style="fill: #84569f; stroke: #84569f; stroke-linejoin: miter"/>
     <use xlink:href="#m303badecf9" x="505.529949" y="93.869654" style="fill: #84569f; stroke: #84569f; stroke-linejoin: miter"/>
     <use xlink:href="#m303badecf9" x="517.834327" y="109.168629" style="fill: #84569f; stroke: #84569f; stroke-linejoin: miter"/>
     <use xlink:href="#m303badecf9" x="530.138706" y="110.322376" style="fill: #84569f; stroke: #84569f; stroke-linejoin: miter"/>
     <use xlink:href="#m303badecf9" x="542.443085" y="110.619327" style="fill: #84569f; stroke: #84569f; stroke-linejoin: miter"/>
     <use xlink:href="#m303badecf9" x="554.747463" y="110.913574" style="fill: #84569f; stroke: #84569f; stroke-linejoin: miter"/>
     <use xlink:href="#m303badecf9" x="567.051842" y="110.619327" style="fill: #84569f; stroke: #84569f; stroke-linejoin: miter"/>
     <use xlink:href="#m303badecf9" x="579.356221" y="110.619327" style="fill: #84569f; stroke: #84569f; stroke-linejoin: miter"/>
     <use xlink:href="#m303badecf9" x="591.660599" y="110.913574" style="fill: #84569f; stroke: #84569f; stroke-linejoin: miter"/>
     <use xlink:href="#m303badecf9" x="603.964978" y="111.780451" style="fill: #84569f; stroke: #84569f; stroke-linejoin: miter"/>
     <use xlink:href="#m303badecf9" x="616.269357" y="112.345503" style="fill: #84569f; stroke: #84569f; stroke-linejoin: miter"/>
     <use xlink:href="#m303badecf9" x="628.573735" y="129.493711" style="fill: #84569f; stroke: #84569f; stroke-linejoin: miter"/>
     <use xlink:href="#m303badecf9" x="640.878114" y="132.868805" style="fill: #84569f; stroke: #84569f; stroke-linejoin: miter"/>
     <use xlink:href="#m303badecf9" x="653.182493" y="133.593242" style="fill: #84569f; stroke: #84569f; stroke-linejoin: miter"/>
     <use xlink:href="#m303badecf9" x="665.486871" y="134.078587" style="fill: #84569f; stroke: #84569f; stroke-linejoin: miter"/>
     <use xlink:href="#m303badecf9" x="677.79125" y="134.5293" style="fill: #84569f; stroke: #84569f; stroke-linejoin: miter"/>
    </g>
   </g>
   <g id="patch_58">
    <path d="M 367.76125 150.978125 
L 367.76125 29.878125 
" style="fill: none; stroke: #000000; stroke-width: 0.8; stroke-linejoin: miter; stroke-linecap: square"/>
   </g>
   <g id="patch_59">
    <path d="M 677.79125 150.978125 
L 677.79125 29.878125 
" style="fill: none; stroke: #000000; stroke-width: 0.8; stroke-linejoin: miter; stroke-linecap: square"/>
   </g>
   <g id="patch_60">
    <path d="M 367.76125 150.978125 
L 677.79125 150.978125 
" style="fill: none; stroke: #000000; stroke-width: 0.8; stroke-linejoin: miter; stroke-linecap: square"/>
   </g>
   <g id="patch_61">
    <path d="M 367.76125 29.878125 
L 677.79125 29.878125 
" style="fill: none; stroke: #000000; stroke-width: 0.8; stroke-linejoin: miter; stroke-linecap: square"/>
   </g>
   <g id="legend_2">
    <g id="patch_62">
     <path d="M 565.386562 52.55625 
L 670.79125 52.55625 
Q 672.79125 52.55625 672.79125 50.55625 
L 672.79125 36.878125 
Q 672.79125 34.878125 670.79125 34.878125 
L 565.386562 34.878125 
Q 563.386562 34.878125 563.386562 36.878125 
L 563.386562 50.55625 
Q 563.386562 52.55625 565.386562 52.55625 
z
" style="fill: #ffffff; opacity: 0.8; stroke: #cccccc; stroke-linejoin: miter"/>
    </g>
    <g id="line2d_31">
     <path d="M 567.386562 42.976562 
L 577.386562 42.976562 
L 587.386562 42.976562 
" style="fill: none; stroke: #84569f; stroke-linecap: square"/>
     <g>
      <use xlink:href="#m303badecf9" x="577.386562" y="42.976562" style="fill: #84569f; stroke: #84569f; stroke-linejoin: miter"/>
     </g>
    </g>
    <g id="text_32">
     <!-- Measured NPQ -->
     <g transform="translate(595.386562 46.476562) scale(0.1 -0.1)">
      <use xlink:href="#DejaVuSans-4d"/>
      <use xlink:href="#DejaVuSans-65" transform="translate(86.279297 0)"/>
      <use xlink:href="#DejaVuSans-61" transform="translate(147.802734 0)"/>
      <use xlink:href="#DejaVuSans-73" transform="translate(209.082031 0)"/>
      <use xlink:href="#DejaVuSans-75" transform="translate(261.181641 0)"/>
      <use xlink:href="#DejaVuSans-72" transform="translate(324.560547 0)"/>
      <use xlink:href="#DejaVuSans-65" transform="translate(363.423828 0)"/>
      <use xlink:href="#DejaVuSans-64" transform="translate(424.947266 0)"/>
      <use xlink:href="#DejaVuSans-20" transform="translate(488.423828 0)"/>
      <use xlink:href="#DejaVuSans-4e" transform="translate(520.210938 0)"/>
      <use xlink:href="#DejaVuSans-50" transform="translate(595.015625 0)"/>
      <use xlink:href="#DejaVuSans-51" transform="translate(655.318359 0)"/>
     </g>
    </g>
   </g>
  </g>
  <g id="axes_3">
   <g id="patch_63">
    <path d="M 43.78125 314.038125 
L 677.79125 314.038125 
L 677.79125 192.938125 
L 43.78125 192.938125 
z
" style="fill: #ffffff"/>
   </g>
   <g id="patch_64">
    <path d="M 43.78125 314.038125 
L 73.893631 314.038125 
L 73.893631 192.938125 
L 43.78125 192.938125 
z
" clip-path="url(#p15944f62dd)" style="fill: #d3d3d3; opacity: 0.3"/>
   </g>
   <g id="patch_65">
    <path d="M 73.893631 314.038125 
L 99.056032 314.038125 
L 99.056032 192.938125 
L 73.893631 192.938125 
z
" clip-path="url(#p15944f62dd)" style="fill: #d3d3d3; opacity: 0.3"/>
   </g>
   <g id="patch_66">
    <path d="M 99.056032 314.038125 
L 124.218433 314.038125 
L 124.218433 192.938125 
L 99.056032 192.938125 
z
" clip-path="url(#p15944f62dd)" style="fill: #d3d3d3; opacity: 0.3"/>
   </g>
   <g id="patch_67">
    <path d="M 124.218433 314.038125 
L 149.380834 314.038125 
L 149.380834 192.938125 
L 124.218433 192.938125 
z
" clip-path="url(#p15944f62dd)" style="fill: #d3d3d3; opacity: 0.3"/>
   </g>
   <g id="patch_68">
    <path d="M 149.380834 314.038125 
L 174.543234 314.038125 
L 174.543234 192.938125 
L 149.380834 192.938125 
z
" clip-path="url(#p15944f62dd)" style="fill: #d3d3d3; opacity: 0.3"/>
   </g>
   <g id="patch_69">
    <path d="M 174.543234 314.038125 
L 199.705635 314.038125 
L 199.705635 192.938125 
L 174.543234 192.938125 
z
" clip-path="url(#p15944f62dd)" style="fill: #d3d3d3; opacity: 0.3"/>
   </g>
   <g id="patch_70">
    <path d="M 199.705635 314.038125 
L 224.868036 314.038125 
L 224.868036 192.938125 
L 199.705635 192.938125 
z
" clip-path="url(#p15944f62dd)" style="fill: #d3d3d3; opacity: 0.3"/>
   </g>
   <g id="patch_71">
    <path d="M 224.868036 314.038125 
L 250.030437 314.038125 
L 250.030437 192.938125 
L 224.868036 192.938125 
z
" clip-path="url(#p15944f62dd)" style="fill: #d3d3d3; opacity: 0.3"/>
   </g>
   <g id="patch_72">
    <path d="M 250.030437 314.038125 
L 275.192838 314.038125 
L 275.192838 192.938125 
L 250.030437 192.938125 
z
" clip-path="url(#p15944f62dd)" style="fill: #d3d3d3; opacity: 0.3"/>
   </g>
   <g id="patch_73">
    <path d="M 275.192838 314.038125 
L 300.355238 314.038125 
L 300.355238 192.938125 
L 275.192838 192.938125 
z
" clip-path="url(#p15944f62dd)" style="fill: #d3d3d3; opacity: 0.3"/>
   </g>
   <g id="patch_74">
    <path d="M 300.355238 314.038125 
L 325.517639 314.038125 
L 325.517639 192.938125 
L 300.355238 192.938125 
z
" clip-path="url(#p15944f62dd)" style="fill: #808080; opacity: 0.3"/>
   </g>
   <g id="patch_75">
    <path d="M 325.517639 314.038125 
L 350.68004 314.038125 
L 350.68004 192.938125 
L 325.517639 192.938125 
z
" clip-path="url(#p15944f62dd)" style="fill: #808080; opacity: 0.3"/>
   </g>
   <g id="patch_76">
    <path d="M 350.68004 314.038125 
L 375.842441 314.038125 
L 375.842441 192.938125 
L 350.68004 192.938125 
z
" clip-path="url(#p15944f62dd)" style="fill: #808080; opacity: 0.3"/>
   </g>
   <g id="patch_77">
    <path d="M 375.842441 314.038125 
L 401.004841 314.038125 
L 401.004841 192.938125 
L 375.842441 192.938125 
z
" clip-path="url(#p15944f62dd)" style="fill: #808080; opacity: 0.3"/>
   </g>
   <g id="patch_78">
    <path d="M 401.004841 314.038125 
L 426.167242 314.038125 
L 426.167242 192.938125 
L 401.004841 192.938125 
z
" clip-path="url(#p15944f62dd)" style="fill: #808080; opacity: 0.3"/>
   </g>
   <g id="patch_79">
    <path d="M 426.167242 314.038125 
L 451.329643 314.038125 
L 451.329643 192.938125 
L 426.167242 192.938125 
z
" clip-path="url(#p15944f62dd)" style="fill: #808080; opacity: 0.3"/>
   </g>
   <g id="patch_80">
    <path d="M 451.329643 314.038125 
L 476.492044 314.038125 
L 476.492044 192.938125 
L 451.329643 192.938125 
z
" clip-path="url(#p15944f62dd)" style="fill: #808080; opacity: 0.3"/>
   </g>
   <g id="patch_81">
    <path d="M 476.492044 314.038125 
L 501.654445 314.038125 
L 501.654445 192.938125 
L 476.492044 192.938125 
z
" clip-path="url(#p15944f62dd)" style="fill: #808080; opacity: 0.3"/>
   </g>
   <g id="patch_82">
    <path d="M 501.654445 314.038125 
L 526.816845 314.038125 
L 526.816845 192.938125 
L 501.654445 192.938125 
z
" clip-path="url(#p15944f62dd)" style="fill: #808080; opacity: 0.3"/>
   </g>
   <g id="patch_83">
    <path d="M 526.816845 314.038125 
L 551.979246 314.038125 
L 551.979246 192.938125 
L 526.816845 192.938125 
z
" clip-path="url(#p15944f62dd)" style="fill: #808080; opacity: 0.3"/>
   </g>
   <g id="patch_84">
    <path d="M 551.979246 314.038125 
L 577.141647 314.038125 
L 577.141647 192.938125 
L 551.979246 192.938125 
z
" clip-path="url(#p15944f62dd)" style="opacity: 0.3"/>
   </g>
   <g id="patch_85">
    <path d="M 577.141647 314.038125 
L 602.304048 314.038125 
L 602.304048 192.938125 
L 577.141647 192.938125 
z
" clip-path="url(#p15944f62dd)" style="opacity: 0.3"/>
   </g>
   <g id="patch_86">
    <path d="M 602.304048 314.038125 
L 627.466448 314.038125 
L 627.466448 192.938125 
L 602.304048 192.938125 
z
" clip-path="url(#p15944f62dd)" style="opacity: 0.3"/>
   </g>
   <g id="patch_87">
    <path d="M 627.466448 314.038125 
L 652.628849 314.038125 
L 652.628849 192.938125 
L 627.466448 192.938125 
z
" clip-path="url(#p15944f62dd)" style="opacity: 0.3"/>
   </g>
   <g id="patch_88">
    <path d="M 652.628849 314.038125 
L 677.79125 314.038125 
L 677.79125 192.938125 
L 652.628849 192.938125 
z
" clip-path="url(#p15944f62dd)" style="opacity: 0.3"/>
   </g>
   <g id="matplotlib.axis_5">
    <g id="xtick_17">
     <g id="line2d_32">
      <g>
       <use xlink:href="#m5daf18e3a8" x="43.78125" y="314.038125" style="stroke: #000000; stroke-width: 0.8"/>
      </g>
     </g>
     <g id="text_33">
      <!-- 0 -->
      <g transform="translate(40.6 328.636563) scale(0.1 -0.1)">
       <use xlink:href="#DejaVuSans-30"/>
      </g>
     </g>
    </g>
    <g id="xtick_18">
     <g id="line2d_33">
      <g>
       <use xlink:href="#m5daf18e3a8" x="126.280925" y="314.038125" style="stroke: #000000; stroke-width: 0.8"/>
      </g>
     </g>
     <g id="text_34">
      <!-- 200 -->
      <g transform="translate(116.737175 328.636563) scale(0.1 -0.1)">
       <use xlink:href="#DejaVuSans-32"/>
       <use xlink:href="#DejaVuSans-30" transform="translate(63.623047 0)"/>
       <use xlink:href="#DejaVuSans-30" transform="translate(127.246094 0)"/>
      </g>
     </g>
    </g>
    <g id="xtick_19">
     <g id="line2d_34">
      <g>
       <use xlink:href="#m5daf18e3a8" x="208.780599" y="314.038125" style="stroke: #000000; stroke-width: 0.8"/>
      </g>
     </g>
     <g id="text_35">
      <!-- 400 -->
      <g transform="translate(199.236849 328.636563) scale(0.1 -0.1)">
       <use xlink:href="#DejaVuSans-34"/>
       <use xlink:href="#DejaVuSans-30" transform="translate(63.623047 0)"/>
       <use xlink:href="#DejaVuSans-30" transform="translate(127.246094 0)"/>
      </g>
     </g>
    </g>
    <g id="xtick_20">
     <g id="line2d_35">
      <g>
       <use xlink:href="#m5daf18e3a8" x="291.280274" y="314.038125" style="stroke: #000000; stroke-width: 0.8"/>
      </g>
     </g>
     <g id="text_36">
      <!-- 600 -->
      <g transform="translate(281.736524 328.636563) scale(0.1 -0.1)">
       <use xlink:href="#DejaVuSans-36"/>
       <use xlink:href="#DejaVuSans-30" transform="translate(63.623047 0)"/>
       <use xlink:href="#DejaVuSans-30" transform="translate(127.246094 0)"/>
      </g>
     </g>
    </g>
    <g id="xtick_21">
     <g id="line2d_36">
      <g>
       <use xlink:href="#m5daf18e3a8" x="373.779949" y="314.038125" style="stroke: #000000; stroke-width: 0.8"/>
      </g>
     </g>
     <g id="text_37">
      <!-- 800 -->
      <g transform="translate(364.236199 328.636563) scale(0.1 -0.1)">
       <use xlink:href="#DejaVuSans-38"/>
       <use xlink:href="#DejaVuSans-30" transform="translate(63.623047 0)"/>
       <use xlink:href="#DejaVuSans-30" transform="translate(127.246094 0)"/>
      </g>
     </g>
    </g>
    <g id="xtick_22">
     <g id="line2d_37">
      <g>
       <use xlink:href="#m5daf18e3a8" x="456.279623" y="314.038125" style="stroke: #000000; stroke-width: 0.8"/>
      </g>
     </g>
     <g id="text_38">
      <!-- 1000 -->
      <g transform="translate(443.554623 328.636563) scale(0.1 -0.1)">
       <use xlink:href="#DejaVuSans-31"/>
       <use xlink:href="#DejaVuSans-30" transform="translate(63.623047 0)"/>
       <use xlink:href="#DejaVuSans-30" transform="translate(127.246094 0)"/>
       <use xlink:href="#DejaVuSans-30" transform="translate(190.869141 0)"/>
      </g>
     </g>
    </g>
    <g id="xtick_23">
     <g id="line2d_38">
      <g>
       <use xlink:href="#m5daf18e3a8" x="538.779298" y="314.038125" style="stroke: #000000; stroke-width: 0.8"/>
      </g>
     </g>
     <g id="text_39">
      <!-- 1200 -->
      <g transform="translate(526.054298 328.636563) scale(0.1 -0.1)">
       <use xlink:href="#DejaVuSans-31"/>
       <use xlink:href="#DejaVuSans-32" transform="translate(63.623047 0)"/>
       <use xlink:href="#DejaVuSans-30" transform="translate(127.246094 0)"/>
       <use xlink:href="#DejaVuSans-30" transform="translate(190.869141 0)"/>
      </g>
     </g>
    </g>
    <g id="xtick_24">
     <g id="line2d_39">
      <g>
       <use xlink:href="#m5daf18e3a8" x="621.278973" y="314.038125" style="stroke: #000000; stroke-width: 0.8"/>
      </g>
     </g>
     <g id="text_40">
      <!-- 1400 -->
      <g transform="translate(608.553973 328.636563) scale(0.1 -0.1)">
       <use xlink:href="#DejaVuSans-31"/>
       <use xlink:href="#DejaVuSans-34" transform="translate(63.623047 0)"/>
       <use xlink:href="#DejaVuSans-30" transform="translate(127.246094 0)"/>
       <use xlink:href="#DejaVuSans-30" transform="translate(190.869141 0)"/>
      </g>
     </g>
    </g>
    <g id="text_41">
     <!-- Time [s] -->
     <g transform="translate(340.457344 342.314687) scale(0.1 -0.1)">
      <use xlink:href="#DejaVuSans-54"/>
      <use xlink:href="#DejaVuSans-69" transform="translate(57.958984 0)"/>
      <use xlink:href="#DejaVuSans-6d" transform="translate(85.742188 0)"/>
      <use xlink:href="#DejaVuSans-65" transform="translate(183.154297 0)"/>
      <use xlink:href="#DejaVuSans-20" transform="translate(244.677734 0)"/>
      <use xlink:href="#DejaVuSans-5b" transform="translate(276.464844 0)"/>
      <use xlink:href="#DejaVuSans-73" transform="translate(315.478516 0)"/>
      <use xlink:href="#DejaVuSans-5d" transform="translate(367.578125 0)"/>
     </g>
    </g>
   </g>
   <g id="matplotlib.axis_6">
    <g id="ytick_10">
     <g id="line2d_40">
      <g>
       <use xlink:href="#mc6f1567ca8" x="43.78125" y="308.53358" style="stroke: #000000; stroke-width: 0.8"/>
      </g>
     </g>
     <g id="text_42">
      <!-- 0.0 -->
      <g transform="translate(20.878125 312.332798) scale(0.1 -0.1)">
       <use xlink:href="#DejaVuSans-30"/>
       <use xlink:href="#DejaVuSans-2e" transform="translate(63.623047 0)"/>
       <use xlink:href="#DejaVuSans-30" transform="translate(95.410156 0)"/>
      </g>
     </g>
    </g>
    <g id="ytick_11">
     <g id="line2d_41">
      <g>
       <use xlink:href="#mc6f1567ca8" x="43.78125" y="281.010852" style="stroke: #000000; stroke-width: 0.8"/>
      </g>
     </g>
     <g id="text_43">
      <!-- 0.5 -->
      <g transform="translate(20.878125 284.810071) scale(0.1 -0.1)">
       <defs>
        <path id="DejaVuSans-35" d="M 691 4666 
L 3169 4666 
L 3169 4134 
L 1269 4134 
L 1269 2991 
Q 1406 3038 1543 3061 
Q 1681 3084 1819 3084 
Q 2600 3084 3056 2656 
Q 3513 2228 3513 1497 
Q 3513 744 3044 326 
Q 2575 -91 1722 -91 
Q 1428 -91 1123 -41 
Q 819 9 494 109 
L 494 744 
Q 775 591 1075 516 
Q 1375 441 1709 441 
Q 2250 441 2565 725 
Q 2881 1009 2881 1497 
Q 2881 1984 2565 2268 
Q 2250 2553 1709 2553 
Q 1456 2553 1204 2497 
Q 953 2441 691 2322 
L 691 4666 
z
" transform="scale(0.015625)"/>
       </defs>
       <use xlink:href="#DejaVuSans-30"/>
       <use xlink:href="#DejaVuSans-2e" transform="translate(63.623047 0)"/>
       <use xlink:href="#DejaVuSans-35" transform="translate(95.410156 0)"/>
      </g>
     </g>
    </g>
    <g id="ytick_12">
     <g id="line2d_42">
      <g>
       <use xlink:href="#mc6f1567ca8" x="43.78125" y="253.488125" style="stroke: #000000; stroke-width: 0.8"/>
      </g>
     </g>
     <g id="text_44">
      <!-- 1.0 -->
      <g transform="translate(20.878125 257.287344) scale(0.1 -0.1)">
       <use xlink:href="#DejaVuSans-31"/>
       <use xlink:href="#DejaVuSans-2e" transform="translate(63.623047 0)"/>
       <use xlink:href="#DejaVuSans-30" transform="translate(95.410156 0)"/>
      </g>
     </g>
    </g>
    <g id="ytick_13">
     <g id="line2d_43">
      <g>
       <use xlink:href="#mc6f1567ca8" x="43.78125" y="225.965398" style="stroke: #000000; stroke-width: 0.8"/>
      </g>
     </g>
     <g id="text_45">
      <!-- 1.5 -->
      <g transform="translate(20.878125 229.764616) scale(0.1 -0.1)">
       <use xlink:href="#DejaVuSans-31"/>
       <use xlink:href="#DejaVuSans-2e" transform="translate(63.623047 0)"/>
       <use xlink:href="#DejaVuSans-35" transform="translate(95.410156 0)"/>
      </g>
     </g>
    </g>
    <g id="ytick_14">
     <g id="line2d_44">
      <g>
       <use xlink:href="#mc6f1567ca8" x="43.78125" y="198.44267" style="stroke: #000000; stroke-width: 0.8"/>
      </g>
     </g>
     <g id="text_46">
      <!-- 2.0 -->
      <g transform="translate(20.878125 202.241889) scale(0.1 -0.1)">
       <use xlink:href="#DejaVuSans-32"/>
       <use xlink:href="#DejaVuSans-2e" transform="translate(63.623047 0)"/>
       <use xlink:href="#DejaVuSans-30" transform="translate(95.410156 0)"/>
      </g>
     </g>
    </g>
    <g id="text_47">
     <!-- Model / Measured NPQ [a.u.] -->
     <g transform="translate(14.798438 324.967812) rotate(-90) scale(0.1 -0.1)">
      <defs>
       <path id="DejaVuSans-2f" d="M 1625 4666 
L 2156 4666 
L 531 -594 
L 0 -594 
L 1625 4666 
z
" transform="scale(0.015625)"/>
      </defs>
      <use xlink:href="#DejaVuSans-4d"/>
      <use xlink:href="#DejaVuSans-6f" transform="translate(86.279297 0)"/>
      <use xlink:href="#DejaVuSans-64" transform="translate(147.460938 0)"/>
      <use xlink:href="#DejaVuSans-65" transform="translate(210.9375 0)"/>
      <use xlink:href="#DejaVuSans-6c" transform="translate(272.460938 0)"/>
      <use xlink:href="#DejaVuSans-20" transform="translate(300.244141 0)"/>
      <use xlink:href="#DejaVuSans-2f" transform="translate(332.03125 0)"/>
      <use xlink:href="#DejaVuSans-20" transform="translate(365.722656 0)"/>
      <use xlink:href="#DejaVuSans-4d" transform="translate(397.509766 0)"/>
      <use xlink:href="#DejaVuSans-65" transform="translate(483.789062 0)"/>
      <use xlink:href="#DejaVuSans-61" transform="translate(545.3125 0)"/>
      <use xlink:href="#DejaVuSans-73" transform="translate(606.591797 0)"/>
      <use xlink:href="#DejaVuSans-75" transform="translate(658.691406 0)"/>
      <use xlink:href="#DejaVuSans-72" transform="translate(722.070312 0)"/>
      <use xlink:href="#DejaVuSans-65" transform="translate(760.933594 0)"/>
      <use xlink:href="#DejaVuSans-64" transform="translate(822.457031 0)"/>
      <use xlink:href="#DejaVuSans-20" transform="translate(885.933594 0)"/>
      <use xlink:href="#DejaVuSans-4e" transform="translate(917.720703 0)"/>
      <use xlink:href="#DejaVuSans-50" transform="translate(992.525391 0)"/>
      <use xlink:href="#DejaVuSans-51" transform="translate(1052.828125 0)"/>
      <use xlink:href="#DejaVuSans-20" transform="translate(1131.539062 0)"/>
      <use xlink:href="#DejaVuSans-5b" transform="translate(1163.326172 0)"/>
      <use xlink:href="#DejaVuSans-61" transform="translate(1202.339844 0)"/>
      <use xlink:href="#DejaVuSans-2e" transform="translate(1263.619141 0)"/>
      <use xlink:href="#DejaVuSans-75" transform="translate(1295.40625 0)"/>
      <use xlink:href="#DejaVuSans-2e" transform="translate(1358.785156 0)"/>
      <use xlink:href="#DejaVuSans-5d" transform="translate(1390.572266 0)"/>
     </g>
    </g>
   </g>
   <g id="line2d_45">
    <path d="M 43.78125 253.488125 
L 73.893631 253.488125 
L 99.056032 253.488125 
L 124.218433 253.488125 
L 149.380834 253.488125 
L 174.543234 253.488125 
L 199.705635 253.488125 
L 224.868036 253.488125 
L 250.030437 253.488125 
L 275.192838 253.488125 
L 300.355238 253.488125 
L 325.517639 253.488125 
L 350.68004 253.488125 
L 375.842441 253.488125 
L 401.004841 253.488125 
L 426.167242 253.488125 
L 451.329643 253.488125 
L 476.492044 253.488125 
L 501.654445 253.488125 
L 526.816845 253.488125 
L 551.979246 253.488125 
L 577.141647 253.488125 
L 602.304048 253.488125 
L 627.466448 253.488125 
L 652.628849 253.488125 
L 677.79125 253.488125 
" clip-path="url(#p15944f62dd)" style="fill: none; stroke-dasharray: 3.7,1.6; stroke-dashoffset: 0; stroke: #84569f; stroke-opacity: 0.5"/>
   </g>
   <g id="patch_89">
    <path d="M 43.78125 314.038125 
L 43.78125 192.938125 
" style="fill: none; stroke: #000000; stroke-width: 0.8; stroke-linejoin: miter; stroke-linecap: square"/>
   </g>
   <g id="patch_90">
    <path d="M 677.79125 314.038125 
L 677.79125 192.938125 
" style="fill: none; stroke: #000000; stroke-width: 0.8; stroke-linejoin: miter; stroke-linecap: square"/>
   </g>
   <g id="patch_91">
    <path d="M 43.78125 314.038125 
L 677.79125 314.038125 
" style="fill: none; stroke: #000000; stroke-width: 0.8; stroke-linejoin: miter; stroke-linecap: square"/>
   </g>
   <g id="patch_92">
    <path d="M 43.78125 192.938125 
L 677.79125 192.938125 
" style="fill: none; stroke: #000000; stroke-width: 0.8; stroke-linejoin: miter; stroke-linecap: square"/>
   </g>
   <g id="legend_3">
    <g id="patch_93">
     <path d="M 544.370937 215.61625 
L 670.79125 215.61625 
Q 672.79125 215.61625 672.79125 213.61625 
L 672.79125 199.938125 
Q 672.79125 197.938125 670.79125 197.938125 
L 544.370937 197.938125 
Q 542.370937 197.938125 542.370937 199.938125 
L 542.370937 213.61625 
Q 542.370937 215.61625 544.370937 215.61625 
z
" style="fill: #ffffff; opacity: 0.8; stroke: #cccccc; stroke-linejoin: miter"/>
    </g>
    <g id="line2d_46">
     <path d="M 546.370937 206.036562 
L 556.370937 206.036562 
L 566.370937 206.036562 
" style="fill: none; stroke-dasharray: 3.7,1.6; stroke-dashoffset: 0; stroke: #84569f; stroke-opacity: 0.5"/>
    </g>
    <g id="text_48">
     <!-- Measured Baseline -->
     <g transform="translate(574.370937 209.536562) scale(0.1 -0.1)">
      <defs>
       <path id="DejaVuSans-42" d="M 1259 2228 
L 1259 519 
L 2272 519 
Q 2781 519 3026 730 
Q 3272 941 3272 1375 
Q 3272 1813 3026 2020 
Q 2781 2228 2272 2228 
L 1259 2228 
z
M 1259 4147 
L 1259 2741 
L 2194 2741 
Q 2656 2741 2882 2914 
Q 3109 3088 3109 3444 
Q 3109 3797 2882 3972 
Q 2656 4147 2194 4147 
L 1259 4147 
z
M 628 4666 
L 2241 4666 
Q 2963 4666 3353 4366 
Q 3744 4066 3744 3513 
Q 3744 3084 3544 2831 
Q 3344 2578 2956 2516 
Q 3422 2416 3680 2098 
Q 3938 1781 3938 1306 
Q 3938 681 3513 340 
Q 3088 0 2303 0 
L 628 0 
L 628 4666 
z
" transform="scale(0.015625)"/>
      </defs>
      <use xlink:href="#DejaVuSans-4d"/>
      <use xlink:href="#DejaVuSans-65" transform="translate(86.279297 0)"/>
      <use xlink:href="#DejaVuSans-61" transform="translate(147.802734 0)"/>
      <use xlink:href="#DejaVuSans-73" transform="translate(209.082031 0)"/>
      <use xlink:href="#DejaVuSans-75" transform="translate(261.181641 0)"/>
      <use xlink:href="#DejaVuSans-72" transform="translate(324.560547 0)"/>
      <use xlink:href="#DejaVuSans-65" transform="translate(363.423828 0)"/>
      <use xlink:href="#DejaVuSans-64" transform="translate(424.947266 0)"/>
      <use xlink:href="#DejaVuSans-20" transform="translate(488.423828 0)"/>
      <use xlink:href="#DejaVuSans-42" transform="translate(520.210938 0)"/>
      <use xlink:href="#DejaVuSans-61" transform="translate(588.814453 0)"/>
      <use xlink:href="#DejaVuSans-73" transform="translate(650.09375 0)"/>
      <use xlink:href="#DejaVuSans-65" transform="translate(702.193359 0)"/>
      <use xlink:href="#DejaVuSans-6c" transform="translate(763.716797 0)"/>
      <use xlink:href="#DejaVuSans-69" transform="translate(791.5 0)"/>
      <use xlink:href="#DejaVuSans-6e" transform="translate(819.283203 0)"/>
      <use xlink:href="#DejaVuSans-65" transform="translate(882.662109 0)"/>
     </g>
    </g>
   </g>
  </g>
 </g>
 <defs>
  <clipPath id="pe5d758b37f">
   <rect x="43.78125" y="29.878125" width="310.03" height="121.1"/>
  </clipPath>
  <clipPath id="p6c72b5344e">
   <rect x="367.76125" y="29.878125" width="310.03" height="121.1"/>
  </clipPath>
  <clipPath id="p15944f62dd">
   <rect x="43.78125" y="192.938125" width="634.01" height="121.1"/>
  </clipPath>
 </defs>
</svg>
