<?xml version="1.0" encoding="utf-8" standalone="no"?>
<!DOCTYPE svg PUBLIC "-//W3C//DTD SVG 1.1//EN"
  "http://www.w3.org/Graphics/SVG/1.1/DTD/svg11.dtd">
<svg xmlns:xlink="http://www.w3.org/1999/xlink" width="712.031875pt" height="374.95375pt" viewBox="0 0 712.031875 374.95375" xmlns="http://www.w3.org/2000/svg" version="1.1">
 <metadata>
  <rdf:RDF xmlns:dc="http://purl.org/dc/elements/1.1/" xmlns:cc="http://creativecommons.org/ns#" xmlns:rdf="http://www.w3.org/1999/02/22-rdf-syntax-ns#">
   <cc:Work>
    <dc:type rdf:resource="http://purl.org/dc/dcmitype/StillImage"/>
    <dc:date>2026-02-02T15:27:25.423069</dc:date>
    <dc:format>image/svg+xml</dc:format>
    <dc:creator>
     <cc:Agent>
      <dc:title>Matplotlib v3.10.8, https://matplotlib.org/</dc:title>
     </cc:Agent>
    </dc:creator>
   </cc:Work>
  </rdf:RDF>
 </metadata>
 <defs>
  <style type="text/css">*{stroke-linejoin: round; stroke-linecap: butt}</style>
 </defs>
 <g id="figure_1">
  <g id="patch_1">
   <path d="M 0 374.95375 
L 712.031875 374.95375 
L 712.031875 0 
L 0 0 
z
" style="fill: #ffffff"/>
  </g>
  <g id="axes_1">
   <g id="patch_2">
    <path d="M 43.78125 162.7975 
L 353.81125 162.7975 
L 353.81125 53.2375 
L 43.78125 53.2375 
z
" style="fill: #ffffff"/>
   </g>
   <g id="patch_3">
    <path d="M 43.78125 162.7975 
L 58.506162 162.7975 
L 58.506162 53.2375 
L 43.78125 53.2375 
z
" clip-path="url(#p859361cc6d)" style="fill: #d3d3d3; opacity: 0.3"/>
   </g>
   <g id="patch_4">
    <path d="M 58.506162 162.7975 
L 70.810541 162.7975 
L 70.810541 53.2375 
L 58.506162 53.2375 
z
" clip-path="url(#p859361cc6d)" style="fill: #d3d3d3; opacity: 0.3"/>
   </g>
   <g id="patch_5">
    <path d="M 70.810541 162.7975 
L 83.114919 162.7975 
L 83.114919 53.2375 
L 70.810541 53.2375 
z
" clip-path="url(#p859361cc6d)" style="fill: #d3d3d3; opacity: 0.3"/>
   </g>
   <g id="patch_6">
    <path d="M 83.114919 162.7975 
L 95.419298 162.7975 
L 95.419298 53.2375 
L 83.114919 53.2375 
z
" clip-path="url(#p859361cc6d)" style="fill: #d3d3d3; opacity: 0.3"/>
   </g>
   <g id="patch_7">
    <path d="M 95.419298 162.7975 
L 107.723677 162.7975 
L 107.723677 53.2375 
L 95.419298 53.2375 
z
" clip-path="url(#p859361cc6d)" style="fill: #d3d3d3; opacity: 0.3"/>
   </g>
   <g id="patch_8">
    <path d="M 107.723677 162.7975 
L 120.028055 162.7975 
L 120.028055 53.2375 
L 107.723677 53.2375 
z
" clip-path="url(#p859361cc6d)" style="fill: #d3d3d3; opacity: 0.3"/>
   </g>
   <g id="patch_9">
    <path d="M 120.028055 162.7975 
L 132.332434 162.7975 
L 132.332434 53.2375 
L 120.028055 53.2375 
z
" clip-path="url(#p859361cc6d)" style="fill: #d3d3d3; opacity: 0.3"/>
   </g>
   <g id="patch_10">
    <path d="M 132.332434 162.7975 
L 144.636813 162.7975 
L 144.636813 53.2375 
L 132.332434 53.2375 
z
" clip-path="url(#p859361cc6d)" style="fill: #d3d3d3; opacity: 0.3"/>
   </g>
   <g id="patch_11">
    <path d="M 144.636813 162.7975 
L 156.941191 162.7975 
L 156.941191 53.2375 
L 144.636813 53.2375 
z
" clip-path="url(#p859361cc6d)" style="fill: #d3d3d3; opacity: 0.3"/>
   </g>
   <g id="patch_12">
    <path d="M 156.941191 162.7975 
L 169.24557 162.7975 
L 169.24557 53.2375 
L 156.941191 53.2375 
z
" clip-path="url(#p859361cc6d)" style="fill: #d3d3d3; opacity: 0.3"/>
   </g>
   <g id="patch_13">
    <path d="M 169.24557 162.7975 
L 181.549949 162.7975 
L 181.549949 53.2375 
L 169.24557 53.2375 
z
" clip-path="url(#p859361cc6d)" style="fill: #808080; opacity: 0.3"/>
   </g>
   <g id="patch_14">
    <path d="M 181.549949 162.7975 
L 193.854327 162.7975 
L 193.854327 53.2375 
L 181.549949 53.2375 
z
" clip-path="url(#p859361cc6d)" style="fill: #808080; opacity: 0.3"/>
   </g>
   <g id="patch_15">
    <path d="M 193.854327 162.7975 
L 206.158706 162.7975 
L 206.158706 53.2375 
L 193.854327 53.2375 
z
" clip-path="url(#p859361cc6d)" style="fill: #808080; opacity: 0.3"/>
   </g>
   <g id="patch_16">
    <path d="M 206.158706 162.7975 
L 218.463085 162.7975 
L 218.463085 53.2375 
L 206.158706 53.2375 
z
" clip-path="url(#p859361cc6d)" style="fill: #808080; opacity: 0.3"/>
   </g>
   <g id="patch_17">
    <path d="M 218.463085 162.7975 
L 230.767463 162.7975 
L 230.767463 53.2375 
L 218.463085 53.2375 
z
" clip-path="url(#p859361cc6d)" style="fill: #808080; opacity: 0.3"/>
   </g>
   <g id="patch_18">
    <path d="M 230.767463 162.7975 
L 243.071842 162.7975 
L 243.071842 53.2375 
L 230.767463 53.2375 
z
" clip-path="url(#p859361cc6d)" style="fill: #808080; opacity: 0.3"/>
   </g>
   <g id="patch_19">
    <path d="M 243.071842 162.7975 
L 255.376221 162.7975 
L 255.376221 53.2375 
L 243.071842 53.2375 
z
" clip-path="url(#p859361cc6d)" style="fill: #808080; opacity: 0.3"/>
   </g>
   <g id="patch_20">
    <path d="M 255.376221 162.7975 
L 267.680599 162.7975 
L 267.680599 53.2375 
L 255.376221 53.2375 
z
" clip-path="url(#p859361cc6d)" style="fill: #808080; opacity: 0.3"/>
   </g>
   <g id="patch_21">
    <path d="M 267.680599 162.7975 
L 279.984978 162.7975 
L 279.984978 53.2375 
L 267.680599 53.2375 
z
" clip-path="url(#p859361cc6d)" style="fill: #808080; opacity: 0.3"/>
   </g>
   <g id="patch_22">
    <path d="M 279.984978 162.7975 
L 292.289357 162.7975 
L 292.289357 53.2375 
L 279.984978 53.2375 
z
" clip-path="url(#p859361cc6d)" style="fill: #808080; opacity: 0.3"/>
   </g>
   <g id="patch_23">
    <path d="M 292.289357 162.7975 
L 304.593735 162.7975 
L 304.593735 53.2375 
L 292.289357 53.2375 
z
" clip-path="url(#p859361cc6d)" style="opacity: 0.3"/>
   </g>
   <g id="patch_24">
    <path d="M 304.593735 162.7975 
L 316.898114 162.7975 
L 316.898114 53.2375 
L 304.593735 53.2375 
z
" clip-path="url(#p859361cc6d)" style="opacity: 0.3"/>
   </g>
   <g id="patch_25">
    <path d="M 316.898114 162.7975 
L 329.202493 162.7975 
L 329.202493 53.2375 
L 316.898114 53.2375 
z
" clip-path="url(#p859361cc6d)" style="opacity: 0.3"/>
   </g>
   <g id="patch_26">
    <path d="M 329.202493 162.7975 
L 341.506871 162.7975 
L 341.506871 53.2375 
L 329.202493 53.2375 
z
" clip-path="url(#p859361cc6d)" style="opacity: 0.3"/>
   </g>
   <g id="patch_27">
    <path d="M 341.506871 162.7975 
L 353.81125 162.7975 
L 353.81125 53.2375 
L 341.506871 53.2375 
z
" clip-path="url(#p859361cc6d)" style="opacity: 0.3"/>
   </g>
   <g id="matplotlib.axis_1">
    <g id="xtick_1">
     <g id="line2d_1">
      <defs>
       <path id="m331b7a13a7" d="M 0 0 
L 0 3.5 
" style="stroke: #000000; stroke-width: 0.8"/>
      </defs>
      <g>
       <use xlink:href="#m331b7a13a7" x="43.78125" y="162.7975" style="stroke: #000000; stroke-width: 0.8"/>
      </g>
     </g>
     <g id="text_1">
      <!-- 0 -->
      <g transform="translate(40.6 177.395938) scale(0.1 -0.1)">
       <defs>
        <path id="DejaVuSans-30" d="M 2034 4250 
Q 1547 4250 1301 3770 
Q 1056 3291 1056 2328 
Q 1056 1369 1301 889 
Q 1547 409 2034 409 
Q 2525 409 2770 889 
Q 3016 1369 3016 2328 
Q 3016 3291 2770 3770 
Q 2525 4250 2034 4250 
z
M 2034 4750 
Q 2819 4750 3233 4129 
Q 3647 3509 3647 2328 
Q 3647 1150 3233 529 
Q 2819 -91 2034 -91 
Q 1250 -91 836 529 
Q 422 1150 422 2328 
Q 422 3509 836 4129 
Q 1250 4750 2034 4750 
z
" transform="scale(0.015625)"/>
       </defs>
       <use xlink:href="#DejaVuSans-30"/>
      </g>
     </g>
    </g>
    <g id="xtick_2">
     <g id="line2d_2">
      <g>
       <use xlink:href="#m331b7a13a7" x="84.123475" y="162.7975" style="stroke: #000000; stroke-width: 0.8"/>
      </g>
     </g>
     <g id="text_2">
      <!-- 200 -->
      <g transform="translate(74.579725 177.395938) scale(0.1 -0.1)">
       <defs>
        <path id="DejaVuSans-32" d="M 1228 531 
L 3431 531 
L 3431 0 
L 469 0 
L 469 531 
Q 828 903 1448 1529 
Q 2069 2156 2228 2338 
Q 2531 2678 2651 2914 
Q 2772 3150 2772 3378 
Q 2772 3750 2511 3984 
Q 2250 4219 1831 4219 
Q 1534 4219 1204 4116 
Q 875 4013 500 3803 
L 500 4441 
Q 881 4594 1212 4672 
Q 1544 4750 1819 4750 
Q 2544 4750 2975 4387 
Q 3406 4025 3406 3419 
Q 3406 3131 3298 2873 
Q 3191 2616 2906 2266 
Q 2828 2175 2409 1742 
Q 1991 1309 1228 531 
z
" transform="scale(0.015625)"/>
       </defs>
       <use xlink:href="#DejaVuSans-32"/>
       <use xlink:href="#DejaVuSans-30" transform="translate(63.623047 0)"/>
       <use xlink:href="#DejaVuSans-30" transform="translate(127.246094 0)"/>
      </g>
     </g>
    </g>
    <g id="xtick_3">
     <g id="line2d_3">
      <g>
       <use xlink:href="#m331b7a13a7" x="124.4657" y="162.7975" style="stroke: #000000; stroke-width: 0.8"/>
      </g>
     </g>
     <g id="text_3">
      <!-- 400 -->
      <g transform="translate(114.92195 177.395938) scale(0.1 -0.1)">
       <defs>
        <path id="DejaVuSans-34" d="M 2419 4116 
L 825 1625 
L 2419 1625 
L 2419 4116 
z
M 2253 4666 
L 3047 4666 
L 3047 1625 
L 3713 1625 
L 3713 1100 
L 3047 1100 
L 3047 0 
L 2419 0 
L 2419 1100 
L 313 1100 
L 313 1709 
L 2253 4666 
z
" transform="scale(0.015625)"/>
       </defs>
       <use xlink:href="#DejaVuSans-34"/>
       <use xlink:href="#DejaVuSans-30" transform="translate(63.623047 0)"/>
       <use xlink:href="#DejaVuSans-30" transform="translate(127.246094 0)"/>
      </g>
     </g>
    </g>
    <g id="xtick_4">
     <g id="line2d_4">
      <g>
       <use xlink:href="#m331b7a13a7" x="164.807925" y="162.7975" style="stroke: #000000; stroke-width: 0.8"/>
      </g>
     </g>
     <g id="text_4">
      <!-- 600 -->
      <g transform="translate(155.264175 177.395938) scale(0.1 -0.1)">
       <defs>
        <path id="DejaVuSans-36" d="M 2113 2584 
Q 1688 2584 1439 2293 
Q 1191 2003 1191 1497 
Q 1191 994 1439 701 
Q 1688 409 2113 409 
Q 2538 409 2786 701 
Q 3034 994 3034 1497 
Q 3034 2003 2786 2293 
Q 2538 2584 2113 2584 
z
M 3366 4563 
L 3366 3988 
Q 3128 4100 2886 4159 
Q 2644 4219 2406 4219 
Q 1781 4219 1451 3797 
Q 1122 3375 1075 2522 
Q 1259 2794 1537 2939 
Q 1816 3084 2150 3084 
Q 2853 3084 3261 2657 
Q 3669 2231 3669 1497 
Q 3669 778 3244 343 
Q 2819 -91 2113 -91 
Q 1303 -91 875 529 
Q 447 1150 447 2328 
Q 447 3434 972 4092 
Q 1497 4750 2381 4750 
Q 2619 4750 2861 4703 
Q 3103 4656 3366 4563 
z
" transform="scale(0.015625)"/>
       </defs>
       <use xlink:href="#DejaVuSans-36"/>
       <use xlink:href="#DejaVuSans-30" transform="translate(63.623047 0)"/>
       <use xlink:href="#DejaVuSans-30" transform="translate(127.246094 0)"/>
      </g>
     </g>
    </g>
    <g id="xtick_5">
     <g id="line2d_5">
      <g>
       <use xlink:href="#m331b7a13a7" x="205.15015" y="162.7975" style="stroke: #000000; stroke-width: 0.8"/>
      </g>
     </g>
     <g id="text_5">
      <!-- 800 -->
      <g transform="translate(195.6064 177.395938) scale(0.1 -0.1)">
       <defs>
        <path id="DejaVuSans-38" d="M 2034 2216 
Q 1584 2216 1326 1975 
Q 1069 1734 1069 1313 
Q 1069 891 1326 650 
Q 1584 409 2034 409 
Q 2484 409 2743 651 
Q 3003 894 3003 1313 
Q 3003 1734 2745 1975 
Q 2488 2216 2034 2216 
z
M 1403 2484 
Q 997 2584 770 2862 
Q 544 3141 544 3541 
Q 544 4100 942 4425 
Q 1341 4750 2034 4750 
Q 2731 4750 3128 4425 
Q 3525 4100 3525 3541 
Q 3525 3141 3298 2862 
Q 3072 2584 2669 2484 
Q 3125 2378 3379 2068 
Q 3634 1759 3634 1313 
Q 3634 634 3220 271 
Q 2806 -91 2034 -91 
Q 1263 -91 848 271 
Q 434 634 434 1313 
Q 434 1759 690 2068 
Q 947 2378 1403 2484 
z
M 1172 3481 
Q 1172 3119 1398 2916 
Q 1625 2713 2034 2713 
Q 2441 2713 2670 2916 
Q 2900 3119 2900 3481 
Q 2900 3844 2670 4047 
Q 2441 4250 2034 4250 
Q 1625 4250 1398 4047 
Q 1172 3844 1172 3481 
z
" transform="scale(0.015625)"/>
       </defs>
       <use xlink:href="#DejaVuSans-38"/>
       <use xlink:href="#DejaVuSans-30" transform="translate(63.623047 0)"/>
       <use xlink:href="#DejaVuSans-30" transform="translate(127.246094 0)"/>
      </g>
     </g>
    </g>
    <g id="xtick_6">
     <g id="line2d_6">
      <g>
       <use xlink:href="#m331b7a13a7" x="245.492376" y="162.7975" style="stroke: #000000; stroke-width: 0.8"/>
      </g>
     </g>
     <g id="text_6">
      <!-- 1000 -->
      <g transform="translate(232.767376 177.395938) scale(0.1 -0.1)">
       <defs>
        <path id="DejaVuSans-31" d="M 794 531 
L 1825 531 
L 1825 4091 
L 703 3866 
L 703 4441 
L 1819 4666 
L 2450 4666 
L 2450 531 
L 3481 531 
L 3481 0 
L 794 0 
L 794 531 
z
" transform="scale(0.015625)"/>
       </defs>
       <use xlink:href="#DejaVuSans-31"/>
       <use xlink:href="#DejaVuSans-30" transform="translate(63.623047 0)"/>
       <use xlink:href="#DejaVuSans-30" transform="translate(127.246094 0)"/>
       <use xlink:href="#DejaVuSans-30" transform="translate(190.869141 0)"/>
      </g>
     </g>
    </g>
    <g id="xtick_7">
     <g id="line2d_7">
      <g>
       <use xlink:href="#m331b7a13a7" x="285.834601" y="162.7975" style="stroke: #000000; stroke-width: 0.8"/>
      </g>
     </g>
     <g id="text_7">
      <!-- 1200 -->
      <g transform="translate(273.109601 177.395938) scale(0.1 -0.1)">
       <use xlink:href="#DejaVuSans-31"/>
       <use xlink:href="#DejaVuSans-32" transform="translate(63.623047 0)"/>
       <use xlink:href="#DejaVuSans-30" transform="translate(127.246094 0)"/>
       <use xlink:href="#DejaVuSans-30" transform="translate(190.869141 0)"/>
      </g>
     </g>
    </g>
    <g id="xtick_8">
     <g id="line2d_8">
      <g>
       <use xlink:href="#m331b7a13a7" x="326.176826" y="162.7975" style="stroke: #000000; stroke-width: 0.8"/>
      </g>
     </g>
     <g id="text_8">
      <!-- 1400 -->
      <g transform="translate(313.451826 177.395938) scale(0.1 -0.1)">
       <use xlink:href="#DejaVuSans-31"/>
       <use xlink:href="#DejaVuSans-34" transform="translate(63.623047 0)"/>
       <use xlink:href="#DejaVuSans-30" transform="translate(127.246094 0)"/>
       <use xlink:href="#DejaVuSans-30" transform="translate(190.869141 0)"/>
      </g>
     </g>
    </g>
    <g id="text_9">
     <!-- Time [s] -->
     <g transform="translate(178.467344 191.074062) scale(0.1 -0.1)">
      <defs>
       <path id="DejaVuSans-54" d="M -19 4666 
L 3928 4666 
L 3928 4134 
L 2272 4134 
L 2272 0 
L 1638 0 
L 1638 4134 
L -19 4134 
L -19 4666 
z
" transform="scale(0.015625)"/>
       <path id="DejaVuSans-69" d="M 603 3500 
L 1178 3500 
L 1178 0 
L 603 0 
L 603 3500 
z
M 603 4863 
L 1178 4863 
L 1178 4134 
L 603 4134 
L 603 4863 
z
" transform="scale(0.015625)"/>
       <path id="DejaVuSans-6d" d="M 3328 2828 
Q 3544 3216 3844 3400 
Q 4144 3584 4550 3584 
Q 5097 3584 5394 3201 
Q 5691 2819 5691 2113 
L 5691 0 
L 5113 0 
L 5113 2094 
Q 5113 2597 4934 2840 
Q 4756 3084 4391 3084 
Q 3944 3084 3684 2787 
Q 3425 2491 3425 1978 
L 3425 0 
L 2847 0 
L 2847 2094 
Q 2847 2600 2669 2842 
Q 2491 3084 2119 3084 
Q 1678 3084 1418 2786 
Q 1159 2488 1159 1978 
L 1159 0 
L 581 0 
L 581 3500 
L 1159 3500 
L 1159 2956 
Q 1356 3278 1631 3431 
Q 1906 3584 2284 3584 
Q 2666 3584 2933 3390 
Q 3200 3197 3328 2828 
z
" transform="scale(0.015625)"/>
       <path id="DejaVuSans-65" d="M 3597 1894 
L 3597 1613 
L 953 1613 
Q 991 1019 1311 708 
Q 1631 397 2203 397 
Q 2534 397 2845 478 
Q 3156 559 3463 722 
L 3463 178 
Q 3153 47 2828 -22 
Q 2503 -91 2169 -91 
Q 1331 -91 842 396 
Q 353 884 353 1716 
Q 353 2575 817 3079 
Q 1281 3584 2069 3584 
Q 2775 3584 3186 3129 
Q 3597 2675 3597 1894 
z
M 3022 2063 
Q 3016 2534 2758 2815 
Q 2500 3097 2075 3097 
Q 1594 3097 1305 2825 
Q 1016 2553 972 2059 
L 3022 2063 
z
" transform="scale(0.015625)"/>
       <path id="DejaVuSans-20" transform="scale(0.015625)"/>
       <path id="DejaVuSans-5b" d="M 550 4863 
L 1875 4863 
L 1875 4416 
L 1125 4416 
L 1125 -397 
L 1875 -397 
L 1875 -844 
L 550 -844 
L 550 4863 
z
" transform="scale(0.015625)"/>
       <path id="DejaVuSans-73" d="M 2834 3397 
L 2834 2853 
Q 2591 2978 2328 3040 
Q 2066 3103 1784 3103 
Q 1356 3103 1142 2972 
Q 928 2841 928 2578 
Q 928 2378 1081 2264 
Q 1234 2150 1697 2047 
L 1894 2003 
Q 2506 1872 2764 1633 
Q 3022 1394 3022 966 
Q 3022 478 2636 193 
Q 2250 -91 1575 -91 
Q 1294 -91 989 -36 
Q 684 19 347 128 
L 347 722 
Q 666 556 975 473 
Q 1284 391 1588 391 
Q 1994 391 2212 530 
Q 2431 669 2431 922 
Q 2431 1156 2273 1281 
Q 2116 1406 1581 1522 
L 1381 1569 
Q 847 1681 609 1914 
Q 372 2147 372 2553 
Q 372 3047 722 3315 
Q 1072 3584 1716 3584 
Q 2034 3584 2315 3537 
Q 2597 3491 2834 3397 
z
" transform="scale(0.015625)"/>
       <path id="DejaVuSans-5d" d="M 1947 4863 
L 1947 -844 
L 622 -844 
L 622 -397 
L 1369 -397 
L 1369 4416 
L 622 4416 
L 622 4863 
L 1947 4863 
z
" transform="scale(0.015625)"/>
      </defs>
      <use xlink:href="#DejaVuSans-54"/>
      <use xlink:href="#DejaVuSans-69" transform="translate(57.958984 0)"/>
      <use xlink:href="#DejaVuSans-6d" transform="translate(85.742188 0)"/>
      <use xlink:href="#DejaVuSans-65" transform="translate(183.154297 0)"/>
      <use xlink:href="#DejaVuSans-20" transform="translate(244.677734 0)"/>
      <use xlink:href="#DejaVuSans-5b" transform="translate(276.464844 0)"/>
      <use xlink:href="#DejaVuSans-73" transform="translate(315.478516 0)"/>
      <use xlink:href="#DejaVuSans-5d" transform="translate(367.578125 0)"/>
     </g>
    </g>
   </g>
   <g id="matplotlib.axis_2">
    <g id="ytick_1">
     <g id="line2d_9">
      <defs>
       <path id="m3c60a8f78a" d="M 0 0 
L -3.5 0 
" style="stroke: #000000; stroke-width: 0.8"/>
      </defs>
      <g>
       <use xlink:href="#m3c60a8f78a" x="43.78125" y="156.339264" style="stroke: #000000; stroke-width: 0.8"/>
      </g>
     </g>
     <g id="text_10">
      <!-- 0.2 -->
      <g transform="translate(20.878125 160.138483) scale(0.1 -0.1)">
       <defs>
        <path id="DejaVuSans-2e" d="M 684 794 
L 1344 794 
L 1344 0 
L 684 0 
L 684 794 
z
" transform="scale(0.015625)"/>
       </defs>
       <use xlink:href="#DejaVuSans-30"/>
       <use xlink:href="#DejaVuSans-2e" transform="translate(63.623047 0)"/>
       <use xlink:href="#DejaVuSans-32" transform="translate(95.410156 0)"/>
      </g>
     </g>
    </g>
    <g id="ytick_2">
     <g id="line2d_10">
      <g>
       <use xlink:href="#m3c60a8f78a" x="43.78125" y="131.808823" style="stroke: #000000; stroke-width: 0.8"/>
      </g>
     </g>
     <g id="text_11">
      <!-- 0.4 -->
      <g transform="translate(20.878125 135.608042) scale(0.1 -0.1)">
       <use xlink:href="#DejaVuSans-30"/>
       <use xlink:href="#DejaVuSans-2e" transform="translate(63.623047 0)"/>
       <use xlink:href="#DejaVuSans-34" transform="translate(95.410156 0)"/>
      </g>
     </g>
    </g>
    <g id="ytick_3">
     <g id="line2d_11">
      <g>
       <use xlink:href="#m3c60a8f78a" x="43.78125" y="107.278382" style="stroke: #000000; stroke-width: 0.8"/>
      </g>
     </g>
     <g id="text_12">
      <!-- 0.6 -->
      <g transform="translate(20.878125 111.077601) scale(0.1 -0.1)">
       <use xlink:href="#DejaVuSans-30"/>
       <use xlink:href="#DejaVuSans-2e" transform="translate(63.623047 0)"/>
       <use xlink:href="#DejaVuSans-36" transform="translate(95.410156 0)"/>
      </g>
     </g>
    </g>
    <g id="ytick_4">
     <g id="line2d_12">
      <g>
       <use xlink:href="#m3c60a8f78a" x="43.78125" y="82.747941" style="stroke: #000000; stroke-width: 0.8"/>
      </g>
     </g>
     <g id="text_13">
      <!-- 0.8 -->
      <g transform="translate(20.878125 86.54716) scale(0.1 -0.1)">
       <use xlink:href="#DejaVuSans-30"/>
       <use xlink:href="#DejaVuSans-2e" transform="translate(63.623047 0)"/>
       <use xlink:href="#DejaVuSans-38" transform="translate(95.410156 0)"/>
      </g>
     </g>
    </g>
    <g id="ytick_5">
     <g id="line2d_13">
      <g>
       <use xlink:href="#m3c60a8f78a" x="43.78125" y="58.2175" style="stroke: #000000; stroke-width: 0.8"/>
      </g>
     </g>
     <g id="text_14">
      <!-- 1.0 -->
      <g transform="translate(20.878125 62.016719) scale(0.1 -0.1)">
       <use xlink:href="#DejaVuSans-31"/>
       <use xlink:href="#DejaVuSans-2e" transform="translate(63.623047 0)"/>
       <use xlink:href="#DejaVuSans-30" transform="translate(95.410156 0)"/>
      </g>
     </g>
    </g>
    <g id="text_15">
     <!-- Fluorescence [a.u.] -->
     <g transform="translate(14.798438 155.856563) rotate(-90) scale(0.1 -0.1)">
      <defs>
       <path id="DejaVuSans-46" d="M 628 4666 
L 3309 4666 
L 3309 4134 
L 1259 4134 
L 1259 2759 
L 3109 2759 
L 3109 2228 
L 1259 2228 
L 1259 0 
L 628 0 
L 628 4666 
z
" transform="scale(0.015625)"/>
       <path id="DejaVuSans-6c" d="M 603 4863 
L 1178 4863 
L 1178 0 
L 603 0 
L 603 4863 
z
" transform="scale(0.015625)"/>
       <path id="DejaVuSans-75" d="M 544 1381 
L 544 3500 
L 1119 3500 
L 1119 1403 
Q 1119 906 1312 657 
Q 1506 409 1894 409 
Q 2359 409 2629 706 
Q 2900 1003 2900 1516 
L 2900 3500 
L 3475 3500 
L 3475 0 
L 2900 0 
L 2900 538 
Q 2691 219 2414 64 
Q 2138 -91 1772 -91 
Q 1169 -91 856 284 
Q 544 659 544 1381 
z
M 1991 3584 
L 1991 3584 
z
" transform="scale(0.015625)"/>
       <path id="DejaVuSans-6f" d="M 1959 3097 
Q 1497 3097 1228 2736 
Q 959 2375 959 1747 
Q 959 1119 1226 758 
Q 1494 397 1959 397 
Q 2419 397 2687 759 
Q 2956 1122 2956 1747 
Q 2956 2369 2687 2733 
Q 2419 3097 1959 3097 
z
M 1959 3584 
Q 2709 3584 3137 3096 
Q 3566 2609 3566 1747 
Q 3566 888 3137 398 
Q 2709 -91 1959 -91 
Q 1206 -91 779 398 
Q 353 888 353 1747 
Q 353 2609 779 3096 
Q 1206 3584 1959 3584 
z
" transform="scale(0.015625)"/>
       <path id="DejaVuSans-72" d="M 2631 2963 
Q 2534 3019 2420 3045 
Q 2306 3072 2169 3072 
Q 1681 3072 1420 2755 
Q 1159 2438 1159 1844 
L 1159 0 
L 581 0 
L 581 3500 
L 1159 3500 
L 1159 2956 
Q 1341 3275 1631 3429 
Q 1922 3584 2338 3584 
Q 2397 3584 2469 3576 
Q 2541 3569 2628 3553 
L 2631 2963 
z
" transform="scale(0.015625)"/>
       <path id="DejaVuSans-63" d="M 3122 3366 
L 3122 2828 
Q 2878 2963 2633 3030 
Q 2388 3097 2138 3097 
Q 1578 3097 1268 2742 
Q 959 2388 959 1747 
Q 959 1106 1268 751 
Q 1578 397 2138 397 
Q 2388 397 2633 464 
Q 2878 531 3122 666 
L 3122 134 
Q 2881 22 2623 -34 
Q 2366 -91 2075 -91 
Q 1284 -91 818 406 
Q 353 903 353 1747 
Q 353 2603 823 3093 
Q 1294 3584 2113 3584 
Q 2378 3584 2631 3529 
Q 2884 3475 3122 3366 
z
" transform="scale(0.015625)"/>
       <path id="DejaVuSans-6e" d="M 3513 2113 
L 3513 0 
L 2938 0 
L 2938 2094 
Q 2938 2591 2744 2837 
Q 2550 3084 2163 3084 
Q 1697 3084 1428 2787 
Q 1159 2491 1159 1978 
L 1159 0 
L 581 0 
L 581 3500 
L 1159 3500 
L 1159 2956 
Q 1366 3272 1645 3428 
Q 1925 3584 2291 3584 
Q 2894 3584 3203 3211 
Q 3513 2838 3513 2113 
z
" transform="scale(0.015625)"/>
       <path id="DejaVuSans-61" d="M 2194 1759 
Q 1497 1759 1228 1600 
Q 959 1441 959 1056 
Q 959 750 1161 570 
Q 1363 391 1709 391 
Q 2188 391 2477 730 
Q 2766 1069 2766 1631 
L 2766 1759 
L 2194 1759 
z
M 3341 1997 
L 3341 0 
L 2766 0 
L 2766 531 
Q 2569 213 2275 61 
Q 1981 -91 1556 -91 
Q 1019 -91 701 211 
Q 384 513 384 1019 
Q 384 1609 779 1909 
Q 1175 2209 1959 2209 
L 2766 2209 
L 2766 2266 
Q 2766 2663 2505 2880 
Q 2244 3097 1772 3097 
Q 1472 3097 1187 3025 
Q 903 2953 641 2809 
L 641 3341 
Q 956 3463 1253 3523 
Q 1550 3584 1831 3584 
Q 2591 3584 2966 3190 
Q 3341 2797 3341 1997 
z
" transform="scale(0.015625)"/>
      </defs>
      <use xlink:href="#DejaVuSans-46"/>
      <use xlink:href="#DejaVuSans-6c" transform="translate(57.519531 0)"/>
      <use xlink:href="#DejaVuSans-75" transform="translate(85.302734 0)"/>
      <use xlink:href="#DejaVuSans-6f" transform="translate(148.681641 0)"/>
      <use xlink:href="#DejaVuSans-72" transform="translate(209.863281 0)"/>
      <use xlink:href="#DejaVuSans-65" transform="translate(248.726562 0)"/>
      <use xlink:href="#DejaVuSans-73" transform="translate(310.25 0)"/>
      <use xlink:href="#DejaVuSans-63" transform="translate(362.349609 0)"/>
      <use xlink:href="#DejaVuSans-65" transform="translate(417.330078 0)"/>
      <use xlink:href="#DejaVuSans-6e" transform="translate(478.853516 0)"/>
      <use xlink:href="#DejaVuSans-63" transform="translate(542.232422 0)"/>
      <use xlink:href="#DejaVuSans-65" transform="translate(597.212891 0)"/>
      <use xlink:href="#DejaVuSans-20" transform="translate(658.736328 0)"/>
      <use xlink:href="#DejaVuSans-5b" transform="translate(690.523438 0)"/>
      <use xlink:href="#DejaVuSans-61" transform="translate(729.537109 0)"/>
      <use xlink:href="#DejaVuSans-2e" transform="translate(790.816406 0)"/>
      <use xlink:href="#DejaVuSans-75" transform="translate(822.603516 0)"/>
      <use xlink:href="#DejaVuSans-2e" transform="translate(885.982422 0)"/>
      <use xlink:href="#DejaVuSans-5d" transform="translate(917.769531 0)"/>
     </g>
    </g>
   </g>
   <g id="line2d_14">
    <path d="M 43.78125 156.31859 
L 58.506162 143.603696 
L 70.810541 150.994874 
L 83.114919 153.527516 
L 95.419298 154.251127 
L 107.723677 155.284859 
L 120.028055 157.8175 
L 132.332434 155.026426 
L 144.636813 154.767993 
L 156.941191 154.251127 
L 169.24557 153.992695 
L 181.549949 151.460053 
L 193.854327 151.976919 
L 206.158706 152.493784 
L 218.463085 153.01065 
L 230.767463 153.01065 
L 243.071842 153.269083 
L 255.376221 153.734262 
L 267.680599 153.992695 
L 279.984978 154.251127 
L 292.289357 154.50956 
L 304.593735 157.300634 
L 316.898114 157.559067 
L 329.202493 157.559067 
L 341.506871 157.559067 
L 353.81125 157.559067 
" clip-path="url(#p859361cc6d)" style="fill: none"/>
    <defs>
     <path id="m6b7660efc2" d="M 0 3 
C 0.795609 3 1.55874 2.683901 2.12132 2.12132 
C 2.683901 1.55874 3 0.795609 3 0 
C 3 -0.795609 2.683901 -1.55874 2.12132 -2.12132 
C 1.55874 -2.683901 0.795609 -3 0 -3 
C -0.795609 -3 -1.55874 -2.683901 -2.12132 -2.12132 
C -2.683901 -1.55874 -3 -0.795609 -3 0 
C -3 0.795609 -2.683901 1.55874 -2.12132 2.12132 
C -1.55874 2.683901 -0.795609 3 0 3 
z
" style="stroke: #84569f"/>
    </defs>
    <g clip-path="url(#p859361cc6d)">
     <use xlink:href="#m6b7660efc2" x="43.78125" y="156.31859" style="fill: #84569f; stroke: #84569f"/>
     <use xlink:href="#m6b7660efc2" x="58.506162" y="143.603696" style="fill: #84569f; stroke: #84569f"/>
     <use xlink:href="#m6b7660efc2" x="70.810541" y="150.994874" style="fill: #84569f; stroke: #84569f"/>
     <use xlink:href="#m6b7660efc2" x="83.114919" y="153.527516" style="fill: #84569f; stroke: #84569f"/>
     <use xlink:href="#m6b7660efc2" x="95.419298" y="154.251127" style="fill: #84569f; stroke: #84569f"/>
     <use xlink:href="#m6b7660efc2" x="107.723677" y="155.284859" style="fill: #84569f; stroke: #84569f"/>
     <use xlink:href="#m6b7660efc2" x="120.028055" y="157.8175" style="fill: #84569f; stroke: #84569f"/>
     <use xlink:href="#m6b7660efc2" x="132.332434" y="155.026426" style="fill: #84569f; stroke: #84569f"/>
     <use xlink:href="#m6b7660efc2" x="144.636813" y="154.767993" style="fill: #84569f; stroke: #84569f"/>
     <use xlink:href="#m6b7660efc2" x="156.941191" y="154.251127" style="fill: #84569f; stroke: #84569f"/>
     <use xlink:href="#m6b7660efc2" x="169.24557" y="153.992695" style="fill: #84569f; stroke: #84569f"/>
     <use xlink:href="#m6b7660efc2" x="181.549949" y="151.460053" style="fill: #84569f; stroke: #84569f"/>
     <use xlink:href="#m6b7660efc2" x="193.854327" y="151.976919" style="fill: #84569f; stroke: #84569f"/>
     <use xlink:href="#m6b7660efc2" x="206.158706" y="152.493784" style="fill: #84569f; stroke: #84569f"/>
     <use xlink:href="#m6b7660efc2" x="218.463085" y="153.01065" style="fill: #84569f; stroke: #84569f"/>
     <use xlink:href="#m6b7660efc2" x="230.767463" y="153.01065" style="fill: #84569f; stroke: #84569f"/>
     <use xlink:href="#m6b7660efc2" x="243.071842" y="153.269083" style="fill: #84569f; stroke: #84569f"/>
     <use xlink:href="#m6b7660efc2" x="255.376221" y="153.734262" style="fill: #84569f; stroke: #84569f"/>
     <use xlink:href="#m6b7660efc2" x="267.680599" y="153.992695" style="fill: #84569f; stroke: #84569f"/>
     <use xlink:href="#m6b7660efc2" x="279.984978" y="154.251127" style="fill: #84569f; stroke: #84569f"/>
     <use xlink:href="#m6b7660efc2" x="292.289357" y="154.50956" style="fill: #84569f; stroke: #84569f"/>
     <use xlink:href="#m6b7660efc2" x="304.593735" y="157.300634" style="fill: #84569f; stroke: #84569f"/>
     <use xlink:href="#m6b7660efc2" x="316.898114" y="157.559067" style="fill: #84569f; stroke: #84569f"/>
     <use xlink:href="#m6b7660efc2" x="329.202493" y="157.559067" style="fill: #84569f; stroke: #84569f"/>
     <use xlink:href="#m6b7660efc2" x="341.506871" y="157.559067" style="fill: #84569f; stroke: #84569f"/>
     <use xlink:href="#m6b7660efc2" x="353.81125" y="157.559067" style="fill: #84569f; stroke: #84569f"/>
    </g>
   </g>
   <g id="line2d_15">
    <path d="M 43.926482 58.2175 
L 58.651394 143.138517 
L 70.955773 150.478009 
L 83.260151 152.493784 
L 95.56453 153.734262 
L 107.868909 154.50956 
L 120.173287 154.767993 
L 132.477666 154.50956 
L 144.782045 153.992695 
L 157.086423 153.734262 
L 169.390802 153.269083 
L 181.695181 136.005772 
L 193.999559 125.616773 
L 206.303938 124.634729 
L 218.608317 124.376296 
L 230.912695 124.117863 
L 243.217074 124.376296 
L 255.521453 124.376296 
L 267.825831 124.117863 
L 280.13021 123.342565 
L 292.434589 122.825699 
L 304.738967 101.065658 
L 317.043346 94.708211 
L 329.347725 93.209301 
L 341.652103 92.17557 
L 353.956482 91.193525 
" clip-path="url(#p859361cc6d)" style="fill: none"/>
    <defs>
     <path id="m085c9eb586" d="M -3 3 
L 3 -3 
M -3 -3 
L 3 3 
" style="stroke: #84569f"/>
    </defs>
    <g clip-path="url(#p859361cc6d)">
     <use xlink:href="#m085c9eb586" x="43.926482" y="58.2175" style="fill: #84569f; stroke: #84569f"/>
     <use xlink:href="#m085c9eb586" x="58.651394" y="143.138517" style="fill: #84569f; stroke: #84569f"/>
     <use xlink:href="#m085c9eb586" x="70.955773" y="150.478009" style="fill: #84569f; stroke: #84569f"/>
     <use xlink:href="#m085c9eb586" x="83.260151" y="152.493784" style="fill: #84569f; stroke: #84569f"/>
     <use xlink:href="#m085c9eb586" x="95.56453" y="153.734262" style="fill: #84569f; stroke: #84569f"/>
     <use xlink:href="#m085c9eb586" x="107.868909" y="154.50956" style="fill: #84569f; stroke: #84569f"/>
     <use xlink:href="#m085c9eb586" x="120.173287" y="154.767993" style="fill: #84569f; stroke: #84569f"/>
     <use xlink:href="#m085c9eb586" x="132.477666" y="154.50956" style="fill: #84569f; stroke: #84569f"/>
     <use xlink:href="#m085c9eb586" x="144.782045" y="153.992695" style="fill: #84569f; stroke: #84569f"/>
     <use xlink:href="#m085c9eb586" x="157.086423" y="153.734262" style="fill: #84569f; stroke: #84569f"/>
     <use xlink:href="#m085c9eb586" x="169.390802" y="153.269083" style="fill: #84569f; stroke: #84569f"/>
     <use xlink:href="#m085c9eb586" x="181.695181" y="136.005772" style="fill: #84569f; stroke: #84569f"/>
     <use xlink:href="#m085c9eb586" x="193.999559" y="125.616773" style="fill: #84569f; stroke: #84569f"/>
     <use xlink:href="#m085c9eb586" x="206.303938" y="124.634729" style="fill: #84569f; stroke: #84569f"/>
     <use xlink:href="#m085c9eb586" x="218.608317" y="124.376296" style="fill: #84569f; stroke: #84569f"/>
     <use xlink:href="#m085c9eb586" x="230.912695" y="124.117863" style="fill: #84569f; stroke: #84569f"/>
     <use xlink:href="#m085c9eb586" x="243.217074" y="124.376296" style="fill: #84569f; stroke: #84569f"/>
     <use xlink:href="#m085c9eb586" x="255.521453" y="124.376296" style="fill: #84569f; stroke: #84569f"/>
     <use xlink:href="#m085c9eb586" x="267.825831" y="124.117863" style="fill: #84569f; stroke: #84569f"/>
     <use xlink:href="#m085c9eb586" x="280.13021" y="123.342565" style="fill: #84569f; stroke: #84569f"/>
     <use xlink:href="#m085c9eb586" x="292.434589" y="122.825699" style="fill: #84569f; stroke: #84569f"/>
     <use xlink:href="#m085c9eb586" x="304.738967" y="101.065658" style="fill: #84569f; stroke: #84569f"/>
     <use xlink:href="#m085c9eb586" x="317.043346" y="94.708211" style="fill: #84569f; stroke: #84569f"/>
     <use xlink:href="#m085c9eb586" x="329.347725" y="93.209301" style="fill: #84569f; stroke: #84569f"/>
     <use xlink:href="#m085c9eb586" x="341.652103" y="92.17557" style="fill: #84569f; stroke: #84569f"/>
     <use xlink:href="#m085c9eb586" x="353.956482" y="91.193525" style="fill: #84569f; stroke: #84569f"/>
    </g>
   </g>
   <g id="patch_28">
    <path d="M 43.78125 162.7975 
L 43.78125 53.2375 
" style="fill: none; stroke: #000000; stroke-width: 0.8; stroke-linejoin: miter; stroke-linecap: square"/>
   </g>
   <g id="patch_29">
    <path d="M 353.81125 162.7975 
L 353.81125 53.2375 
" style="fill: none; stroke: #000000; stroke-width: 0.8; stroke-linejoin: miter; stroke-linecap: square"/>
   </g>
   <g id="patch_30">
    <path d="M 43.78125 162.7975 
L 353.81125 162.7975 
" style="fill: none; stroke: #000000; stroke-width: 0.8; stroke-linejoin: miter; stroke-linecap: square"/>
   </g>
   <g id="patch_31">
    <path d="M 43.78125 53.2375 
L 353.81125 53.2375 
" style="fill: none; stroke: #000000; stroke-width: 0.8; stroke-linejoin: miter; stroke-linecap: square"/>
   </g>
   <g id="legend_1">
    <g id="line2d_16">
     <path d="M 89.161094 38.657813 
L 99.161094 38.657813 
L 109.161094 38.657813 
" style="fill: none"/>
     <g>
      <use xlink:href="#m6b7660efc2" x="99.161094" y="38.657813" style="fill: #84569f; stroke: #84569f"/>
     </g>
    </g>
    <g id="text_16">
     <!-- Measured Fluo -->
     <g transform="translate(117.161094 42.157813) scale(0.1 -0.1)">
      <defs>
       <path id="DejaVuSans-4d" d="M 628 4666 
L 1569 4666 
L 2759 1491 
L 3956 4666 
L 4897 4666 
L 4897 0 
L 4281 0 
L 4281 4097 
L 3078 897 
L 2444 897 
L 1241 4097 
L 1241 0 
L 628 0 
L 628 4666 
z
" transform="scale(0.015625)"/>
       <path id="DejaVuSans-64" d="M 2906 2969 
L 2906 4863 
L 3481 4863 
L 3481 0 
L 2906 0 
L 2906 525 
Q 2725 213 2448 61 
Q 2172 -91 1784 -91 
Q 1150 -91 751 415 
Q 353 922 353 1747 
Q 353 2572 751 3078 
Q 1150 3584 1784 3584 
Q 2172 3584 2448 3432 
Q 2725 3281 2906 2969 
z
M 947 1747 
Q 947 1113 1208 752 
Q 1469 391 1925 391 
Q 2381 391 2643 752 
Q 2906 1113 2906 1747 
Q 2906 2381 2643 2742 
Q 2381 3103 1925 3103 
Q 1469 3103 1208 2742 
Q 947 2381 947 1747 
z
" transform="scale(0.015625)"/>
      </defs>
      <use xlink:href="#DejaVuSans-4d"/>
      <use xlink:href="#DejaVuSans-65" transform="translate(86.279297 0)"/>
      <use xlink:href="#DejaVuSans-61" transform="translate(147.802734 0)"/>
      <use xlink:href="#DejaVuSans-73" transform="translate(209.082031 0)"/>
      <use xlink:href="#DejaVuSans-75" transform="translate(261.181641 0)"/>
      <use xlink:href="#DejaVuSans-72" transform="translate(324.560547 0)"/>
      <use xlink:href="#DejaVuSans-65" transform="translate(363.423828 0)"/>
      <use xlink:href="#DejaVuSans-64" transform="translate(424.947266 0)"/>
      <use xlink:href="#DejaVuSans-20" transform="translate(488.423828 0)"/>
      <use xlink:href="#DejaVuSans-46" transform="translate(520.210938 0)"/>
      <use xlink:href="#DejaVuSans-6c" transform="translate(577.730469 0)"/>
      <use xlink:href="#DejaVuSans-75" transform="translate(605.513672 0)"/>
      <use xlink:href="#DejaVuSans-6f" transform="translate(668.892578 0)"/>
     </g>
    </g>
    <g id="line2d_17">
     <path d="M 210.168906 38.657813 
L 220.168906 38.657813 
L 230.168906 38.657813 
" style="fill: none"/>
     <g>
      <use xlink:href="#m085c9eb586" x="220.168906" y="38.657813" style="fill: #84569f; stroke: #84569f"/>
     </g>
    </g>
    <g id="text_17">
     <!-- Measured Fm' -->
     <g transform="translate(238.168906 42.157813) scale(0.1 -0.1)">
      <defs>
       <path id="DejaVuSans-27" d="M 1147 4666 
L 1147 2931 
L 616 2931 
L 616 4666 
L 1147 4666 
z
" transform="scale(0.015625)"/>
      </defs>
      <use xlink:href="#DejaVuSans-4d"/>
      <use xlink:href="#DejaVuSans-65" transform="translate(86.279297 0)"/>
      <use xlink:href="#DejaVuSans-61" transform="translate(147.802734 0)"/>
      <use xlink:href="#DejaVuSans-73" transform="translate(209.082031 0)"/>
      <use xlink:href="#DejaVuSans-75" transform="translate(261.181641 0)"/>
      <use xlink:href="#DejaVuSans-72" transform="translate(324.560547 0)"/>
      <use xlink:href="#DejaVuSans-65" transform="translate(363.423828 0)"/>
      <use xlink:href="#DejaVuSans-64" transform="translate(424.947266 0)"/>
      <use xlink:href="#DejaVuSans-20" transform="translate(488.423828 0)"/>
      <use xlink:href="#DejaVuSans-46" transform="translate(520.210938 0)"/>
      <use xlink:href="#DejaVuSans-6d" transform="translate(577.730469 0)"/>
      <use xlink:href="#DejaVuSans-27" transform="translate(675.142578 0)"/>
     </g>
    </g>
   </g>
  </g>
  <g id="axes_2">
   <g id="patch_32">
    <path d="M 367.76125 162.7975 
L 677.79125 162.7975 
L 677.79125 53.2375 
L 367.76125 53.2375 
z
" style="fill: #ffffff"/>
   </g>
   <g id="patch_33">
    <path d="M 367.76125 162.7975 
L 382.486162 162.7975 
L 382.486162 53.2375 
L 367.76125 53.2375 
z
" clip-path="url(#p4b1884d241)" style="fill: #d3d3d3; opacity: 0.3"/>
   </g>
   <g id="patch_34">
    <path d="M 382.486162 162.7975 
L 394.790541 162.7975 
L 394.790541 53.2375 
L 382.486162 53.2375 
z
" clip-path="url(#p4b1884d241)" style="fill: #d3d3d3; opacity: 0.3"/>
   </g>
   <g id="patch_35">
    <path d="M 394.790541 162.7975 
L 407.094919 162.7975 
L 407.094919 53.2375 
L 394.790541 53.2375 
z
" clip-path="url(#p4b1884d241)" style="fill: #d3d3d3; opacity: 0.3"/>
   </g>
   <g id="patch_36">
    <path d="M 407.094919 162.7975 
L 419.399298 162.7975 
L 419.399298 53.2375 
L 407.094919 53.2375 
z
" clip-path="url(#p4b1884d241)" style="fill: #d3d3d3; opacity: 0.3"/>
   </g>
   <g id="patch_37">
    <path d="M 419.399298 162.7975 
L 431.703677 162.7975 
L 431.703677 53.2375 
L 419.399298 53.2375 
z
" clip-path="url(#p4b1884d241)" style="fill: #d3d3d3; opacity: 0.3"/>
   </g>
   <g id="patch_38">
    <path d="M 431.703677 162.7975 
L 444.008055 162.7975 
L 444.008055 53.2375 
L 431.703677 53.2375 
z
" clip-path="url(#p4b1884d241)" style="fill: #d3d3d3; opacity: 0.3"/>
   </g>
   <g id="patch_39">
    <path d="M 444.008055 162.7975 
L 456.312434 162.7975 
L 456.312434 53.2375 
L 444.008055 53.2375 
z
" clip-path="url(#p4b1884d241)" style="fill: #d3d3d3; opacity: 0.3"/>
   </g>
   <g id="patch_40">
    <path d="M 456.312434 162.7975 
L 468.616813 162.7975 
L 468.616813 53.2375 
L 456.312434 53.2375 
z
" clip-path="url(#p4b1884d241)" style="fill: #d3d3d3; opacity: 0.3"/>
   </g>
   <g id="patch_41">
    <path d="M 468.616813 162.7975 
L 480.921191 162.7975 
L 480.921191 53.2375 
L 468.616813 53.2375 
z
" clip-path="url(#p4b1884d241)" style="fill: #d3d3d3; opacity: 0.3"/>
   </g>
   <g id="patch_42">
    <path d="M 480.921191 162.7975 
L 493.22557 162.7975 
L 493.22557 53.2375 
L 480.921191 53.2375 
z
" clip-path="url(#p4b1884d241)" style="fill: #d3d3d3; opacity: 0.3"/>
   </g>
   <g id="patch_43">
    <path d="M 493.22557 162.7975 
L 505.529949 162.7975 
L 505.529949 53.2375 
L 493.22557 53.2375 
z
" clip-path="url(#p4b1884d241)" style="fill: #808080; opacity: 0.3"/>
   </g>
   <g id="patch_44">
    <path d="M 505.529949 162.7975 
L 517.834327 162.7975 
L 517.834327 53.2375 
L 505.529949 53.2375 
z
" clip-path="url(#p4b1884d241)" style="fill: #808080; opacity: 0.3"/>
   </g>
   <g id="patch_45">
    <path d="M 517.834327 162.7975 
L 530.138706 162.7975 
L 530.138706 53.2375 
L 517.834327 53.2375 
z
" clip-path="url(#p4b1884d241)" style="fill: #808080; opacity: 0.3"/>
   </g>
   <g id="patch_46">
    <path d="M 530.138706 162.7975 
L 542.443085 162.7975 
L 542.443085 53.2375 
L 530.138706 53.2375 
z
" clip-path="url(#p4b1884d241)" style="fill: #808080; opacity: 0.3"/>
   </g>
   <g id="patch_47">
    <path d="M 542.443085 162.7975 
L 554.747463 162.7975 
L 554.747463 53.2375 
L 542.443085 53.2375 
z
" clip-path="url(#p4b1884d241)" style="fill: #808080; opacity: 0.3"/>
   </g>
   <g id="patch_48">
    <path d="M 554.747463 162.7975 
L 567.051842 162.7975 
L 567.051842 53.2375 
L 554.747463 53.2375 
z
" clip-path="url(#p4b1884d241)" style="fill: #808080; opacity: 0.3"/>
   </g>
   <g id="patch_49">
    <path d="M 567.051842 162.7975 
L 579.356221 162.7975 
L 579.356221 53.2375 
L 567.051842 53.2375 
z
" clip-path="url(#p4b1884d241)" style="fill: #808080; opacity: 0.3"/>
   </g>
   <g id="patch_50">
    <path d="M 579.356221 162.7975 
L 591.660599 162.7975 
L 591.660599 53.2375 
L 579.356221 53.2375 
z
" clip-path="url(#p4b1884d241)" style="fill: #808080; opacity: 0.3"/>
   </g>
   <g id="patch_51">
    <path d="M 591.660599 162.7975 
L 603.964978 162.7975 
L 603.964978 53.2375 
L 591.660599 53.2375 
z
" clip-path="url(#p4b1884d241)" style="fill: #808080; opacity: 0.3"/>
   </g>
   <g id="patch_52">
    <path d="M 603.964978 162.7975 
L 616.269357 162.7975 
L 616.269357 53.2375 
L 603.964978 53.2375 
z
" clip-path="url(#p4b1884d241)" style="fill: #808080; opacity: 0.3"/>
   </g>
   <g id="patch_53">
    <path d="M 616.269357 162.7975 
L 628.573735 162.7975 
L 628.573735 53.2375 
L 616.269357 53.2375 
z
" clip-path="url(#p4b1884d241)" style="opacity: 0.3"/>
   </g>
   <g id="patch_54">
    <path d="M 628.573735 162.7975 
L 640.878114 162.7975 
L 640.878114 53.2375 
L 628.573735 53.2375 
z
" clip-path="url(#p4b1884d241)" style="opacity: 0.3"/>
   </g>
   <g id="patch_55">
    <path d="M 640.878114 162.7975 
L 653.182493 162.7975 
L 653.182493 53.2375 
L 640.878114 53.2375 
z
" clip-path="url(#p4b1884d241)" style="opacity: 0.3"/>
   </g>
   <g id="patch_56">
    <path d="M 653.182493 162.7975 
L 665.486871 162.7975 
L 665.486871 53.2375 
L 653.182493 53.2375 
z
" clip-path="url(#p4b1884d241)" style="opacity: 0.3"/>
   </g>
   <g id="patch_57">
    <path d="M 665.486871 162.7975 
L 677.79125 162.7975 
L 677.79125 53.2375 
L 665.486871 53.2375 
z
" clip-path="url(#p4b1884d241)" style="opacity: 0.3"/>
   </g>
   <g id="matplotlib.axis_3">
    <g id="xtick_9">
     <g id="line2d_18">
      <g>
       <use xlink:href="#m331b7a13a7" x="367.76125" y="162.7975" style="stroke: #000000; stroke-width: 0.8"/>
      </g>
     </g>
     <g id="text_18">
      <!-- 0 -->
      <g transform="translate(364.58 177.395938) scale(0.1 -0.1)">
       <use xlink:href="#DejaVuSans-30"/>
      </g>
     </g>
    </g>
    <g id="xtick_10">
     <g id="line2d_19">
      <g>
       <use xlink:href="#m331b7a13a7" x="408.103475" y="162.7975" style="stroke: #000000; stroke-width: 0.8"/>
      </g>
     </g>
     <g id="text_19">
      <!-- 200 -->
      <g transform="translate(398.559725 177.395938) scale(0.1 -0.1)">
       <use xlink:href="#DejaVuSans-32"/>
       <use xlink:href="#DejaVuSans-30" transform="translate(63.623047 0)"/>
       <use xlink:href="#DejaVuSans-30" transform="translate(127.246094 0)"/>
      </g>
     </g>
    </g>
    <g id="xtick_11">
     <g id="line2d_20">
      <g>
       <use xlink:href="#m331b7a13a7" x="448.4457" y="162.7975" style="stroke: #000000; stroke-width: 0.8"/>
      </g>
     </g>
     <g id="text_20">
      <!-- 400 -->
      <g transform="translate(438.90195 177.395938) scale(0.1 -0.1)">
       <use xlink:href="#DejaVuSans-34"/>
       <use xlink:href="#DejaVuSans-30" transform="translate(63.623047 0)"/>
       <use xlink:href="#DejaVuSans-30" transform="translate(127.246094 0)"/>
      </g>
     </g>
    </g>
    <g id="xtick_12">
     <g id="line2d_21">
      <g>
       <use xlink:href="#m331b7a13a7" x="488.787925" y="162.7975" style="stroke: #000000; stroke-width: 0.8"/>
      </g>
     </g>
     <g id="text_21">
      <!-- 600 -->
      <g transform="translate(479.244175 177.395938) scale(0.1 -0.1)">
       <use xlink:href="#DejaVuSans-36"/>
       <use xlink:href="#DejaVuSans-30" transform="translate(63.623047 0)"/>
       <use xlink:href="#DejaVuSans-30" transform="translate(127.246094 0)"/>
      </g>
     </g>
    </g>
    <g id="xtick_13">
     <g id="line2d_22">
      <g>
       <use xlink:href="#m331b7a13a7" x="529.13015" y="162.7975" style="stroke: #000000; stroke-width: 0.8"/>
      </g>
     </g>
     <g id="text_22">
      <!-- 800 -->
      <g transform="translate(519.5864 177.395938) scale(0.1 -0.1)">
       <use xlink:href="#DejaVuSans-38"/>
       <use xlink:href="#DejaVuSans-30" transform="translate(63.623047 0)"/>
       <use xlink:href="#DejaVuSans-30" transform="translate(127.246094 0)"/>
      </g>
     </g>
    </g>
    <g id="xtick_14">
     <g id="line2d_23">
      <g>
       <use xlink:href="#m331b7a13a7" x="569.472376" y="162.7975" style="stroke: #000000; stroke-width: 0.8"/>
      </g>
     </g>
     <g id="text_23">
      <!-- 1000 -->
      <g transform="translate(556.747376 177.395938) scale(0.1 -0.1)">
       <use xlink:href="#DejaVuSans-31"/>
       <use xlink:href="#DejaVuSans-30" transform="translate(63.623047 0)"/>
       <use xlink:href="#DejaVuSans-30" transform="translate(127.246094 0)"/>
       <use xlink:href="#DejaVuSans-30" transform="translate(190.869141 0)"/>
      </g>
     </g>
    </g>
    <g id="xtick_15">
     <g id="line2d_24">
      <g>
       <use xlink:href="#m331b7a13a7" x="609.814601" y="162.7975" style="stroke: #000000; stroke-width: 0.8"/>
      </g>
     </g>
     <g id="text_24">
      <!-- 1200 -->
      <g transform="translate(597.089601 177.395938) scale(0.1 -0.1)">
       <use xlink:href="#DejaVuSans-31"/>
       <use xlink:href="#DejaVuSans-32" transform="translate(63.623047 0)"/>
       <use xlink:href="#DejaVuSans-30" transform="translate(127.246094 0)"/>
       <use xlink:href="#DejaVuSans-30" transform="translate(190.869141 0)"/>
      </g>
     </g>
    </g>
    <g id="xtick_16">
     <g id="line2d_25">
      <g>
       <use xlink:href="#m331b7a13a7" x="650.156826" y="162.7975" style="stroke: #000000; stroke-width: 0.8"/>
      </g>
     </g>
     <g id="text_25">
      <!-- 1400 -->
      <g transform="translate(637.431826 177.395938) scale(0.1 -0.1)">
       <use xlink:href="#DejaVuSans-31"/>
       <use xlink:href="#DejaVuSans-34" transform="translate(63.623047 0)"/>
       <use xlink:href="#DejaVuSans-30" transform="translate(127.246094 0)"/>
       <use xlink:href="#DejaVuSans-30" transform="translate(190.869141 0)"/>
      </g>
     </g>
    </g>
    <g id="text_26">
     <!-- Time [s] -->
     <g transform="translate(502.447344 191.074062) scale(0.1 -0.1)">
      <use xlink:href="#DejaVuSans-54"/>
      <use xlink:href="#DejaVuSans-69" transform="translate(57.958984 0)"/>
      <use xlink:href="#DejaVuSans-6d" transform="translate(85.742188 0)"/>
      <use xlink:href="#DejaVuSans-65" transform="translate(183.154297 0)"/>
      <use xlink:href="#DejaVuSans-20" transform="translate(244.677734 0)"/>
      <use xlink:href="#DejaVuSans-5b" transform="translate(276.464844 0)"/>
      <use xlink:href="#DejaVuSans-73" transform="translate(315.478516 0)"/>
      <use xlink:href="#DejaVuSans-5d" transform="translate(367.578125 0)"/>
     </g>
    </g>
   </g>
   <g id="matplotlib.axis_4">
    <g id="ytick_6">
     <g id="line2d_26">
      <defs>
       <path id="me3a133dd0f" d="M 0 0 
L 3.5 0 
" style="stroke: #000000; stroke-width: 0.8"/>
      </defs>
      <g>
       <use xlink:href="#me3a133dd0f" x="677.79125" y="157.8175" style="stroke: #000000; stroke-width: 0.8"/>
      </g>
     </g>
     <g id="text_27">
      <!-- 0 -->
      <g transform="translate(684.79125 161.616719) scale(0.1 -0.1)">
       <use xlink:href="#DejaVuSans-30"/>
      </g>
     </g>
    </g>
    <g id="ytick_7">
     <g id="line2d_27">
      <g>
       <use xlink:href="#me3a133dd0f" x="677.79125" y="130.891376" style="stroke: #000000; stroke-width: 0.8"/>
      </g>
     </g>
     <g id="text_28">
      <!-- 1 -->
      <g transform="translate(684.79125 134.690595) scale(0.1 -0.1)">
       <use xlink:href="#DejaVuSans-31"/>
      </g>
     </g>
    </g>
    <g id="ytick_8">
     <g id="line2d_28">
      <g>
       <use xlink:href="#me3a133dd0f" x="677.79125" y="103.965252" style="stroke: #000000; stroke-width: 0.8"/>
      </g>
     </g>
     <g id="text_29">
      <!-- 2 -->
      <g transform="translate(684.79125 107.76447) scale(0.1 -0.1)">
       <use xlink:href="#DejaVuSans-32"/>
      </g>
     </g>
    </g>
    <g id="ytick_9">
     <g id="line2d_29">
      <g>
       <use xlink:href="#me3a133dd0f" x="677.79125" y="77.039127" style="stroke: #000000; stroke-width: 0.8"/>
      </g>
     </g>
     <g id="text_30">
      <!-- 3 -->
      <g transform="translate(684.79125 80.838346) scale(0.1 -0.1)">
       <defs>
        <path id="DejaVuSans-33" d="M 2597 2516 
Q 3050 2419 3304 2112 
Q 3559 1806 3559 1356 
Q 3559 666 3084 287 
Q 2609 -91 1734 -91 
Q 1441 -91 1130 -33 
Q 819 25 488 141 
L 488 750 
Q 750 597 1062 519 
Q 1375 441 1716 441 
Q 2309 441 2620 675 
Q 2931 909 2931 1356 
Q 2931 1769 2642 2001 
Q 2353 2234 1838 2234 
L 1294 2234 
L 1294 2753 
L 1863 2753 
Q 2328 2753 2575 2939 
Q 2822 3125 2822 3475 
Q 2822 3834 2567 4026 
Q 2313 4219 1838 4219 
Q 1578 4219 1281 4162 
Q 984 4106 628 3988 
L 628 4550 
Q 988 4650 1302 4700 
Q 1616 4750 1894 4750 
Q 2613 4750 3031 4423 
Q 3450 4097 3450 3541 
Q 3450 3153 3228 2886 
Q 3006 2619 2597 2516 
z
" transform="scale(0.015625)"/>
       </defs>
       <use xlink:href="#DejaVuSans-33"/>
      </g>
     </g>
    </g>
    <g id="text_31">
     <!-- NPQ [a.u.] -->
     <g transform="translate(702.752187 133.610469) rotate(-90) scale(0.1 -0.1)">
      <defs>
       <path id="DejaVuSans-4e" d="M 628 4666 
L 1478 4666 
L 3547 763 
L 3547 4666 
L 4159 4666 
L 4159 0 
L 3309 0 
L 1241 3903 
L 1241 0 
L 628 0 
L 628 4666 
z
" transform="scale(0.015625)"/>
       <path id="DejaVuSans-50" d="M 1259 4147 
L 1259 2394 
L 2053 2394 
Q 2494 2394 2734 2622 
Q 2975 2850 2975 3272 
Q 2975 3691 2734 3919 
Q 2494 4147 2053 4147 
L 1259 4147 
z
M 628 4666 
L 2053 4666 
Q 2838 4666 3239 4311 
Q 3641 3956 3641 3272 
Q 3641 2581 3239 2228 
Q 2838 1875 2053 1875 
L 1259 1875 
L 1259 0 
L 628 0 
L 628 4666 
z
" transform="scale(0.015625)"/>
       <path id="DejaVuSans-51" d="M 2522 4238 
Q 1834 4238 1429 3725 
Q 1025 3213 1025 2328 
Q 1025 1447 1429 934 
Q 1834 422 2522 422 
Q 3209 422 3611 934 
Q 4013 1447 4013 2328 
Q 4013 3213 3611 3725 
Q 3209 4238 2522 4238 
z
M 3406 84 
L 4238 -825 
L 3475 -825 
L 2784 -78 
Q 2681 -84 2626 -87 
Q 2572 -91 2522 -91 
Q 1538 -91 948 567 
Q 359 1225 359 2328 
Q 359 3434 948 4092 
Q 1538 4750 2522 4750 
Q 3503 4750 4090 4092 
Q 4678 3434 4678 2328 
Q 4678 1516 4351 937 
Q 4025 359 3406 84 
z
" transform="scale(0.015625)"/>
      </defs>
      <use xlink:href="#DejaVuSans-4e"/>
      <use xlink:href="#DejaVuSans-50" transform="translate(74.804688 0)"/>
      <use xlink:href="#DejaVuSans-51" transform="translate(135.107422 0)"/>
      <use xlink:href="#DejaVuSans-20" transform="translate(213.818359 0)"/>
      <use xlink:href="#DejaVuSans-5b" transform="translate(245.605469 0)"/>
      <use xlink:href="#DejaVuSans-61" transform="translate(284.619141 0)"/>
      <use xlink:href="#DejaVuSans-2e" transform="translate(345.898438 0)"/>
      <use xlink:href="#DejaVuSans-75" transform="translate(377.685547 0)"/>
      <use xlink:href="#DejaVuSans-2e" transform="translate(441.064453 0)"/>
      <use xlink:href="#DejaVuSans-5d" transform="translate(472.851562 0)"/>
     </g>
    </g>
   </g>
   <g id="line2d_30">
    <path d="M 367.76125 157.8175 
L 382.486162 97.215278 
L 394.790541 76.07748 
L 407.094919 68.358027 
L 419.399298 63.037543 
L 431.703677 59.457952 
L 444.008055 58.2175 
L 456.312434 59.457952 
L 468.616813 61.867292 
L 480.921191 63.037543 
L 493.22557 65.088769 
L 505.529949 111.131075 
L 517.834327 124.972162 
L 530.138706 126.015965 
L 542.443085 126.284619 
L 554.747463 126.550826 
L 567.051842 126.284619 
L 579.356221 126.284619 
L 591.660599 126.550826 
L 603.964978 127.335095 
L 616.269357 127.846302 
L 628.573735 143.360404 
L 640.878114 146.413875 
L 653.182493 147.069277 
L 665.486871 147.508372 
L 677.79125 147.916136 
" clip-path="url(#p4b1884d241)" style="fill: none; stroke: #84569f; stroke-linecap: square"/>
    <defs>
     <path id="m55c369da95" d="M -3 3 
L 3 3 
L 3 -3 
L -3 -3 
z
" style="stroke: #84569f; stroke-linejoin: miter"/>
    </defs>
    <g clip-path="url(#p4b1884d241)">
     <use xlink:href="#m55c369da95" x="367.76125" y="157.8175" style="fill: #84569f; stroke: #84569f; stroke-linejoin: miter"/>
     <use xlink:href="#m55c369da95" x="382.486162" y="97.215278" style="fill: #84569f; stroke: #84569f; stroke-linejoin: miter"/>
     <use xlink:href="#m55c369da95" x="394.790541" y="76.07748" style="fill: #84569f; stroke: #84569f; stroke-linejoin: miter"/>
     <use xlink:href="#m55c369da95" x="407.094919" y="68.358027" style="fill: #84569f; stroke: #84569f; stroke-linejoin: miter"/>
     <use xlink:href="#m55c369da95" x="419.399298" y="63.037543" style="fill: #84569f; stroke: #84569f; stroke-linejoin: miter"/>
     <use xlink:href="#m55c369da95" x="431.703677" y="59.457952" style="fill: #84569f; stroke: #84569f; stroke-linejoin: miter"/>
     <use xlink:href="#m55c369da95" x="444.008055" y="58.2175" style="fill: #84569f; stroke: #84569f; stroke-linejoin: miter"/>
     <use xlink:href="#m55c369da95" x="456.312434" y="59.457952" style="fill: #84569f; stroke: #84569f; stroke-linejoin: miter"/>
     <use xlink:href="#m55c369da95" x="468.616813" y="61.867292" style="fill: #84569f; stroke: #84569f; stroke-linejoin: miter"/>
     <use xlink:href="#m55c369da95" x="480.921191" y="63.037543" style="fill: #84569f; stroke: #84569f; stroke-linejoin: miter"/>
     <use xlink:href="#m55c369da95" x="493.22557" y="65.088769" style="fill: #84569f; stroke: #84569f; stroke-linejoin: miter"/>
     <use xlink:href="#m55c369da95" x="505.529949" y="111.131075" style="fill: #84569f; stroke: #84569f; stroke-linejoin: miter"/>
     <use xlink:href="#m55c369da95" x="517.834327" y="124.972162" style="fill: #84569f; stroke: #84569f; stroke-linejoin: miter"/>
     <use xlink:href="#m55c369da95" x="530.138706" y="126.015965" style="fill: #84569f; stroke: #84569f; stroke-linejoin: miter"/>
     <use xlink:href="#m55c369da95" x="542.443085" y="126.284619" style="fill: #84569f; stroke: #84569f; stroke-linejoin: miter"/>
     <use xlink:href="#m55c369da95" x="554.747463" y="126.550826" style="fill: #84569f; stroke: #84569f; stroke-linejoin: miter"/>
     <use xlink:href="#m55c369da95" x="567.051842" y="126.284619" style="fill: #84569f; stroke: #84569f; stroke-linejoin: miter"/>
     <use xlink:href="#m55c369da95" x="579.356221" y="126.284619" style="fill: #84569f; stroke: #84569f; stroke-linejoin: miter"/>
     <use xlink:href="#m55c369da95" x="591.660599" y="126.550826" style="fill: #84569f; stroke: #84569f; stroke-linejoin: miter"/>
     <use xlink:href="#m55c369da95" x="603.964978" y="127.335095" style="fill: #84569f; stroke: #84569f; stroke-linejoin: miter"/>
     <use xlink:href="#m55c369da95" x="616.269357" y="127.846302" style="fill: #84569f; stroke: #84569f; stroke-linejoin: miter"/>
     <use xlink:href="#m55c369da95" x="628.573735" y="143.360404" style="fill: #84569f; stroke: #84569f; stroke-linejoin: miter"/>
     <use xlink:href="#m55c369da95" x="640.878114" y="146.413875" style="fill: #84569f; stroke: #84569f; stroke-linejoin: miter"/>
     <use xlink:href="#m55c369da95" x="653.182493" y="147.069277" style="fill: #84569f; stroke: #84569f; stroke-linejoin: miter"/>
     <use xlink:href="#m55c369da95" x="665.486871" y="147.508372" style="fill: #84569f; stroke: #84569f; stroke-linejoin: miter"/>
     <use xlink:href="#m55c369da95" x="677.79125" y="147.916136" style="fill: #84569f; stroke: #84569f; stroke-linejoin: miter"/>
    </g>
   </g>
   <g id="patch_58">
    <path d="M 367.76125 162.7975 
L 367.76125 53.2375 
" style="fill: none; stroke: #000000; stroke-width: 0.8; stroke-linejoin: miter; stroke-linecap: square"/>
   </g>
   <g id="patch_59">
    <path d="M 677.79125 162.7975 
L 677.79125 53.2375 
" style="fill: none; stroke: #000000; stroke-width: 0.8; stroke-linejoin: miter; stroke-linecap: square"/>
   </g>
   <g id="patch_60">
    <path d="M 367.76125 162.7975 
L 677.79125 162.7975 
" style="fill: none; stroke: #000000; stroke-width: 0.8; stroke-linejoin: miter; stroke-linecap: square"/>
   </g>
   <g id="patch_61">
    <path d="M 367.76125 53.2375 
L 677.79125 53.2375 
" style="fill: none; stroke: #000000; stroke-width: 0.8; stroke-linejoin: miter; stroke-linecap: square"/>
   </g>
   <g id="legend_2">
    <g id="line2d_31">
     <path d="M 472.073906 38.657813 
L 482.073906 38.657813 
L 492.073906 38.657813 
" style="fill: none; stroke: #84569f; stroke-linecap: square"/>
     <g>
      <use xlink:href="#m55c369da95" x="482.073906" y="38.657813" style="fill: #84569f; stroke: #84569f; stroke-linejoin: miter"/>
     </g>
    </g>
    <g id="text_32">
     <!-- Measured NPQ -->
     <g transform="translate(500.073906 42.157813) scale(0.1 -0.1)">
      <use xlink:href="#DejaVuSans-4d"/>
      <use xlink:href="#DejaVuSans-65" transform="translate(86.279297 0)"/>
      <use xlink:href="#DejaVuSans-61" transform="translate(147.802734 0)"/>
      <use xlink:href="#DejaVuSans-73" transform="translate(209.082031 0)"/>
      <use xlink:href="#DejaVuSans-75" transform="translate(261.181641 0)"/>
      <use xlink:href="#DejaVuSans-72" transform="translate(324.560547 0)"/>
      <use xlink:href="#DejaVuSans-65" transform="translate(363.423828 0)"/>
      <use xlink:href="#DejaVuSans-64" transform="translate(424.947266 0)"/>
      <use xlink:href="#DejaVuSans-20" transform="translate(488.423828 0)"/>
      <use xlink:href="#DejaVuSans-4e" transform="translate(520.210938 0)"/>
      <use xlink:href="#DejaVuSans-50" transform="translate(595.015625 0)"/>
      <use xlink:href="#DejaVuSans-51" transform="translate(655.318359 0)"/>
     </g>
    </g>
   </g>
  </g>
  <g id="axes_3">
   <g id="patch_62">
    <path d="M 43.78125 337.3975 
L 677.79125 337.3975 
L 677.79125 227.8375 
L 43.78125 227.8375 
z
" style="fill: #ffffff"/>
   </g>
   <g id="patch_63">
    <path d="M 43.78125 337.3975 
L 73.893631 337.3975 
L 73.893631 227.8375 
L 43.78125 227.8375 
z
" clip-path="url(#p4016eb0bcf)" style="fill: #d3d3d3; opacity: 0.3"/>
   </g>
   <g id="patch_64">
    <path d="M 73.893631 337.3975 
L 99.056032 337.3975 
L 99.056032 227.8375 
L 73.893631 227.8375 
z
" clip-path="url(#p4016eb0bcf)" style="fill: #d3d3d3; opacity: 0.3"/>
   </g>
   <g id="patch_65">
    <path d="M 99.056032 337.3975 
L 124.218433 337.3975 
L 124.218433 227.8375 
L 99.056032 227.8375 
z
" clip-path="url(#p4016eb0bcf)" style="fill: #d3d3d3; opacity: 0.3"/>
   </g>
   <g id="patch_66">
    <path d="M 124.218433 337.3975 
L 149.380834 337.3975 
L 149.380834 227.8375 
L 124.218433 227.8375 
z
" clip-path="url(#p4016eb0bcf)" style="fill: #d3d3d3; opacity: 0.3"/>
   </g>
   <g id="patch_67">
    <path d="M 149.380834 337.3975 
L 174.543234 337.3975 
L 174.543234 227.8375 
L 149.380834 227.8375 
z
" clip-path="url(#p4016eb0bcf)" style="fill: #d3d3d3; opacity: 0.3"/>
   </g>
   <g id="patch_68">
    <path d="M 174.543234 337.3975 
L 199.705635 337.3975 
L 199.705635 227.8375 
L 174.543234 227.8375 
z
" clip-path="url(#p4016eb0bcf)" style="fill: #d3d3d3; opacity: 0.3"/>
   </g>
   <g id="patch_69">
    <path d="M 199.705635 337.3975 
L 224.868036 337.3975 
L 224.868036 227.8375 
L 199.705635 227.8375 
z
" clip-path="url(#p4016eb0bcf)" style="fill: #d3d3d3; opacity: 0.3"/>
   </g>
   <g id="patch_70">
    <path d="M 224.868036 337.3975 
L 250.030437 337.3975 
L 250.030437 227.8375 
L 224.868036 227.8375 
z
" clip-path="url(#p4016eb0bcf)" style="fill: #d3d3d3; opacity: 0.3"/>
   </g>
   <g id="patch_71">
    <path d="M 250.030437 337.3975 
L 275.192838 337.3975 
L 275.192838 227.8375 
L 250.030437 227.8375 
z
" clip-path="url(#p4016eb0bcf)" style="fill: #d3d3d3; opacity: 0.3"/>
   </g>
   <g id="patch_72">
    <path d="M 275.192838 337.3975 
L 300.355238 337.3975 
L 300.355238 227.8375 
L 275.192838 227.8375 
z
" clip-path="url(#p4016eb0bcf)" style="fill: #d3d3d3; opacity: 0.3"/>
   </g>
   <g id="patch_73">
    <path d="M 300.355238 337.3975 
L 325.517639 337.3975 
L 325.517639 227.8375 
L 300.355238 227.8375 
z
" clip-path="url(#p4016eb0bcf)" style="fill: #808080; opacity: 0.3"/>
   </g>
   <g id="patch_74">
    <path d="M 325.517639 337.3975 
L 350.68004 337.3975 
L 350.68004 227.8375 
L 325.517639 227.8375 
z
" clip-path="url(#p4016eb0bcf)" style="fill: #808080; opacity: 0.3"/>
   </g>
   <g id="patch_75">
    <path d="M 350.68004 337.3975 
L 375.842441 337.3975 
L 375.842441 227.8375 
L 350.68004 227.8375 
z
" clip-path="url(#p4016eb0bcf)" style="fill: #808080; opacity: 0.3"/>
   </g>
   <g id="patch_76">
    <path d="M 375.842441 337.3975 
L 401.004841 337.3975 
L 401.004841 227.8375 
L 375.842441 227.8375 
z
" clip-path="url(#p4016eb0bcf)" style="fill: #808080; opacity: 0.3"/>
   </g>
   <g id="patch_77">
    <path d="M 401.004841 337.3975 
L 426.167242 337.3975 
L 426.167242 227.8375 
L 401.004841 227.8375 
z
" clip-path="url(#p4016eb0bcf)" style="fill: #808080; opacity: 0.3"/>
   </g>
   <g id="patch_78">
    <path d="M 426.167242 337.3975 
L 451.329643 337.3975 
L 451.329643 227.8375 
L 426.167242 227.8375 
z
" clip-path="url(#p4016eb0bcf)" style="fill: #808080; opacity: 0.3"/>
   </g>
   <g id="patch_79">
    <path d="M 451.329643 337.3975 
L 476.492044 337.3975 
L 476.492044 227.8375 
L 451.329643 227.8375 
z
" clip-path="url(#p4016eb0bcf)" style="fill: #808080; opacity: 0.3"/>
   </g>
   <g id="patch_80">
    <path d="M 476.492044 337.3975 
L 501.654445 337.3975 
L 501.654445 227.8375 
L 476.492044 227.8375 
z
" clip-path="url(#p4016eb0bcf)" style="fill: #808080; opacity: 0.3"/>
   </g>
   <g id="patch_81">
    <path d="M 501.654445 337.3975 
L 526.816845 337.3975 
L 526.816845 227.8375 
L 501.654445 227.8375 
z
" clip-path="url(#p4016eb0bcf)" style="fill: #808080; opacity: 0.3"/>
   </g>
   <g id="patch_82">
    <path d="M 526.816845 337.3975 
L 551.979246 337.3975 
L 551.979246 227.8375 
L 526.816845 227.8375 
z
" clip-path="url(#p4016eb0bcf)" style="fill: #808080; opacity: 0.3"/>
   </g>
   <g id="patch_83">
    <path d="M 551.979246 337.3975 
L 577.141647 337.3975 
L 577.141647 227.8375 
L 551.979246 227.8375 
z
" clip-path="url(#p4016eb0bcf)" style="opacity: 0.3"/>
   </g>
   <g id="patch_84">
    <path d="M 577.141647 337.3975 
L 602.304048 337.3975 
L 602.304048 227.8375 
L 577.141647 227.8375 
z
" clip-path="url(#p4016eb0bcf)" style="opacity: 0.3"/>
   </g>
   <g id="patch_85">
    <path d="M 602.304048 337.3975 
L 627.466448 337.3975 
L 627.466448 227.8375 
L 602.304048 227.8375 
z
" clip-path="url(#p4016eb0bcf)" style="opacity: 0.3"/>
   </g>
   <g id="patch_86">
    <path d="M 627.466448 337.3975 
L 652.628849 337.3975 
L 652.628849 227.8375 
L 627.466448 227.8375 
z
" clip-path="url(#p4016eb0bcf)" style="opacity: 0.3"/>
   </g>
   <g id="patch_87">
    <path d="M 652.628849 337.3975 
L 677.79125 337.3975 
L 677.79125 227.8375 
L 652.628849 227.8375 
z
" clip-path="url(#p4016eb0bcf)" style="opacity: 0.3"/>
   </g>
   <g id="matplotlib.axis_5">
    <g id="xtick_17">
     <g id="line2d_32">
      <g>
       <use xlink:href="#m331b7a13a7" x="43.78125" y="337.3975" style="stroke: #000000; stroke-width: 0.8"/>
      </g>
     </g>
     <g id="text_33">
      <!-- 0 -->
      <g transform="translate(40.6 351.995938) scale(0.1 -0.1)">
       <use xlink:href="#DejaVuSans-30"/>
      </g>
     </g>
    </g>
    <g id="xtick_18">
     <g id="line2d_33">
      <g>
       <use xlink:href="#m331b7a13a7" x="126.280925" y="337.3975" style="stroke: #000000; stroke-width: 0.8"/>
      </g>
     </g>
     <g id="text_34">
      <!-- 200 -->
      <g transform="translate(116.737175 351.995938) scale(0.1 -0.1)">
       <use xlink:href="#DejaVuSans-32"/>
       <use xlink:href="#DejaVuSans-30" transform="translate(63.623047 0)"/>
       <use xlink:href="#DejaVuSans-30" transform="translate(127.246094 0)"/>
      </g>
     </g>
    </g>
    <g id="xtick_19">
     <g id="line2d_34">
      <g>
       <use xlink:href="#m331b7a13a7" x="208.780599" y="337.3975" style="stroke: #000000; stroke-width: 0.8"/>
      </g>
     </g>
     <g id="text_35">
      <!-- 400 -->
      <g transform="translate(199.236849 351.995938) scale(0.1 -0.1)">
       <use xlink:href="#DejaVuSans-34"/>
       <use xlink:href="#DejaVuSans-30" transform="translate(63.623047 0)"/>
       <use xlink:href="#DejaVuSans-30" transform="translate(127.246094 0)"/>
      </g>
     </g>
    </g>
    <g id="xtick_20">
     <g id="line2d_35">
      <g>
       <use xlink:href="#m331b7a13a7" x="291.280274" y="337.3975" style="stroke: #000000; stroke-width: 0.8"/>
      </g>
     </g>
     <g id="text_36">
      <!-- 600 -->
      <g transform="translate(281.736524 351.995938) scale(0.1 -0.1)">
       <use xlink:href="#DejaVuSans-36"/>
       <use xlink:href="#DejaVuSans-30" transform="translate(63.623047 0)"/>
       <use xlink:href="#DejaVuSans-30" transform="translate(127.246094 0)"/>
      </g>
     </g>
    </g>
    <g id="xtick_21">
     <g id="line2d_36">
      <g>
       <use xlink:href="#m331b7a13a7" x="373.779949" y="337.3975" style="stroke: #000000; stroke-width: 0.8"/>
      </g>
     </g>
     <g id="text_37">
      <!-- 800 -->
      <g transform="translate(364.236199 351.995938) scale(0.1 -0.1)">
       <use xlink:href="#DejaVuSans-38"/>
       <use xlink:href="#DejaVuSans-30" transform="translate(63.623047 0)"/>
       <use xlink:href="#DejaVuSans-30" transform="translate(127.246094 0)"/>
      </g>
     </g>
    </g>
    <g id="xtick_22">
     <g id="line2d_37">
      <g>
       <use xlink:href="#m331b7a13a7" x="456.279623" y="337.3975" style="stroke: #000000; stroke-width: 0.8"/>
      </g>
     </g>
     <g id="text_38">
      <!-- 1000 -->
      <g transform="translate(443.554623 351.995938) scale(0.1 -0.1)">
       <use xlink:href="#DejaVuSans-31"/>
       <use xlink:href="#DejaVuSans-30" transform="translate(63.623047 0)"/>
       <use xlink:href="#DejaVuSans-30" transform="translate(127.246094 0)"/>
       <use xlink:href="#DejaVuSans-30" transform="translate(190.869141 0)"/>
      </g>
     </g>
    </g>
    <g id="xtick_23">
     <g id="line2d_38">
      <g>
       <use xlink:href="#m331b7a13a7" x="538.779298" y="337.3975" style="stroke: #000000; stroke-width: 0.8"/>
      </g>
     </g>
     <g id="text_39">
      <!-- 1200 -->
      <g transform="translate(526.054298 351.995938) scale(0.1 -0.1)">
       <use xlink:href="#DejaVuSans-31"/>
       <use xlink:href="#DejaVuSans-32" transform="translate(63.623047 0)"/>
       <use xlink:href="#DejaVuSans-30" transform="translate(127.246094 0)"/>
       <use xlink:href="#DejaVuSans-30" transform="translate(190.869141 0)"/>
      </g>
     </g>
    </g>
    <g id="xtick_24">
     <g id="line2d_39">
      <g>
       <use xlink:href="#m331b7a13a7" x="621.278973" y="337.3975" style="stroke: #000000; stroke-width: 0.8"/>
      </g>
     </g>
     <g id="text_40">
      <!-- 1400 -->
      <g transform="translate(608.553973 351.995938) scale(0.1 -0.1)">
       <use xlink:href="#DejaVuSans-31"/>
       <use xlink:href="#DejaVuSans-34" transform="translate(63.623047 0)"/>
       <use xlink:href="#DejaVuSans-30" transform="translate(127.246094 0)"/>
       <use xlink:href="#DejaVuSans-30" transform="translate(190.869141 0)"/>
      </g>
     </g>
    </g>
    <g id="text_41">
     <!-- Time [s] -->
     <g transform="translate(340.457344 365.674062) scale(0.1 -0.1)">
      <use xlink:href="#DejaVuSans-54"/>
      <use xlink:href="#DejaVuSans-69" transform="translate(57.958984 0)"/>
      <use xlink:href="#DejaVuSans-6d" transform="translate(85.742188 0)"/>
      <use xlink:href="#DejaVuSans-65" transform="translate(183.154297 0)"/>
      <use xlink:href="#DejaVuSans-20" transform="translate(244.677734 0)"/>
      <use xlink:href="#DejaVuSans-5b" transform="translate(276.464844 0)"/>
      <use xlink:href="#DejaVuSans-73" transform="translate(315.478516 0)"/>
      <use xlink:href="#DejaVuSans-5d" transform="translate(367.578125 0)"/>
     </g>
    </g>
   </g>
   <g id="matplotlib.axis_6">
    <g id="ytick_10">
     <g id="line2d_40">
      <g>
       <use xlink:href="#m3c60a8f78a" x="43.78125" y="332.4175" style="stroke: #000000; stroke-width: 0.8"/>
      </g>
     </g>
     <g id="text_42">
      <!-- 0.0 -->
      <g transform="translate(20.878125 336.216719) scale(0.1 -0.1)">
       <use xlink:href="#DejaVuSans-30"/>
       <use xlink:href="#DejaVuSans-2e" transform="translate(63.623047 0)"/>
       <use xlink:href="#DejaVuSans-30" transform="translate(95.410156 0)"/>
      </g>
     </g>
    </g>
    <g id="ytick_11">
     <g id="line2d_41">
      <g>
       <use xlink:href="#m3c60a8f78a" x="43.78125" y="307.5175" style="stroke: #000000; stroke-width: 0.8"/>
      </g>
     </g>
     <g id="text_43">
      <!-- 0.5 -->
      <g transform="translate(20.878125 311.316719) scale(0.1 -0.1)">
       <defs>
        <path id="DejaVuSans-35" d="M 691 4666 
L 3169 4666 
L 3169 4134 
L 1269 4134 
L 1269 2991 
Q 1406 3038 1543 3061 
Q 1681 3084 1819 3084 
Q 2600 3084 3056 2656 
Q 3513 2228 3513 1497 
Q 3513 744 3044 326 
Q 2575 -91 1722 -91 
Q 1428 -91 1123 -41 
Q 819 9 494 109 
L 494 744 
Q 775 591 1075 516 
Q 1375 441 1709 441 
Q 2250 441 2565 725 
Q 2881 1009 2881 1497 
Q 2881 1984 2565 2268 
Q 2250 2553 1709 2553 
Q 1456 2553 1204 2497 
Q 953 2441 691 2322 
L 691 4666 
z
" transform="scale(0.015625)"/>
       </defs>
       <use xlink:href="#DejaVuSans-30"/>
       <use xlink:href="#DejaVuSans-2e" transform="translate(63.623047 0)"/>
       <use xlink:href="#DejaVuSans-35" transform="translate(95.410156 0)"/>
      </g>
     </g>
    </g>
    <g id="ytick_12">
     <g id="line2d_42">
      <g>
       <use xlink:href="#m3c60a8f78a" x="43.78125" y="282.6175" style="stroke: #000000; stroke-width: 0.8"/>
      </g>
     </g>
     <g id="text_44">
      <!-- 1.0 -->
      <g transform="translate(20.878125 286.416719) scale(0.1 -0.1)">
       <use xlink:href="#DejaVuSans-31"/>
       <use xlink:href="#DejaVuSans-2e" transform="translate(63.623047 0)"/>
       <use xlink:href="#DejaVuSans-30" transform="translate(95.410156 0)"/>
      </g>
     </g>
    </g>
    <g id="ytick_13">
     <g id="line2d_43">
      <g>
       <use xlink:href="#m3c60a8f78a" x="43.78125" y="257.7175" style="stroke: #000000; stroke-width: 0.8"/>
      </g>
     </g>
     <g id="text_45">
      <!-- 1.5 -->
      <g transform="translate(20.878125 261.516719) scale(0.1 -0.1)">
       <use xlink:href="#DejaVuSans-31"/>
       <use xlink:href="#DejaVuSans-2e" transform="translate(63.623047 0)"/>
       <use xlink:href="#DejaVuSans-35" transform="translate(95.410156 0)"/>
      </g>
     </g>
    </g>
    <g id="ytick_14">
     <g id="line2d_44">
      <g>
       <use xlink:href="#m3c60a8f78a" x="43.78125" y="232.8175" style="stroke: #000000; stroke-width: 0.8"/>
      </g>
     </g>
     <g id="text_46">
      <!-- 2.0 -->
      <g transform="translate(20.878125 236.616719) scale(0.1 -0.1)">
       <use xlink:href="#DejaVuSans-32"/>
       <use xlink:href="#DejaVuSans-2e" transform="translate(63.623047 0)"/>
       <use xlink:href="#DejaVuSans-30" transform="translate(95.410156 0)"/>
      </g>
     </g>
    </g>
    <g id="text_47">
     <!-- Model / Measured NPQ [a.u.] -->
     <g transform="translate(14.798438 354.097188) rotate(-90) scale(0.1 -0.1)">
      <defs>
       <path id="DejaVuSans-2f" d="M 1625 4666 
L 2156 4666 
L 531 -594 
L 0 -594 
L 1625 4666 
z
" transform="scale(0.015625)"/>
      </defs>
      <use xlink:href="#DejaVuSans-4d"/>
      <use xlink:href="#DejaVuSans-6f" transform="translate(86.279297 0)"/>
      <use xlink:href="#DejaVuSans-64" transform="translate(147.460938 0)"/>
      <use xlink:href="#DejaVuSans-65" transform="translate(210.9375 0)"/>
      <use xlink:href="#DejaVuSans-6c" transform="translate(272.460938 0)"/>
      <use xlink:href="#DejaVuSans-20" transform="translate(300.244141 0)"/>
      <use xlink:href="#DejaVuSans-2f" transform="translate(332.03125 0)"/>
      <use xlink:href="#DejaVuSans-20" transform="translate(365.722656 0)"/>
      <use xlink:href="#DejaVuSans-4d" transform="translate(397.509766 0)"/>
      <use xlink:href="#DejaVuSans-65" transform="translate(483.789062 0)"/>
      <use xlink:href="#DejaVuSans-61" transform="translate(545.3125 0)"/>
      <use xlink:href="#DejaVuSans-73" transform="translate(606.591797 0)"/>
      <use xlink:href="#DejaVuSans-75" transform="translate(658.691406 0)"/>
      <use xlink:href="#DejaVuSans-72" transform="translate(722.070312 0)"/>
      <use xlink:href="#DejaVuSans-65" transform="translate(760.933594 0)"/>
      <use xlink:href="#DejaVuSans-64" transform="translate(822.457031 0)"/>
      <use xlink:href="#DejaVuSans-20" transform="translate(885.933594 0)"/>
      <use xlink:href="#DejaVuSans-4e" transform="translate(917.720703 0)"/>
      <use xlink:href="#DejaVuSans-50" transform="translate(992.525391 0)"/>
      <use xlink:href="#DejaVuSans-51" transform="translate(1052.828125 0)"/>
      <use xlink:href="#DejaVuSans-20" transform="translate(1131.539062 0)"/>
      <use xlink:href="#DejaVuSans-5b" transform="translate(1163.326172 0)"/>
      <use xlink:href="#DejaVuSans-61" transform="translate(1202.339844 0)"/>
      <use xlink:href="#DejaVuSans-2e" transform="translate(1263.619141 0)"/>
      <use xlink:href="#DejaVuSans-75" transform="translate(1295.40625 0)"/>
      <use xlink:href="#DejaVuSans-2e" transform="translate(1358.785156 0)"/>
      <use xlink:href="#DejaVuSans-5d" transform="translate(1390.572266 0)"/>
     </g>
    </g>
   </g>
   <g id="line2d_45">
    <path d="M 43.78125 282.6175 
L 73.893631 282.6175 
L 99.056032 282.6175 
L 124.218433 282.6175 
L 149.380834 282.6175 
L 174.543234 282.6175 
L 199.705635 282.6175 
L 224.868036 282.6175 
L 250.030437 282.6175 
L 275.192838 282.6175 
L 300.355238 282.6175 
L 325.517639 282.6175 
L 350.68004 282.6175 
L 375.842441 282.6175 
L 401.004841 282.6175 
L 426.167242 282.6175 
L 451.329643 282.6175 
L 476.492044 282.6175 
L 501.654445 282.6175 
L 526.816845 282.6175 
L 551.979246 282.6175 
L 577.141647 282.6175 
L 602.304048 282.6175 
L 627.466448 282.6175 
L 652.628849 282.6175 
L 677.79125 282.6175 
" clip-path="url(#p4016eb0bcf)" style="fill: none; stroke-dasharray: 3.7,1.6; stroke-dashoffset: 0; stroke: #84569f; stroke-opacity: 0.5"/>
   </g>
   <g id="patch_88">
    <path d="M 43.78125 337.3975 
L 43.78125 227.8375 
" style="fill: none; stroke: #000000; stroke-width: 0.8; stroke-linejoin: miter; stroke-linecap: square"/>
   </g>
   <g id="patch_89">
    <path d="M 677.79125 337.3975 
L 677.79125 227.8375 
" style="fill: none; stroke: #000000; stroke-width: 0.8; stroke-linejoin: miter; stroke-linecap: square"/>
   </g>
   <g id="patch_90">
    <path d="M 43.78125 337.3975 
L 677.79125 337.3975 
" style="fill: none; stroke: #000000; stroke-width: 0.8; stroke-linejoin: miter; stroke-linecap: square"/>
   </g>
   <g id="patch_91">
    <path d="M 43.78125 227.8375 
L 677.79125 227.8375 
" style="fill: none; stroke: #000000; stroke-width: 0.8; stroke-linejoin: miter; stroke-linecap: square"/>
   </g>
   <g id="text_48">
    <!-- Bellasio2019 -->
    <g transform="translate(298.38875 19.3575) scale(0.16 -0.16)">
     <defs>
      <path id="DejaVuSans-Bold-42" d="M 2456 2859 
Q 2741 2859 2887 2984 
Q 3034 3109 3034 3353 
Q 3034 3594 2887 3720 
Q 2741 3847 2456 3847 
L 1791 3847 
L 1791 2859 
L 2456 2859 
z
M 2497 819 
Q 2859 819 3042 972 
Q 3225 1125 3225 1434 
Q 3225 1738 3044 1889 
Q 2863 2041 2497 2041 
L 1791 2041 
L 1791 819 
L 2497 819 
z
M 3616 2497 
Q 4003 2384 4215 2081 
Q 4428 1778 4428 1338 
Q 4428 663 3972 331 
Q 3516 0 2584 0 
L 588 0 
L 588 4666 
L 2394 4666 
Q 3366 4666 3802 4372 
Q 4238 4078 4238 3431 
Q 4238 3091 4078 2852 
Q 3919 2613 3616 2497 
z
" transform="scale(0.015625)"/>
      <path id="DejaVuSans-Bold-65" d="M 4031 1759 
L 4031 1441 
L 1416 1441 
Q 1456 1047 1700 850 
Q 1944 653 2381 653 
Q 2734 653 3104 758 
Q 3475 863 3866 1075 
L 3866 213 
Q 3469 63 3072 -14 
Q 2675 -91 2278 -91 
Q 1328 -91 801 392 
Q 275 875 275 1747 
Q 275 2603 792 3093 
Q 1309 3584 2216 3584 
Q 3041 3584 3536 3087 
Q 4031 2591 4031 1759 
z
M 2881 2131 
Q 2881 2450 2695 2645 
Q 2509 2841 2209 2841 
Q 1884 2841 1681 2658 
Q 1478 2475 1428 2131 
L 2881 2131 
z
" transform="scale(0.015625)"/>
      <path id="DejaVuSans-Bold-6c" d="M 538 4863 
L 1656 4863 
L 1656 0 
L 538 0 
L 538 4863 
z
" transform="scale(0.015625)"/>
      <path id="DejaVuSans-Bold-61" d="M 2106 1575 
Q 1756 1575 1579 1456 
Q 1403 1338 1403 1106 
Q 1403 894 1545 773 
Q 1688 653 1941 653 
Q 2256 653 2472 879 
Q 2688 1106 2688 1447 
L 2688 1575 
L 2106 1575 
z
M 3816 1997 
L 3816 0 
L 2688 0 
L 2688 519 
Q 2463 200 2181 54 
Q 1900 -91 1497 -91 
Q 953 -91 614 226 
Q 275 544 275 1050 
Q 275 1666 698 1953 
Q 1122 2241 2028 2241 
L 2688 2241 
L 2688 2328 
Q 2688 2594 2478 2717 
Q 2269 2841 1825 2841 
Q 1466 2841 1156 2769 
Q 847 2697 581 2553 
L 581 3406 
Q 941 3494 1303 3539 
Q 1666 3584 2028 3584 
Q 2975 3584 3395 3211 
Q 3816 2838 3816 1997 
z
" transform="scale(0.015625)"/>
      <path id="DejaVuSans-Bold-73" d="M 3272 3391 
L 3272 2541 
Q 2913 2691 2578 2766 
Q 2244 2841 1947 2841 
Q 1628 2841 1473 2761 
Q 1319 2681 1319 2516 
Q 1319 2381 1436 2309 
Q 1553 2238 1856 2203 
L 2053 2175 
Q 2913 2066 3209 1816 
Q 3506 1566 3506 1031 
Q 3506 472 3093 190 
Q 2681 -91 1863 -91 
Q 1516 -91 1145 -36 
Q 775 19 384 128 
L 384 978 
Q 719 816 1070 734 
Q 1422 653 1784 653 
Q 2113 653 2278 743 
Q 2444 834 2444 1013 
Q 2444 1163 2330 1236 
Q 2216 1309 1875 1350 
L 1678 1375 
Q 931 1469 631 1722 
Q 331 1975 331 2491 
Q 331 3047 712 3315 
Q 1094 3584 1881 3584 
Q 2191 3584 2531 3537 
Q 2872 3491 3272 3391 
z
" transform="scale(0.015625)"/>
      <path id="DejaVuSans-Bold-69" d="M 538 3500 
L 1656 3500 
L 1656 0 
L 538 0 
L 538 3500 
z
M 538 4863 
L 1656 4863 
L 1656 3950 
L 538 3950 
L 538 4863 
z
" transform="scale(0.015625)"/>
      <path id="DejaVuSans-Bold-6f" d="M 2203 2784 
Q 1831 2784 1636 2517 
Q 1441 2250 1441 1747 
Q 1441 1244 1636 976 
Q 1831 709 2203 709 
Q 2569 709 2762 976 
Q 2956 1244 2956 1747 
Q 2956 2250 2762 2517 
Q 2569 2784 2203 2784 
z
M 2203 3584 
Q 3106 3584 3614 3096 
Q 4122 2609 4122 1747 
Q 4122 884 3614 396 
Q 3106 -91 2203 -91 
Q 1297 -91 786 396 
Q 275 884 275 1747 
Q 275 2609 786 3096 
Q 1297 3584 2203 3584 
z
" transform="scale(0.015625)"/>
      <path id="DejaVuSans-Bold-32" d="M 1844 884 
L 3897 884 
L 3897 0 
L 506 0 
L 506 884 
L 2209 2388 
Q 2438 2594 2547 2791 
Q 2656 2988 2656 3200 
Q 2656 3528 2436 3728 
Q 2216 3928 1850 3928 
Q 1569 3928 1234 3808 
Q 900 3688 519 3450 
L 519 4475 
Q 925 4609 1322 4679 
Q 1719 4750 2100 4750 
Q 2938 4750 3402 4381 
Q 3866 4013 3866 3353 
Q 3866 2972 3669 2642 
Q 3472 2313 2841 1759 
L 1844 884 
z
" transform="scale(0.015625)"/>
      <path id="DejaVuSans-Bold-30" d="M 2944 2338 
Q 2944 3213 2780 3570 
Q 2616 3928 2228 3928 
Q 1841 3928 1675 3570 
Q 1509 3213 1509 2338 
Q 1509 1453 1675 1090 
Q 1841 728 2228 728 
Q 2613 728 2778 1090 
Q 2944 1453 2944 2338 
z
M 4147 2328 
Q 4147 1169 3647 539 
Q 3147 -91 2228 -91 
Q 1306 -91 806 539 
Q 306 1169 306 2328 
Q 306 3491 806 4120 
Q 1306 4750 2228 4750 
Q 3147 4750 3647 4120 
Q 4147 3491 4147 2328 
z
" transform="scale(0.015625)"/>
      <path id="DejaVuSans-Bold-31" d="M 750 831 
L 1813 831 
L 1813 3847 
L 722 3622 
L 722 4441 
L 1806 4666 
L 2950 4666 
L 2950 831 
L 4013 831 
L 4013 0 
L 750 0 
L 750 831 
z
" transform="scale(0.015625)"/>
      <path id="DejaVuSans-Bold-39" d="M 641 103 
L 641 966 
Q 928 831 1190 764 
Q 1453 697 1709 697 
Q 2247 697 2547 995 
Q 2847 1294 2900 1881 
Q 2688 1725 2447 1647 
Q 2206 1569 1925 1569 
Q 1209 1569 770 1986 
Q 331 2403 331 3084 
Q 331 3838 820 4291 
Q 1309 4744 2131 4744 
Q 3044 4744 3544 4128 
Q 4044 3513 4044 2388 
Q 4044 1231 3459 570 
Q 2875 -91 1856 -91 
Q 1528 -91 1228 -42 
Q 928 6 641 103 
z
M 2125 2350 
Q 2441 2350 2600 2554 
Q 2759 2759 2759 3169 
Q 2759 3575 2600 3781 
Q 2441 3988 2125 3988 
Q 1809 3988 1650 3781 
Q 1491 3575 1491 3169 
Q 1491 2759 1650 2554 
Q 1809 2350 2125 2350 
z
" transform="scale(0.015625)"/>
     </defs>
     <use xlink:href="#DejaVuSans-Bold-42"/>
     <use xlink:href="#DejaVuSans-Bold-65" transform="translate(76.220703 0)"/>
     <use xlink:href="#DejaVuSans-Bold-6c" transform="translate(144.042969 0)"/>
     <use xlink:href="#DejaVuSans-Bold-6c" transform="translate(178.320312 0)"/>
     <use xlink:href="#DejaVuSans-Bold-61" transform="translate(212.597656 0)"/>
     <use xlink:href="#DejaVuSans-Bold-73" transform="translate(280.078125 0)"/>
     <use xlink:href="#DejaVuSans-Bold-69" transform="translate(339.599609 0)"/>
     <use xlink:href="#DejaVuSans-Bold-6f" transform="translate(373.876953 0)"/>
     <use xlink:href="#DejaVuSans-Bold-32" transform="translate(442.578125 0)"/>
     <use xlink:href="#DejaVuSans-Bold-30" transform="translate(512.158203 0)"/>
     <use xlink:href="#DejaVuSans-Bold-31" transform="translate(581.738281 0)"/>
     <use xlink:href="#DejaVuSans-Bold-39" transform="translate(651.318359 0)"/>
    </g>
   </g>
   <g id="legend_3">
    <g id="line2d_46">
     <path d="M 299.576094 213.257812 
L 309.576094 213.257812 
L 319.576094 213.257812 
" style="fill: none; stroke-dasharray: 3.7,1.6; stroke-dashoffset: 0; stroke: #84569f; stroke-opacity: 0.5"/>
    </g>
    <g id="text_49">
     <!-- Measured Baseline -->
     <g transform="translate(327.576094 216.757812) scale(0.1 -0.1)">
      <defs>
       <path id="DejaVuSans-42" d="M 1259 2228 
L 1259 519 
L 2272 519 
Q 2781 519 3026 730 
Q 3272 941 3272 1375 
Q 3272 1813 3026 2020 
Q 2781 2228 2272 2228 
L 1259 2228 
z
M 1259 4147 
L 1259 2741 
L 2194 2741 
Q 2656 2741 2882 2914 
Q 3109 3088 3109 3444 
Q 3109 3797 2882 3972 
Q 2656 4147 2194 4147 
L 1259 4147 
z
M 628 4666 
L 2241 4666 
Q 2963 4666 3353 4366 
Q 3744 4066 3744 3513 
Q 3744 3084 3544 2831 
Q 3344 2578 2956 2516 
Q 3422 2416 3680 2098 
Q 3938 1781 3938 1306 
Q 3938 681 3513 340 
Q 3088 0 2303 0 
L 628 0 
L 628 4666 
z
" transform="scale(0.015625)"/>
      </defs>
      <use xlink:href="#DejaVuSans-4d"/>
      <use xlink:href="#DejaVuSans-65" transform="translate(86.279297 0)"/>
      <use xlink:href="#DejaVuSans-61" transform="translate(147.802734 0)"/>
      <use xlink:href="#DejaVuSans-73" transform="translate(209.082031 0)"/>
      <use xlink:href="#DejaVuSans-75" transform="translate(261.181641 0)"/>
      <use xlink:href="#DejaVuSans-72" transform="translate(324.560547 0)"/>
      <use xlink:href="#DejaVuSans-65" transform="translate(363.423828 0)"/>
      <use xlink:href="#DejaVuSans-64" transform="translate(424.947266 0)"/>
      <use xlink:href="#DejaVuSans-20" transform="translate(488.423828 0)"/>
      <use xlink:href="#DejaVuSans-42" transform="translate(520.210938 0)"/>
      <use xlink:href="#DejaVuSans-61" transform="translate(588.814453 0)"/>
      <use xlink:href="#DejaVuSans-73" transform="translate(650.09375 0)"/>
      <use xlink:href="#DejaVuSans-65" transform="translate(702.193359 0)"/>
      <use xlink:href="#DejaVuSans-6c" transform="translate(763.716797 0)"/>
      <use xlink:href="#DejaVuSans-69" transform="translate(791.5 0)"/>
      <use xlink:href="#DejaVuSans-6e" transform="translate(819.283203 0)"/>
      <use xlink:href="#DejaVuSans-65" transform="translate(882.662109 0)"/>
     </g>
    </g>
   </g>
  </g>
 </g>
 <defs>
  <clipPath id="p859361cc6d">
   <rect x="43.78125" y="53.2375" width="310.03" height="109.56"/>
  </clipPath>
  <clipPath id="p4b1884d241">
   <rect x="367.76125" y="53.2375" width="310.03" height="109.56"/>
  </clipPath>
  <clipPath id="p4016eb0bcf">
   <rect x="43.78125" y="227.8375" width="634.01" height="109.56"/>
  </clipPath>
 </defs>
</svg>
